<?xml version="1.0" encoding="UTF-8" standalone="no"?>
<!DOCTYPE svg PUBLIC "-//W3C//DTD SVG 1.1//EN"
"http://www.w3.org/Graphics/SVG/1.1/DTD/svg11.dtd">
<svg version="1.1" xmlns="http://www.w3.org/2000/svg" xmlns:xlink="http://www.w3.org/1999/xlink">
<defs>
<clipPath id="c0_8"><path d="M0.5,1190.5L0.5,0.5l1160,0l0,1190Z" /></clipPath>
<style type="text/css"><![CDATA[
	.btn_bg{
fill: #00A1BE;
}

	.btn_bortercolor{
fill: none;
stroke: #6DC6DA;
stroke-width: 5;
stroke-linecap: butt;
stroke-linejoin: miter;
stroke-miterlimit: 4;
}
	.btn_border{
fill: none;
stroke: #FFFFFF;
stroke-width: 1;
stroke-linecap: butt;
stroke-linejoin: miter;
stroke-miterlimit: 4;
}

.g13_8{
fill: none;
stroke: #62BDCE;
stroke-width: 5;
stroke-linecap: butt;
stroke-linejoin: miter;
stroke-miterlimit: 4;
}
.g5_8{
fill: none;
stroke: #74CAF2;
stroke-width: 1;
stroke-linecap: butt;
stroke-linejoin: miter;
stroke-miterlimit: 4;
}
.g14_8{
fill: none;
stroke: #FFFFFF;
stroke-width: 1;
stroke-linecap: butt;
stroke-linejoin: miter;
stroke-miterlimit: 4;
}
.g4_8{
fill: none;
stroke: #000000;
stroke-width: 1;
stroke-linecap: butt;
stroke-linejoin: miter;
stroke-miterlimit: 4;
}
.g1_8{
fill: #FFFBE1;
}
.g7_8{
}
.g11_8{
fill: #93D5F5;
}
.g3_8{
fill: #FFFFFF;
}
.g2_8{
fill: #5794CD;
}
.g8_8{
fill: none;
stroke: #000000;
stroke-width: 2;
stroke-linecap: butt;
stroke-linejoin: miter;
stroke-miterlimit: 4;
}
.g12_8{
fill: #0099B4;
}
.g10_8{
fill: #00BEFF;
}
.g6_8{
fill: none;
stroke: #C8C8C7;
stroke-width: 1;
stroke-linecap: butt;
stroke-linejoin: miter;
stroke-miterlimit: 4;
}
.g9_8{
fill: #74CAF2;
}
]]></style>
</defs>
<g id="button" transform="translate(47,298.5)">
<path d="M7.4,2.3c0,0,-4.7,0,-4.7,4l0,20.6c0,0,0,3.9,4.7,3.9l110.3,0c0,0,4.7,0,4.7,-3.9l0,-20.6c0,0,0,-4,-4.7,-4Z" class="btn_bg" />
<path d="M7.4,2.3c0,0,-4.7,0,-4.7,4l0,20.6c0,0,0,3.9,4.7,3.9l110.3,0c0,0,4.7,0,4.7,-3.9l0,-20.6c0,0,0,-4,-4.7,-4l-110.3,0Z" class="btn_bortercolor" />
<path d="M9.2,4.6L8.6,0m-1.2,5l-2.3,-4.1m1.3,4.8L2,3m3.8,3.8l-5.4,-0.7m5.2,2.7l-5.4,0m5.4,2.3l-5.4,0m5.4,2.3l-5.4,0m5.4,2.3l-5.4,0m5.4,2.3l-5.4,0m5.4,2.3l-5.4,0m5.4,2.3l-5.4,0m5.4,2.3l-5.4,0m5.6,1.5L0.7,28m6,-0.4l-4.1,3.1m5.3,-2.4l-2.1,4.3m3.8,-4.1l0,4.6m2.7,-4.6l0,4.6" class="btn_border" />
<path d="M15,28.5l0,4.6m2.8,-4.6l0,4.6m2.7,-4.6l0,4.6m2.7,-4.6l0,4.6" class="btn_border" />
<path d="M26,28.5l0,4.6m2.7,-4.6l0,4.6m2.7,-4.6l0,4.6m2.8,-4.6l0,4.6m2.7,-4.6l0,4.6m2.7,-4.6l0,4.6m2.8,-4.6l0,4.6m2.7,-4.6l0,4.6m2.7,-4.6l0,4.6m2.8,-4.6l0,4.6m2.7,-4.6l0,4.6m2.7,-4.6l0,4.6m2.8,-4.6l0,4.6m2.7,-4.6l0,4.6m2.7,-4.6l0,4.6m2.8,-4.6l0,4.6m2.7,-4.6l0,4.6m2.7,-4.6l0,4.6m2.8,-4.6l0,4.6m2.7,-4.6l0,4.6m2.7,-4.6l0,4.6m2.8,-4.6l0,4.6m2.7,-4.6l0,4.6m2.7,-4.6l0,4.6m2.7,-4.6l0,4.6m2.8,-4.6l0,4.6m2.7,-4.6l0,4.6m2.7,-4.6l0,4.6m2.8,-4.6l0,4.6m2.7,-4.6l0,4.6m2.7,-4.6l0,4.6m2.8,-4.6l0,4.6m2.7,-4.6l0,4.6m2.6,-4.6l0.3,4.6m1.4,-4.8l2.3,4.1m-1,-4.9l4,3.1m-3.3,-4.2l5.3,1.3m-5.1,-2.9l5.4,0m-5.4,-2.3l5.4,0m-5.4,-2.3l5.4,0m-5.4,-2.3l5.4,0m-5.4,-2.3l5.4,0m-5.4,-2.4l5.4,0m-5.4,-2.3l5.4,0m-5.4,-2.3l5.4,0" class="btn_border" />
<path d="M119.8,7l5.2,-1.3m-6,-0.1l4.4,-2.7m-5.3,2l2.1,-4.2m-3.8,3.9l0.2,-4.6m-2.8,4.6l0,-4.6m-2.8,4.6l0,-4.6m-2.7,4.6l0,-4.6m-2.7,4.6l0,-4.6m-2.8,4.6l0,-4.6m-2.7,4.6l0,-4.6m-2.7,4.6l0,-4.6m-2.8,4.6l0,-4.6m-2.7,4.6l0,-4.6m-2.7,4.6l0,-4.6m-2.8,4.6l0,-4.6m-2.7,4.6l0,-4.6m-2.7,4.6l0,-4.6m-2.8,4.6l0,-4.6m-2.7,4.6l0,-4.6m-2.7,4.6l0,-4.6m-2.8,4.6l0,-4.6m-2.7,4.6l0,-4.6m-2.7,4.6l0,-4.6m-2.8,4.6l0,-4.6m-2.7,4.6l0,-4.6m-2.7,4.6l0,-4.6m-2.8,4.6l0,-4.6m-2.7,4.6l0,-4.6m-2.7,4.6l0,-4.6m-2.8,4.6l0,-4.6m-2.7,4.6l0,-4.6" class="btn_border" />
<path d="M40,4.6L40,0m-2.8,4.6l0,-4.6m-2.7,4.6l0,-4.6m-2.7,4.6l0,-4.6m-2.7,4.6l0,-4.6m-2.8,4.6l0,-4.6m-2.7,4.6l0,-4.6m-2.7,4.6l0,-4.6m-2.8,4.6l0,-4.6m-2.7,4.6l0,-4.6m-2.7,4.6l0,-4.6m-2.8,4.6l0,-4.6" class="btn_border" />
</g>
<path d="M214,1190l946,0l0,-635l-946,0l0,635Z" class="g1_8" />
<g clip-path="url(#c0_8)">
<path d="M274.9,555.6l-1.5,1.6c0.2,0.3,0.6,0.6,0.8,0.8l1.5,-1.6l1.6,1.6c0.3,-0.2,0.5,-0.5,0.8,-0.8l-1.6,-1.6l1.6,-1.4c-0.3,-0.3,-0.5,-0.7,-0.8,-0.8l-1.6,1.5l-1.5,-1.5c-0.2,0.1,-0.6,0.5,-0.8,0.8Zm-14.7,0l-1.6,1.6c0.3,0.3,0.6,0.6,0.8,0.8l1.6,-1.6l1.5,1.6c0.3,-0.2,0.6,-0.5,0.8,-0.8l-1.5,-1.6l1.5,-1.4c-0.2,-0.3,-0.5,-0.7,-0.8,-0.8l-1.5,1.5l-1.6,-1.5c-0.2,0.1,-0.5,0.5,-0.8,0.8Zm-44.3,0l-1.5,1.6c0.2,0.3,0.5,0.6,0.8,0.8l1.5,-1.6l1.5,1.6c0.3,-0.2,0.6,-0.5,0.8,-0.8l-1.5,-1.6l1.5,-1.4c-0.2,-0.3,-0.5,-0.7,-0.8,-0.8l-1.5,1.5l-1.5,-1.5c-0.3,0.1,-0.6,0.5,-0.8,0.8Zm29.5,0l-1.5,1.6c0.2,0.3,0.5,0.6,0.8,0.8l1.5,-1.6l1.5,1.6c0.4,-0.2,0.6,-0.5,0.8,-0.8L247,555.6l1.5,-1.4c-0.2,-0.3,-0.4,-0.7,-0.8,-0.8l-1.5,1.5l-1.5,-1.5c-0.3,0.1,-0.6,0.5,-0.8,0.8Zm-14.7,0l-1.6,1.6c0.3,0.3,0.6,0.6,0.8,0.8l1.6,-1.6L233,558c0.3,-0.2,0.5,-0.5,0.8,-0.8l-1.5,-1.6l1.5,-1.4c-0.3,-0.3,-0.5,-0.7,-0.8,-0.8l-1.5,1.5l-1.6,-1.5c-0.2,0.1,-0.5,0.5,-0.8,0.8Zm119.6,0l-1.5,1.6c0.2,0.3,0.6,0.6,0.8,0.8l1.5,-1.6l1.5,1.6c0.4,-0.2,0.6,-0.5,0.8,-0.8l-1.5,-1.6l1.5,-1.4c-0.2,-0.3,-0.4,-0.7,-0.8,-0.8l-1.5,1.5l-1.5,-1.5c-0.2,0.1,-0.6,0.5,-0.8,0.8Zm-14.7,0l-1.6,1.6c0.3,0.3,0.6,0.6,0.8,0.8l1.6,-1.6l1.5,1.6c0.3,-0.2,0.6,-0.5,0.8,-0.8l-1.5,-1.6l1.5,-1.4c-0.2,-0.3,-0.5,-0.7,-0.8,-0.8l-1.5,1.5l-1.6,-1.5c-0.2,0.1,-0.5,0.5,-0.8,0.8Zm-44.3,0l-1.5,1.6c0.2,0.3,0.5,0.6,0.8,0.8l1.5,-1.6l1.5,1.6c0.3,-0.2,0.6,-0.5,0.8,-0.8l-1.5,-1.6l1.5,-1.4c-0.2,-0.3,-0.5,-0.7,-0.8,-0.8l-1.5,1.5l-1.5,-1.5c-0.3,0.1,-0.6,0.5,-0.8,0.8Zm29.5,0l-1.5,1.6c0.2,0.3,0.5,0.6,0.8,0.8l1.5,-1.6l1.5,1.6c0.4,-0.2,0.6,-0.5,0.8,-0.8l-1.5,-1.6l1.5,-1.4c-0.2,-0.3,-0.4,-0.7,-0.8,-0.8l-1.5,1.5l-1.5,-1.5c-0.3,0.1,-0.6,0.5,-0.8,0.8Zm-14.8,0l-1.5,1.6c0.3,0.3,0.6,0.6,0.8,0.8l1.5,-1.6l1.6,1.6c0.3,-0.2,0.5,-0.5,0.8,-0.8l-1.5,-1.6l1.5,-1.4c-0.3,-0.3,-0.5,-0.7,-0.8,-0.8l-1.6,1.5l-1.5,-1.5c-0.2,0.1,-0.5,0.5,-0.8,0.8Zm119.7,0l-1.5,1.6c0.2,0.3,0.6,0.6,0.8,0.8l1.5,-1.6L428,558c0.4,-0.2,0.6,-0.5,0.8,-0.8l-1.5,-1.6l1.5,-1.4c-0.2,-0.3,-0.4,-0.7,-0.8,-0.8l-1.5,1.5L425,553.4c-0.2,0.1,-0.6,0.5,-0.8,0.8Zm-14.7,0l-1.6,1.6c0.3,0.3,0.6,0.6,0.8,0.8l1.6,-1.6l1.5,1.6c0.3,-0.2,0.5,-0.5,0.8,-0.8l-1.5,-1.6l1.5,-1.4c-0.3,-0.3,-0.5,-0.7,-0.8,-0.8l-1.5,1.5l-1.6,-1.5c-0.2,0.1,-0.5,0.5,-0.8,0.8Zm-44.3,0l-1.5,1.6c0.2,0.3,0.5,0.6,0.8,0.8l1.5,-1.6L369,558c0.3,-0.2,0.6,-0.5,0.8,-0.8l-1.5,-1.6l1.5,-1.4c-0.2,-0.3,-0.5,-0.7,-0.8,-0.8l-1.5,1.5L366,553.4c-0.3,0.1,-0.6,0.5,-0.8,0.8Zm29.5,0l-1.5,1.6c0.2,0.3,0.5,0.6,0.8,0.8l1.5,-1.6l1.5,1.6c0.3,-0.2,0.6,-0.5,0.8,-0.8l-1.5,-1.6l1.5,-1.4c-0.2,-0.3,-0.5,-0.7,-0.8,-0.8l-1.5,1.5l-1.5,-1.5c-0.3,0.1,-0.6,0.5,-0.8,0.8Zm-14.8,0l-1.5,1.6c0.3,0.3,0.6,0.6,0.8,0.8l1.5,-1.6l1.6,1.6c0.3,-0.2,0.5,-0.5,0.8,-0.8L383,555.6l1.6,-1.4c-0.3,-0.3,-0.5,-0.7,-0.8,-0.8l-1.6,1.5l-1.5,-1.5c-0.2,0.1,-0.5,0.5,-0.8,0.8Zm119.7,0l-1.5,1.6c0.2,0.3,0.5,0.6,0.8,0.8l1.5,-1.6l1.5,1.6c0.4,-0.2,0.6,-0.5,0.8,-0.8l-1.5,-1.6l1.5,-1.4c-0.2,-0.3,-0.4,-0.7,-0.8,-0.8l-1.5,1.5l-1.5,-1.5c-0.3,0.1,-0.6,0.5,-0.8,0.8Zm-14.7,0l-1.6,1.6c0.3,0.3,0.6,0.6,0.8,0.8l1.6,-1.6l1.5,1.6c0.3,-0.2,0.5,-0.5,0.8,-0.8L488,555.6l1.5,-1.4c-0.3,-0.3,-0.5,-0.7,-0.8,-0.8l-1.5,1.5l-1.6,-1.5c-0.2,0.1,-0.5,0.5,-0.8,0.8Zm-44.3,0l-1.5,1.6c0.2,0.3,0.5,0.6,0.8,0.8l1.5,-1.6l1.5,1.6c0.3,-0.2,0.6,-0.5,0.8,-0.8l-1.5,-1.6l1.5,-1.4c-0.2,-0.3,-0.5,-0.7,-0.8,-0.8l-1.5,1.5l-1.5,-1.5c-0.3,0.1,-0.6,0.5,-0.8,0.8Zm29.5,0l-1.5,1.6c0.2,0.3,0.5,0.6,0.8,0.8l1.5,-1.6l1.5,1.6c0.3,-0.2,0.6,-0.5,0.8,-0.8l-1.5,-1.6l1.5,-1.4c-0.2,-0.3,-0.5,-0.7,-0.8,-0.8l-1.5,1.5l-1.5,-1.5c-0.3,0.1,-0.6,0.5,-0.8,0.8Zm-14.8,0l-1.5,1.6c0.3,0.3,0.6,0.6,0.8,0.8l1.5,-1.6l1.6,1.6c0.3,-0.2,0.5,-0.5,0.8,-0.8l-1.6,-1.6l1.6,-1.4c-0.3,-0.3,-0.5,-0.7,-0.8,-0.8l-1.6,1.5l-1.5,-1.5c-0.2,0.1,-0.5,0.5,-0.8,0.8Zm119.7,0l-1.5,1.6c0.2,0.3,0.5,0.6,0.8,0.8l1.5,-1.6l1.5,1.6c0.3,-0.2,0.6,-0.5,0.8,-0.8l-1.5,-1.6l1.5,-1.4c-0.2,-0.3,-0.5,-0.7,-0.8,-0.8l-1.5,1.5l-1.5,-1.5c-0.3,0.1,-0.6,0.5,-0.8,0.8Zm-14.8,0l-1.5,1.6c0.3,0.3,0.6,0.6,0.8,0.8l1.5,-1.6l1.6,1.6c0.3,-0.2,0.5,-0.5,0.8,-0.8l-1.6,-1.6l1.6,-1.4c-0.3,-0.3,-0.5,-0.7,-0.8,-0.8l-1.6,1.5L561,553.4c-0.2,0.1,-0.5,0.5,-0.8,0.8Zm-44.2,0l-1.6,1.6c0.3,0.3,0.6,0.6,0.8,0.8l1.6,-1.6l1.5,1.6c0.3,-0.2,0.6,-0.5,0.8,-0.8l-1.5,-1.6l1.5,-1.4c-0.2,-0.3,-0.5,-0.7,-0.8,-0.8l-1.5,1.5l-1.6,-1.5c-0.2,0.1,-0.5,0.5,-0.8,0.8Zm29.5,0l-1.5,1.6c0.2,0.3,0.5,0.6,0.8,0.8l1.5,-1.6l1.5,1.6c0.3,-0.2,0.6,-0.5,0.8,-0.8l-1.5,-1.6l1.5,-1.4c-0.2,-0.3,-0.5,-0.7,-0.8,-0.8l-1.5,1.5l-1.5,-1.5c-0.3,0.1,-0.6,0.5,-0.8,0.8Zm-14.8,0l-1.5,1.6c0.2,0.3,0.6,0.6,0.8,0.8l1.5,-1.6l1.6,1.6c0.3,-0.2,0.5,-0.5,0.8,-0.8l-1.6,-1.6l1.6,-1.4c-0.3,-0.3,-0.5,-0.7,-0.8,-0.8l-1.6,1.5l-1.5,-1.5c-0.2,0.1,-0.6,0.5,-0.8,0.8Zm119.7,0l-1.5,1.6c0.2,0.3,0.5,0.6,0.8,0.8l1.5,-1.6l1.5,1.6c0.3,-0.2,0.6,-0.5,0.8,-0.8l-1.5,-1.6l1.5,-1.4c-0.2,-0.3,-0.5,-0.7,-0.8,-0.8l-1.5,1.5l-1.5,-1.5c-0.3,0.1,-0.6,0.5,-0.8,0.8Zm-14.8,0l-1.5,1.6c0.3,0.3,0.6,0.6,0.8,0.8l1.5,-1.6l1.6,1.6c0.3,-0.2,0.5,-0.5,0.8,-0.8l-1.6,-1.6l1.6,-1.4c-0.3,-0.3,-0.5,-0.7,-0.8,-0.8l-1.6,1.5l-1.5,-1.5c-0.2,0.1,-0.5,0.5,-0.8,0.8Zm-44.2,0l-1.6,1.6c0.3,0.3,0.6,0.6,0.8,0.8l1.6,-1.6l1.5,1.6c0.3,-0.2,0.6,-0.5,0.8,-0.8l-1.5,-1.6l1.5,-1.4c-0.2,-0.3,-0.5,-0.7,-0.8,-0.8l-1.5,1.5l-1.6,-1.5c-0.2,0.1,-0.5,0.5,-0.8,0.8Zm29.5,0l-1.5,1.6c0.2,0.3,0.5,0.6,0.8,0.8l1.5,-1.6l1.5,1.6c0.3,-0.2,0.6,-0.5,0.8,-0.8L624,555.6l1.5,-1.4c-0.2,-0.3,-0.5,-0.7,-0.8,-0.8l-1.5,1.5l-1.5,-1.5c-0.3,0.1,-0.6,0.5,-0.8,0.8Zm-14.8,0l-1.5,1.6c0.2,0.3,0.6,0.6,0.8,0.8l1.5,-1.6l1.5,1.6c0.4,-0.2,0.6,-0.5,0.8,-0.8l-1.5,-1.6l1.5,-1.4c-0.2,-0.3,-0.4,-0.7,-0.8,-0.8l-1.5,1.5l-1.5,-1.5c-0.2,0.1,-0.6,0.5,-0.8,0.8Zm119.7,0l-1.5,1.6c0.2,0.3,0.5,0.6,0.8,0.8l1.5,-1.6l1.5,1.6c0.3,-0.2,0.6,-0.5,0.8,-0.8l-1.5,-1.6l1.5,-1.4c-0.2,-0.3,-0.5,-0.7,-0.8,-0.8l-1.5,1.5l-1.5,-1.5c-0.3,0.1,-0.6,0.5,-0.8,0.8Zm-14.8,0l-1.5,1.6c0.2,0.3,0.6,0.6,0.8,0.8l1.5,-1.6l1.6,1.6c0.3,-0.2,0.5,-0.5,0.8,-0.8l-1.6,-1.6l1.6,-1.4c-0.3,-0.3,-0.5,-0.7,-0.8,-0.8l-1.6,1.5l-1.5,-1.5c-0.2,0.1,-0.6,0.5,-0.8,0.8Zm-44.2,0l-1.6,1.6c0.3,0.3,0.6,0.6,0.8,0.8l1.6,-1.6l1.5,1.6c0.3,-0.2,0.5,-0.5,0.8,-0.8l-1.5,-1.6l1.5,-1.4c-0.3,-0.3,-0.5,-0.7,-0.8,-0.8l-1.5,1.5l-1.6,-1.5c-0.2,0.1,-0.5,0.5,-0.8,0.8Zm29.5,0l-1.6,1.6c0.3,0.3,0.6,0.6,0.9,0.8l1.5,-1.6l1.5,1.6c0.3,-0.2,0.6,-0.5,0.8,-0.8l-1.5,-1.6l1.5,-1.4c-0.2,-0.3,-0.5,-0.7,-0.8,-0.8l-1.5,1.5l-1.5,-1.5c-0.3,0.1,-0.6,0.5,-0.9,0.8Zm-14.8,0l-1.5,1.6c0.2,0.3,0.6,0.6,0.8,0.8l1.5,-1.6l1.5,1.6c0.4,-0.2,0.6,-0.5,0.8,-0.8l-1.5,-1.6l1.5,-1.4c-0.2,-0.3,-0.4,-0.7,-0.8,-0.8l-1.5,1.5l-1.5,-1.5c-0.2,0.1,-0.6,0.5,-0.8,0.8Zm119.7,0l-1.5,1.6c0.2,0.3,0.5,0.6,0.8,0.8l1.5,-1.6L805,558c0.3,-0.2,0.6,-0.5,0.8,-0.8l-1.5,-1.6l1.5,-1.4c-0.2,-0.3,-0.5,-0.7,-0.8,-0.8l-1.5,1.5L802,553.4c-0.3,0.1,-0.6,0.5,-0.8,0.8Zm-14.8,0l-1.5,1.6c0.2,0.3,0.6,0.6,0.8,0.8l1.5,-1.6l1.6,1.6c0.3,-0.2,0.5,-0.5,0.8,-0.8l-1.6,-1.6l1.6,-1.4c-0.3,-0.3,-0.5,-0.7,-0.8,-0.8l-1.6,1.5l-1.5,-1.5c-0.2,0.1,-0.6,0.5,-0.8,0.8Zm-44.2,0l-1.6,1.6c0.3,0.3,0.6,0.6,0.8,0.8l1.6,-1.6L746,558c0.3,-0.2,0.5,-0.5,0.8,-0.8l-1.5,-1.6l1.5,-1.4c-0.3,-0.3,-0.5,-0.7,-0.8,-0.8l-1.5,1.5l-1.6,-1.5c-0.2,0.1,-0.5,0.5,-0.8,0.8Zm29.5,0l-1.6,1.6c0.3,0.3,0.6,0.6,0.8,0.8l1.6,-1.6l1.5,1.6c0.3,-0.2,0.6,-0.5,0.8,-0.8l-1.5,-1.6l1.5,-1.4c-0.2,-0.3,-0.5,-0.7,-0.8,-0.8l-1.5,1.5l-1.6,-1.5c-0.2,0.1,-0.5,0.5,-0.8,0.8Zm-14.8,0l-1.5,1.6c0.2,0.3,0.5,0.6,0.8,0.8l1.5,-1.6l1.5,1.6c0.4,-0.2,0.6,-0.5,0.8,-0.8L760,555.6l1.5,-1.4c-0.2,-0.3,-0.4,-0.7,-0.8,-0.8l-1.5,1.5l-1.5,-1.5c-0.3,0.1,-0.6,0.5,-0.8,0.8Zm119.7,0l-1.5,1.6c0.2,0.3,0.5,0.6,0.8,0.8l1.5,-1.6l1.5,1.6c0.3,-0.2,0.6,-0.5,0.8,-0.8l-1.5,-1.6l1.5,-1.4c-0.2,-0.3,-0.5,-0.7,-0.8,-0.8l-1.5,1.5l-1.5,-1.5c-0.3,0.1,-0.6,0.5,-0.8,0.8Zm-14.8,0l-1.5,1.6c0.2,0.3,0.6,0.6,0.8,0.8l1.5,-1.6l1.5,1.6c0.4,-0.2,0.6,-0.5,0.8,-0.8l-1.5,-1.6l1.5,-1.4c-0.2,-0.3,-0.4,-0.7,-0.8,-0.8l-1.5,1.5l-1.5,-1.5c-0.2,0.1,-0.6,0.5,-0.8,0.8Zm-44.3,0l-1.5,1.6c0.3,0.3,0.6,0.6,0.8,0.8l1.5,-1.6l1.6,1.6c0.3,-0.2,0.5,-0.5,0.8,-0.8l-1.6,-1.6l1.6,-1.4c-0.3,-0.3,-0.5,-0.7,-0.8,-0.8l-1.6,1.5l-1.5,-1.5c-0.2,0.1,-0.5,0.5,-0.8,0.8Zm29.6,0l-1.6,1.6c0.3,0.3,0.6,0.6,0.8,0.8l1.6,-1.6l1.5,1.6c0.3,-0.2,0.5,-0.5,0.8,-0.8l-1.5,-1.6l1.5,-1.4c-0.3,-0.3,-0.5,-0.7,-0.8,-0.8l-1.5,1.5l-1.6,-1.5c-0.2,0.1,-0.5,0.5,-0.8,0.8Zm-14.8,0l-1.5,1.6c0.2,0.3,0.5,0.6,0.8,0.8l1.5,-1.6l1.5,1.6c0.3,-0.2,0.6,-0.5,0.8,-0.8l-1.5,-1.6l1.5,-1.4c-0.2,-0.3,-0.5,-0.7,-0.8,-0.8l-1.5,1.5l-1.5,-1.5c-0.3,0.1,-0.6,0.5,-0.8,0.8Zm119.7,0l-1.6,1.6c0.3,0.3,0.6,0.6,0.8,0.8l1.6,-1.6l1.5,1.6c0.3,-0.2,0.6,-0.5,0.8,-0.8l-1.5,-1.6l1.5,-1.4c-0.2,-0.3,-0.5,-0.7,-0.8,-0.8l-1.5,1.5l-1.6,-1.5c-0.2,0.1,-0.5,0.5,-0.8,0.8Zm-14.8,0l-1.5,1.6c0.2,0.3,0.6,0.6,0.8,0.8l1.5,-1.6L941,558c0.4,-0.2,0.6,-0.5,0.8,-0.8l-1.5,-1.6l1.5,-1.4c-0.2,-0.3,-0.4,-0.7,-0.8,-0.8l-1.5,1.5L938,553.4c-0.2,0.1,-0.6,0.5,-0.8,0.8Zm-44.3,0l-1.5,1.6c0.3,0.3,0.6,0.6,0.8,0.8l1.5,-1.6l1.6,1.6c0.3,-0.2,0.5,-0.5,0.8,-0.8L896,555.6l1.6,-1.4c-0.3,-0.3,-0.5,-0.7,-0.8,-0.8l-1.6,1.5l-1.5,-1.5c-0.2,0.1,-0.5,0.5,-0.8,0.8Zm29.6,0l-1.6,1.6c0.3,0.3,0.6,0.6,0.8,0.8l1.6,-1.6l1.5,1.6c0.3,-0.2,0.5,-0.5,0.8,-0.8l-1.5,-1.6l1.5,-1.4c-0.3,-0.3,-0.5,-0.7,-0.8,-0.8l-1.5,1.5l-1.6,-1.5c-0.2,0.1,-0.5,0.5,-0.8,0.8Zm-14.8,0l-1.5,1.6c0.2,0.3,0.5,0.6,0.8,0.8l1.5,-1.6l1.5,1.6c0.3,-0.2,0.6,-0.5,0.8,-0.8l-1.5,-1.6l1.5,-1.4c-0.2,-0.3,-0.5,-0.7,-0.8,-0.8l-1.5,1.5l-1.5,-1.5c-0.3,0.1,-0.6,0.5,-0.8,0.8Zm119.7,0l-1.6,1.6c0.3,0.3,0.6,0.6,0.8,0.8l1.6,-1.6l1.5,1.6c0.3,-0.2,0.6,-0.5,0.8,-0.8l-1.5,-1.6l1.5,-1.4c-0.2,-0.3,-0.5,-0.7,-0.8,-0.8l-1.5,1.5l-1.6,-1.5c-0.2,0.1,-0.5,0.5,-0.8,0.8Zm-14.8,0l-1.5,1.6c0.2,0.3,0.5,0.6,0.8,0.8l1.5,-1.6l1.5,1.6c0.4,-0.2,0.6,-0.5,0.8,-0.8l-1.5,-1.6l1.5,-1.4c-0.2,-0.3,-0.4,-0.7,-0.8,-0.8l-1.5,1.5l-1.5,-1.5c-0.3,0.1,-0.6,0.5,-0.8,0.8Zm-44.3,0l-1.5,1.6c0.2,0.3,0.6,0.6,0.8,0.8l1.5,-1.6l1.6,1.6c0.3,-0.2,0.5,-0.5,0.8,-0.8l-1.6,-1.6l1.6,-1.4c-0.3,-0.3,-0.5,-0.7,-0.8,-0.8l-1.6,1.5l-1.5,-1.5c-0.2,0.1,-0.6,0.5,-0.8,0.8Zm29.5,0l-1.5,1.6c0.3,0.3,0.6,0.6,0.8,0.8l1.6,-1.6l1.5,1.6c0.3,-0.2,0.5,-0.5,0.8,-0.8l-1.5,-1.6l1.5,-1.4c-0.3,-0.3,-0.5,-0.7,-0.8,-0.8l-1.5,1.5l-1.6,-1.5c-0.2,0.1,-0.5,0.5,-0.8,0.8Zm-14.7,0l-1.5,1.6c0.2,0.3,0.5,0.6,0.8,0.8l1.5,-1.6l1.5,1.6c0.3,-0.2,0.6,-0.5,0.8,-0.8l-1.5,-1.6l1.5,-1.4c-0.2,-0.3,-0.5,-0.7,-0.8,-0.8l-1.5,1.5l-1.5,-1.5c-0.3,0.1,-0.6,0.5,-0.8,0.8Zm119.7,0l-1.6,1.6c0.3,0.3,0.6,0.6,0.8,0.8l1.6,-1.6l1.5,1.6c0.3,-0.2,0.5,-0.5,0.8,-0.8l-1.5,-1.6l1.5,-1.4c-0.3,-0.3,-0.5,-0.7,-0.8,-0.8l-1.5,1.5l-1.6,-1.5c-0.2,0.1,-0.5,0.5,-0.8,0.8Zm-14.8,0l-1.5,1.6c0.2,0.3,0.5,0.6,0.8,0.8l1.5,-1.6l1.5,1.6c0.3,-0.2,0.6,-0.5,0.8,-0.8l-1.5,-1.6l1.5,-1.4c-0.2,-0.3,-0.5,-0.7,-0.8,-0.8l-1.5,1.5l-1.5,-1.5c-0.3,0.1,-0.6,0.5,-0.8,0.8Zm-44.3,0l-1.5,1.6c0.2,0.3,0.6,0.6,0.8,0.8l1.5,-1.6l1.6,1.6c0.3,-0.2,0.5,-0.5,0.8,-0.8l-1.6,-1.6l1.6,-1.4c-0.3,-0.3,-0.5,-0.7,-0.8,-0.8l-1.6,1.5l-1.5,-1.5c-0.2,0.1,-0.6,0.5,-0.8,0.8Zm29.5,0l-1.5,1.6c0.3,0.3,0.6,0.6,0.8,0.8l1.5,-1.6l1.6,1.6c0.3,-0.2,0.5,-0.5,0.8,-0.8l-1.6,-1.6l1.6,-1.4c-0.3,-0.3,-0.5,-0.7,-0.8,-0.8l-1.6,1.5l-1.5,-1.5c-0.2,0.1,-0.5,0.5,-0.8,0.8Zm-14.7,0l-1.5,1.6c0.2,0.3,0.5,0.6,0.8,0.8l1.5,-1.6l1.5,1.6c0.3,-0.2,0.6,-0.5,0.8,-0.8l-1.5,-1.6l1.5,-1.4c-0.2,-0.3,-0.5,-0.7,-0.8,-0.8l-1.5,1.5l-1.5,-1.5c-0.3,0.1,-0.6,0.5,-0.8,0.8Zm119.7,0l-1.6,1.6c0.3,0.3,0.6,0.6,0.8,0.8l1.6,-1.6l1.5,1.6c0.3,-0.2,0.5,-0.5,0.8,-0.8l-1.5,-1.6l1.5,-1.4c-0.3,-0.3,-0.5,-0.7,-0.8,-0.8l-1.5,1.5l-1.6,-1.5c-0.2,0.1,-0.5,0.5,-0.8,0.8Zm-14.8,0l-1.5,1.6c0.2,0.3,0.5,0.6,0.8,0.8l1.5,-1.6l1.5,1.6c0.3,-0.2,0.6,-0.5,0.8,-0.8l-1.5,-1.6l1.5,-1.4c-0.2,-0.3,-0.5,-0.7,-0.8,-0.8l-1.5,1.5l-1.5,-1.5c-0.3,0.1,-0.6,0.5,-0.8,0.8Zm-44.3,0l-1.5,1.6c0.2,0.3,0.6,0.6,0.8,0.8l1.5,-1.6l1.5,1.6c0.4,-0.2,0.6,-0.5,0.8,-0.8l-1.5,-1.6l1.5,-1.4c-0.2,-0.3,-0.4,-0.7,-0.8,-0.8l-1.5,1.5l-1.5,-1.5c-0.2,0.1,-0.6,0.5,-0.8,0.8Zm29.5,0l-1.5,1.6c0.3,0.3,0.6,0.6,0.8,0.8l1.5,-1.6l1.6,1.6c0.3,-0.2,0.5,-0.5,0.8,-0.8l-1.6,-1.6l1.6,-1.4c-0.3,-0.3,-0.5,-0.7,-0.8,-0.8l-1.6,1.5l-1.5,-1.5c-0.2,0.1,-0.5,0.5,-0.8,0.8Zm-14.7,0l-1.5,1.6c0.2,0.3,0.5,0.6,0.8,0.8l1.5,-1.6l1.5,1.6c0.3,-0.2,0.6,-0.5,0.8,-0.8l-1.5,-1.6l1.5,-1.4c-0.2,-0.3,-0.5,-0.7,-0.8,-0.8l-1.5,1.5l-1.5,-1.5c-0.3,0.1,-0.6,0.5,-0.8,0.8Zm119.6,0l-1.5,1.6c0.3,0.3,0.6,0.6,0.8,0.8l1.5,-1.6l1.6,1.6c0.3,-0.2,0.5,-0.5,0.8,-0.8l-1.6,-1.6l1.6,-1.4c-0.3,-0.3,-0.5,-0.7,-0.8,-0.8l-1.6,1.5l-1.5,-1.5c-0.2,0.1,-0.5,0.5,-0.8,0.8Zm-14.7,0l-1.5,1.6c0.2,0.3,0.5,0.6,0.8,0.8l1.5,-1.6l1.5,1.6c0.3,-0.2,0.6,-0.5,0.8,-0.8l-1.5,-1.6l1.5,-1.4c-0.2,-0.3,-0.5,-0.7,-0.8,-0.8l-1.5,1.5l-1.5,-1.5c-0.3,0.1,-0.6,0.5,-0.8,0.8Zm-44.3,0l-1.5,1.6c0.2,0.3,0.6,0.6,0.8,0.8l1.5,-1.6l1.5,1.6c0.4,-0.2,0.6,-0.5,0.8,-0.8l-1.5,-1.6l1.5,-1.4c-0.2,-0.3,-0.4,-0.7,-0.8,-0.8l-1.5,1.5l-1.5,-1.5c-0.2,0.1,-0.6,0.5,-0.8,0.8Zm29.5,0l-1.5,1.6c0.2,0.3,0.6,0.6,0.8,0.8l1.5,-1.6l1.6,1.6c0.3,-0.2,0.5,-0.5,0.8,-0.8l-1.6,-1.6l1.6,-1.4c-0.3,-0.3,-0.5,-0.7,-0.8,-0.8l-1.6,1.5l-1.5,-1.5c-0.2,0.1,-0.6,0.5,-0.8,0.8Zm-14.7,0l-1.6,1.6c0.3,0.3,0.6,0.6,0.8,0.8l1.6,-1.6l1.5,1.6c0.3,-0.2,0.6,-0.5,0.8,-0.8l-1.5,-1.6l1.5,-1.4c-0.2,-0.3,-0.5,-0.7,-0.8,-0.8l-1.5,1.5l-1.6,-1.5c-0.2,0.1,-0.5,0.5,-0.8,0.8Z" class="g2_8" />
</g>
<image x="252" y="81" width="53" height="53" xlink:href="https://majemastoragelive.blob.core.windows.net/learn-english-test/ebook/Grade3/wildanimals/page6/img/1.png" />
<image x="306" y="81" width="51" height="51" xlink:href="https://majemastoragelive.blob.core.windows.net/learn-english-test/ebook/Grade3/wildanimals/page6/img/2.png" />
<path d="M1101.9,86.4c0,0,13.5,0,13.5,13.9l0,22.9c0,0,0,13.9,-13.5,13.9l-15.9,0l8.4,7.9l-19.8,-7.9l-71.4,0c0,0,-13.5,0,-13.5,-13.9l0,-22.9c0,0,0,-13.9,13.5,-13.9Z" class="g3_8" />
<path d="M1101.9,86.4c0,0,13.5,0,13.5,13.9l0,22.9c0,0,0,13.9,-13.5,13.9l-15.9,0l8.4,7.9l-19.8,-7.9l-71.4,0c0,0,-13.5,0,-13.5,-13.9l0,-22.9c0,0,0,-13.9,13.5,-13.9l98.7,0Z" class="g4_8" />
<path d="M849.5,78.2c0,0,13.8,0,13.8,13.8l0,14.1c0,0,0,13.9,-13.8,13.9l-11.3,0l10,8.9l-26,-8.9l-121.6,0c0,0,-13.9,0,-13.9,-13.9l0,-14.1c0,0,0,-13.8,13.9,-13.8Z" class="g3_8" />
<path d="M849.5,78.2c0,0,13.8,0,13.8,13.8l0,14.1c0,0,0,13.9,-13.8,13.9l-11.3,0l10,8.9l-26,-8.9l-121.6,0c0,0,-13.9,0,-13.9,-13.9l0,-14.1c0,0,0,-13.8,13.9,-13.8l148.9,0Z" class="g4_8" />
<path d="M258.5,311.5l856,0" class="g5_8" />
<path d="M257.5,199.5l858,0" class="g5_8" />
<path d="M257.5,423.5l858,0" class="g5_8" />
<path d="M257.5,536.5l858,0" class="g5_8" />
<path d="M542.5,199.5l0,337" class="g5_8" />
<path d="M257.5,199.5l0,337" class="g5_8" />
<path d="M1115.5,199.5l0,337" class="g5_8" />
<path d="M829.5,199.5l0,337" class="g5_8" />
<image x="325" y="560" width="340" height="138" xlink:href="https://majemastoragelive.blob.core.windows.net/learn-english-test/ebook/Grade3/wildanimals/page6/img/3.png" />
<image x="896" y="205" width="84" height="49" xlink:href="https://majemastoragelive.blob.core.windows.net/learn-english-test/ebook/Grade3/wildanimals/page6/img/4.png" />
<image x="632" y="208" width="58" height="47" xlink:href="https://majemastoragelive.blob.core.windows.net/learn-english-test/ebook/Grade3/wildanimals/page6/img/5.png" />
<image x="342" y="433" width="64" height="46" xlink:href="https://majemastoragelive.blob.core.windows.net/learn-english-test/ebook/Grade3/wildanimals/page6/img/6.png" />
<image x="928" y="429" width="52" height="55" xlink:href="https://majemastoragelive.blob.core.windows.net/learn-english-test/ebook/Grade3/wildanimals/page6/img/7.png" />
<image x="635" y="321" width="51" height="49" xlink:href="https://majemastoragelive.blob.core.windows.net/learn-english-test/ebook/Grade3/wildanimals/page6/img/8.png" />
<image x="348" y="203" width="56" height="60" xlink:href="https://majemastoragelive.blob.core.windows.net/learn-english-test/ebook/Grade3/wildanimals/page6/img/9.png" />
<image x="621" y="434" width="71" height="45" xlink:href="https://majemastoragelive.blob.core.windows.net/learn-english-test/ebook/Grade3/wildanimals/page6/img/10.png" />
<image x="935" y="315" width="44" height="58" xlink:href="https://majemastoragelive.blob.core.windows.net/learn-english-test/ebook/Grade3/wildanimals/page6/img/11.png" />
<image x="349" y="318" width="52" height="68" xlink:href="https://majemastoragelive.blob.core.windows.net/learn-english-test/ebook/Grade3/wildanimals/page6/img/12.png" />
<image x="872" y="64" width="93" height="129" xlink:href="https://majemastoragelive.blob.core.windows.net/learn-english-test/ebook/Grade3/wildanimals/page6/img/13.png" />
<path d="M257,1122l468,0l0,-430l-468,0l0,430Z" class="g3_8" />
<path d="M570.5,759.5l139,0" class="g6_8" />
<path d="M274.5,808.5l435,0" class="g6_8" />
<path d="M380.5,858.5l329,0" class="g6_8" />
<path d="M274.5,907.5l435,0" class="g6_8" />
<path d="M274.5,956.5l435,0" class="g6_8" />
<path d="M274.5,1005.5l435,0" class="g6_8" />
<image x="710" y="553" width="442" height="611" xlink:href="https://majemastoragelive.blob.core.windows.net/learn-english-test/ebook/Grade3/wildanimals/page6/img/14.png" />
<path d="M811.9,711.5c1.5,0,2.9,-0.1,4.2,-0.5c1,-0.5,0.6,-1.9,-0.5,-1.6c-0.4,0.1,-0.7,0.2,-1,0.3c-1.3,-2.9,-2.3,-5.8,-3.3,-8.7c-0.9,-2.6,-1.9,-5.2,-2.5,-7.9c0,-0.2,0.1,-0.4,0.1,-0.7c0.2,-1,-1,-1.4,-1.5,-0.6c-0.5,2.4,-1.5,4.9,-2.5,7.2c-1.6,3.7,-3.1,7.5,-5.7,10.7c-0.4,0,-0.8,0,-1.2,-0.1c-0.1,0,-0.3,0,-0.5,0.1c-0.7,0.4,-0.4,1.2,0.4,1.4c1.9,0.3,3.1,0,5,0.1c1.2,-0.1,1.2,-1.5,0,-1.6c-0.8,-0.1,-0.6,0,-1.4,0c0.1,-0.7,0.9,-1.7,1.4,-2.6c0.4,-0.9,1,-1.6,1.4,-2.6c2.1,-0.3,4.1,-0.6,6.2,-0.6c0.7,2,1.5,4.1,2.3,6.1l-0.9,0c-0.9,0.2,-0.9,1.4,0,1.6m-6.7,-8.9c1,-2.1,2,-4.3,2.7,-6.5c0.6,1.9,1.3,3.8,1.9,5.6c0,0.1,0.1,0.3,0.2,0.4c-1.6,0.1,-3.2,0.3,-4.8,0.5m25.5,-8.8c0.7,0,1.6,0.1,2.5,0.2c0.1,3.7,0,7.2,-0.1,10.9c0,0.3,0,1.1,0,1.8c-1.6,-1.8,-4,-2.8,-5.6,-4.9c-1.8,-2.4,-2.6,-7.1,-5,-8.8c-0.4,-0.3,-0.9,-0.5,-1.4,-0.6c-0.2,0,-0.3,0,-0.5,0c-0.9,-0.1,-1.8,-0.1,-2.5,-0.2c-1,0.3,-1,1.4,0,1.7c0.6,0,1.2,0,1.8,0.1c0,0.4,-0.1,0.8,-0.1,1.2c0.1,5,0.5,9.9,0.6,14.9c-0.7,0,-1.3,0.1,-2,0.1c-0.9,0.2,-0.9,1.4,0,1.6c2,0,4,-0.4,6,-0.4c1.1,-0.1,1.1,-1.6,0,-1.7c-0.8,0.1,-1.6,0.1,-2.4,0.2c-0.1,-3.9,-0.4,-7.9,-0.5,-11.8c0,-1.2,-0.1,-2.6,-0.1,-3.8l0.1,0c0.6,0.2,1.5,2.3,1.8,2.8c1.1,2.3,1.9,4.9,3.8,6.7c2.1,2,5.3,3.3,5.9,6.5c0,0,0.1,0.1,0.1,0.2c0,0.1,0,0.3,0,0.4c0,0.1,0,0.1,0,0.1c0.2,0.5,0.5,0.7,1,0.6c0.1,0,0.1,0,0.1,0c0.7,-0.3,0.8,-0.9,0.4,-1.3c-0.1,-1.5,0.2,-6.6,0.3,-8.8c0.1,-2.5,0,-5,0,-7.5c0.9,-0.1,1.8,-0.3,2.4,-0.7c0.1,-0.1,0.2,-0.1,0.2,-0.1c0.9,-0.4,0.7,-1.5,-0.3,-1.6c-0.5,0.1,-0.8,0.4,-1.2,0.5c-1.8,0.2,-3.5,0.1,-5.3,0c-1,0.3,-1,1.4,0,1.7m10.4,17.6c2,-0.4,4,-0.6,6.1,-0.6c1.1,-0.1,1.1,-1.6,0,-1.7c-1,0.1,-2,0.1,-3,0.2c0,-5.2,0.3,-10.4,0.4,-15.7c1,0.1,2,0.2,3.1,0c0.9,-0.4,0.7,-1.5,-0.3,-1.6c-1.5,0.2,-2.9,-0.1,-4.4,-0.1c-1.1,0,-2.1,0.2,-3.2,0.2c0,0,0,0.1,0,0.1c-0.5,0,-0.9,0.5,-0.7,1.1c0.1,0,0.1,0,0.1,0.1c0.1,0.2,0.3,0.3,0.6,0.4c1,-0.1,2.1,-0.3,3.1,-0.2c0,5.3,-0.3,10.6,-0.4,15.9c-0.5,0.1,-1.1,0.2,-1.6,0.3c-1.1,0.3,-0.9,1.7,0.2,1.6m26.8,0.5c1.7,-0.3,3.4,-0.3,5.2,-0.3c1.1,-0.1,1.1,-1.5,0,-1.6c-0.7,0,-1.3,0,-2,0c0.1,-5.2,0.8,-10.4,0.3,-15.7c0.2,0,0.4,0,0.6,0c1.1,-0.1,1.1,-1.5,0,-1.6c-1.5,0,-3,0.2,-4.5,0c-1.1,-0.1,-1.6,1.6,0,1.5c-2.3,3.7,-4.2,7.7,-5.7,11.8c-0.2,0.6,-0.5,1.8,-0.9,2.8c-0.2,-0.6,-0.5,-1.1,-0.6,-1.6c-1,-3.3,-2.3,-6.4,-3.1,-9.7c-0.2,-0.7,-1.4,-4.3,-1.1,-4.8c0.6,-0.8,-3.9,-0.3,-5.3,-0.6c-1.1,-0.1,-1.3,1.3,-0.2,1.6c0.8,0.2,1.7,0.3,2.6,0.3c0,0.1,0,0.1,0.1,0.1c0,0.2,0,0.3,0,0.4l0,0.2c0,0.2,0,0.4,0,0.6c0,1.2,0,2.4,0,3.6c0.1,3.8,0.3,7.8,-0.8,11.4c-0.6,0,-1.2,0,-1.8,-0.2c-1.2,-0.1,-1.4,1.3,-0.3,1.6c2.1,0.5,4.1,0.1,6.2,0c1.1,-0.1,1.1,-1.5,0,-1.6c-0.8,0,-1.6,0.1,-2.4,0.2c1.2,-4.4,0.8,-9.1,0.7,-13.5c0,-0.3,0.1,-0.8,0.1,-1.2l0,0.1c0.7,2.7,1.4,5.5,2.4,8.1c0,0,0.8,2.3,0.8,2.3c0.3,0.8,0.5,1.5,0.8,2.3c0.2,0.8,0.6,1.6,0.8,2.4c0,0.2,0,0.3,0.1,0.5c0.4,0.5,0.9,0.6,1.3,0.1c1.2,-1.2,1.6,-3.2,2.1,-4.7c1.6,-4.3,3.5,-8.5,6.1,-12.3l0.3,0c0.5,5.2,-0.1,10.4,-0.2,15.6l0,0.1c-0.6,0,-1.3,0.1,-1.9,0.2c-1.1,0.3,-0.9,1.7,0.3,1.6m22.5,-0.4c1.4,0,2.8,-0.1,4.2,-0.5c1,-0.5,0.5,-1.9,-0.6,-1.6c-0.3,0.1,-0.6,0.2,-0.9,0.3c-1.3,-2.9,-2.3,-5.8,-3.3,-8.7c-0.9,-2.6,-1.9,-5.2,-2.5,-7.9c0,-0.2,0,-0.4,0.1,-0.7c0.2,-1,-1,-1.4,-1.5,-0.6c-0.5,2.4,-1.5,4.9,-2.5,7.2c-1.6,3.7,-3.1,7.5,-5.7,10.7c-0.4,0,-0.8,0,-1.2,-0.1c-0.1,0,-0.3,0,-0.5,0.1c-0.8,0.4,-0.5,1.2,0.4,1.4c1.9,0.3,3.1,0,5,0.1c1.2,-0.1,1.2,-1.5,0,-1.6c-0.8,-0.1,-0.6,0,-1.4,0c0.1,-0.7,0.9,-1.7,1.4,-2.6c0.4,-0.9,1,-1.6,1.4,-2.6c2.1,-0.3,4.1,-0.6,6.2,-0.6c0.7,2,1.5,4.1,2.3,6.1l-0.9,0c-0.9,0.2,-0.9,1.4,0,1.6m-6.7,-8.9c1,-2.1,2,-4.3,2.7,-6.5c0.6,1.9,1.2,3.8,1.9,5.6c0,0.1,0.1,0.3,0.1,0.4c-1.6,0.1,-3.1,0.3,-4.7,0.5m13,-8.4c0.7,0.1,1.3,0.1,2,0.2c-0.7,5,-0.3,10.1,0.2,15c-0.6,0,-1.1,0,-1.7,0c-0.9,0.3,-0.9,1.4,0,1.7c3.9,0,7.7,0,11.5,-0.9c-0.1,0.2,-0.1,0.4,-0.2,0.5c-0.1,0.3,-0.2,0.6,0.1,1c0.1,0,0.1,0,0.1,0c0.6,0.4,1,0.3,1.3,-0.3c0.6,-1.6,1.1,-3.3,2.1,-4.7c0.6,-1,-0.6,-1.8,-1.4,-0.9c-0.6,0.8,-1,1.7,-1.4,2.6c-2.9,0.8,-5.8,1,-8.8,1C900,705.6,900,701.8,900,698c0,-0.6,-0.1,-1.2,0,-1.8c0.1,-0.5,0.3,-1.1,0.4,-1.7c1.5,0.1,2.9,0.1,4.5,-0.2c0.9,-0.4,0.7,-1.5,-0.3,-1.6c-1.5,0.3,-2.8,0.3,-4.2,0.2c0,-0.1,-0.1,-0.1,-0.1,-0.2c-0.4,-0.8,-1.3,-0.6,-1.5,0c-0.7,0,-1.4,-0.1,-2.1,-0.1c-0.9,0.2,-0.9,1.4,0,1.6M914.3,706c0,0.8,0,1.5,-0.1,2.3c-0.1,0.2,-0.1,0.4,0,0.7l0,0.1c0,0.8,-0.1,1.7,-0.1,2.5c0,1.2,1.5,1.3,1.7,0.1l0,-0.7c3.6,1.8,10.8,0.3,10.8,-3.9c0,-4.5,-4.6,-5.1,-7.9,-6.5c-1.3,-0.5,-3.2,-1.2,-3.4,-2.9c-0.4,-3.7,3.8,-4.7,6.6,-4.2c1.3,0.3,1.6,0.5,2.5,1.1c0.1,1.2,0.1,2.4,0.2,3.6c0.3,1,1.5,0.9,1.6,-0.1c0,-1.2,-0.1,-2.4,-0.2,-3.7c0.1,-0.1,0.1,-0.4,0,-0.6c-0.1,-0.4,-0.1,-0.9,-0.1,-1.4c-0.1,-1.1,-1.6,-1,-1.6,0.1l0,0.1c-0.5,-0.2,-0.9,-0.4,-2,-0.7c-3.9,-1.1,-9.4,1.4,-8.6,6.1c0.8,5.1,9.3,4.1,11,7.6c1.9,4.1,-6.6,5.9,-8.7,3.6c0,-0.1,-0.1,-0.2,-0.1,-0.3c0,-1,0,-1.8,0,-2.7c-0.1,-1,-1.3,-1.1,-1.6,-0.2Z" class="g7_8" />
<path d="M811.9,711.5c1.5,0,2.9,-0.1,4.2,-0.5c1,-0.5,0.6,-1.9,-0.5,-1.6c-0.4,0.1,-0.7,0.2,-1,0.3c-1.3,-2.9,-2.3,-5.8,-3.3,-8.7c-0.9,-2.6,-1.9,-5.2,-2.5,-7.9c0,-0.2,0.1,-0.4,0.1,-0.7c0.2,-1,-1,-1.4,-1.5,-0.6c-0.5,2.4,-1.5,4.9,-2.5,7.2c-1.6,3.7,-3.1,7.5,-5.7,10.7c-0.4,0,-0.8,0,-1.2,-0.1c-0.1,0,-0.3,0,-0.5,0.1c-0.7,0.4,-0.4,1.2,0.4,1.4c1.9,0.3,3.1,0,5,0.1c1.2,-0.1,1.2,-1.5,0,-1.6c-0.8,-0.1,-0.6,0,-1.4,0c0.1,-0.7,0.9,-1.7,1.4,-2.6c0.4,-0.9,1,-1.6,1.4,-2.6c2.1,-0.3,4.1,-0.6,6.2,-0.6c0.7,2,1.5,4.1,2.3,6.1l-0.9,0c-0.9,0.2,-0.9,1.4,0,1.6Zm-6.7,-8.9c1,-2.1,2,-4.3,2.7,-6.5c0.6,1.9,1.3,3.8,1.9,5.6c0,0.1,0.1,0.3,0.2,0.4c-1.6,0.1,-3.2,0.3,-4.8,0.5Zm25.5,-8.8c0.7,0,1.6,0.1,2.5,0.2c0.1,3.7,0,7.2,-0.1,10.9c0,0.3,0,1.1,0,1.8c-1.6,-1.8,-4,-2.8,-5.6,-4.9c-1.8,-2.4,-2.6,-7.1,-5,-8.8c-0.4,-0.3,-0.9,-0.5,-1.4,-0.6c-0.2,0,-0.3,0,-0.5,0c-0.9,-0.1,-1.8,-0.1,-2.5,-0.2c-1,0.3,-1,1.4,0,1.7c0.6,0,1.2,0,1.8,0.1c0,0.4,-0.1,0.8,-0.1,1.2c0.1,5,0.5,9.9,0.6,14.9c-0.7,0,-1.3,0.1,-2,0.1c-0.9,0.2,-0.9,1.4,0,1.6c2,0,4,-0.4,6,-0.4c1.1,-0.1,1.1,-1.6,0,-1.7c-0.8,0.1,-1.6,0.1,-2.4,0.2c-0.1,-3.9,-0.4,-7.9,-0.5,-11.8c0,-1.2,-0.1,-2.6,-0.1,-3.8l0.1,0c0.6,0.2,1.5,2.3,1.8,2.8c1.1,2.3,1.9,4.9,3.8,6.7c2.1,2,5.3,3.3,5.9,6.5c0,0,0.1,0.1,0.1,0.2c0,0.1,0,0.3,0,0.4c0,0.1,0,0.1,0,0.1c0.2,0.5,0.5,0.7,1,0.6c0.1,0,0.1,0,0.1,0c0.7,-0.3,0.8,-0.9,0.4,-1.3c-0.1,-1.5,0.2,-6.6,0.3,-8.8c0.1,-2.5,0,-5,0,-7.5c0.9,-0.1,1.8,-0.3,2.4,-0.7c0.1,-0.1,0.2,-0.1,0.2,-0.1c0.9,-0.4,0.7,-1.5,-0.3,-1.6c-0.5,0.1,-0.8,0.4,-1.2,0.5c-1.8,0.2,-3.5,0.1,-5.3,0c-1,0.3,-1,1.4,0,1.7Zm10.4,17.6c2,-0.4,4,-0.6,6.1,-0.6c1.1,-0.1,1.1,-1.6,0,-1.7c-1,0.1,-2,0.1,-3,0.2c0,-5.2,0.3,-10.4,0.4,-15.7c1,0.1,2,0.2,3.1,0c0.9,-0.4,0.7,-1.5,-0.3,-1.6c-1.5,0.2,-2.9,-0.1,-4.4,-0.1c-1.1,0,-2.1,0.2,-3.2,0.2c0,0,0,0.1,0,0.1c-0.5,0,-0.9,0.5,-0.7,1.1c0.1,0,0.1,0,0.1,0.1c0.1,0.2,0.3,0.3,0.6,0.4c1,-0.1,2.1,-0.3,3.1,-0.2c0,5.3,-0.3,10.6,-0.4,15.9c-0.5,0.1,-1.1,0.2,-1.6,0.3c-1.1,0.3,-0.9,1.7,0.2,1.6Zm26.8,0.5c1.7,-0.3,3.4,-0.3,5.2,-0.3c1.1,-0.1,1.1,-1.5,0,-1.6c-0.7,0,-1.3,0,-2,0c0.1,-5.2,0.8,-10.4,0.3,-15.7c0.2,0,0.4,0,0.6,0c1.1,-0.1,1.1,-1.5,0,-1.6c-1.5,0,-3,0.2,-4.5,0c-1.1,-0.1,-1.6,1.6,0,1.5c-2.3,3.7,-4.2,7.7,-5.7,11.8c-0.2,0.6,-0.5,1.8,-0.9,2.8c-0.2,-0.6,-0.5,-1.1,-0.6,-1.6c-1,-3.3,-2.3,-6.4,-3.1,-9.7c-0.2,-0.7,-1.4,-4.3,-1.1,-4.8c0.6,-0.8,-3.9,-0.3,-5.3,-0.6c-1.1,-0.1,-1.3,1.3,-0.2,1.6c0.8,0.2,1.7,0.3,2.6,0.3c0,0.1,0,0.1,0.1,0.1c0,0.2,0,0.3,0,0.4l0,0.2c0,0.2,0,0.4,0,0.6c0,1.2,0,2.4,0,3.6c0.1,3.8,0.3,7.8,-0.8,11.4c-0.6,0,-1.2,0,-1.8,-0.2c-1.2,-0.1,-1.4,1.3,-0.3,1.6c2.1,0.5,4.1,0.1,6.2,0c1.1,-0.1,1.1,-1.5,0,-1.6c-0.8,0,-1.6,0.1,-2.4,0.2c1.2,-4.4,0.8,-9.1,0.7,-13.5c0,-0.3,0.1,-0.8,0.1,-1.2l0,0.1c0.7,2.7,1.4,5.5,2.4,8.1c0,0,0.8,2.3,0.8,2.3c0.3,0.8,0.5,1.5,0.8,2.3c0.2,0.8,0.6,1.6,0.8,2.4c0,0.2,0,0.3,0.1,0.5c0.4,0.5,0.9,0.6,1.3,0.1c1.2,-1.2,1.6,-3.2,2.1,-4.7c1.6,-4.3,3.5,-8.5,6.1,-12.3l0.3,0c0.5,5.2,-0.1,10.4,-0.2,15.6l0,0.1c-0.6,0,-1.3,0.1,-1.9,0.2c-1.1,0.3,-0.9,1.7,0.3,1.6Zm22.5,-0.4c1.4,0,2.8,-0.1,4.2,-0.5c1,-0.5,0.5,-1.9,-0.6,-1.6c-0.3,0.1,-0.6,0.2,-0.9,0.3c-1.3,-2.9,-2.3,-5.8,-3.3,-8.7c-0.9,-2.6,-1.9,-5.2,-2.5,-7.9c0,-0.2,0,-0.4,0.1,-0.7c0.2,-1,-1,-1.4,-1.5,-0.6c-0.5,2.4,-1.5,4.9,-2.5,7.2c-1.6,3.7,-3.1,7.5,-5.7,10.7c-0.4,0,-0.8,0,-1.2,-0.1c-0.1,0,-0.3,0,-0.5,0.1c-0.8,0.4,-0.5,1.2,0.4,1.4c1.9,0.3,3.1,0,5,0.1c1.2,-0.1,1.2,-1.5,0,-1.6c-0.8,-0.1,-0.6,0,-1.4,0c0.1,-0.7,0.9,-1.7,1.4,-2.6c0.4,-0.9,1,-1.6,1.4,-2.6c2.1,-0.3,4.1,-0.6,6.2,-0.6c0.7,2,1.5,4.1,2.3,6.1l-0.9,0c-0.9,0.2,-0.9,1.4,0,1.6Zm-6.7,-8.9c1,-2.1,2,-4.3,2.7,-6.5c0.6,1.9,1.2,3.8,1.9,5.6c0,0.1,0.1,0.3,0.1,0.4c-1.6,0.1,-3.1,0.3,-4.7,0.5Zm13,-8.4c0.7,0.1,1.3,0.1,2,0.2c-0.7,5,-0.3,10.1,0.2,15c-0.6,0,-1.1,0,-1.7,0c-0.9,0.3,-0.9,1.4,0,1.7c3.9,0,7.7,0,11.5,-0.9c-0.1,0.2,-0.1,0.4,-0.2,0.5c-0.1,0.3,-0.2,0.6,0.1,1c0.1,0,0.1,0,0.1,0c0.6,0.4,1,0.3,1.3,-0.3c0.6,-1.6,1.1,-3.3,2.1,-4.7c0.6,-1,-0.6,-1.8,-1.4,-0.9c-0.6,0.8,-1,1.7,-1.4,2.6c-2.9,0.8,-5.8,1,-8.8,1C900,705.6,900,701.8,900,698c0,-0.6,-0.1,-1.2,0,-1.8c0.1,-0.5,0.3,-1.1,0.4,-1.7c1.5,0.1,2.9,0.1,4.5,-0.2c0.9,-0.4,0.7,-1.5,-0.3,-1.6c-1.5,0.3,-2.8,0.3,-4.2,0.2c0,-0.1,-0.1,-0.1,-0.1,-0.2c-0.4,-0.8,-1.3,-0.6,-1.5,0c-0.7,0,-1.4,-0.1,-2.1,-0.1c-0.9,0.2,-0.9,1.4,0,1.6ZM914.3,706c0,0.8,0,1.5,-0.1,2.3c-0.1,0.2,-0.1,0.4,0,0.7l0,0.1c0,0.8,-0.1,1.7,-0.1,2.5c0,1.2,1.5,1.3,1.7,0.1l0,-0.7c3.6,1.8,10.8,0.3,10.8,-3.9c0,-4.5,-4.6,-5.1,-7.9,-6.5c-1.3,-0.5,-3.2,-1.2,-3.4,-2.9c-0.4,-3.7,3.8,-4.7,6.6,-4.2c1.3,0.3,1.6,0.5,2.5,1.1c0.1,1.2,0.1,2.4,0.2,3.6c0.3,1,1.5,0.9,1.6,-0.1c0,-1.2,-0.1,-2.4,-0.2,-3.7c0.1,-0.1,0.1,-0.4,0,-0.6c-0.1,-0.4,-0.1,-0.9,-0.1,-1.4c-0.1,-1.1,-1.6,-1,-1.6,0.1l0,0.1c-0.5,-0.2,-0.9,-0.4,-2,-0.7c-3.9,-1.1,-9.4,1.4,-8.6,6.1c0.8,5.1,9.3,4.1,11,7.6c1.9,4.1,-6.6,5.9,-8.7,3.6c0,-0.1,-0.1,-0.2,-0.1,-0.3c0,-1,0,-1.8,0,-2.7c-0.1,-1,-1.3,-1.1,-1.6,-0.2Z" class="g8_8" />
<path d="M801,769l240,0" class="g8_8" />
<path d="M801,806l240,0" class="g8_8" />
<path d="M801,843l240,0" class="g8_8" />
<path d="M801,880l240,0" class="g8_8" />
<path d="M801,918l240,0" class="g8_8" />
<path d="M801,955l240,0" class="g8_8" />
<path d="M801,992l240,0" class="g8_8" />
<path d="M801,1029l240,0" class="g8_8" />
<path d="M801,1067l240,0" class="g8_8" />
<image x="279" y="1029" width="60" height="58" xlink:href="https://majemastoragelive.blob.core.windows.net/learn-english-test/ebook/Grade3/wildanimals/page6/img/15.png" />
<image x="332" y="1032" width="61" height="55" xlink:href="https://majemastoragelive.blob.core.windows.net/learn-english-test/ebook/Grade3/wildanimals/page6/img/16.png" />
<g clip-path="url(#c0_8)">
<path d="M255.1,43l-1.5,1.5c0.2,0.3,0.5,0.7,0.8,0.8l1.5,-1.5l1.5,1.5c0.3,-0.1,0.6,-0.5,0.8,-0.8L256.7,43l1.5,-1.4c-0.2,-0.4,-0.5,-0.7,-0.8,-0.8l-1.5,1.5l-1.5,-1.5c-0.3,0.1,-0.6,0.4,-0.8,0.8Zm-14.8,0l-1.5,1.5c0.2,0.3,0.6,0.7,0.8,0.8l1.5,-1.5l1.5,1.5c0.4,-0.1,0.6,-0.5,0.9,-0.8L241.9,43l1.6,-1.4c-0.3,-0.4,-0.5,-0.7,-0.9,-0.8l-1.5,1.5l-1.5,-1.5c-0.2,0.1,-0.6,0.4,-0.8,0.8ZM196,43l-1.5,1.5c0.3,0.3,0.6,0.7,0.8,0.8l1.5,-1.5l1.6,1.5c0.3,-0.1,0.5,-0.5,0.8,-0.8L197.7,43l1.5,-1.4c-0.3,-0.4,-0.5,-0.7,-0.8,-0.8l-1.6,1.5l-1.5,-1.5c-0.2,0.1,-0.5,0.4,-0.8,0.8Zm29.6,0L224,44.5c0.3,0.3,0.6,0.7,0.8,0.8l1.6,-1.5l1.5,1.5c0.3,-0.1,0.6,-0.5,0.8,-0.8L227.2,43l1.5,-1.4c-0.2,-0.4,-0.5,-0.7,-0.8,-0.8l-1.5,1.5l-1.6,-1.5c-0.2,0.1,-0.5,0.4,-0.8,0.8Zm-14.8,0l-1.5,1.5c0.2,0.3,0.5,0.7,0.8,0.8l1.5,-1.5l1.5,1.5c0.4,-0.1,0.6,-0.5,0.8,-0.8L212.4,43l1.5,-1.4c-0.2,-0.4,-0.4,-0.7,-0.8,-0.8l-1.5,1.5l-1.5,-1.5c-0.3,0.1,-0.6,0.4,-0.8,0.8Zm119.7,0l-1.6,1.5c0.3,0.3,0.6,0.7,0.9,0.8l1.5,-1.5l1.5,1.5c0.3,-0.1,0.6,-0.5,0.8,-0.8L332.1,43l1.5,-1.4c-0.2,-0.4,-0.5,-0.7,-0.8,-0.8l-1.5,1.5l-1.5,-1.5c-0.3,0.1,-0.6,0.4,-0.9,0.8Zm-14.8,0l-1.5,1.5c0.2,0.3,0.6,0.7,0.8,0.8l1.5,-1.5l1.5,1.5c0.4,-0.1,0.6,-0.5,0.8,-0.8L317.3,43l1.5,-1.4c-0.2,-0.4,-0.4,-0.7,-0.8,-0.8l-1.5,1.5L315,40.8c-0.2,0.1,-0.6,0.4,-0.8,0.8Zm-44.3,0l-1.5,1.5c0.3,0.3,0.6,0.7,0.8,0.8l1.5,-1.5l1.6,1.5c0.3,-0.1,0.5,-0.5,0.8,-0.8L273,43l1.6,-1.4c-0.3,-0.4,-0.5,-0.7,-0.8,-0.8l-1.6,1.5l-1.5,-1.5c-0.2,0.1,-0.5,0.4,-0.8,0.8ZM301,43l-1.6,1.5c0.3,0.3,0.6,0.7,0.8,0.8l1.6,-1.5l1.5,1.5c0.3,-0.1,0.5,-0.5,0.8,-0.8L302.6,43l1.5,-1.4c-0.3,-0.4,-0.5,-0.7,-0.8,-0.8l-1.5,1.5l-1.6,-1.5c-0.2,0.1,-0.5,0.4,-0.8,0.8Zm-14.8,0l-1.5,1.5c0.2,0.3,0.5,0.7,0.8,0.8L287,43.8l1.5,1.5c0.3,-0.1,0.6,-0.5,0.8,-0.8L287.8,43l1.5,-1.4c-0.2,-0.4,-0.5,-0.7,-0.8,-0.8L287,42.3l-1.5,-1.5c-0.3,0.1,-0.6,0.4,-0.8,0.8Zm119.7,0l-1.6,1.5c0.3,0.3,0.6,0.7,0.8,0.8l1.6,-1.5l1.5,1.5c0.3,-0.1,0.6,-0.5,0.8,-0.8L407.5,43L409,41.6c-0.2,-0.4,-0.5,-0.7,-0.8,-0.8l-1.5,1.5l-1.6,-1.5c-0.2,0.1,-0.5,0.4,-0.8,0.8Zm-14.8,0l-1.5,1.5c0.2,0.3,0.5,0.7,0.8,0.8l1.5,-1.5l1.5,1.5c0.4,-0.1,0.6,-0.5,0.8,-0.8L392.7,43l1.5,-1.4c-0.2,-0.4,-0.4,-0.7,-0.8,-0.8l-1.5,1.5l-1.5,-1.5c-0.3,0.1,-0.6,0.4,-0.8,0.8Zm-44.3,0l-1.5,1.5c0.3,0.3,0.6,0.7,0.8,0.8l1.5,-1.5l1.6,1.5c0.3,-0.1,0.5,-0.5,0.8,-0.8L348.4,43L350,41.6c-0.3,-0.4,-0.5,-0.7,-0.8,-0.8l-1.6,1.5l-1.5,-1.5c-0.2,0.1,-0.5,0.4,-0.8,0.8Zm29.6,0l-1.6,1.5c0.3,0.3,0.6,0.7,0.8,0.8l1.6,-1.5l1.5,1.5c0.3,-0.1,0.5,-0.5,0.8,-0.8L378,43l1.5,-1.4c-0.3,-0.4,-0.5,-0.7,-0.8,-0.8l-1.5,1.5l-1.6,-1.5c-0.2,0.1,-0.5,0.4,-0.8,0.8Zm-14.8,0l-1.5,1.5c0.2,0.3,0.5,0.7,0.8,0.8l1.5,-1.5l1.5,1.5c0.3,-0.1,0.6,-0.5,0.8,-0.8L363.2,43l1.5,-1.4c-0.2,-0.4,-0.5,-0.7,-0.8,-0.8l-1.5,1.5l-1.5,-1.5c-0.3,0.1,-0.6,0.4,-0.8,0.8Zm119.7,0l-1.6,1.5c0.3,0.3,0.6,0.7,0.8,0.8l1.6,-1.5l1.5,1.5c0.3,-0.1,0.5,-0.5,0.8,-0.8L482.9,43l1.5,-1.4c-0.3,-0.4,-0.5,-0.7,-0.8,-0.8l-1.5,1.5l-1.6,-1.5c-0.2,0.1,-0.5,0.4,-0.8,0.8Zm-14.8,0L465,44.5c0.2,0.3,0.5,0.7,0.8,0.8l1.5,-1.5l1.5,1.5c0.3,-0.1,0.6,-0.5,0.8,-0.8L468.1,43l1.5,-1.4c-0.2,-0.4,-0.5,-0.7,-0.8,-0.8l-1.5,1.5l-1.5,-1.5c-0.3,0.1,-0.6,0.4,-0.8,0.8Zm-44.3,0l-1.5,1.5c0.2,0.3,0.6,0.7,0.8,0.8L423,43.8l1.6,1.5c0.3,-0.1,0.5,-0.5,0.8,-0.8L423.8,43l1.6,-1.4c-0.3,-0.4,-0.5,-0.7,-0.8,-0.8L423,42.3l-1.5,-1.5c-0.2,0.1,-0.6,0.4,-0.8,0.8Zm29.5,0l-1.5,1.5c0.3,0.3,0.6,0.7,0.8,0.8l1.5,-1.5l1.6,1.5c0.3,-0.1,0.5,-0.5,0.8,-0.8L453.3,43l1.6,-1.4c-0.3,-0.4,-0.5,-0.7,-0.8,-0.8l-1.6,1.5L451,40.8c-0.2,0.1,-0.5,0.4,-0.8,0.8ZM437,43l-1.5,1.5c0.2,0.3,0.5,0.7,0.8,0.8l1.5,-1.5l1.5,1.5c0.3,-0.1,0.6,-0.5,0.8,-0.8L438.6,43l1.5,-1.4c-0.2,-0.4,-0.5,-0.7,-0.8,-0.8l-1.5,1.5l-1.5,-1.5c-0.3,0.1,-0.6,0.4,-0.8,0.8Zm119.7,0l-1.6,1.5c0.3,0.3,0.6,0.7,0.8,0.8l1.6,-1.5l1.5,1.5c0.3,-0.1,0.5,-0.5,0.8,-0.8L558.3,43l1.5,-1.4c-0.3,-0.4,-0.5,-0.7,-0.8,-0.8l-1.5,1.5l-1.6,-1.5c-0.2,0.1,-0.5,0.4,-0.8,0.8Zm-14.8,0l-1.5,1.5c0.2,0.3,0.5,0.7,0.8,0.8l1.5,-1.5l1.5,1.5c0.3,-0.1,0.6,-0.5,0.8,-0.8L543.5,43L545,41.6c-0.2,-0.4,-0.5,-0.7,-0.8,-0.8l-1.5,1.5l-1.5,-1.5c-0.3,0.1,-0.6,0.4,-0.8,0.8Zm-44.3,0l-1.5,1.5c0.2,0.3,0.6,0.7,0.8,0.8l1.5,-1.5l1.5,1.5c0.4,-0.1,0.6,-0.5,0.8,-0.8L499.2,43l1.5,-1.4c-0.2,-0.4,-0.4,-0.7,-0.8,-0.8l-1.5,1.5l-1.5,-1.5c-0.2,0.1,-0.6,0.4,-0.8,0.8Zm29.5,0l-1.5,1.5c0.3,0.3,0.6,0.7,0.8,0.8l1.5,-1.5l1.6,1.5c0.3,-0.1,0.5,-0.5,0.8,-0.8L528.7,43l1.6,-1.4c-0.3,-0.4,-0.5,-0.7,-0.8,-0.8l-1.6,1.5l-1.5,-1.5c-0.2,0.1,-0.5,0.4,-0.8,0.8Zm-14.7,0l-1.5,1.5c0.2,0.3,0.5,0.7,0.8,0.8l1.5,-1.5l1.5,1.5c0.3,-0.1,0.6,-0.5,0.8,-0.8L514,43l1.5,-1.4c-0.2,-0.4,-0.5,-0.7,-0.8,-0.8l-1.5,1.5l-1.5,-1.5c-0.3,0.1,-0.6,0.4,-0.8,0.8ZM632,43l-1.5,1.5c0.3,0.3,0.6,0.7,0.8,0.8l1.6,-1.5l1.5,1.5c0.3,-0.1,0.5,-0.5,0.8,-0.8L633.7,43l1.5,-1.4c-0.3,-0.4,-0.5,-0.7,-0.8,-0.8l-1.5,1.5l-1.6,-1.5c-0.2,0.1,-0.5,0.4,-0.8,0.8Zm-14.7,0l-1.5,1.5c0.2,0.3,0.5,0.7,0.8,0.8l1.5,-1.5l1.5,1.5c0.3,-0.1,0.6,-0.5,0.8,-0.8L618.9,43l1.5,-1.4c-0.2,-0.4,-0.5,-0.7,-0.8,-0.8l-1.5,1.5l-1.5,-1.5c-0.3,0.1,-0.6,0.4,-0.8,0.8ZM573,43l-1.5,1.5c0.2,0.3,0.6,0.7,0.8,0.8l1.5,-1.5l1.5,1.5c0.4,-0.1,0.6,-0.5,0.8,-0.8L574.6,43l1.5,-1.4c-0.2,-0.4,-0.4,-0.7,-0.8,-0.8l-1.5,1.5l-1.5,-1.5c-0.2,0.1,-0.6,0.4,-0.8,0.8Zm29.5,0L601,44.5c0.2,0.3,0.6,0.7,0.8,0.8l1.5,-1.5l1.6,1.5c0.3,-0.1,0.5,-0.5,0.8,-0.8L604.1,43l1.6,-1.4c-0.3,-0.4,-0.5,-0.7,-0.8,-0.8l-1.6,1.5l-1.5,-1.5c-0.2,0.1,-0.6,0.4,-0.8,0.8Zm-14.7,0l-1.5,1.5c0.2,0.3,0.5,0.7,0.8,0.8l1.5,-1.5l1.5,1.5c0.3,-0.1,0.6,-0.5,0.8,-0.8L589.4,43l1.5,-1.4c-0.2,-0.4,-0.5,-0.7,-0.8,-0.8l-1.5,1.5l-1.5,-1.5c-0.3,0.1,-0.6,0.4,-0.8,0.8Zm119.6,0l-1.5,1.5c0.3,0.3,0.6,0.7,0.8,0.8l1.5,-1.5l1.6,1.5c0.3,-0.1,0.5,-0.5,0.8,-0.8L709,43l1.6,-1.4c-0.3,-0.4,-0.5,-0.7,-0.8,-0.8l-1.6,1.5l-1.5,-1.5c-0.2,0.1,-0.5,0.4,-0.8,0.8Zm-14.7,0l-1.5,1.5c0.2,0.3,0.5,0.7,0.8,0.8l1.5,-1.5l1.5,1.5c0.3,-0.1,0.6,-0.5,0.8,-0.8L694.3,43l1.5,-1.4c-0.2,-0.4,-0.5,-0.7,-0.8,-0.8l-1.5,1.5L692,40.8c-0.3,0.1,-0.6,0.4,-0.8,0.8Zm-44.3,0l-1.5,1.5c0.2,0.3,0.5,0.7,0.8,0.8l1.5,-1.5l1.5,1.5c0.4,-0.1,0.6,-0.5,0.8,-0.8L650,43l1.5,-1.4c-0.2,-0.4,-0.4,-0.7,-0.8,-0.8l-1.5,1.5l-1.5,-1.5c-0.3,0.1,-0.6,0.4,-0.8,0.8Zm29.5,0l-1.5,1.5c0.2,0.3,0.6,0.7,0.8,0.8l1.5,-1.5l1.6,1.5c0.3,-0.1,0.5,-0.5,0.8,-0.8L679.5,43l1.6,-1.4c-0.3,-0.4,-0.5,-0.7,-0.8,-0.8l-1.6,1.5l-1.5,-1.5c-0.2,0.1,-0.6,0.4,-0.8,0.8Zm-14.7,0l-1.6,1.5c0.3,0.3,0.6,0.7,0.8,0.8L664,43.8l1.5,1.5c0.3,-0.1,0.6,-0.5,0.8,-0.8L664.8,43l1.5,-1.4c-0.2,-0.4,-0.5,-0.7,-0.8,-0.8L664,42.3l-1.6,-1.5c-0.2,0.1,-0.5,0.4,-0.8,0.8Zm119.6,0l-1.5,1.5c0.3,0.3,0.6,0.7,0.8,0.8l1.5,-1.5l1.6,1.5c0.3,-0.1,0.5,-0.5,0.8,-0.8L784.4,43L786,41.6c-0.3,-0.4,-0.5,-0.7,-0.8,-0.8l-1.6,1.5l-1.5,-1.5c-0.2,0.1,-0.5,0.4,-0.8,0.8Zm-14.7,0l-1.5,1.5c0.2,0.3,0.5,0.7,0.8,0.8l1.5,-1.5l1.5,1.5c0.3,-0.1,0.6,-0.5,0.8,-0.8L769.7,43l1.5,-1.4c-0.2,-0.4,-0.5,-0.7,-0.8,-0.8l-1.5,1.5l-1.5,-1.5c-0.3,0.1,-0.6,0.4,-0.8,0.8Zm-44.3,0l-1.5,1.5c0.2,0.3,0.5,0.7,0.8,0.8l1.5,-1.5l1.5,1.5c0.3,-0.1,0.6,-0.5,0.8,-0.8L725.4,43l1.5,-1.4c-0.2,-0.4,-0.5,-0.7,-0.8,-0.8l-1.5,1.5l-1.5,-1.5c-0.3,0.1,-0.6,0.4,-0.8,0.8Zm29.5,0l-1.5,1.5c0.2,0.3,0.6,0.7,0.8,0.8l1.5,-1.5l1.5,1.5c0.4,-0.1,0.6,-0.5,0.8,-0.8L754.9,43l1.5,-1.4c-0.2,-0.4,-0.4,-0.7,-0.8,-0.8l-1.5,1.5l-1.5,-1.5c-0.2,0.1,-0.6,0.4,-0.8,0.8Zm-14.7,0L737,44.5c0.3,0.3,0.6,0.7,0.8,0.8l1.6,-1.5l1.5,1.5c0.3,-0.1,0.5,-0.5,0.8,-0.8L740.2,43l1.5,-1.4c-0.3,-0.4,-0.5,-0.7,-0.8,-0.8l-1.5,1.5l-1.6,-1.5c-0.2,0.1,-0.5,0.4,-0.8,0.8Zm119.6,0l-1.5,1.5c0.2,0.3,0.6,0.7,0.8,0.8L859,43.8l1.6,1.5c0.3,-0.1,0.5,-0.5,0.8,-0.8L859.8,43l1.6,-1.4c-0.3,-0.4,-0.5,-0.7,-0.8,-0.8L859,42.3l-1.5,-1.5c-0.2,0.1,-0.6,0.4,-0.8,0.8Zm-14.7,0l-1.6,1.5c0.3,0.3,0.6,0.7,0.9,0.8l1.5,-1.5l1.5,1.5c0.3,-0.1,0.6,-0.5,0.8,-0.8L845.1,43l1.5,-1.4c-0.2,-0.4,-0.5,-0.7,-0.8,-0.8l-1.5,1.5l-1.5,-1.5c-0.3,0.1,-0.6,0.4,-0.9,0.8Zm-44.3,0l-1.5,1.5c0.2,0.3,0.5,0.7,0.8,0.8L800,43.8l1.5,1.5c0.3,-0.1,0.6,-0.5,0.8,-0.8L800.8,43l1.5,-1.4c-0.2,-0.4,-0.5,-0.7,-0.8,-0.8L800,42.3l-1.5,-1.5c-0.3,0.1,-0.6,0.4,-0.8,0.8Zm29.5,0l-1.5,1.5c0.2,0.3,0.6,0.7,0.8,0.8l1.5,-1.5l1.5,1.5c0.4,-0.1,0.6,-0.5,0.8,-0.8L830.3,43l1.5,-1.4c-0.2,-0.4,-0.4,-0.7,-0.8,-0.8l-1.5,1.5L828,40.8c-0.2,0.1,-0.6,0.4,-0.8,0.8ZM814,43l-1.6,1.5c0.3,0.3,0.6,0.7,0.8,0.8l1.6,-1.5l1.5,1.5c0.3,-0.1,0.5,-0.5,0.8,-0.8L815.6,43l1.5,-1.4c-0.3,-0.4,-0.5,-0.7,-0.8,-0.8l-1.5,1.5l-1.6,-1.5c-0.2,0.1,-0.5,0.4,-0.8,0.8Zm119.6,0l-1.5,1.5c0.2,0.3,0.6,0.7,0.8,0.8l1.5,-1.5l1.5,1.5c0.4,-0.1,0.6,-0.5,0.9,-0.8L935.2,43l1.6,-1.4c-0.3,-0.4,-0.5,-0.7,-0.9,-0.8l-1.5,1.5l-1.5,-1.5c-0.2,0.1,-0.6,0.4,-0.8,0.8Zm-14.7,0l-1.6,1.5c0.3,0.3,0.6,0.7,0.8,0.8l1.6,-1.5l1.5,1.5c0.3,-0.1,0.6,-0.5,0.8,-0.8L920.5,43L922,41.6c-0.2,-0.4,-0.5,-0.7,-0.8,-0.8l-1.5,1.5l-1.6,-1.5c-0.2,0.1,-0.5,0.4,-0.8,0.8Zm-44.3,0l-1.5,1.5c0.2,0.3,0.5,0.7,0.8,0.8l1.5,-1.5l1.5,1.5c0.3,-0.1,0.6,-0.5,0.8,-0.8L876.2,43l1.5,-1.4c-0.2,-0.4,-0.5,-0.7,-0.8,-0.8l-1.5,1.5l-1.5,-1.5c-0.3,0.1,-0.6,0.4,-0.8,0.8Zm29.5,0l-1.5,1.5c0.2,0.3,0.5,0.7,0.8,0.8l1.5,-1.5l1.5,1.5c0.4,-0.1,0.6,-0.5,0.8,-0.8L905.7,43l1.5,-1.4c-0.2,-0.4,-0.4,-0.7,-0.8,-0.8l-1.5,1.5l-1.5,-1.5c-0.3,0.1,-0.6,0.4,-0.8,0.8Zm-14.8,0l-1.5,1.5c0.3,0.3,0.6,0.7,0.8,0.8l1.6,-1.5l1.5,1.5c0.3,-0.1,0.5,-0.5,0.8,-0.8L891,43l1.5,-1.4c-0.3,-0.4,-0.5,-0.7,-0.8,-0.8l-1.5,1.5l-1.6,-1.5c-0.2,0.1,-0.5,0.4,-0.8,0.8ZM1009,43l-1.5,1.5c0.2,0.3,0.6,0.7,0.8,0.8l1.5,-1.5l1.5,1.5c0.4,-0.1,0.6,-0.5,0.8,-0.8L1010.6,43l1.5,-1.4c-0.2,-0.4,-0.4,-0.7,-0.8,-0.8l-1.5,1.5l-1.5,-1.5c-0.2,0.1,-0.6,0.4,-0.8,0.8Zm-14.7,0l-1.6,1.5c0.3,0.3,0.6,0.7,0.8,0.8l1.6,-1.5l1.5,1.5c0.3,-0.1,0.5,-0.5,0.8,-0.8L995.9,43l1.5,-1.4c-0.3,-0.4,-0.5,-0.7,-0.8,-0.8l-1.5,1.5l-1.6,-1.5c-0.2,0.1,-0.5,0.4,-0.8,0.8ZM950,43l-1.5,1.5c0.2,0.3,0.5,0.7,0.8,0.8l1.5,-1.5l1.5,1.5c0.3,-0.1,0.6,-0.5,0.8,-0.8L951.6,43l1.5,-1.4c-0.2,-0.4,-0.5,-0.7,-0.8,-0.8l-1.5,1.5l-1.5,-1.5c-0.3,0.1,-0.6,0.4,-0.8,0.8Zm29.5,0L978,44.5c0.2,0.3,0.5,0.7,0.8,0.8l1.5,-1.5l1.5,1.5c0.3,-0.1,0.6,-0.5,0.8,-0.8L981.1,43l1.5,-1.4c-0.2,-0.4,-0.5,-0.7,-0.8,-0.8l-1.5,1.5l-1.5,-1.5c-0.3,0.1,-0.6,0.4,-0.8,0.8Zm-14.8,0l-1.5,1.5c0.3,0.3,0.6,0.7,0.8,0.8l1.5,-1.5l1.6,1.5c0.3,-0.1,0.5,-0.5,0.8,-0.8L966.3,43l1.6,-1.4c-0.3,-0.4,-0.5,-0.7,-0.8,-0.8l-1.6,1.5L964,40.8c-0.2,0.1,-0.5,0.4,-0.8,0.8Zm119.7,0l-1.5,1.5c0.2,0.3,0.5,0.7,0.8,0.8l1.5,-1.5l1.5,1.5c0.4,-0.1,0.6,-0.5,0.8,-0.8L1086,43l1.5,-1.4c-0.2,-0.4,-0.4,-0.7,-0.8,-0.8l-1.5,1.5l-1.5,-1.5c-0.3,0.1,-0.6,0.4,-0.8,0.8Zm-14.7,0l-1.6,1.5c0.3,0.3,0.6,0.7,0.8,0.8l1.6,-1.5l1.5,1.5c0.3,-0.1,0.5,-0.5,0.8,-0.8L1071.3,43l1.5,-1.4c-0.3,-0.4,-0.5,-0.7,-0.8,-0.8l-1.5,1.5l-1.6,-1.5c-0.2,0.1,-0.5,0.4,-0.8,0.8Zm-44.3,0l-1.5,1.5c0.2,0.3,0.5,0.7,0.8,0.8l1.5,-1.5l1.5,1.5c0.3,-0.1,0.6,-0.5,0.8,-0.8L1027,43l1.5,-1.4c-0.2,-0.4,-0.5,-0.7,-0.8,-0.8l-1.5,1.5l-1.5,-1.5c-0.3,0.1,-0.6,0.4,-0.8,0.8Zm29.5,0l-1.5,1.5c0.2,0.3,0.5,0.7,0.8,0.8l1.5,-1.5l1.5,1.5c0.3,-0.1,0.6,-0.5,0.8,-0.8L1056.5,43l1.5,-1.4c-0.2,-0.4,-0.5,-0.7,-0.8,-0.8l-1.5,1.5l-1.5,-1.5c-0.3,0.1,-0.6,0.4,-0.8,0.8Zm-14.8,0l-1.5,1.5c0.3,0.3,0.6,0.7,0.8,0.8l1.5,-1.5l1.6,1.5c0.3,-0.1,0.5,-0.5,0.8,-0.8L1041.7,43l1.6,-1.4c-0.3,-0.4,-0.5,-0.7,-0.8,-0.8l-1.6,1.5l-1.5,-1.5c-0.2,0.1,-0.5,0.4,-0.8,0.8Zm119.7,0l-1.5,1.5c0.2,0.3,0.5,0.7,0.8,0.8l1.5,-1.5l1.5,1.5c0.4,-0.1,0.6,-0.5,0.8,-0.8L1161.4,43l1.5,-1.4c-0.2,-0.4,-0.4,-0.7,-0.8,-0.8l-1.5,1.5l-1.5,-1.5c-0.3,0.1,-0.6,0.4,-0.8,0.8ZM1145,43l-1.5,1.5c0.3,0.3,0.6,0.7,0.8,0.8l1.5,-1.5l1.6,1.5c0.3,-0.1,0.5,-0.5,0.8,-0.8L1146.7,43l1.5,-1.4c-0.3,-0.4,-0.5,-0.7,-0.8,-0.8l-1.6,1.5l-1.5,-1.5c-0.2,0.1,-0.5,0.4,-0.8,0.8Zm-44.2,0l-1.6,1.5c0.3,0.3,0.6,0.7,0.8,0.8l1.6,-1.5l1.5,1.5c0.3,-0.1,0.6,-0.5,0.8,-0.8L1102.4,43l1.5,-1.4c-0.2,-0.4,-0.5,-0.7,-0.8,-0.8l-1.5,1.5L1100,40.8c-0.2,0.1,-0.5,0.4,-0.8,0.8Zm29.5,0l-1.5,1.5c0.2,0.3,0.5,0.7,0.8,0.8l1.5,-1.5l1.5,1.5c0.3,-0.1,0.6,-0.5,0.8,-0.8L1131.9,43l1.5,-1.4c-0.2,-0.4,-0.5,-0.7,-0.8,-0.8l-1.5,1.5l-1.5,-1.5c-0.3,0.1,-0.6,0.4,-0.8,0.8Zm-14.8,0l-1.5,1.5c0.2,0.3,0.6,0.7,0.8,0.8l1.5,-1.5l1.6,1.5c0.3,-0.1,0.5,-0.5,0.8,-0.8L1117.1,43l1.6,-1.4c-0.3,-0.4,-0.5,-0.7,-0.8,-0.8l-1.6,1.5l-1.5,-1.5c-0.2,0.1,-0.6,0.4,-0.8,0.8Zm119.7,0l-1.5,1.5c0.2,0.3,0.5,0.7,0.8,0.8l1.5,-1.5l1.5,1.5c0.3,-0.1,0.6,-0.5,0.8,-0.8L1236.8,43l1.5,-1.4c-0.2,-0.4,-0.5,-0.7,-0.8,-0.8l-1.5,1.5l-1.5,-1.5c-0.3,0.1,-0.6,0.4,-0.8,0.8Zm-14.8,0l-1.5,1.5c0.3,0.3,0.6,0.7,0.8,0.8l1.5,-1.5l1.6,1.5c0.3,-0.1,0.5,-0.5,0.8,-0.8L1222,43l1.6,-1.4c-0.3,-0.4,-0.5,-0.7,-0.8,-0.8l-1.6,1.5l-1.5,-1.5c-0.2,0.1,-0.5,0.4,-0.8,0.8Zm-44.2,0l-1.6,1.5c0.3,0.3,0.6,0.7,0.8,0.8l1.6,-1.5l1.5,1.5c0.3,-0.1,0.6,-0.5,0.8,-0.8L1177.8,43l1.5,-1.4c-0.2,-0.4,-0.5,-0.7,-0.8,-0.8l-1.5,1.5l-1.6,-1.5c-0.2,0.1,-0.5,0.4,-0.8,0.8Zm29.5,0l-1.5,1.5c0.2,0.3,0.5,0.7,0.8,0.8l1.5,-1.5l1.5,1.5c0.3,-0.1,0.6,-0.5,0.8,-0.8L1207.3,43l1.5,-1.4c-0.2,-0.4,-0.5,-0.7,-0.8,-0.8l-1.5,1.5L1205,40.8c-0.3,0.1,-0.6,0.4,-0.8,0.8Zm-14.8,0l-1.5,1.5c0.2,0.3,0.6,0.7,0.8,0.8l1.5,-1.5l1.5,1.5c0.4,-0.1,0.6,-0.5,0.9,-0.8L1192.5,43l1.6,-1.4c-0.3,-0.4,-0.5,-0.7,-0.9,-0.8l-1.5,1.5l-1.5,-1.5c-0.2,0.1,-0.6,0.4,-0.8,0.8Z" class="g9_8" />
<path d="M256.8,1147.7l-1.5,1.5c0.2,0.3,0.5,0.7,0.8,0.8l1.5,-1.5l1.5,1.5c0.4,-0.1,0.6,-0.5,0.8,-0.8l-1.5,-1.5l1.5,-1.5c-0.2,-0.3,-0.4,-0.6,-0.8,-0.8l-1.5,1.6l-1.5,-1.6c-0.3,0.2,-0.6,0.5,-0.8,0.8Zm-14.7,0l-1.6,1.5c0.3,0.3,0.6,0.7,0.8,0.8l1.6,-1.5l1.5,1.5c0.3,-0.1,0.5,-0.5,0.8,-0.8l-1.5,-1.5l1.5,-1.5c-0.3,-0.3,-0.5,-0.6,-0.8,-0.8l-1.5,1.6l-1.6,-1.6c-0.2,0.2,-0.5,0.5,-0.8,0.8Zm-44.3,0l-1.5,1.5c0.2,0.3,0.5,0.7,0.8,0.8l1.5,-1.5l1.5,1.5c0.3,-0.1,0.6,-0.5,0.8,-0.8l-1.5,-1.5l1.5,-1.5c-0.2,-0.3,-0.5,-0.6,-0.8,-0.8l-1.5,1.6l-1.5,-1.6c-0.3,0.2,-0.6,0.5,-0.8,0.8Zm29.5,0l-1.5,1.5c0.2,0.3,0.5,0.7,0.8,0.8l1.5,-1.5l1.5,1.5c0.3,-0.1,0.6,-0.5,0.8,-0.8l-1.5,-1.5l1.5,-1.5c-0.2,-0.3,-0.5,-0.6,-0.8,-0.8l-1.5,1.6l-1.5,-1.6c-0.3,0.2,-0.6,0.5,-0.8,0.8Zm-14.8,0l-1.5,1.5c0.3,0.3,0.6,0.7,0.8,0.8l1.5,-1.5l1.6,1.5c0.3,-0.1,0.5,-0.5,0.8,-0.8l-1.6,-1.5l1.6,-1.5c-0.3,-0.3,-0.5,-0.6,-0.8,-0.8l-1.6,1.6l-1.5,-1.6c-0.2,0.2,-0.5,0.5,-0.8,0.8Zm119.7,0l-1.5,1.5c0.2,0.3,0.5,0.7,0.8,0.8l1.5,-1.5l1.5,1.5c0.4,-0.1,0.6,-0.5,0.8,-0.8l-1.5,-1.5l1.5,-1.5c-0.2,-0.3,-0.4,-0.6,-0.8,-0.8L333,1147l-1.5,-1.6c-0.3,0.2,-0.6,0.5,-0.8,0.8Zm-14.8,0l-1.5,1.5c0.3,0.3,0.6,0.7,0.8,0.8l1.6,-1.5l1.5,1.5c0.3,-0.1,0.5,-0.5,0.8,-0.8l-1.5,-1.5l1.5,-1.5c-0.3,-0.3,-0.5,-0.6,-0.8,-0.8l-1.5,1.6l-1.6,-1.6c-0.2,0.2,-0.5,0.5,-0.8,0.8Zm-44.2,0l-1.6,1.5c0.3,0.3,0.6,0.7,0.9,0.8l1.5,-1.5l1.5,1.5c0.3,-0.1,0.6,-0.5,0.8,-0.8l-1.5,-1.5l1.5,-1.5c-0.2,-0.3,-0.5,-0.6,-0.8,-0.8L274,1147l-1.5,-1.6c-0.3,0.2,-0.6,0.5,-0.9,0.8Zm29.5,0l-1.5,1.5c0.2,0.3,0.5,0.7,0.8,0.8l1.5,-1.5l1.5,1.5c0.3,-0.1,0.6,-0.5,0.8,-0.8l-1.5,-1.5l1.5,-1.5c-0.2,-0.3,-0.5,-0.6,-0.8,-0.8l-1.5,1.6l-1.5,-1.6c-0.3,0.2,-0.6,0.5,-0.8,0.8Zm-14.8,0l-1.5,1.5c0.2,0.3,0.6,0.7,0.8,0.8l1.5,-1.5l1.6,1.5c0.3,-0.1,0.5,-0.5,0.8,-0.8l-1.6,-1.5l1.6,-1.5c-0.3,-0.3,-0.5,-0.6,-0.8,-0.8l-1.6,1.6l-1.5,-1.6c-0.2,0.2,-0.6,0.5,-0.8,0.8Zm119.7,0l-1.5,1.5c0.2,0.3,0.5,0.7,0.8,0.8l1.5,-1.5l1.5,1.5c0.3,-0.1,0.6,-0.5,0.8,-0.8l-1.5,-1.5l1.5,-1.5c-0.2,-0.3,-0.5,-0.6,-0.8,-0.8l-1.5,1.6l-1.5,-1.6c-0.3,0.2,-0.6,0.5,-0.8,0.8Zm-14.8,0l-1.5,1.5c0.3,0.3,0.6,0.7,0.8,0.8l1.5,-1.5l1.6,1.5c0.3,-0.1,0.5,-0.5,0.8,-0.8l-1.6,-1.5l1.6,-1.5c-0.3,-0.3,-0.5,-0.6,-0.8,-0.8l-1.6,1.6l-1.5,-1.6c-0.2,0.2,-0.5,0.5,-0.8,0.8Zm-44.2,0l-1.6,1.5c0.3,0.3,0.6,0.7,0.8,0.8l1.6,-1.5l1.5,1.5c0.3,-0.1,0.6,-0.5,0.8,-0.8l-1.5,-1.5l1.5,-1.5c-0.2,-0.3,-0.5,-0.6,-0.8,-0.8l-1.5,1.6l-1.6,-1.6c-0.2,0.2,-0.5,0.5,-0.8,0.8Zm29.5,0l-1.5,1.5c0.2,0.3,0.5,0.7,0.8,0.8l1.5,-1.5l1.5,1.5c0.3,-0.1,0.6,-0.5,0.8,-0.8l-1.5,-1.5l1.5,-1.5c-0.2,-0.3,-0.5,-0.6,-0.8,-0.8l-1.5,1.6l-1.5,-1.6c-0.3,0.2,-0.6,0.5,-0.8,0.8Zm-14.8,0l-1.5,1.5c0.2,0.3,0.6,0.7,0.8,0.8l1.5,-1.5l1.6,1.5c0.3,-0.1,0.5,-0.5,0.8,-0.8l-1.6,-1.5l1.6,-1.5c-0.3,-0.3,-0.5,-0.6,-0.8,-0.8l-1.6,1.6l-1.5,-1.6c-0.2,0.2,-0.6,0.5,-0.8,0.8Zm119.7,0l-1.5,1.5c0.2,0.3,0.5,0.7,0.8,0.8l1.5,-1.5l1.5,1.5c0.3,-0.1,0.6,-0.5,0.8,-0.8l-1.5,-1.5l1.5,-1.5c-0.2,-0.3,-0.5,-0.6,-0.8,-0.8l-1.5,1.6l-1.5,-1.6c-0.3,0.2,-0.6,0.5,-0.8,0.8Zm-14.8,0l-1.5,1.5c0.3,0.3,0.6,0.7,0.8,0.8l1.5,-1.5l1.6,1.5c0.3,-0.1,0.5,-0.5,0.8,-0.8l-1.6,-1.5l1.6,-1.5c-0.3,-0.3,-0.5,-0.6,-0.8,-0.8L469,1147l-1.5,-1.6c-0.2,0.2,-0.5,0.5,-0.8,0.8Zm-44.2,0l-1.6,1.5c0.3,0.3,0.6,0.7,0.8,0.8l1.6,-1.5l1.5,1.5c0.3,-0.1,0.5,-0.5,0.8,-0.8l-1.5,-1.5l1.5,-1.5c-0.3,-0.3,-0.5,-0.6,-0.8,-0.8l-1.5,1.6l-1.6,-1.6c-0.2,0.2,-0.5,0.5,-0.8,0.8Zm29.5,0l-1.5,1.5c0.2,0.3,0.5,0.7,0.8,0.8l1.5,-1.5l1.5,1.5c0.3,-0.1,0.6,-0.5,0.8,-0.8l-1.5,-1.5l1.5,-1.5c-0.2,-0.3,-0.5,-0.6,-0.8,-0.8l-1.5,1.6l-1.5,-1.6c-0.3,0.2,-0.6,0.5,-0.8,0.8Zm-14.8,0l-1.5,1.5c0.2,0.3,0.6,0.7,0.8,0.8l1.5,-1.5l1.5,1.5c0.4,-0.1,0.6,-0.5,0.8,-0.8l-1.5,-1.5l1.5,-1.5c-0.2,-0.3,-0.4,-0.6,-0.8,-0.8l-1.5,1.6l-1.5,-1.6c-0.2,0.2,-0.6,0.5,-0.8,0.8Zm119.7,0l-1.5,1.5c0.2,0.3,0.5,0.7,0.8,0.8l1.5,-1.5l1.5,1.5c0.3,-0.1,0.6,-0.5,0.8,-0.8l-1.5,-1.5l1.5,-1.5c-0.2,-0.3,-0.5,-0.6,-0.8,-0.8l-1.5,1.6l-1.5,-1.6c-0.3,0.2,-0.6,0.5,-0.8,0.8Zm-14.8,0l-1.5,1.5c0.2,0.3,0.6,0.7,0.8,0.8l1.5,-1.5l1.6,1.5c0.3,-0.1,0.5,-0.5,0.8,-0.8l-1.6,-1.5l1.6,-1.5c-0.3,-0.3,-0.5,-0.6,-0.8,-0.8l-1.6,1.6l-1.5,-1.6c-0.2,0.2,-0.6,0.5,-0.8,0.8Zm-44.2,0l-1.6,1.5c0.3,0.3,0.6,0.7,0.8,0.8l1.6,-1.5l1.5,1.5c0.3,-0.1,0.5,-0.5,0.8,-0.8l-1.5,-1.5l1.5,-1.5c-0.3,-0.3,-0.5,-0.6,-0.8,-0.8l-1.5,1.6l-1.6,-1.6c-0.2,0.2,-0.5,0.5,-0.8,0.8Zm29.5,0l-1.6,1.5c0.3,0.3,0.6,0.7,0.8,0.8l1.6,-1.5l1.5,1.5c0.3,-0.1,0.6,-0.5,0.8,-0.8l-1.5,-1.5l1.5,-1.5c-0.2,-0.3,-0.5,-0.6,-0.8,-0.8l-1.5,1.6l-1.6,-1.6c-0.2,0.2,-0.5,0.5,-0.8,0.8Zm-14.8,0l-1.5,1.5c0.2,0.3,0.6,0.7,0.8,0.8l1.5,-1.5l1.5,1.5c0.4,-0.1,0.6,-0.5,0.8,-0.8l-1.5,-1.5l1.5,-1.5c-0.2,-0.3,-0.4,-0.6,-0.8,-0.8l-1.5,1.6l-1.5,-1.6c-0.2,0.2,-0.6,0.5,-0.8,0.8Zm119.7,0l-1.5,1.5c0.2,0.3,0.5,0.7,0.8,0.8l1.5,-1.5l1.5,1.5c0.3,-0.1,0.6,-0.5,0.8,-0.8l-1.5,-1.5l1.5,-1.5c-0.2,-0.3,-0.5,-0.6,-0.8,-0.8l-1.5,1.6l-1.5,-1.6c-0.3,0.2,-0.6,0.5,-0.8,0.8Zm-14.8,0l-1.5,1.5c0.2,0.3,0.6,0.7,0.8,0.8l1.5,-1.5l1.5,1.5c0.4,-0.1,0.6,-0.5,0.9,-0.8l-1.6,-1.5l1.6,-1.5c-0.3,-0.3,-0.5,-0.6,-0.9,-0.8l-1.5,1.6l-1.5,-1.6c-0.2,0.2,-0.6,0.5,-0.8,0.8Zm-44.3,0l-1.5,1.5c0.3,0.3,0.6,0.7,0.8,0.8l1.5,-1.5l1.6,1.5c0.3,-0.1,0.5,-0.5,0.8,-0.8l-1.5,-1.5l1.5,-1.5c-0.3,-0.3,-0.5,-0.6,-0.8,-0.8l-1.6,1.6l-1.5,-1.6c-0.2,0.2,-0.5,0.5,-0.8,0.8Zm29.6,0l-1.6,1.5c0.3,0.3,0.6,0.7,0.8,0.8l1.6,-1.5l1.5,1.5c0.3,-0.1,0.6,-0.5,0.8,-0.8l-1.5,-1.5l1.5,-1.5c-0.2,-0.3,-0.5,-0.6,-0.8,-0.8l-1.5,1.6l-1.6,-1.6c-0.2,0.2,-0.5,0.5,-0.8,0.8Zm-14.8,0l-1.5,1.5c0.2,0.3,0.5,0.7,0.8,0.8l1.5,-1.5l1.5,1.5c0.4,-0.1,0.6,-0.5,0.8,-0.8l-1.5,-1.5l1.5,-1.5c-0.2,-0.3,-0.4,-0.6,-0.8,-0.8l-1.5,1.6l-1.5,-1.6c-0.3,0.2,-0.6,0.5,-0.8,0.8Zm119.7,0l-1.5,1.5c0.2,0.3,0.5,0.7,0.8,0.8l1.5,-1.5l1.5,1.5c0.3,-0.1,0.6,-0.5,0.8,-0.8l-1.5,-1.5l1.5,-1.5c-0.2,-0.3,-0.5,-0.6,-0.8,-0.8L710,1147l-1.5,-1.6c-0.3,0.2,-0.6,0.5,-0.8,0.8Zm-14.8,0l-1.5,1.5c0.2,0.3,0.6,0.7,0.8,0.8l1.5,-1.5l1.5,1.5c0.4,-0.1,0.6,-0.5,0.8,-0.8l-1.5,-1.5l1.5,-1.5c-0.2,-0.3,-0.4,-0.6,-0.8,-0.8l-1.5,1.6l-1.5,-1.6c-0.2,0.2,-0.6,0.5,-0.8,0.8Zm-44.3,0l-1.5,1.5c0.3,0.3,0.6,0.7,0.8,0.8l1.5,-1.5l1.6,1.5c0.3,-0.1,0.5,-0.5,0.8,-0.8l-1.6,-1.5l1.6,-1.5c-0.3,-0.3,-0.5,-0.6,-0.8,-0.8l-1.6,1.6l-1.5,-1.6c-0.2,0.2,-0.5,0.5,-0.8,0.8Zm29.6,0l-1.6,1.5c0.3,0.3,0.6,0.7,0.8,0.8l1.6,-1.5l1.5,1.5c0.3,-0.1,0.5,-0.5,0.8,-0.8l-1.5,-1.5l1.5,-1.5c-0.3,-0.3,-0.5,-0.6,-0.8,-0.8l-1.5,1.6l-1.6,-1.6c-0.2,0.2,-0.5,0.5,-0.8,0.8Zm-14.8,0l-1.5,1.5c0.2,0.3,0.5,0.7,0.8,0.8l1.5,-1.5l1.5,1.5c0.3,-0.1,0.6,-0.5,0.8,-0.8l-1.5,-1.5l1.5,-1.5c-0.2,-0.3,-0.5,-0.6,-0.8,-0.8l-1.5,1.6l-1.5,-1.6c-0.3,0.2,-0.6,0.5,-0.8,0.8Zm119.7,0l-1.6,1.5c0.3,0.3,0.6,0.7,0.8,0.8l1.6,-1.5l1.5,1.5c0.3,-0.1,0.6,-0.5,0.8,-0.8l-1.5,-1.5l1.5,-1.5c-0.2,-0.3,-0.5,-0.6,-0.8,-0.8l-1.5,1.6l-1.6,-1.6c-0.2,0.2,-0.5,0.5,-0.8,0.8Zm-14.8,0l-1.5,1.5c0.2,0.3,0.5,0.7,0.8,0.8l1.5,-1.5l1.5,1.5c0.4,-0.1,0.6,-0.5,0.8,-0.8l-1.5,-1.5l1.5,-1.5c-0.2,-0.3,-0.4,-0.6,-0.8,-0.8l-1.5,1.6l-1.5,-1.6c-0.3,0.2,-0.6,0.5,-0.8,0.8Zm-44.3,0l-1.5,1.5c0.3,0.3,0.6,0.7,0.8,0.8l1.5,-1.5l1.6,1.5c0.3,-0.1,0.5,-0.5,0.8,-0.8l-1.6,-1.5l1.6,-1.5c-0.3,-0.3,-0.5,-0.6,-0.8,-0.8l-1.6,1.6l-1.5,-1.6c-0.2,0.2,-0.5,0.5,-0.8,0.8Zm29.6,0l-1.6,1.5c0.3,0.3,0.6,0.7,0.8,0.8l1.6,-1.5l1.5,1.5c0.3,-0.1,0.5,-0.5,0.8,-0.8l-1.5,-1.5l1.5,-1.5c-0.3,-0.3,-0.5,-0.6,-0.8,-0.8l-1.5,1.6l-1.6,-1.6c-0.2,0.2,-0.5,0.5,-0.8,0.8Zm-14.8,0l-1.5,1.5c0.2,0.3,0.5,0.7,0.8,0.8l1.5,-1.5l1.5,1.5c0.3,-0.1,0.6,-0.5,0.8,-0.8l-1.5,-1.5l1.5,-1.5c-0.2,-0.3,-0.5,-0.6,-0.8,-0.8l-1.5,1.6l-1.5,-1.6c-0.3,0.2,-0.6,0.5,-0.8,0.8Zm119.7,0l-1.6,1.5c0.3,0.3,0.6,0.7,0.8,0.8l1.6,-1.5l1.5,1.5c0.3,-0.1,0.5,-0.5,0.8,-0.8l-1.5,-1.5l1.5,-1.5c-0.3,-0.3,-0.5,-0.6,-0.8,-0.8l-1.5,1.6l-1.6,-1.6c-0.2,0.2,-0.5,0.5,-0.8,0.8Zm-14.8,0l-1.5,1.5c0.2,0.3,0.5,0.7,0.8,0.8l1.5,-1.5l1.5,1.5c0.4,-0.1,0.6,-0.5,0.8,-0.8l-1.5,-1.5l1.5,-1.5c-0.2,-0.3,-0.4,-0.6,-0.8,-0.8L846,1147l-1.5,-1.6c-0.3,0.2,-0.6,0.5,-0.8,0.8Zm-44.3,0l-1.5,1.5c0.2,0.3,0.6,0.7,0.8,0.8l1.5,-1.5l1.6,1.5c0.3,-0.1,0.5,-0.5,0.8,-0.8l-1.6,-1.5l1.6,-1.5c-0.3,-0.3,-0.5,-0.6,-0.8,-0.8l-1.6,1.6l-1.5,-1.6c-0.2,0.2,-0.6,0.5,-0.8,0.8Zm29.5,0l-1.5,1.5c0.3,0.3,0.6,0.7,0.8,0.8l1.5,-1.5l1.6,1.5c0.3,-0.1,0.5,-0.5,0.8,-0.8l-1.6,-1.5l1.6,-1.5c-0.3,-0.3,-0.5,-0.6,-0.8,-0.8l-1.6,1.6l-1.5,-1.6c-0.2,0.2,-0.5,0.5,-0.8,0.8Zm-14.7,0l-1.5,1.5c0.2,0.3,0.5,0.7,0.8,0.8l1.5,-1.5l1.5,1.5c0.3,-0.1,0.6,-0.5,0.8,-0.8l-1.5,-1.5l1.5,-1.5c-0.2,-0.3,-0.5,-0.6,-0.8,-0.8l-1.5,1.6l-1.5,-1.6c-0.3,0.2,-0.6,0.5,-0.8,0.8Zm119.7,0l-1.6,1.5c0.3,0.3,0.6,0.7,0.8,0.8l1.6,-1.5l1.5,1.5c0.3,-0.1,0.5,-0.5,0.8,-0.8l-1.5,-1.5l1.5,-1.5c-0.3,-0.3,-0.5,-0.6,-0.8,-0.8l-1.5,1.6l-1.6,-1.6c-0.2,0.2,-0.5,0.5,-0.8,0.8Zm-14.8,0l-1.5,1.5c0.2,0.3,0.5,0.7,0.8,0.8l1.5,-1.5l1.5,1.5c0.3,-0.1,0.6,-0.5,0.8,-0.8l-1.5,-1.5l1.5,-1.5c-0.2,-0.3,-0.5,-0.6,-0.8,-0.8l-1.5,1.6l-1.5,-1.6c-0.3,0.2,-0.6,0.5,-0.8,0.8Zm-44.3,0l-1.5,1.5c0.2,0.3,0.6,0.7,0.8,0.8l1.5,-1.5l1.5,1.5c0.4,-0.1,0.6,-0.5,0.9,-0.8l-1.6,-1.5l1.6,-1.5c-0.3,-0.3,-0.5,-0.6,-0.9,-0.8l-1.5,1.6l-1.5,-1.6c-0.2,0.2,-0.6,0.5,-0.8,0.8Zm29.5,0l-1.5,1.5c0.3,0.3,0.6,0.7,0.8,0.8l1.5,-1.5l1.6,1.5c0.3,-0.1,0.5,-0.5,0.8,-0.8l-1.6,-1.5l1.6,-1.5c-0.3,-0.3,-0.5,-0.6,-0.8,-0.8l-1.6,1.6l-1.5,-1.6c-0.2,0.2,-0.5,0.5,-0.8,0.8Zm-14.7,0l-1.5,1.5c0.2,0.3,0.5,0.7,0.8,0.8l1.5,-1.5l1.5,1.5c0.3,-0.1,0.6,-0.5,0.8,-0.8l-1.5,-1.5l1.5,-1.5c-0.2,-0.3,-0.5,-0.6,-0.8,-0.8l-1.5,1.6l-1.5,-1.6c-0.3,0.2,-0.6,0.5,-0.8,0.8Zm119.7,0l-1.6,1.5c0.3,0.3,0.6,0.7,0.8,0.8l1.6,-1.5l1.5,1.5c0.3,-0.1,0.5,-0.5,0.8,-0.8l-1.5,-1.5l1.5,-1.5c-0.3,-0.3,-0.5,-0.6,-0.8,-0.8l-1.5,1.6l-1.6,-1.6c-0.2,0.2,-0.5,0.5,-0.8,0.8Zm-14.8,0l-1.5,1.5c0.2,0.3,0.5,0.7,0.8,0.8l1.5,-1.5l1.5,1.5c0.3,-0.1,0.6,-0.5,0.8,-0.8l-1.5,-1.5l1.5,-1.5c-0.2,-0.3,-0.5,-0.6,-0.8,-0.8l-1.5,1.6l-1.5,-1.6c-0.3,0.2,-0.6,0.5,-0.8,0.8Zm-44.3,0l-1.5,1.5c0.2,0.3,0.6,0.7,0.8,0.8l1.5,-1.5l1.5,1.5c0.4,-0.1,0.6,-0.5,0.8,-0.8l-1.5,-1.5l1.5,-1.5c-0.2,-0.3,-0.4,-0.6,-0.8,-0.8l-1.5,1.6l-1.5,-1.6c-0.2,0.2,-0.6,0.5,-0.8,0.8Zm29.5,0l-1.5,1.5c0.3,0.3,0.6,0.7,0.8,0.8l1.5,-1.5l1.6,1.5c0.3,-0.1,0.5,-0.5,0.8,-0.8l-1.6,-1.5l1.6,-1.5c-0.3,-0.3,-0.5,-0.6,-0.8,-0.8L982,1147l-1.5,-1.6c-0.2,0.2,-0.5,0.5,-0.8,0.8Zm-14.7,0l-1.5,1.5c0.2,0.3,0.5,0.7,0.8,0.8l1.5,-1.5l1.5,1.5c0.3,-0.1,0.6,-0.5,0.8,-0.8l-1.5,-1.5l1.5,-1.5c-0.2,-0.3,-0.5,-0.6,-0.8,-0.8l-1.5,1.6l-1.5,-1.6c-0.3,0.2,-0.6,0.5,-0.8,0.8Zm119.6,0l-1.5,1.5c0.3,0.3,0.6,0.7,0.8,0.8l1.5,-1.5l1.6,1.5c0.3,-0.1,0.5,-0.5,0.8,-0.8l-1.6,-1.5l1.6,-1.5c-0.3,-0.3,-0.5,-0.6,-0.8,-0.8l-1.6,1.6l-1.5,-1.6c-0.2,0.2,-0.5,0.5,-0.8,0.8Zm-14.7,0l-1.5,1.5c0.2,0.3,0.5,0.7,0.8,0.8l1.5,-1.5l1.5,1.5c0.3,-0.1,0.6,-0.5,0.8,-0.8l-1.5,-1.5l1.5,-1.5c-0.2,-0.3,-0.5,-0.6,-0.8,-0.8l-1.5,1.6l-1.5,-1.6c-0.3,0.2,-0.6,0.5,-0.8,0.8Zm-44.3,0l-1.5,1.5c0.2,0.3,0.5,0.7,0.8,0.8l1.5,-1.5l1.5,1.5c0.4,-0.1,0.6,-0.5,0.8,-0.8l-1.5,-1.5l1.5,-1.5c-0.2,-0.3,-0.4,-0.6,-0.8,-0.8l-1.5,1.6l-1.5,-1.6c-0.3,0.2,-0.6,0.5,-0.8,0.8Zm29.5,0l-1.5,1.5c0.2,0.3,0.6,0.7,0.8,0.8l1.5,-1.5l1.6,1.5c0.3,-0.1,0.5,-0.5,0.8,-0.8l-1.6,-1.5l1.6,-1.5c-0.3,-0.3,-0.5,-0.6,-0.8,-0.8l-1.6,1.6l-1.5,-1.6c-0.2,0.2,-0.6,0.5,-0.8,0.8Zm-14.7,0l-1.6,1.5c0.3,0.3,0.6,0.7,0.8,0.8l1.6,-1.5l1.5,1.5c0.3,-0.1,0.6,-0.5,0.8,-0.8l-1.5,-1.5l1.5,-1.5c-0.2,-0.3,-0.5,-0.6,-0.8,-0.8l-1.5,1.6l-1.6,-1.6c-0.2,0.2,-0.5,0.5,-0.8,0.8Zm119.6,0l-1.5,1.5c0.3,0.3,0.6,0.7,0.8,0.8l1.5,-1.5l1.6,1.5c0.3,-0.1,0.5,-0.5,0.8,-0.8l-1.6,-1.5l1.6,-1.5c-0.3,-0.3,-0.5,-0.6,-0.8,-0.8l-1.6,1.6l-1.5,-1.6c-0.2,0.2,-0.5,0.5,-0.8,0.8Zm-14.7,0l-1.5,1.5c0.2,0.3,0.5,0.7,0.8,0.8l1.5,-1.5l1.5,1.5c0.3,-0.1,0.6,-0.5,0.8,-0.8l-1.5,-1.5l1.5,-1.5c-0.2,-0.3,-0.5,-0.6,-0.8,-0.8l-1.5,1.6l-1.5,-1.6c-0.3,0.2,-0.6,0.5,-0.8,0.8Zm-44.3,0l-1.5,1.5c0.2,0.3,0.5,0.7,0.8,0.8l1.5,-1.5l1.5,1.5c0.4,-0.1,0.6,-0.5,0.8,-0.8l-1.5,-1.5l1.5,-1.5c-0.2,-0.3,-0.4,-0.6,-0.8,-0.8l-1.5,1.6l-1.5,-1.6c-0.3,0.2,-0.6,0.5,-0.8,0.8Zm29.5,0l-1.5,1.5c0.2,0.3,0.6,0.7,0.8,0.8l1.5,-1.5l1.5,1.5c0.4,-0.1,0.6,-0.5,0.8,-0.8l-1.5,-1.5l1.5,-1.5c-0.2,-0.3,-0.4,-0.6,-0.8,-0.8l-1.5,1.6l-1.5,-1.6c-0.2,0.2,-0.6,0.5,-0.8,0.8Zm-14.7,0l-1.6,1.5c0.3,0.3,0.6,0.7,0.8,0.8l1.6,-1.5l1.5,1.5c0.3,-0.1,0.6,-0.5,0.8,-0.8l-1.5,-1.5l1.5,-1.5c-0.2,-0.3,-0.5,-0.6,-0.8,-0.8l-1.5,1.6l-1.6,-1.6c-0.2,0.2,-0.5,0.5,-0.8,0.8Zm119.6,0l-1.5,1.5c0.2,0.3,0.6,0.7,0.8,0.8l1.5,-1.5l1.6,1.5c0.3,-0.1,0.5,-0.5,0.8,-0.8l-1.6,-1.5l1.6,-1.5c-0.3,-0.3,-0.5,-0.6,-0.8,-0.8l-1.6,1.6l-1.5,-1.6c-0.2,0.2,-0.6,0.5,-0.8,0.8Zm-14.7,0l-1.6,1.5c0.3,0.3,0.6,0.7,0.9,0.8l1.5,-1.5l1.5,1.5c0.3,-0.1,0.6,-0.5,0.8,-0.8l-1.5,-1.5l1.5,-1.5c-0.2,-0.3,-0.5,-0.6,-0.8,-0.8l-1.5,1.6l-1.5,-1.6c-0.3,0.2,-0.6,0.5,-0.9,0.8Zm-44.3,0l-1.5,1.5c0.2,0.3,0.5,0.7,0.8,0.8l1.5,-1.5l1.5,1.5c0.3,-0.1,0.6,-0.5,0.8,-0.8l-1.5,-1.5l1.5,-1.5c-0.2,-0.3,-0.5,-0.6,-0.8,-0.8l-1.5,1.6l-1.5,-1.6c-0.3,0.2,-0.6,0.5,-0.8,0.8Zm29.5,0l-1.5,1.5c0.2,0.3,0.6,0.7,0.8,0.8l1.5,-1.5l1.5,1.5c0.4,-0.1,0.6,-0.5,0.8,-0.8l-1.5,-1.5l1.5,-1.5c-0.2,-0.3,-0.4,-0.6,-0.8,-0.8l-1.5,1.6l-1.5,-1.6c-0.2,0.2,-0.6,0.5,-0.8,0.8Zm-14.7,0l-1.6,1.5c0.3,0.3,0.6,0.7,0.8,0.8l1.6,-1.5l1.5,1.5c0.3,-0.1,0.5,-0.5,0.8,-0.8l-1.5,-1.5l1.5,-1.5c-0.3,-0.3,-0.5,-0.6,-0.8,-0.8l-1.5,1.6l-1.6,-1.6c-0.2,0.2,-0.5,0.5,-0.8,0.8Z" class="g9_8" />
</g>
<path d="M0,1190l214,0L214,0L0,0L0,1190Z" class="g10_8" />
<g clip-path="url(#c0_8)">
<path d="M210.2,1137.1l1.5,1.6c0.3,-0.3,0.7,-0.6,0.8,-0.9l-1.5,-1.6l1.5,-1.7c-0.1,-0.3,-0.5,-0.6,-0.8,-0.8l-1.5,1.6l-1.4,-1.6c-0.3,0.2,-0.7,0.5,-0.8,0.8l1.5,1.7l-1.5,1.6c0.1,0.3,0.5,0.6,0.8,0.9Zm0,15.9l1.5,1.7c0.3,-0.3,0.7,-0.6,0.8,-0.9l-1.5,-1.6l1.5,-1.7c-0.1,-0.3,-0.5,-0.6,-0.8,-0.8l-1.5,1.6l-1.4,-1.6c-0.3,0.2,-0.7,0.5,-0.8,0.8l1.5,1.7l-1.5,1.6c0.1,0.3,0.5,0.6,0.8,0.9Zm0,48l1.5,1.6c0.3,-0.2,0.7,-0.6,0.8,-0.8l-1.5,-1.7l1.5,-1.6c-0.1,-0.4,-0.5,-0.6,-0.8,-0.9l-1.5,1.7l-1.4,-1.7c-0.3,0.3,-0.7,0.5,-0.8,0.9l1.5,1.6l-1.5,1.7c0.1,0.2,0.5,0.6,0.8,0.8Zm0,-32l1.5,1.7c0.3,-0.3,0.7,-0.6,0.8,-0.9l-1.5,-1.6l1.5,-1.7c-0.1,-0.3,-0.5,-0.6,-0.8,-0.9l-1.5,1.7l-1.4,-1.7c-0.3,0.3,-0.7,0.6,-0.8,0.9l1.5,1.7l-1.5,1.6c0.1,0.3,0.5,0.6,0.8,0.9Zm0,16l1.5,1.7c0.3,-0.3,0.7,-0.7,0.8,-0.9l-1.5,-1.7l1.5,-1.6c-0.1,-0.4,-0.5,-0.6,-0.8,-0.9l-1.5,1.7l-1.4,-1.7c-0.3,0.3,-0.7,0.5,-0.8,0.9l1.5,1.6l-1.5,1.7c0.1,0.2,0.5,0.6,0.8,0.9Zm0,-129.6l1.5,1.7c0.3,-0.3,0.7,-0.6,0.8,-0.9l-1.5,-1.7l1.5,-1.6c-0.1,-0.4,-0.5,-0.6,-0.8,-0.9l-1.5,1.7l-1.4,-1.7c-0.3,0.3,-0.7,0.5,-0.8,0.9l1.5,1.6l-1.5,1.7c0.1,0.3,0.5,0.6,0.8,0.9Zm0,16l1.5,1.6c0.3,-0.2,0.7,-0.6,0.8,-0.8l-1.5,-1.7l1.5,-1.6c-0.1,-0.4,-0.5,-0.6,-0.8,-0.9l-1.5,1.7l-1.4,-1.7c-0.3,0.3,-0.7,0.5,-0.8,0.9l1.5,1.6l-1.5,1.7c0.1,0.2,0.5,0.6,0.8,0.8Zm0,47.9l1.5,1.7c0.3,-0.3,0.7,-0.6,0.8,-0.9l-1.5,-1.6l1.5,-1.7c-0.1,-0.3,-0.5,-0.6,-0.8,-0.8l-1.5,1.6l-1.4,-1.6c-0.3,0.2,-0.7,0.5,-0.8,0.8l1.5,1.7l-1.5,1.6c0.1,0.3,0.5,0.6,0.8,0.9Zm0,-31.9l1.5,1.6c0.3,-0.2,0.7,-0.6,0.8,-0.8l-1.5,-1.7l1.5,-1.6c-0.1,-0.4,-0.5,-0.6,-0.8,-0.9l-1.5,1.6l-1.4,-1.6c-0.3,0.3,-0.7,0.5,-0.8,0.9l1.5,1.6l-1.5,1.7c0.1,0.2,0.5,0.6,0.8,0.8Zm0,16l1.5,1.6c0.3,-0.2,0.7,-0.6,0.8,-0.9l-1.5,-1.6l1.5,-1.7c-0.1,-0.3,-0.5,-0.6,-0.8,-0.8l-1.5,1.6l-1.4,-1.6c-0.3,0.2,-0.7,0.5,-0.8,0.8l1.5,1.7l-1.5,1.6c0.1,0.3,0.5,0.7,0.8,0.9Zm0,-129.6l1.5,1.6c0.3,-0.2,0.7,-0.6,0.8,-0.9L211,972.9l1.5,-1.7c-0.1,-0.3,-0.5,-0.6,-0.8,-0.8l-1.5,1.6l-1.4,-1.6c-0.3,0.2,-0.7,0.5,-0.8,0.8l1.5,1.7l-1.5,1.6c0.1,0.3,0.5,0.7,0.8,0.9Zm0,16l1.5,1.6c0.3,-0.3,0.7,-0.6,0.8,-0.9L211,988.9l1.5,-1.7c-0.1,-0.3,-0.5,-0.6,-0.8,-0.8l-1.5,1.6l-1.4,-1.6c-0.3,0.2,-0.7,0.5,-0.8,0.8l1.5,1.7l-1.5,1.6c0.1,0.3,0.5,0.6,0.8,0.9Zm0,47.9l1.5,1.6c0.3,-0.2,0.7,-0.6,0.8,-0.8l-1.5,-1.7l1.5,-1.6c-0.1,-0.4,-0.5,-0.6,-0.8,-0.9l-1.5,1.7l-1.4,-1.7c-0.3,0.3,-0.7,0.5,-0.8,0.9l1.5,1.6l-1.5,1.7c0.1,0.2,0.5,0.6,0.8,0.8Zm0,-32l1.5,1.7c0.3,-0.3,0.7,-0.6,0.8,-0.9l-1.5,-1.6l1.5,-1.7c-0.1,-0.3,-0.5,-0.6,-0.8,-0.9l-1.5,1.7l-1.4,-1.7c-0.3,0.3,-0.7,0.6,-0.8,0.9l1.5,1.7l-1.5,1.6c0.1,0.3,0.5,0.6,0.8,0.9Zm0,16l1.5,1.7c0.3,-0.3,0.7,-0.6,0.8,-0.9l-1.5,-1.7l1.5,-1.6c-0.1,-0.4,-0.5,-0.6,-0.8,-0.9l-1.5,1.7l-1.4,-1.7c-0.3,0.3,-0.7,0.5,-0.8,0.9l1.5,1.6l-1.5,1.7c0.1,0.3,0.5,0.6,0.8,0.9Zm0,-129.6l1.5,1.7c0.3,-0.3,0.7,-0.6,0.8,-0.9L211,891.3l1.5,-1.7c-0.1,-0.3,-0.5,-0.6,-0.8,-0.9l-1.5,1.7l-1.4,-1.7c-0.3,0.3,-0.7,0.6,-0.8,0.9l1.5,1.7l-1.5,1.6c0.1,0.3,0.5,0.6,0.8,0.9Zm0,16l1.5,1.7c0.3,-0.3,0.7,-0.7,0.8,-0.9L211,907.2l1.5,-1.6c-0.1,-0.4,-0.5,-0.6,-0.8,-0.9l-1.5,1.7l-1.4,-1.7c-0.3,0.3,-0.7,0.5,-0.8,0.9l1.5,1.6l-1.5,1.7c0.1,0.2,0.5,0.6,0.8,0.9Zm0,48l1.5,1.6c0.3,-0.3,0.7,-0.6,0.8,-0.9L211,955.2l1.5,-1.7c-0.1,-0.3,-0.5,-0.6,-0.8,-0.8l-1.5,1.6l-1.4,-1.6c-0.3,0.2,-0.7,0.5,-0.8,0.8l1.5,1.7l-1.5,1.6c0.1,0.3,0.5,0.6,0.8,0.9Zm0,-32l1.5,1.6c0.3,-0.2,0.7,-0.6,0.8,-0.8L211,923.2l1.5,-1.6c-0.1,-0.4,-0.5,-0.6,-0.8,-0.9l-1.5,1.7l-1.4,-1.7c-0.3,0.3,-0.7,0.5,-0.8,0.9l1.5,1.6l-1.5,1.7c0.1,0.2,0.5,0.6,0.8,0.8Zm0,16l1.5,1.6c0.3,-0.2,0.7,-0.6,0.8,-0.8L211,939.2l1.5,-1.6c-0.1,-0.4,-0.5,-0.7,-0.8,-0.9l-1.5,1.6l-1.4,-1.6c-0.3,0.2,-0.7,0.5,-0.8,0.9l1.5,1.6l-1.5,1.7c0.1,0.2,0.5,0.6,0.8,0.8Zm0,-129.6l1.5,1.6c0.3,-0.2,0.7,-0.6,0.8,-0.8L211,809.6l1.5,-1.6c-0.1,-0.4,-0.5,-0.7,-0.8,-0.9l-1.5,1.6l-1.4,-1.6c-0.3,0.2,-0.7,0.5,-0.8,0.9l1.5,1.6l-1.5,1.7c0.1,0.2,0.5,0.6,0.8,0.8Zm0,16l1.5,1.6c0.3,-0.3,0.7,-0.6,0.8,-0.9L211,825.6l1.5,-1.7c-0.1,-0.3,-0.5,-0.6,-0.8,-0.8l-1.5,1.6l-1.4,-1.6c-0.3,0.2,-0.7,0.5,-0.8,0.8l1.5,1.7l-1.5,1.6c0.1,0.3,0.5,0.6,0.8,0.9Zm0,47.9l1.5,1.7c0.3,-0.3,0.7,-0.7,0.8,-0.9L211,873.5l1.5,-1.6c-0.1,-0.4,-0.5,-0.6,-0.8,-0.9l-1.5,1.7L208.8,871c-0.3,0.3,-0.7,0.5,-0.8,0.9l1.5,1.6l-1.5,1.7c0.1,0.2,0.5,0.6,0.8,0.9Zm0,-32l1.5,1.7c0.3,-0.3,0.7,-0.6,0.8,-0.9L211,841.6l1.5,-1.7c-0.1,-0.3,-0.5,-0.6,-0.8,-0.8l-1.5,1.6l-1.4,-1.6c-0.3,0.2,-0.7,0.5,-0.8,0.8l1.5,1.7l-1.5,1.6c0.1,0.3,0.5,0.6,0.8,0.9Zm0,16l1.5,1.7c0.3,-0.3,0.7,-0.6,0.8,-0.9L211,857.6l1.5,-1.7c-0.1,-0.3,-0.5,-0.6,-0.8,-0.9l-1.5,1.7L208.8,855c-0.3,0.3,-0.7,0.6,-0.8,0.9l1.5,1.7l-1.5,1.6c0.1,0.3,0.5,0.6,0.8,0.9Zm0,-129.6l1.5,1.7c0.3,-0.3,0.7,-0.6,0.8,-0.9L211,728l1.5,-1.7c-0.1,-0.3,-0.5,-0.6,-0.8,-0.9l-1.5,1.7l-1.4,-1.7c-0.3,0.3,-0.7,0.6,-0.8,0.9l1.5,1.7l-1.5,1.6c0.1,0.3,0.5,0.6,0.8,0.9Zm0,16l1.5,1.7c0.3,-0.3,0.7,-0.6,0.8,-0.9L211,743.9l1.5,-1.6c-0.1,-0.4,-0.5,-0.6,-0.8,-0.9l-1.5,1.7l-1.4,-1.7c-0.3,0.3,-0.7,0.5,-0.8,0.9l1.5,1.6l-1.5,1.7c0.1,0.3,0.5,0.6,0.8,0.9Zm0,48l1.5,1.6c0.3,-0.3,0.7,-0.6,0.8,-0.9L211,791.9l1.5,-1.7c-0.1,-0.3,-0.5,-0.6,-0.8,-0.8l-1.5,1.6l-1.4,-1.6c-0.3,0.2,-0.7,0.5,-0.8,0.8l1.5,1.7l-1.5,1.6c0.1,0.3,0.5,0.6,0.8,0.9Zm0,-32l1.5,1.6c0.3,-0.2,0.7,-0.6,0.8,-0.8L211,759.9l1.5,-1.6c-0.1,-0.4,-0.5,-0.6,-0.8,-0.9l-1.5,1.7l-1.4,-1.7c-0.3,0.3,-0.7,0.5,-0.8,0.9l1.5,1.6l-1.5,1.7c0.1,0.2,0.5,0.6,0.8,0.8Zm0,16l1.5,1.6c0.3,-0.2,0.7,-0.6,0.8,-0.8L211,775.9l1.5,-1.6c-0.1,-0.4,-0.5,-0.6,-0.8,-0.9l-1.5,1.6l-1.4,-1.6c-0.3,0.3,-0.7,0.5,-0.8,0.9l1.5,1.6l-1.5,1.7c0.1,0.2,0.5,0.6,0.8,0.8Zm0,-129.6l1.5,1.6c0.3,-0.2,0.7,-0.6,0.8,-0.8L211,646.3l1.5,-1.6c-0.1,-0.4,-0.5,-0.6,-0.8,-0.9l-1.5,1.6l-1.4,-1.6c-0.3,0.3,-0.7,0.5,-0.8,0.9l1.5,1.6L208,648c0.1,0.2,0.5,0.6,0.8,0.8Zm0,16l1.5,1.6c0.3,-0.2,0.7,-0.6,0.8,-0.9L211,662.3l1.5,-1.7c-0.1,-0.3,-0.5,-0.6,-0.8,-0.8l-1.5,1.6l-1.4,-1.6c-0.3,0.2,-0.7,0.5,-0.8,0.8l1.5,1.7l-1.5,1.6c0.1,0.3,0.5,0.7,0.8,0.9Zm0,47.9l1.5,1.7c0.3,-0.3,0.7,-0.6,0.8,-0.9L211,710.2l1.5,-1.6c-0.1,-0.4,-0.5,-0.6,-0.8,-0.9l-1.5,1.7l-1.4,-1.7c-0.3,0.3,-0.7,0.5,-0.8,0.9l1.5,1.6l-1.5,1.7c0.1,0.3,0.5,0.6,0.8,0.9Zm0,-31.9l1.5,1.6c0.3,-0.3,0.7,-0.6,0.8,-0.9L211,678.3l1.5,-1.7c-0.1,-0.3,-0.5,-0.6,-0.8,-0.8l-1.5,1.6l-1.4,-1.6c-0.3,0.2,-0.7,0.5,-0.8,0.8l1.5,1.7l-1.5,1.6c0.1,0.3,0.5,0.6,0.8,0.9Zm0,15.9l1.5,1.7c0.3,-0.3,0.7,-0.6,0.8,-0.9L211,694.3l1.5,-1.7c-0.1,-0.3,-0.5,-0.6,-0.8,-0.9l-1.5,1.7l-1.4,-1.7c-0.3,0.3,-0.7,0.6,-0.8,0.9l1.5,1.7l-1.5,1.6c0.1,0.3,0.5,0.6,0.8,0.9Zm0,-129.6l1.5,1.7c0.3,-0.3,0.7,-0.6,0.8,-0.9L211,564.7l1.5,-1.7c-0.1,-0.3,-0.5,-0.6,-0.8,-0.8l-1.5,1.6l-1.4,-1.6c-0.3,0.2,-0.7,0.5,-0.8,0.8l1.5,1.7l-1.5,1.6c0.1,0.3,0.5,0.6,0.8,0.9Zm0,16l1.5,1.7c0.3,-0.3,0.7,-0.6,0.8,-0.9L211,580.7l1.5,-1.7c-0.1,-0.3,-0.5,-0.6,-0.8,-0.9l-1.5,1.7l-1.4,-1.7c-0.3,0.3,-0.7,0.6,-0.8,0.9l1.5,1.7l-1.5,1.6c0.1,0.3,0.5,0.6,0.8,0.9Zm0,48l1.5,1.6c0.3,-0.2,0.7,-0.6,0.8,-0.8L211,628.6l1.5,-1.7c-0.1,-0.3,-0.5,-0.6,-0.8,-0.8l-1.5,1.6l-1.4,-1.6c-0.3,0.2,-0.7,0.5,-0.8,0.8l1.5,1.7l-1.5,1.7c0.1,0.2,0.5,0.6,0.8,0.8Zm0,-32l1.5,1.7c0.3,-0.3,0.7,-0.7,0.8,-0.9L211,596.6l1.5,-1.6c-0.1,-0.4,-0.5,-0.6,-0.8,-0.9l-1.5,1.7l-1.4,-1.7c-0.3,0.3,-0.7,0.5,-0.8,0.9l1.5,1.6l-1.5,1.7c0.1,0.2,0.5,0.6,0.8,0.9Zm0,16l1.5,1.6c0.3,-0.2,0.7,-0.6,0.8,-0.8L211,612.6l1.5,-1.6c-0.1,-0.4,-0.5,-0.6,-0.8,-0.9l-1.5,1.7l-1.4,-1.7c-0.3,0.3,-0.7,0.5,-0.8,0.9l1.5,1.6l-1.5,1.7c0.1,0.2,0.5,0.6,0.8,0.8Zm0,-129.6l1.5,1.6c0.3,-0.2,0.7,-0.6,0.8,-0.8L211,483l1.5,-1.6c-0.1,-0.4,-0.5,-0.6,-0.8,-0.9l-1.5,1.7l-1.4,-1.7c-0.3,0.3,-0.7,0.5,-0.8,0.9l1.5,1.6l-1.5,1.7c0.1,0.2,0.5,0.6,0.8,0.8Zm0,16l1.5,1.6c0.3,-0.2,0.7,-0.6,0.8,-0.8L211,499l1.5,-1.6c-0.1,-0.4,-0.5,-0.6,-0.8,-0.9l-1.5,1.6l-1.4,-1.6c-0.3,0.3,-0.7,0.5,-0.8,0.9l1.5,1.6l-1.5,1.7c0.1,0.2,0.5,0.6,0.8,0.8Zm0,47.9l1.5,1.7c0.3,-0.3,0.7,-0.6,0.8,-0.9L211,547l1.5,-1.7c-0.1,-0.3,-0.5,-0.6,-0.8,-0.9l-1.5,1.7l-1.4,-1.7c-0.3,0.3,-0.7,0.6,-0.8,0.9l1.5,1.7l-1.5,1.6c0.1,0.3,0.5,0.6,0.8,0.9Zm0,-31.9l1.5,1.6c0.3,-0.3,0.7,-0.6,0.8,-0.9L211,515l1.5,-1.7c-0.1,-0.3,-0.5,-0.6,-0.8,-0.8l-1.5,1.6l-1.4,-1.6c-0.3,0.2,-0.7,0.5,-0.8,0.8l1.5,1.7l-1.5,1.6c0.1,0.3,0.5,0.6,0.8,0.9Zm0,15.9l1.5,1.7c0.3,-0.3,0.7,-0.6,0.8,-0.9L211,531l1.5,-1.7c-0.1,-0.3,-0.5,-0.6,-0.8,-0.8l-1.5,1.6l-1.4,-1.6c-0.3,0.2,-0.7,0.5,-0.8,0.8l1.5,1.7l-1.5,1.6c0.1,0.3,0.5,0.6,0.8,0.9Zm0,-129.5l1.5,1.6c0.3,-0.3,0.7,-0.6,0.8,-0.9L211,401.4l1.5,-1.7c-0.1,-0.3,-0.5,-0.6,-0.8,-0.8l-1.5,1.6l-1.4,-1.6c-0.3,0.2,-0.7,0.5,-0.8,0.8l1.5,1.7L208,403c0.1,0.3,0.5,0.6,0.8,0.9Zm0,15.9l1.5,1.7c0.3,-0.3,0.7,-0.6,0.8,-0.9L211,417.4l1.5,-1.7c-0.1,-0.3,-0.5,-0.6,-0.8,-0.9l-1.5,1.7l-1.4,-1.7c-0.3,0.3,-0.7,0.6,-0.8,0.9l1.5,1.7L208,419c0.1,0.3,0.5,0.6,0.8,0.9Zm0,48l1.5,1.6c0.3,-0.2,0.7,-0.6,0.8,-0.8L211,465.3l1.5,-1.6c-0.1,-0.4,-0.5,-0.6,-0.8,-0.9l-1.5,1.6l-1.4,-1.6c-0.3,0.3,-0.7,0.5,-0.8,0.9l1.5,1.6L208,467c0.1,0.2,0.5,0.6,0.8,0.8Zm0,-32l1.5,1.7c0.3,-0.3,0.7,-0.6,0.8,-0.9L211,433.3l1.5,-1.6c-0.1,-0.4,-0.5,-0.6,-0.8,-0.9l-1.5,1.7l-1.4,-1.7c-0.3,0.3,-0.7,0.5,-0.8,0.9l1.5,1.6L208,435c0.1,0.3,0.5,0.6,0.8,0.9Zm0,16l1.5,1.6c0.3,-0.2,0.7,-0.6,0.8,-0.8L211,449.3l1.5,-1.6c-0.1,-0.4,-0.5,-0.6,-0.8,-0.9l-1.5,1.7l-1.4,-1.7c-0.3,0.3,-0.7,0.5,-0.8,0.9l1.5,1.6L208,451c0.1,0.2,0.5,0.6,0.8,0.8Zm0,-129.6l1.5,1.7c0.3,-0.3,0.7,-0.7,0.8,-0.9L211,319.7l1.5,-1.6c-0.1,-0.4,-0.5,-0.6,-0.8,-0.9l-1.5,1.7l-1.4,-1.7c-0.3,0.3,-0.7,0.5,-0.8,0.9l1.5,1.6l-1.5,1.7c0.1,0.2,0.5,0.6,0.8,0.9Zm0,16l1.5,1.6c0.3,-0.2,0.7,-0.6,0.8,-0.8L211,335.7l1.5,-1.6c-0.1,-0.4,-0.5,-0.6,-0.8,-0.9l-1.5,1.6l-1.4,-1.6c-0.3,0.3,-0.7,0.5,-0.8,0.9l1.5,1.6l-1.5,1.7c0.1,0.2,0.5,0.6,0.8,0.8Zm0,47.9l1.5,1.7c0.3,-0.3,0.7,-0.6,0.8,-0.9L211,383.7l1.5,-1.7c-0.1,-0.3,-0.5,-0.6,-0.8,-0.9l-1.5,1.7l-1.4,-1.7c-0.3,0.3,-0.7,0.6,-0.8,0.9l1.5,1.7l-1.5,1.6c0.1,0.3,0.5,0.6,0.8,0.9Zm0,-31.9l1.5,1.6c0.3,-0.2,0.7,-0.6,0.8,-0.8L211,351.7l1.5,-1.7c-0.1,-0.3,-0.5,-0.6,-0.8,-0.8l-1.5,1.6l-1.4,-1.6c-0.3,0.2,-0.7,0.5,-0.8,0.8l1.5,1.7l-1.5,1.7c0.1,0.2,0.5,0.6,0.8,0.8Zm0,16l1.5,1.6c0.3,-0.3,0.7,-0.6,0.8,-0.9L211,367.7l1.5,-1.7c-0.1,-0.3,-0.5,-0.6,-0.8,-0.8l-1.5,1.6l-1.4,-1.6c-0.3,0.2,-0.7,0.5,-0.8,0.8l1.5,1.7l-1.5,1.6c0.1,0.3,0.5,0.6,0.8,0.9Zm0,-129.6l1.5,1.6c0.3,-0.3,0.7,-0.6,0.8,-0.9L211,238.1l1.5,-1.7c-0.1,-0.3,-0.5,-0.6,-0.8,-0.8l-1.5,1.6l-1.4,-1.6c-0.3,0.2,-0.7,0.5,-0.8,0.8l1.5,1.7l-1.5,1.6c0.1,0.3,0.5,0.6,0.8,0.9Zm0,15.9l1.5,1.7c0.3,-0.3,0.7,-0.6,0.8,-0.9L211,254.1l1.5,-1.7c-0.1,-0.3,-0.5,-0.6,-0.8,-0.8l-1.5,1.6l-1.4,-1.6c-0.3,0.2,-0.7,0.5,-0.8,0.8l1.5,1.7l-1.5,1.6c0.1,0.3,0.5,0.6,0.8,0.9Zm0,48l1.5,1.6c0.3,-0.2,0.7,-0.6,0.8,-0.8L211,302l1.5,-1.6c-0.1,-0.4,-0.5,-0.6,-0.8,-0.9l-1.5,1.6l-1.4,-1.6c-0.3,0.3,-0.7,0.5,-0.8,0.9l1.5,1.6l-1.5,1.7c0.1,0.2,0.5,0.6,0.8,0.8Zm0,-32l1.5,1.7c0.3,-0.3,0.7,-0.6,0.8,-0.9L211,270.1l1.5,-1.7c-0.1,-0.3,-0.5,-0.6,-0.8,-0.9l-1.5,1.7l-1.4,-1.7c-0.3,0.3,-0.7,0.6,-0.8,0.9l1.5,1.7l-1.5,1.6c0.1,0.3,0.5,0.6,0.8,0.9Zm0,16l1.5,1.7c0.3,-0.3,0.7,-0.7,0.8,-0.9L211,286l1.5,-1.6c-0.1,-0.4,-0.5,-0.6,-0.8,-0.9l-1.5,1.7l-1.4,-1.7c-0.3,0.3,-0.7,0.5,-0.8,0.9l1.5,1.6l-1.5,1.7c0.1,0.2,0.5,0.6,0.8,0.9Zm0,-129.6l1.5,1.7c0.3,-0.3,0.7,-0.6,0.8,-0.9L211,156.4l1.5,-1.6c-0.1,-0.4,-0.5,-0.6,-0.8,-0.9l-1.5,1.7l-1.4,-1.7c-0.3,0.3,-0.7,0.5,-0.8,0.9l1.5,1.6l-1.5,1.7c0.1,0.3,0.5,0.6,0.8,0.9Zm0,16l1.5,1.6c0.3,-0.2,0.7,-0.6,0.8,-0.8L211,172.4l1.5,-1.6c-0.1,-0.4,-0.5,-0.6,-0.8,-0.9l-1.5,1.7l-1.4,-1.7c-0.3,0.3,-0.7,0.5,-0.8,0.9l1.5,1.6l-1.5,1.7c0.1,0.2,0.5,0.6,0.8,0.8Zm0,47.9l1.5,1.7c0.3,-0.3,0.7,-0.6,0.8,-0.9L211,220.4l1.5,-1.7c-0.1,-0.3,-0.5,-0.6,-0.8,-0.8l-1.5,1.6l-1.4,-1.6c-0.3,0.2,-0.7,0.5,-0.8,0.8l1.5,1.7L208,222c0.1,0.3,0.5,0.6,0.8,0.9Zm0,-31.9l1.5,1.6c0.3,-0.2,0.7,-0.6,0.8,-0.8L211,188.4l1.5,-1.6c-0.1,-0.4,-0.5,-0.6,-0.8,-0.9l-1.5,1.6l-1.4,-1.6c-0.3,0.3,-0.7,0.5,-0.8,0.9l1.5,1.6l-1.5,1.7c0.1,0.2,0.5,0.6,0.8,0.8Zm0,16l1.5,1.6c0.3,-0.3,0.7,-0.6,0.8,-0.9L211,204.4l1.5,-1.7c-0.1,-0.3,-0.5,-0.6,-0.8,-0.8l-1.5,1.6l-1.4,-1.6c-0.3,0.2,-0.7,0.5,-0.8,0.8l1.5,1.7L208,206c0.1,0.3,0.5,0.6,0.8,0.9Zm0,-129.6l1.5,1.6c0.3,-0.2,0.7,-0.6,0.8,-0.8L211,74.8l1.5,-1.7c-0.1,-0.3,-0.5,-0.6,-0.8,-0.8l-1.5,1.6l-1.4,-1.6c-0.3,0.2,-0.7,0.5,-0.8,0.8l1.5,1.7L208,76.5c0.1,0.2,0.5,0.6,0.8,0.8Zm0,16l1.5,1.6c0.3,-0.3,0.7,-0.6,0.8,-0.9L211,90.8l1.5,-1.7c-0.1,-0.3,-0.5,-0.6,-0.8,-0.8l-1.5,1.6l-1.4,-1.6c-0.3,0.2,-0.7,0.5,-0.8,0.8l1.5,1.7L208,92.4c0.1,0.3,0.5,0.6,0.8,0.9Zm0,47.9l1.5,1.6c0.3,-0.2,0.7,-0.6,0.8,-0.8L211,138.7l1.5,-1.6c-0.1,-0.4,-0.5,-0.6,-0.8,-0.9l-1.5,1.7l-1.4,-1.7c-0.3,0.3,-0.7,0.5,-0.8,0.9l1.5,1.6l-1.5,1.7c0.1,0.2,0.5,0.6,0.8,0.8Zm0,-32l1.5,1.7c0.3,-0.3,0.7,-0.6,0.8,-0.9L211,106.8l1.5,-1.7c-0.1,-0.3,-0.5,-0.6,-0.8,-0.9l-1.5,1.7l-1.4,-1.7c-0.3,0.3,-0.7,0.6,-0.8,0.9l1.5,1.7l-1.5,1.6c0.1,0.3,0.5,0.6,0.8,0.9Zm0,16l1.5,1.7c0.3,-0.3,0.7,-0.6,0.8,-0.9L211,122.7l1.5,-1.6c-0.1,-0.4,-0.5,-0.6,-0.8,-0.9l-1.5,1.7l-1.4,-1.7c-0.3,0.3,-0.7,0.5,-0.8,0.9l1.5,1.6l-1.5,1.7c0.1,0.3,0.5,0.6,0.8,0.9Zm0,-126l1.5,1.6c0.3,-0.2,0.7,-0.6,0.8,-0.8L211,-3.3l1.5,-1.6c-0.1,-0.4,-0.5,-0.6,-0.8,-0.9l-1.5,1.7l-1.4,-1.7c-0.3,0.3,-0.7,0.5,-0.8,0.9l1.5,1.6L208,-1.6c0.1,0.2,0.5,0.6,0.8,0.8Zm0,15.9l1.5,1.6c0.3,-0.2,0.7,-0.6,0.8,-0.8L211,12.6L212.5,11c-0.1,-0.4,-0.5,-0.6,-0.8,-0.9l-1.5,1.6l-1.4,-1.6c-0.3,0.3,-0.7,0.5,-0.8,0.9l1.5,1.6L208,14.3c0.1,0.2,0.5,0.6,0.8,0.8Zm0,47.9l1.5,1.7c0.3,-0.3,0.7,-0.6,0.8,-0.9L211,60.6l1.5,-1.7C212.4,58.6,212,58.3,211.7,58l-1.5,1.7L208.8,58c-0.3,0.3,-0.7,0.6,-0.8,0.9l1.5,1.7L208,62.2c0.1,0.3,0.5,0.6,0.8,0.9Zm0,-31.9l1.5,1.6c0.3,-0.2,0.7,-0.6,0.8,-0.9L211,28.6l1.5,-1.7c-0.1,-0.3,-0.5,-0.6,-0.8,-0.8l-1.5,1.6l-1.4,-1.6c-0.3,0.2,-0.7,0.5,-0.8,0.8l1.5,1.7L208,30.2c0.1,0.3,0.5,0.7,0.8,0.9Zm0,15.9l1.5,1.7c0.3,-0.3,0.7,-0.6,0.8,-0.9L211,44.6l1.5,-1.7c-0.1,-0.3,-0.5,-0.6,-0.8,-0.8l-1.5,1.6l-1.4,-1.6c-0.3,0.2,-0.7,0.5,-0.8,0.8l1.5,1.7L208,46.2c0.1,0.3,0.5,0.6,0.8,0.9Z" class="g3_8" />
</g>
<path d="M281.8,30.7c-3,-0.4,-6.1,0,-9,0.3c-6.6,0.6,-12.4,5.6,-13.8,12.7c-0.2,1.6,-0.4,3.3,-0.7,4.7c0.2,4.5,1.2,8.4,3.7,11.8c3.4,4.9,8,8,13.7,9.3c5.6,1.4,10.4,-0.7,14.2,-4.4c2.8,-2.8,4.8,-6.3,5.3,-10.4c0.2,-0.8,0.3,-1.7,0.5,-2.4c1.1,-4.4,0,-8.6,-1.9,-12.4c-2.4,-4.9,-6.3,-8.3,-12,-9.2Z" class="g11_8" />
<path d="M62.8,960.1c0,0,-4,0,-4,4l0,20.6c0,0,0,4,4,4l93,0c0,0,4,0,4,-4l0,-20.6c0,0,0,-4,-4,-4Z" class="g12_8" />
<path d="M62.8,960.1c0,0,-4,0,-4,4l0,20.6c0,0,0,4,4,4l93,0c0,0,4,0,4,-4l0,-20.6c0,0,0,-4,-4,-4l-93,0Z" class="g13_8" />
<path d="M64.3,962.4l-0.6,-4.5m-0.9,5l-2,-4.2m1.1,4.9l-3.7,-2.7m3.2,3.8L56.8,964m4.5,2.6l-4.6,0m4.6,2.3l-4.6,0m4.6,2.3l-4.6,0m4.6,2.3l-4.6,0m4.6,2.3l-4.6,0m4.6,2.3l-4.6,0m4.6,2.4l-4.6,0m4.6,2.3l-4.6,0m4.7,1.4l-4.3,1.6m5,-0.3l-3.4,3m4.5,-2.3l-1.8,4.2m3.2,-4l0,4.6m2.3,-4.6l0,4.6m2.3,-4.6l0,4.6m2.3,-4.6l0,4.6m2.3,-4.6l0,4.6m2.3,-4.6l0,4.6m2.3,-4.6l0,4.6m2.3,-4.6l0,4.6M83,986.4l0,4.6m2.3,-4.6l0,4.6m2.3,-4.6l0,4.6m2.3,-4.6l0,4.6m2.3,-4.6l0,4.6m2.3,-4.6l0,4.6m2.4,-4.6l0,4.6m2.3,-4.6l0,4.6m2.3,-4.6l0,4.6m2.3,-4.6l0,4.6m2.3,-4.6l0,4.6m2.3,-4.6l0,4.6m2.3,-4.6l0,4.6m2.3,-4.6l0,4.6m2.3,-4.6l0,4.6m2.3,-4.6l0,4.6m2.3,-4.6l0,4.6m2.3,-4.6l0,4.6m2.3,-4.6l0,4.6m2.3,-4.6l0,4.6m2.3,-4.6l0,4.6m2.4,-4.6l0,4.6m2.3,-4.6l0,4.6m2.3,-4.6l0,4.6m2.3,-4.6l0,4.6m2.3,-4.6l0,4.6m2.3,-4.6l0,4.6m2.3,-4.6l0,4.6m2.3,-4.6l0,4.6m2.3,-4.6l0,4.6m2.3,-4.6l0,4.6m2.2,-4.6l0.2,4.6m1.2,-4.9l1.9,4.2M157,985.4l3.3,3.1m-2.8,-4.2l4.5,1.2m-4.3,-2.9l4.6,0m-4.6,-2.3l4.6,0M157.7,978l4.6,0m-4.6,-2.3l4.6,0m-4.6,-2.3l4.6,0m-4.6,-2.3l4.6,0m-4.6,-2.3l4.6,0m-4.6,-2.3l4.6,0m-4.7,-1.7l4.4,-1.2m-5.1,-0.1l3.8,-2.7m-4.5,2l1.7,-4.2m-3.2,3.8l0.2,-4.5m-2.4,4.5l0,-4.5m-2.3,4.5l0,-4.5m-2.3,4.5l0,-4.5m-2.3,4.5l0,-4.5m-2.3,4.5l0,-4.5m-2.3,4.5l0,-4.5m-2.3,4.5l0,-4.5m-2.3,4.5l0,-4.5m-2.3,4.5l0,-4.5m-2.3,4.5l0,-4.5m-2.4,4.5l0,-4.5m-2.3,4.5l0,-4.5m-2.3,4.5l0,-4.5m-2.3,4.5l0,-4.5m-2.3,4.5l0,-4.5m-2.3,4.5l0,-4.5m-2.3,4.5l0,-4.5m-2.3,4.5l0,-4.5m-2.3,4.5l0,-4.5m-2.3,4.5l0,-4.5m-2.3,4.5l0,-4.5m-2.3,4.5l0,-4.5m-2.3,4.5l0,-4.5m-2.3,4.5l0,-4.5m-2.3,4.5l0,-4.5m-2.3,4.5l0,-4.5m-2.4,4.5l0,-4.5m-2.3,4.5l0,-4.5m-2.3,4.5l0,-4.5m-2.3,4.5l0,-4.5m-2.3,4.5l0,-4.5M81,962.4l0,-4.5m-2.3,4.5l0,-4.5m-2.3,4.5l0,-4.5m-2.3,4.5l0,-4.5m-2.3,4.5l0,-4.5m-2.3,4.5l0,-4.5m-2.3,4.5l0,-4.5m-2.3,4.5l0,-4.5" class="g14_8" />

<image x="68" y="856" width="77" height="71" xlink:href="https://majemastoragelive.blob.core.windows.net/learn-english-test/ebook/Grade3/wildanimals/page6/img/20.png" />
<image x="65" y="727" width="85" height="85" xlink:href="https://majemastoragelive.blob.core.windows.net/learn-english-test/ebook/Grade3/wildanimals/page6/img/21.png" />

<use x="0" y="-15" xlink:href="#button"/>
<use x="0" y="-83" xlink:href="#button"/>
</svg>