<?xml version="1.0" encoding="UTF-8" standalone="no"?>
<!DOCTYPE svg PUBLIC "-//W3C//DTD SVG 1.1//EN"
"http://www.w3.org/Graphics/SVG/1.1/DTD/svg11.dtd">
<svg version="1.1" xmlns="http://www.w3.org/2000/svg" xmlns:xlink="http://www.w3.org/1999/xlink">
    <defs>
        <clipPath id="c0_4">
            <path d="M0.5,1190.5L0.5,0.5l1160,0l0,1190Z" />
        </clipPath>
        <style type="text/css">
        <![CDATA[ .btn_bg {
            fill: #00A1BE;
        }
        
        .btn_bortercolor {
            fill: none;
            stroke: #6DC6DA;
            stroke-width: 5;
            stroke-linecap: butt;
            stroke-linejoin: miter;
            stroke-miterlimit: 4;
        }
        
        .btn_border {
            fill: none;
            stroke: #FFFFFF;
            stroke-width: 1;
            stroke-linecap: butt;
            stroke-linejoin: miter;
            stroke-miterlimit: 4;
        }
        
        .g6_4 {
            fill: none;
            stroke: #FFFFFF;
            stroke-width: 7;
            stroke-linecap: round;
            stroke-linejoin: round;
            stroke-miterlimit: 4;
        }
        
        .g8_4 {
            fill: #F5AFCE;
        }
        
        .g1_4 {
            fill: #FFFFFF;
        }
        
        .g10_4 {
            fill: #F8BFD8;
        }
        
        .g9_4 {
            fill: #00BEFF;
        }
        
        .g2_4 {
            fill: none;
            stroke: #F5AFCE;
            stroke-width: 11;
            stroke-linecap: butt;
            stroke-linejoin: miter;
            stroke-miterlimit: 4;
        }
        
        .g12_4 {
            fill: none;
            stroke: #62BDCE;
            stroke-width: 5;
            stroke-linecap: butt;
            stroke-linejoin: miter;
            stroke-miterlimit: 4;
        }
        
        .g13_4 {
            fill: none;
            stroke: #FFFFFF;
            stroke-width: 1;
            stroke-linecap: butt;
            stroke-linejoin: miter;
            stroke-miterlimit: 4;
        }
        
        .g5_4 {
            fill: none;
            stroke: #FFFFFF;
            stroke-width: 7;
            stroke-linecap: round;
            stroke-linejoin: round;
            stroke-miterlimit: 4;
            stroke-dasharray: 1, 13;
        }
        
        .g3_4 {
            fill: none;
            stroke: #FFFFFF;
            stroke-width: 7;
            stroke-linecap: round;
            stroke-linejoin: round;
            stroke-miterlimit: 4;
            stroke-dasharray: 1, 11;
        }
        
        .g11_4 {
            fill: #0099B4;
        }
        
        .g7_4 {
            fill: none;
            stroke: #6A6864;
            stroke-width: 1;
            stroke-linecap: butt;
            stroke-linejoin: miter;
            stroke-miterlimit: 4;
        }
        
        .g4_4 {
            fill: none;
            stroke: #FFFFFF;
            stroke-width: 7;
            stroke-linecap: round;
            stroke-linejoin: round;
            stroke-miterlimit: 4;
            stroke-dasharray: 1, 12;
        }
        
        ]]>
        </style>
    </defs>
    <g id="button" transform="translate(47,298.5)">
        <path d="M7.4,2.3c0,0,-4.7,0,-4.7,4l0,20.6c0,0,0,3.9,4.7,3.9l110.3,0c0,0,4.7,0,4.7,-3.9l0,-20.6c0,0,0,-4,-4.7,-4Z" class="btn_bg" />
        <path d="M7.4,2.3c0,0,-4.7,0,-4.7,4l0,20.6c0,0,0,3.9,4.7,3.9l110.3,0c0,0,4.7,0,4.7,-3.9l0,-20.6c0,0,0,-4,-4.7,-4l-110.3,0Z" class="btn_bortercolor" />
        <path d="M9.2,4.6L8.6,0m-1.2,5l-2.3,-4.1m1.3,4.8L2,3m3.8,3.8l-5.4,-0.7m5.2,2.7l-5.4,0m5.4,2.3l-5.4,0m5.4,2.3l-5.4,0m5.4,2.3l-5.4,0m5.4,2.3l-5.4,0m5.4,2.3l-5.4,0m5.4,2.3l-5.4,0m5.4,2.3l-5.4,0m5.6,1.5L0.7,28m6,-0.4l-4.1,3.1m5.3,-2.4l-2.1,4.3m3.8,-4.1l0,4.6m2.7,-4.6l0,4.6" class="btn_border" />
        <path d="M15,28.5l0,4.6m2.8,-4.6l0,4.6m2.7,-4.6l0,4.6m2.7,-4.6l0,4.6" class="btn_border" />
        <path d="M26,28.5l0,4.6m2.7,-4.6l0,4.6m2.7,-4.6l0,4.6m2.8,-4.6l0,4.6m2.7,-4.6l0,4.6m2.7,-4.6l0,4.6m2.8,-4.6l0,4.6m2.7,-4.6l0,4.6m2.7,-4.6l0,4.6m2.8,-4.6l0,4.6m2.7,-4.6l0,4.6m2.7,-4.6l0,4.6m2.8,-4.6l0,4.6m2.7,-4.6l0,4.6m2.7,-4.6l0,4.6m2.8,-4.6l0,4.6m2.7,-4.6l0,4.6m2.7,-4.6l0,4.6m2.8,-4.6l0,4.6m2.7,-4.6l0,4.6m2.7,-4.6l0,4.6m2.8,-4.6l0,4.6m2.7,-4.6l0,4.6m2.7,-4.6l0,4.6m2.7,-4.6l0,4.6m2.8,-4.6l0,4.6m2.7,-4.6l0,4.6m2.7,-4.6l0,4.6m2.8,-4.6l0,4.6m2.7,-4.6l0,4.6m2.7,-4.6l0,4.6m2.8,-4.6l0,4.6m2.7,-4.6l0,4.6m2.6,-4.6l0.3,4.6m1.4,-4.8l2.3,4.1m-1,-4.9l4,3.1m-3.3,-4.2l5.3,1.3m-5.1,-2.9l5.4,0m-5.4,-2.3l5.4,0m-5.4,-2.3l5.4,0m-5.4,-2.3l5.4,0m-5.4,-2.3l5.4,0m-5.4,-2.4l5.4,0m-5.4,-2.3l5.4,0m-5.4,-2.3l5.4,0" class="btn_border" />
        <path d="M119.8,7l5.2,-1.3m-6,-0.1l4.4,-2.7m-5.3,2l2.1,-4.2m-3.8,3.9l0.2,-4.6m-2.8,4.6l0,-4.6m-2.8,4.6l0,-4.6m-2.7,4.6l0,-4.6m-2.7,4.6l0,-4.6m-2.8,4.6l0,-4.6m-2.7,4.6l0,-4.6m-2.7,4.6l0,-4.6m-2.8,4.6l0,-4.6m-2.7,4.6l0,-4.6m-2.7,4.6l0,-4.6m-2.8,4.6l0,-4.6m-2.7,4.6l0,-4.6m-2.7,4.6l0,-4.6m-2.8,4.6l0,-4.6m-2.7,4.6l0,-4.6m-2.7,4.6l0,-4.6m-2.8,4.6l0,-4.6m-2.7,4.6l0,-4.6m-2.7,4.6l0,-4.6m-2.8,4.6l0,-4.6m-2.7,4.6l0,-4.6m-2.7,4.6l0,-4.6m-2.8,4.6l0,-4.6m-2.7,4.6l0,-4.6m-2.7,4.6l0,-4.6m-2.8,4.6l0,-4.6m-2.7,4.6l0,-4.6" class="btn_border" />
        <path d="M40,4.6L40,0m-2.8,4.6l0,-4.6m-2.7,4.6l0,-4.6m-2.7,4.6l0,-4.6m-2.7,4.6l0,-4.6m-2.8,4.6l0,-4.6m-2.7,4.6l0,-4.6m-2.7,4.6l0,-4.6m-2.8,4.6l0,-4.6m-2.7,4.6l0,-4.6m-2.7,4.6l0,-4.6m-2.8,4.6l0,-4.6" class="btn_border" />
    </g>
    <path d="M291.3,160c0,0,-21.6,0,-21.6,21.6l0,260.7c0,0,0,21.7,21.6,21.7l807.2,0c0,0,21.7,0,21.7,-21.7l0,-260.7c0,0,0,-21.6,-21.7,-21.6Z" class="g1_4" />
    <path d="M291.3,160c0,0,-21.6,0,-21.6,21.6l0,260.7c0,0,0,21.7,21.6,21.7l807.2,0c0,0,21.7,0,21.7,-21.7l0,-260.7c0,0,0,-21.6,-21.7,-21.6l-807.2,0Z" class="g2_4" />
    <path d="M287,591.5c0,0,-21.6,0,-21.6,21.7l0,433.1c0,0,0,21.7,21.6,21.7l807.2,0c0,0,21.7,0,21.7,-21.7l0,-433.1c0,0,0,-21.7,-21.7,-21.7Z" class="g1_4" />
    <path d="M287,591.5c0,0,-21.6,0,-21.6,21.7l0,433.1c0,0,0,21.7,21.6,21.7l807.2,0c0,0,21.7,0,21.7,-21.7l0,-433.1c0,0,0,-21.7,-21.7,-21.7l-807.2,0Z" class="g2_4" />
    <path d="M280,163.1c-4.2,2.2,-8.1,6,-9.5,12.4" class="g3_4" />
    <path d="M269.5,192.5l0,245" class="g4_4" />
    <path d="M272.6,454.3c2.2,4.2,6.1,8.1,12.4,9.5" class="g3_4" />
    <path d="M302.5,464.5l791,0" class="g5_4" />
    <path d="M1110.5,461.7c4.2,-2.2,8,-6.1,9.4,-12.4" class="g3_4" />
    <path d="M1120.5,431.5l0,-245" class="g4_4" />
    <path d="M1117.9,170.5c-2.2,-4.3,-6.1,-8.1,-12.4,-9.5" class="g3_4" />
    <path d="M1087.5,160.5l-791,0" class="g5_4" />
    <path d="M269.5,180.5l0,0m0,263l0,0m21,21l0,0m810,0l0,0m20,-21l0,0m0,-263l0,0m-20,-20l0,0m-810,0l0,0" class="g6_4" />
    <path d="M275.8,594.1c-4.3,2.2,-8.1,6.1,-9.5,12.4" class="g3_4" />
    <path d="M265.5,623.5l0,418" class="g5_4" />
    <path d="M268.3,1057.5c2.3,4.2,6.1,8.1,12.5,9.5" class="g3_4" />
    <path d="M298.5,1067.5l791,0" class="g5_4" />
    <path d="M1106.2,1064.9c4.2,-2.2,8.1,-6.1,9.5,-12.4" class="g3_4" />
    <path d="M1116.5,1035.5l0,-418" class="g5_4" />
    <path d="M1113.6,601.5c-2.2,-4.2,-6.1,-8.1,-12.4,-9.5" class="g3_4" />
    <path d="M1083.5,591.5l-791,0" class="g5_4" />
    <path d="M265.5,611.5l0,0m0,436l0,0m21,20l0,0m809,0l0,0m21,-20l0,0m0,-436l0,0m-21,-20l0,0m-809,0l0,0" class="g6_4" />
    <image x="261" y="85" width="51" height="50" xlink:href="https://majemastoragelive.blob.core.windows.net/learn-english-test/ebook/Grade3/images/1.png" />
    <image x="314" y="82" width="53" height="53" xlink:href="https://majemastoragelive.blob.core.windows.net/learn-english-test/ebook/Grade3/images/4.png" />
    <image x="363" y="82" width="54" height="53" xlink:href="https://majemastoragelive.blob.core.windows.net/learn-english-test/ebook/Grade3/images/L7.png" />
    <image x="261" y="514" width="51" height="50" xlink:href="https://majemastoragelive.blob.core.windows.net/learn-english-test/ebook/Grade3/images/1.png" />
    <image x="314" y="513" width="53" height="53" xlink:href="https://majemastoragelive.blob.core.windows.net/learn-english-test/ebook/Grade3/images/4.png" />
    <image x="463" y="609" width="467" height="442" xlink:href="https://majemastoragelive.blob.core.windows.net/learn-english-test/ebook/Grade3/Goodtoknow/page2/img/6.png" />
    <path d="M316.1,363c0,0,-15.2,0,-15.2,18.1l0,25.4c0,0,0,0.8,0.1,1.9c0.2,4.5,-16,7.5,-14.8,10.3c1,2.2,16.3,-1.3,18.4,0.4c2.1,1.6,7.8,5.5,11.5,5.5l169.1,0c0,0,15.3,0,15.3,-18.1l0,-25.4c0,0,0,-18.1,-15.3,-18.1Z" class="g1_4" />
    <path d="M316.1,363c0,0,-15.2,0,-15.2,18.1l0,25.4c0,0,0,0.8,0.1,1.9c0.2,4.5,-16,7.5,-14.8,10.3c1,2.2,16.3,-1.3,18.4,0.4c2.1,1.6,7.8,5.5,11.5,5.5l169.1,0c0,0,15.3,0,15.3,-18.1l0,-25.4c0,0,0,-18.1,-15.3,-18.1l-169.1,0Z" class="g7_4" />
    <path d="M760.7,363.3c0,0,17.5,0,17.5,18l0,25.3c0,0,-0.1,0.7,-0.1,1.9c-0.3,4.5,18.2,7.4,16.8,10.2c-1.1,2.2,-18.5,-1.2,-21,0.4c-2.4,1.6,-8.9,5.5,-13.2,5.5l-192.9,0c0,0,-17.5,0,-17.5,-18l0,-25.3c0,0,0,-18,17.5,-18Z" class="g1_4" />
    <path d="M760.7,363.3c0,0,17.5,0,17.5,18l0,25.3c0,0,-0.1,0.7,-0.1,1.9c-0.3,4.5,18.2,7.4,16.8,10.2c-1.1,2.2,-18.5,-1.2,-21,0.4c-2.4,1.6,-8.9,5.5,-13.2,5.5l-192.9,0c0,0,-17.5,0,-17.5,-18l0,-25.3c0,0,0,-18,17.5,-18l192.9,0Z" class="g7_4" />
    <path d="M866.4,363.2c0,0,-19.3,0,-19.3,18l0,25.4c0,0,0.1,0.7,0.2,1.9c0.3,4.5,-20.2,7.4,-18.7,10.2c1.3,2.2,20.5,-1.2,23.2,0.4c2.7,1.6,9.9,5.5,14.6,5.5l213.7,0c0,0,19.3,0,19.3,-18l0,-25.4c0,0,0,-18,-19.3,-18Z" class="g1_4" />
    <path d="M866.4,363.2c0,0,-19.3,0,-19.3,18l0,25.4c0,0,0.1,0.7,0.2,1.9c0.3,4.5,-20.2,7.4,-18.7,10.2c1.3,2.2,20.5,-1.2,23.2,0.4c2.7,1.6,9.9,5.5,14.6,5.5l213.7,0c0,0,19.3,0,19.3,-18l0,-25.4c0,0,0,-18,-19.3,-18l-213.7,0Z" class="g7_4" />
    <image x="417" y="198" width="82" height="97" xlink:href="https://majemastoragelive.blob.core.windows.net/learn-english-test/ebook/Grade3/Goodtoknow/page2/img/7.png" />
    <image x="541" y="196" width="88" height="101" xlink:href="https://majemastoragelive.blob.core.windows.net/learn-english-test/ebook/Grade3/Goodtoknow/page2/img/8.png" />
    <image x="660" y="199" width="96" height="107" xlink:href="https://majemastoragelive.blob.core.windows.net/learn-english-test/ebook/Grade3/Goodtoknow/page2/img/9.png" />
    <image x="293" y="195" width="111" height="105" xlink:href="https://majemastoragelive.blob.core.windows.net/learn-english-test/ebook/Grade3/Goodtoknow/page2/img/10.png" />
    <image x="771" y="195" width="96" height="115" xlink:href="https://majemastoragelive.blob.core.windows.net/learn-english-test/ebook/Grade3/Goodtoknow/page2/img/11.png" />
    <image x="882" y="193" width="93" height="108" xlink:href="https://majemastoragelive.blob.core.windows.net/learn-english-test/ebook/Grade3/Goodtoknow/page2/img/12.png" />
    <image x="994" y="199" width="106" height="107" xlink:href="https://majemastoragelive.blob.core.windows.net/learn-english-test/ebook/Grade3/Goodtoknow/page2/img/13.png" />
    <g clip-path="url(#c0_4)">
        <path d="M255.1,43l-1.5,1.5c0.2,0.3,0.5,0.7,0.8,0.8l1.5,-1.5l1.5,1.5c0.3,-0.1,0.6,-0.5,0.8,-0.8L256.7,43l1.5,-1.4c-0.2,-0.4,-0.5,-0.7,-0.8,-0.8l-1.5,1.5l-1.5,-1.5c-0.3,0.1,-0.6,0.4,-0.8,0.8Zm-14.8,0l-1.5,1.5c0.2,0.3,0.6,0.7,0.8,0.8l1.5,-1.5l1.5,1.5c0.4,-0.1,0.6,-0.5,0.9,-0.8L241.9,43l1.6,-1.4c-0.3,-0.4,-0.5,-0.7,-0.9,-0.8l-1.5,1.5l-1.5,-1.5c-0.2,0.1,-0.6,0.4,-0.8,0.8ZM196,43l-1.5,1.5c0.3,0.3,0.6,0.7,0.8,0.8l1.5,-1.5l1.6,1.5c0.3,-0.1,0.5,-0.5,0.8,-0.8L197.7,43l1.5,-1.4c-0.3,-0.4,-0.5,-0.7,-0.8,-0.8l-1.6,1.5l-1.5,-1.5c-0.2,0.1,-0.5,0.4,-0.8,0.8Zm29.6,0L224,44.5c0.3,0.3,0.6,0.7,0.8,0.8l1.6,-1.5l1.5,1.5c0.3,-0.1,0.6,-0.5,0.8,-0.8L227.2,43l1.5,-1.4c-0.2,-0.4,-0.5,-0.7,-0.8,-0.8l-1.5,1.5l-1.6,-1.5c-0.2,0.1,-0.5,0.4,-0.8,0.8Zm-14.8,0l-1.5,1.5c0.2,0.3,0.5,0.7,0.8,0.8l1.5,-1.5l1.5,1.5c0.4,-0.1,0.6,-0.5,0.8,-0.8L212.4,43l1.5,-1.4c-0.2,-0.4,-0.4,-0.7,-0.8,-0.8l-1.5,1.5l-1.5,-1.5c-0.3,0.1,-0.6,0.4,-0.8,0.8Zm119.7,0l-1.6,1.5c0.3,0.3,0.6,0.7,0.9,0.8l1.5,-1.5l1.5,1.5c0.3,-0.1,0.6,-0.5,0.8,-0.8L332.1,43l1.5,-1.4c-0.2,-0.4,-0.5,-0.7,-0.8,-0.8l-1.5,1.5l-1.5,-1.5c-0.3,0.1,-0.6,0.4,-0.9,0.8Zm-14.8,0l-1.5,1.5c0.2,0.3,0.6,0.7,0.8,0.8l1.5,-1.5l1.5,1.5c0.4,-0.1,0.6,-0.5,0.8,-0.8L317.3,43l1.5,-1.4c-0.2,-0.4,-0.4,-0.7,-0.8,-0.8l-1.5,1.5L315,40.8c-0.2,0.1,-0.6,0.4,-0.8,0.8Zm-44.3,0l-1.5,1.5c0.3,0.3,0.6,0.7,0.8,0.8l1.5,-1.5l1.6,1.5c0.3,-0.1,0.5,-0.5,0.8,-0.8L273,43l1.6,-1.4c-0.3,-0.4,-0.5,-0.7,-0.8,-0.8l-1.6,1.5l-1.5,-1.5c-0.2,0.1,-0.5,0.4,-0.8,0.8ZM301,43l-1.6,1.5c0.3,0.3,0.6,0.7,0.8,0.8l1.6,-1.5l1.5,1.5c0.3,-0.1,0.5,-0.5,0.8,-0.8L302.6,43l1.5,-1.4c-0.3,-0.4,-0.5,-0.7,-0.8,-0.8l-1.5,1.5l-1.6,-1.5c-0.2,0.1,-0.5,0.4,-0.8,0.8Zm-14.8,0l-1.5,1.5c0.2,0.3,0.5,0.7,0.8,0.8L287,43.8l1.5,1.5c0.3,-0.1,0.6,-0.5,0.8,-0.8L287.8,43l1.5,-1.4c-0.2,-0.4,-0.5,-0.7,-0.8,-0.8L287,42.3l-1.5,-1.5c-0.3,0.1,-0.6,0.4,-0.8,0.8Zm119.7,0l-1.6,1.5c0.3,0.3,0.6,0.7,0.8,0.8l1.6,-1.5l1.5,1.5c0.3,-0.1,0.6,-0.5,0.8,-0.8L407.5,43L409,41.6c-0.2,-0.4,-0.5,-0.7,-0.8,-0.8l-1.5,1.5l-1.6,-1.5c-0.2,0.1,-0.5,0.4,-0.8,0.8Zm-14.8,0l-1.5,1.5c0.2,0.3,0.5,0.7,0.8,0.8l1.5,-1.5l1.5,1.5c0.4,-0.1,0.6,-0.5,0.8,-0.8L392.7,43l1.5,-1.4c-0.2,-0.4,-0.4,-0.7,-0.8,-0.8l-1.5,1.5l-1.5,-1.5c-0.3,0.1,-0.6,0.4,-0.8,0.8Zm-44.3,0l-1.5,1.5c0.3,0.3,0.6,0.7,0.8,0.8l1.5,-1.5l1.6,1.5c0.3,-0.1,0.5,-0.5,0.8,-0.8L348.4,43L350,41.6c-0.3,-0.4,-0.5,-0.7,-0.8,-0.8l-1.6,1.5l-1.5,-1.5c-0.2,0.1,-0.5,0.4,-0.8,0.8Zm29.6,0l-1.6,1.5c0.3,0.3,0.6,0.7,0.8,0.8l1.6,-1.5l1.5,1.5c0.3,-0.1,0.5,-0.5,0.8,-0.8L378,43l1.5,-1.4c-0.3,-0.4,-0.5,-0.7,-0.8,-0.8l-1.5,1.5l-1.6,-1.5c-0.2,0.1,-0.5,0.4,-0.8,0.8Zm-14.8,0l-1.5,1.5c0.2,0.3,0.5,0.7,0.8,0.8l1.5,-1.5l1.5,1.5c0.3,-0.1,0.6,-0.5,0.8,-0.8L363.2,43l1.5,-1.4c-0.2,-0.4,-0.5,-0.7,-0.8,-0.8l-1.5,1.5l-1.5,-1.5c-0.3,0.1,-0.6,0.4,-0.8,0.8Zm119.7,0l-1.6,1.5c0.3,0.3,0.6,0.7,0.8,0.8l1.6,-1.5l1.5,1.5c0.3,-0.1,0.5,-0.5,0.8,-0.8L482.9,43l1.5,-1.4c-0.3,-0.4,-0.5,-0.7,-0.8,-0.8l-1.5,1.5l-1.6,-1.5c-0.2,0.1,-0.5,0.4,-0.8,0.8Zm-14.8,0L465,44.5c0.2,0.3,0.5,0.7,0.8,0.8l1.5,-1.5l1.5,1.5c0.3,-0.1,0.6,-0.5,0.8,-0.8L468.1,43l1.5,-1.4c-0.2,-0.4,-0.5,-0.7,-0.8,-0.8l-1.5,1.5l-1.5,-1.5c-0.3,0.1,-0.6,0.4,-0.8,0.8Zm-44.3,0l-1.5,1.5c0.2,0.3,0.6,0.7,0.8,0.8L423,43.8l1.6,1.5c0.3,-0.1,0.5,-0.5,0.8,-0.8L423.8,43l1.6,-1.4c-0.3,-0.4,-0.5,-0.7,-0.8,-0.8L423,42.3l-1.5,-1.5c-0.2,0.1,-0.6,0.4,-0.8,0.8Zm29.5,0l-1.5,1.5c0.3,0.3,0.6,0.7,0.8,0.8l1.5,-1.5l1.6,1.5c0.3,-0.1,0.5,-0.5,0.8,-0.8L453.3,43l1.6,-1.4c-0.3,-0.4,-0.5,-0.7,-0.8,-0.8l-1.6,1.5L451,40.8c-0.2,0.1,-0.5,0.4,-0.8,0.8ZM437,43l-1.5,1.5c0.2,0.3,0.5,0.7,0.8,0.8l1.5,-1.5l1.5,1.5c0.3,-0.1,0.6,-0.5,0.8,-0.8L438.6,43l1.5,-1.4c-0.2,-0.4,-0.5,-0.7,-0.8,-0.8l-1.5,1.5l-1.5,-1.5c-0.3,0.1,-0.6,0.4,-0.8,0.8Zm119.7,0l-1.6,1.5c0.3,0.3,0.6,0.7,0.8,0.8l1.6,-1.5l1.5,1.5c0.3,-0.1,0.5,-0.5,0.8,-0.8L558.3,43l1.5,-1.4c-0.3,-0.4,-0.5,-0.7,-0.8,-0.8l-1.5,1.5l-1.6,-1.5c-0.2,0.1,-0.5,0.4,-0.8,0.8Zm-14.8,0l-1.5,1.5c0.2,0.3,0.5,0.7,0.8,0.8l1.5,-1.5l1.5,1.5c0.3,-0.1,0.6,-0.5,0.8,-0.8L543.5,43L545,41.6c-0.2,-0.4,-0.5,-0.7,-0.8,-0.8l-1.5,1.5l-1.5,-1.5c-0.3,0.1,-0.6,0.4,-0.8,0.8Zm-44.3,0l-1.5,1.5c0.2,0.3,0.6,0.7,0.8,0.8l1.5,-1.5l1.5,1.5c0.4,-0.1,0.6,-0.5,0.8,-0.8L499.2,43l1.5,-1.4c-0.2,-0.4,-0.4,-0.7,-0.8,-0.8l-1.5,1.5l-1.5,-1.5c-0.2,0.1,-0.6,0.4,-0.8,0.8Zm29.5,0l-1.5,1.5c0.3,0.3,0.6,0.7,0.8,0.8l1.5,-1.5l1.6,1.5c0.3,-0.1,0.5,-0.5,0.8,-0.8L528.7,43l1.6,-1.4c-0.3,-0.4,-0.5,-0.7,-0.8,-0.8l-1.6,1.5l-1.5,-1.5c-0.2,0.1,-0.5,0.4,-0.8,0.8Zm-14.7,0l-1.5,1.5c0.2,0.3,0.5,0.7,0.8,0.8l1.5,-1.5l1.5,1.5c0.3,-0.1,0.6,-0.5,0.8,-0.8L514,43l1.5,-1.4c-0.2,-0.4,-0.5,-0.7,-0.8,-0.8l-1.5,1.5l-1.5,-1.5c-0.3,0.1,-0.6,0.4,-0.8,0.8ZM632,43l-1.5,1.5c0.3,0.3,0.6,0.7,0.8,0.8l1.6,-1.5l1.5,1.5c0.3,-0.1,0.5,-0.5,0.8,-0.8L633.7,43l1.5,-1.4c-0.3,-0.4,-0.5,-0.7,-0.8,-0.8l-1.5,1.5l-1.6,-1.5c-0.2,0.1,-0.5,0.4,-0.8,0.8Zm-14.7,0l-1.5,1.5c0.2,0.3,0.5,0.7,0.8,0.8l1.5,-1.5l1.5,1.5c0.3,-0.1,0.6,-0.5,0.8,-0.8L618.9,43l1.5,-1.4c-0.2,-0.4,-0.5,-0.7,-0.8,-0.8l-1.5,1.5l-1.5,-1.5c-0.3,0.1,-0.6,0.4,-0.8,0.8ZM573,43l-1.5,1.5c0.2,0.3,0.6,0.7,0.8,0.8l1.5,-1.5l1.5,1.5c0.4,-0.1,0.6,-0.5,0.8,-0.8L574.6,43l1.5,-1.4c-0.2,-0.4,-0.4,-0.7,-0.8,-0.8l-1.5,1.5l-1.5,-1.5c-0.2,0.1,-0.6,0.4,-0.8,0.8Zm29.5,0L601,44.5c0.2,0.3,0.6,0.7,0.8,0.8l1.5,-1.5l1.6,1.5c0.3,-0.1,0.5,-0.5,0.8,-0.8L604.1,43l1.6,-1.4c-0.3,-0.4,-0.5,-0.7,-0.8,-0.8l-1.6,1.5l-1.5,-1.5c-0.2,0.1,-0.6,0.4,-0.8,0.8Zm-14.7,0l-1.5,1.5c0.2,0.3,0.5,0.7,0.8,0.8l1.5,-1.5l1.5,1.5c0.3,-0.1,0.6,-0.5,0.8,-0.8L589.4,43l1.5,-1.4c-0.2,-0.4,-0.5,-0.7,-0.8,-0.8l-1.5,1.5l-1.5,-1.5c-0.3,0.1,-0.6,0.4,-0.8,0.8Zm119.6,0l-1.5,1.5c0.3,0.3,0.6,0.7,0.8,0.8l1.5,-1.5l1.6,1.5c0.3,-0.1,0.5,-0.5,0.8,-0.8L709,43l1.6,-1.4c-0.3,-0.4,-0.5,-0.7,-0.8,-0.8l-1.6,1.5l-1.5,-1.5c-0.2,0.1,-0.5,0.4,-0.8,0.8Zm-14.7,0l-1.5,1.5c0.2,0.3,0.5,0.7,0.8,0.8l1.5,-1.5l1.5,1.5c0.3,-0.1,0.6,-0.5,0.8,-0.8L694.3,43l1.5,-1.4c-0.2,-0.4,-0.5,-0.7,-0.8,-0.8l-1.5,1.5L692,40.8c-0.3,0.1,-0.6,0.4,-0.8,0.8Zm-44.3,0l-1.5,1.5c0.2,0.3,0.5,0.7,0.8,0.8l1.5,-1.5l1.5,1.5c0.4,-0.1,0.6,-0.5,0.8,-0.8L650,43l1.5,-1.4c-0.2,-0.4,-0.4,-0.7,-0.8,-0.8l-1.5,1.5l-1.5,-1.5c-0.3,0.1,-0.6,0.4,-0.8,0.8Zm29.5,0l-1.5,1.5c0.2,0.3,0.6,0.7,0.8,0.8l1.5,-1.5l1.6,1.5c0.3,-0.1,0.5,-0.5,0.8,-0.8L679.5,43l1.6,-1.4c-0.3,-0.4,-0.5,-0.7,-0.8,-0.8l-1.6,1.5l-1.5,-1.5c-0.2,0.1,-0.6,0.4,-0.8,0.8Zm-14.7,0l-1.6,1.5c0.3,0.3,0.6,0.7,0.8,0.8L664,43.8l1.5,1.5c0.3,-0.1,0.6,-0.5,0.8,-0.8L664.8,43l1.5,-1.4c-0.2,-0.4,-0.5,-0.7,-0.8,-0.8L664,42.3l-1.6,-1.5c-0.2,0.1,-0.5,0.4,-0.8,0.8Zm119.6,0l-1.5,1.5c0.3,0.3,0.6,0.7,0.8,0.8l1.5,-1.5l1.6,1.5c0.3,-0.1,0.5,-0.5,0.8,-0.8L784.4,43L786,41.6c-0.3,-0.4,-0.5,-0.7,-0.8,-0.8l-1.6,1.5l-1.5,-1.5c-0.2,0.1,-0.5,0.4,-0.8,0.8Zm-14.7,0l-1.5,1.5c0.2,0.3,0.5,0.7,0.8,0.8l1.5,-1.5l1.5,1.5c0.3,-0.1,0.6,-0.5,0.8,-0.8L769.7,43l1.5,-1.4c-0.2,-0.4,-0.5,-0.7,-0.8,-0.8l-1.5,1.5l-1.5,-1.5c-0.3,0.1,-0.6,0.4,-0.8,0.8Zm-44.3,0l-1.5,1.5c0.2,0.3,0.5,0.7,0.8,0.8l1.5,-1.5l1.5,1.5c0.3,-0.1,0.6,-0.5,0.8,-0.8L725.4,43l1.5,-1.4c-0.2,-0.4,-0.5,-0.7,-0.8,-0.8l-1.5,1.5l-1.5,-1.5c-0.3,0.1,-0.6,0.4,-0.8,0.8Zm29.5,0l-1.5,1.5c0.2,0.3,0.6,0.7,0.8,0.8l1.5,-1.5l1.5,1.5c0.4,-0.1,0.6,-0.5,0.8,-0.8L754.9,43l1.5,-1.4c-0.2,-0.4,-0.4,-0.7,-0.8,-0.8l-1.5,1.5l-1.5,-1.5c-0.2,0.1,-0.6,0.4,-0.8,0.8Zm-14.7,0L737,44.5c0.3,0.3,0.6,0.7,0.8,0.8l1.6,-1.5l1.5,1.5c0.3,-0.1,0.5,-0.5,0.8,-0.8L740.2,43l1.5,-1.4c-0.3,-0.4,-0.5,-0.7,-0.8,-0.8l-1.5,1.5l-1.6,-1.5c-0.2,0.1,-0.5,0.4,-0.8,0.8Zm119.6,0l-1.5,1.5c0.2,0.3,0.6,0.7,0.8,0.8L859,43.8l1.6,1.5c0.3,-0.1,0.5,-0.5,0.8,-0.8L859.8,43l1.6,-1.4c-0.3,-0.4,-0.5,-0.7,-0.8,-0.8L859,42.3l-1.5,-1.5c-0.2,0.1,-0.6,0.4,-0.8,0.8Zm-14.7,0l-1.6,1.5c0.3,0.3,0.6,0.7,0.9,0.8l1.5,-1.5l1.5,1.5c0.3,-0.1,0.6,-0.5,0.8,-0.8L845.1,43l1.5,-1.4c-0.2,-0.4,-0.5,-0.7,-0.8,-0.8l-1.5,1.5l-1.5,-1.5c-0.3,0.1,-0.6,0.4,-0.9,0.8Zm-44.3,0l-1.5,1.5c0.2,0.3,0.5,0.7,0.8,0.8L800,43.8l1.5,1.5c0.3,-0.1,0.6,-0.5,0.8,-0.8L800.8,43l1.5,-1.4c-0.2,-0.4,-0.5,-0.7,-0.8,-0.8L800,42.3l-1.5,-1.5c-0.3,0.1,-0.6,0.4,-0.8,0.8Zm29.5,0l-1.5,1.5c0.2,0.3,0.6,0.7,0.8,0.8l1.5,-1.5l1.5,1.5c0.4,-0.1,0.6,-0.5,0.8,-0.8L830.3,43l1.5,-1.4c-0.2,-0.4,-0.4,-0.7,-0.8,-0.8l-1.5,1.5L828,40.8c-0.2,0.1,-0.6,0.4,-0.8,0.8ZM814,43l-1.6,1.5c0.3,0.3,0.6,0.7,0.8,0.8l1.6,-1.5l1.5,1.5c0.3,-0.1,0.5,-0.5,0.8,-0.8L815.6,43l1.5,-1.4c-0.3,-0.4,-0.5,-0.7,-0.8,-0.8l-1.5,1.5l-1.6,-1.5c-0.2,0.1,-0.5,0.4,-0.8,0.8Zm119.6,0l-1.5,1.5c0.2,0.3,0.6,0.7,0.8,0.8l1.5,-1.5l1.5,1.5c0.4,-0.1,0.6,-0.5,0.9,-0.8L935.2,43l1.6,-1.4c-0.3,-0.4,-0.5,-0.7,-0.9,-0.8l-1.5,1.5l-1.5,-1.5c-0.2,0.1,-0.6,0.4,-0.8,0.8Zm-14.7,0l-1.6,1.5c0.3,0.3,0.6,0.7,0.8,0.8l1.6,-1.5l1.5,1.5c0.3,-0.1,0.6,-0.5,0.8,-0.8L920.5,43L922,41.6c-0.2,-0.4,-0.5,-0.7,-0.8,-0.8l-1.5,1.5l-1.6,-1.5c-0.2,0.1,-0.5,0.4,-0.8,0.8Zm-44.3,0l-1.5,1.5c0.2,0.3,0.5,0.7,0.8,0.8l1.5,-1.5l1.5,1.5c0.3,-0.1,0.6,-0.5,0.8,-0.8L876.2,43l1.5,-1.4c-0.2,-0.4,-0.5,-0.7,-0.8,-0.8l-1.5,1.5l-1.5,-1.5c-0.3,0.1,-0.6,0.4,-0.8,0.8Zm29.5,0l-1.5,1.5c0.2,0.3,0.5,0.7,0.8,0.8l1.5,-1.5l1.5,1.5c0.4,-0.1,0.6,-0.5,0.8,-0.8L905.7,43l1.5,-1.4c-0.2,-0.4,-0.4,-0.7,-0.8,-0.8l-1.5,1.5l-1.5,-1.5c-0.3,0.1,-0.6,0.4,-0.8,0.8Zm-14.8,0l-1.5,1.5c0.3,0.3,0.6,0.7,0.8,0.8l1.6,-1.5l1.5,1.5c0.3,-0.1,0.5,-0.5,0.8,-0.8L891,43l1.5,-1.4c-0.3,-0.4,-0.5,-0.7,-0.8,-0.8l-1.5,1.5l-1.6,-1.5c-0.2,0.1,-0.5,0.4,-0.8,0.8ZM1009,43l-1.5,1.5c0.2,0.3,0.6,0.7,0.8,0.8l1.5,-1.5l1.5,1.5c0.4,-0.1,0.6,-0.5,0.8,-0.8L1010.6,43l1.5,-1.4c-0.2,-0.4,-0.4,-0.7,-0.8,-0.8l-1.5,1.5l-1.5,-1.5c-0.2,0.1,-0.6,0.4,-0.8,0.8Zm-14.7,0l-1.6,1.5c0.3,0.3,0.6,0.7,0.8,0.8l1.6,-1.5l1.5,1.5c0.3,-0.1,0.5,-0.5,0.8,-0.8L995.9,43l1.5,-1.4c-0.3,-0.4,-0.5,-0.7,-0.8,-0.8l-1.5,1.5l-1.6,-1.5c-0.2,0.1,-0.5,0.4,-0.8,0.8ZM950,43l-1.5,1.5c0.2,0.3,0.5,0.7,0.8,0.8l1.5,-1.5l1.5,1.5c0.3,-0.1,0.6,-0.5,0.8,-0.8L951.6,43l1.5,-1.4c-0.2,-0.4,-0.5,-0.7,-0.8,-0.8l-1.5,1.5l-1.5,-1.5c-0.3,0.1,-0.6,0.4,-0.8,0.8Zm29.5,0L978,44.5c0.2,0.3,0.5,0.7,0.8,0.8l1.5,-1.5l1.5,1.5c0.3,-0.1,0.6,-0.5,0.8,-0.8L981.1,43l1.5,-1.4c-0.2,-0.4,-0.5,-0.7,-0.8,-0.8l-1.5,1.5l-1.5,-1.5c-0.3,0.1,-0.6,0.4,-0.8,0.8Zm-14.8,0l-1.5,1.5c0.3,0.3,0.6,0.7,0.8,0.8l1.5,-1.5l1.6,1.5c0.3,-0.1,0.5,-0.5,0.8,-0.8L966.3,43l1.6,-1.4c-0.3,-0.4,-0.5,-0.7,-0.8,-0.8l-1.6,1.5L964,40.8c-0.2,0.1,-0.5,0.4,-0.8,0.8Zm119.7,0l-1.5,1.5c0.2,0.3,0.5,0.7,0.8,0.8l1.5,-1.5l1.5,1.5c0.4,-0.1,0.6,-0.5,0.8,-0.8L1086,43l1.5,-1.4c-0.2,-0.4,-0.4,-0.7,-0.8,-0.8l-1.5,1.5l-1.5,-1.5c-0.3,0.1,-0.6,0.4,-0.8,0.8Zm-14.7,0l-1.6,1.5c0.3,0.3,0.6,0.7,0.8,0.8l1.6,-1.5l1.5,1.5c0.3,-0.1,0.5,-0.5,0.8,-0.8L1071.3,43l1.5,-1.4c-0.3,-0.4,-0.5,-0.7,-0.8,-0.8l-1.5,1.5l-1.6,-1.5c-0.2,0.1,-0.5,0.4,-0.8,0.8Zm-44.3,0l-1.5,1.5c0.2,0.3,0.5,0.7,0.8,0.8l1.5,-1.5l1.5,1.5c0.3,-0.1,0.6,-0.5,0.8,-0.8L1027,43l1.5,-1.4c-0.2,-0.4,-0.5,-0.7,-0.8,-0.8l-1.5,1.5l-1.5,-1.5c-0.3,0.1,-0.6,0.4,-0.8,0.8Zm29.5,0l-1.5,1.5c0.2,0.3,0.5,0.7,0.8,0.8l1.5,-1.5l1.5,1.5c0.3,-0.1,0.6,-0.5,0.8,-0.8L1056.5,43l1.5,-1.4c-0.2,-0.4,-0.5,-0.7,-0.8,-0.8l-1.5,1.5l-1.5,-1.5c-0.3,0.1,-0.6,0.4,-0.8,0.8Zm-14.8,0l-1.5,1.5c0.3,0.3,0.6,0.7,0.8,0.8l1.5,-1.5l1.6,1.5c0.3,-0.1,0.5,-0.5,0.8,-0.8L1041.7,43l1.6,-1.4c-0.3,-0.4,-0.5,-0.7,-0.8,-0.8l-1.6,1.5l-1.5,-1.5c-0.2,0.1,-0.5,0.4,-0.8,0.8Zm119.7,0l-1.5,1.5c0.2,0.3,0.5,0.7,0.8,0.8l1.5,-1.5l1.5,1.5c0.4,-0.1,0.6,-0.5,0.8,-0.8L1161.4,43l1.5,-1.4c-0.2,-0.4,-0.4,-0.7,-0.8,-0.8l-1.5,1.5l-1.5,-1.5c-0.3,0.1,-0.6,0.4,-0.8,0.8ZM1145,43l-1.5,1.5c0.3,0.3,0.6,0.7,0.8,0.8l1.5,-1.5l1.6,1.5c0.3,-0.1,0.5,-0.5,0.8,-0.8L1146.7,43l1.5,-1.4c-0.3,-0.4,-0.5,-0.7,-0.8,-0.8l-1.6,1.5l-1.5,-1.5c-0.2,0.1,-0.5,0.4,-0.8,0.8Zm-44.2,0l-1.6,1.5c0.3,0.3,0.6,0.7,0.8,0.8l1.6,-1.5l1.5,1.5c0.3,-0.1,0.6,-0.5,0.8,-0.8L1102.4,43l1.5,-1.4c-0.2,-0.4,-0.5,-0.7,-0.8,-0.8l-1.5,1.5L1100,40.8c-0.2,0.1,-0.5,0.4,-0.8,0.8Zm29.5,0l-1.5,1.5c0.2,0.3,0.5,0.7,0.8,0.8l1.5,-1.5l1.5,1.5c0.3,-0.1,0.6,-0.5,0.8,-0.8L1131.9,43l1.5,-1.4c-0.2,-0.4,-0.5,-0.7,-0.8,-0.8l-1.5,1.5l-1.5,-1.5c-0.3,0.1,-0.6,0.4,-0.8,0.8Zm-14.8,0l-1.5,1.5c0.2,0.3,0.6,0.7,0.8,0.8l1.5,-1.5l1.6,1.5c0.3,-0.1,0.5,-0.5,0.8,-0.8L1117.1,43l1.6,-1.4c-0.3,-0.4,-0.5,-0.7,-0.8,-0.8l-1.6,1.5l-1.5,-1.5c-0.2,0.1,-0.6,0.4,-0.8,0.8Zm119.7,0l-1.5,1.5c0.2,0.3,0.5,0.7,0.8,0.8l1.5,-1.5l1.5,1.5c0.3,-0.1,0.6,-0.5,0.8,-0.8L1236.8,43l1.5,-1.4c-0.2,-0.4,-0.5,-0.7,-0.8,-0.8l-1.5,1.5l-1.5,-1.5c-0.3,0.1,-0.6,0.4,-0.8,0.8Zm-14.8,0l-1.5,1.5c0.3,0.3,0.6,0.7,0.8,0.8l1.5,-1.5l1.6,1.5c0.3,-0.1,0.5,-0.5,0.8,-0.8L1222,43l1.6,-1.4c-0.3,-0.4,-0.5,-0.7,-0.8,-0.8l-1.6,1.5l-1.5,-1.5c-0.2,0.1,-0.5,0.4,-0.8,0.8Zm-44.2,0l-1.6,1.5c0.3,0.3,0.6,0.7,0.8,0.8l1.6,-1.5l1.5,1.5c0.3,-0.1,0.6,-0.5,0.8,-0.8L1177.8,43l1.5,-1.4c-0.2,-0.4,-0.5,-0.7,-0.8,-0.8l-1.5,1.5l-1.6,-1.5c-0.2,0.1,-0.5,0.4,-0.8,0.8Zm29.5,0l-1.5,1.5c0.2,0.3,0.5,0.7,0.8,0.8l1.5,-1.5l1.5,1.5c0.3,-0.1,0.6,-0.5,0.8,-0.8L1207.3,43l1.5,-1.4c-0.2,-0.4,-0.5,-0.7,-0.8,-0.8l-1.5,1.5L1205,40.8c-0.3,0.1,-0.6,0.4,-0.8,0.8Zm-14.8,0l-1.5,1.5c0.2,0.3,0.6,0.7,0.8,0.8l1.5,-1.5l1.5,1.5c0.4,-0.1,0.6,-0.5,0.9,-0.8L1192.5,43l1.6,-1.4c-0.3,-0.4,-0.5,-0.7,-0.9,-0.8l-1.5,1.5l-1.5,-1.5c-0.2,0.1,-0.6,0.4,-0.8,0.8Z" class="g8_4" />
        <path d="M256.8,1147.7l-1.5,1.5c0.2,0.3,0.5,0.7,0.8,0.8l1.5,-1.5l1.5,1.5c0.4,-0.1,0.6,-0.5,0.8,-0.8l-1.5,-1.5l1.5,-1.5c-0.2,-0.3,-0.4,-0.6,-0.8,-0.8l-1.5,1.6l-1.5,-1.6c-0.3,0.2,-0.6,0.5,-0.8,0.8Zm-14.7,0l-1.6,1.5c0.3,0.3,0.6,0.7,0.8,0.8l1.6,-1.5l1.5,1.5c0.3,-0.1,0.5,-0.5,0.8,-0.8l-1.5,-1.5l1.5,-1.5c-0.3,-0.3,-0.5,-0.6,-0.8,-0.8l-1.5,1.6l-1.6,-1.6c-0.2,0.2,-0.5,0.5,-0.8,0.8Zm-44.3,0l-1.5,1.5c0.2,0.3,0.5,0.7,0.8,0.8l1.5,-1.5l1.5,1.5c0.3,-0.1,0.6,-0.5,0.8,-0.8l-1.5,-1.5l1.5,-1.5c-0.2,-0.3,-0.5,-0.6,-0.8,-0.8l-1.5,1.6l-1.5,-1.6c-0.3,0.2,-0.6,0.5,-0.8,0.8Zm29.5,0l-1.5,1.5c0.2,0.3,0.5,0.7,0.8,0.8l1.5,-1.5l1.5,1.5c0.3,-0.1,0.6,-0.5,0.8,-0.8l-1.5,-1.5l1.5,-1.5c-0.2,-0.3,-0.5,-0.6,-0.8,-0.8l-1.5,1.6l-1.5,-1.6c-0.3,0.2,-0.6,0.5,-0.8,0.8Zm-14.8,0l-1.5,1.5c0.3,0.3,0.6,0.7,0.8,0.8l1.5,-1.5l1.6,1.5c0.3,-0.1,0.5,-0.5,0.8,-0.8l-1.6,-1.5l1.6,-1.5c-0.3,-0.3,-0.5,-0.6,-0.8,-0.8l-1.6,1.6l-1.5,-1.6c-0.2,0.2,-0.5,0.5,-0.8,0.8Zm119.7,0l-1.5,1.5c0.2,0.3,0.5,0.7,0.8,0.8l1.5,-1.5l1.5,1.5c0.4,-0.1,0.6,-0.5,0.8,-0.8l-1.5,-1.5l1.5,-1.5c-0.2,-0.3,-0.4,-0.6,-0.8,-0.8L333,1147l-1.5,-1.6c-0.3,0.2,-0.6,0.5,-0.8,0.8Zm-14.8,0l-1.5,1.5c0.3,0.3,0.6,0.7,0.8,0.8l1.6,-1.5l1.5,1.5c0.3,-0.1,0.5,-0.5,0.8,-0.8l-1.5,-1.5l1.5,-1.5c-0.3,-0.3,-0.5,-0.6,-0.8,-0.8l-1.5,1.6l-1.6,-1.6c-0.2,0.2,-0.5,0.5,-0.8,0.8Zm-44.2,0l-1.6,1.5c0.3,0.3,0.6,0.7,0.9,0.8l1.5,-1.5l1.5,1.5c0.3,-0.1,0.6,-0.5,0.8,-0.8l-1.5,-1.5l1.5,-1.5c-0.2,-0.3,-0.5,-0.6,-0.8,-0.8L274,1147l-1.5,-1.6c-0.3,0.2,-0.6,0.5,-0.9,0.8Zm29.5,0l-1.5,1.5c0.2,0.3,0.5,0.7,0.8,0.8l1.5,-1.5l1.5,1.5c0.3,-0.1,0.6,-0.5,0.8,-0.8l-1.5,-1.5l1.5,-1.5c-0.2,-0.3,-0.5,-0.6,-0.8,-0.8l-1.5,1.6l-1.5,-1.6c-0.3,0.2,-0.6,0.5,-0.8,0.8Zm-14.8,0l-1.5,1.5c0.2,0.3,0.6,0.7,0.8,0.8l1.5,-1.5l1.6,1.5c0.3,-0.1,0.5,-0.5,0.8,-0.8l-1.6,-1.5l1.6,-1.5c-0.3,-0.3,-0.5,-0.6,-0.8,-0.8l-1.6,1.6l-1.5,-1.6c-0.2,0.2,-0.6,0.5,-0.8,0.8Zm119.7,0l-1.5,1.5c0.2,0.3,0.5,0.7,0.8,0.8l1.5,-1.5l1.5,1.5c0.3,-0.1,0.6,-0.5,0.8,-0.8l-1.5,-1.5l1.5,-1.5c-0.2,-0.3,-0.5,-0.6,-0.8,-0.8l-1.5,1.6l-1.5,-1.6c-0.3,0.2,-0.6,0.5,-0.8,0.8Zm-14.8,0l-1.5,1.5c0.3,0.3,0.6,0.7,0.8,0.8l1.5,-1.5l1.6,1.5c0.3,-0.1,0.5,-0.5,0.8,-0.8l-1.6,-1.5l1.6,-1.5c-0.3,-0.3,-0.5,-0.6,-0.8,-0.8l-1.6,1.6l-1.5,-1.6c-0.2,0.2,-0.5,0.5,-0.8,0.8Zm-44.2,0l-1.6,1.5c0.3,0.3,0.6,0.7,0.8,0.8l1.6,-1.5l1.5,1.5c0.3,-0.1,0.6,-0.5,0.8,-0.8l-1.5,-1.5l1.5,-1.5c-0.2,-0.3,-0.5,-0.6,-0.8,-0.8l-1.5,1.6l-1.6,-1.6c-0.2,0.2,-0.5,0.5,-0.8,0.8Zm29.5,0l-1.5,1.5c0.2,0.3,0.5,0.7,0.8,0.8l1.5,-1.5l1.5,1.5c0.3,-0.1,0.6,-0.5,0.8,-0.8l-1.5,-1.5l1.5,-1.5c-0.2,-0.3,-0.5,-0.6,-0.8,-0.8l-1.5,1.6l-1.5,-1.6c-0.3,0.2,-0.6,0.5,-0.8,0.8Zm-14.8,0l-1.5,1.5c0.2,0.3,0.6,0.7,0.8,0.8l1.5,-1.5l1.6,1.5c0.3,-0.1,0.5,-0.5,0.8,-0.8l-1.6,-1.5l1.6,-1.5c-0.3,-0.3,-0.5,-0.6,-0.8,-0.8l-1.6,1.6l-1.5,-1.6c-0.2,0.2,-0.6,0.5,-0.8,0.8Zm119.7,0l-1.5,1.5c0.2,0.3,0.5,0.7,0.8,0.8l1.5,-1.5l1.5,1.5c0.3,-0.1,0.6,-0.5,0.8,-0.8l-1.5,-1.5l1.5,-1.5c-0.2,-0.3,-0.5,-0.6,-0.8,-0.8l-1.5,1.6l-1.5,-1.6c-0.3,0.2,-0.6,0.5,-0.8,0.8Zm-14.8,0l-1.5,1.5c0.3,0.3,0.6,0.7,0.8,0.8l1.5,-1.5l1.6,1.5c0.3,-0.1,0.5,-0.5,0.8,-0.8l-1.6,-1.5l1.6,-1.5c-0.3,-0.3,-0.5,-0.6,-0.8,-0.8L469,1147l-1.5,-1.6c-0.2,0.2,-0.5,0.5,-0.8,0.8Zm-44.2,0l-1.6,1.5c0.3,0.3,0.6,0.7,0.8,0.8l1.6,-1.5l1.5,1.5c0.3,-0.1,0.5,-0.5,0.8,-0.8l-1.5,-1.5l1.5,-1.5c-0.3,-0.3,-0.5,-0.6,-0.8,-0.8l-1.5,1.6l-1.6,-1.6c-0.2,0.2,-0.5,0.5,-0.8,0.8Zm29.5,0l-1.5,1.5c0.2,0.3,0.5,0.7,0.8,0.8l1.5,-1.5l1.5,1.5c0.3,-0.1,0.6,-0.5,0.8,-0.8l-1.5,-1.5l1.5,-1.5c-0.2,-0.3,-0.5,-0.6,-0.8,-0.8l-1.5,1.6l-1.5,-1.6c-0.3,0.2,-0.6,0.5,-0.8,0.8Zm-14.8,0l-1.5,1.5c0.2,0.3,0.6,0.7,0.8,0.8l1.5,-1.5l1.5,1.5c0.4,-0.1,0.6,-0.5,0.8,-0.8l-1.5,-1.5l1.5,-1.5c-0.2,-0.3,-0.4,-0.6,-0.8,-0.8l-1.5,1.6l-1.5,-1.6c-0.2,0.2,-0.6,0.5,-0.8,0.8Zm119.7,0l-1.5,1.5c0.2,0.3,0.5,0.7,0.8,0.8l1.5,-1.5l1.5,1.5c0.3,-0.1,0.6,-0.5,0.8,-0.8l-1.5,-1.5l1.5,-1.5c-0.2,-0.3,-0.5,-0.6,-0.8,-0.8l-1.5,1.6l-1.5,-1.6c-0.3,0.2,-0.6,0.5,-0.8,0.8Zm-14.8,0l-1.5,1.5c0.2,0.3,0.6,0.7,0.8,0.8l1.5,-1.5l1.6,1.5c0.3,-0.1,0.5,-0.5,0.8,-0.8l-1.6,-1.5l1.6,-1.5c-0.3,-0.3,-0.5,-0.6,-0.8,-0.8l-1.6,1.6l-1.5,-1.6c-0.2,0.2,-0.6,0.5,-0.8,0.8Zm-44.2,0l-1.6,1.5c0.3,0.3,0.6,0.7,0.8,0.8l1.6,-1.5l1.5,1.5c0.3,-0.1,0.5,-0.5,0.8,-0.8l-1.5,-1.5l1.5,-1.5c-0.3,-0.3,-0.5,-0.6,-0.8,-0.8l-1.5,1.6l-1.6,-1.6c-0.2,0.2,-0.5,0.5,-0.8,0.8Zm29.5,0l-1.6,1.5c0.3,0.3,0.6,0.7,0.8,0.8l1.6,-1.5l1.5,1.5c0.3,-0.1,0.6,-0.5,0.8,-0.8l-1.5,-1.5l1.5,-1.5c-0.2,-0.3,-0.5,-0.6,-0.8,-0.8l-1.5,1.6l-1.6,-1.6c-0.2,0.2,-0.5,0.5,-0.8,0.8Zm-14.8,0l-1.5,1.5c0.2,0.3,0.6,0.7,0.8,0.8l1.5,-1.5l1.5,1.5c0.4,-0.1,0.6,-0.5,0.8,-0.8l-1.5,-1.5l1.5,-1.5c-0.2,-0.3,-0.4,-0.6,-0.8,-0.8l-1.5,1.6l-1.5,-1.6c-0.2,0.2,-0.6,0.5,-0.8,0.8Zm119.7,0l-1.5,1.5c0.2,0.3,0.5,0.7,0.8,0.8l1.5,-1.5l1.5,1.5c0.3,-0.1,0.6,-0.5,0.8,-0.8l-1.5,-1.5l1.5,-1.5c-0.2,-0.3,-0.5,-0.6,-0.8,-0.8l-1.5,1.6l-1.5,-1.6c-0.3,0.2,-0.6,0.5,-0.8,0.8Zm-14.8,0l-1.5,1.5c0.2,0.3,0.6,0.7,0.8,0.8l1.5,-1.5l1.5,1.5c0.4,-0.1,0.6,-0.5,0.9,-0.8l-1.6,-1.5l1.6,-1.5c-0.3,-0.3,-0.5,-0.6,-0.9,-0.8l-1.5,1.6l-1.5,-1.6c-0.2,0.2,-0.6,0.5,-0.8,0.8Zm-44.3,0l-1.5,1.5c0.3,0.3,0.6,0.7,0.8,0.8l1.5,-1.5l1.6,1.5c0.3,-0.1,0.5,-0.5,0.8,-0.8l-1.5,-1.5l1.5,-1.5c-0.3,-0.3,-0.5,-0.6,-0.8,-0.8l-1.6,1.6l-1.5,-1.6c-0.2,0.2,-0.5,0.5,-0.8,0.8Zm29.6,0l-1.6,1.5c0.3,0.3,0.6,0.7,0.8,0.8l1.6,-1.5l1.5,1.5c0.3,-0.1,0.6,-0.5,0.8,-0.8l-1.5,-1.5l1.5,-1.5c-0.2,-0.3,-0.5,-0.6,-0.8,-0.8l-1.5,1.6l-1.6,-1.6c-0.2,0.2,-0.5,0.5,-0.8,0.8Zm-14.8,0l-1.5,1.5c0.2,0.3,0.5,0.7,0.8,0.8l1.5,-1.5l1.5,1.5c0.4,-0.1,0.6,-0.5,0.8,-0.8l-1.5,-1.5l1.5,-1.5c-0.2,-0.3,-0.4,-0.6,-0.8,-0.8l-1.5,1.6l-1.5,-1.6c-0.3,0.2,-0.6,0.5,-0.8,0.8Zm119.7,0l-1.5,1.5c0.2,0.3,0.5,0.7,0.8,0.8l1.5,-1.5l1.5,1.5c0.3,-0.1,0.6,-0.5,0.8,-0.8l-1.5,-1.5l1.5,-1.5c-0.2,-0.3,-0.5,-0.6,-0.8,-0.8L710,1147l-1.5,-1.6c-0.3,0.2,-0.6,0.5,-0.8,0.8Zm-14.8,0l-1.5,1.5c0.2,0.3,0.6,0.7,0.8,0.8l1.5,-1.5l1.5,1.5c0.4,-0.1,0.6,-0.5,0.8,-0.8l-1.5,-1.5l1.5,-1.5c-0.2,-0.3,-0.4,-0.6,-0.8,-0.8l-1.5,1.6l-1.5,-1.6c-0.2,0.2,-0.6,0.5,-0.8,0.8Zm-44.3,0l-1.5,1.5c0.3,0.3,0.6,0.7,0.8,0.8l1.5,-1.5l1.6,1.5c0.3,-0.1,0.5,-0.5,0.8,-0.8l-1.6,-1.5l1.6,-1.5c-0.3,-0.3,-0.5,-0.6,-0.8,-0.8l-1.6,1.6l-1.5,-1.6c-0.2,0.2,-0.5,0.5,-0.8,0.8Zm29.6,0l-1.6,1.5c0.3,0.3,0.6,0.7,0.8,0.8l1.6,-1.5l1.5,1.5c0.3,-0.1,0.5,-0.5,0.8,-0.8l-1.5,-1.5l1.5,-1.5c-0.3,-0.3,-0.5,-0.6,-0.8,-0.8l-1.5,1.6l-1.6,-1.6c-0.2,0.2,-0.5,0.5,-0.8,0.8Zm-14.8,0l-1.5,1.5c0.2,0.3,0.5,0.7,0.8,0.8l1.5,-1.5l1.5,1.5c0.3,-0.1,0.6,-0.5,0.8,-0.8l-1.5,-1.5l1.5,-1.5c-0.2,-0.3,-0.5,-0.6,-0.8,-0.8l-1.5,1.6l-1.5,-1.6c-0.3,0.2,-0.6,0.5,-0.8,0.8Zm119.7,0l-1.6,1.5c0.3,0.3,0.6,0.7,0.8,0.8l1.6,-1.5l1.5,1.5c0.3,-0.1,0.6,-0.5,0.8,-0.8l-1.5,-1.5l1.5,-1.5c-0.2,-0.3,-0.5,-0.6,-0.8,-0.8l-1.5,1.6l-1.6,-1.6c-0.2,0.2,-0.5,0.5,-0.8,0.8Zm-14.8,0l-1.5,1.5c0.2,0.3,0.5,0.7,0.8,0.8l1.5,-1.5l1.5,1.5c0.4,-0.1,0.6,-0.5,0.8,-0.8l-1.5,-1.5l1.5,-1.5c-0.2,-0.3,-0.4,-0.6,-0.8,-0.8l-1.5,1.6l-1.5,-1.6c-0.3,0.2,-0.6,0.5,-0.8,0.8Zm-44.3,0l-1.5,1.5c0.3,0.3,0.6,0.7,0.8,0.8l1.5,-1.5l1.6,1.5c0.3,-0.1,0.5,-0.5,0.8,-0.8l-1.6,-1.5l1.6,-1.5c-0.3,-0.3,-0.5,-0.6,-0.8,-0.8l-1.6,1.6l-1.5,-1.6c-0.2,0.2,-0.5,0.5,-0.8,0.8Zm29.6,0l-1.6,1.5c0.3,0.3,0.6,0.7,0.8,0.8l1.6,-1.5l1.5,1.5c0.3,-0.1,0.5,-0.5,0.8,-0.8l-1.5,-1.5l1.5,-1.5c-0.3,-0.3,-0.5,-0.6,-0.8,-0.8l-1.5,1.6l-1.6,-1.6c-0.2,0.2,-0.5,0.5,-0.8,0.8Zm-14.8,0l-1.5,1.5c0.2,0.3,0.5,0.7,0.8,0.8l1.5,-1.5l1.5,1.5c0.3,-0.1,0.6,-0.5,0.8,-0.8l-1.5,-1.5l1.5,-1.5c-0.2,-0.3,-0.5,-0.6,-0.8,-0.8l-1.5,1.6l-1.5,-1.6c-0.3,0.2,-0.6,0.5,-0.8,0.8Zm119.7,0l-1.6,1.5c0.3,0.3,0.6,0.7,0.8,0.8l1.6,-1.5l1.5,1.5c0.3,-0.1,0.5,-0.5,0.8,-0.8l-1.5,-1.5l1.5,-1.5c-0.3,-0.3,-0.5,-0.6,-0.8,-0.8l-1.5,1.6l-1.6,-1.6c-0.2,0.2,-0.5,0.5,-0.8,0.8Zm-14.8,0l-1.5,1.5c0.2,0.3,0.5,0.7,0.8,0.8l1.5,-1.5l1.5,1.5c0.4,-0.1,0.6,-0.5,0.8,-0.8l-1.5,-1.5l1.5,-1.5c-0.2,-0.3,-0.4,-0.6,-0.8,-0.8L846,1147l-1.5,-1.6c-0.3,0.2,-0.6,0.5,-0.8,0.8Zm-44.3,0l-1.5,1.5c0.2,0.3,0.6,0.7,0.8,0.8l1.5,-1.5l1.6,1.5c0.3,-0.1,0.5,-0.5,0.8,-0.8l-1.6,-1.5l1.6,-1.5c-0.3,-0.3,-0.5,-0.6,-0.8,-0.8l-1.6,1.6l-1.5,-1.6c-0.2,0.2,-0.6,0.5,-0.8,0.8Zm29.5,0l-1.5,1.5c0.3,0.3,0.6,0.7,0.8,0.8l1.5,-1.5l1.6,1.5c0.3,-0.1,0.5,-0.5,0.8,-0.8l-1.6,-1.5l1.6,-1.5c-0.3,-0.3,-0.5,-0.6,-0.8,-0.8l-1.6,1.6l-1.5,-1.6c-0.2,0.2,-0.5,0.5,-0.8,0.8Zm-14.7,0l-1.5,1.5c0.2,0.3,0.5,0.7,0.8,0.8l1.5,-1.5l1.5,1.5c0.3,-0.1,0.6,-0.5,0.8,-0.8l-1.5,-1.5l1.5,-1.5c-0.2,-0.3,-0.5,-0.6,-0.8,-0.8l-1.5,1.6l-1.5,-1.6c-0.3,0.2,-0.6,0.5,-0.8,0.8Zm119.7,0l-1.6,1.5c0.3,0.3,0.6,0.7,0.8,0.8l1.6,-1.5l1.5,1.5c0.3,-0.1,0.5,-0.5,0.8,-0.8l-1.5,-1.5l1.5,-1.5c-0.3,-0.3,-0.5,-0.6,-0.8,-0.8l-1.5,1.6l-1.6,-1.6c-0.2,0.2,-0.5,0.5,-0.8,0.8Zm-14.8,0l-1.5,1.5c0.2,0.3,0.5,0.7,0.8,0.8l1.5,-1.5l1.5,1.5c0.3,-0.1,0.6,-0.5,0.8,-0.8l-1.5,-1.5l1.5,-1.5c-0.2,-0.3,-0.5,-0.6,-0.8,-0.8l-1.5,1.6l-1.5,-1.6c-0.3,0.2,-0.6,0.5,-0.8,0.8Zm-44.3,0l-1.5,1.5c0.2,0.3,0.6,0.7,0.8,0.8l1.5,-1.5l1.5,1.5c0.4,-0.1,0.6,-0.5,0.9,-0.8l-1.6,-1.5l1.6,-1.5c-0.3,-0.3,-0.5,-0.6,-0.9,-0.8l-1.5,1.6l-1.5,-1.6c-0.2,0.2,-0.6,0.5,-0.8,0.8Zm29.5,0l-1.5,1.5c0.3,0.3,0.6,0.7,0.8,0.8l1.5,-1.5l1.6,1.5c0.3,-0.1,0.5,-0.5,0.8,-0.8l-1.6,-1.5l1.6,-1.5c-0.3,-0.3,-0.5,-0.6,-0.8,-0.8l-1.6,1.6l-1.5,-1.6c-0.2,0.2,-0.5,0.5,-0.8,0.8Zm-14.7,0l-1.5,1.5c0.2,0.3,0.5,0.7,0.8,0.8l1.5,-1.5l1.5,1.5c0.3,-0.1,0.6,-0.5,0.8,-0.8l-1.5,-1.5l1.5,-1.5c-0.2,-0.3,-0.5,-0.6,-0.8,-0.8l-1.5,1.6l-1.5,-1.6c-0.3,0.2,-0.6,0.5,-0.8,0.8Zm119.7,0l-1.6,1.5c0.3,0.3,0.6,0.7,0.8,0.8l1.6,-1.5l1.5,1.5c0.3,-0.1,0.5,-0.5,0.8,-0.8l-1.5,-1.5l1.5,-1.5c-0.3,-0.3,-0.5,-0.6,-0.8,-0.8l-1.5,1.6l-1.6,-1.6c-0.2,0.2,-0.5,0.5,-0.8,0.8Zm-14.8,0l-1.5,1.5c0.2,0.3,0.5,0.7,0.8,0.8l1.5,-1.5l1.5,1.5c0.3,-0.1,0.6,-0.5,0.8,-0.8l-1.5,-1.5l1.5,-1.5c-0.2,-0.3,-0.5,-0.6,-0.8,-0.8l-1.5,1.6l-1.5,-1.6c-0.3,0.2,-0.6,0.5,-0.8,0.8Zm-44.3,0l-1.5,1.5c0.2,0.3,0.6,0.7,0.8,0.8l1.5,-1.5l1.5,1.5c0.4,-0.1,0.6,-0.5,0.8,-0.8l-1.5,-1.5l1.5,-1.5c-0.2,-0.3,-0.4,-0.6,-0.8,-0.8l-1.5,1.6l-1.5,-1.6c-0.2,0.2,-0.6,0.5,-0.8,0.8Zm29.5,0l-1.5,1.5c0.3,0.3,0.6,0.7,0.8,0.8l1.5,-1.5l1.6,1.5c0.3,-0.1,0.5,-0.5,0.8,-0.8l-1.6,-1.5l1.6,-1.5c-0.3,-0.3,-0.5,-0.6,-0.8,-0.8L982,1147l-1.5,-1.6c-0.2,0.2,-0.5,0.5,-0.8,0.8Zm-14.7,0l-1.5,1.5c0.2,0.3,0.5,0.7,0.8,0.8l1.5,-1.5l1.5,1.5c0.3,-0.1,0.6,-0.5,0.8,-0.8l-1.5,-1.5l1.5,-1.5c-0.2,-0.3,-0.5,-0.6,-0.8,-0.8l-1.5,1.6l-1.5,-1.6c-0.3,0.2,-0.6,0.5,-0.8,0.8Zm119.6,0l-1.5,1.5c0.3,0.3,0.6,0.7,0.8,0.8l1.5,-1.5l1.6,1.5c0.3,-0.1,0.5,-0.5,0.8,-0.8l-1.6,-1.5l1.6,-1.5c-0.3,-0.3,-0.5,-0.6,-0.8,-0.8l-1.6,1.6l-1.5,-1.6c-0.2,0.2,-0.5,0.5,-0.8,0.8Zm-14.7,0l-1.5,1.5c0.2,0.3,0.5,0.7,0.8,0.8l1.5,-1.5l1.5,1.5c0.3,-0.1,0.6,-0.5,0.8,-0.8l-1.5,-1.5l1.5,-1.5c-0.2,-0.3,-0.5,-0.6,-0.8,-0.8l-1.5,1.6l-1.5,-1.6c-0.3,0.2,-0.6,0.5,-0.8,0.8Zm-44.3,0l-1.5,1.5c0.2,0.3,0.5,0.7,0.8,0.8l1.5,-1.5l1.5,1.5c0.4,-0.1,0.6,-0.5,0.8,-0.8l-1.5,-1.5l1.5,-1.5c-0.2,-0.3,-0.4,-0.6,-0.8,-0.8l-1.5,1.6l-1.5,-1.6c-0.3,0.2,-0.6,0.5,-0.8,0.8Zm29.5,0l-1.5,1.5c0.2,0.3,0.6,0.7,0.8,0.8l1.5,-1.5l1.6,1.5c0.3,-0.1,0.5,-0.5,0.8,-0.8l-1.6,-1.5l1.6,-1.5c-0.3,-0.3,-0.5,-0.6,-0.8,-0.8l-1.6,1.6l-1.5,-1.6c-0.2,0.2,-0.6,0.5,-0.8,0.8Zm-14.7,0l-1.6,1.5c0.3,0.3,0.6,0.7,0.8,0.8l1.6,-1.5l1.5,1.5c0.3,-0.1,0.6,-0.5,0.8,-0.8l-1.5,-1.5l1.5,-1.5c-0.2,-0.3,-0.5,-0.6,-0.8,-0.8l-1.5,1.6l-1.6,-1.6c-0.2,0.2,-0.5,0.5,-0.8,0.8Zm119.6,0l-1.5,1.5c0.3,0.3,0.6,0.7,0.8,0.8l1.5,-1.5l1.6,1.5c0.3,-0.1,0.5,-0.5,0.8,-0.8l-1.6,-1.5l1.6,-1.5c-0.3,-0.3,-0.5,-0.6,-0.8,-0.8l-1.6,1.6l-1.5,-1.6c-0.2,0.2,-0.5,0.5,-0.8,0.8Zm-14.7,0l-1.5,1.5c0.2,0.3,0.5,0.7,0.8,0.8l1.5,-1.5l1.5,1.5c0.3,-0.1,0.6,-0.5,0.8,-0.8l-1.5,-1.5l1.5,-1.5c-0.2,-0.3,-0.5,-0.6,-0.8,-0.8l-1.5,1.6l-1.5,-1.6c-0.3,0.2,-0.6,0.5,-0.8,0.8Zm-44.3,0l-1.5,1.5c0.2,0.3,0.5,0.7,0.8,0.8l1.5,-1.5l1.5,1.5c0.4,-0.1,0.6,-0.5,0.8,-0.8l-1.5,-1.5l1.5,-1.5c-0.2,-0.3,-0.4,-0.6,-0.8,-0.8l-1.5,1.6l-1.5,-1.6c-0.3,0.2,-0.6,0.5,-0.8,0.8Zm29.5,0l-1.5,1.5c0.2,0.3,0.6,0.7,0.8,0.8l1.5,-1.5l1.5,1.5c0.4,-0.1,0.6,-0.5,0.8,-0.8l-1.5,-1.5l1.5,-1.5c-0.2,-0.3,-0.4,-0.6,-0.8,-0.8l-1.5,1.6l-1.5,-1.6c-0.2,0.2,-0.6,0.5,-0.8,0.8Zm-14.7,0l-1.6,1.5c0.3,0.3,0.6,0.7,0.8,0.8l1.6,-1.5l1.5,1.5c0.3,-0.1,0.6,-0.5,0.8,-0.8l-1.5,-1.5l1.5,-1.5c-0.2,-0.3,-0.5,-0.6,-0.8,-0.8l-1.5,1.6l-1.6,-1.6c-0.2,0.2,-0.5,0.5,-0.8,0.8Zm119.6,0l-1.5,1.5c0.2,0.3,0.6,0.7,0.8,0.8l1.5,-1.5l1.6,1.5c0.3,-0.1,0.5,-0.5,0.8,-0.8l-1.6,-1.5l1.6,-1.5c-0.3,-0.3,-0.5,-0.6,-0.8,-0.8l-1.6,1.6l-1.5,-1.6c-0.2,0.2,-0.6,0.5,-0.8,0.8Zm-14.7,0l-1.6,1.5c0.3,0.3,0.6,0.7,0.9,0.8l1.5,-1.5l1.5,1.5c0.3,-0.1,0.6,-0.5,0.8,-0.8l-1.5,-1.5l1.5,-1.5c-0.2,-0.3,-0.5,-0.6,-0.8,-0.8l-1.5,1.6l-1.5,-1.6c-0.3,0.2,-0.6,0.5,-0.9,0.8Zm-44.3,0l-1.5,1.5c0.2,0.3,0.5,0.7,0.8,0.8l1.5,-1.5l1.5,1.5c0.3,-0.1,0.6,-0.5,0.8,-0.8l-1.5,-1.5l1.5,-1.5c-0.2,-0.3,-0.5,-0.6,-0.8,-0.8l-1.5,1.6l-1.5,-1.6c-0.3,0.2,-0.6,0.5,-0.8,0.8Zm29.5,0l-1.5,1.5c0.2,0.3,0.6,0.7,0.8,0.8l1.5,-1.5l1.5,1.5c0.4,-0.1,0.6,-0.5,0.8,-0.8l-1.5,-1.5l1.5,-1.5c-0.2,-0.3,-0.4,-0.6,-0.8,-0.8l-1.5,1.6l-1.5,-1.6c-0.2,0.2,-0.6,0.5,-0.8,0.8Zm-14.7,0l-1.6,1.5c0.3,0.3,0.6,0.7,0.8,0.8l1.6,-1.5l1.5,1.5c0.3,-0.1,0.5,-0.5,0.8,-0.8l-1.5,-1.5l1.5,-1.5c-0.3,-0.3,-0.5,-0.6,-0.8,-0.8l-1.5,1.6l-1.6,-1.6c-0.2,0.2,-0.5,0.5,-0.8,0.8Z" class="g8_4" />
    </g>
    <path d="M0,1190l214,0L214,0L0,0L0,1190Z" class="g9_4" />
    <g clip-path="url(#c0_4)">
        <path d="M210.2,1137.1l1.5,1.6c0.3,-0.3,0.7,-0.6,0.8,-0.9l-1.5,-1.6l1.5,-1.7c-0.1,-0.3,-0.5,-0.6,-0.8,-0.8l-1.5,1.6l-1.4,-1.6c-0.3,0.2,-0.7,0.5,-0.8,0.8l1.5,1.7l-1.5,1.6c0.1,0.3,0.5,0.6,0.8,0.9Zm0,15.9l1.5,1.7c0.3,-0.3,0.7,-0.6,0.8,-0.9l-1.5,-1.6l1.5,-1.7c-0.1,-0.3,-0.5,-0.6,-0.8,-0.8l-1.5,1.6l-1.4,-1.6c-0.3,0.2,-0.7,0.5,-0.8,0.8l1.5,1.7l-1.5,1.6c0.1,0.3,0.5,0.6,0.8,0.9Zm0,48l1.5,1.6c0.3,-0.2,0.7,-0.6,0.8,-0.8l-1.5,-1.7l1.5,-1.6c-0.1,-0.4,-0.5,-0.6,-0.8,-0.9l-1.5,1.7l-1.4,-1.7c-0.3,0.3,-0.7,0.5,-0.8,0.9l1.5,1.6l-1.5,1.7c0.1,0.2,0.5,0.6,0.8,0.8Zm0,-32l1.5,1.7c0.3,-0.3,0.7,-0.6,0.8,-0.9l-1.5,-1.6l1.5,-1.7c-0.1,-0.3,-0.5,-0.6,-0.8,-0.9l-1.5,1.7l-1.4,-1.7c-0.3,0.3,-0.7,0.6,-0.8,0.9l1.5,1.7l-1.5,1.6c0.1,0.3,0.5,0.6,0.8,0.9Zm0,16l1.5,1.7c0.3,-0.3,0.7,-0.7,0.8,-0.9l-1.5,-1.7l1.5,-1.6c-0.1,-0.4,-0.5,-0.6,-0.8,-0.9l-1.5,1.7l-1.4,-1.7c-0.3,0.3,-0.7,0.5,-0.8,0.9l1.5,1.6l-1.5,1.7c0.1,0.2,0.5,0.6,0.8,0.9Zm0,-129.6l1.5,1.7c0.3,-0.3,0.7,-0.6,0.8,-0.9l-1.5,-1.7l1.5,-1.6c-0.1,-0.4,-0.5,-0.6,-0.8,-0.9l-1.5,1.7l-1.4,-1.7c-0.3,0.3,-0.7,0.5,-0.8,0.9l1.5,1.6l-1.5,1.7c0.1,0.3,0.5,0.6,0.8,0.9Zm0,16l1.5,1.6c0.3,-0.2,0.7,-0.6,0.8,-0.8l-1.5,-1.7l1.5,-1.6c-0.1,-0.4,-0.5,-0.6,-0.8,-0.9l-1.5,1.7l-1.4,-1.7c-0.3,0.3,-0.7,0.5,-0.8,0.9l1.5,1.6l-1.5,1.7c0.1,0.2,0.5,0.6,0.8,0.8Zm0,47.9l1.5,1.7c0.3,-0.3,0.7,-0.6,0.8,-0.9l-1.5,-1.6l1.5,-1.7c-0.1,-0.3,-0.5,-0.6,-0.8,-0.8l-1.5,1.6l-1.4,-1.6c-0.3,0.2,-0.7,0.5,-0.8,0.8l1.5,1.7l-1.5,1.6c0.1,0.3,0.5,0.6,0.8,0.9Zm0,-31.9l1.5,1.6c0.3,-0.2,0.7,-0.6,0.8,-0.8l-1.5,-1.7l1.5,-1.6c-0.1,-0.4,-0.5,-0.6,-0.8,-0.9l-1.5,1.6l-1.4,-1.6c-0.3,0.3,-0.7,0.5,-0.8,0.9l1.5,1.6l-1.5,1.7c0.1,0.2,0.5,0.6,0.8,0.8Zm0,16l1.5,1.6c0.3,-0.2,0.7,-0.6,0.8,-0.9l-1.5,-1.6l1.5,-1.7c-0.1,-0.3,-0.5,-0.6,-0.8,-0.8l-1.5,1.6l-1.4,-1.6c-0.3,0.2,-0.7,0.5,-0.8,0.8l1.5,1.7l-1.5,1.6c0.1,0.3,0.5,0.7,0.8,0.9Zm0,-129.6l1.5,1.6c0.3,-0.2,0.7,-0.6,0.8,-0.9L211,972.9l1.5,-1.7c-0.1,-0.3,-0.5,-0.6,-0.8,-0.8l-1.5,1.6l-1.4,-1.6c-0.3,0.2,-0.7,0.5,-0.8,0.8l1.5,1.7l-1.5,1.6c0.1,0.3,0.5,0.7,0.8,0.9Zm0,16l1.5,1.6c0.3,-0.3,0.7,-0.6,0.8,-0.9L211,988.9l1.5,-1.7c-0.1,-0.3,-0.5,-0.6,-0.8,-0.8l-1.5,1.6l-1.4,-1.6c-0.3,0.2,-0.7,0.5,-0.8,0.8l1.5,1.7l-1.5,1.6c0.1,0.3,0.5,0.6,0.8,0.9Zm0,47.9l1.5,1.6c0.3,-0.2,0.7,-0.6,0.8,-0.8l-1.5,-1.7l1.5,-1.6c-0.1,-0.4,-0.5,-0.6,-0.8,-0.9l-1.5,1.7l-1.4,-1.7c-0.3,0.3,-0.7,0.5,-0.8,0.9l1.5,1.6l-1.5,1.7c0.1,0.2,0.5,0.6,0.8,0.8Zm0,-32l1.5,1.7c0.3,-0.3,0.7,-0.6,0.8,-0.9l-1.5,-1.6l1.5,-1.7c-0.1,-0.3,-0.5,-0.6,-0.8,-0.9l-1.5,1.7l-1.4,-1.7c-0.3,0.3,-0.7,0.6,-0.8,0.9l1.5,1.7l-1.5,1.6c0.1,0.3,0.5,0.6,0.8,0.9Zm0,16l1.5,1.7c0.3,-0.3,0.7,-0.6,0.8,-0.9l-1.5,-1.7l1.5,-1.6c-0.1,-0.4,-0.5,-0.6,-0.8,-0.9l-1.5,1.7l-1.4,-1.7c-0.3,0.3,-0.7,0.5,-0.8,0.9l1.5,1.6l-1.5,1.7c0.1,0.3,0.5,0.6,0.8,0.9Zm0,-129.6l1.5,1.7c0.3,-0.3,0.7,-0.6,0.8,-0.9L211,891.3l1.5,-1.7c-0.1,-0.3,-0.5,-0.6,-0.8,-0.9l-1.5,1.7l-1.4,-1.7c-0.3,0.3,-0.7,0.6,-0.8,0.9l1.5,1.7l-1.5,1.6c0.1,0.3,0.5,0.6,0.8,0.9Zm0,16l1.5,1.7c0.3,-0.3,0.7,-0.7,0.8,-0.9L211,907.2l1.5,-1.6c-0.1,-0.4,-0.5,-0.6,-0.8,-0.9l-1.5,1.7l-1.4,-1.7c-0.3,0.3,-0.7,0.5,-0.8,0.9l1.5,1.6l-1.5,1.7c0.1,0.2,0.5,0.6,0.8,0.9Zm0,48l1.5,1.6c0.3,-0.3,0.7,-0.6,0.8,-0.9L211,955.2l1.5,-1.7c-0.1,-0.3,-0.5,-0.6,-0.8,-0.8l-1.5,1.6l-1.4,-1.6c-0.3,0.2,-0.7,0.5,-0.8,0.8l1.5,1.7l-1.5,1.6c0.1,0.3,0.5,0.6,0.8,0.9Zm0,-32l1.5,1.6c0.3,-0.2,0.7,-0.6,0.8,-0.8L211,923.2l1.5,-1.6c-0.1,-0.4,-0.5,-0.6,-0.8,-0.9l-1.5,1.7l-1.4,-1.7c-0.3,0.3,-0.7,0.5,-0.8,0.9l1.5,1.6l-1.5,1.7c0.1,0.2,0.5,0.6,0.8,0.8Zm0,16l1.5,1.6c0.3,-0.2,0.7,-0.6,0.8,-0.8L211,939.2l1.5,-1.6c-0.1,-0.4,-0.5,-0.7,-0.8,-0.9l-1.5,1.6l-1.4,-1.6c-0.3,0.2,-0.7,0.5,-0.8,0.9l1.5,1.6l-1.5,1.7c0.1,0.2,0.5,0.6,0.8,0.8Zm0,-129.6l1.5,1.6c0.3,-0.2,0.7,-0.6,0.8,-0.8L211,809.6l1.5,-1.6c-0.1,-0.4,-0.5,-0.7,-0.8,-0.9l-1.5,1.6l-1.4,-1.6c-0.3,0.2,-0.7,0.5,-0.8,0.9l1.5,1.6l-1.5,1.7c0.1,0.2,0.5,0.6,0.8,0.8Zm0,16l1.5,1.6c0.3,-0.3,0.7,-0.6,0.8,-0.9L211,825.6l1.5,-1.7c-0.1,-0.3,-0.5,-0.6,-0.8,-0.8l-1.5,1.6l-1.4,-1.6c-0.3,0.2,-0.7,0.5,-0.8,0.8l1.5,1.7l-1.5,1.6c0.1,0.3,0.5,0.6,0.8,0.9Zm0,47.9l1.5,1.7c0.3,-0.3,0.7,-0.7,0.8,-0.9L211,873.5l1.5,-1.6c-0.1,-0.4,-0.5,-0.6,-0.8,-0.9l-1.5,1.7L208.8,871c-0.3,0.3,-0.7,0.5,-0.8,0.9l1.5,1.6l-1.5,1.7c0.1,0.2,0.5,0.6,0.8,0.9Zm0,-32l1.5,1.7c0.3,-0.3,0.7,-0.6,0.8,-0.9L211,841.6l1.5,-1.7c-0.1,-0.3,-0.5,-0.6,-0.8,-0.8l-1.5,1.6l-1.4,-1.6c-0.3,0.2,-0.7,0.5,-0.8,0.8l1.5,1.7l-1.5,1.6c0.1,0.3,0.5,0.6,0.8,0.9Zm0,16l1.5,1.7c0.3,-0.3,0.7,-0.6,0.8,-0.9L211,857.6l1.5,-1.7c-0.1,-0.3,-0.5,-0.6,-0.8,-0.9l-1.5,1.7L208.8,855c-0.3,0.3,-0.7,0.6,-0.8,0.9l1.5,1.7l-1.5,1.6c0.1,0.3,0.5,0.6,0.8,0.9Zm0,-129.6l1.5,1.7c0.3,-0.3,0.7,-0.6,0.8,-0.9L211,728l1.5,-1.7c-0.1,-0.3,-0.5,-0.6,-0.8,-0.9l-1.5,1.7l-1.4,-1.7c-0.3,0.3,-0.7,0.6,-0.8,0.9l1.5,1.7l-1.5,1.6c0.1,0.3,0.5,0.6,0.8,0.9Zm0,16l1.5,1.7c0.3,-0.3,0.7,-0.6,0.8,-0.9L211,743.9l1.5,-1.6c-0.1,-0.4,-0.5,-0.6,-0.8,-0.9l-1.5,1.7l-1.4,-1.7c-0.3,0.3,-0.7,0.5,-0.8,0.9l1.5,1.6l-1.5,1.7c0.1,0.3,0.5,0.6,0.8,0.9Zm0,48l1.5,1.6c0.3,-0.3,0.7,-0.6,0.8,-0.9L211,791.9l1.5,-1.7c-0.1,-0.3,-0.5,-0.6,-0.8,-0.8l-1.5,1.6l-1.4,-1.6c-0.3,0.2,-0.7,0.5,-0.8,0.8l1.5,1.7l-1.5,1.6c0.1,0.3,0.5,0.6,0.8,0.9Zm0,-32l1.5,1.6c0.3,-0.2,0.7,-0.6,0.8,-0.8L211,759.9l1.5,-1.6c-0.1,-0.4,-0.5,-0.6,-0.8,-0.9l-1.5,1.7l-1.4,-1.7c-0.3,0.3,-0.7,0.5,-0.8,0.9l1.5,1.6l-1.5,1.7c0.1,0.2,0.5,0.6,0.8,0.8Zm0,16l1.5,1.6c0.3,-0.2,0.7,-0.6,0.8,-0.8L211,775.9l1.5,-1.6c-0.1,-0.4,-0.5,-0.6,-0.8,-0.9l-1.5,1.6l-1.4,-1.6c-0.3,0.3,-0.7,0.5,-0.8,0.9l1.5,1.6l-1.5,1.7c0.1,0.2,0.5,0.6,0.8,0.8Zm0,-129.6l1.5,1.6c0.3,-0.2,0.7,-0.6,0.8,-0.8L211,646.3l1.5,-1.6c-0.1,-0.4,-0.5,-0.6,-0.8,-0.9l-1.5,1.6l-1.4,-1.6c-0.3,0.3,-0.7,0.5,-0.8,0.9l1.5,1.6L208,648c0.1,0.2,0.5,0.6,0.8,0.8Zm0,16l1.5,1.6c0.3,-0.2,0.7,-0.6,0.8,-0.9L211,662.3l1.5,-1.7c-0.1,-0.3,-0.5,-0.6,-0.8,-0.8l-1.5,1.6l-1.4,-1.6c-0.3,0.2,-0.7,0.5,-0.8,0.8l1.5,1.7l-1.5,1.6c0.1,0.3,0.5,0.7,0.8,0.9Zm0,47.9l1.5,1.7c0.3,-0.3,0.7,-0.6,0.8,-0.9L211,710.2l1.5,-1.6c-0.1,-0.4,-0.5,-0.6,-0.8,-0.9l-1.5,1.7l-1.4,-1.7c-0.3,0.3,-0.7,0.5,-0.8,0.9l1.5,1.6l-1.5,1.7c0.1,0.3,0.5,0.6,0.8,0.9Zm0,-31.9l1.5,1.6c0.3,-0.3,0.7,-0.6,0.8,-0.9L211,678.3l1.5,-1.7c-0.1,-0.3,-0.5,-0.6,-0.8,-0.8l-1.5,1.6l-1.4,-1.6c-0.3,0.2,-0.7,0.5,-0.8,0.8l1.5,1.7l-1.5,1.6c0.1,0.3,0.5,0.6,0.8,0.9Zm0,15.9l1.5,1.7c0.3,-0.3,0.7,-0.6,0.8,-0.9L211,694.3l1.5,-1.7c-0.1,-0.3,-0.5,-0.6,-0.8,-0.9l-1.5,1.7l-1.4,-1.7c-0.3,0.3,-0.7,0.6,-0.8,0.9l1.5,1.7l-1.5,1.6c0.1,0.3,0.5,0.6,0.8,0.9Zm0,-129.6l1.5,1.7c0.3,-0.3,0.7,-0.6,0.8,-0.9L211,564.7l1.5,-1.7c-0.1,-0.3,-0.5,-0.6,-0.8,-0.8l-1.5,1.6l-1.4,-1.6c-0.3,0.2,-0.7,0.5,-0.8,0.8l1.5,1.7l-1.5,1.6c0.1,0.3,0.5,0.6,0.8,0.9Zm0,16l1.5,1.7c0.3,-0.3,0.7,-0.6,0.8,-0.9L211,580.7l1.5,-1.7c-0.1,-0.3,-0.5,-0.6,-0.8,-0.9l-1.5,1.7l-1.4,-1.7c-0.3,0.3,-0.7,0.6,-0.8,0.9l1.5,1.7l-1.5,1.6c0.1,0.3,0.5,0.6,0.8,0.9Zm0,48l1.5,1.6c0.3,-0.2,0.7,-0.6,0.8,-0.8L211,628.6l1.5,-1.7c-0.1,-0.3,-0.5,-0.6,-0.8,-0.8l-1.5,1.6l-1.4,-1.6c-0.3,0.2,-0.7,0.5,-0.8,0.8l1.5,1.7l-1.5,1.7c0.1,0.2,0.5,0.6,0.8,0.8Zm0,-32l1.5,1.7c0.3,-0.3,0.7,-0.7,0.8,-0.9L211,596.6l1.5,-1.6c-0.1,-0.4,-0.5,-0.6,-0.8,-0.9l-1.5,1.7l-1.4,-1.7c-0.3,0.3,-0.7,0.5,-0.8,0.9l1.5,1.6l-1.5,1.7c0.1,0.2,0.5,0.6,0.8,0.9Zm0,16l1.5,1.6c0.3,-0.2,0.7,-0.6,0.8,-0.8L211,612.6l1.5,-1.6c-0.1,-0.4,-0.5,-0.6,-0.8,-0.9l-1.5,1.7l-1.4,-1.7c-0.3,0.3,-0.7,0.5,-0.8,0.9l1.5,1.6l-1.5,1.7c0.1,0.2,0.5,0.6,0.8,0.8Zm0,-129.6l1.5,1.6c0.3,-0.2,0.7,-0.6,0.8,-0.8L211,483l1.5,-1.6c-0.1,-0.4,-0.5,-0.6,-0.8,-0.9l-1.5,1.7l-1.4,-1.7c-0.3,0.3,-0.7,0.5,-0.8,0.9l1.5,1.6l-1.5,1.7c0.1,0.2,0.5,0.6,0.8,0.8Zm0,16l1.5,1.6c0.3,-0.2,0.7,-0.6,0.8,-0.8L211,499l1.5,-1.6c-0.1,-0.4,-0.5,-0.6,-0.8,-0.9l-1.5,1.6l-1.4,-1.6c-0.3,0.3,-0.7,0.5,-0.8,0.9l1.5,1.6l-1.5,1.7c0.1,0.2,0.5,0.6,0.8,0.8Zm0,47.9l1.5,1.7c0.3,-0.3,0.7,-0.6,0.8,-0.9L211,547l1.5,-1.7c-0.1,-0.3,-0.5,-0.6,-0.8,-0.9l-1.5,1.7l-1.4,-1.7c-0.3,0.3,-0.7,0.6,-0.8,0.9l1.5,1.7l-1.5,1.6c0.1,0.3,0.5,0.6,0.8,0.9Zm0,-31.9l1.5,1.6c0.3,-0.3,0.7,-0.6,0.8,-0.9L211,515l1.5,-1.7c-0.1,-0.3,-0.5,-0.6,-0.8,-0.8l-1.5,1.6l-1.4,-1.6c-0.3,0.2,-0.7,0.5,-0.8,0.8l1.5,1.7l-1.5,1.6c0.1,0.3,0.5,0.6,0.8,0.9Zm0,15.9l1.5,1.7c0.3,-0.3,0.7,-0.6,0.8,-0.9L211,531l1.5,-1.7c-0.1,-0.3,-0.5,-0.6,-0.8,-0.8l-1.5,1.6l-1.4,-1.6c-0.3,0.2,-0.7,0.5,-0.8,0.8l1.5,1.7l-1.5,1.6c0.1,0.3,0.5,0.6,0.8,0.9Zm0,-129.5l1.5,1.6c0.3,-0.3,0.7,-0.6,0.8,-0.9L211,401.4l1.5,-1.7c-0.1,-0.3,-0.5,-0.6,-0.8,-0.8l-1.5,1.6l-1.4,-1.6c-0.3,0.2,-0.7,0.5,-0.8,0.8l1.5,1.7L208,403c0.1,0.3,0.5,0.6,0.8,0.9Zm0,15.9l1.5,1.7c0.3,-0.3,0.7,-0.6,0.8,-0.9L211,417.4l1.5,-1.7c-0.1,-0.3,-0.5,-0.6,-0.8,-0.9l-1.5,1.7l-1.4,-1.7c-0.3,0.3,-0.7,0.6,-0.8,0.9l1.5,1.7L208,419c0.1,0.3,0.5,0.6,0.8,0.9Zm0,48l1.5,1.6c0.3,-0.2,0.7,-0.6,0.8,-0.8L211,465.3l1.5,-1.6c-0.1,-0.4,-0.5,-0.6,-0.8,-0.9l-1.5,1.6l-1.4,-1.6c-0.3,0.3,-0.7,0.5,-0.8,0.9l1.5,1.6L208,467c0.1,0.2,0.5,0.6,0.8,0.8Zm0,-32l1.5,1.7c0.3,-0.3,0.7,-0.6,0.8,-0.9L211,433.3l1.5,-1.6c-0.1,-0.4,-0.5,-0.6,-0.8,-0.9l-1.5,1.7l-1.4,-1.7c-0.3,0.3,-0.7,0.5,-0.8,0.9l1.5,1.6L208,435c0.1,0.3,0.5,0.6,0.8,0.9Zm0,16l1.5,1.6c0.3,-0.2,0.7,-0.6,0.8,-0.8L211,449.3l1.5,-1.6c-0.1,-0.4,-0.5,-0.6,-0.8,-0.9l-1.5,1.7l-1.4,-1.7c-0.3,0.3,-0.7,0.5,-0.8,0.9l1.5,1.6L208,451c0.1,0.2,0.5,0.6,0.8,0.8Zm0,-129.6l1.5,1.7c0.3,-0.3,0.7,-0.7,0.8,-0.9L211,319.7l1.5,-1.6c-0.1,-0.4,-0.5,-0.6,-0.8,-0.9l-1.5,1.7l-1.4,-1.7c-0.3,0.3,-0.7,0.5,-0.8,0.9l1.5,1.6l-1.5,1.7c0.1,0.2,0.5,0.6,0.8,0.9Zm0,16l1.5,1.6c0.3,-0.2,0.7,-0.6,0.8,-0.8L211,335.7l1.5,-1.6c-0.1,-0.4,-0.5,-0.6,-0.8,-0.9l-1.5,1.6l-1.4,-1.6c-0.3,0.3,-0.7,0.5,-0.8,0.9l1.5,1.6l-1.5,1.7c0.1,0.2,0.5,0.6,0.8,0.8Zm0,47.9l1.5,1.7c0.3,-0.3,0.7,-0.6,0.8,-0.9L211,383.7l1.5,-1.7c-0.1,-0.3,-0.5,-0.6,-0.8,-0.9l-1.5,1.7l-1.4,-1.7c-0.3,0.3,-0.7,0.6,-0.8,0.9l1.5,1.7l-1.5,1.6c0.1,0.3,0.5,0.6,0.8,0.9Zm0,-31.9l1.5,1.6c0.3,-0.2,0.7,-0.6,0.8,-0.8L211,351.7l1.5,-1.7c-0.1,-0.3,-0.5,-0.6,-0.8,-0.8l-1.5,1.6l-1.4,-1.6c-0.3,0.2,-0.7,0.5,-0.8,0.8l1.5,1.7l-1.5,1.7c0.1,0.2,0.5,0.6,0.8,0.8Zm0,16l1.5,1.6c0.3,-0.3,0.7,-0.6,0.8,-0.9L211,367.7l1.5,-1.7c-0.1,-0.3,-0.5,-0.6,-0.8,-0.8l-1.5,1.6l-1.4,-1.6c-0.3,0.2,-0.7,0.5,-0.8,0.8l1.5,1.7l-1.5,1.6c0.1,0.3,0.5,0.6,0.8,0.9Zm0,-129.6l1.5,1.6c0.3,-0.3,0.7,-0.6,0.8,-0.9L211,238.1l1.5,-1.7c-0.1,-0.3,-0.5,-0.6,-0.8,-0.8l-1.5,1.6l-1.4,-1.6c-0.3,0.2,-0.7,0.5,-0.8,0.8l1.5,1.7l-1.5,1.6c0.1,0.3,0.5,0.6,0.8,0.9Zm0,15.9l1.5,1.7c0.3,-0.3,0.7,-0.6,0.8,-0.9L211,254.1l1.5,-1.7c-0.1,-0.3,-0.5,-0.6,-0.8,-0.8l-1.5,1.6l-1.4,-1.6c-0.3,0.2,-0.7,0.5,-0.8,0.8l1.5,1.7l-1.5,1.6c0.1,0.3,0.5,0.6,0.8,0.9Zm0,48l1.5,1.6c0.3,-0.2,0.7,-0.6,0.8,-0.8L211,302l1.5,-1.6c-0.1,-0.4,-0.5,-0.6,-0.8,-0.9l-1.5,1.6l-1.4,-1.6c-0.3,0.3,-0.7,0.5,-0.8,0.9l1.5,1.6l-1.5,1.7c0.1,0.2,0.5,0.6,0.8,0.8Zm0,-32l1.5,1.7c0.3,-0.3,0.7,-0.6,0.8,-0.9L211,270.1l1.5,-1.7c-0.1,-0.3,-0.5,-0.6,-0.8,-0.9l-1.5,1.7l-1.4,-1.7c-0.3,0.3,-0.7,0.6,-0.8,0.9l1.5,1.7l-1.5,1.6c0.1,0.3,0.5,0.6,0.8,0.9Zm0,16l1.5,1.7c0.3,-0.3,0.7,-0.7,0.8,-0.9L211,286l1.5,-1.6c-0.1,-0.4,-0.5,-0.6,-0.8,-0.9l-1.5,1.7l-1.4,-1.7c-0.3,0.3,-0.7,0.5,-0.8,0.9l1.5,1.6l-1.5,1.7c0.1,0.2,0.5,0.6,0.8,0.9Zm0,-129.6l1.5,1.7c0.3,-0.3,0.7,-0.6,0.8,-0.9L211,156.4l1.5,-1.6c-0.1,-0.4,-0.5,-0.6,-0.8,-0.9l-1.5,1.7l-1.4,-1.7c-0.3,0.3,-0.7,0.5,-0.8,0.9l1.5,1.6l-1.5,1.7c0.1,0.3,0.5,0.6,0.8,0.9Zm0,16l1.5,1.6c0.3,-0.2,0.7,-0.6,0.8,-0.8L211,172.4l1.5,-1.6c-0.1,-0.4,-0.5,-0.6,-0.8,-0.9l-1.5,1.7l-1.4,-1.7c-0.3,0.3,-0.7,0.5,-0.8,0.9l1.5,1.6l-1.5,1.7c0.1,0.2,0.5,0.6,0.8,0.8Zm0,47.9l1.5,1.7c0.3,-0.3,0.7,-0.6,0.8,-0.9L211,220.4l1.5,-1.7c-0.1,-0.3,-0.5,-0.6,-0.8,-0.8l-1.5,1.6l-1.4,-1.6c-0.3,0.2,-0.7,0.5,-0.8,0.8l1.5,1.7L208,222c0.1,0.3,0.5,0.6,0.8,0.9Zm0,-31.9l1.5,1.6c0.3,-0.2,0.7,-0.6,0.8,-0.8L211,188.4l1.5,-1.6c-0.1,-0.4,-0.5,-0.6,-0.8,-0.9l-1.5,1.6l-1.4,-1.6c-0.3,0.3,-0.7,0.5,-0.8,0.9l1.5,1.6l-1.5,1.7c0.1,0.2,0.5,0.6,0.8,0.8Zm0,16l1.5,1.6c0.3,-0.3,0.7,-0.6,0.8,-0.9L211,204.4l1.5,-1.7c-0.1,-0.3,-0.5,-0.6,-0.8,-0.8l-1.5,1.6l-1.4,-1.6c-0.3,0.2,-0.7,0.5,-0.8,0.8l1.5,1.7L208,206c0.1,0.3,0.5,0.6,0.8,0.9Zm0,-129.6l1.5,1.6c0.3,-0.2,0.7,-0.6,0.8,-0.8L211,74.8l1.5,-1.7c-0.1,-0.3,-0.5,-0.6,-0.8,-0.8l-1.5,1.6l-1.4,-1.6c-0.3,0.2,-0.7,0.5,-0.8,0.8l1.5,1.7L208,76.5c0.1,0.2,0.5,0.6,0.8,0.8Zm0,16l1.5,1.6c0.3,-0.3,0.7,-0.6,0.8,-0.9L211,90.8l1.5,-1.7c-0.1,-0.3,-0.5,-0.6,-0.8,-0.8l-1.5,1.6l-1.4,-1.6c-0.3,0.2,-0.7,0.5,-0.8,0.8l1.5,1.7L208,92.4c0.1,0.3,0.5,0.6,0.8,0.9Zm0,47.9l1.5,1.6c0.3,-0.2,0.7,-0.6,0.8,-0.8L211,138.7l1.5,-1.6c-0.1,-0.4,-0.5,-0.6,-0.8,-0.9l-1.5,1.7l-1.4,-1.7c-0.3,0.3,-0.7,0.5,-0.8,0.9l1.5,1.6l-1.5,1.7c0.1,0.2,0.5,0.6,0.8,0.8Zm0,-32l1.5,1.7c0.3,-0.3,0.7,-0.6,0.8,-0.9L211,106.8l1.5,-1.7c-0.1,-0.3,-0.5,-0.6,-0.8,-0.9l-1.5,1.7l-1.4,-1.7c-0.3,0.3,-0.7,0.6,-0.8,0.9l1.5,1.7l-1.5,1.6c0.1,0.3,0.5,0.6,0.8,0.9Zm0,16l1.5,1.7c0.3,-0.3,0.7,-0.6,0.8,-0.9L211,122.7l1.5,-1.6c-0.1,-0.4,-0.5,-0.6,-0.8,-0.9l-1.5,1.7l-1.4,-1.7c-0.3,0.3,-0.7,0.5,-0.8,0.9l1.5,1.6l-1.5,1.7c0.1,0.3,0.5,0.6,0.8,0.9Zm0,-126l1.5,1.6c0.3,-0.2,0.7,-0.6,0.8,-0.8L211,-3.3l1.5,-1.6c-0.1,-0.4,-0.5,-0.6,-0.8,-0.9l-1.5,1.7l-1.4,-1.7c-0.3,0.3,-0.7,0.5,-0.8,0.9l1.5,1.6L208,-1.6c0.1,0.2,0.5,0.6,0.8,0.8Zm0,15.9l1.5,1.6c0.3,-0.2,0.7,-0.6,0.8,-0.8L211,12.6L212.5,11c-0.1,-0.4,-0.5,-0.6,-0.8,-0.9l-1.5,1.6l-1.4,-1.6c-0.3,0.3,-0.7,0.5,-0.8,0.9l1.5,1.6L208,14.3c0.1,0.2,0.5,0.6,0.8,0.8Zm0,47.9l1.5,1.7c0.3,-0.3,0.7,-0.6,0.8,-0.9L211,60.6l1.5,-1.7C212.4,58.6,212,58.3,211.7,58l-1.5,1.7L208.8,58c-0.3,0.3,-0.7,0.6,-0.8,0.9l1.5,1.7L208,62.2c0.1,0.3,0.5,0.6,0.8,0.9Zm0,-31.9l1.5,1.6c0.3,-0.2,0.7,-0.6,0.8,-0.9L211,28.6l1.5,-1.7c-0.1,-0.3,-0.5,-0.6,-0.8,-0.8l-1.5,1.6l-1.4,-1.6c-0.3,0.2,-0.7,0.5,-0.8,0.8l1.5,1.7L208,30.2c0.1,0.3,0.5,0.7,0.8,0.9Zm0,15.9l1.5,1.7c0.3,-0.3,0.7,-0.6,0.8,-0.9L211,44.6l1.5,-1.7c-0.1,-0.3,-0.5,-0.6,-0.8,-0.8l-1.5,1.6l-1.4,-1.6c-0.3,0.2,-0.7,0.5,-0.8,0.8l1.5,1.7L208,46.2c0.1,0.3,0.5,0.6,0.8,0.9Z" class="g1_4" />
    </g>
    <path d="M281.8,30.7c-3,-0.4,-6.1,0,-9,0.3c-6.6,0.6,-12.4,5.6,-13.8,12.7c-0.2,1.6,-0.4,3.3,-0.7,4.7c0.2,4.5,1.2,8.4,3.7,11.8c3.4,4.9,8,8,13.7,9.3c5.6,1.4,10.4,-0.7,14.2,-4.4c2.8,-2.8,4.8,-6.3,5.3,-10.4c0.2,-0.8,0.3,-1.7,0.5,-2.4c1.1,-4.4,0,-8.6,-1.9,-12.4c-2.4,-4.9,-6.3,-8.3,-12,-9.2Z" class="g10_4" />
    <path d="M62.8,960.1c0,0,-4,0,-4,4l0,20.6c0,0,0,4,4,4l93,0c0,0,4,0,4,-4l0,-20.6c0,0,0,-4,-4,-4Z" class="g11_4" />
    <path d="M62.8,960.1c0,0,-4,0,-4,4l0,20.6c0,0,0,4,4,4l93,0c0,0,4,0,4,-4l0,-20.6c0,0,0,-4,-4,-4l-93,0Z" class="g12_4" />
    <path d="M64.3,962.4l-0.6,-4.5m-0.9,5l-2,-4.2m1.1,4.9l-3.7,-2.7m3.2,3.8L56.8,964m4.5,2.6l-4.6,0m4.6,2.3l-4.6,0m4.6,2.3l-4.6,0m4.6,2.3l-4.6,0m4.6,2.3l-4.6,0m4.6,2.3l-4.6,0m4.6,2.4l-4.6,0m4.6,2.3l-4.6,0m4.7,1.4l-4.3,1.6m5,-0.3l-3.4,3m4.5,-2.3l-1.8,4.2m3.2,-4l0,4.6m2.3,-4.6l0,4.6m2.3,-4.6l0,4.6m2.3,-4.6l0,4.6m2.3,-4.6l0,4.6m2.3,-4.6l0,4.6m2.3,-4.6l0,4.6m2.3,-4.6l0,4.6M83,986.4l0,4.6m2.3,-4.6l0,4.6m2.3,-4.6l0,4.6m2.3,-4.6l0,4.6m2.3,-4.6l0,4.6m2.3,-4.6l0,4.6m2.4,-4.6l0,4.6m2.3,-4.6l0,4.6m2.3,-4.6l0,4.6m2.3,-4.6l0,4.6m2.3,-4.6l0,4.6m2.3,-4.6l0,4.6m2.3,-4.6l0,4.6m2.3,-4.6l0,4.6m2.3,-4.6l0,4.6m2.3,-4.6l0,4.6m2.3,-4.6l0,4.6m2.3,-4.6l0,4.6m2.3,-4.6l0,4.6m2.3,-4.6l0,4.6m2.3,-4.6l0,4.6m2.4,-4.6l0,4.6m2.3,-4.6l0,4.6m2.3,-4.6l0,4.6m2.3,-4.6l0,4.6m2.3,-4.6l0,4.6m2.3,-4.6l0,4.6m2.3,-4.6l0,4.6m2.3,-4.6l0,4.6m2.3,-4.6l0,4.6m2.3,-4.6l0,4.6m2.2,-4.6l0.2,4.6m1.2,-4.9l1.9,4.2M157,985.4l3.3,3.1m-2.8,-4.2l4.5,1.2m-4.3,-2.9l4.6,0m-4.6,-2.3l4.6,0M157.7,978l4.6,0m-4.6,-2.3l4.6,0m-4.6,-2.3l4.6,0m-4.6,-2.3l4.6,0m-4.6,-2.3l4.6,0m-4.6,-2.3l4.6,0m-4.7,-1.7l4.4,-1.2m-5.1,-0.1l3.8,-2.7m-4.5,2l1.7,-4.2m-3.2,3.8l0.2,-4.5m-2.4,4.5l0,-4.5m-2.3,4.5l0,-4.5m-2.3,4.5l0,-4.5m-2.3,4.5l0,-4.5m-2.3,4.5l0,-4.5m-2.3,4.5l0,-4.5m-2.3,4.5l0,-4.5m-2.3,4.5l0,-4.5m-2.3,4.5l0,-4.5m-2.3,4.5l0,-4.5m-2.4,4.5l0,-4.5m-2.3,4.5l0,-4.5m-2.3,4.5l0,-4.5m-2.3,4.5l0,-4.5m-2.3,4.5l0,-4.5m-2.3,4.5l0,-4.5m-2.3,4.5l0,-4.5m-2.3,4.5l0,-4.5m-2.3,4.5l0,-4.5m-2.3,4.5l0,-4.5m-2.3,4.5l0,-4.5m-2.3,4.5l0,-4.5m-2.3,4.5l0,-4.5m-2.3,4.5l0,-4.5m-2.3,4.5l0,-4.5m-2.3,4.5l0,-4.5m-2.4,4.5l0,-4.5m-2.3,4.5l0,-4.5m-2.3,4.5l0,-4.5m-2.3,4.5l0,-4.5m-2.3,4.5l0,-4.5M81,962.4l0,-4.5m-2.3,4.5l0,-4.5m-2.3,4.5l0,-4.5m-2.3,4.5l0,-4.5m-2.3,4.5l0,-4.5m-2.3,4.5l0,-4.5m-2.3,4.5l0,-4.5m-2.3,4.5l0,-4.5" class="g13_4" />
    <image x="68" y="856" width="77" height="71" xlink:href="https://majemastoragelive.blob.core.windows.net/learn-english-test/ebook/Grade3/Goodtoknow/page2/img/17.png" />
    <image x="65" y="727" width="85" height="85" xlink:href="https://majemastoragelive.blob.core.windows.net/learn-english-test/ebook/Grade3/Goodtoknow/page2/img/18.png" />
    <use x="0" y="-15" xlink:href="#button" />
    <use x="0" y="-83" xlink:href="#button" />
</svg>
