<?xml version="1.0" encoding="UTF-8" standalone="no"?>
<!DOCTYPE svg PUBLIC "-//W3C//DTD SVG 1.1//EN"
"http://www.w3.org/Graphics/SVG/1.1/DTD/svg11.dtd">
<svg version="1.1" xmlns="http://www.w3.org/2000/svg" xmlns:xlink="http://www.w3.org/1999/xlink">
<defs>
<clipPath id="c0_6"><path d="M0.5,1190.5L0.5,0.5l1160,0l0,1190Z" /></clipPath>
<style type="text/css"><![CDATA[
	.btn_bg {
            fill: #00A1BE;
        }
        
        .btn_bortercolor {
            fill: none;
            stroke: #6DC6DA;
            stroke-width: 5;
            stroke-linecap: butt;
            stroke-linejoin: miter;
            stroke-miterlimit: 4;
        }
        
        .btn_border {
            fill: none;
            stroke: #FFFFFF;
            stroke-width: 1;
            stroke-linecap: butt;
            stroke-linejoin: miter;
            stroke-miterlimit: 4;
        }
        
.g8_6{
fill: none;
stroke: #74CAF2;
stroke-width: 3;
stroke-linecap: butt;
stroke-linejoin: miter;
stroke-miterlimit: 4;
}
.g3_6{
fill: #FFFFFF;
}
.g2_6{
fill: #00BEFF;
}
.g1_6{
fill: #74CAF2;
}
.g10_6{
fill: none;
stroke: #62BDCE;
stroke-width: 5;
stroke-linecap: butt;
stroke-linejoin: miter;
stroke-miterlimit: 4;
}
.g7_6{
fill: none;
stroke: #74CAF2;
stroke-width: 2;
stroke-linecap: round;
stroke-linejoin: round;
stroke-miterlimit: 4;
}
.g4_6{
fill: #93D5F5;
}
.g11_6{
fill: none;
stroke: #FFFFFF;
stroke-width: 1;
stroke-linecap: butt;
stroke-linejoin: miter;
stroke-miterlimit: 4;
}
.g6_6{
fill: none;
stroke: #74CAF2;
stroke-width: 2;
stroke-linecap: round;
stroke-linejoin: round;
stroke-miterlimit: 4;
stroke-dasharray: 1,4;
}
.g5_6{
fill: none;
stroke: #C8C8C7;
stroke-width: 1;
stroke-linecap: butt;
stroke-linejoin: miter;
stroke-miterlimit: 4;
}
.g9_6{
fill: #0099B4;
}
]]></style>
</defs>
 <g id="button" transform="translate(47,298.5)">
        <path d="M7.4,2.3c0,0,-4.7,0,-4.7,4l0,20.6c0,0,0,3.9,4.7,3.9l110.3,0c0,0,4.7,0,4.7,-3.9l0,-20.6c0,0,0,-4,-4.7,-4Z" class="btn_bg" />
        <path d="M7.4,2.3c0,0,-4.7,0,-4.7,4l0,20.6c0,0,0,3.9,4.7,3.9l110.3,0c0,0,4.7,0,4.7,-3.9l0,-20.6c0,0,0,-4,-4.7,-4l-110.3,0Z" class="btn_bortercolor" />
        <path d="M9.2,4.6L8.6,0m-1.2,5l-2.3,-4.1m1.3,4.8L2,3m3.8,3.8l-5.4,-0.7m5.2,2.7l-5.4,0m5.4,2.3l-5.4,0m5.4,2.3l-5.4,0m5.4,2.3l-5.4,0m5.4,2.3l-5.4,0m5.4,2.3l-5.4,0m5.4,2.3l-5.4,0m5.4,2.3l-5.4,0m5.6,1.5L0.7,28m6,-0.4l-4.1,3.1m5.3,-2.4l-2.1,4.3m3.8,-4.1l0,4.6m2.7,-4.6l0,4.6" class="btn_border" />
        <path d="M15,28.5l0,4.6m2.8,-4.6l0,4.6m2.7,-4.6l0,4.6m2.7,-4.6l0,4.6" class="btn_border" />
        <path d="M26,28.5l0,4.6m2.7,-4.6l0,4.6m2.7,-4.6l0,4.6m2.8,-4.6l0,4.6m2.7,-4.6l0,4.6m2.7,-4.6l0,4.6m2.8,-4.6l0,4.6m2.7,-4.6l0,4.6m2.7,-4.6l0,4.6m2.8,-4.6l0,4.6m2.7,-4.6l0,4.6m2.7,-4.6l0,4.6m2.8,-4.6l0,4.6m2.7,-4.6l0,4.6m2.7,-4.6l0,4.6m2.8,-4.6l0,4.6m2.7,-4.6l0,4.6m2.7,-4.6l0,4.6m2.8,-4.6l0,4.6m2.7,-4.6l0,4.6m2.7,-4.6l0,4.6m2.8,-4.6l0,4.6m2.7,-4.6l0,4.6m2.7,-4.6l0,4.6m2.7,-4.6l0,4.6m2.8,-4.6l0,4.6m2.7,-4.6l0,4.6m2.7,-4.6l0,4.6m2.8,-4.6l0,4.6m2.7,-4.6l0,4.6m2.7,-4.6l0,4.6m2.8,-4.6l0,4.6m2.7,-4.6l0,4.6m2.6,-4.6l0.3,4.6m1.4,-4.8l2.3,4.1m-1,-4.9l4,3.1m-3.3,-4.2l5.3,1.3m-5.1,-2.9l5.4,0m-5.4,-2.3l5.4,0m-5.4,-2.3l5.4,0m-5.4,-2.3l5.4,0m-5.4,-2.3l5.4,0m-5.4,-2.4l5.4,0m-5.4,-2.3l5.4,0m-5.4,-2.3l5.4,0" class="btn_border" />
        <path d="M119.8,7l5.2,-1.3m-6,-0.1l4.4,-2.7m-5.3,2l2.1,-4.2m-3.8,3.9l0.2,-4.6m-2.8,4.6l0,-4.6m-2.8,4.6l0,-4.6m-2.7,4.6l0,-4.6m-2.7,4.6l0,-4.6m-2.8,4.6l0,-4.6m-2.7,4.6l0,-4.6m-2.7,4.6l0,-4.6m-2.8,4.6l0,-4.6m-2.7,4.6l0,-4.6m-2.7,4.6l0,-4.6m-2.8,4.6l0,-4.6m-2.7,4.6l0,-4.6m-2.7,4.6l0,-4.6m-2.8,4.6l0,-4.6m-2.7,4.6l0,-4.6m-2.7,4.6l0,-4.6m-2.8,4.6l0,-4.6m-2.7,4.6l0,-4.6m-2.7,4.6l0,-4.6m-2.8,4.6l0,-4.6m-2.7,4.6l0,-4.6m-2.7,4.6l0,-4.6m-2.8,4.6l0,-4.6m-2.7,4.6l0,-4.6m-2.7,4.6l0,-4.6m-2.8,4.6l0,-4.6m-2.7,4.6l0,-4.6" class="btn_border" />
        <path d="M40,4.6L40,0m-2.8,4.6l0,-4.6m-2.7,4.6l0,-4.6m-2.7,4.6l0,-4.6m-2.7,4.6l0,-4.6m-2.8,4.6l0,-4.6m-2.7,4.6l0,-4.6m-2.7,4.6l0,-4.6m-2.8,4.6l0,-4.6m-2.7,4.6l0,-4.6m-2.7,4.6l0,-4.6m-2.8,4.6l0,-4.6" class="btn_border" />
    </g>
<g clip-path="url(#c0_6)">
<path d="M255.1,43l-1.5,1.5c0.2,0.3,0.5,0.7,0.8,0.8l1.5,-1.5l1.5,1.5c0.3,-0.1,0.6,-0.5,0.8,-0.8L256.7,43l1.5,-1.4c-0.2,-0.4,-0.5,-0.7,-0.8,-0.8l-1.5,1.5l-1.5,-1.5c-0.3,0.1,-0.6,0.4,-0.8,0.8Zm-14.8,0l-1.5,1.5c0.2,0.3,0.6,0.7,0.8,0.8l1.5,-1.5l1.5,1.5c0.4,-0.1,0.6,-0.5,0.9,-0.8L241.9,43l1.6,-1.4c-0.3,-0.4,-0.5,-0.7,-0.9,-0.8l-1.5,1.5l-1.5,-1.5c-0.2,0.1,-0.6,0.4,-0.8,0.8ZM196,43l-1.5,1.5c0.3,0.3,0.6,0.7,0.8,0.8l1.5,-1.5l1.6,1.5c0.3,-0.1,0.5,-0.5,0.8,-0.8L197.7,43l1.5,-1.4c-0.3,-0.4,-0.5,-0.7,-0.8,-0.8l-1.6,1.5l-1.5,-1.5c-0.2,0.1,-0.5,0.4,-0.8,0.8Zm29.6,0L224,44.5c0.3,0.3,0.6,0.7,0.8,0.8l1.6,-1.5l1.5,1.5c0.3,-0.1,0.6,-0.5,0.8,-0.8L227.2,43l1.5,-1.4c-0.2,-0.4,-0.5,-0.7,-0.8,-0.8l-1.5,1.5l-1.6,-1.5c-0.2,0.1,-0.5,0.4,-0.8,0.8Zm-14.8,0l-1.5,1.5c0.2,0.3,0.5,0.7,0.8,0.8l1.5,-1.5l1.5,1.5c0.4,-0.1,0.6,-0.5,0.8,-0.8L212.4,43l1.5,-1.4c-0.2,-0.4,-0.4,-0.7,-0.8,-0.8l-1.5,1.5l-1.5,-1.5c-0.3,0.1,-0.6,0.4,-0.8,0.8Zm119.7,0l-1.6,1.5c0.3,0.3,0.6,0.7,0.9,0.8l1.5,-1.5l1.5,1.5c0.3,-0.1,0.6,-0.5,0.8,-0.8L332.1,43l1.5,-1.4c-0.2,-0.4,-0.5,-0.7,-0.8,-0.8l-1.5,1.5l-1.5,-1.5c-0.3,0.1,-0.6,0.4,-0.9,0.8Zm-14.8,0l-1.5,1.5c0.2,0.3,0.6,0.7,0.8,0.8l1.5,-1.5l1.5,1.5c0.4,-0.1,0.6,-0.5,0.8,-0.8L317.3,43l1.5,-1.4c-0.2,-0.4,-0.4,-0.7,-0.8,-0.8l-1.5,1.5L315,40.8c-0.2,0.1,-0.6,0.4,-0.8,0.8Zm-44.3,0l-1.5,1.5c0.3,0.3,0.6,0.7,0.8,0.8l1.5,-1.5l1.6,1.5c0.3,-0.1,0.5,-0.5,0.8,-0.8L273,43l1.6,-1.4c-0.3,-0.4,-0.5,-0.7,-0.8,-0.8l-1.6,1.5l-1.5,-1.5c-0.2,0.1,-0.5,0.4,-0.8,0.8ZM301,43l-1.6,1.5c0.3,0.3,0.6,0.7,0.8,0.8l1.6,-1.5l1.5,1.5c0.3,-0.1,0.5,-0.5,0.8,-0.8L302.6,43l1.5,-1.4c-0.3,-0.4,-0.5,-0.7,-0.8,-0.8l-1.5,1.5l-1.6,-1.5c-0.2,0.1,-0.5,0.4,-0.8,0.8Zm-14.8,0l-1.5,1.5c0.2,0.3,0.5,0.7,0.8,0.8L287,43.8l1.5,1.5c0.3,-0.1,0.6,-0.5,0.8,-0.8L287.8,43l1.5,-1.4c-0.2,-0.4,-0.5,-0.7,-0.8,-0.8L287,42.3l-1.5,-1.5c-0.3,0.1,-0.6,0.4,-0.8,0.8Zm119.7,0l-1.6,1.5c0.3,0.3,0.6,0.7,0.8,0.8l1.6,-1.5l1.5,1.5c0.3,-0.1,0.6,-0.5,0.8,-0.8L407.5,43L409,41.6c-0.2,-0.4,-0.5,-0.7,-0.8,-0.8l-1.5,1.5l-1.6,-1.5c-0.2,0.1,-0.5,0.4,-0.8,0.8Zm-14.8,0l-1.5,1.5c0.2,0.3,0.5,0.7,0.8,0.8l1.5,-1.5l1.5,1.5c0.4,-0.1,0.6,-0.5,0.8,-0.8L392.7,43l1.5,-1.4c-0.2,-0.4,-0.4,-0.7,-0.8,-0.8l-1.5,1.5l-1.5,-1.5c-0.3,0.1,-0.6,0.4,-0.8,0.8Zm-44.3,0l-1.5,1.5c0.3,0.3,0.6,0.7,0.8,0.8l1.5,-1.5l1.6,1.5c0.3,-0.1,0.5,-0.5,0.8,-0.8L348.4,43L350,41.6c-0.3,-0.4,-0.5,-0.7,-0.8,-0.8l-1.6,1.5l-1.5,-1.5c-0.2,0.1,-0.5,0.4,-0.8,0.8Zm29.6,0l-1.6,1.5c0.3,0.3,0.6,0.7,0.8,0.8l1.6,-1.5l1.5,1.5c0.3,-0.1,0.5,-0.5,0.8,-0.8L378,43l1.5,-1.4c-0.3,-0.4,-0.5,-0.7,-0.8,-0.8l-1.5,1.5l-1.6,-1.5c-0.2,0.1,-0.5,0.4,-0.8,0.8Zm-14.8,0l-1.5,1.5c0.2,0.3,0.5,0.7,0.8,0.8l1.5,-1.5l1.5,1.5c0.3,-0.1,0.6,-0.5,0.8,-0.8L363.2,43l1.5,-1.4c-0.2,-0.4,-0.5,-0.7,-0.8,-0.8l-1.5,1.5l-1.5,-1.5c-0.3,0.1,-0.6,0.4,-0.8,0.8Zm119.7,0l-1.6,1.5c0.3,0.3,0.6,0.7,0.8,0.8l1.6,-1.5l1.5,1.5c0.3,-0.1,0.5,-0.5,0.8,-0.8L482.9,43l1.5,-1.4c-0.3,-0.4,-0.5,-0.7,-0.8,-0.8l-1.5,1.5l-1.6,-1.5c-0.2,0.1,-0.5,0.4,-0.8,0.8Zm-14.8,0L465,44.5c0.2,0.3,0.5,0.7,0.8,0.8l1.5,-1.5l1.5,1.5c0.3,-0.1,0.6,-0.5,0.8,-0.8L468.1,43l1.5,-1.4c-0.2,-0.4,-0.5,-0.7,-0.8,-0.8l-1.5,1.5l-1.5,-1.5c-0.3,0.1,-0.6,0.4,-0.8,0.8Zm-44.3,0l-1.5,1.5c0.2,0.3,0.6,0.7,0.8,0.8L423,43.8l1.6,1.5c0.3,-0.1,0.5,-0.5,0.8,-0.8L423.8,43l1.6,-1.4c-0.3,-0.4,-0.5,-0.7,-0.8,-0.8L423,42.3l-1.5,-1.5c-0.2,0.1,-0.6,0.4,-0.8,0.8Zm29.5,0l-1.5,1.5c0.3,0.3,0.6,0.7,0.8,0.8l1.5,-1.5l1.6,1.5c0.3,-0.1,0.5,-0.5,0.8,-0.8L453.3,43l1.6,-1.4c-0.3,-0.4,-0.5,-0.7,-0.8,-0.8l-1.6,1.5L451,40.8c-0.2,0.1,-0.5,0.4,-0.8,0.8ZM437,43l-1.5,1.5c0.2,0.3,0.5,0.7,0.8,0.8l1.5,-1.5l1.5,1.5c0.3,-0.1,0.6,-0.5,0.8,-0.8L438.6,43l1.5,-1.4c-0.2,-0.4,-0.5,-0.7,-0.8,-0.8l-1.5,1.5l-1.5,-1.5c-0.3,0.1,-0.6,0.4,-0.8,0.8Zm119.7,0l-1.6,1.5c0.3,0.3,0.6,0.7,0.8,0.8l1.6,-1.5l1.5,1.5c0.3,-0.1,0.5,-0.5,0.8,-0.8L558.3,43l1.5,-1.4c-0.3,-0.4,-0.5,-0.7,-0.8,-0.8l-1.5,1.5l-1.6,-1.5c-0.2,0.1,-0.5,0.4,-0.8,0.8Zm-14.8,0l-1.5,1.5c0.2,0.3,0.5,0.7,0.8,0.8l1.5,-1.5l1.5,1.5c0.3,-0.1,0.6,-0.5,0.8,-0.8L543.5,43L545,41.6c-0.2,-0.4,-0.5,-0.7,-0.8,-0.8l-1.5,1.5l-1.5,-1.5c-0.3,0.1,-0.6,0.4,-0.8,0.8Zm-44.3,0l-1.5,1.5c0.2,0.3,0.6,0.7,0.8,0.8l1.5,-1.5l1.5,1.5c0.4,-0.1,0.6,-0.5,0.8,-0.8L499.2,43l1.5,-1.4c-0.2,-0.4,-0.4,-0.7,-0.8,-0.8l-1.5,1.5l-1.5,-1.5c-0.2,0.1,-0.6,0.4,-0.8,0.8Zm29.5,0l-1.5,1.5c0.3,0.3,0.6,0.7,0.8,0.8l1.5,-1.5l1.6,1.5c0.3,-0.1,0.5,-0.5,0.8,-0.8L528.7,43l1.6,-1.4c-0.3,-0.4,-0.5,-0.7,-0.8,-0.8l-1.6,1.5l-1.5,-1.5c-0.2,0.1,-0.5,0.4,-0.8,0.8Zm-14.7,0l-1.5,1.5c0.2,0.3,0.5,0.7,0.8,0.8l1.5,-1.5l1.5,1.5c0.3,-0.1,0.6,-0.5,0.8,-0.8L514,43l1.5,-1.4c-0.2,-0.4,-0.5,-0.7,-0.8,-0.8l-1.5,1.5l-1.5,-1.5c-0.3,0.1,-0.6,0.4,-0.8,0.8ZM632,43l-1.5,1.5c0.3,0.3,0.6,0.7,0.8,0.8l1.6,-1.5l1.5,1.5c0.3,-0.1,0.5,-0.5,0.8,-0.8L633.7,43l1.5,-1.4c-0.3,-0.4,-0.5,-0.7,-0.8,-0.8l-1.5,1.5l-1.6,-1.5c-0.2,0.1,-0.5,0.4,-0.8,0.8Zm-14.7,0l-1.5,1.5c0.2,0.3,0.5,0.7,0.8,0.8l1.5,-1.5l1.5,1.5c0.3,-0.1,0.6,-0.5,0.8,-0.8L618.9,43l1.5,-1.4c-0.2,-0.4,-0.5,-0.7,-0.8,-0.8l-1.5,1.5l-1.5,-1.5c-0.3,0.1,-0.6,0.4,-0.8,0.8ZM573,43l-1.5,1.5c0.2,0.3,0.6,0.7,0.8,0.8l1.5,-1.5l1.5,1.5c0.4,-0.1,0.6,-0.5,0.8,-0.8L574.6,43l1.5,-1.4c-0.2,-0.4,-0.4,-0.7,-0.8,-0.8l-1.5,1.5l-1.5,-1.5c-0.2,0.1,-0.6,0.4,-0.8,0.8Zm29.5,0L601,44.5c0.2,0.3,0.6,0.7,0.8,0.8l1.5,-1.5l1.6,1.5c0.3,-0.1,0.5,-0.5,0.8,-0.8L604.1,43l1.6,-1.4c-0.3,-0.4,-0.5,-0.7,-0.8,-0.8l-1.6,1.5l-1.5,-1.5c-0.2,0.1,-0.6,0.4,-0.8,0.8Zm-14.7,0l-1.5,1.5c0.2,0.3,0.5,0.7,0.8,0.8l1.5,-1.5l1.5,1.5c0.3,-0.1,0.6,-0.5,0.8,-0.8L589.4,43l1.5,-1.4c-0.2,-0.4,-0.5,-0.7,-0.8,-0.8l-1.5,1.5l-1.5,-1.5c-0.3,0.1,-0.6,0.4,-0.8,0.8Zm119.6,0l-1.5,1.5c0.3,0.3,0.6,0.7,0.8,0.8l1.5,-1.5l1.6,1.5c0.3,-0.1,0.5,-0.5,0.8,-0.8L709,43l1.6,-1.4c-0.3,-0.4,-0.5,-0.7,-0.8,-0.8l-1.6,1.5l-1.5,-1.5c-0.2,0.1,-0.5,0.4,-0.8,0.8Zm-14.7,0l-1.5,1.5c0.2,0.3,0.5,0.7,0.8,0.8l1.5,-1.5l1.5,1.5c0.3,-0.1,0.6,-0.5,0.8,-0.8L694.3,43l1.5,-1.4c-0.2,-0.4,-0.5,-0.7,-0.8,-0.8l-1.5,1.5L692,40.8c-0.3,0.1,-0.6,0.4,-0.8,0.8Zm-44.3,0l-1.5,1.5c0.2,0.3,0.5,0.7,0.8,0.8l1.5,-1.5l1.5,1.5c0.4,-0.1,0.6,-0.5,0.8,-0.8L650,43l1.5,-1.4c-0.2,-0.4,-0.4,-0.7,-0.8,-0.8l-1.5,1.5l-1.5,-1.5c-0.3,0.1,-0.6,0.4,-0.8,0.8Zm29.5,0l-1.5,1.5c0.2,0.3,0.6,0.7,0.8,0.8l1.5,-1.5l1.6,1.5c0.3,-0.1,0.5,-0.5,0.8,-0.8L679.5,43l1.6,-1.4c-0.3,-0.4,-0.5,-0.7,-0.8,-0.8l-1.6,1.5l-1.5,-1.5c-0.2,0.1,-0.6,0.4,-0.8,0.8Zm-14.7,0l-1.6,1.5c0.3,0.3,0.6,0.7,0.8,0.8L664,43.8l1.5,1.5c0.3,-0.1,0.6,-0.5,0.8,-0.8L664.8,43l1.5,-1.4c-0.2,-0.4,-0.5,-0.7,-0.8,-0.8L664,42.3l-1.6,-1.5c-0.2,0.1,-0.5,0.4,-0.8,0.8Zm119.6,0l-1.5,1.5c0.3,0.3,0.6,0.7,0.8,0.8l1.5,-1.5l1.6,1.5c0.3,-0.1,0.5,-0.5,0.8,-0.8L784.4,43L786,41.6c-0.3,-0.4,-0.5,-0.7,-0.8,-0.8l-1.6,1.5l-1.5,-1.5c-0.2,0.1,-0.5,0.4,-0.8,0.8Zm-14.7,0l-1.5,1.5c0.2,0.3,0.5,0.7,0.8,0.8l1.5,-1.5l1.5,1.5c0.3,-0.1,0.6,-0.5,0.8,-0.8L769.7,43l1.5,-1.4c-0.2,-0.4,-0.5,-0.7,-0.8,-0.8l-1.5,1.5l-1.5,-1.5c-0.3,0.1,-0.6,0.4,-0.8,0.8Zm-44.3,0l-1.5,1.5c0.2,0.3,0.5,0.7,0.8,0.8l1.5,-1.5l1.5,1.5c0.3,-0.1,0.6,-0.5,0.8,-0.8L725.4,43l1.5,-1.4c-0.2,-0.4,-0.5,-0.7,-0.8,-0.8l-1.5,1.5l-1.5,-1.5c-0.3,0.1,-0.6,0.4,-0.8,0.8Zm29.5,0l-1.5,1.5c0.2,0.3,0.6,0.7,0.8,0.8l1.5,-1.5l1.5,1.5c0.4,-0.1,0.6,-0.5,0.8,-0.8L754.9,43l1.5,-1.4c-0.2,-0.4,-0.4,-0.7,-0.8,-0.8l-1.5,1.5l-1.5,-1.5c-0.2,0.1,-0.6,0.4,-0.8,0.8Zm-14.7,0L737,44.5c0.3,0.3,0.6,0.7,0.8,0.8l1.6,-1.5l1.5,1.5c0.3,-0.1,0.5,-0.5,0.8,-0.8L740.2,43l1.5,-1.4c-0.3,-0.4,-0.5,-0.7,-0.8,-0.8l-1.5,1.5l-1.6,-1.5c-0.2,0.1,-0.5,0.4,-0.8,0.8Zm119.6,0l-1.5,1.5c0.2,0.3,0.6,0.7,0.8,0.8L859,43.8l1.6,1.5c0.3,-0.1,0.5,-0.5,0.8,-0.8L859.8,43l1.6,-1.4c-0.3,-0.4,-0.5,-0.7,-0.8,-0.8L859,42.3l-1.5,-1.5c-0.2,0.1,-0.6,0.4,-0.8,0.8Zm-14.7,0l-1.6,1.5c0.3,0.3,0.6,0.7,0.9,0.8l1.5,-1.5l1.5,1.5c0.3,-0.1,0.6,-0.5,0.8,-0.8L845.1,43l1.5,-1.4c-0.2,-0.4,-0.5,-0.7,-0.8,-0.8l-1.5,1.5l-1.5,-1.5c-0.3,0.1,-0.6,0.4,-0.9,0.8Zm-44.3,0l-1.5,1.5c0.2,0.3,0.5,0.7,0.8,0.8L800,43.8l1.5,1.5c0.3,-0.1,0.6,-0.5,0.8,-0.8L800.8,43l1.5,-1.4c-0.2,-0.4,-0.5,-0.7,-0.8,-0.8L800,42.3l-1.5,-1.5c-0.3,0.1,-0.6,0.4,-0.8,0.8Zm29.5,0l-1.5,1.5c0.2,0.3,0.6,0.7,0.8,0.8l1.5,-1.5l1.5,1.5c0.4,-0.1,0.6,-0.5,0.8,-0.8L830.3,43l1.5,-1.4c-0.2,-0.4,-0.4,-0.7,-0.8,-0.8l-1.5,1.5L828,40.8c-0.2,0.1,-0.6,0.4,-0.8,0.8ZM814,43l-1.6,1.5c0.3,0.3,0.6,0.7,0.8,0.8l1.6,-1.5l1.5,1.5c0.3,-0.1,0.5,-0.5,0.8,-0.8L815.6,43l1.5,-1.4c-0.3,-0.4,-0.5,-0.7,-0.8,-0.8l-1.5,1.5l-1.6,-1.5c-0.2,0.1,-0.5,0.4,-0.8,0.8Zm119.6,0l-1.5,1.5c0.2,0.3,0.6,0.7,0.8,0.8l1.5,-1.5l1.5,1.5c0.4,-0.1,0.6,-0.5,0.9,-0.8L935.2,43l1.6,-1.4c-0.3,-0.4,-0.5,-0.7,-0.9,-0.8l-1.5,1.5l-1.5,-1.5c-0.2,0.1,-0.6,0.4,-0.8,0.8Zm-14.7,0l-1.6,1.5c0.3,0.3,0.6,0.7,0.8,0.8l1.6,-1.5l1.5,1.5c0.3,-0.1,0.6,-0.5,0.8,-0.8L920.5,43L922,41.6c-0.2,-0.4,-0.5,-0.7,-0.8,-0.8l-1.5,1.5l-1.6,-1.5c-0.2,0.1,-0.5,0.4,-0.8,0.8Zm-44.3,0l-1.5,1.5c0.2,0.3,0.5,0.7,0.8,0.8l1.5,-1.5l1.5,1.5c0.3,-0.1,0.6,-0.5,0.8,-0.8L876.2,43l1.5,-1.4c-0.2,-0.4,-0.5,-0.7,-0.8,-0.8l-1.5,1.5l-1.5,-1.5c-0.3,0.1,-0.6,0.4,-0.8,0.8Zm29.5,0l-1.5,1.5c0.2,0.3,0.5,0.7,0.8,0.8l1.5,-1.5l1.5,1.5c0.4,-0.1,0.6,-0.5,0.8,-0.8L905.7,43l1.5,-1.4c-0.2,-0.4,-0.4,-0.7,-0.8,-0.8l-1.5,1.5l-1.5,-1.5c-0.3,0.1,-0.6,0.4,-0.8,0.8Zm-14.8,0l-1.5,1.5c0.3,0.3,0.6,0.7,0.8,0.8l1.6,-1.5l1.5,1.5c0.3,-0.1,0.5,-0.5,0.8,-0.8L891,43l1.5,-1.4c-0.3,-0.4,-0.5,-0.7,-0.8,-0.8l-1.5,1.5l-1.6,-1.5c-0.2,0.1,-0.5,0.4,-0.8,0.8ZM1009,43l-1.5,1.5c0.2,0.3,0.6,0.7,0.8,0.8l1.5,-1.5l1.5,1.5c0.4,-0.1,0.6,-0.5,0.8,-0.8L1010.6,43l1.5,-1.4c-0.2,-0.4,-0.4,-0.7,-0.8,-0.8l-1.5,1.5l-1.5,-1.5c-0.2,0.1,-0.6,0.4,-0.8,0.8Zm-14.7,0l-1.6,1.5c0.3,0.3,0.6,0.7,0.8,0.8l1.6,-1.5l1.5,1.5c0.3,-0.1,0.5,-0.5,0.8,-0.8L995.9,43l1.5,-1.4c-0.3,-0.4,-0.5,-0.7,-0.8,-0.8l-1.5,1.5l-1.6,-1.5c-0.2,0.1,-0.5,0.4,-0.8,0.8ZM950,43l-1.5,1.5c0.2,0.3,0.5,0.7,0.8,0.8l1.5,-1.5l1.5,1.5c0.3,-0.1,0.6,-0.5,0.8,-0.8L951.6,43l1.5,-1.4c-0.2,-0.4,-0.5,-0.7,-0.8,-0.8l-1.5,1.5l-1.5,-1.5c-0.3,0.1,-0.6,0.4,-0.8,0.8Zm29.5,0L978,44.5c0.2,0.3,0.5,0.7,0.8,0.8l1.5,-1.5l1.5,1.5c0.3,-0.1,0.6,-0.5,0.8,-0.8L981.1,43l1.5,-1.4c-0.2,-0.4,-0.5,-0.7,-0.8,-0.8l-1.5,1.5l-1.5,-1.5c-0.3,0.1,-0.6,0.4,-0.8,0.8Zm-14.8,0l-1.5,1.5c0.3,0.3,0.6,0.7,0.8,0.8l1.5,-1.5l1.6,1.5c0.3,-0.1,0.5,-0.5,0.8,-0.8L966.3,43l1.6,-1.4c-0.3,-0.4,-0.5,-0.7,-0.8,-0.8l-1.6,1.5L964,40.8c-0.2,0.1,-0.5,0.4,-0.8,0.8Zm119.7,0l-1.5,1.5c0.2,0.3,0.5,0.7,0.8,0.8l1.5,-1.5l1.5,1.5c0.4,-0.1,0.6,-0.5,0.8,-0.8L1086,43l1.5,-1.4c-0.2,-0.4,-0.4,-0.7,-0.8,-0.8l-1.5,1.5l-1.5,-1.5c-0.3,0.1,-0.6,0.4,-0.8,0.8Zm-14.7,0l-1.6,1.5c0.3,0.3,0.6,0.7,0.8,0.8l1.6,-1.5l1.5,1.5c0.3,-0.1,0.5,-0.5,0.8,-0.8L1071.3,43l1.5,-1.4c-0.3,-0.4,-0.5,-0.7,-0.8,-0.8l-1.5,1.5l-1.6,-1.5c-0.2,0.1,-0.5,0.4,-0.8,0.8Zm-44.3,0l-1.5,1.5c0.2,0.3,0.5,0.7,0.8,0.8l1.5,-1.5l1.5,1.5c0.3,-0.1,0.6,-0.5,0.8,-0.8L1027,43l1.5,-1.4c-0.2,-0.4,-0.5,-0.7,-0.8,-0.8l-1.5,1.5l-1.5,-1.5c-0.3,0.1,-0.6,0.4,-0.8,0.8Zm29.5,0l-1.5,1.5c0.2,0.3,0.5,0.7,0.8,0.8l1.5,-1.5l1.5,1.5c0.3,-0.1,0.6,-0.5,0.8,-0.8L1056.5,43l1.5,-1.4c-0.2,-0.4,-0.5,-0.7,-0.8,-0.8l-1.5,1.5l-1.5,-1.5c-0.3,0.1,-0.6,0.4,-0.8,0.8Zm-14.8,0l-1.5,1.5c0.3,0.3,0.6,0.7,0.8,0.8l1.5,-1.5l1.6,1.5c0.3,-0.1,0.5,-0.5,0.8,-0.8L1041.7,43l1.6,-1.4c-0.3,-0.4,-0.5,-0.7,-0.8,-0.8l-1.6,1.5l-1.5,-1.5c-0.2,0.1,-0.5,0.4,-0.8,0.8Zm119.7,0l-1.5,1.5c0.2,0.3,0.5,0.7,0.8,0.8l1.5,-1.5l1.5,1.5c0.4,-0.1,0.6,-0.5,0.8,-0.8L1161.4,43l1.5,-1.4c-0.2,-0.4,-0.4,-0.7,-0.8,-0.8l-1.5,1.5l-1.5,-1.5c-0.3,0.1,-0.6,0.4,-0.8,0.8ZM1145,43l-1.5,1.5c0.3,0.3,0.6,0.7,0.8,0.8l1.5,-1.5l1.6,1.5c0.3,-0.1,0.5,-0.5,0.8,-0.8L1146.7,43l1.5,-1.4c-0.3,-0.4,-0.5,-0.7,-0.8,-0.8l-1.6,1.5l-1.5,-1.5c-0.2,0.1,-0.5,0.4,-0.8,0.8Zm-44.2,0l-1.6,1.5c0.3,0.3,0.6,0.7,0.8,0.8l1.6,-1.5l1.5,1.5c0.3,-0.1,0.6,-0.5,0.8,-0.8L1102.4,43l1.5,-1.4c-0.2,-0.4,-0.5,-0.7,-0.8,-0.8l-1.5,1.5L1100,40.8c-0.2,0.1,-0.5,0.4,-0.8,0.8Zm29.5,0l-1.5,1.5c0.2,0.3,0.5,0.7,0.8,0.8l1.5,-1.5l1.5,1.5c0.3,-0.1,0.6,-0.5,0.8,-0.8L1131.9,43l1.5,-1.4c-0.2,-0.4,-0.5,-0.7,-0.8,-0.8l-1.5,1.5l-1.5,-1.5c-0.3,0.1,-0.6,0.4,-0.8,0.8Zm-14.8,0l-1.5,1.5c0.2,0.3,0.6,0.7,0.8,0.8l1.5,-1.5l1.6,1.5c0.3,-0.1,0.5,-0.5,0.8,-0.8L1117.1,43l1.6,-1.4c-0.3,-0.4,-0.5,-0.7,-0.8,-0.8l-1.6,1.5l-1.5,-1.5c-0.2,0.1,-0.6,0.4,-0.8,0.8Zm119.7,0l-1.5,1.5c0.2,0.3,0.5,0.7,0.8,0.8l1.5,-1.5l1.5,1.5c0.3,-0.1,0.6,-0.5,0.8,-0.8L1236.8,43l1.5,-1.4c-0.2,-0.4,-0.5,-0.7,-0.8,-0.8l-1.5,1.5l-1.5,-1.5c-0.3,0.1,-0.6,0.4,-0.8,0.8Zm-14.8,0l-1.5,1.5c0.3,0.3,0.6,0.7,0.8,0.8l1.5,-1.5l1.6,1.5c0.3,-0.1,0.5,-0.5,0.8,-0.8L1222,43l1.6,-1.4c-0.3,-0.4,-0.5,-0.7,-0.8,-0.8l-1.6,1.5l-1.5,-1.5c-0.2,0.1,-0.5,0.4,-0.8,0.8Zm-44.2,0l-1.6,1.5c0.3,0.3,0.6,0.7,0.8,0.8l1.6,-1.5l1.5,1.5c0.3,-0.1,0.6,-0.5,0.8,-0.8L1177.8,43l1.5,-1.4c-0.2,-0.4,-0.5,-0.7,-0.8,-0.8l-1.5,1.5l-1.6,-1.5c-0.2,0.1,-0.5,0.4,-0.8,0.8Zm29.5,0l-1.5,1.5c0.2,0.3,0.5,0.7,0.8,0.8l1.5,-1.5l1.5,1.5c0.3,-0.1,0.6,-0.5,0.8,-0.8L1207.3,43l1.5,-1.4c-0.2,-0.4,-0.5,-0.7,-0.8,-0.8l-1.5,1.5L1205,40.8c-0.3,0.1,-0.6,0.4,-0.8,0.8Zm-14.8,0l-1.5,1.5c0.2,0.3,0.6,0.7,0.8,0.8l1.5,-1.5l1.5,1.5c0.4,-0.1,0.6,-0.5,0.9,-0.8L1192.5,43l1.6,-1.4c-0.3,-0.4,-0.5,-0.7,-0.9,-0.8l-1.5,1.5l-1.5,-1.5c-0.2,0.1,-0.6,0.4,-0.8,0.8Z" class="g1_6" />
<path d="M256.8,1147.7l-1.5,1.5c0.2,0.3,0.5,0.7,0.8,0.8l1.5,-1.5l1.5,1.5c0.4,-0.1,0.6,-0.5,0.8,-0.8l-1.5,-1.5l1.5,-1.5c-0.2,-0.3,-0.4,-0.6,-0.8,-0.8l-1.5,1.6l-1.5,-1.6c-0.3,0.2,-0.6,0.5,-0.8,0.8Zm-14.7,0l-1.6,1.5c0.3,0.3,0.6,0.7,0.8,0.8l1.6,-1.5l1.5,1.5c0.3,-0.1,0.5,-0.5,0.8,-0.8l-1.5,-1.5l1.5,-1.5c-0.3,-0.3,-0.5,-0.6,-0.8,-0.8l-1.5,1.6l-1.6,-1.6c-0.2,0.2,-0.5,0.5,-0.8,0.8Zm-44.3,0l-1.5,1.5c0.2,0.3,0.5,0.7,0.8,0.8l1.5,-1.5l1.5,1.5c0.3,-0.1,0.6,-0.5,0.8,-0.8l-1.5,-1.5l1.5,-1.5c-0.2,-0.3,-0.5,-0.6,-0.8,-0.8l-1.5,1.6l-1.5,-1.6c-0.3,0.2,-0.6,0.5,-0.8,0.8Zm29.5,0l-1.5,1.5c0.2,0.3,0.5,0.7,0.8,0.8l1.5,-1.5l1.5,1.5c0.3,-0.1,0.6,-0.5,0.8,-0.8l-1.5,-1.5l1.5,-1.5c-0.2,-0.3,-0.5,-0.6,-0.8,-0.8l-1.5,1.6l-1.5,-1.6c-0.3,0.2,-0.6,0.5,-0.8,0.8Zm-14.8,0l-1.5,1.5c0.3,0.3,0.6,0.7,0.8,0.8l1.5,-1.5l1.6,1.5c0.3,-0.1,0.5,-0.5,0.8,-0.8l-1.6,-1.5l1.6,-1.5c-0.3,-0.3,-0.5,-0.6,-0.8,-0.8l-1.6,1.6l-1.5,-1.6c-0.2,0.2,-0.5,0.5,-0.8,0.8Zm119.7,0l-1.5,1.5c0.2,0.3,0.5,0.7,0.8,0.8l1.5,-1.5l1.5,1.5c0.4,-0.1,0.6,-0.5,0.8,-0.8l-1.5,-1.5l1.5,-1.5c-0.2,-0.3,-0.4,-0.6,-0.8,-0.8L333,1147l-1.5,-1.6c-0.3,0.2,-0.6,0.5,-0.8,0.8Zm-14.8,0l-1.5,1.5c0.3,0.3,0.6,0.7,0.8,0.8l1.6,-1.5l1.5,1.5c0.3,-0.1,0.5,-0.5,0.8,-0.8l-1.5,-1.5l1.5,-1.5c-0.3,-0.3,-0.5,-0.6,-0.8,-0.8l-1.5,1.6l-1.6,-1.6c-0.2,0.2,-0.5,0.5,-0.8,0.8Zm-44.2,0l-1.6,1.5c0.3,0.3,0.6,0.7,0.9,0.8l1.5,-1.5l1.5,1.5c0.3,-0.1,0.6,-0.5,0.8,-0.8l-1.5,-1.5l1.5,-1.5c-0.2,-0.3,-0.5,-0.6,-0.8,-0.8L274,1147l-1.5,-1.6c-0.3,0.2,-0.6,0.5,-0.9,0.8Zm29.5,0l-1.5,1.5c0.2,0.3,0.5,0.7,0.8,0.8l1.5,-1.5l1.5,1.5c0.3,-0.1,0.6,-0.5,0.8,-0.8l-1.5,-1.5l1.5,-1.5c-0.2,-0.3,-0.5,-0.6,-0.8,-0.8l-1.5,1.6l-1.5,-1.6c-0.3,0.2,-0.6,0.5,-0.8,0.8Zm-14.8,0l-1.5,1.5c0.2,0.3,0.6,0.7,0.8,0.8l1.5,-1.5l1.6,1.5c0.3,-0.1,0.5,-0.5,0.8,-0.8l-1.6,-1.5l1.6,-1.5c-0.3,-0.3,-0.5,-0.6,-0.8,-0.8l-1.6,1.6l-1.5,-1.6c-0.2,0.2,-0.6,0.5,-0.8,0.8Zm119.7,0l-1.5,1.5c0.2,0.3,0.5,0.7,0.8,0.8l1.5,-1.5l1.5,1.5c0.3,-0.1,0.6,-0.5,0.8,-0.8l-1.5,-1.5l1.5,-1.5c-0.2,-0.3,-0.5,-0.6,-0.8,-0.8l-1.5,1.6l-1.5,-1.6c-0.3,0.2,-0.6,0.5,-0.8,0.8Zm-14.8,0l-1.5,1.5c0.3,0.3,0.6,0.7,0.8,0.8l1.5,-1.5l1.6,1.5c0.3,-0.1,0.5,-0.5,0.8,-0.8l-1.6,-1.5l1.6,-1.5c-0.3,-0.3,-0.5,-0.6,-0.8,-0.8l-1.6,1.6l-1.5,-1.6c-0.2,0.2,-0.5,0.5,-0.8,0.8Zm-44.2,0l-1.6,1.5c0.3,0.3,0.6,0.7,0.8,0.8l1.6,-1.5l1.5,1.5c0.3,-0.1,0.6,-0.5,0.8,-0.8l-1.5,-1.5l1.5,-1.5c-0.2,-0.3,-0.5,-0.6,-0.8,-0.8l-1.5,1.6l-1.6,-1.6c-0.2,0.2,-0.5,0.5,-0.8,0.8Zm29.5,0l-1.5,1.5c0.2,0.3,0.5,0.7,0.8,0.8l1.5,-1.5l1.5,1.5c0.3,-0.1,0.6,-0.5,0.8,-0.8l-1.5,-1.5l1.5,-1.5c-0.2,-0.3,-0.5,-0.6,-0.8,-0.8l-1.5,1.6l-1.5,-1.6c-0.3,0.2,-0.6,0.5,-0.8,0.8Zm-14.8,0l-1.5,1.5c0.2,0.3,0.6,0.7,0.8,0.8l1.5,-1.5l1.6,1.5c0.3,-0.1,0.5,-0.5,0.8,-0.8l-1.6,-1.5l1.6,-1.5c-0.3,-0.3,-0.5,-0.6,-0.8,-0.8l-1.6,1.6l-1.5,-1.6c-0.2,0.2,-0.6,0.5,-0.8,0.8Zm119.7,0l-1.5,1.5c0.2,0.3,0.5,0.7,0.8,0.8l1.5,-1.5l1.5,1.5c0.3,-0.1,0.6,-0.5,0.8,-0.8l-1.5,-1.5l1.5,-1.5c-0.2,-0.3,-0.5,-0.6,-0.8,-0.8l-1.5,1.6l-1.5,-1.6c-0.3,0.2,-0.6,0.5,-0.8,0.8Zm-14.8,0l-1.5,1.5c0.3,0.3,0.6,0.7,0.8,0.8l1.5,-1.5l1.6,1.5c0.3,-0.1,0.5,-0.5,0.8,-0.8l-1.6,-1.5l1.6,-1.5c-0.3,-0.3,-0.5,-0.6,-0.8,-0.8L469,1147l-1.5,-1.6c-0.2,0.2,-0.5,0.5,-0.8,0.8Zm-44.2,0l-1.6,1.5c0.3,0.3,0.6,0.7,0.8,0.8l1.6,-1.5l1.5,1.5c0.3,-0.1,0.5,-0.5,0.8,-0.8l-1.5,-1.5l1.5,-1.5c-0.3,-0.3,-0.5,-0.6,-0.8,-0.8l-1.5,1.6l-1.6,-1.6c-0.2,0.2,-0.5,0.5,-0.8,0.8Zm29.5,0l-1.5,1.5c0.2,0.3,0.5,0.7,0.8,0.8l1.5,-1.5l1.5,1.5c0.3,-0.1,0.6,-0.5,0.8,-0.8l-1.5,-1.5l1.5,-1.5c-0.2,-0.3,-0.5,-0.6,-0.8,-0.8l-1.5,1.6l-1.5,-1.6c-0.3,0.2,-0.6,0.5,-0.8,0.8Zm-14.8,0l-1.5,1.5c0.2,0.3,0.6,0.7,0.8,0.8l1.5,-1.5l1.5,1.5c0.4,-0.1,0.6,-0.5,0.8,-0.8l-1.5,-1.5l1.5,-1.5c-0.2,-0.3,-0.4,-0.6,-0.8,-0.8l-1.5,1.6l-1.5,-1.6c-0.2,0.2,-0.6,0.5,-0.8,0.8Zm119.7,0l-1.5,1.5c0.2,0.3,0.5,0.7,0.8,0.8l1.5,-1.5l1.5,1.5c0.3,-0.1,0.6,-0.5,0.8,-0.8l-1.5,-1.5l1.5,-1.5c-0.2,-0.3,-0.5,-0.6,-0.8,-0.8l-1.5,1.6l-1.5,-1.6c-0.3,0.2,-0.6,0.5,-0.8,0.8Zm-14.8,0l-1.5,1.5c0.2,0.3,0.6,0.7,0.8,0.8l1.5,-1.5l1.6,1.5c0.3,-0.1,0.5,-0.5,0.8,-0.8l-1.6,-1.5l1.6,-1.5c-0.3,-0.3,-0.5,-0.6,-0.8,-0.8l-1.6,1.6l-1.5,-1.6c-0.2,0.2,-0.6,0.5,-0.8,0.8Zm-44.2,0l-1.6,1.5c0.3,0.3,0.6,0.7,0.8,0.8l1.6,-1.5l1.5,1.5c0.3,-0.1,0.5,-0.5,0.8,-0.8l-1.5,-1.5l1.5,-1.5c-0.3,-0.3,-0.5,-0.6,-0.8,-0.8l-1.5,1.6l-1.6,-1.6c-0.2,0.2,-0.5,0.5,-0.8,0.8Zm29.5,0l-1.6,1.5c0.3,0.3,0.6,0.7,0.8,0.8l1.6,-1.5l1.5,1.5c0.3,-0.1,0.6,-0.5,0.8,-0.8l-1.5,-1.5l1.5,-1.5c-0.2,-0.3,-0.5,-0.6,-0.8,-0.8l-1.5,1.6l-1.6,-1.6c-0.2,0.2,-0.5,0.5,-0.8,0.8Zm-14.8,0l-1.5,1.5c0.2,0.3,0.6,0.7,0.8,0.8l1.5,-1.5l1.5,1.5c0.4,-0.1,0.6,-0.5,0.8,-0.8l-1.5,-1.5l1.5,-1.5c-0.2,-0.3,-0.4,-0.6,-0.8,-0.8l-1.5,1.6l-1.5,-1.6c-0.2,0.2,-0.6,0.5,-0.8,0.8Zm119.7,0l-1.5,1.5c0.2,0.3,0.5,0.7,0.8,0.8l1.5,-1.5l1.5,1.5c0.3,-0.1,0.6,-0.5,0.8,-0.8l-1.5,-1.5l1.5,-1.5c-0.2,-0.3,-0.5,-0.6,-0.8,-0.8l-1.5,1.6l-1.5,-1.6c-0.3,0.2,-0.6,0.5,-0.8,0.8Zm-14.8,0l-1.5,1.5c0.2,0.3,0.6,0.7,0.8,0.8l1.5,-1.5l1.5,1.5c0.4,-0.1,0.6,-0.5,0.9,-0.8l-1.6,-1.5l1.6,-1.5c-0.3,-0.3,-0.5,-0.6,-0.9,-0.8l-1.5,1.6l-1.5,-1.6c-0.2,0.2,-0.6,0.5,-0.8,0.8Zm-44.3,0l-1.5,1.5c0.3,0.3,0.6,0.7,0.8,0.8l1.5,-1.5l1.6,1.5c0.3,-0.1,0.5,-0.5,0.8,-0.8l-1.5,-1.5l1.5,-1.5c-0.3,-0.3,-0.5,-0.6,-0.8,-0.8l-1.6,1.6l-1.5,-1.6c-0.2,0.2,-0.5,0.5,-0.8,0.8Zm29.6,0l-1.6,1.5c0.3,0.3,0.6,0.7,0.8,0.8l1.6,-1.5l1.5,1.5c0.3,-0.1,0.6,-0.5,0.8,-0.8l-1.5,-1.5l1.5,-1.5c-0.2,-0.3,-0.5,-0.6,-0.8,-0.8l-1.5,1.6l-1.6,-1.6c-0.2,0.2,-0.5,0.5,-0.8,0.8Zm-14.8,0l-1.5,1.5c0.2,0.3,0.5,0.7,0.8,0.8l1.5,-1.5l1.5,1.5c0.4,-0.1,0.6,-0.5,0.8,-0.8l-1.5,-1.5l1.5,-1.5c-0.2,-0.3,-0.4,-0.6,-0.8,-0.8l-1.5,1.6l-1.5,-1.6c-0.3,0.2,-0.6,0.5,-0.8,0.8Zm119.7,0l-1.5,1.5c0.2,0.3,0.5,0.7,0.8,0.8l1.5,-1.5l1.5,1.5c0.3,-0.1,0.6,-0.5,0.8,-0.8l-1.5,-1.5l1.5,-1.5c-0.2,-0.3,-0.5,-0.6,-0.8,-0.8L710,1147l-1.5,-1.6c-0.3,0.2,-0.6,0.5,-0.8,0.8Zm-14.8,0l-1.5,1.5c0.2,0.3,0.6,0.7,0.8,0.8l1.5,-1.5l1.5,1.5c0.4,-0.1,0.6,-0.5,0.8,-0.8l-1.5,-1.5l1.5,-1.5c-0.2,-0.3,-0.4,-0.6,-0.8,-0.8l-1.5,1.6l-1.5,-1.6c-0.2,0.2,-0.6,0.5,-0.8,0.8Zm-44.3,0l-1.5,1.5c0.3,0.3,0.6,0.7,0.8,0.8l1.5,-1.5l1.6,1.5c0.3,-0.1,0.5,-0.5,0.8,-0.8l-1.6,-1.5l1.6,-1.5c-0.3,-0.3,-0.5,-0.6,-0.8,-0.8l-1.6,1.6l-1.5,-1.6c-0.2,0.2,-0.5,0.5,-0.8,0.8Zm29.6,0l-1.6,1.5c0.3,0.3,0.6,0.7,0.8,0.8l1.6,-1.5l1.5,1.5c0.3,-0.1,0.5,-0.5,0.8,-0.8l-1.5,-1.5l1.5,-1.5c-0.3,-0.3,-0.5,-0.6,-0.8,-0.8l-1.5,1.6l-1.6,-1.6c-0.2,0.2,-0.5,0.5,-0.8,0.8Zm-14.8,0l-1.5,1.5c0.2,0.3,0.5,0.7,0.8,0.8l1.5,-1.5l1.5,1.5c0.3,-0.1,0.6,-0.5,0.8,-0.8l-1.5,-1.5l1.5,-1.5c-0.2,-0.3,-0.5,-0.6,-0.8,-0.8l-1.5,1.6l-1.5,-1.6c-0.3,0.2,-0.6,0.5,-0.8,0.8Zm119.7,0l-1.6,1.5c0.3,0.3,0.6,0.7,0.8,0.8l1.6,-1.5l1.5,1.5c0.3,-0.1,0.6,-0.5,0.8,-0.8l-1.5,-1.5l1.5,-1.5c-0.2,-0.3,-0.5,-0.6,-0.8,-0.8l-1.5,1.6l-1.6,-1.6c-0.2,0.2,-0.5,0.5,-0.8,0.8Zm-14.8,0l-1.5,1.5c0.2,0.3,0.5,0.7,0.8,0.8l1.5,-1.5l1.5,1.5c0.4,-0.1,0.6,-0.5,0.8,-0.8l-1.5,-1.5l1.5,-1.5c-0.2,-0.3,-0.4,-0.6,-0.8,-0.8l-1.5,1.6l-1.5,-1.6c-0.3,0.2,-0.6,0.5,-0.8,0.8Zm-44.3,0l-1.5,1.5c0.3,0.3,0.6,0.7,0.8,0.8l1.5,-1.5l1.6,1.5c0.3,-0.1,0.5,-0.5,0.8,-0.8l-1.6,-1.5l1.6,-1.5c-0.3,-0.3,-0.5,-0.6,-0.8,-0.8l-1.6,1.6l-1.5,-1.6c-0.2,0.2,-0.5,0.5,-0.8,0.8Zm29.6,0l-1.6,1.5c0.3,0.3,0.6,0.7,0.8,0.8l1.6,-1.5l1.5,1.5c0.3,-0.1,0.5,-0.5,0.8,-0.8l-1.5,-1.5l1.5,-1.5c-0.3,-0.3,-0.5,-0.6,-0.8,-0.8l-1.5,1.6l-1.6,-1.6c-0.2,0.2,-0.5,0.5,-0.8,0.8Zm-14.8,0l-1.5,1.5c0.2,0.3,0.5,0.7,0.8,0.8l1.5,-1.5l1.5,1.5c0.3,-0.1,0.6,-0.5,0.8,-0.8l-1.5,-1.5l1.5,-1.5c-0.2,-0.3,-0.5,-0.6,-0.8,-0.8l-1.5,1.6l-1.5,-1.6c-0.3,0.2,-0.6,0.5,-0.8,0.8Zm119.7,0l-1.6,1.5c0.3,0.3,0.6,0.7,0.8,0.8l1.6,-1.5l1.5,1.5c0.3,-0.1,0.5,-0.5,0.8,-0.8l-1.5,-1.5l1.5,-1.5c-0.3,-0.3,-0.5,-0.6,-0.8,-0.8l-1.5,1.6l-1.6,-1.6c-0.2,0.2,-0.5,0.5,-0.8,0.8Zm-14.8,0l-1.5,1.5c0.2,0.3,0.5,0.7,0.8,0.8l1.5,-1.5l1.5,1.5c0.4,-0.1,0.6,-0.5,0.8,-0.8l-1.5,-1.5l1.5,-1.5c-0.2,-0.3,-0.4,-0.6,-0.8,-0.8L846,1147l-1.5,-1.6c-0.3,0.2,-0.6,0.5,-0.8,0.8Zm-44.3,0l-1.5,1.5c0.2,0.3,0.6,0.7,0.8,0.8l1.5,-1.5l1.6,1.5c0.3,-0.1,0.5,-0.5,0.8,-0.8l-1.6,-1.5l1.6,-1.5c-0.3,-0.3,-0.5,-0.6,-0.8,-0.8l-1.6,1.6l-1.5,-1.6c-0.2,0.2,-0.6,0.5,-0.8,0.8Zm29.5,0l-1.5,1.5c0.3,0.3,0.6,0.7,0.8,0.8l1.5,-1.5l1.6,1.5c0.3,-0.1,0.5,-0.5,0.8,-0.8l-1.6,-1.5l1.6,-1.5c-0.3,-0.3,-0.5,-0.6,-0.8,-0.8l-1.6,1.6l-1.5,-1.6c-0.2,0.2,-0.5,0.5,-0.8,0.8Zm-14.7,0l-1.5,1.5c0.2,0.3,0.5,0.7,0.8,0.8l1.5,-1.5l1.5,1.5c0.3,-0.1,0.6,-0.5,0.8,-0.8l-1.5,-1.5l1.5,-1.5c-0.2,-0.3,-0.5,-0.6,-0.8,-0.8l-1.5,1.6l-1.5,-1.6c-0.3,0.2,-0.6,0.5,-0.8,0.8Zm119.7,0l-1.6,1.5c0.3,0.3,0.6,0.7,0.8,0.8l1.6,-1.5l1.5,1.5c0.3,-0.1,0.5,-0.5,0.8,-0.8l-1.5,-1.5l1.5,-1.5c-0.3,-0.3,-0.5,-0.6,-0.8,-0.8l-1.5,1.6l-1.6,-1.6c-0.2,0.2,-0.5,0.5,-0.8,0.8Zm-14.8,0l-1.5,1.5c0.2,0.3,0.5,0.7,0.8,0.8l1.5,-1.5l1.5,1.5c0.3,-0.1,0.6,-0.5,0.8,-0.8l-1.5,-1.5l1.5,-1.5c-0.2,-0.3,-0.5,-0.6,-0.8,-0.8l-1.5,1.6l-1.5,-1.6c-0.3,0.2,-0.6,0.5,-0.8,0.8Zm-44.3,0l-1.5,1.5c0.2,0.3,0.6,0.7,0.8,0.8l1.5,-1.5l1.5,1.5c0.4,-0.1,0.6,-0.5,0.9,-0.8l-1.6,-1.5l1.6,-1.5c-0.3,-0.3,-0.5,-0.6,-0.9,-0.8l-1.5,1.6l-1.5,-1.6c-0.2,0.2,-0.6,0.5,-0.8,0.8Zm29.5,0l-1.5,1.5c0.3,0.3,0.6,0.7,0.8,0.8l1.5,-1.5l1.6,1.5c0.3,-0.1,0.5,-0.5,0.8,-0.8l-1.6,-1.5l1.6,-1.5c-0.3,-0.3,-0.5,-0.6,-0.8,-0.8l-1.6,1.6l-1.5,-1.6c-0.2,0.2,-0.5,0.5,-0.8,0.8Zm-14.7,0l-1.5,1.5c0.2,0.3,0.5,0.7,0.8,0.8l1.5,-1.5l1.5,1.5c0.3,-0.1,0.6,-0.5,0.8,-0.8l-1.5,-1.5l1.5,-1.5c-0.2,-0.3,-0.5,-0.6,-0.8,-0.8l-1.5,1.6l-1.5,-1.6c-0.3,0.2,-0.6,0.5,-0.8,0.8Zm119.7,0l-1.6,1.5c0.3,0.3,0.6,0.7,0.8,0.8l1.6,-1.5l1.5,1.5c0.3,-0.1,0.5,-0.5,0.8,-0.8l-1.5,-1.5l1.5,-1.5c-0.3,-0.3,-0.5,-0.6,-0.8,-0.8l-1.5,1.6l-1.6,-1.6c-0.2,0.2,-0.5,0.5,-0.8,0.8Zm-14.8,0l-1.5,1.5c0.2,0.3,0.5,0.7,0.8,0.8l1.5,-1.5l1.5,1.5c0.3,-0.1,0.6,-0.5,0.8,-0.8l-1.5,-1.5l1.5,-1.5c-0.2,-0.3,-0.5,-0.6,-0.8,-0.8l-1.5,1.6l-1.5,-1.6c-0.3,0.2,-0.6,0.5,-0.8,0.8Zm-44.3,0l-1.5,1.5c0.2,0.3,0.6,0.7,0.8,0.8l1.5,-1.5l1.5,1.5c0.4,-0.1,0.6,-0.5,0.8,-0.8l-1.5,-1.5l1.5,-1.5c-0.2,-0.3,-0.4,-0.6,-0.8,-0.8l-1.5,1.6l-1.5,-1.6c-0.2,0.2,-0.6,0.5,-0.8,0.8Zm29.5,0l-1.5,1.5c0.3,0.3,0.6,0.7,0.8,0.8l1.5,-1.5l1.6,1.5c0.3,-0.1,0.5,-0.5,0.8,-0.8l-1.6,-1.5l1.6,-1.5c-0.3,-0.3,-0.5,-0.6,-0.8,-0.8L982,1147l-1.5,-1.6c-0.2,0.2,-0.5,0.5,-0.8,0.8Zm-14.7,0l-1.5,1.5c0.2,0.3,0.5,0.7,0.8,0.8l1.5,-1.5l1.5,1.5c0.3,-0.1,0.6,-0.5,0.8,-0.8l-1.5,-1.5l1.5,-1.5c-0.2,-0.3,-0.5,-0.6,-0.8,-0.8l-1.5,1.6l-1.5,-1.6c-0.3,0.2,-0.6,0.5,-0.8,0.8Zm119.6,0l-1.5,1.5c0.3,0.3,0.6,0.7,0.8,0.8l1.5,-1.5l1.6,1.5c0.3,-0.1,0.5,-0.5,0.8,-0.8l-1.6,-1.5l1.6,-1.5c-0.3,-0.3,-0.5,-0.6,-0.8,-0.8l-1.6,1.6l-1.5,-1.6c-0.2,0.2,-0.5,0.5,-0.8,0.8Zm-14.7,0l-1.5,1.5c0.2,0.3,0.5,0.7,0.8,0.8l1.5,-1.5l1.5,1.5c0.3,-0.1,0.6,-0.5,0.8,-0.8l-1.5,-1.5l1.5,-1.5c-0.2,-0.3,-0.5,-0.6,-0.8,-0.8l-1.5,1.6l-1.5,-1.6c-0.3,0.2,-0.6,0.5,-0.8,0.8Zm-44.3,0l-1.5,1.5c0.2,0.3,0.5,0.7,0.8,0.8l1.5,-1.5l1.5,1.5c0.4,-0.1,0.6,-0.5,0.8,-0.8l-1.5,-1.5l1.5,-1.5c-0.2,-0.3,-0.4,-0.6,-0.8,-0.8l-1.5,1.6l-1.5,-1.6c-0.3,0.2,-0.6,0.5,-0.8,0.8Zm29.5,0l-1.5,1.5c0.2,0.3,0.6,0.7,0.8,0.8l1.5,-1.5l1.6,1.5c0.3,-0.1,0.5,-0.5,0.8,-0.8l-1.6,-1.5l1.6,-1.5c-0.3,-0.3,-0.5,-0.6,-0.8,-0.8l-1.6,1.6l-1.5,-1.6c-0.2,0.2,-0.6,0.5,-0.8,0.8Zm-14.7,0l-1.6,1.5c0.3,0.3,0.6,0.7,0.8,0.8l1.6,-1.5l1.5,1.5c0.3,-0.1,0.6,-0.5,0.8,-0.8l-1.5,-1.5l1.5,-1.5c-0.2,-0.3,-0.5,-0.6,-0.8,-0.8l-1.5,1.6l-1.6,-1.6c-0.2,0.2,-0.5,0.5,-0.8,0.8Zm119.6,0l-1.5,1.5c0.3,0.3,0.6,0.7,0.8,0.8l1.5,-1.5l1.6,1.5c0.3,-0.1,0.5,-0.5,0.8,-0.8l-1.6,-1.5l1.6,-1.5c-0.3,-0.3,-0.5,-0.6,-0.8,-0.8l-1.6,1.6l-1.5,-1.6c-0.2,0.2,-0.5,0.5,-0.8,0.8Zm-14.7,0l-1.5,1.5c0.2,0.3,0.5,0.7,0.8,0.8l1.5,-1.5l1.5,1.5c0.3,-0.1,0.6,-0.5,0.8,-0.8l-1.5,-1.5l1.5,-1.5c-0.2,-0.3,-0.5,-0.6,-0.8,-0.8l-1.5,1.6l-1.5,-1.6c-0.3,0.2,-0.6,0.5,-0.8,0.8Zm-44.3,0l-1.5,1.5c0.2,0.3,0.5,0.7,0.8,0.8l1.5,-1.5l1.5,1.5c0.4,-0.1,0.6,-0.5,0.8,-0.8l-1.5,-1.5l1.5,-1.5c-0.2,-0.3,-0.4,-0.6,-0.8,-0.8l-1.5,1.6l-1.5,-1.6c-0.3,0.2,-0.6,0.5,-0.8,0.8Zm29.5,0l-1.5,1.5c0.2,0.3,0.6,0.7,0.8,0.8l1.5,-1.5l1.5,1.5c0.4,-0.1,0.6,-0.5,0.8,-0.8l-1.5,-1.5l1.5,-1.5c-0.2,-0.3,-0.4,-0.6,-0.8,-0.8l-1.5,1.6l-1.5,-1.6c-0.2,0.2,-0.6,0.5,-0.8,0.8Zm-14.7,0l-1.6,1.5c0.3,0.3,0.6,0.7,0.8,0.8l1.6,-1.5l1.5,1.5c0.3,-0.1,0.6,-0.5,0.8,-0.8l-1.5,-1.5l1.5,-1.5c-0.2,-0.3,-0.5,-0.6,-0.8,-0.8l-1.5,1.6l-1.6,-1.6c-0.2,0.2,-0.5,0.5,-0.8,0.8Zm119.6,0l-1.5,1.5c0.2,0.3,0.6,0.7,0.8,0.8l1.5,-1.5l1.6,1.5c0.3,-0.1,0.5,-0.5,0.8,-0.8l-1.6,-1.5l1.6,-1.5c-0.3,-0.3,-0.5,-0.6,-0.8,-0.8l-1.6,1.6l-1.5,-1.6c-0.2,0.2,-0.6,0.5,-0.8,0.8Zm-14.7,0l-1.6,1.5c0.3,0.3,0.6,0.7,0.9,0.8l1.5,-1.5l1.5,1.5c0.3,-0.1,0.6,-0.5,0.8,-0.8l-1.5,-1.5l1.5,-1.5c-0.2,-0.3,-0.5,-0.6,-0.8,-0.8l-1.5,1.6l-1.5,-1.6c-0.3,0.2,-0.6,0.5,-0.9,0.8Zm-44.3,0l-1.5,1.5c0.2,0.3,0.5,0.7,0.8,0.8l1.5,-1.5l1.5,1.5c0.3,-0.1,0.6,-0.5,0.8,-0.8l-1.5,-1.5l1.5,-1.5c-0.2,-0.3,-0.5,-0.6,-0.8,-0.8l-1.5,1.6l-1.5,-1.6c-0.3,0.2,-0.6,0.5,-0.8,0.8Zm29.5,0l-1.5,1.5c0.2,0.3,0.6,0.7,0.8,0.8l1.5,-1.5l1.5,1.5c0.4,-0.1,0.6,-0.5,0.8,-0.8l-1.5,-1.5l1.5,-1.5c-0.2,-0.3,-0.4,-0.6,-0.8,-0.8l-1.5,1.6l-1.5,-1.6c-0.2,0.2,-0.6,0.5,-0.8,0.8Zm-14.7,0l-1.6,1.5c0.3,0.3,0.6,0.7,0.8,0.8l1.6,-1.5l1.5,1.5c0.3,-0.1,0.5,-0.5,0.8,-0.8l-1.5,-1.5l1.5,-1.5c-0.3,-0.3,-0.5,-0.6,-0.8,-0.8l-1.5,1.6l-1.6,-1.6c-0.2,0.2,-0.5,0.5,-0.8,0.8Z" class="g1_6" />
</g>
<path d="M0,1190l214,0L214,0L0,0L0,1190Z" class="g2_6" />
<g clip-path="url(#c0_6)">
<path d="M210.2,1137.1l1.5,1.6c0.3,-0.3,0.7,-0.6,0.8,-0.9l-1.5,-1.6l1.5,-1.7c-0.1,-0.3,-0.5,-0.6,-0.8,-0.8l-1.5,1.6l-1.4,-1.6c-0.3,0.2,-0.7,0.5,-0.8,0.8l1.5,1.7l-1.5,1.6c0.1,0.3,0.5,0.6,0.8,0.9Zm0,15.9l1.5,1.7c0.3,-0.3,0.7,-0.6,0.8,-0.9l-1.5,-1.6l1.5,-1.7c-0.1,-0.3,-0.5,-0.6,-0.8,-0.8l-1.5,1.6l-1.4,-1.6c-0.3,0.2,-0.7,0.5,-0.8,0.8l1.5,1.7l-1.5,1.6c0.1,0.3,0.5,0.6,0.8,0.9Zm0,48l1.5,1.6c0.3,-0.2,0.7,-0.6,0.8,-0.8l-1.5,-1.7l1.5,-1.6c-0.1,-0.4,-0.5,-0.6,-0.8,-0.9l-1.5,1.7l-1.4,-1.7c-0.3,0.3,-0.7,0.5,-0.8,0.9l1.5,1.6l-1.5,1.7c0.1,0.2,0.5,0.6,0.8,0.8Zm0,-32l1.5,1.7c0.3,-0.3,0.7,-0.6,0.8,-0.9l-1.5,-1.6l1.5,-1.7c-0.1,-0.3,-0.5,-0.6,-0.8,-0.9l-1.5,1.7l-1.4,-1.7c-0.3,0.3,-0.7,0.6,-0.8,0.9l1.5,1.7l-1.5,1.6c0.1,0.3,0.5,0.6,0.8,0.9Zm0,16l1.5,1.7c0.3,-0.3,0.7,-0.7,0.8,-0.9l-1.5,-1.7l1.5,-1.6c-0.1,-0.4,-0.5,-0.6,-0.8,-0.9l-1.5,1.7l-1.4,-1.7c-0.3,0.3,-0.7,0.5,-0.8,0.9l1.5,1.6l-1.5,1.7c0.1,0.2,0.5,0.6,0.8,0.9Zm0,-129.6l1.5,1.7c0.3,-0.3,0.7,-0.6,0.8,-0.9l-1.5,-1.7l1.5,-1.6c-0.1,-0.4,-0.5,-0.6,-0.8,-0.9l-1.5,1.7l-1.4,-1.7c-0.3,0.3,-0.7,0.5,-0.8,0.9l1.5,1.6l-1.5,1.7c0.1,0.3,0.5,0.6,0.8,0.9Zm0,16l1.5,1.6c0.3,-0.2,0.7,-0.6,0.8,-0.8l-1.5,-1.7l1.5,-1.6c-0.1,-0.4,-0.5,-0.6,-0.8,-0.9l-1.5,1.7l-1.4,-1.7c-0.3,0.3,-0.7,0.5,-0.8,0.9l1.5,1.6l-1.5,1.7c0.1,0.2,0.5,0.6,0.8,0.8Zm0,47.9l1.5,1.7c0.3,-0.3,0.7,-0.6,0.8,-0.9l-1.5,-1.6l1.5,-1.7c-0.1,-0.3,-0.5,-0.6,-0.8,-0.8l-1.5,1.6l-1.4,-1.6c-0.3,0.2,-0.7,0.5,-0.8,0.8l1.5,1.7l-1.5,1.6c0.1,0.3,0.5,0.6,0.8,0.9Zm0,-31.9l1.5,1.6c0.3,-0.2,0.7,-0.6,0.8,-0.8l-1.5,-1.7l1.5,-1.6c-0.1,-0.4,-0.5,-0.6,-0.8,-0.9l-1.5,1.6l-1.4,-1.6c-0.3,0.3,-0.7,0.5,-0.8,0.9l1.5,1.6l-1.5,1.7c0.1,0.2,0.5,0.6,0.8,0.8Zm0,16l1.5,1.6c0.3,-0.2,0.7,-0.6,0.8,-0.9l-1.5,-1.6l1.5,-1.7c-0.1,-0.3,-0.5,-0.6,-0.8,-0.8l-1.5,1.6l-1.4,-1.6c-0.3,0.2,-0.7,0.5,-0.8,0.8l1.5,1.7l-1.5,1.6c0.1,0.3,0.5,0.7,0.8,0.9Zm0,-129.6l1.5,1.6c0.3,-0.2,0.7,-0.6,0.8,-0.9L211,972.9l1.5,-1.7c-0.1,-0.3,-0.5,-0.6,-0.8,-0.8l-1.5,1.6l-1.4,-1.6c-0.3,0.2,-0.7,0.5,-0.8,0.8l1.5,1.7l-1.5,1.6c0.1,0.3,0.5,0.7,0.8,0.9Zm0,16l1.5,1.6c0.3,-0.3,0.7,-0.6,0.8,-0.9L211,988.9l1.5,-1.7c-0.1,-0.3,-0.5,-0.6,-0.8,-0.8l-1.5,1.6l-1.4,-1.6c-0.3,0.2,-0.7,0.5,-0.8,0.8l1.5,1.7l-1.5,1.6c0.1,0.3,0.5,0.6,0.8,0.9Zm0,47.9l1.5,1.6c0.3,-0.2,0.7,-0.6,0.8,-0.8l-1.5,-1.7l1.5,-1.6c-0.1,-0.4,-0.5,-0.6,-0.8,-0.9l-1.5,1.7l-1.4,-1.7c-0.3,0.3,-0.7,0.5,-0.8,0.9l1.5,1.6l-1.5,1.7c0.1,0.2,0.5,0.6,0.8,0.8Zm0,-32l1.5,1.7c0.3,-0.3,0.7,-0.6,0.8,-0.9l-1.5,-1.6l1.5,-1.7c-0.1,-0.3,-0.5,-0.6,-0.8,-0.9l-1.5,1.7l-1.4,-1.7c-0.3,0.3,-0.7,0.6,-0.8,0.9l1.5,1.7l-1.5,1.6c0.1,0.3,0.5,0.6,0.8,0.9Zm0,16l1.5,1.7c0.3,-0.3,0.7,-0.6,0.8,-0.9l-1.5,-1.7l1.5,-1.6c-0.1,-0.4,-0.5,-0.6,-0.8,-0.9l-1.5,1.7l-1.4,-1.7c-0.3,0.3,-0.7,0.5,-0.8,0.9l1.5,1.6l-1.5,1.7c0.1,0.3,0.5,0.6,0.8,0.9Zm0,-129.6l1.5,1.7c0.3,-0.3,0.7,-0.6,0.8,-0.9L211,891.3l1.5,-1.7c-0.1,-0.3,-0.5,-0.6,-0.8,-0.9l-1.5,1.7l-1.4,-1.7c-0.3,0.3,-0.7,0.6,-0.8,0.9l1.5,1.7l-1.5,1.6c0.1,0.3,0.5,0.6,0.8,0.9Zm0,16l1.5,1.7c0.3,-0.3,0.7,-0.7,0.8,-0.9L211,907.2l1.5,-1.6c-0.1,-0.4,-0.5,-0.6,-0.8,-0.9l-1.5,1.7l-1.4,-1.7c-0.3,0.3,-0.7,0.5,-0.8,0.9l1.5,1.6l-1.5,1.7c0.1,0.2,0.5,0.6,0.8,0.9Zm0,48l1.5,1.6c0.3,-0.3,0.7,-0.6,0.8,-0.9L211,955.2l1.5,-1.7c-0.1,-0.3,-0.5,-0.6,-0.8,-0.8l-1.5,1.6l-1.4,-1.6c-0.3,0.2,-0.7,0.5,-0.8,0.8l1.5,1.7l-1.5,1.6c0.1,0.3,0.5,0.6,0.8,0.9Zm0,-32l1.5,1.6c0.3,-0.2,0.7,-0.6,0.8,-0.8L211,923.2l1.5,-1.6c-0.1,-0.4,-0.5,-0.6,-0.8,-0.9l-1.5,1.7l-1.4,-1.7c-0.3,0.3,-0.7,0.5,-0.8,0.9l1.5,1.6l-1.5,1.7c0.1,0.2,0.5,0.6,0.8,0.8Zm0,16l1.5,1.6c0.3,-0.2,0.7,-0.6,0.8,-0.8L211,939.2l1.5,-1.6c-0.1,-0.4,-0.5,-0.7,-0.8,-0.9l-1.5,1.6l-1.4,-1.6c-0.3,0.2,-0.7,0.5,-0.8,0.9l1.5,1.6l-1.5,1.7c0.1,0.2,0.5,0.6,0.8,0.8Zm0,-129.6l1.5,1.6c0.3,-0.2,0.7,-0.6,0.8,-0.8L211,809.6l1.5,-1.6c-0.1,-0.4,-0.5,-0.7,-0.8,-0.9l-1.5,1.6l-1.4,-1.6c-0.3,0.2,-0.7,0.5,-0.8,0.9l1.5,1.6l-1.5,1.7c0.1,0.2,0.5,0.6,0.8,0.8Zm0,16l1.5,1.6c0.3,-0.3,0.7,-0.6,0.8,-0.9L211,825.6l1.5,-1.7c-0.1,-0.3,-0.5,-0.6,-0.8,-0.8l-1.5,1.6l-1.4,-1.6c-0.3,0.2,-0.7,0.5,-0.8,0.8l1.5,1.7l-1.5,1.6c0.1,0.3,0.5,0.6,0.8,0.9Zm0,47.9l1.5,1.7c0.3,-0.3,0.7,-0.7,0.8,-0.9L211,873.5l1.5,-1.6c-0.1,-0.4,-0.5,-0.6,-0.8,-0.9l-1.5,1.7L208.8,871c-0.3,0.3,-0.7,0.5,-0.8,0.9l1.5,1.6l-1.5,1.7c0.1,0.2,0.5,0.6,0.8,0.9Zm0,-32l1.5,1.7c0.3,-0.3,0.7,-0.6,0.8,-0.9L211,841.6l1.5,-1.7c-0.1,-0.3,-0.5,-0.6,-0.8,-0.8l-1.5,1.6l-1.4,-1.6c-0.3,0.2,-0.7,0.5,-0.8,0.8l1.5,1.7l-1.5,1.6c0.1,0.3,0.5,0.6,0.8,0.9Zm0,16l1.5,1.7c0.3,-0.3,0.7,-0.6,0.8,-0.9L211,857.6l1.5,-1.7c-0.1,-0.3,-0.5,-0.6,-0.8,-0.9l-1.5,1.7L208.8,855c-0.3,0.3,-0.7,0.6,-0.8,0.9l1.5,1.7l-1.5,1.6c0.1,0.3,0.5,0.6,0.8,0.9Zm0,-129.6l1.5,1.7c0.3,-0.3,0.7,-0.6,0.8,-0.9L211,728l1.5,-1.7c-0.1,-0.3,-0.5,-0.6,-0.8,-0.9l-1.5,1.7l-1.4,-1.7c-0.3,0.3,-0.7,0.6,-0.8,0.9l1.5,1.7l-1.5,1.6c0.1,0.3,0.5,0.6,0.8,0.9Zm0,16l1.5,1.7c0.3,-0.3,0.7,-0.6,0.8,-0.9L211,743.9l1.5,-1.6c-0.1,-0.4,-0.5,-0.6,-0.8,-0.9l-1.5,1.7l-1.4,-1.7c-0.3,0.3,-0.7,0.5,-0.8,0.9l1.5,1.6l-1.5,1.7c0.1,0.3,0.5,0.6,0.8,0.9Zm0,48l1.5,1.6c0.3,-0.3,0.7,-0.6,0.8,-0.9L211,791.9l1.5,-1.7c-0.1,-0.3,-0.5,-0.6,-0.8,-0.8l-1.5,1.6l-1.4,-1.6c-0.3,0.2,-0.7,0.5,-0.8,0.8l1.5,1.7l-1.5,1.6c0.1,0.3,0.5,0.6,0.8,0.9Zm0,-32l1.5,1.6c0.3,-0.2,0.7,-0.6,0.8,-0.8L211,759.9l1.5,-1.6c-0.1,-0.4,-0.5,-0.6,-0.8,-0.9l-1.5,1.7l-1.4,-1.7c-0.3,0.3,-0.7,0.5,-0.8,0.9l1.5,1.6l-1.5,1.7c0.1,0.2,0.5,0.6,0.8,0.8Zm0,16l1.5,1.6c0.3,-0.2,0.7,-0.6,0.8,-0.8L211,775.9l1.5,-1.6c-0.1,-0.4,-0.5,-0.6,-0.8,-0.9l-1.5,1.6l-1.4,-1.6c-0.3,0.3,-0.7,0.5,-0.8,0.9l1.5,1.6l-1.5,1.7c0.1,0.2,0.5,0.6,0.8,0.8Zm0,-129.6l1.5,1.6c0.3,-0.2,0.7,-0.6,0.8,-0.8L211,646.3l1.5,-1.6c-0.1,-0.4,-0.5,-0.6,-0.8,-0.9l-1.5,1.6l-1.4,-1.6c-0.3,0.3,-0.7,0.5,-0.8,0.9l1.5,1.6L208,648c0.1,0.2,0.5,0.6,0.8,0.8Zm0,16l1.5,1.6c0.3,-0.2,0.7,-0.6,0.8,-0.9L211,662.3l1.5,-1.7c-0.1,-0.3,-0.5,-0.6,-0.8,-0.8l-1.5,1.6l-1.4,-1.6c-0.3,0.2,-0.7,0.5,-0.8,0.8l1.5,1.7l-1.5,1.6c0.1,0.3,0.5,0.7,0.8,0.9Zm0,47.9l1.5,1.7c0.3,-0.3,0.7,-0.6,0.8,-0.9L211,710.2l1.5,-1.6c-0.1,-0.4,-0.5,-0.6,-0.8,-0.9l-1.5,1.7l-1.4,-1.7c-0.3,0.3,-0.7,0.5,-0.8,0.9l1.5,1.6l-1.5,1.7c0.1,0.3,0.5,0.6,0.8,0.9Zm0,-31.9l1.5,1.6c0.3,-0.3,0.7,-0.6,0.8,-0.9L211,678.3l1.5,-1.7c-0.1,-0.3,-0.5,-0.6,-0.8,-0.8l-1.5,1.6l-1.4,-1.6c-0.3,0.2,-0.7,0.5,-0.8,0.8l1.5,1.7l-1.5,1.6c0.1,0.3,0.5,0.6,0.8,0.9Zm0,15.9l1.5,1.7c0.3,-0.3,0.7,-0.6,0.8,-0.9L211,694.3l1.5,-1.7c-0.1,-0.3,-0.5,-0.6,-0.8,-0.9l-1.5,1.7l-1.4,-1.7c-0.3,0.3,-0.7,0.6,-0.8,0.9l1.5,1.7l-1.5,1.6c0.1,0.3,0.5,0.6,0.8,0.9Zm0,-129.6l1.5,1.7c0.3,-0.3,0.7,-0.6,0.8,-0.9L211,564.7l1.5,-1.7c-0.1,-0.3,-0.5,-0.6,-0.8,-0.8l-1.5,1.6l-1.4,-1.6c-0.3,0.2,-0.7,0.5,-0.8,0.8l1.5,1.7l-1.5,1.6c0.1,0.3,0.5,0.6,0.8,0.9Zm0,16l1.5,1.7c0.3,-0.3,0.7,-0.6,0.8,-0.9L211,580.7l1.5,-1.7c-0.1,-0.3,-0.5,-0.6,-0.8,-0.9l-1.5,1.7l-1.4,-1.7c-0.3,0.3,-0.7,0.6,-0.8,0.9l1.5,1.7l-1.5,1.6c0.1,0.3,0.5,0.6,0.8,0.9Zm0,48l1.5,1.6c0.3,-0.2,0.7,-0.6,0.8,-0.8L211,628.6l1.5,-1.7c-0.1,-0.3,-0.5,-0.6,-0.8,-0.8l-1.5,1.6l-1.4,-1.6c-0.3,0.2,-0.7,0.5,-0.8,0.8l1.5,1.7l-1.5,1.7c0.1,0.2,0.5,0.6,0.8,0.8Zm0,-32l1.5,1.7c0.3,-0.3,0.7,-0.7,0.8,-0.9L211,596.6l1.5,-1.6c-0.1,-0.4,-0.5,-0.6,-0.8,-0.9l-1.5,1.7l-1.4,-1.7c-0.3,0.3,-0.7,0.5,-0.8,0.9l1.5,1.6l-1.5,1.7c0.1,0.2,0.5,0.6,0.8,0.9Zm0,16l1.5,1.6c0.3,-0.2,0.7,-0.6,0.8,-0.8L211,612.6l1.5,-1.6c-0.1,-0.4,-0.5,-0.6,-0.8,-0.9l-1.5,1.7l-1.4,-1.7c-0.3,0.3,-0.7,0.5,-0.8,0.9l1.5,1.6l-1.5,1.7c0.1,0.2,0.5,0.6,0.8,0.8Zm0,-129.6l1.5,1.6c0.3,-0.2,0.7,-0.6,0.8,-0.8L211,483l1.5,-1.6c-0.1,-0.4,-0.5,-0.6,-0.8,-0.9l-1.5,1.7l-1.4,-1.7c-0.3,0.3,-0.7,0.5,-0.8,0.9l1.5,1.6l-1.5,1.7c0.1,0.2,0.5,0.6,0.8,0.8Zm0,16l1.5,1.6c0.3,-0.2,0.7,-0.6,0.8,-0.8L211,499l1.5,-1.6c-0.1,-0.4,-0.5,-0.6,-0.8,-0.9l-1.5,1.6l-1.4,-1.6c-0.3,0.3,-0.7,0.5,-0.8,0.9l1.5,1.6l-1.5,1.7c0.1,0.2,0.5,0.6,0.8,0.8Zm0,47.9l1.5,1.7c0.3,-0.3,0.7,-0.6,0.8,-0.9L211,547l1.5,-1.7c-0.1,-0.3,-0.5,-0.6,-0.8,-0.9l-1.5,1.7l-1.4,-1.7c-0.3,0.3,-0.7,0.6,-0.8,0.9l1.5,1.7l-1.5,1.6c0.1,0.3,0.5,0.6,0.8,0.9Zm0,-31.9l1.5,1.6c0.3,-0.3,0.7,-0.6,0.8,-0.9L211,515l1.5,-1.7c-0.1,-0.3,-0.5,-0.6,-0.8,-0.8l-1.5,1.6l-1.4,-1.6c-0.3,0.2,-0.7,0.5,-0.8,0.8l1.5,1.7l-1.5,1.6c0.1,0.3,0.5,0.6,0.8,0.9Zm0,15.9l1.5,1.7c0.3,-0.3,0.7,-0.6,0.8,-0.9L211,531l1.5,-1.7c-0.1,-0.3,-0.5,-0.6,-0.8,-0.8l-1.5,1.6l-1.4,-1.6c-0.3,0.2,-0.7,0.5,-0.8,0.8l1.5,1.7l-1.5,1.6c0.1,0.3,0.5,0.6,0.8,0.9Zm0,-129.5l1.5,1.6c0.3,-0.3,0.7,-0.6,0.8,-0.9L211,401.4l1.5,-1.7c-0.1,-0.3,-0.5,-0.6,-0.8,-0.8l-1.5,1.6l-1.4,-1.6c-0.3,0.2,-0.7,0.5,-0.8,0.8l1.5,1.7L208,403c0.1,0.3,0.5,0.6,0.8,0.9Zm0,15.9l1.5,1.7c0.3,-0.3,0.7,-0.6,0.8,-0.9L211,417.4l1.5,-1.7c-0.1,-0.3,-0.5,-0.6,-0.8,-0.9l-1.5,1.7l-1.4,-1.7c-0.3,0.3,-0.7,0.6,-0.8,0.9l1.5,1.7L208,419c0.1,0.3,0.5,0.6,0.8,0.9Zm0,48l1.5,1.6c0.3,-0.2,0.7,-0.6,0.8,-0.8L211,465.3l1.5,-1.6c-0.1,-0.4,-0.5,-0.6,-0.8,-0.9l-1.5,1.6l-1.4,-1.6c-0.3,0.3,-0.7,0.5,-0.8,0.9l1.5,1.6L208,467c0.1,0.2,0.5,0.6,0.8,0.8Zm0,-32l1.5,1.7c0.3,-0.3,0.7,-0.6,0.8,-0.9L211,433.3l1.5,-1.6c-0.1,-0.4,-0.5,-0.6,-0.8,-0.9l-1.5,1.7l-1.4,-1.7c-0.3,0.3,-0.7,0.5,-0.8,0.9l1.5,1.6L208,435c0.1,0.3,0.5,0.6,0.8,0.9Zm0,16l1.5,1.6c0.3,-0.2,0.7,-0.6,0.8,-0.8L211,449.3l1.5,-1.6c-0.1,-0.4,-0.5,-0.6,-0.8,-0.9l-1.5,1.7l-1.4,-1.7c-0.3,0.3,-0.7,0.5,-0.8,0.9l1.5,1.6L208,451c0.1,0.2,0.5,0.6,0.8,0.8Zm0,-129.6l1.5,1.7c0.3,-0.3,0.7,-0.7,0.8,-0.9L211,319.7l1.5,-1.6c-0.1,-0.4,-0.5,-0.6,-0.8,-0.9l-1.5,1.7l-1.4,-1.7c-0.3,0.3,-0.7,0.5,-0.8,0.9l1.5,1.6l-1.5,1.7c0.1,0.2,0.5,0.6,0.8,0.9Zm0,16l1.5,1.6c0.3,-0.2,0.7,-0.6,0.8,-0.8L211,335.7l1.5,-1.6c-0.1,-0.4,-0.5,-0.6,-0.8,-0.9l-1.5,1.6l-1.4,-1.6c-0.3,0.3,-0.7,0.5,-0.8,0.9l1.5,1.6l-1.5,1.7c0.1,0.2,0.5,0.6,0.8,0.8Zm0,47.9l1.5,1.7c0.3,-0.3,0.7,-0.6,0.8,-0.9L211,383.7l1.5,-1.7c-0.1,-0.3,-0.5,-0.6,-0.8,-0.9l-1.5,1.7l-1.4,-1.7c-0.3,0.3,-0.7,0.6,-0.8,0.9l1.5,1.7l-1.5,1.6c0.1,0.3,0.5,0.6,0.8,0.9Zm0,-31.9l1.5,1.6c0.3,-0.2,0.7,-0.6,0.8,-0.8L211,351.7l1.5,-1.7c-0.1,-0.3,-0.5,-0.6,-0.8,-0.8l-1.5,1.6l-1.4,-1.6c-0.3,0.2,-0.7,0.5,-0.8,0.8l1.5,1.7l-1.5,1.7c0.1,0.2,0.5,0.6,0.8,0.8Zm0,16l1.5,1.6c0.3,-0.3,0.7,-0.6,0.8,-0.9L211,367.7l1.5,-1.7c-0.1,-0.3,-0.5,-0.6,-0.8,-0.8l-1.5,1.6l-1.4,-1.6c-0.3,0.2,-0.7,0.5,-0.8,0.8l1.5,1.7l-1.5,1.6c0.1,0.3,0.5,0.6,0.8,0.9Zm0,-129.6l1.5,1.6c0.3,-0.3,0.7,-0.6,0.8,-0.9L211,238.1l1.5,-1.7c-0.1,-0.3,-0.5,-0.6,-0.8,-0.8l-1.5,1.6l-1.4,-1.6c-0.3,0.2,-0.7,0.5,-0.8,0.8l1.5,1.7l-1.5,1.6c0.1,0.3,0.5,0.6,0.8,0.9Zm0,15.9l1.5,1.7c0.3,-0.3,0.7,-0.6,0.8,-0.9L211,254.1l1.5,-1.7c-0.1,-0.3,-0.5,-0.6,-0.8,-0.8l-1.5,1.6l-1.4,-1.6c-0.3,0.2,-0.7,0.5,-0.8,0.8l1.5,1.7l-1.5,1.6c0.1,0.3,0.5,0.6,0.8,0.9Zm0,48l1.5,1.6c0.3,-0.2,0.7,-0.6,0.8,-0.8L211,302l1.5,-1.6c-0.1,-0.4,-0.5,-0.6,-0.8,-0.9l-1.5,1.6l-1.4,-1.6c-0.3,0.3,-0.7,0.5,-0.8,0.9l1.5,1.6l-1.5,1.7c0.1,0.2,0.5,0.6,0.8,0.8Zm0,-32l1.5,1.7c0.3,-0.3,0.7,-0.6,0.8,-0.9L211,270.1l1.5,-1.7c-0.1,-0.3,-0.5,-0.6,-0.8,-0.9l-1.5,1.7l-1.4,-1.7c-0.3,0.3,-0.7,0.6,-0.8,0.9l1.5,1.7l-1.5,1.6c0.1,0.3,0.5,0.6,0.8,0.9Zm0,16l1.5,1.7c0.3,-0.3,0.7,-0.7,0.8,-0.9L211,286l1.5,-1.6c-0.1,-0.4,-0.5,-0.6,-0.8,-0.9l-1.5,1.7l-1.4,-1.7c-0.3,0.3,-0.7,0.5,-0.8,0.9l1.5,1.6l-1.5,1.7c0.1,0.2,0.5,0.6,0.8,0.9Zm0,-129.6l1.5,1.7c0.3,-0.3,0.7,-0.6,0.8,-0.9L211,156.4l1.5,-1.6c-0.1,-0.4,-0.5,-0.6,-0.8,-0.9l-1.5,1.7l-1.4,-1.7c-0.3,0.3,-0.7,0.5,-0.8,0.9l1.5,1.6l-1.5,1.7c0.1,0.3,0.5,0.6,0.8,0.9Zm0,16l1.5,1.6c0.3,-0.2,0.7,-0.6,0.8,-0.8L211,172.4l1.5,-1.6c-0.1,-0.4,-0.5,-0.6,-0.8,-0.9l-1.5,1.7l-1.4,-1.7c-0.3,0.3,-0.7,0.5,-0.8,0.9l1.5,1.6l-1.5,1.7c0.1,0.2,0.5,0.6,0.8,0.8Zm0,47.9l1.5,1.7c0.3,-0.3,0.7,-0.6,0.8,-0.9L211,220.4l1.5,-1.7c-0.1,-0.3,-0.5,-0.6,-0.8,-0.8l-1.5,1.6l-1.4,-1.6c-0.3,0.2,-0.7,0.5,-0.8,0.8l1.5,1.7L208,222c0.1,0.3,0.5,0.6,0.8,0.9Zm0,-31.9l1.5,1.6c0.3,-0.2,0.7,-0.6,0.8,-0.8L211,188.4l1.5,-1.6c-0.1,-0.4,-0.5,-0.6,-0.8,-0.9l-1.5,1.6l-1.4,-1.6c-0.3,0.3,-0.7,0.5,-0.8,0.9l1.5,1.6l-1.5,1.7c0.1,0.2,0.5,0.6,0.8,0.8Zm0,16l1.5,1.6c0.3,-0.3,0.7,-0.6,0.8,-0.9L211,204.4l1.5,-1.7c-0.1,-0.3,-0.5,-0.6,-0.8,-0.8l-1.5,1.6l-1.4,-1.6c-0.3,0.2,-0.7,0.5,-0.8,0.8l1.5,1.7L208,206c0.1,0.3,0.5,0.6,0.8,0.9Zm0,-129.6l1.5,1.6c0.3,-0.2,0.7,-0.6,0.8,-0.8L211,74.8l1.5,-1.7c-0.1,-0.3,-0.5,-0.6,-0.8,-0.8l-1.5,1.6l-1.4,-1.6c-0.3,0.2,-0.7,0.5,-0.8,0.8l1.5,1.7L208,76.5c0.1,0.2,0.5,0.6,0.8,0.8Zm0,16l1.5,1.6c0.3,-0.3,0.7,-0.6,0.8,-0.9L211,90.8l1.5,-1.7c-0.1,-0.3,-0.5,-0.6,-0.8,-0.8l-1.5,1.6l-1.4,-1.6c-0.3,0.2,-0.7,0.5,-0.8,0.8l1.5,1.7L208,92.4c0.1,0.3,0.5,0.6,0.8,0.9Zm0,47.9l1.5,1.6c0.3,-0.2,0.7,-0.6,0.8,-0.8L211,138.7l1.5,-1.6c-0.1,-0.4,-0.5,-0.6,-0.8,-0.9l-1.5,1.7l-1.4,-1.7c-0.3,0.3,-0.7,0.5,-0.8,0.9l1.5,1.6l-1.5,1.7c0.1,0.2,0.5,0.6,0.8,0.8Zm0,-32l1.5,1.7c0.3,-0.3,0.7,-0.6,0.8,-0.9L211,106.8l1.5,-1.7c-0.1,-0.3,-0.5,-0.6,-0.8,-0.9l-1.5,1.7l-1.4,-1.7c-0.3,0.3,-0.7,0.6,-0.8,0.9l1.5,1.7l-1.5,1.6c0.1,0.3,0.5,0.6,0.8,0.9Zm0,16l1.5,1.7c0.3,-0.3,0.7,-0.6,0.8,-0.9L211,122.7l1.5,-1.6c-0.1,-0.4,-0.5,-0.6,-0.8,-0.9l-1.5,1.7l-1.4,-1.7c-0.3,0.3,-0.7,0.5,-0.8,0.9l1.5,1.6l-1.5,1.7c0.1,0.3,0.5,0.6,0.8,0.9Zm0,-126l1.5,1.6c0.3,-0.2,0.7,-0.6,0.8,-0.8L211,-3.3l1.5,-1.6c-0.1,-0.4,-0.5,-0.6,-0.8,-0.9l-1.5,1.7l-1.4,-1.7c-0.3,0.3,-0.7,0.5,-0.8,0.9l1.5,1.6L208,-1.6c0.1,0.2,0.5,0.6,0.8,0.8Zm0,15.9l1.5,1.6c0.3,-0.2,0.7,-0.6,0.8,-0.8L211,12.6L212.5,11c-0.1,-0.4,-0.5,-0.6,-0.8,-0.9l-1.5,1.6l-1.4,-1.6c-0.3,0.3,-0.7,0.5,-0.8,0.9l1.5,1.6L208,14.3c0.1,0.2,0.5,0.6,0.8,0.8Zm0,47.9l1.5,1.7c0.3,-0.3,0.7,-0.6,0.8,-0.9L211,60.6l1.5,-1.7C212.4,58.6,212,58.3,211.7,58l-1.5,1.7L208.8,58c-0.3,0.3,-0.7,0.6,-0.8,0.9l1.5,1.7L208,62.2c0.1,0.3,0.5,0.6,0.8,0.9Zm0,-31.9l1.5,1.6c0.3,-0.2,0.7,-0.6,0.8,-0.9L211,28.6l1.5,-1.7c-0.1,-0.3,-0.5,-0.6,-0.8,-0.8l-1.5,1.6l-1.4,-1.6c-0.3,0.2,-0.7,0.5,-0.8,0.8l1.5,1.7L208,30.2c0.1,0.3,0.5,0.7,0.8,0.9Zm0,15.9l1.5,1.7c0.3,-0.3,0.7,-0.6,0.8,-0.9L211,44.6l1.5,-1.7c-0.1,-0.3,-0.5,-0.6,-0.8,-0.8l-1.5,1.6l-1.4,-1.6c-0.3,0.2,-0.7,0.5,-0.8,0.8l1.5,1.7L208,46.2c0.1,0.3,0.5,0.6,0.8,0.9Z" class="g3_6" />
</g>
<path d="M281.8,30.7c-3,-0.4,-6.1,0,-9,0.3c-6.6,0.6,-12.4,5.6,-13.8,12.7c-0.2,1.6,-0.4,3.3,-0.7,4.7c0.2,4.5,1.2,8.4,3.7,11.8c3.4,4.9,8,8,13.7,9.3c5.6,1.4,10.4,-0.7,14.2,-4.4c2.8,-2.8,4.8,-6.3,5.3,-10.4c0.2,-0.8,0.3,-1.7,0.5,-2.4c1.1,-4.4,0,-8.6,-1.9,-12.4c-2.4,-4.9,-6.3,-8.3,-12,-9.2Z" class="g4_6" />
<image x="710" y="504" width="113" height="108" xlink:href="https://majemastoragelive.blob.core.windows.net/learn-english-test/ebook/Grade3/wildanimals/page4/img/1.png" />
<image x="864" y="505" width="113" height="108" xlink:href="https://majemastoragelive.blob.core.windows.net/learn-english-test/ebook/Grade3/wildanimals/page4/img/2.png" />
<image x="1014" y="505" width="113" height="108" xlink:href="https://majemastoragelive.blob.core.windows.net/learn-english-test/ebook/Grade3/wildanimals/page4/img/3.png" />
<image x="738" y="527" width="60" height="67" xlink:href="https://majemastoragelive.blob.core.windows.net/learn-english-test/ebook/Grade3/wildanimals/page4/img/4.png" />
<image x="558" y="504" width="113" height="108" xlink:href="https://majemastoragelive.blob.core.windows.net/learn-english-test/ebook/Grade3/wildanimals/page4/img/5.png" />
<image x="585" y="523" width="55" height="59" xlink:href="https://majemastoragelive.blob.core.windows.net/learn-english-test/ebook/Grade3/wildanimals/page4/img/6.png" />
<image x="395" y="505" width="113" height="108" xlink:href="https://majemastoragelive.blob.core.windows.net/learn-english-test/ebook/Grade3/wildanimals/page4/img/7.png" />
<image x="424" y="522" width="56" height="74" xlink:href="https://majemastoragelive.blob.core.windows.net/learn-english-test/ebook/Grade3/wildanimals/page4/img/8.png" />
<image x="329" y="422" width="92" height="75" xlink:href="https://majemastoragelive.blob.core.windows.net/learn-english-test/ebook/Grade3/wildanimals/page4/img/9.png" />
<image x="305" y="941" width="71" height="58" xlink:href="https://majemastoragelive.blob.core.windows.net/learn-english-test/ebook/Grade3/wildanimals/page4/img/10.png" />
<image x="245" y="504" width="113" height="108" xlink:href="https://majemastoragelive.blob.core.windows.net/learn-english-test/ebook/Grade3/wildanimals/page4/img/11.png" />
<image x="272" y="517" width="56" height="74" xlink:href="https://majemastoragelive.blob.core.windows.net/learn-english-test/ebook/Grade3/wildanimals/page4/img/12.png" />
<image x="557" y="223" width="113" height="108" xlink:href="https://majemastoragelive.blob.core.windows.net/learn-english-test/ebook/Grade3/wildanimals/page4/img/13.png" />
<image x="706" y="223" width="114" height="108" xlink:href="https://majemastoragelive.blob.core.windows.net/learn-english-test/ebook/Grade3/wildanimals/page4/img/14.png" />
<image x="864" y="223" width="113" height="108" xlink:href="https://majemastoragelive.blob.core.windows.net/learn-english-test/ebook/Grade3/wildanimals/page4/img/15.png" />
<image x="1013" y="223" width="114" height="108" xlink:href="https://majemastoragelive.blob.core.windows.net/learn-english-test/ebook/Grade3/wildanimals/page4/img/16.png" />
<image x="254" y="730" width="51" height="51" xlink:href="https://majemastoragelive.blob.core.windows.net/learn-english-test/ebook/Grade3/wildanimals/page4/img/17.png" />
<path d="M378.5,842.5l731,0" class="g5_6" />
<path d="M378.5,891.5l731,0" class="g5_6" />
<path d="M378.5,939.5l731,0" class="g5_6" />
<path d="M378.5,987.5l731,0" class="g5_6" />
<path d="M378.5,1037.5l731,0" class="g5_6" />
<path d="M378.5,1085.5l731,0" class="g5_6" />
<image x="306" y="84" width="51" height="50" xlink:href="https://majemastoragelive.blob.core.windows.net/learn-english-test/ebook/Grade3/wildanimals/page4/img/18.png" />
<image x="255" y="83" width="51" height="53" xlink:href="https://majemastoragelive.blob.core.windows.net/learn-english-test/ebook/Grade3/images/1.png" />
<image x="959" y="424" width="71" height="70" xlink:href="https://majemastoragelive.blob.core.windows.net/learn-english-test/ebook/Grade3/wildanimals/page4/img/20.png" />
<image x="311" y="1046" width="51" height="51" xlink:href="https://majemastoragelive.blob.core.windows.net/learn-english-test/ebook/Grade3/wildanimals/page4/img/21.png" />
<image x="658" y="430" width="64" height="65" xlink:href="https://majemastoragelive.blob.core.windows.net/learn-english-test/ebook/Grade3/wildanimals/page4/img/22.png" />
<image x="310" y="997" width="52" height="53" xlink:href="https://majemastoragelive.blob.core.windows.net/learn-english-test/ebook/Grade3/wildanimals/page4/img/23.png" />
<image x="651" y="139" width="74" height="71" xlink:href="https://majemastoragelive.blob.core.windows.net/learn-english-test/ebook/Grade3/wildanimals/page4/img/24.png" />
<image x="311" y="844" width="57" height="55" xlink:href="https://majemastoragelive.blob.core.windows.net/learn-english-test/ebook/Grade3/wildanimals/page4/img/25.png" />
<image x="960" y="133" width="74" height="76" xlink:href="https://majemastoragelive.blob.core.windows.net/learn-english-test/ebook/Grade3/wildanimals/page4/img/26.png" />
<image x="310" y="894" width="55" height="53" xlink:href="https://majemastoragelive.blob.core.windows.net/learn-english-test/ebook/Grade3/wildanimals/page4/img/27.png" />
<path d="M532,168l0,242" class="g6_6" />
<path d="M532,165l0,0m0,247l0,0" class="g7_6" />
<path d="M532,439l0,247" class="g6_6" />
<path d="M532,435l0,0m0,253l0,0" class="g7_6" />
<path d="M842,168l0,242" class="g6_6" />
<path d="M842,165l0,0m0,247l0,0" class="g7_6" />
<path d="M842,440l0,246" class="g6_6" />
<path d="M842,437l0,0m0,251l0,0" class="g7_6" />
<image x="556" y="316" width="114" height="108" xlink:href="https://majemastoragelive.blob.core.windows.net/learn-english-test/ebook/Grade3/wildanimals/page4/img/28.png" />
<image x="577" y="345" width="72" height="42" xlink:href="https://majemastoragelive.blob.core.windows.net/learn-english-test/ebook/Grade3/wildanimals/page4/img/29.png" />
<image x="707" y="315" width="114" height="108" xlink:href="https://majemastoragelive.blob.core.windows.net/learn-english-test/ebook/Grade3/wildanimals/page4/img/30.png" />
<image x="729" y="340" width="72" height="42" xlink:href="https://majemastoragelive.blob.core.windows.net/learn-english-test/ebook/Grade3/wildanimals/page4/img/31.png" />
<image x="583" y="244" width="55" height="52" xlink:href="https://majemastoragelive.blob.core.windows.net/learn-english-test/ebook/Grade3/wildanimals/page4/img/32.png" />
<image x="893" y="528" width="54" height="52" xlink:href="https://majemastoragelive.blob.core.windows.net/learn-english-test/ebook/Grade3/wildanimals/page4/img/33.png" />
<image x="1041" y="526" width="54" height="52" xlink:href="https://majemastoragelive.blob.core.windows.net/learn-english-test/ebook/Grade3/wildanimals/page4/img/34.png" />
<image x="728" y="250" width="70" height="44" xlink:href="https://majemastoragelive.blob.core.windows.net/learn-english-test/ebook/Grade3/wildanimals/page4/img/35.png" />
<image x="897" y="244" width="47" height="62" xlink:href="https://majemastoragelive.blob.core.windows.net/learn-english-test/ebook/Grade3/wildanimals/page4/img/36.png" />
<image x="1046" y="242" width="46" height="62" xlink:href="https://majemastoragelive.blob.core.windows.net/learn-english-test/ebook/Grade3/wildanimals/page4/img/37.png" />
<image x="865" y="596" width="113" height="108" xlink:href="https://majemastoragelive.blob.core.windows.net/learn-english-test/ebook/Grade3/wildanimals/page4/img/38.png" />
<image x="898" y="616" width="47" height="61" xlink:href="https://majemastoragelive.blob.core.windows.net/learn-english-test/ebook/Grade3/wildanimals/page4/img/39.png" />
<image x="245" y="596" width="113" height="108" xlink:href="https://majemastoragelive.blob.core.windows.net/learn-english-test/ebook/Grade3/wildanimals/page4/img/40.png" />
<image x="267" y="622" width="67" height="50" xlink:href="https://majemastoragelive.blob.core.windows.net/learn-english-test/ebook/Grade3/wildanimals/page4/img/41.png" />
<image x="395" y="595" width="113" height="108" xlink:href="https://majemastoragelive.blob.core.windows.net/learn-english-test/ebook/Grade3/wildanimals/page4/img/42.png" />
<image x="416" y="621" width="69" height="56" xlink:href="https://majemastoragelive.blob.core.windows.net/learn-english-test/ebook/Grade3/wildanimals/page4/img/43.png" />
<image x="557" y="596" width="113" height="108" xlink:href="https://majemastoragelive.blob.core.windows.net/learn-english-test/ebook/Grade3/wildanimals/page4/img/44.png" />
<image x="578" y="623" width="73" height="52" xlink:href="https://majemastoragelive.blob.core.windows.net/learn-english-test/ebook/Grade3/wildanimals/page4/img/45.png" />
<image x="710" y="595" width="114" height="108" xlink:href="https://majemastoragelive.blob.core.windows.net/learn-english-test/ebook/Grade3/wildanimals/page4/img/46.png" />
<image x="739" y="616" width="56" height="58" xlink:href="https://majemastoragelive.blob.core.windows.net/learn-english-test/ebook/Grade3/wildanimals/page4/img/47.png" />
<image x="1014" y="315" width="113" height="108" xlink:href="https://majemastoragelive.blob.core.windows.net/learn-english-test/ebook/Grade3/wildanimals/page4/img/48.png" />
<image x="1043" y="334" width="59" height="67" xlink:href="https://majemastoragelive.blob.core.windows.net/learn-english-test/ebook/Grade3/wildanimals/page4/img/49.png" />
<image x="865" y="315" width="114" height="108" xlink:href="https://majemastoragelive.blob.core.windows.net/learn-english-test/ebook/Grade3/wildanimals/page4/img/50.png" />
<image x="886" y="339" width="73" height="52" xlink:href="https://majemastoragelive.blob.core.windows.net/learn-english-test/ebook/Grade3/wildanimals/page4/img/51.png" />
<image x="1015" y="596" width="113" height="108" xlink:href="https://majemastoragelive.blob.core.windows.net/learn-english-test/ebook/Grade3/wildanimals/page4/img/52.png" />
<image x="1038" y="622" width="68" height="56" xlink:href="https://majemastoragelive.blob.core.windows.net/learn-english-test/ebook/Grade3/wildanimals/page4/img/53.png" />
<path d="M598.5,220.5l24,0l0,-24l-24,0l0,24Z" class="g8_6" />
<path d="M287.5,502.5l24,0l0,-24l-24,0l0,24Z" class="g8_6" />
<path d="M601.5,502.5l24,0l0,-25l-24,0l0,25Z" class="g8_6" />
<path d="M906.5,502.5l25,0l0,-24l-25,0l0,24Z" class="g8_6" />
<path d="M906.5,220.5l25,0l0,-24l-25,0l0,24Z" class="g8_6" />
<image x="243" y="215" width="113" height="115" xlink:href="https://majemastoragelive.blob.core.windows.net/learn-english-test/ebook/Grade3/wildanimals/page4/img/54.png" />
<image x="394" y="225" width="113" height="108" xlink:href="https://majemastoragelive.blob.core.windows.net/learn-english-test/ebook/Grade3/wildanimals/page4/img/55.png" />
<image x="339" y="139" width="77" height="67" xlink:href="https://majemastoragelive.blob.core.windows.net/learn-english-test/ebook/Grade3/wildanimals/page4/img/56.png" />
<image x="308" y="784" width="68" height="60" xlink:href="https://majemastoragelive.blob.core.windows.net/learn-english-test/ebook/Grade3/wildanimals/page4/img/57.png" />
<image x="264" y="257" width="70" height="40" xlink:href="https://majemastoragelive.blob.core.windows.net/learn-english-test/ebook/Grade3/wildanimals/page4/img/58.png" />
<image x="415" y="252" width="71" height="39" xlink:href="https://majemastoragelive.blob.core.windows.net/learn-english-test/ebook/Grade3/wildanimals/page4/img/59.png" />
<image x="393" y="317" width="114" height="108" xlink:href="https://majemastoragelive.blob.core.windows.net/learn-english-test/ebook/Grade3/wildanimals/page4/img/60.png" />
<image x="417" y="337" width="66" height="63" xlink:href="https://majemastoragelive.blob.core.windows.net/learn-english-test/ebook/Grade3/wildanimals/page4/img/61.png" />
<image x="244" y="315" width="113" height="108" xlink:href="https://majemastoragelive.blob.core.windows.net/learn-english-test/ebook/Grade3/wildanimals/page4/img/62.png" />
<image x="263" y="341" width="74" height="52" xlink:href="https://majemastoragelive.blob.core.windows.net/learn-english-test/ebook/Grade3/wildanimals/page4/img/63.png" />
<path d="M285.5,220.5l25,0l0,-25l-25,0l0,25Z" class="g8_6" />
<path d="M436.5,220.5l24,0l0,-25l-24,0l0,25Z" class="g8_6" />
<path d="M748.5,220.5l25,0l0,-24l-25,0l0,24Z" class="g8_6" />
<path d="M437.5,502.5l25,0l0,-24l-25,0l0,24Z" class="g8_6" />
<path d="M751.5,502.5l25,0l0,-25l-25,0l0,25Z" class="g8_6" />
<path d="M1057.5,502.5l24,0l0,-24l-24,0l0,24Z" class="g8_6" />
<path d="M1057.5,220.5l24,0l0,-24l-24,0l0,24Z" class="g8_6" />
<path d="M62.8,960.1c0,0,-4,0,-4,4l0,20.6c0,0,0,4,4,4l93,0c0,0,4,0,4,-4l0,-20.6c0,0,0,-4,-4,-4Z" class="g9_6" />
<path d="M62.8,960.1c0,0,-4,0,-4,4l0,20.6c0,0,0,4,4,4l93,0c0,0,4,0,4,-4l0,-20.6c0,0,0,-4,-4,-4l-93,0Z" class="g10_6" />
<path d="M64.3,962.4l-0.6,-4.5m-0.9,5l-2,-4.2m1.1,4.9l-3.7,-2.7m3.2,3.8L56.8,964m4.5,2.6l-4.6,0m4.6,2.3l-4.6,0m4.6,2.3l-4.6,0m4.6,2.3l-4.6,0m4.6,2.3l-4.6,0m4.6,2.3l-4.6,0m4.6,2.4l-4.6,0m4.6,2.3l-4.6,0m4.7,1.4l-4.3,1.6m5,-0.3l-3.4,3m4.5,-2.3l-1.8,4.2m3.2,-4l0,4.6m2.3,-4.6l0,4.6m2.3,-4.6l0,4.6m2.3,-4.6l0,4.6m2.3,-4.6l0,4.6m2.3,-4.6l0,4.6m2.3,-4.6l0,4.6m2.3,-4.6l0,4.6M83,986.4l0,4.6m2.3,-4.6l0,4.6m2.3,-4.6l0,4.6m2.3,-4.6l0,4.6m2.3,-4.6l0,4.6m2.3,-4.6l0,4.6m2.4,-4.6l0,4.6m2.3,-4.6l0,4.6m2.3,-4.6l0,4.6m2.3,-4.6l0,4.6m2.3,-4.6l0,4.6m2.3,-4.6l0,4.6m2.3,-4.6l0,4.6m2.3,-4.6l0,4.6m2.3,-4.6l0,4.6m2.3,-4.6l0,4.6m2.3,-4.6l0,4.6m2.3,-4.6l0,4.6m2.3,-4.6l0,4.6m2.3,-4.6l0,4.6m2.3,-4.6l0,4.6m2.4,-4.6l0,4.6m2.3,-4.6l0,4.6m2.3,-4.6l0,4.6m2.3,-4.6l0,4.6m2.3,-4.6l0,4.6m2.3,-4.6l0,4.6m2.3,-4.6l0,4.6m2.3,-4.6l0,4.6m2.3,-4.6l0,4.6m2.3,-4.6l0,4.6m2.2,-4.6l0.2,4.6m1.2,-4.9l1.9,4.2M157,985.4l3.3,3.1m-2.8,-4.2l4.5,1.2m-4.3,-2.9l4.6,0m-4.6,-2.3l4.6,0M157.7,978l4.6,0m-4.6,-2.3l4.6,0m-4.6,-2.3l4.6,0m-4.6,-2.3l4.6,0m-4.6,-2.3l4.6,0m-4.6,-2.3l4.6,0m-4.7,-1.7l4.4,-1.2m-5.1,-0.1l3.8,-2.7m-4.5,2l1.7,-4.2m-3.2,3.8l0.2,-4.5m-2.4,4.5l0,-4.5m-2.3,4.5l0,-4.5m-2.3,4.5l0,-4.5m-2.3,4.5l0,-4.5m-2.3,4.5l0,-4.5m-2.3,4.5l0,-4.5m-2.3,4.5l0,-4.5m-2.3,4.5l0,-4.5m-2.3,4.5l0,-4.5m-2.3,4.5l0,-4.5m-2.4,4.5l0,-4.5m-2.3,4.5l0,-4.5m-2.3,4.5l0,-4.5m-2.3,4.5l0,-4.5m-2.3,4.5l0,-4.5m-2.3,4.5l0,-4.5m-2.3,4.5l0,-4.5m-2.3,4.5l0,-4.5m-2.3,4.5l0,-4.5m-2.3,4.5l0,-4.5m-2.3,4.5l0,-4.5m-2.3,4.5l0,-4.5m-2.3,4.5l0,-4.5m-2.3,4.5l0,-4.5m-2.3,4.5l0,-4.5m-2.3,4.5l0,-4.5m-2.4,4.5l0,-4.5m-2.3,4.5l0,-4.5m-2.3,4.5l0,-4.5m-2.3,4.5l0,-4.5m-2.3,4.5l0,-4.5M81,962.4l0,-4.5m-2.3,4.5l0,-4.5m-2.3,4.5l0,-4.5m-2.3,4.5l0,-4.5m-2.3,4.5l0,-4.5m-2.3,4.5l0,-4.5m-2.3,4.5l0,-4.5m-2.3,4.5l0,-4.5" class="g11_6" />
 <image x="68" y="856" width="77" height="71" xlink:href="https://majemastoragelive.blob.core.windows.net/learn-english-test/ebook/Grade3/wildanimals/page4/img/68.png" />
    <image x="65" y="727" width="85" height="85" xlink:href="https://majemastoragelive.blob.core.windows.net/learn-english-test/ebook/Grade3/wildanimals/page4/img/69.png" />
 <use x="0" y="-15" xlink:href="#button" />
    <use x="0" y="-83" xlink:href="#button" />
</svg>