<?xml version="1.0" encoding="UTF-8" standalone="no"?>
<!DOCTYPE svg PUBLIC "-//W3C//DTD SVG 1.1//EN"
"http://www.w3.org/Graphics/SVG/1.1/DTD/svg11.dtd">
<svg version="1.1" xmlns="http://www.w3.org/2000/svg" xmlns:xlink="http://www.w3.org/1999/xlink">
<defs>
<clipPath id="c0_2"><path d="M0.5,1190.5L0.5,0.5l1160,0l0,1190Z" /></clipPath>
<style type="text/css"><![CDATA[
	.btn_bg{
fill: #00A1BE;
}
.btn_bortercolor{
fill: none;
stroke: #6DC6DA;
stroke-width: 5;
stroke-linecap: butt;
stroke-linejoin: miter;
stroke-miterlimit: 4;
}
.btn_border{
fill: none;
stroke: #FFFFFF;
stroke-width: 1;
stroke-linecap: butt;
stroke-linejoin: miter;
stroke-miterlimit: 4;
}

.g9_2{
fill: none;
stroke: #FFFFFF;
stroke-width: 1;
stroke-linecap: butt;
stroke-linejoin: miter;
stroke-miterlimit: 4;
}
.g3_2{
fill: #00BEFF;
}
.g10_2{
fill: none;
stroke: #F5AFCE;
stroke-width: 2;
stroke-linecap: butt;
stroke-linejoin: miter;
}
.g2_2{
fill: #F5AFCE;
}
.g1_2{
fill: #FDEFF5;
}
.g4_2{
fill: #FFFFFF;
}
.g8_2{
fill: none;
stroke: #62BDCE;
stroke-width: 5;
stroke-linecap: butt;
stroke-linejoin: miter;
stroke-miterlimit: 4;
}
.g7_2{
fill: #0099B4;
}
.g5_2{
fill: none;
stroke: #F5AFCE;
stroke-width: 2;
stroke-linecap: butt;
stroke-linejoin: miter;
stroke-miterlimit: 4;
}
.g6_2{
fill: #F8BFD8;
}
]]></style>
</defs>
<path d="M0,1190l1160,0L1160,0L0,0L0,1190Z" class="g1_2" />
<path d="M263.2,43.3l-1.3,1.6c0.2,0.3,0.5,0.6,0.7,0.8l1.3,-1.6l1.4,1.6c0.3,-0.2,0.5,-0.5,0.7,-0.8l-1.3,-1.6L266,41.9c-0.2,-0.3,-0.4,-0.7,-0.7,-0.8l-1.4,1.5l-1.3,-1.5c-0.2,0.1,-0.5,0.5,-0.7,0.8Zm-13.2,0l-1.4,1.6c0.3,0.3,0.5,0.6,0.8,0.8l1.3,-1.6l1.4,1.6c0.3,-0.2,0.5,-0.5,0.7,-0.8l-1.4,-1.6l1.4,-1.4c-0.2,-0.3,-0.4,-0.7,-0.7,-0.8l-1.4,1.5l-1.3,-1.5c-0.3,0.1,-0.5,0.5,-0.8,0.8Zm-39.7,0L209,44.9c0.2,0.3,0.5,0.6,0.7,0.8L211,44.1l1.4,1.6c0.3,-0.2,0.5,-0.5,0.7,-0.8l-1.3,-1.6l1.3,-1.4c-0.2,-0.3,-0.4,-0.7,-0.7,-0.8L211,42.6l-1.3,-1.5c-0.2,0.1,-0.5,0.5,-0.7,0.8Zm26.5,0l-1.4,1.6c0.2,0.3,0.5,0.6,0.7,0.8l1.4,-1.6l1.4,1.6c0.2,-0.2,0.5,-0.5,0.7,-0.8l-1.4,-1.6l1.4,-1.4c-0.2,-0.3,-0.5,-0.7,-0.7,-0.8l-1.4,1.5l-1.4,-1.5c-0.2,0.1,-0.5,0.5,-0.7,0.8Zm-13.3,0l-1.3,1.6c0.2,0.3,0.5,0.6,0.7,0.8l1.4,-1.6l1.3,1.6c0.3,-0.2,0.5,-0.5,0.8,-0.8L225,43.3l1.4,-1.4c-0.3,-0.3,-0.5,-0.7,-0.8,-0.8l-1.3,1.5l-1.4,-1.5c-0.2,0.1,-0.5,0.5,-0.7,0.8Zm107.3,0l-1.4,1.6c0.2,0.3,0.5,0.6,0.8,0.8l1.3,-1.6l1.4,1.6c0.3,-0.2,0.5,-0.5,0.7,-0.8l-1.4,-1.6l1.4,-1.4c-0.2,-0.3,-0.4,-0.7,-0.7,-0.8l-1.4,1.5l-1.3,-1.5c-0.3,0.1,-0.6,0.5,-0.8,0.8Zm-13.2,0l-1.4,1.6c0.2,0.3,0.5,0.6,0.7,0.8l1.4,-1.6l1.4,1.6c0.2,-0.2,0.5,-0.5,0.7,-0.8L319,43.3l1.4,-1.4c-0.2,-0.3,-0.5,-0.7,-0.7,-0.8l-1.4,1.5l-1.4,-1.5c-0.2,0.1,-0.5,0.5,-0.7,0.8Zm-39.7,0l-1.4,1.6c0.2,0.3,0.5,0.6,0.7,0.8l1.4,-1.6l1.4,1.6c0.3,-0.2,0.5,-0.5,0.7,-0.8l-1.4,-1.6l1.4,-1.4c-0.2,-0.3,-0.4,-0.7,-0.7,-0.8l-1.4,1.5l-1.4,-1.5c-0.2,0.1,-0.5,0.5,-0.7,0.8Zm26.4,0L303,44.9c0.2,0.3,0.5,0.6,0.7,0.8l1.4,-1.6l1.3,1.6c0.3,-0.2,0.5,-0.5,0.7,-0.8l-1.3,-1.6l1.3,-1.4c-0.2,-0.3,-0.4,-0.7,-0.7,-0.8l-1.3,1.5l-1.4,-1.5c-0.2,0.1,-0.5,0.5,-0.7,0.8Zm-13.2,0l-1.3,1.6c0.2,0.3,0.5,0.6,0.7,0.8l1.3,-1.6l1.4,1.6c0.3,-0.2,0.5,-0.5,0.7,-0.8l-1.3,-1.6l1.3,-1.4c-0.2,-0.3,-0.4,-0.7,-0.7,-0.8l-1.4,1.5l-1.3,-1.5c-0.2,0.1,-0.5,0.5,-0.7,0.8Zm107.3,0L397,44.9c0.2,0.3,0.5,0.6,0.7,0.8l1.4,-1.6l1.4,1.6c0.2,-0.2,0.5,-0.5,0.7,-0.8l-1.4,-1.6l1.4,-1.4c-0.2,-0.3,-0.5,-0.7,-0.7,-0.8l-1.4,1.5l-1.4,-1.5c-0.2,0.1,-0.5,0.5,-0.7,0.8Zm-13.3,0l-1.3,1.6c0.2,0.3,0.5,0.6,0.7,0.8l1.4,-1.6l1.3,1.6c0.3,-0.2,0.5,-0.5,0.7,-0.8l-1.3,-1.6l1.3,-1.4c-0.2,-0.3,-0.4,-0.7,-0.7,-0.8l-1.3,1.5l-1.4,-1.5c-0.2,0.1,-0.5,0.5,-0.7,0.8Zm-39.6,0l-1.4,1.6c0.2,0.3,0.5,0.6,0.7,0.8l1.4,-1.6l1.3,1.6c0.3,-0.2,0.6,-0.5,0.8,-0.8l-1.4,-1.6l1.4,-1.4c-0.2,-0.3,-0.5,-0.7,-0.8,-0.8l-1.3,1.5l-1.4,-1.5c-0.2,0.1,-0.5,0.5,-0.7,0.8Zm26.4,0l-1.4,1.6c0.3,0.3,0.6,0.6,0.8,0.8l1.3,-1.6l1.4,1.6c0.3,-0.2,0.5,-0.5,0.7,-0.8l-1.3,-1.6l1.3,-1.4c-0.2,-0.3,-0.4,-0.7,-0.7,-0.8l-1.4,1.5l-1.3,-1.5c-0.2,0.1,-0.5,0.5,-0.8,0.8Zm-13.2,0l-1.4,1.6c0.2,0.3,0.5,0.6,0.7,0.8l1.4,-1.6l1.4,1.6c0.3,-0.2,0.5,-0.5,0.7,-0.8l-1.4,-1.6l1.4,-1.4c-0.2,-0.3,-0.4,-0.7,-0.7,-0.8l-1.4,1.5L358,41.1c-0.2,0.1,-0.5,0.5,-0.7,0.8Zm107.2,0l-1.3,1.6c0.2,0.3,0.5,0.6,0.7,0.8l1.4,-1.6l1.3,1.6c0.3,-0.2,0.5,-0.5,0.7,-0.8l-1.3,-1.6l1.3,-1.4c-0.2,-0.3,-0.4,-0.7,-0.7,-0.8l-1.3,1.5l-1.4,-1.5c-0.2,0.1,-0.5,0.5,-0.7,0.8Zm-13.2,0l-1.4,1.6c0.3,0.3,0.5,0.6,0.8,0.8l1.3,-1.6l1.4,1.6c0.3,-0.2,0.5,-0.5,0.7,-0.8l-1.4,-1.6l1.4,-1.4c-0.2,-0.3,-0.4,-0.7,-0.7,-0.8l-1.4,1.5l-1.3,-1.5c-0.3,0.1,-0.5,0.5,-0.8,0.8Zm-39.7,0l-1.3,1.6c0.2,0.3,0.5,0.6,0.7,0.8l1.4,-1.6l1.3,1.6c0.3,-0.2,0.5,-0.5,0.7,-0.8l-1.3,-1.6l1.3,-1.4c-0.2,-0.3,-0.4,-0.7,-0.7,-0.8l-1.3,1.5l-1.4,-1.5c-0.2,0.1,-0.5,0.5,-0.7,0.8Zm26.5,0l-1.4,1.6c0.2,0.3,0.5,0.6,0.7,0.8l1.4,-1.6l1.4,1.6c0.3,-0.2,0.5,-0.5,0.7,-0.8l-1.4,-1.6l1.4,-1.4c-0.2,-0.3,-0.4,-0.7,-0.7,-0.8l-1.4,1.5l-1.4,-1.5c-0.2,0.1,-0.5,0.5,-0.7,0.8Zm-13.2,0l-1.4,1.6c0.2,0.3,0.5,0.6,0.7,0.8L427,44.1l1.3,1.6c0.3,-0.2,0.5,-0.5,0.8,-0.8l-1.4,-1.6l1.4,-1.4c-0.3,-0.3,-0.5,-0.7,-0.8,-0.8L427,42.6l-1.4,-1.5c-0.2,0.1,-0.5,0.5,-0.7,0.8Zm107.2,0l-1.4,1.6c0.3,0.3,0.5,0.6,0.8,0.8l1.3,-1.6l1.4,1.6c0.3,-0.2,0.5,-0.5,0.7,-0.8l-1.4,-1.6l1.4,-1.4c-0.2,-0.3,-0.4,-0.7,-0.7,-0.8l-1.4,1.5l-1.3,-1.5c-0.3,0.1,-0.5,0.5,-0.8,0.8Zm-13.2,0l-1.4,1.6c0.2,0.3,0.5,0.6,0.7,0.8L521,44.1l1.4,1.6c0.3,-0.2,0.5,-0.5,0.7,-0.8l-1.4,-1.6l1.4,-1.4c-0.2,-0.3,-0.4,-0.7,-0.7,-0.8L521,42.6l-1.4,-1.5c-0.2,0.1,-0.5,0.5,-0.7,0.8Zm-39.7,0l-1.4,1.6c0.3,0.3,0.5,0.6,0.8,0.8l1.3,-1.6l1.4,1.6c0.3,-0.2,0.5,-0.5,0.7,-0.8L482,43.3l1.4,-1.4c-0.2,-0.3,-0.4,-0.7,-0.7,-0.8l-1.4,1.5L480,41.1c-0.3,0.1,-0.5,0.5,-0.8,0.8Zm26.5,0l-1.4,1.6c0.2,0.3,0.5,0.6,0.7,0.8l1.4,-1.6l1.3,1.6c0.3,-0.2,0.5,-0.5,0.8,-0.8l-1.4,-1.6l1.4,-1.4c-0.3,-0.3,-0.5,-0.7,-0.8,-0.8l-1.3,1.5l-1.4,-1.5c-0.2,0.1,-0.5,0.5,-0.7,0.8Zm-13.3,0l-1.3,1.6c0.2,0.3,0.5,0.6,0.7,0.8l1.3,-1.6l1.4,1.6c0.3,-0.2,0.5,-0.5,0.7,-0.8l-1.3,-1.6l1.3,-1.4c-0.2,-0.3,-0.4,-0.7,-0.7,-0.8l-1.4,1.5l-1.3,-1.5c-0.2,0.1,-0.5,0.5,-0.7,0.8Zm107.3,0l-1.4,1.6c0.2,0.3,0.5,0.6,0.7,0.8l1.4,-1.6l1.4,1.6c0.3,-0.2,0.5,-0.5,0.7,-0.8l-1.4,-1.6l1.4,-1.4c-0.2,-0.3,-0.4,-0.7,-0.7,-0.8l-1.4,1.5l-1.4,-1.5c-0.2,0.1,-0.5,0.5,-0.7,0.8Zm-13.2,0l-1.4,1.6c0.2,0.3,0.5,0.6,0.7,0.8l1.4,-1.6l1.3,1.6c0.3,-0.2,0.5,-0.5,0.8,-0.8l-1.4,-1.6l1.4,-1.4c-0.3,-0.3,-0.5,-0.7,-0.8,-0.8l-1.3,1.5l-1.4,-1.5c-0.2,0.1,-0.5,0.5,-0.7,0.8Zm-39.7,0l-1.4,1.6c0.2,0.3,0.5,0.6,0.7,0.8l1.4,-1.6l1.4,1.6c0.2,-0.2,0.5,-0.5,0.7,-0.8l-1.4,-1.6L551,41.9c-0.2,-0.3,-0.5,-0.7,-0.7,-0.8l-1.4,1.5l-1.4,-1.5c-0.2,0.1,-0.5,0.5,-0.7,0.8Zm26.4,0l-1.3,1.6c0.2,0.3,0.5,0.6,0.7,0.8l1.3,-1.6l1.4,1.6c0.3,-0.2,0.5,-0.5,0.7,-0.8l-1.3,-1.6l1.3,-1.4c-0.2,-0.3,-0.4,-0.7,-0.7,-0.8l-1.4,1.5L574,41.1c-0.2,0.1,-0.5,0.5,-0.7,0.8Zm-13.2,0L560,44.9c0.2,0.3,0.5,0.6,0.8,0.8l1.3,-1.6l1.4,1.6c0.3,-0.2,0.5,-0.5,0.7,-0.8l-1.4,-1.6l1.4,-1.4c-0.2,-0.3,-0.4,-0.7,-0.7,-0.8l-1.4,1.5l-1.3,-1.5c-0.3,0.1,-0.6,0.5,-0.8,0.8Zm107.2,0l-1.3,1.6c0.2,0.3,0.5,0.6,0.7,0.8l1.4,-1.6l1.3,1.6c0.3,-0.2,0.5,-0.5,0.8,-0.8l-1.4,-1.6l1.4,-1.4c-0.3,-0.3,-0.5,-0.7,-0.8,-0.8l-1.3,1.5L668,41.1c-0.2,0.1,-0.5,0.5,-0.7,0.8Zm-13.2,0l-1.3,1.6c0.2,0.3,0.5,0.6,0.7,0.8l1.3,-1.6l1.4,1.6c0.3,-0.2,0.5,-0.5,0.7,-0.8l-1.3,-1.6l1.3,-1.4c-0.2,-0.3,-0.4,-0.7,-0.7,-0.8l-1.4,1.5l-1.3,-1.5c-0.2,0.1,-0.5,0.5,-0.7,0.8Zm-39.7,0l-1.3,1.6c0.2,0.3,0.5,0.6,0.7,0.8l1.4,-1.6l1.3,1.6c0.3,-0.2,0.5,-0.5,0.7,-0.8l-1.3,-1.6l1.3,-1.4c-0.2,-0.3,-0.4,-0.7,-0.7,-0.8l-1.3,1.5l-1.4,-1.5c-0.2,0.1,-0.5,0.5,-0.7,0.8Zm26.5,0l-1.4,1.6c0.2,0.3,0.5,0.6,0.7,0.8l1.4,-1.6l1.4,1.6c0.3,-0.2,0.5,-0.5,0.7,-0.8l-1.4,-1.6L645,41.9c-0.2,-0.3,-0.4,-0.7,-0.7,-0.8l-1.4,1.5l-1.4,-1.5c-0.2,0.1,-0.5,0.5,-0.7,0.8Zm-13.2,0l-1.4,1.6c0.2,0.3,0.5,0.6,0.7,0.8l1.4,-1.6l1.4,1.6c0.2,-0.2,0.5,-0.5,0.7,-0.8l-1.4,-1.6l1.4,-1.4c-0.2,-0.3,-0.5,-0.7,-0.7,-0.8l-1.4,1.5l-1.4,-1.5c-0.2,0.1,-0.5,0.5,-0.7,0.8Zm107.2,0l-1.3,1.6c0.2,0.3,0.5,0.6,0.7,0.8l1.3,-1.6l1.4,1.6c0.3,-0.2,0.5,-0.5,0.7,-0.8l-1.3,-1.6L739,41.9c-0.2,-0.3,-0.4,-0.7,-0.7,-0.8l-1.4,1.5l-1.3,-1.5c-0.2,0.1,-0.5,0.5,-0.7,0.8Zm-13.2,0l-1.4,1.6c0.2,0.3,0.5,0.6,0.7,0.8l1.4,-1.6l1.4,1.6c0.3,-0.2,0.5,-0.5,0.7,-0.8l-1.4,-1.6l1.4,-1.4c-0.2,-0.3,-0.4,-0.7,-0.7,-0.8l-1.4,1.5l-1.4,-1.5c-0.2,0.1,-0.5,0.5,-0.7,0.8Zm-39.7,0l-1.4,1.6c0.3,0.3,0.5,0.6,0.8,0.8L684,44.1l1.4,1.6c0.3,-0.2,0.5,-0.5,0.7,-0.8l-1.4,-1.6l1.4,-1.4c-0.2,-0.3,-0.4,-0.7,-0.7,-0.8L684,42.6l-1.3,-1.5c-0.3,0.1,-0.5,0.5,-0.8,0.8Zm26.5,0l-1.4,1.6c0.2,0.3,0.5,0.6,0.7,0.8l1.4,-1.6l1.3,1.6c0.3,-0.2,0.6,-0.5,0.8,-0.8l-1.4,-1.6l1.4,-1.4c-0.2,-0.3,-0.5,-0.7,-0.8,-0.8l-1.3,1.5l-1.4,-1.5c-0.2,0.1,-0.5,0.5,-0.7,0.8Zm-13.3,0l-1.3,1.6c0.2,0.3,0.5,0.6,0.7,0.8l1.4,-1.6l1.3,1.6c0.3,-0.2,0.5,-0.5,0.7,-0.8L698,43.3l1.3,-1.4c-0.2,-0.3,-0.4,-0.7,-0.7,-0.8l-1.3,1.5l-1.4,-1.5c-0.2,0.1,-0.5,0.5,-0.7,0.8Zm107.3,0l-1.4,1.6c0.2,0.3,0.5,0.6,0.7,0.8l1.4,-1.6l1.4,1.6c0.3,-0.2,0.5,-0.5,0.7,-0.8l-1.4,-1.6l1.4,-1.4c-0.2,-0.3,-0.4,-0.7,-0.7,-0.8l-1.4,1.5l-1.4,-1.5c-0.2,0.1,-0.5,0.5,-0.7,0.8Zm-13.2,0l-1.4,1.6c0.2,0.3,0.5,0.6,0.7,0.8l1.4,-1.6l1.3,1.6c0.3,-0.2,0.6,-0.5,0.8,-0.8L792,43.3l1.4,-1.4c-0.2,-0.3,-0.5,-0.7,-0.8,-0.8l-1.3,1.5l-1.4,-1.5c-0.2,0.1,-0.5,0.5,-0.7,0.8Zm-39.7,0l-1.4,1.6c0.2,0.3,0.5,0.6,0.7,0.8l1.4,-1.6l1.4,1.6c0.3,-0.2,0.5,-0.5,0.7,-0.8l-1.4,-1.6l1.4,-1.4c-0.2,-0.3,-0.4,-0.7,-0.7,-0.8l-1.4,1.5l-1.4,-1.5c-0.2,0.1,-0.5,0.5,-0.7,0.8Zm26.4,0L776,44.9c0.2,0.3,0.5,0.6,0.7,0.8l1.4,-1.6l1.3,1.6c0.3,-0.2,0.5,-0.5,0.7,-0.8l-1.3,-1.6l1.3,-1.4c-0.2,-0.3,-0.4,-0.7,-0.7,-0.8l-1.3,1.5l-1.4,-1.5c-0.2,0.1,-0.5,0.5,-0.7,0.8Zm-13.2,0l-1.4,1.6c0.3,0.3,0.5,0.6,0.8,0.8l1.3,-1.6l1.4,1.6c0.3,-0.2,0.5,-0.5,0.7,-0.8l-1.4,-1.6l1.4,-1.4c-0.2,-0.3,-0.4,-0.7,-0.7,-0.8l-1.4,1.5l-1.3,-1.5c-0.3,0.1,-0.5,0.5,-0.8,0.8Zm107.3,0L870,44.9c0.2,0.3,0.5,0.6,0.7,0.8l1.4,-1.6l1.3,1.6c0.3,-0.2,0.5,-0.5,0.8,-0.8l-1.4,-1.6l1.4,-1.4c-0.3,-0.3,-0.5,-0.7,-0.8,-0.8l-1.3,1.5l-1.4,-1.5c-0.2,0.1,-0.5,0.5,-0.7,0.8Zm-13.3,0l-1.3,1.6c0.2,0.3,0.5,0.6,0.7,0.8l1.4,-1.6l1.3,1.6c0.3,-0.2,0.5,-0.5,0.7,-0.8l-1.3,-1.6l1.3,-1.4c-0.2,-0.3,-0.4,-0.7,-0.7,-0.8l-1.3,1.5l-1.4,-1.5c-0.2,0.1,-0.5,0.5,-0.7,0.8Zm-39.6,0l-1.4,1.6c0.2,0.3,0.5,0.6,0.7,0.8l1.4,-1.6l1.3,1.6c0.3,-0.2,0.5,-0.5,0.8,-0.8l-1.4,-1.6l1.4,-1.4c-0.3,-0.3,-0.5,-0.7,-0.8,-0.8l-1.3,1.5l-1.4,-1.5c-0.2,0.1,-0.5,0.5,-0.7,0.8Zm26.4,0l-1.4,1.6c0.3,0.3,0.5,0.6,0.8,0.8l1.3,-1.6l1.4,1.6c0.3,-0.2,0.5,-0.5,0.7,-0.8l-1.4,-1.6l1.4,-1.4c-0.2,-0.3,-0.4,-0.7,-0.7,-0.8l-1.4,1.5l-1.3,-1.5c-0.3,0.1,-0.5,0.5,-0.8,0.8Zm-13.2,0l-1.4,1.6c0.2,0.3,0.5,0.6,0.7,0.8l1.4,-1.6l1.4,1.6c0.3,-0.2,0.5,-0.5,0.7,-0.8l-1.4,-1.6l1.4,-1.4c-0.2,-0.3,-0.4,-0.7,-0.7,-0.8l-1.4,1.5L831,41.1c-0.2,0.1,-0.5,0.5,-0.7,0.8Zm107.2,0l-1.3,1.6c0.2,0.3,0.5,0.6,0.7,0.8l1.3,-1.6l1.4,1.6c0.3,-0.2,0.5,-0.5,0.7,-0.8l-1.3,-1.6l1.3,-1.4c-0.2,-0.3,-0.4,-0.7,-0.7,-0.8l-1.4,1.5l-1.3,-1.5c-0.2,0.1,-0.5,0.5,-0.7,0.8Zm-13.2,0l-1.4,1.6c0.3,0.3,0.5,0.6,0.8,0.8l1.3,-1.6l1.4,1.6c0.3,-0.2,0.5,-0.5,0.7,-0.8l-1.4,-1.6l1.4,-1.4c-0.2,-0.3,-0.4,-0.7,-0.7,-0.8l-1.4,1.5l-1.3,-1.5c-0.3,0.1,-0.5,0.5,-0.8,0.8Zm-39.7,0l-1.3,1.6c0.2,0.3,0.5,0.6,0.7,0.8l1.3,-1.6l1.4,1.6c0.3,-0.2,0.5,-0.5,0.7,-0.8l-1.3,-1.6l1.3,-1.4c-0.2,-0.3,-0.4,-0.7,-0.7,-0.8l-1.4,1.5l-1.3,-1.5c-0.2,0.1,-0.5,0.5,-0.7,0.8Zm26.5,0l-1.4,1.6c0.2,0.3,0.5,0.6,0.7,0.8l1.4,-1.6l1.4,1.6c0.2,-0.2,0.5,-0.5,0.7,-0.8l-1.4,-1.6l1.4,-1.4c-0.2,-0.3,-0.5,-0.7,-0.7,-0.8l-1.4,1.5l-1.4,-1.5c-0.2,0.1,-0.5,0.5,-0.7,0.8Zm-13.3,0l-1.3,1.6c0.2,0.3,0.5,0.6,0.7,0.8L900,44.1l1.3,1.6c0.3,-0.2,0.5,-0.5,0.8,-0.8l-1.4,-1.6l1.4,-1.4c-0.3,-0.3,-0.5,-0.7,-0.8,-0.8L900,42.6l-1.4,-1.5c-0.2,0.1,-0.5,0.5,-0.7,0.8Zm107.3,0l-1.4,1.6c0.2,0.3,0.5,0.6,0.8,0.8l1.3,-1.6l1.4,1.6c0.3,-0.2,0.5,-0.5,0.7,-0.8l-1.4,-1.6l1.4,-1.4c-0.2,-0.3,-0.4,-0.7,-0.7,-0.8l-1.4,1.5l-1.3,-1.5c-0.3,0.1,-0.6,0.5,-0.8,0.8Zm-13.2,0l-1.4,1.6c0.2,0.3,0.5,0.6,0.7,0.8L994,44.1l1.4,1.6c0.2,-0.2,0.5,-0.5,0.7,-0.8l-1.4,-1.6l1.4,-1.4c-0.2,-0.3,-0.5,-0.7,-0.7,-0.8L994,42.6l-1.4,-1.5c-0.2,0.1,-0.5,0.5,-0.7,0.8Zm-39.7,0l-1.4,1.6c0.2,0.3,0.5,0.6,0.7,0.8l1.4,-1.6l1.4,1.6c0.3,-0.2,0.5,-0.5,0.7,-0.8L955,43.3l1.4,-1.4c-0.2,-0.3,-0.4,-0.7,-0.7,-0.8l-1.4,1.5l-1.4,-1.5c-0.2,0.1,-0.5,0.5,-0.7,0.8Zm26.4,0l-1.3,1.6c0.2,0.3,0.5,0.6,0.7,0.8l1.4,-1.6l1.3,1.6c0.3,-0.2,0.5,-0.5,0.7,-0.8l-1.3,-1.6l1.3,-1.4c-0.2,-0.3,-0.4,-0.7,-0.7,-0.8l-1.3,1.5l-1.4,-1.5c-0.2,0.1,-0.5,0.5,-0.7,0.8Zm-13.2,0l-1.3,1.6c0.2,0.3,0.5,0.6,0.7,0.8l1.3,-1.6l1.4,1.6c0.3,-0.2,0.5,-0.5,0.7,-0.8l-1.3,-1.6l1.3,-1.4c-0.2,-0.3,-0.4,-0.7,-0.7,-0.8l-1.4,1.5l-1.3,-1.5c-0.2,0.1,-0.5,0.5,-0.7,0.8Zm107.3,0l-1.4,1.6c0.2,0.3,0.5,0.6,0.7,0.8l1.4,-1.6l1.4,1.6c0.2,-0.2,0.5,-0.5,0.7,-0.8l-1.4,-1.6l1.4,-1.4c-0.2,-0.3,-0.5,-0.7,-0.7,-0.8l-1.4,1.5l-1.4,-1.5c-0.2,0.1,-0.5,0.5,-0.7,0.8Zm-13.3,0l-1.3,1.6c0.2,0.3,0.5,0.6,0.7,0.8l1.4,-1.6l1.3,1.6c0.3,-0.2,0.5,-0.5,0.7,-0.8l-1.3,-1.6l1.3,-1.4c-0.2,-0.3,-0.4,-0.7,-0.7,-0.8l-1.3,1.5l-1.4,-1.5c-0.2,0.1,-0.5,0.5,-0.7,0.8Zm-39.6,0l-1.4,1.6c0.2,0.3,0.5,0.6,0.7,0.8l1.4,-1.6l1.3,1.6c0.3,-0.2,0.5,-0.5,0.8,-0.8l-1.4,-1.6l1.4,-1.4c-0.3,-0.3,-0.5,-0.7,-0.8,-0.8l-1.3,1.5l-1.4,-1.5c-0.2,0.1,-0.5,0.5,-0.7,0.8Zm26.4,0l-1.4,1.6c0.3,0.3,0.6,0.6,0.8,0.8l1.3,-1.6l1.4,1.6c0.3,-0.2,0.5,-0.5,0.7,-0.8l-1.3,-1.6l1.3,-1.4c-0.2,-0.3,-0.4,-0.7,-0.7,-0.8l-1.4,1.5L1047,41.1c-0.2,0.1,-0.5,0.5,-0.8,0.8Zm-13.2,0l-1.4,1.6c0.2,0.3,0.5,0.6,0.7,0.8l1.4,-1.6l1.4,1.6c0.3,-0.2,0.5,-0.5,0.7,-0.8l-1.4,-1.6l1.4,-1.4c-0.2,-0.3,-0.4,-0.7,-0.7,-0.8l-1.4,1.5l-1.4,-1.5c-0.2,0.1,-0.5,0.5,-0.7,0.8Zm107.2,0l-1.3,1.6c0.2,0.3,0.5,0.6,0.7,0.8l1.4,-1.6l1.3,1.6c0.3,-0.2,0.5,-0.5,0.7,-0.8l-1.3,-1.6l1.3,-1.4c-0.2,-0.3,-0.4,-0.7,-0.7,-0.8l-1.3,1.5L1141,41.1c-0.2,0.1,-0.5,0.5,-0.7,0.8Zm-13.2,0l-1.4,1.6c0.3,0.3,0.5,0.6,0.8,0.8l1.3,-1.6l1.4,1.6c0.3,-0.2,0.5,-0.5,0.7,-0.8l-1.4,-1.6l1.4,-1.4c-0.2,-0.3,-0.4,-0.7,-0.7,-0.8l-1.4,1.5l-1.3,-1.5c-0.3,0.1,-0.5,0.5,-0.8,0.8Zm-39.7,0l-1.3,1.6c0.2,0.3,0.5,0.6,0.7,0.8l1.4,-1.6l1.3,1.6c0.3,-0.2,0.5,-0.5,0.7,-0.8l-1.3,-1.6l1.3,-1.4c-0.2,-0.3,-0.4,-0.7,-0.7,-0.8l-1.3,1.5l-1.4,-1.5c-0.2,0.1,-0.5,0.5,-0.7,0.8Zm26.5,0l-1.4,1.6c0.2,0.3,0.5,0.6,0.7,0.8l1.4,-1.6l1.4,1.6c0.3,-0.2,0.5,-0.5,0.7,-0.8l-1.4,-1.6l1.4,-1.4c-0.2,-0.3,-0.4,-0.7,-0.7,-0.8l-1.4,1.5l-1.4,-1.5c-0.2,0.1,-0.5,0.5,-0.7,0.8Zm-13.2,0l-1.4,1.6c0.2,0.3,0.5,0.6,0.7,0.8l1.4,-1.6l1.3,1.6c0.3,-0.2,0.5,-0.5,0.8,-0.8l-1.4,-1.6l1.4,-1.4c-0.3,-0.3,-0.5,-0.7,-0.8,-0.8l-1.3,1.5l-1.4,-1.5c-0.2,0.1,-0.5,0.5,-0.7,0.8Z" class="g2_2" />
<path d="M262.8,1148l-1.3,1.5c0.2,0.4,0.5,0.7,0.7,0.9l1.3,-1.6l1.4,1.6c0.3,-0.2,0.5,-0.5,0.7,-0.9l-1.3,-1.5l1.3,-1.4c-0.2,-0.3,-0.4,-0.7,-0.7,-0.8l-1.4,1.5l-1.3,-1.5c-0.2,0.1,-0.5,0.5,-0.7,0.8Zm-13.2,0l-1.4,1.5c0.2,0.4,0.5,0.7,0.7,0.9l1.4,-1.6l1.4,1.6c0.3,-0.2,0.5,-0.5,0.7,-0.9L251,1148l1.4,-1.4c-0.2,-0.3,-0.4,-0.7,-0.7,-0.8l-1.4,1.5l-1.4,-1.5c-0.2,0.1,-0.5,0.5,-0.7,0.8Zm-39.7,0l-1.4,1.5c0.2,0.4,0.5,0.7,0.7,0.9l1.4,-1.6l1.4,1.6c0.3,-0.2,0.5,-0.5,0.7,-0.9l-1.4,-1.5l1.4,-1.4c-0.2,-0.3,-0.4,-0.7,-0.7,-0.8l-1.4,1.5l-1.4,-1.5c-0.2,0.1,-0.5,0.5,-0.7,0.8Zm26.5,0l-1.4,1.5c0.2,0.4,0.5,0.7,0.7,0.9l1.4,-1.6l1.3,1.6c0.3,-0.2,0.5,-0.5,0.8,-0.9l-1.4,-1.5l1.4,-1.4c-0.3,-0.3,-0.5,-0.7,-0.8,-0.8l-1.3,1.5l-1.4,-1.5c-0.2,0.1,-0.5,0.5,-0.7,0.8Zm-13.3,0l-1.3,1.5c0.2,0.4,0.5,0.7,0.7,0.9l1.3,-1.6l1.4,1.6c0.3,-0.2,0.5,-0.5,0.7,-0.9l-1.3,-1.5l1.3,-1.4c-0.2,-0.3,-0.4,-0.7,-0.7,-0.8l-1.4,1.5l-1.3,-1.5c-0.2,0.1,-0.5,0.5,-0.7,0.8Zm107.3,0l-1.3,1.5c0.2,0.4,0.5,0.7,0.7,0.9l1.3,-1.6l1.4,1.6c0.3,-0.2,0.5,-0.5,0.7,-0.9l-1.3,-1.5l1.3,-1.4c-0.2,-0.3,-0.4,-0.7,-0.7,-0.8l-1.4,1.5l-1.3,-1.5c-0.2,0.1,-0.5,0.5,-0.7,0.8Zm-13.2,0l-1.4,1.5c0.2,0.4,0.5,0.7,0.7,0.9l1.4,-1.6l1.4,1.6c0.3,-0.2,0.5,-0.5,0.7,-0.9l-1.4,-1.5l1.4,-1.4c-0.2,-0.3,-0.4,-0.7,-0.7,-0.8l-1.4,1.5l-1.4,-1.5c-0.2,0.1,-0.5,0.5,-0.7,0.8Zm-39.7,0l-1.4,1.5c0.2,0.4,0.5,0.7,0.7,0.9l1.4,-1.6l1.4,1.6c0.3,-0.2,0.5,-0.5,0.7,-0.9l-1.4,-1.5l1.4,-1.4c-0.2,-0.3,-0.4,-0.7,-0.7,-0.8l-1.4,1.5l-1.4,-1.5c-0.2,0.1,-0.5,0.5,-0.7,0.8Zm26.5,0l-1.4,1.5c0.2,0.4,0.5,0.7,0.7,0.9l1.4,-1.6l1.3,1.6c0.3,-0.2,0.5,-0.5,0.8,-0.9l-1.4,-1.5l1.4,-1.4c-0.3,-0.3,-0.5,-0.7,-0.8,-0.8l-1.3,1.5l-1.4,-1.5c-0.2,0.1,-0.5,0.5,-0.7,0.8Zm-13.3,0l-1.3,1.5c0.2,0.4,0.5,0.7,0.7,0.9l1.3,-1.6l1.4,1.6c0.3,-0.2,0.5,-0.5,0.7,-0.9l-1.3,-1.5l1.3,-1.4c-0.2,-0.3,-0.4,-0.7,-0.7,-0.8l-1.4,1.5l-1.3,-1.5c-0.2,0.1,-0.5,0.5,-0.7,0.8Zm107.3,0l-1.3,1.5c0.2,0.4,0.5,0.7,0.7,0.9l1.3,-1.6l1.4,1.6c0.3,-0.2,0.5,-0.5,0.7,-0.9l-1.3,-1.5l1.3,-1.4c-0.2,-0.3,-0.4,-0.7,-0.7,-0.8l-1.4,1.5l-1.3,-1.5c-0.2,0.1,-0.5,0.5,-0.7,0.8Zm-13.2,0l-1.4,1.5c0.2,0.4,0.5,0.7,0.7,0.9l1.4,-1.6l1.4,1.6c0.3,-0.2,0.5,-0.5,0.7,-0.9l-1.4,-1.5l1.4,-1.4c-0.2,-0.3,-0.4,-0.7,-0.7,-0.8l-1.4,1.5l-1.4,-1.5c-0.2,0.1,-0.5,0.5,-0.7,0.8Zm-39.7,0l-1.4,1.5c0.2,0.4,0.5,0.7,0.7,0.9l1.4,-1.6l1.4,1.6c0.3,-0.2,0.5,-0.5,0.7,-0.9l-1.4,-1.5l1.4,-1.4c-0.2,-0.3,-0.4,-0.7,-0.7,-0.8l-1.4,1.5l-1.4,-1.5c-0.2,0.1,-0.5,0.5,-0.7,0.8Zm26.5,0l-1.4,1.5c0.2,0.4,0.5,0.7,0.7,0.9l1.4,-1.6l1.3,1.6c0.3,-0.2,0.5,-0.5,0.8,-0.9L373,1148l1.4,-1.4c-0.3,-0.3,-0.5,-0.7,-0.8,-0.8l-1.3,1.5l-1.4,-1.5c-0.2,0.1,-0.5,0.5,-0.7,0.8Zm-13.3,0l-1.3,1.5c0.2,0.4,0.5,0.7,0.7,0.9l1.3,-1.6l1.4,1.6c0.3,-0.2,0.5,-0.5,0.7,-0.9l-1.3,-1.5l1.3,-1.4c-0.2,-0.3,-0.4,-0.7,-0.7,-0.8l-1.4,1.5l-1.3,-1.5c-0.2,0.1,-0.5,0.5,-0.7,0.8Zm107.3,0l-1.3,1.5c0.2,0.4,0.5,0.7,0.7,0.9l1.3,-1.6l1.4,1.6c0.3,-0.2,0.5,-0.5,0.7,-0.9l-1.3,-1.5l1.3,-1.4c-0.2,-0.3,-0.4,-0.7,-0.7,-0.8l-1.4,1.5l-1.3,-1.5c-0.2,0.1,-0.5,0.5,-0.7,0.8Zm-13.2,0l-1.4,1.5c0.2,0.4,0.5,0.7,0.7,0.9l1.4,-1.6l1.4,1.6c0.3,-0.2,0.5,-0.5,0.7,-0.9l-1.4,-1.5l1.4,-1.4c-0.2,-0.3,-0.4,-0.7,-0.7,-0.8l-1.4,1.5l-1.4,-1.5c-0.2,0.1,-0.5,0.5,-0.7,0.8Zm-39.7,0l-1.4,1.5c0.2,0.4,0.5,0.7,0.7,0.9l1.4,-1.6l1.4,1.6c0.3,-0.2,0.5,-0.5,0.7,-0.9l-1.4,-1.5l1.4,-1.4c-0.2,-0.3,-0.4,-0.7,-0.7,-0.8l-1.4,1.5l-1.4,-1.5c-0.2,0.1,-0.5,0.5,-0.7,0.8Zm26.5,0l-1.4,1.5c0.2,0.4,0.5,0.7,0.7,0.9l1.4,-1.6l1.3,1.6c0.3,-0.2,0.5,-0.5,0.8,-0.9l-1.4,-1.5l1.4,-1.4c-0.3,-0.3,-0.5,-0.7,-0.8,-0.8l-1.3,1.5l-1.4,-1.5c-0.2,0.1,-0.5,0.5,-0.7,0.8Zm-13.3,0l-1.3,1.5c0.2,0.4,0.5,0.7,0.7,0.9l1.3,-1.6l1.4,1.6c0.3,-0.2,0.5,-0.5,0.7,-0.9l-1.3,-1.5l1.3,-1.4c-0.2,-0.3,-0.4,-0.7,-0.7,-0.8l-1.4,1.5l-1.3,-1.5c-0.2,0.1,-0.5,0.5,-0.7,0.8Zm107.3,0l-1.3,1.5c0.2,0.4,0.5,0.7,0.7,0.9l1.3,-1.6l1.4,1.6c0.3,-0.2,0.5,-0.5,0.7,-0.9l-1.3,-1.5l1.3,-1.4c-0.2,-0.3,-0.4,-0.7,-0.7,-0.8l-1.4,1.5l-1.3,-1.5c-0.2,0.1,-0.5,0.5,-0.7,0.8Zm-13.2,0l-1.4,1.5c0.2,0.4,0.5,0.7,0.7,0.9l1.4,-1.6l1.4,1.6c0.3,-0.2,0.5,-0.5,0.7,-0.9l-1.4,-1.5l1.4,-1.4c-0.2,-0.3,-0.4,-0.7,-0.7,-0.8l-1.4,1.5l-1.4,-1.5c-0.2,0.1,-0.5,0.5,-0.7,0.8Zm-39.7,0l-1.4,1.5c0.2,0.4,0.5,0.7,0.7,0.9l1.4,-1.6l1.4,1.6c0.3,-0.2,0.5,-0.5,0.7,-0.9l-1.4,-1.5l1.4,-1.4c-0.2,-0.3,-0.4,-0.7,-0.7,-0.8l-1.4,1.5l-1.4,-1.5c-0.2,0.1,-0.5,0.5,-0.7,0.8Zm26.5,0l-1.4,1.5c0.2,0.4,0.5,0.7,0.7,0.9l1.4,-1.6l1.3,1.6c0.3,-0.2,0.6,-0.5,0.8,-0.9l-1.4,-1.5l1.4,-1.4c-0.2,-0.3,-0.5,-0.7,-0.8,-0.8l-1.3,1.5l-1.4,-1.5c-0.2,0.1,-0.5,0.5,-0.7,0.8Zm-13.3,0l-1.3,1.5c0.2,0.4,0.5,0.7,0.7,0.9l1.3,-1.6l1.4,1.6c0.3,-0.2,0.5,-0.5,0.7,-0.9L495,1148l1.3,-1.4c-0.2,-0.3,-0.4,-0.7,-0.7,-0.8l-1.4,1.5l-1.3,-1.5c-0.2,0.1,-0.5,0.5,-0.7,0.8Zm107.3,0l-1.3,1.5c0.2,0.4,0.5,0.7,0.7,0.9l1.3,-1.6l1.4,1.6c0.3,-0.2,0.5,-0.5,0.7,-0.9l-1.3,-1.5l1.3,-1.4c-0.2,-0.3,-0.4,-0.7,-0.7,-0.8l-1.4,1.5l-1.3,-1.5c-0.2,0.1,-0.5,0.5,-0.7,0.8Zm-13.2,0l-1.4,1.5c0.2,0.4,0.5,0.7,0.7,0.9l1.4,-1.6l1.4,1.6c0.3,-0.2,0.5,-0.5,0.7,-0.9L589,1148l1.4,-1.4c-0.2,-0.3,-0.4,-0.7,-0.7,-0.8l-1.4,1.5l-1.4,-1.5c-0.2,0.1,-0.5,0.5,-0.7,0.8Zm-39.7,0l-1.4,1.5c0.2,0.4,0.5,0.7,0.7,0.9l1.4,-1.6l1.4,1.6c0.3,-0.2,0.5,-0.5,0.7,-0.9l-1.4,-1.5l1.4,-1.4c-0.2,-0.3,-0.4,-0.7,-0.7,-0.8l-1.4,1.5l-1.4,-1.5c-0.2,0.1,-0.5,0.5,-0.7,0.8Zm26.5,0l-1.4,1.5c0.2,0.4,0.5,0.7,0.7,0.9l1.4,-1.6l1.3,1.6c0.3,-0.2,0.6,-0.5,0.8,-0.9l-1.4,-1.5l1.4,-1.4c-0.2,-0.3,-0.5,-0.7,-0.8,-0.8l-1.3,1.5l-1.4,-1.5c-0.2,0.1,-0.5,0.5,-0.7,0.8Zm-13.3,0l-1.3,1.5c0.2,0.4,0.5,0.7,0.7,0.9l1.3,-1.6l1.4,1.6c0.3,-0.2,0.5,-0.5,0.7,-0.9l-1.3,-1.5l1.3,-1.4c-0.2,-0.3,-0.4,-0.7,-0.7,-0.8l-1.4,1.5l-1.3,-1.5c-0.2,0.1,-0.5,0.5,-0.7,0.8Zm107.3,0l-1.3,1.5c0.2,0.4,0.5,0.7,0.7,0.9l1.3,-1.6l1.4,1.6c0.3,-0.2,0.5,-0.5,0.7,-0.9l-1.3,-1.5l1.3,-1.4c-0.2,-0.3,-0.4,-0.7,-0.7,-0.8l-1.4,1.5l-1.3,-1.5c-0.2,0.1,-0.5,0.5,-0.7,0.8Zm-13.2,0l-1.4,1.5c0.2,0.4,0.5,0.7,0.7,0.9l1.4,-1.6l1.4,1.6c0.3,-0.2,0.5,-0.5,0.7,-0.9l-1.4,-1.5l1.4,-1.4c-0.2,-0.3,-0.4,-0.7,-0.7,-0.8l-1.4,1.5l-1.4,-1.5c-0.2,0.1,-0.5,0.5,-0.7,0.8Zm-39.7,0l-1.4,1.5c0.2,0.4,0.5,0.7,0.7,0.9l1.4,-1.6l1.4,1.6c0.3,-0.2,0.5,-0.5,0.7,-0.9l-1.4,-1.5l1.4,-1.4c-0.2,-0.3,-0.4,-0.7,-0.7,-0.8l-1.4,1.5l-1.4,-1.5c-0.2,0.1,-0.5,0.5,-0.7,0.8Zm26.5,0l-1.4,1.5c0.2,0.4,0.5,0.7,0.7,0.9l1.4,-1.6l1.3,1.6c0.3,-0.2,0.6,-0.5,0.8,-0.9l-1.4,-1.5l1.4,-1.4c-0.2,-0.3,-0.5,-0.7,-0.8,-0.8l-1.3,1.5l-1.4,-1.5c-0.2,0.1,-0.5,0.5,-0.7,0.8Zm-13.3,0l-1.3,1.5c0.2,0.4,0.5,0.7,0.7,0.9l1.3,-1.6l1.4,1.6c0.3,-0.2,0.5,-0.5,0.7,-0.9l-1.3,-1.5l1.3,-1.4c-0.2,-0.3,-0.4,-0.7,-0.7,-0.8l-1.4,1.5l-1.3,-1.5c-0.2,0.1,-0.5,0.5,-0.7,0.8Zm107.3,0l-1.3,1.5c0.2,0.4,0.5,0.7,0.7,0.9l1.3,-1.6l1.4,1.6c0.3,-0.2,0.5,-0.5,0.7,-0.9l-1.3,-1.5l1.3,-1.4c-0.2,-0.3,-0.4,-0.7,-0.7,-0.8l-1.4,1.5l-1.3,-1.5c-0.2,0.1,-0.5,0.5,-0.7,0.8Zm-13.2,0l-1.4,1.5c0.2,0.4,0.5,0.7,0.7,0.9l1.4,-1.6l1.4,1.6c0.3,-0.2,0.5,-0.5,0.7,-0.9l-1.4,-1.5l1.4,-1.4c-0.2,-0.3,-0.4,-0.7,-0.7,-0.8l-1.4,1.5l-1.4,-1.5c-0.2,0.1,-0.5,0.5,-0.7,0.8Zm-39.7,0l-1.4,1.5c0.2,0.4,0.5,0.7,0.8,0.9l1.3,-1.6l1.4,1.6c0.3,-0.2,0.5,-0.5,0.7,-0.9l-1.4,-1.5l1.4,-1.4c-0.2,-0.3,-0.4,-0.7,-0.7,-0.8l-1.4,1.5l-1.3,-1.5c-0.3,0.1,-0.6,0.5,-0.8,0.8Zm26.5,0l-1.4,1.5c0.2,0.4,0.5,0.7,0.7,0.9l1.4,-1.6l1.3,1.6c0.3,-0.2,0.6,-0.5,0.8,-0.9L711,1148l1.4,-1.4c-0.2,-0.3,-0.5,-0.7,-0.8,-0.8l-1.3,1.5l-1.4,-1.5c-0.2,0.1,-0.5,0.5,-0.7,0.8Zm-13.3,0l-1.3,1.5c0.2,0.4,0.5,0.7,0.7,0.9l1.3,-1.6l1.4,1.6c0.3,-0.2,0.5,-0.5,0.7,-0.9l-1.3,-1.5l1.3,-1.4c-0.2,-0.3,-0.4,-0.7,-0.7,-0.8l-1.4,1.5l-1.3,-1.5c-0.2,0.1,-0.5,0.5,-0.7,0.8Zm107.3,0l-1.3,1.5c0.2,0.4,0.5,0.7,0.7,0.9l1.4,-1.6l1.3,1.6c0.3,-0.2,0.5,-0.5,0.7,-0.9l-1.3,-1.5l1.3,-1.4c-0.2,-0.3,-0.4,-0.7,-0.7,-0.8l-1.3,1.5l-1.4,-1.5c-0.2,0.1,-0.5,0.5,-0.7,0.8Zm-13.2,0l-1.4,1.5c0.2,0.4,0.5,0.7,0.8,0.9l1.3,-1.6l1.4,1.6c0.3,-0.2,0.5,-0.5,0.7,-0.9l-1.4,-1.5l1.4,-1.4c-0.2,-0.3,-0.4,-0.7,-0.7,-0.8l-1.4,1.5l-1.3,-1.5c-0.3,0.1,-0.6,0.5,-0.8,0.8Zm-39.7,0l-1.4,1.5c0.2,0.4,0.5,0.7,0.8,0.9l1.3,-1.6l1.4,1.6c0.3,-0.2,0.5,-0.5,0.7,-0.9l-1.4,-1.5l1.4,-1.4c-0.2,-0.3,-0.4,-0.7,-0.7,-0.8l-1.4,1.5l-1.3,-1.5c-0.3,0.1,-0.6,0.5,-0.8,0.8Zm26.5,0l-1.4,1.5c0.2,0.4,0.5,0.7,0.7,0.9l1.4,-1.6l1.4,1.6c0.2,-0.2,0.5,-0.5,0.7,-0.9l-1.4,-1.5l1.4,-1.4c-0.2,-0.3,-0.5,-0.7,-0.7,-0.8l-1.4,1.5l-1.4,-1.5c-0.2,0.1,-0.5,0.5,-0.7,0.8Zm-13.3,0l-1.3,1.5c0.2,0.4,0.5,0.7,0.7,0.9l1.4,-1.6l1.3,1.6c0.3,-0.2,0.5,-0.5,0.7,-0.9l-1.3,-1.5l1.3,-1.4c-0.2,-0.3,-0.4,-0.7,-0.7,-0.8l-1.3,1.5l-1.4,-1.5c-0.2,0.1,-0.5,0.5,-0.7,0.8Zm107.3,0l-1.3,1.5c0.2,0.4,0.5,0.7,0.7,0.9l1.4,-1.6l1.3,1.6c0.3,-0.2,0.5,-0.5,0.7,-0.9l-1.3,-1.5l1.3,-1.4c-0.2,-0.3,-0.4,-0.7,-0.7,-0.8l-1.3,1.5l-1.4,-1.5c-0.2,0.1,-0.5,0.5,-0.7,0.8Zm-13.2,0l-1.4,1.5c0.2,0.4,0.5,0.7,0.8,0.9l1.3,-1.6l1.4,1.6c0.3,-0.2,0.5,-0.5,0.7,-0.9l-1.4,-1.5l1.4,-1.4c-0.2,-0.3,-0.4,-0.7,-0.7,-0.8l-1.4,1.5l-1.3,-1.5c-0.3,0.1,-0.6,0.5,-0.8,0.8Zm-39.7,0l-1.4,1.5c0.3,0.4,0.5,0.7,0.8,0.9l1.3,-1.6l1.4,1.6c0.3,-0.2,0.5,-0.5,0.7,-0.9l-1.4,-1.5l1.4,-1.4c-0.2,-0.3,-0.4,-0.7,-0.7,-0.8l-1.4,1.5l-1.3,-1.5c-0.3,0.1,-0.5,0.5,-0.8,0.8Zm26.5,0l-1.4,1.5c0.2,0.4,0.5,0.7,0.7,0.9l1.4,-1.6l1.4,1.6c0.2,-0.2,0.5,-0.5,0.7,-0.9l-1.4,-1.5l1.4,-1.4c-0.2,-0.3,-0.5,-0.7,-0.7,-0.8l-1.4,1.5l-1.4,-1.5c-0.2,0.1,-0.5,0.5,-0.7,0.8Zm-13.3,0l-1.3,1.5c0.2,0.4,0.5,0.7,0.7,0.9l1.4,-1.6l1.3,1.6c0.3,-0.2,0.5,-0.5,0.7,-0.9L833,1148l1.3,-1.4c-0.2,-0.3,-0.4,-0.7,-0.7,-0.8l-1.3,1.5l-1.4,-1.5c-0.2,0.1,-0.5,0.5,-0.7,0.8Zm107.3,0l-1.3,1.5c0.2,0.4,0.5,0.7,0.7,0.9l1.4,-1.6l1.3,1.6c0.3,-0.2,0.5,-0.5,0.7,-0.9l-1.3,-1.5l1.3,-1.4c-0.2,-0.3,-0.4,-0.7,-0.7,-0.8l-1.3,1.5l-1.4,-1.5c-0.2,0.1,-0.5,0.5,-0.7,0.8Zm-13.2,0l-1.4,1.5c0.3,0.4,0.5,0.7,0.8,0.9l1.3,-1.6l1.4,1.6c0.3,-0.2,0.5,-0.5,0.7,-0.9L927,1148l1.4,-1.4c-0.2,-0.3,-0.4,-0.7,-0.7,-0.8l-1.4,1.5l-1.3,-1.5c-0.3,0.1,-0.5,0.5,-0.8,0.8Zm-39.7,0l-1.4,1.5c0.3,0.4,0.5,0.7,0.8,0.9l1.3,-1.6l1.4,1.6c0.3,-0.2,0.5,-0.5,0.7,-0.9l-1.4,-1.5l1.4,-1.4c-0.2,-0.3,-0.4,-0.7,-0.7,-0.8l-1.4,1.5l-1.3,-1.5c-0.3,0.1,-0.5,0.5,-0.8,0.8Zm26.5,0l-1.4,1.5c0.2,0.4,0.5,0.7,0.7,0.9l1.4,-1.6l1.4,1.6c0.2,-0.2,0.5,-0.5,0.7,-0.9l-1.4,-1.5l1.4,-1.4c-0.2,-0.3,-0.5,-0.7,-0.7,-0.8l-1.4,1.5l-1.4,-1.5c-0.2,0.1,-0.5,0.5,-0.7,0.8Zm-13.3,0l-1.3,1.5c0.2,0.4,0.5,0.7,0.7,0.9l1.4,-1.6l1.3,1.6c0.3,-0.2,0.5,-0.5,0.7,-0.9l-1.3,-1.5l1.3,-1.4c-0.2,-0.3,-0.4,-0.7,-0.7,-0.8l-1.3,1.5l-1.4,-1.5c-0.2,0.1,-0.5,0.5,-0.7,0.8Zm107.3,0l-1.3,1.5c0.2,0.4,0.5,0.7,0.7,0.9l1.4,-1.6l1.3,1.6c0.3,-0.2,0.5,-0.5,0.7,-0.9l-1.3,-1.5l1.3,-1.4c-0.2,-0.3,-0.4,-0.7,-0.7,-0.8l-1.3,1.5l-1.4,-1.5c-0.2,0.1,-0.5,0.5,-0.7,0.8Zm-13.2,0l-1.4,1.5c0.3,0.4,0.5,0.7,0.8,0.9l1.3,-1.6l1.4,1.6c0.3,-0.2,0.5,-0.5,0.7,-0.9l-1.4,-1.5l1.4,-1.4c-0.2,-0.3,-0.4,-0.7,-0.7,-0.8l-1.4,1.5l-1.3,-1.5c-0.3,0.1,-0.5,0.5,-0.8,0.8Zm-39.7,0l-1.4,1.5c0.3,0.4,0.5,0.7,0.8,0.9l1.3,-1.6l1.4,1.6c0.3,-0.2,0.5,-0.5,0.7,-0.9l-1.4,-1.5l1.4,-1.4c-0.2,-0.3,-0.4,-0.7,-0.7,-0.8l-1.4,1.5l-1.3,-1.5c-0.3,0.1,-0.5,0.5,-0.8,0.8Zm26.5,0l-1.4,1.5c0.2,0.4,0.5,0.7,0.7,0.9l1.4,-1.6l1.4,1.6c0.2,-0.2,0.5,-0.5,0.7,-0.9l-1.4,-1.5l1.4,-1.4c-0.2,-0.3,-0.5,-0.7,-0.7,-0.8l-1.4,1.5l-1.4,-1.5c-0.2,0.1,-0.5,0.5,-0.7,0.8Zm-13.3,0l-1.3,1.5c0.2,0.4,0.5,0.7,0.7,0.9l1.4,-1.6l1.3,1.6c0.3,-0.2,0.5,-0.5,0.7,-0.9l-1.3,-1.5l1.3,-1.4c-0.2,-0.3,-0.4,-0.7,-0.7,-0.8l-1.3,1.5l-1.4,-1.5c-0.2,0.1,-0.5,0.5,-0.7,0.8Zm107.3,0l-1.3,1.5c0.2,0.4,0.5,0.7,0.7,0.9l1.4,-1.6l1.3,1.6c0.3,-0.2,0.5,-0.5,0.7,-0.9l-1.3,-1.5l1.3,-1.4c-0.2,-0.3,-0.4,-0.7,-0.7,-0.8l-1.3,1.5l-1.4,-1.5c-0.2,0.1,-0.5,0.5,-0.7,0.8Zm-13.2,0l-1.4,1.5c0.3,0.4,0.5,0.7,0.8,0.9l1.3,-1.6l1.4,1.6c0.3,-0.2,0.5,-0.5,0.7,-0.9l-1.4,-1.5l1.4,-1.4c-0.2,-0.3,-0.4,-0.7,-0.7,-0.8l-1.4,1.5l-1.3,-1.5c-0.3,0.1,-0.5,0.5,-0.8,0.8Zm-39.7,0l-1.4,1.5c0.3,0.4,0.5,0.7,0.8,0.9l1.3,-1.6l1.4,1.6c0.3,-0.2,0.5,-0.5,0.7,-0.9l-1.4,-1.5l1.4,-1.4c-0.2,-0.3,-0.4,-0.7,-0.7,-0.8l-1.4,1.5l-1.3,-1.5c-0.3,0.1,-0.5,0.5,-0.8,0.8Zm26.5,0l-1.4,1.5c0.2,0.4,0.5,0.7,0.7,0.9l1.4,-1.6l1.4,1.6c0.2,-0.2,0.5,-0.5,0.7,-0.9L1049,1148l1.4,-1.4c-0.2,-0.3,-0.5,-0.7,-0.7,-0.8l-1.4,1.5l-1.4,-1.5c-0.2,0.1,-0.5,0.5,-0.7,0.8Zm-13.3,0l-1.3,1.5c0.2,0.4,0.5,0.7,0.7,0.9l1.4,-1.6l1.3,1.6c0.3,-0.2,0.5,-0.5,0.7,-0.9l-1.3,-1.5l1.3,-1.4c-0.2,-0.3,-0.4,-0.7,-0.7,-0.8l-1.3,1.5l-1.4,-1.5c-0.2,0.1,-0.5,0.5,-0.7,0.8Zm107.3,0l-1.3,1.5c0.2,0.4,0.5,0.7,0.7,0.9l1.4,-1.6l1.3,1.6c0.3,-0.2,0.5,-0.5,0.7,-0.9l-1.3,-1.5l1.3,-1.4c-0.2,-0.3,-0.4,-0.7,-0.7,-0.8l-1.3,1.5l-1.4,-1.5c-0.2,0.1,-0.5,0.5,-0.7,0.8Zm-13.2,0l-1.4,1.5c0.3,0.4,0.5,0.7,0.8,0.9l1.3,-1.6l1.4,1.6c0.3,-0.2,0.5,-0.5,0.7,-0.9l-1.4,-1.5l1.4,-1.4c-0.2,-0.3,-0.4,-0.7,-0.7,-0.8l-1.4,1.5l-1.3,-1.5c-0.3,0.1,-0.5,0.5,-0.8,0.8Zm-39.7,0l-1.4,1.5c0.3,0.4,0.5,0.7,0.8,0.9l1.3,-1.6l1.4,1.6c0.3,-0.2,0.5,-0.5,0.7,-0.9l-1.4,-1.5l1.4,-1.4c-0.2,-0.3,-0.4,-0.7,-0.7,-0.8l-1.4,1.5l-1.3,-1.5c-0.3,0.1,-0.5,0.5,-0.8,0.8Zm26.5,0l-1.4,1.5c0.2,0.4,0.5,0.7,0.7,0.9l1.4,-1.6l1.4,1.6c0.2,-0.2,0.5,-0.5,0.7,-0.9l-1.4,-1.5l1.4,-1.4c-0.2,-0.3,-0.5,-0.7,-0.7,-0.8l-1.4,1.5l-1.4,-1.5c-0.2,0.1,-0.5,0.5,-0.7,0.8Zm-13.3,0l-1.3,1.5c0.2,0.4,0.5,0.7,0.7,0.9l1.4,-1.6l1.3,1.6c0.3,-0.2,0.5,-0.5,0.7,-0.9l-1.3,-1.5l1.3,-1.4c-0.2,-0.3,-0.4,-0.7,-0.7,-0.8l-1.3,1.5l-1.4,-1.5c-0.2,0.1,-0.5,0.5,-0.7,0.8Z" class="g2_2" />
<path d="M0,1190l215,0L215,0L0,0L0,1190Z" class="g3_2" />
<g clip-path="url(#c0_2)">
<path d="M210.2,1137.1l1.5,1.6c0.3,-0.2,0.7,-0.6,0.8,-0.9l-1.5,-1.6l1.5,-1.7c-0.1,-0.3,-0.5,-0.6,-0.8,-0.8l-1.5,1.6l-1.4,-1.6c-0.3,0.2,-0.7,0.5,-0.8,0.8l1.5,1.7l-1.5,1.6c0.1,0.3,0.5,0.7,0.8,0.9Zm0,15.9l1.5,1.7c0.3,-0.3,0.7,-0.6,0.8,-0.9l-1.5,-1.6l1.5,-1.7c-0.1,-0.3,-0.5,-0.6,-0.8,-0.8l-1.5,1.6l-1.4,-1.6c-0.3,0.2,-0.7,0.5,-0.8,0.8l1.5,1.7l-1.5,1.6c0.1,0.3,0.5,0.6,0.8,0.9Zm0,48l1.5,1.6c0.3,-0.2,0.7,-0.6,0.8,-0.8l-1.5,-1.7l1.5,-1.6c-0.1,-0.4,-0.5,-0.6,-0.8,-0.9l-1.5,1.7l-1.4,-1.7c-0.3,0.3,-0.7,0.5,-0.8,0.9l1.5,1.6l-1.5,1.7c0.1,0.2,0.5,0.6,0.8,0.8Zm0,-32l1.5,1.7c0.3,-0.3,0.7,-0.6,0.8,-0.9l-1.5,-1.6l1.5,-1.7c-0.1,-0.3,-0.5,-0.6,-0.8,-0.9l-1.5,1.7l-1.4,-1.7c-0.3,0.3,-0.7,0.6,-0.8,0.9l1.5,1.7l-1.5,1.6c0.1,0.3,0.5,0.6,0.8,0.9Zm0,16l1.5,1.7c0.3,-0.3,0.7,-0.7,0.8,-0.9l-1.5,-1.7l1.5,-1.6c-0.1,-0.4,-0.5,-0.6,-0.8,-0.9l-1.5,1.7l-1.4,-1.7c-0.3,0.3,-0.7,0.5,-0.8,0.9l1.5,1.6l-1.5,1.7c0.1,0.2,0.5,0.6,0.8,0.9Zm0,-129.6l1.5,1.7c0.3,-0.3,0.7,-0.6,0.8,-0.9l-1.5,-1.7l1.5,-1.6c-0.1,-0.4,-0.5,-0.6,-0.8,-0.9l-1.5,1.7l-1.4,-1.7c-0.3,0.3,-0.7,0.5,-0.8,0.9l1.5,1.6l-1.5,1.7c0.1,0.3,0.5,0.6,0.8,0.9Zm0,16l1.5,1.6c0.3,-0.2,0.7,-0.6,0.8,-0.8l-1.5,-1.7l1.5,-1.6c-0.1,-0.4,-0.5,-0.6,-0.8,-0.9l-1.5,1.7l-1.4,-1.7c-0.3,0.3,-0.7,0.5,-0.8,0.9l1.5,1.6l-1.5,1.7c0.1,0.2,0.5,0.6,0.8,0.8Zm0,47.9l1.5,1.7c0.3,-0.3,0.7,-0.6,0.8,-0.9l-1.5,-1.6l1.5,-1.7c-0.1,-0.3,-0.5,-0.6,-0.8,-0.8l-1.5,1.6l-1.4,-1.6c-0.3,0.2,-0.7,0.5,-0.8,0.8l1.5,1.7l-1.5,1.6c0.1,0.3,0.5,0.6,0.8,0.9Zm0,-31.9l1.5,1.6c0.3,-0.2,0.7,-0.6,0.8,-0.8l-1.5,-1.7l1.5,-1.6c-0.1,-0.4,-0.5,-0.6,-0.8,-0.9l-1.5,1.6l-1.4,-1.6c-0.3,0.3,-0.7,0.5,-0.8,0.9l1.5,1.6l-1.5,1.7c0.1,0.2,0.5,0.6,0.8,0.8Zm0,16l1.5,1.6c0.3,-0.2,0.7,-0.6,0.8,-0.9l-1.5,-1.6l1.5,-1.7c-0.1,-0.3,-0.5,-0.6,-0.8,-0.8l-1.5,1.6l-1.4,-1.6c-0.3,0.2,-0.7,0.5,-0.8,0.8l1.5,1.7l-1.5,1.6c0.1,0.3,0.5,0.7,0.8,0.9Zm0,-129.6l1.5,1.6c0.3,-0.2,0.7,-0.6,0.8,-0.8L211,972.9l1.5,-1.6c-0.1,-0.4,-0.5,-0.7,-0.8,-0.9l-1.5,1.6l-1.4,-1.6c-0.3,0.2,-0.7,0.5,-0.8,0.9l1.5,1.6l-1.5,1.7c0.1,0.2,0.5,0.6,0.8,0.8Zm0,16l1.5,1.6c0.3,-0.3,0.7,-0.6,0.8,-0.9L211,988.9l1.5,-1.7c-0.1,-0.3,-0.5,-0.6,-0.8,-0.8l-1.5,1.6l-1.4,-1.6c-0.3,0.2,-0.7,0.5,-0.8,0.8l1.5,1.7l-1.5,1.6c0.1,0.3,0.5,0.6,0.8,0.9Zm0,47.9l1.5,1.6c0.3,-0.2,0.7,-0.6,0.8,-0.8l-1.5,-1.7l1.5,-1.6c-0.1,-0.4,-0.5,-0.6,-0.8,-0.9l-1.5,1.7l-1.4,-1.7c-0.3,0.3,-0.7,0.5,-0.8,0.9l1.5,1.6l-1.5,1.7c0.1,0.2,0.5,0.6,0.8,0.8Zm0,-32l1.5,1.7c0.3,-0.3,0.7,-0.6,0.8,-0.9l-1.5,-1.6l1.5,-1.7c-0.1,-0.3,-0.5,-0.6,-0.8,-0.9l-1.5,1.7l-1.4,-1.7c-0.3,0.3,-0.7,0.6,-0.8,0.9l1.5,1.7l-1.5,1.6c0.1,0.3,0.5,0.6,0.8,0.9Zm0,16l1.5,1.7c0.3,-0.3,0.7,-0.6,0.8,-0.9l-1.5,-1.7l1.5,-1.6c-0.1,-0.4,-0.5,-0.6,-0.8,-0.9l-1.5,1.7l-1.4,-1.7c-0.3,0.3,-0.7,0.5,-0.8,0.9l1.5,1.6l-1.5,1.7c0.1,0.3,0.5,0.6,0.8,0.9Zm0,-129.6l1.5,1.7c0.3,-0.3,0.7,-0.6,0.8,-0.9L211,891.3l1.5,-1.7c-0.1,-0.3,-0.5,-0.6,-0.8,-0.9l-1.5,1.7l-1.4,-1.7c-0.3,0.3,-0.7,0.6,-0.8,0.9l1.5,1.7l-1.5,1.6c0.1,0.3,0.5,0.6,0.8,0.9Zm0,16l1.5,1.7c0.3,-0.3,0.7,-0.7,0.8,-0.9L211,907.2l1.5,-1.6c-0.1,-0.4,-0.5,-0.6,-0.8,-0.9l-1.5,1.7l-1.4,-1.7c-0.3,0.3,-0.7,0.5,-0.8,0.9l1.5,1.6l-1.5,1.7c0.1,0.2,0.5,0.6,0.8,0.9Zm0,48l1.5,1.6c0.3,-0.3,0.7,-0.6,0.8,-0.9L211,955.2l1.5,-1.7c-0.1,-0.3,-0.5,-0.6,-0.8,-0.8l-1.5,1.6l-1.4,-1.6c-0.3,0.2,-0.7,0.5,-0.8,0.8l1.5,1.7l-1.5,1.6c0.1,0.3,0.5,0.6,0.8,0.9Zm0,-32l1.5,1.6c0.3,-0.2,0.7,-0.6,0.8,-0.8L211,923.2l1.5,-1.6c-0.1,-0.4,-0.5,-0.6,-0.8,-0.9l-1.5,1.7l-1.4,-1.7c-0.3,0.3,-0.7,0.5,-0.8,0.9l1.5,1.6l-1.5,1.7c0.1,0.2,0.5,0.6,0.8,0.8Zm0,16l1.5,1.6c0.3,-0.2,0.7,-0.6,0.8,-0.8L211,939.2l1.5,-1.6c-0.1,-0.4,-0.5,-0.7,-0.8,-0.9l-1.5,1.6l-1.4,-1.6c-0.3,0.2,-0.7,0.5,-0.8,0.9l1.5,1.6l-1.5,1.7c0.1,0.2,0.5,0.6,0.8,0.8Zm0,-129.6l1.5,1.6c0.3,-0.2,0.7,-0.6,0.8,-0.8L211,809.6l1.5,-1.6c-0.1,-0.4,-0.5,-0.6,-0.8,-0.9l-1.5,1.6l-1.4,-1.6c-0.3,0.3,-0.7,0.5,-0.8,0.9l1.5,1.6l-1.5,1.7c0.1,0.2,0.5,0.6,0.8,0.8Zm0,16l1.5,1.6c0.3,-0.3,0.7,-0.6,0.8,-0.9L211,825.6l1.5,-1.7c-0.1,-0.3,-0.5,-0.6,-0.8,-0.8l-1.5,1.6l-1.4,-1.6c-0.3,0.2,-0.7,0.5,-0.8,0.8l1.5,1.7l-1.5,1.6c0.1,0.3,0.5,0.6,0.8,0.9Zm0,47.9l1.5,1.7c0.3,-0.3,0.7,-0.7,0.8,-0.9L211,873.5l1.5,-1.6c-0.1,-0.4,-0.5,-0.6,-0.8,-0.9l-1.5,1.7L208.8,871c-0.3,0.3,-0.7,0.5,-0.8,0.9l1.5,1.6l-1.5,1.7c0.1,0.2,0.5,0.6,0.8,0.9Zm0,-32l1.5,1.7c0.3,-0.3,0.7,-0.6,0.8,-0.9L211,841.6l1.5,-1.7c-0.1,-0.3,-0.5,-0.6,-0.8,-0.8l-1.5,1.6l-1.4,-1.6c-0.3,0.2,-0.7,0.5,-0.8,0.8l1.5,1.7l-1.5,1.6c0.1,0.3,0.5,0.6,0.8,0.9Zm0,16l1.5,1.7c0.3,-0.3,0.7,-0.6,0.8,-0.9L211,857.6l1.5,-1.7c-0.1,-0.3,-0.5,-0.6,-0.8,-0.9l-1.5,1.7L208.8,855c-0.3,0.3,-0.7,0.6,-0.8,0.9l1.5,1.7l-1.5,1.6c0.1,0.3,0.5,0.6,0.8,0.9Zm0,-129.6l1.5,1.7c0.3,-0.3,0.7,-0.6,0.8,-0.9L211,728l1.5,-1.7c-0.1,-0.3,-0.5,-0.6,-0.8,-0.9l-1.5,1.7l-1.4,-1.7c-0.3,0.3,-0.7,0.6,-0.8,0.9l1.5,1.7l-1.5,1.6c0.1,0.3,0.5,0.6,0.8,0.9Zm0,16l1.5,1.7c0.3,-0.3,0.7,-0.6,0.8,-0.9L211,743.9l1.5,-1.6c-0.1,-0.4,-0.5,-0.6,-0.8,-0.9l-1.5,1.7l-1.4,-1.7c-0.3,0.3,-0.7,0.5,-0.8,0.9l1.5,1.6l-1.5,1.7c0.1,0.3,0.5,0.6,0.8,0.9Zm0,48l1.5,1.6c0.3,-0.2,0.7,-0.6,0.8,-0.9L211,791.9l1.5,-1.7c-0.1,-0.3,-0.5,-0.6,-0.8,-0.8l-1.5,1.6l-1.4,-1.6c-0.3,0.2,-0.7,0.5,-0.8,0.8l1.5,1.7l-1.5,1.6c0.1,0.3,0.5,0.7,0.8,0.9Zm0,-32l1.5,1.6c0.3,-0.2,0.7,-0.6,0.8,-0.8L211,759.9l1.5,-1.6c-0.1,-0.4,-0.5,-0.6,-0.8,-0.9l-1.5,1.7l-1.4,-1.7c-0.3,0.3,-0.7,0.5,-0.8,0.9l1.5,1.6l-1.5,1.7c0.1,0.2,0.5,0.6,0.8,0.8Zm0,16l1.5,1.6c0.3,-0.2,0.7,-0.6,0.8,-0.8L211,775.9l1.5,-1.6c-0.1,-0.4,-0.5,-0.6,-0.8,-0.9l-1.5,1.6l-1.4,-1.6c-0.3,0.3,-0.7,0.5,-0.8,0.9l1.5,1.6l-1.5,1.7c0.1,0.2,0.5,0.6,0.8,0.8Zm0,-129.6l1.5,1.6c0.3,-0.2,0.7,-0.6,0.8,-0.8L211,646.3l1.5,-1.6c-0.1,-0.4,-0.5,-0.6,-0.8,-0.9l-1.5,1.6l-1.4,-1.6c-0.3,0.3,-0.7,0.5,-0.8,0.9l1.5,1.6L208,648c0.1,0.2,0.5,0.6,0.8,0.8Zm0,16l1.5,1.6c0.3,-0.2,0.7,-0.6,0.8,-0.9L211,662.3l1.5,-1.7c-0.1,-0.3,-0.5,-0.6,-0.8,-0.8l-1.5,1.6l-1.4,-1.6c-0.3,0.2,-0.7,0.5,-0.8,0.8l1.5,1.7l-1.5,1.6c0.1,0.3,0.5,0.7,0.8,0.9Zm0,47.9l1.5,1.7c0.3,-0.3,0.7,-0.6,0.8,-0.9L211,710.2l1.5,-1.6c-0.1,-0.4,-0.5,-0.6,-0.8,-0.9l-1.5,1.7l-1.4,-1.7c-0.3,0.3,-0.7,0.5,-0.8,0.9l1.5,1.6l-1.5,1.7c0.1,0.3,0.5,0.6,0.8,0.9Zm0,-31.9l1.5,1.6c0.3,-0.3,0.7,-0.6,0.8,-0.9L211,678.3l1.5,-1.7c-0.1,-0.3,-0.5,-0.6,-0.8,-0.8l-1.5,1.6l-1.4,-1.6c-0.3,0.2,-0.7,0.5,-0.8,0.8l1.5,1.7l-1.5,1.6c0.1,0.3,0.5,0.6,0.8,0.9Zm0,15.9l1.5,1.7c0.3,-0.3,0.7,-0.6,0.8,-0.9L211,694.3l1.5,-1.7c-0.1,-0.3,-0.5,-0.6,-0.8,-0.9l-1.5,1.7l-1.4,-1.7c-0.3,0.3,-0.7,0.6,-0.8,0.9l1.5,1.7l-1.5,1.6c0.1,0.3,0.5,0.6,0.8,0.9Zm0,-129.6l1.5,1.7c0.3,-0.3,0.7,-0.6,0.8,-0.9L211,564.7l1.5,-1.7c-0.1,-0.3,-0.5,-0.6,-0.8,-0.8l-1.5,1.6l-1.4,-1.6c-0.3,0.2,-0.7,0.5,-0.8,0.8l1.5,1.7l-1.5,1.6c0.1,0.3,0.5,0.6,0.8,0.9Zm0,16l1.5,1.7c0.3,-0.3,0.7,-0.6,0.8,-0.9L211,580.7l1.5,-1.7c-0.1,-0.3,-0.5,-0.6,-0.8,-0.9l-1.5,1.7l-1.4,-1.7c-0.3,0.3,-0.7,0.6,-0.8,0.9l1.5,1.7l-1.5,1.6c0.1,0.3,0.5,0.6,0.8,0.9Zm0,48l1.5,1.6c0.3,-0.2,0.7,-0.6,0.8,-0.8L211,628.6l1.5,-1.6c-0.1,-0.4,-0.5,-0.7,-0.8,-0.9l-1.5,1.6l-1.4,-1.6c-0.3,0.2,-0.7,0.5,-0.8,0.9l1.5,1.6l-1.5,1.7c0.1,0.2,0.5,0.6,0.8,0.8Zm0,-32l1.5,1.7c0.3,-0.3,0.7,-0.7,0.8,-0.9L211,596.6l1.5,-1.6c-0.1,-0.4,-0.5,-0.6,-0.8,-0.9l-1.5,1.7l-1.4,-1.7c-0.3,0.3,-0.7,0.5,-0.8,0.9l1.5,1.6l-1.5,1.7c0.1,0.2,0.5,0.6,0.8,0.9Zm0,16l1.5,1.6c0.3,-0.2,0.7,-0.6,0.8,-0.8L211,612.6l1.5,-1.6c-0.1,-0.4,-0.5,-0.6,-0.8,-0.9l-1.5,1.7l-1.4,-1.7c-0.3,0.3,-0.7,0.5,-0.8,0.9l1.5,1.6l-1.5,1.7c0.1,0.2,0.5,0.6,0.8,0.8Zm0,-129.6l1.5,1.6c0.3,-0.2,0.7,-0.6,0.8,-0.8L211,483l1.5,-1.6c-0.1,-0.4,-0.5,-0.6,-0.8,-0.9l-1.5,1.7l-1.4,-1.7c-0.3,0.3,-0.7,0.5,-0.8,0.9l1.5,1.6l-1.5,1.7c0.1,0.2,0.5,0.6,0.8,0.8Zm0,16l1.5,1.6c0.3,-0.2,0.7,-0.6,0.8,-0.8L211,499l1.5,-1.6c-0.1,-0.4,-0.5,-0.6,-0.8,-0.9l-1.5,1.6l-1.4,-1.6c-0.3,0.3,-0.7,0.5,-0.8,0.9l1.5,1.6l-1.5,1.7c0.1,0.2,0.5,0.6,0.8,0.8Zm0,47.9l1.5,1.7c0.3,-0.3,0.7,-0.6,0.8,-0.9L211,547l1.5,-1.7c-0.1,-0.3,-0.5,-0.6,-0.8,-0.9l-1.5,1.7l-1.4,-1.7c-0.3,0.3,-0.7,0.6,-0.8,0.9l1.5,1.7l-1.5,1.6c0.1,0.3,0.5,0.6,0.8,0.9Zm0,-31.9l1.5,1.6c0.3,-0.3,0.7,-0.6,0.8,-0.9L211,515l1.5,-1.7c-0.1,-0.3,-0.5,-0.6,-0.8,-0.8l-1.5,1.6l-1.4,-1.6c-0.3,0.2,-0.7,0.5,-0.8,0.8l1.5,1.7l-1.5,1.6c0.1,0.3,0.5,0.6,0.8,0.9Zm0,15.9l1.5,1.7c0.3,-0.3,0.7,-0.6,0.8,-0.9L211,531l1.5,-1.7c-0.1,-0.3,-0.5,-0.6,-0.8,-0.8l-1.5,1.6l-1.4,-1.6c-0.3,0.2,-0.7,0.5,-0.8,0.8l1.5,1.7l-1.5,1.6c0.1,0.3,0.5,0.6,0.8,0.9Zm0,-129.5l1.5,1.6c0.3,-0.3,0.7,-0.6,0.8,-0.9L211,401.4l1.5,-1.7c-0.1,-0.3,-0.5,-0.6,-0.8,-0.8l-1.5,1.6l-1.4,-1.6c-0.3,0.2,-0.7,0.5,-0.8,0.8l1.5,1.7L208,403c0.1,0.3,0.5,0.6,0.8,0.9Zm0,15.9l1.5,1.7c0.3,-0.3,0.7,-0.6,0.8,-0.9L211,417.4l1.5,-1.7c-0.1,-0.3,-0.5,-0.6,-0.8,-0.9l-1.5,1.7l-1.4,-1.7c-0.3,0.3,-0.7,0.6,-0.8,0.9l1.5,1.7L208,419c0.1,0.3,0.5,0.6,0.8,0.9Zm0,48l1.5,1.6c0.3,-0.2,0.7,-0.6,0.8,-0.8L211,465.3l1.5,-1.6c-0.1,-0.4,-0.5,-0.6,-0.8,-0.9l-1.5,1.6l-1.4,-1.6c-0.3,0.3,-0.7,0.5,-0.8,0.9l1.5,1.6L208,467c0.1,0.2,0.5,0.6,0.8,0.8Zm0,-32l1.5,1.7c0.3,-0.3,0.7,-0.6,0.8,-0.9L211,433.3l1.5,-1.6c-0.1,-0.4,-0.5,-0.6,-0.8,-0.9l-1.5,1.7l-1.4,-1.7c-0.3,0.3,-0.7,0.5,-0.8,0.9l1.5,1.6L208,435c0.1,0.3,0.5,0.6,0.8,0.9Zm0,16l1.5,1.6c0.3,-0.2,0.7,-0.6,0.8,-0.8L211,449.3l1.5,-1.6c-0.1,-0.4,-0.5,-0.6,-0.8,-0.9l-1.5,1.7l-1.4,-1.7c-0.3,0.3,-0.7,0.5,-0.8,0.9l1.5,1.6L208,451c0.1,0.2,0.5,0.6,0.8,0.8Zm0,-129.6l1.5,1.7c0.3,-0.3,0.7,-0.7,0.8,-0.9L211,319.7l1.5,-1.6c-0.1,-0.4,-0.5,-0.6,-0.8,-0.9l-1.5,1.7l-1.4,-1.7c-0.3,0.3,-0.7,0.5,-0.8,0.9l1.5,1.6l-1.5,1.7c0.1,0.2,0.5,0.6,0.8,0.9Zm0,16l1.5,1.6c0.3,-0.2,0.7,-0.6,0.8,-0.8L211,335.7l1.5,-1.6c-0.1,-0.4,-0.5,-0.6,-0.8,-0.9l-1.5,1.6l-1.4,-1.6c-0.3,0.3,-0.7,0.5,-0.8,0.9l1.5,1.6l-1.5,1.7c0.1,0.2,0.5,0.6,0.8,0.8Zm0,47.9l1.5,1.7c0.3,-0.3,0.7,-0.6,0.8,-0.9L211,383.7l1.5,-1.7c-0.1,-0.3,-0.5,-0.6,-0.8,-0.9l-1.5,1.7l-1.4,-1.7c-0.3,0.3,-0.7,0.6,-0.8,0.9l1.5,1.7l-1.5,1.6c0.1,0.3,0.5,0.6,0.8,0.9Zm0,-31.9l1.5,1.6c0.3,-0.2,0.7,-0.6,0.8,-0.8L211,351.7l1.5,-1.7c-0.1,-0.3,-0.5,-0.6,-0.8,-0.8l-1.5,1.6l-1.4,-1.6c-0.3,0.2,-0.7,0.5,-0.8,0.8l1.5,1.7l-1.5,1.7c0.1,0.2,0.5,0.6,0.8,0.8Zm0,16l1.5,1.6c0.3,-0.3,0.7,-0.6,0.8,-0.9L211,367.7l1.5,-1.7c-0.1,-0.3,-0.5,-0.6,-0.8,-0.8l-1.5,1.6l-1.4,-1.6c-0.3,0.2,-0.7,0.5,-0.8,0.8l1.5,1.7l-1.5,1.6c0.1,0.3,0.5,0.6,0.8,0.9Zm0,-129.6l1.5,1.6c0.3,-0.3,0.7,-0.6,0.8,-0.9L211,238.1l1.5,-1.7c-0.1,-0.3,-0.5,-0.6,-0.8,-0.8l-1.5,1.6l-1.4,-1.6c-0.3,0.2,-0.7,0.5,-0.8,0.8l1.5,1.7l-1.5,1.6c0.1,0.3,0.5,0.6,0.8,0.9Zm0,15.9l1.5,1.7c0.3,-0.3,0.7,-0.6,0.8,-0.9L211,254.1l1.5,-1.7c-0.1,-0.3,-0.5,-0.6,-0.8,-0.8l-1.5,1.6l-1.4,-1.6c-0.3,0.2,-0.7,0.5,-0.8,0.8l1.5,1.7l-1.5,1.6c0.1,0.3,0.5,0.6,0.8,0.9Zm0,48l1.5,1.6c0.3,-0.2,0.7,-0.6,0.8,-0.8L211,302l1.5,-1.6c-0.1,-0.4,-0.5,-0.6,-0.8,-0.9l-1.5,1.6l-1.4,-1.6c-0.3,0.3,-0.7,0.5,-0.8,0.9l1.5,1.6l-1.5,1.7c0.1,0.2,0.5,0.6,0.8,0.8Zm0,-32l1.5,1.7c0.3,-0.3,0.7,-0.6,0.8,-0.9L211,270.1l1.5,-1.7c-0.1,-0.3,-0.5,-0.6,-0.8,-0.9l-1.5,1.7l-1.4,-1.7c-0.3,0.3,-0.7,0.6,-0.8,0.9l1.5,1.7l-1.5,1.6c0.1,0.3,0.5,0.6,0.8,0.9Zm0,16l1.5,1.7c0.3,-0.3,0.7,-0.7,0.8,-0.9L211,286l1.5,-1.6c-0.1,-0.4,-0.5,-0.6,-0.8,-0.9l-1.5,1.7l-1.4,-1.7c-0.3,0.3,-0.7,0.5,-0.8,0.9l1.5,1.6l-1.5,1.7c0.1,0.2,0.5,0.6,0.8,0.9Zm0,-129.6l1.5,1.7c0.3,-0.3,0.7,-0.6,0.8,-0.9L211,156.4l1.5,-1.6c-0.1,-0.4,-0.5,-0.6,-0.8,-0.9l-1.5,1.7l-1.4,-1.7c-0.3,0.3,-0.7,0.5,-0.8,0.9l1.5,1.6l-1.5,1.7c0.1,0.3,0.5,0.6,0.8,0.9Zm0,16l1.5,1.6c0.3,-0.2,0.7,-0.6,0.8,-0.8L211,172.4l1.5,-1.6c-0.1,-0.4,-0.5,-0.6,-0.8,-0.9l-1.5,1.7l-1.4,-1.7c-0.3,0.3,-0.7,0.5,-0.8,0.9l1.5,1.6l-1.5,1.7c0.1,0.2,0.5,0.6,0.8,0.8Zm0,47.9l1.5,1.7c0.3,-0.3,0.7,-0.6,0.8,-0.9L211,220.4l1.5,-1.7c-0.1,-0.3,-0.5,-0.6,-0.8,-0.8l-1.5,1.6l-1.4,-1.6c-0.3,0.2,-0.7,0.5,-0.8,0.8l1.5,1.7L208,222c0.1,0.3,0.5,0.6,0.8,0.9Zm0,-31.9l1.5,1.6c0.3,-0.2,0.7,-0.6,0.8,-0.8L211,188.4l1.5,-1.6c-0.1,-0.4,-0.5,-0.6,-0.8,-0.9l-1.5,1.6l-1.4,-1.6c-0.3,0.3,-0.7,0.5,-0.8,0.9l1.5,1.6l-1.5,1.7c0.1,0.2,0.5,0.6,0.8,0.8Zm0,16l1.5,1.6c0.3,-0.3,0.7,-0.6,0.8,-0.9L211,204.4l1.5,-1.7c-0.1,-0.3,-0.5,-0.6,-0.8,-0.8l-1.5,1.6l-1.4,-1.6c-0.3,0.2,-0.7,0.5,-0.8,0.8l1.5,1.7L208,206c0.1,0.3,0.5,0.6,0.8,0.9Zm0,-129.6l1.5,1.6c0.3,-0.2,0.7,-0.6,0.8,-0.8L211,74.8l1.5,-1.7c-0.1,-0.3,-0.5,-0.6,-0.8,-0.8l-1.5,1.6l-1.4,-1.6c-0.3,0.2,-0.7,0.5,-0.8,0.8l1.5,1.7L208,76.5c0.1,0.2,0.5,0.6,0.8,0.8Zm0,16l1.5,1.6c0.3,-0.3,0.7,-0.6,0.8,-0.9L211,90.8l1.5,-1.7c-0.1,-0.3,-0.5,-0.6,-0.8,-0.8l-1.5,1.6l-1.4,-1.6c-0.3,0.2,-0.7,0.5,-0.8,0.8l1.5,1.7L208,92.4c0.1,0.3,0.5,0.6,0.8,0.9Zm0,47.9l1.5,1.6c0.3,-0.2,0.7,-0.6,0.8,-0.8L211,138.7l1.5,-1.6c-0.1,-0.4,-0.5,-0.6,-0.8,-0.9l-1.5,1.7l-1.4,-1.7c-0.3,0.3,-0.7,0.5,-0.8,0.9l1.5,1.6l-1.5,1.7c0.1,0.2,0.5,0.6,0.8,0.8Zm0,-32l1.5,1.7c0.3,-0.3,0.7,-0.6,0.8,-0.9L211,106.8l1.5,-1.7c-0.1,-0.3,-0.5,-0.6,-0.8,-0.9l-1.5,1.7l-1.4,-1.7c-0.3,0.3,-0.7,0.6,-0.8,0.9l1.5,1.7l-1.5,1.6c0.1,0.3,0.5,0.6,0.8,0.9Zm0,16l1.5,1.7c0.3,-0.3,0.7,-0.6,0.8,-0.9L211,122.7l1.5,-1.6c-0.1,-0.4,-0.5,-0.6,-0.8,-0.9l-1.5,1.7l-1.4,-1.7c-0.3,0.3,-0.7,0.5,-0.8,0.9l1.5,1.6l-1.5,1.7c0.1,0.3,0.5,0.6,0.8,0.9Zm0,-126l1.5,1.6c0.3,-0.2,0.7,-0.6,0.8,-0.8L211,-3.3l1.5,-1.6c-0.1,-0.4,-0.5,-0.6,-0.8,-0.9l-1.5,1.7l-1.4,-1.7c-0.3,0.3,-0.7,0.5,-0.8,0.9l1.5,1.6L208,-1.6c0.1,0.2,0.5,0.6,0.8,0.8Zm0,15.9l1.5,1.6c0.3,-0.2,0.7,-0.6,0.8,-0.8L211,12.6L212.5,11c-0.1,-0.4,-0.5,-0.6,-0.8,-0.9l-1.5,1.6l-1.4,-1.6c-0.3,0.3,-0.7,0.5,-0.8,0.9l1.5,1.6L208,14.3c0.1,0.2,0.5,0.6,0.8,0.8Zm0,47.9l1.5,1.7c0.3,-0.3,0.7,-0.6,0.8,-0.9L211,60.6l1.5,-1.7C212.4,58.6,212,58.3,211.7,58l-1.5,1.7L208.8,58c-0.3,0.3,-0.7,0.6,-0.8,0.9l1.5,1.7L208,62.2c0.1,0.3,0.5,0.6,0.8,0.9Zm0,-31.9l1.5,1.6c0.3,-0.2,0.7,-0.6,0.8,-0.9L211,28.6l1.5,-1.7c-0.1,-0.3,-0.5,-0.6,-0.8,-0.8l-1.5,1.6l-1.4,-1.6c-0.3,0.2,-0.7,0.5,-0.8,0.8l1.5,1.7L208,30.2c0.1,0.3,0.5,0.7,0.8,0.9Zm0,15.9l1.5,1.7c0.3,-0.3,0.7,-0.6,0.8,-0.9L211,44.6l1.5,-1.7c-0.1,-0.3,-0.5,-0.6,-0.8,-0.8l-1.5,1.6l-1.4,-1.6c-0.3,0.2,-0.7,0.5,-0.8,0.8l1.5,1.7L208,46.2c0.1,0.3,0.5,0.6,0.8,0.9Z" class="g4_2" />
</g>
<path d="M609.7,190.9c2.3,-4.1,4.3,-8.3,6,-12.7c0.8,-2.1,0.8,-2.2,1.5,-4.4c0.1,-0.5,0.3,-1,0.5,-1.5c0,-0.1,0.1,-0.3,0.1,-0.3c0,-0.1,0,-0.1,0,-0.2l1.2,0c1.2,-0.1,1.2,-1.7,0,-1.8c-1.8,0,-3.6,0.1,-5.4,0.1c-1,0.3,-1,1.5,0,1.8l2.4,0c-0.2,0.4,-0.3,0.6,-0.4,1.1c-0.5,1.5,-1,3,-1.6,4.5c-1.3,3.5,-2.9,7,-4.7,10.3c-2.1,-5.3,-4.2,-10.6,-6.2,-15.9c0.8,0,1.6,0,2.4,0c1.2,-0.2,1.2,-1.7,0,-1.8c-2.1,0,-4.1,0.1,-6.1,0.1c-1.1,0.2,-1.1,1.5,0,1.8l1.8,0c0.1,0,0.1,0.1,0.1,0.2c2.3,5.9,4.5,11.8,7,17.6c-0.1,0.1,-0.2,0.3,-0.3,0.4c-0.3,1.2,1.1,1.8,1.7,0.7m21.5,0.2c1.5,0,3,-0.2,4.4,-0.6c1.2,-0.5,0.7,-2,-0.5,-1.7c-0.4,0.1,-0.7,0.2,-1.1,0.3c-1.3,-3.1,-2.4,-6.2,-3.5,-9.4c-1,-2.8,-2.1,-5.6,-2.8,-8.5c0.1,-0.2,0.1,-0.5,0.2,-0.7c0.2,-1.1,-1.1,-1.5,-1.6,-0.7c-0.5,2.6,-1.6,5.3,-2.7,7.8c-1.7,4,-3.4,8.1,-6.2,11.4c-0.4,0,-0.8,0,-1.2,0c-0.2,0,-0.4,0,-0.6,0c-0.8,0.6,-0.5,1.4,0.4,1.6c2.1,0.3,3.4,0,5.5,0.1c1.2,-0.1,1.2,-1.6,0,-1.7c-0.9,-0.1,-0.7,0,-1.6,0c0.2,-0.7,1,-1.8,1.5,-2.9c0.4,-0.8,1.1,-1.7,1.6,-2.7c2.2,-0.3,4.4,-0.6,6.6,-0.7c0.8,2.2,1.6,4.4,2.5,6.6l-0.9,0c-1.1,0.3,-1.1,1.5,0,1.8m-7.3,-9.6c1.1,-2.3,2.2,-4.7,2.9,-7c0.7,2,1.4,4,2,6c0.1,0.1,0.2,0.3,0.2,0.5c-1.7,0,-3.4,0.3,-5.1,0.5m3.8,-13.4c0.3,0.5,0.7,0.9,1.2,0.9c0.7,0.3,1.5,0.1,2,-0.9c0.9,-1.7,-2.2,-2.5,-3,-1.4c-0.4,0.5,-0.4,1,-0.2,1.4m-4.8,-1.2c-0.5,1,0.5,2.7,1.9,1.9c0.8,-0.6,0.8,-1.4,0.4,-2c-0.4,-0.7,-1.6,-1.1,-2.3,0.1m15.8,5.5c0.7,0.1,1.4,0.1,2.1,0.2c-0.8,5.4,-0.4,10.9,0.2,16.2c-0.6,0,-1.2,0,-1.8,0c-1,0.2,-1,1.5,0,1.8c4.2,0,8.3,0,12.3,-0.9c0,0.1,-0.1,0.3,-0.1,0.5c-0.2,0.3,-0.2,0.7,0.1,1.1c0.7,0.4,1.2,0.2,1.5,-0.4c0.6,-1.7,1.2,-3.5,2.2,-5c0.6,-1.1,-0.7,-2,-1.5,-1c-0.6,0.9,-1.1,1.8,-1.5,2.8c-3.1,0.8,-6.3,1.1,-9.5,1.1c-0.5,-4.1,-0.6,-8.2,-0.5,-12.3c0,-0.6,-0.1,-1.3,0,-2c0.1,-0.5,0.3,-1.2,0.4,-1.8c1.6,0.1,3.2,0.2,4.8,-0.2c1,-0.4,0.8,-1.6,-0.3,-1.7c-1.5,0.3,-3,0.3,-4.5,0.2c0,-0.1,0,-0.1,-0.1,-0.2c-0.4,-0.9,-1.4,-0.7,-1.6,0c-0.7,-0.1,-1.5,-0.1,-2.2,-0.2c-1.1,0.3,-1.1,1.6,0,1.8m20,-0.5c1.4,0,2.9,0.1,4.4,0.1c0.2,4.6,1.6,11.4,0.3,15.7c-0.5,1.4,-1,2,-2.4,2.5c-0.8,0.2,-1.7,0.2,-2,-0.2c0.1,0,0.3,-0.1,0.4,-0.3c0.4,-0.5,0.4,-1.3,0.1,-1.8c-0.1,-0.4,-0.2,-0.5,-0.6,-0.6c-1.8,-0.2,-2,2.5,-1.5,3.8c0.9,1.7,3.8,0.9,5,0.4c0.7,-0.3,1.3,-0.7,1.7,-1.3c1.5,-1.7,1.5,-4.6,1.5,-6.7c0.1,-3.8,-0.5,-7.6,-0.8,-11.5c1.3,0,2.5,-0.2,3.7,-0.4c1,-0.4,0.8,-1.6,-0.3,-1.8c-3.1,0.7,-6.3,0.4,-9.5,0.3c-1.1,0.3,-1.1,1.5,0,1.8M690,185.1c0,0.9,0,1.7,0,2.5c-0.1,0.2,-0.1,0.5,-0.1,0.8c0,0.9,0,1.8,0,2.8c0,1.2,1.5,1.3,1.7,0.1l0,-0.8c3.9,1.9,11.7,0.3,11.7,-4.2c0,-4.8,-5,-5.5,-8.5,-7c-1.4,-0.6,-3.4,-1.3,-3.7,-3.1c-0.4,-4,4.1,-5.1,7.1,-4.5c1.4,0.3,1.8,0.5,2.7,1.1c0.1,1.3,0.2,2.6,0.2,4c0.4,1,1.6,0.9,1.8,-0.2c0,-1.3,-0.2,-2.6,-0.2,-3.9c0,-0.2,0,-0.5,-0.1,-0.7c0,-0.5,0,-1,0,-1.5c-0.2,-1.2,-1.8,-1.1,-1.8,0.1l0,0.1c-0.5,-0.3,-1,-0.4,-2.2,-0.8c-4.1,-1.1,-10,1.5,-9.3,6.6c0.9,5.5,10.2,4.5,11.9,8.2c2.1,4.3,-7.1,6.3,-9.3,3.8c-0.1,0,-0.2,-0.2,-0.2,-0.3c0,-1,0.1,-1.9,0.1,-2.9c-0.2,-1.1,-1.4,-1.2,-1.8,-0.2m17.8,5.8c2.1,-0.4,4.3,-0.6,6.5,-0.6c1.2,-0.2,1.2,-1.7,0,-1.8c-1.1,0,-2.2,0.1,-3.2,0.2c0,-5.6,0.3,-11.3,0.4,-16.9c1.1,0.1,2.2,0.2,3.4,0c1,-0.5,0.7,-1.7,-0.3,-1.8c-1.7,0.2,-3.2,0,-4.9,-0.1c-1.1,0,-2.2,0.2,-3.4,0.3l0.1,0c-0.6,0,-1,0.5,-0.8,1.3c0.3,0.3,0.4,0.4,0.8,0.5c1.1,-0.1,2.2,-0.3,3.3,-0.3c-0.1,5.8,-0.4,11.5,-0.4,17.2c-0.6,0.1,-1.2,0.2,-1.8,0.3c-1.2,0.3,-0.9,1.9,0.3,1.7m11.7,0.1c0.7,-0.1,1.3,-0.2,1.9,-0.3c3.1,-0.2,9.9,0.7,12.5,-1.4c0.6,-0.5,1.4,-0.9,1.9,-1.5c3.5,-4.5,1.9,-12.2,-2.6,-15.3c-2.7,-1.9,-6.3,-2.5,-9.5,-2.5c-1,-0.1,-2.1,0.1,-3.1,-0.2c-0.6,-0.3,-1.4,0.3,-1.1,1.2c0.1,0.4,1.1,0.7,2.1,0.7c-0.1,5.8,-0.3,11.6,-0.3,17.3c-0.7,0.1,-1.4,0.1,-2.1,0.2c-1.2,0.4,-0.9,1.9,0.3,1.8m3.8,-19.3l0.4,0c3.3,0.1,7.2,0.7,9.6,3.2c2.7,2.9,3.6,8.5,1.1,11.8c-1.3,1.6,-3.7,2,-5.6,2.2c-1.9,0.1,-3.9,0.1,-5.8,0.1c0,-5.8,0.3,-11.5,0.3,-17.3m30.4,19.4c1.5,0,3.1,-0.2,4.5,-0.6c1.1,-0.5,0.6,-2,-0.6,-1.7c-0.3,0.1,-0.7,0.2,-1.1,0.3c-1.3,-3.1,-2.4,-6.2,-3.5,-9.4c-1,-2.8,-2,-5.6,-2.7,-8.5c0.1,-0.2,0.1,-0.5,0.1,-0.7c0.2,-1.1,-1.1,-1.5,-1.6,-0.7c-0.5,2.6,-1.6,5.3,-2.7,7.8c-1.7,4,-3.3,8.1,-6.1,11.4c-0.4,0,-0.8,0,-1.3,0c-0.1,0,-0.3,0,-0.5,0l-0.1,0c-0.8,0.6,-0.4,1.4,0.5,1.6c2,0.3,3.4,0,5.4,0.1c1.3,-0.1,1.3,-1.6,0,-1.7c-0.8,-0.1,-0.7,0,-1.6,0c0.2,-0.7,1.1,-1.8,1.6,-2.9c0.4,-0.8,1,-1.7,1.5,-2.7c2.2,-0.3,4.4,-0.6,6.7,-0.7c0.7,2.2,1.6,4.4,2.5,6.6l-1,0c-1,0.3,-1,1.5,0,1.8m-7.3,-9.6c1.1,-2.3,2.2,-4.7,3,-7c0.6,2,1.3,4,2,6c0.1,0.1,0.1,0.3,0.2,0.5c-1.7,0,-3.4,0.3,-5.2,0.5Z" class="g2_2" />
<path d="M609.7,190.9c2.3,-4.1,4.3,-8.3,6,-12.7c0.8,-2.1,0.8,-2.2,1.5,-4.4c0.1,-0.5,0.3,-1,0.5,-1.5c0,-0.1,0.1,-0.3,0.1,-0.3c0,-0.1,0,-0.1,0,-0.2l1.2,0c1.2,-0.1,1.2,-1.7,0,-1.8c-1.8,0,-3.6,0.1,-5.4,0.1c-1,0.3,-1,1.5,0,1.8l2.4,0c-0.2,0.4,-0.3,0.6,-0.4,1.1c-0.5,1.5,-1,3,-1.6,4.5c-1.3,3.5,-2.9,7,-4.7,10.3c-2.1,-5.3,-4.2,-10.6,-6.2,-15.9c0.8,0,1.6,0,2.4,0c1.2,-0.2,1.2,-1.7,0,-1.8c-2.1,0,-4.1,0.1,-6.1,0.1c-1.1,0.2,-1.1,1.5,0,1.8l1.8,0c0.1,0,0.1,0.1,0.1,0.2c2.3,5.9,4.5,11.8,7,17.6c-0.1,0.1,-0.2,0.3,-0.3,0.4c-0.3,1.2,1.1,1.8,1.7,0.7Zm21.5,0.2c1.5,0,3,-0.2,4.4,-0.6c1.2,-0.5,0.7,-2,-0.5,-1.7c-0.4,0.1,-0.7,0.2,-1.1,0.3c-1.3,-3.1,-2.4,-6.2,-3.5,-9.4c-1,-2.8,-2.1,-5.6,-2.8,-8.5c0.1,-0.2,0.1,-0.5,0.2,-0.7c0.2,-1.1,-1.1,-1.5,-1.6,-0.7c-0.5,2.6,-1.6,5.3,-2.7,7.8c-1.7,4,-3.4,8.1,-6.2,11.4c-0.4,0,-0.8,0,-1.2,0c-0.2,0,-0.4,0,-0.6,0c-0.8,0.6,-0.5,1.4,0.4,1.6c2.1,0.3,3.4,0,5.5,0.1c1.2,-0.1,1.2,-1.6,0,-1.7c-0.9,-0.1,-0.7,0,-1.6,0c0.2,-0.7,1,-1.8,1.5,-2.9c0.4,-0.8,1.1,-1.7,1.6,-2.7c2.2,-0.3,4.4,-0.6,6.6,-0.7c0.8,2.2,1.6,4.4,2.5,6.6l-0.9,0c-1.1,0.3,-1.1,1.5,0,1.8Zm-7.3,-9.6c1.1,-2.3,2.2,-4.7,2.9,-7c0.7,2,1.4,4,2,6c0.1,0.1,0.2,0.3,0.2,0.5c-1.7,0,-3.4,0.3,-5.1,0.5Zm3.8,-13.4c0.3,0.5,0.7,0.9,1.2,0.9c0.7,0.3,1.5,0.1,2,-0.9c0.9,-1.7,-2.2,-2.5,-3,-1.4c-0.4,0.5,-0.4,1,-0.2,1.4Zm-4.8,-1.2c-0.5,1,0.5,2.7,1.9,1.9c0.8,-0.6,0.8,-1.4,0.4,-2c-0.4,-0.7,-1.6,-1.1,-2.3,0.1Zm15.8,5.5c0.7,0.1,1.4,0.1,2.1,0.2c-0.8,5.4,-0.4,10.9,0.2,16.2c-0.6,0,-1.2,0,-1.8,0c-1,0.2,-1,1.5,0,1.8c4.2,0,8.3,0,12.3,-0.9c0,0.1,-0.1,0.3,-0.1,0.5c-0.2,0.3,-0.2,0.7,0.1,1.1c0.7,0.4,1.2,0.2,1.5,-0.4c0.6,-1.7,1.2,-3.5,2.2,-5c0.6,-1.1,-0.7,-2,-1.5,-1c-0.6,0.9,-1.1,1.8,-1.5,2.8c-3.1,0.8,-6.3,1.1,-9.5,1.1c-0.5,-4.1,-0.6,-8.2,-0.5,-12.3c0,-0.6,-0.1,-1.3,0,-2c0.1,-0.5,0.3,-1.2,0.4,-1.8c1.6,0.1,3.2,0.2,4.8,-0.2c1,-0.4,0.8,-1.6,-0.3,-1.7c-1.5,0.3,-3,0.3,-4.5,0.2c0,-0.1,0,-0.1,-0.1,-0.2c-0.4,-0.9,-1.4,-0.7,-1.6,0c-0.7,-0.1,-1.5,-0.1,-2.2,-0.2c-1.1,0.3,-1.1,1.6,0,1.8Zm20,-0.5c1.4,0,2.9,0.1,4.4,0.1c0.2,4.6,1.6,11.4,0.3,15.7c-0.5,1.4,-1,2,-2.4,2.5c-0.8,0.2,-1.7,0.2,-2,-0.2c0.1,0,0.3,-0.1,0.4,-0.3c0.4,-0.5,0.4,-1.3,0.1,-1.8c-0.1,-0.4,-0.2,-0.5,-0.6,-0.6c-1.8,-0.2,-2,2.5,-1.5,3.8c0.9,1.7,3.8,0.9,5,0.4c0.7,-0.3,1.3,-0.7,1.7,-1.3c1.5,-1.7,1.5,-4.6,1.5,-6.7c0.1,-3.8,-0.5,-7.6,-0.8,-11.5c1.3,0,2.5,-0.2,3.7,-0.4c1,-0.4,0.8,-1.6,-0.3,-1.8c-3.1,0.7,-6.3,0.4,-9.5,0.3c-1.1,0.3,-1.1,1.5,0,1.8ZM690,185.1c0,0.9,0,1.7,0,2.5c-0.1,0.2,-0.1,0.5,-0.1,0.8c0,0.9,0,1.8,0,2.8c0,1.2,1.5,1.3,1.7,0.1l0,-0.8c3.9,1.9,11.7,0.3,11.7,-4.2c0,-4.8,-5,-5.5,-8.5,-7c-1.4,-0.6,-3.4,-1.3,-3.7,-3.1c-0.4,-4,4.1,-5.1,7.1,-4.5c1.4,0.3,1.8,0.5,2.7,1.1c0.1,1.3,0.2,2.6,0.2,4c0.4,1,1.6,0.9,1.8,-0.2c0,-1.3,-0.2,-2.6,-0.2,-3.9c0,-0.2,0,-0.5,-0.1,-0.7c0,-0.5,0,-1,0,-1.5c-0.2,-1.2,-1.8,-1.1,-1.8,0.1l0,0.1c-0.5,-0.3,-1,-0.4,-2.2,-0.8c-4.1,-1.1,-10,1.5,-9.3,6.6c0.9,5.5,10.2,4.5,11.9,8.2c2.1,4.3,-7.1,6.3,-9.3,3.8c-0.1,0,-0.2,-0.2,-0.2,-0.3c0,-1,0.1,-1.9,0.1,-2.9c-0.2,-1.1,-1.4,-1.2,-1.8,-0.2Zm17.8,5.8c2.1,-0.4,4.3,-0.6,6.5,-0.6c1.2,-0.2,1.2,-1.7,0,-1.8c-1.1,0,-2.2,0.1,-3.2,0.2c0,-5.6,0.3,-11.3,0.4,-16.9c1.1,0.1,2.2,0.2,3.4,0c1,-0.5,0.7,-1.7,-0.3,-1.8c-1.7,0.2,-3.2,0,-4.9,-0.1c-1.1,0,-2.2,0.2,-3.4,0.3l0.1,0c-0.6,0,-1,0.5,-0.8,1.3c0.3,0.3,0.4,0.4,0.8,0.5c1.1,-0.1,2.2,-0.3,3.3,-0.3c-0.1,5.8,-0.4,11.5,-0.4,17.2c-0.6,0.1,-1.2,0.2,-1.8,0.3c-1.2,0.3,-0.9,1.9,0.3,1.7Zm11.7,0.1c0.7,-0.1,1.3,-0.2,1.9,-0.3c3.1,-0.2,9.9,0.7,12.5,-1.4c0.6,-0.5,1.4,-0.9,1.9,-1.5c3.5,-4.5,1.9,-12.2,-2.6,-15.3c-2.7,-1.9,-6.3,-2.5,-9.5,-2.5c-1,-0.1,-2.1,0.1,-3.1,-0.2c-0.6,-0.3,-1.4,0.3,-1.1,1.2c0.1,0.4,1.1,0.7,2.1,0.7c-0.1,5.8,-0.3,11.6,-0.3,17.3c-0.7,0.1,-1.4,0.1,-2.1,0.2c-1.2,0.4,-0.9,1.9,0.3,1.8Zm3.8,-19.3l0.4,0c3.3,0.1,7.2,0.7,9.6,3.2c2.7,2.9,3.6,8.5,1.1,11.8c-1.3,1.6,-3.7,2,-5.6,2.2c-1.9,0.1,-3.9,0.1,-5.8,0.1c0,-5.8,0.3,-11.5,0.3,-17.3Zm30.4,19.4c1.5,0,3.1,-0.2,4.5,-0.6c1.1,-0.5,0.6,-2,-0.6,-1.7c-0.3,0.1,-0.7,0.2,-1.1,0.3c-1.3,-3.1,-2.4,-6.2,-3.5,-9.4c-1,-2.8,-2,-5.6,-2.7,-8.5c0.1,-0.2,0.1,-0.5,0.1,-0.7c0.2,-1.1,-1.1,-1.5,-1.6,-0.7c-0.5,2.6,-1.6,5.3,-2.7,7.8c-1.7,4,-3.3,8.1,-6.1,11.4c-0.4,0,-0.8,0,-1.3,0c-0.1,0,-0.3,0,-0.5,0l-0.1,0c-0.8,0.6,-0.4,1.4,0.5,1.6c2,0.3,3.4,0,5.4,0.1c1.3,-0.1,1.3,-1.6,0,-1.7c-0.8,-0.1,-0.7,0,-1.6,0c0.2,-0.7,1.1,-1.8,1.6,-2.9c0.4,-0.8,1,-1.7,1.5,-2.7c2.2,-0.3,4.4,-0.6,6.7,-0.7c0.7,2.2,1.6,4.4,2.5,6.6l-1,0c-1,0.3,-1,1.5,0,1.8Zm-7.3,-9.6c1.1,-2.3,2.2,-4.7,3,-7c0.6,2,1.3,4,2,6c0.1,0.1,0.1,0.3,0.2,0.5c-1.7,0,-3.4,0.3,-5.2,0.5Z" class="g5_2" />
<path d="M280.8,30.7c-2.9,-0.4,-6,0,-9,0.3c-6.6,0.6,-12.3,5.6,-13.7,12.7c-0.3,1.6,-0.4,3.3,-0.7,4.7c0.1,4.5,1.1,8.4,3.6,11.8c3.4,4.9,8,8,13.8,9.3c5.6,1.4,10.3,-0.7,14.1,-4.4c2.8,-2.8,4.8,-6.3,5.4,-10.4c0.1,-0.8,0.2,-1.7,0.4,-2.4c1.1,-4.4,0,-8.6,-1.8,-12.4C290.5,35,286.6,31.6,280.8,30.7Z" class="g6_2" />
<path d="M62.8,960.1c0,0,-4,0,-4,4l0,20.6c0,0,0,3.9,4,3.9l93,0c0,0,4,0,4,-3.9l0,-20.6c0,0,0,-4,-4,-4Z" class="g7_2" />
<path d="M62.8,960.1c0,0,-4,0,-4,4l0,20.6c0,0,0,3.9,4,3.9l93,0c0,0,4,0,4,-3.9l0,-20.6c0,0,0,-4,-4,-4l-93,0Z" class="g8_2" />
<path d="M64.3,962.4l-0.6,-4.6m-0.9,5l-2,-4.1m1.1,4.8l-3.7,-2.7m3.2,3.8l-4.6,-0.7m4.5,2.7l-4.6,0m4.6,2.3l-4.6,0m4.6,2.3l-4.6,0m4.6,2.3l-4.6,0m4.6,2.3l-4.6,0m4.6,2.3l-4.6,0m4.6,2.3l-4.6,0m4.6,2.3l-4.6,0m4.7,1.5l-4.3,1.6m5,-0.4l-3.4,3.1m4.5,-2.4l-1.8,4.3m3.2,-4.1l0,4.6m2.3,-4.6l0,4.6m2.3,-4.6l0,4.6m2.3,-4.6l0,4.6m2.3,-4.6l0,4.6m2.3,-4.6l0,4.6m2.3,-4.6l0,4.6m2.3,-4.6l0,4.6M83,986.3l0,4.6m2.3,-4.6l0,4.6m2.3,-4.6l0,4.6m2.3,-4.6l0,4.6m2.3,-4.6l0,4.6m2.3,-4.6l0,4.6m2.4,-4.6l0,4.6m2.3,-4.6l0,4.6m2.3,-4.6l0,4.6m2.3,-4.6l0,4.6m2.3,-4.6l0,4.6m2.3,-4.6l0,4.6m2.3,-4.6l0,4.6m2.3,-4.6l0,4.6m2.3,-4.6l0,4.6m2.3,-4.6l0,4.6m2.3,-4.6l0,4.6m2.3,-4.6l0,4.6m2.3,-4.6l0,4.6m2.3,-4.6l0,4.6m2.3,-4.6l0,4.6m2.4,-4.6l0,4.6m2.3,-4.6l0,4.6m2.3,-4.6l0,4.6m2.3,-4.6l0,4.6m2.3,-4.6l0,4.6m2.3,-4.6l0,4.6m2.3,-4.6l0,4.6m2.3,-4.6l0,4.6m2.3,-4.6l0,4.6m2.3,-4.6l0,4.6m2.2,-4.6l0.2,4.6m1.2,-4.8l1.9,4.1M157,985.3l3.3,3.1m-2.8,-4.2l4.5,1.3m-4.3,-2.9l4.6,0m-4.6,-2.3l4.6,0M157.7,978l4.6,0m-4.6,-2.3l4.6,0m-4.6,-2.3l4.6,0M157.7,971l4.6,0m-4.6,-2.3l4.6,0m-4.6,-2.3l4.6,0m-4.7,-1.6l4.4,-1.3m-5.1,-0.1l3.8,-2.7m-4.5,2l1.7,-4.2m-3.2,3.9l0.2,-4.6m-2.4,4.6l0,-4.6m-2.3,4.6l0,-4.6m-2.3,4.6l0,-4.6m-2.3,4.6l0,-4.6m-2.3,4.6l0,-4.6m-2.3,4.6l0,-4.6m-2.3,4.6l0,-4.6m-2.3,4.6l0,-4.6m-2.3,4.6l0,-4.6m-2.3,4.6l0,-4.6m-2.4,4.6l0,-4.6m-2.3,4.6l0,-4.6m-2.3,4.6l0,-4.6m-2.3,4.6l0,-4.6m-2.3,4.6l0,-4.6m-2.3,4.6l0,-4.6m-2.3,4.6l0,-4.6m-2.3,4.6l0,-4.6m-2.3,4.6l0,-4.6m-2.3,4.6l0,-4.6m-2.3,4.6l0,-4.6m-2.3,4.6l0,-4.6m-2.3,4.6l0,-4.6m-2.3,4.6l0,-4.6m-2.3,4.6l0,-4.6m-2.3,4.6l0,-4.6m-2.4,4.6l0,-4.6m-2.3,4.6l0,-4.6m-2.3,4.6l0,-4.6m-2.3,4.6l0,-4.6m-2.3,4.6l0,-4.6M81,962.4l0,-4.6m-2.3,4.6l0,-4.6m-2.3,4.6l0,-4.6m-2.3,4.6l0,-4.6m-2.3,4.6l0,-4.6m-2.3,4.6l0,-4.6m-2.3,4.6l0,-4.6m-2.3,4.6l0,-4.6" class="g9_2" />
<path d="M838.5,79.7l-0.1,0.2c0.4,-0.5,0.8,-0.9,1.2,-1.3c0,-0.4,0.2,-0.8,0.3,-1.4c0.2,-2.6,0.3,-5.4,0.5,-8.1c0.1,-2.2,0.2,-4.4,-0.1,-6.6c0,-0.9,0,-1.6,0.1,-2.3c0,-0.8,0.1,-1.5,0.3,-2.3c0.2,-3.9,0.4,-7.8,0.9,-11.7c0.1,-0.9,0.2,-1.7,0.1,-2.5c-0.1,-2.2,0.2,-4.5,-0.3,-6.7c0.1,-2.1,-0.3,-4,-0.1,-6.1C841.4,29.6,841.1,28.4,841,27c0,-0.4,-0.3,-0.8,-0.7,-0.9C839.1,25.8,838,25.5,837,25.4c-1.9,-0.2,-3.7,-0.6,-5.5,-0.7c-4.2,-0.2,-8.2,-0.9,-12.4,-0.6c-1.9,0.1,-4,0.2,-6,0.2c-2.1,0.2,-4.3,0.2,-6.5,0.5C805.5,25,804.2,25,803,25c-1.5,0.2,-3.2,0.2,-4.9,0.8C797.4,26,796.6,26,795.9,26c-0.8,0,-1.5,-0.1,-2.2,-0.2c-2.9,-0.6,-6,-0.5,-8.9,-0.4c-1.8,0.1,-3.8,0,-5.6,-0.1c-2.8,-0.2,-5.7,-0.2,-8.5,-0.7c-0.1,0,-0.1,0,-0.2,0c-3,-0.1,-5.7,0,-8.5,-0.2c-3.1,-0.3,-6,-0.1,-8.9,-0.3c-3.2,-0.2,-6.5,0,-9.9,-0.1c-1.7,0,-3.5,-0.1,-5.1,-0.3c-1.3,-0.2,-2.7,-0.3,-3.9,-0.1c-3.1,0.2,-6.1,0.1,-9.2,0c-0.7,0,-1.4,0,-1.9,0.1c-3.5,0.1,-6.8,0.2,-10.2,0.1c-2.9,-0.1,-5.7,0,-8.6,-0.2c-1.1,-0.2,-2.4,0,-3.5,0C693.3,23.5,685.9,22.8,678.4,23c-0.4,0,-0.9,0.1,-1.5,0.1c-3.5,0,-6.8,-0.7,-10.1,-0.1c-0.3,0,-0.7,0,-1,0c-2.4,-0.3,-4.9,-0.2,-7.2,-0.2c-3,0.1,-5.9,0.4,-8.8,1C649.3,24,648.7,24,648.2,24c-2.1,0,-4.2,-0.1,-6.3,0.4c-0.8,0.1,-1.7,0,-2.5,0c-5.8,0.1,-11.7,0.1,-17.4,-0.2c-1.5,-0.1,-3,0.3,-4.5,0.3c-1.7,0.1,-3.2,-0.3,-4.9,-0.2c-1.4,0.2,-2.6,0.2,-4,0.4c-5.4,0.6,-11.1,0.4,-16.7,0.8c-0.1,0,-0.4,0,-0.5,0c-2,0.1,-3.8,0.2,-5.6,0.3c-1.4,0,-2.6,0.2,-3.9,0.2c-2.6,-0.1,-5.1,-0.2,-7.6,-0.2c-6.7,0,-13.5,0,-20.3,0c-0.6,0,-1.1,0,-1.6,-0.1c-2.2,-0.6,-4.4,-0.5,-6.5,-0.5c-2.4,0.1,-4.7,0.2,-6.9,0C536.7,25,534.6,25,532.4,25c-2.3,-0.1,-4.7,0,-7.2,-0.1c-1,0,-2.1,-0.1,-3.2,-0.2c-1.1,-0.2,-2.2,-0.4,-3.2,-0.5c-0.6,0,-0.8,0.3,-1.1,0.7c0,0.5,0,1.1,0,1.6c0.2,0.9,0.2,1.6,0.3,2.3c0.5,2.3,0.7,4.8,0.4,7.3c-0.3,2.8,-0.3,5.4,-0.2,8.2c0.1,5.3,0.1,10.6,0.1,16c0,1.7,0.1,3.5,0.1,5.3c0.1,3.7,0.1,7.5,0.2,11.2c0,0.9,0.4,1.4,1.3,1.7c1.5,-0.1,3.2,-0.2,4.7,-0.2c3.6,0,7.2,-0.3,10.8,-0.2c3.4,0,6.8,-0.2,10.2,0.2c0.4,0.1,0.8,0,1.4,0c2.9,0.1,5.8,0.2,8.7,0.1c0.7,0,1.4,0,2,0.1c2.5,0.4,5,0.5,7.5,0.7c1.4,0,2.6,0.2,3.9,0.2c4.4,-0.1,8.7,-0.1,13.2,-0.2c0.7,0,1.5,0,2.2,0c4.5,0,9,-0.1,13.5,0c0.7,0,1.5,-0.2,2.2,0c1.4,-0.1,2.9,-0.2,4.3,-0.1c1.4,0.1,2.8,-0.1,4.2,-0.1c2.3,0,4.6,-0.2,6.9,0c4.8,0.5,9.6,0.6,14.3,0.1c1.6,-0.3,3,-0.5,4.3,-0.4c2.4,0.2,4.6,0.1,6.9,-0.1c2.2,-0.3,4.4,-0.5,6.5,0c0.7,0.1,1.4,0.1,1.9,0.1c1.4,0.1,2.7,0.2,4.1,0.4c3.9,0.4,7.9,0.5,12.1,0.3c1.2,0,2.6,0,3.9,0.1c2.3,0.4,4.7,0.3,7.2,0.1c1.5,0,3,0,4.6,-0.1c1.6,0,3.4,0,5.1,0c2.1,-0.1,4.2,-0.1,6.3,-0.2c2.9,0,5.8,0.1,8.9,-0.2C702.1,79,702.5,79,702.9,79c3.3,0.1,6.5,0.1,9.9,0.1c3.6,0.1,7.3,0.1,11.1,0.3c1.9,-0.1,3.9,0,5.8,0.1c1.4,0.2,2.8,0.3,4.3,0.2c2.4,0.3,4.8,0.5,7.1,0.5c3.5,0.1,6.8,0,10.2,0.1c2.8,0.1,5.5,0,8.2,0.1c3.2,0.1,6.4,0,9.6,0c1.8,-0.1,3.6,-0.1,5.5,-0.1c4.5,-0.1,8.9,-0.2,13.4,-0.2c0.9,-0.1,2,-0.2,2.9,0c2.1,0.4,4.2,0.2,6.2,-0.1c0.9,-0.1,1.7,-0.1,2.7,-0.2c1.5,0,3,-0.1,4.4,-0.6c1,-0.1,2,-0.3,3.1,-0.3c0.9,0.1,2,-0.1,3.2,-0.1c1.2,0,2.6,-0.2,3.9,0c3,-0.1,6.1,-0.3,9.1,0.1c2.9,0.2,6,0.3,8.9,0.4c1,0.1,2,0.4,3,0.5c0.9,0.2,2,-0.3,3.1,-0.1m-349.9,-1c-0.7,1.9,-1.5,3.5,-2.1,5.4c-1.1,2.3,-2.3,4.7,-3.2,7.2c-1.1,2.8,-2.3,5.4,-3.6,8c-0.6,1.1,-1.1,2.3,-1.9,3.3c-0.3,0.1,-0.3,0.4,-0.4,0.5c-0.3,0.6,-0.2,1.3,0.1,1.7c1,0.9,2,1.3,3.4,1.2c3.3,-0.5,6.6,-0.7,10.1,-0.8c2.5,0,5.2,0.2,7.8,0.5c3.8,0.5,7.5,0.9,11.4,0.7c2.1,0,4.2,0.1,6.3,0.2c2.6,0.4,5.1,0.3,7.8,0c3.3,-0.2,6.8,-0.4,10.1,0c2.1,0.2,4.2,0.3,6.2,-0.1c3.4,-0.7,6.7,-0.6,10.1,-0.2c1.2,0.1,2.5,0.1,3.6,0.1c0.8,-0.1,1.5,-0.8,1.6,-1.6c0.1,-0.7,0.1,-1.2,-0.2,-1.7c-0.1,-0.1,-0.1,-0.2,-0.2,-0.2c-0.9,-0.6,-1.9,-1,-2.7,-1.5C550,99.9,547,98.6,544,97.5c-0.3,0,-0.6,-0.1,-0.9,-0.3C538.5,95.1,534,93.1,529.4,91.4c-0.7,-0.3,-1.4,-0.7,-2.1,-1c-0.7,-0.4,-1.4,-0.8,-2.1,-1C521.4,88,517.9,86.2,514.5,84c-0.2,-0.1,-0.4,-0.1,-0.5,-0.3c-0.3,-0.1,-0.6,-0.4,-0.9,-0.7C513,82.6,513,82.1,513,81.7c-0.4,-3.5,-0.3,-6.9,-0.2,-10.3c0,-5.3,-0.5,-10.6,-0.6,-16c0,-1,-0.3,-1.8,-0.6,-2.6c-0.3,-0.9,-0.8,-1.3,-1.4,-1.4c-0.5,-0.1,-1.1,-0.1,-1.6,-0.1C506.3,51.2,504.2,51,502,50.7c-3,-0.3,-6.3,-0.8,-9.4,-0.2c-0.6,0.1,-1.1,0,-1.7,0c-2.1,0,-4.3,-0.2,-6.5,0.1c-0.7,0.2,-1.6,0,-2.3,-0.1c-2.7,-0.2,-5.4,0,-8.2,0c-0.2,0,-0.4,0.2,-0.6,0.3c0,0.3,-0.2,0.6,-0.2,1c0,0.4,0.2,0.8,0.3,1.2c1.3,2.4,2.6,4.8,3.9,7.2c2,3.6,4.4,7,6.7,10.4c1.6,2.5,3.2,5.1,4.6,8.1m351.3,7.8c-0.8,0.9,-1.9,1.3,-3.1,1.7c-3.4,1.2,-6.7,2.2,-9.7,4.2c-0.5,0.6,-1.4,0.7,-2.1,1c-1.9,0.4,-3.7,1.2,-5.3,2.4c-1.6,0.8,-3.2,1.8,-4.7,2.5c-2.9,1.3,-5.8,2.6,-8.7,3.9c-1.7,0.9,-3.2,1.8,-4.7,2.6c-0.4,0.2,-0.7,0.3,-0.8,0.6c-0.4,0.4,-0.6,1,-0.5,1.7c0,0.4,0.7,0.9,1.1,0.9c0.4,0,0.7,0,1,0c3.7,-0.2,7.3,-0.4,11.1,-0.7c3.3,-0.5,6.8,-0.4,10.1,-0.6c2.5,-0.1,5,0,7.5,0c2.1,-0.1,4.2,-0.4,6.2,-0.6c2.7,-0.1,5.5,-0.3,8.2,-0.1c3.2,0.4,6.6,0.4,9.8,0.4c1.9,0,3.9,0.1,5.8,0.3c1.8,0.1,3.5,0.2,5.3,0.2c4.3,-0.2,8.8,0.1,12.9,1.2c0.6,0.1,1.2,-0.2,1.6,-0.8c0.5,-0.5,0.5,-1.4,0.2,-2.2c0,-0.3,-0.1,-0.4,-0.3,-0.7c-1.1,-1.8,-2,-3.8,-2.7,-5.9c-1.5,-3.7,-3.1,-7.3,-4.5,-11c-1.1,-2.7,-1.9,-5.3,-3.2,-7.8c-0.2,-0.1,-0.2,-0.3,-0.2,-0.4c0.3,-0.8,0.4,-1.8,0.7,-2.6c1,-3.4,2.2,-6.8,4.3,-9.6c0.4,-0.7,0.8,-1.4,1.2,-2.1c1,-2.5,2.7,-4.6,4.3,-6.6c0.5,-0.7,1.1,-1.4,1.6,-2.2c0.4,-0.5,0.4,-1.2,0.1,-1.7c-0.1,-0.3,-0.4,-0.4,-0.5,-0.7c-0.9,-0.1,-1.7,-0.1,-2.4,-0.2c-0.8,-0.1,-1.7,-0.4,-2.5,-0.7c-0.8,-0.1,-1.7,-0.4,-2.7,-0.5c-3.3,-0.2,-6.6,-0.7,-10,-1.1C864.2,51.2,864,51.2,864,51.2c-2.2,-0.1,-4.4,-0.2,-6.5,-0.6c-3.1,-0.5,-6.1,-0.1,-9.2,-0.1c-0.7,0,-1.5,0.7,-1.5,1.6c-0.1,0.4,-0.1,0.8,-0.1,1.4c0,1.2,0.1,2.6,-0.2,3.8c-0.4,2.3,-0.6,4.5,-0.4,6.7c0,0.4,0,1,0,1.4c-0.2,4.6,-0.4,9.2,-0.8,13.8c0.1,1.4,0.1,2.9,-0.3,4.3c-1.1,0.7,-2.2,1.6,-3.3,2.3c-0.5,0.3,-1.6,0.6,-1.8,0.7Z" class="g6_2" />
<path d="M838.5,79.7l-0.1,0.2c0.4,-0.5,0.8,-0.9,1.2,-1.3c0,-0.4,0.2,-0.8,0.3,-1.4c0.2,-2.6,0.3,-5.4,0.5,-8.1c0.1,-2.2,0.2,-4.4,-0.1,-6.6c0,-0.9,0,-1.6,0.1,-2.3c0,-0.8,0.1,-1.5,0.3,-2.3c0.2,-3.9,0.4,-7.8,0.9,-11.7c0.1,-0.9,0.2,-1.7,0.1,-2.5c-0.1,-2.2,0.2,-4.5,-0.3,-6.7c0.1,-2.1,-0.3,-4,-0.1,-6.1C841.4,29.6,841.1,28.4,841,27c0,-0.4,-0.3,-0.8,-0.7,-0.9C839.1,25.8,838,25.5,837,25.4c-1.9,-0.2,-3.7,-0.6,-5.5,-0.7c-4.2,-0.2,-8.2,-0.9,-12.4,-0.6c-1.9,0.1,-4,0.2,-6,0.2c-2.1,0.2,-4.3,0.2,-6.5,0.5C805.5,25,804.2,25,803,25c-1.5,0.2,-3.2,0.2,-4.9,0.8C797.4,26,796.6,26,795.9,26c-0.8,0,-1.5,-0.1,-2.2,-0.2c-2.9,-0.6,-6,-0.5,-8.9,-0.4c-1.8,0.1,-3.8,0,-5.6,-0.1c-2.8,-0.2,-5.7,-0.2,-8.5,-0.7c-0.1,0,-0.1,0,-0.2,0c-3,-0.1,-5.7,0,-8.5,-0.2c-3.1,-0.3,-6,-0.1,-8.9,-0.3c-3.2,-0.2,-6.5,0,-9.9,-0.1c-1.7,0,-3.5,-0.1,-5.1,-0.3c-1.3,-0.2,-2.7,-0.3,-3.9,-0.1c-3.1,0.2,-6.1,0.1,-9.2,0c-0.7,0,-1.4,0,-1.9,0.1c-3.5,0.1,-6.8,0.2,-10.2,0.1c-2.9,-0.1,-5.7,0,-8.6,-0.2c-1.1,-0.2,-2.4,0,-3.5,0C693.3,23.5,685.9,22.8,678.4,23c-0.4,0,-0.9,0.1,-1.5,0.1c-3.5,0,-6.8,-0.7,-10.1,-0.1c-0.3,0,-0.7,0,-1,0c-2.4,-0.3,-4.9,-0.2,-7.2,-0.2c-3,0.1,-5.9,0.4,-8.8,1C649.3,24,648.7,24,648.2,24c-2.1,0,-4.2,-0.1,-6.3,0.4c-0.8,0.1,-1.7,0,-2.5,0c-5.8,0.1,-11.7,0.1,-17.4,-0.2c-1.5,-0.1,-3,0.3,-4.5,0.3c-1.7,0.1,-3.2,-0.3,-4.9,-0.2c-1.4,0.2,-2.6,0.2,-4,0.4c-5.4,0.6,-11.1,0.4,-16.7,0.8c-0.1,0,-0.4,0,-0.5,0c-2,0.1,-3.8,0.2,-5.6,0.3c-1.4,0,-2.6,0.2,-3.9,0.2c-2.6,-0.1,-5.1,-0.2,-7.6,-0.2c-6.7,0,-13.5,0,-20.3,0c-0.6,0,-1.1,0,-1.6,-0.1c-2.2,-0.6,-4.4,-0.5,-6.5,-0.5c-2.4,0.1,-4.7,0.2,-6.9,0C536.7,25,534.6,25,532.4,25c-2.3,-0.1,-4.7,0,-7.2,-0.1c-1,0,-2.1,-0.1,-3.2,-0.2c-1.1,-0.2,-2.2,-0.4,-3.2,-0.5c-0.6,0,-0.8,0.3,-1.1,0.7c0,0.5,0,1.1,0,1.6c0.2,0.9,0.2,1.6,0.3,2.3c0.5,2.3,0.7,4.8,0.4,7.3c-0.3,2.8,-0.3,5.4,-0.2,8.2c0.1,5.3,0.1,10.6,0.1,16c0,1.7,0.1,3.5,0.1,5.3c0.1,3.7,0.1,7.5,0.2,11.2c0,0.9,0.4,1.4,1.3,1.7c1.5,-0.1,3.2,-0.2,4.7,-0.2c3.6,0,7.2,-0.3,10.8,-0.2c3.4,0,6.8,-0.2,10.2,0.2c0.4,0.1,0.8,0,1.4,0c2.9,0.1,5.8,0.2,8.7,0.1c0.7,0,1.4,0,2,0.1c2.5,0.4,5,0.5,7.5,0.7c1.4,0,2.6,0.2,3.9,0.2c4.4,-0.1,8.7,-0.1,13.2,-0.2c0.7,0,1.5,0,2.2,0c4.5,0,9,-0.1,13.5,0c0.7,0,1.5,-0.2,2.2,0c1.4,-0.1,2.9,-0.2,4.3,-0.1c1.4,0.1,2.8,-0.1,4.2,-0.1c2.3,0,4.6,-0.2,6.9,0c4.8,0.5,9.6,0.6,14.3,0.1c1.6,-0.3,3,-0.5,4.3,-0.4c2.4,0.2,4.6,0.1,6.9,-0.1c2.2,-0.3,4.4,-0.5,6.5,0c0.7,0.1,1.4,0.1,1.9,0.1c1.4,0.1,2.7,0.2,4.1,0.4c3.9,0.4,7.9,0.5,12.1,0.3c1.2,0,2.6,0,3.9,0.1c2.3,0.4,4.7,0.3,7.2,0.1c1.5,0,3,0,4.6,-0.1c1.6,0,3.4,0,5.1,0c2.1,-0.1,4.2,-0.1,6.3,-0.2c2.9,0,5.8,0.1,8.9,-0.2C702.1,79,702.5,79,702.9,79c3.3,0.1,6.5,0.1,9.9,0.1c3.6,0.1,7.3,0.1,11.1,0.3c1.9,-0.1,3.9,0,5.8,0.1c1.4,0.2,2.8,0.3,4.3,0.2c2.4,0.3,4.8,0.5,7.1,0.5c3.5,0.1,6.8,0,10.2,0.1c2.8,0.1,5.5,0,8.2,0.1c3.2,0.1,6.4,0,9.6,0c1.8,-0.1,3.6,-0.1,5.5,-0.1c4.5,-0.1,8.9,-0.2,13.4,-0.2c0.9,-0.1,2,-0.2,2.9,0c2.1,0.4,4.2,0.2,6.2,-0.1c0.9,-0.1,1.7,-0.1,2.7,-0.2c1.5,0,3,-0.1,4.4,-0.6c1,-0.1,2,-0.3,3.1,-0.3c0.9,0.1,2,-0.1,3.2,-0.1c1.2,0,2.6,-0.2,3.9,0c3,-0.1,6.1,-0.3,9.1,0.1c2.9,0.2,6,0.3,8.9,0.4c1,0.1,2,0.4,3,0.5c0.9,0.2,2,-0.3,3.1,-0.1Zm-349.9,-1c-0.7,1.9,-1.5,3.5,-2.1,5.4c-1.1,2.3,-2.3,4.7,-3.2,7.2c-1.1,2.8,-2.3,5.4,-3.6,8c-0.6,1.1,-1.1,2.3,-1.9,3.3c-0.3,0.1,-0.3,0.4,-0.4,0.5c-0.3,0.6,-0.2,1.3,0.1,1.7c1,0.9,2,1.3,3.4,1.2c3.3,-0.5,6.6,-0.7,10.1,-0.8c2.5,0,5.2,0.2,7.8,0.5c3.8,0.5,7.5,0.9,11.4,0.7c2.1,0,4.2,0.1,6.3,0.2c2.6,0.4,5.1,0.3,7.8,0c3.3,-0.2,6.8,-0.4,10.1,0c2.1,0.2,4.2,0.3,6.2,-0.1c3.4,-0.7,6.7,-0.6,10.1,-0.2c1.2,0.1,2.5,0.1,3.6,0.1c0.8,-0.1,1.5,-0.8,1.6,-1.6c0.1,-0.7,0.1,-1.2,-0.2,-1.7c-0.1,-0.1,-0.1,-0.2,-0.2,-0.2c-0.9,-0.6,-1.9,-1,-2.7,-1.5C550,99.9,547,98.6,544,97.5c-0.3,0,-0.6,-0.1,-0.9,-0.3C538.5,95.1,534,93.1,529.4,91.4c-0.7,-0.3,-1.4,-0.7,-2.1,-1c-0.7,-0.4,-1.4,-0.8,-2.1,-1C521.4,88,517.9,86.2,514.5,84c-0.2,-0.1,-0.4,-0.1,-0.5,-0.3c-0.3,-0.1,-0.6,-0.4,-0.9,-0.7C513,82.6,513,82.1,513,81.7c-0.4,-3.5,-0.3,-6.9,-0.2,-10.3c0,-5.3,-0.5,-10.6,-0.6,-16c0,-1,-0.3,-1.8,-0.6,-2.6c-0.3,-0.9,-0.8,-1.3,-1.4,-1.4c-0.5,-0.1,-1.1,-0.1,-1.6,-0.1C506.3,51.2,504.2,51,502,50.7c-3,-0.3,-6.3,-0.8,-9.4,-0.2c-0.6,0.1,-1.1,0,-1.7,0c-2.1,0,-4.3,-0.2,-6.5,0.1c-0.7,0.2,-1.6,0,-2.3,-0.1c-2.7,-0.2,-5.4,0,-8.2,0c-0.2,0,-0.4,0.2,-0.6,0.3c0,0.3,-0.2,0.6,-0.2,1c0,0.4,0.2,0.8,0.3,1.2c1.3,2.4,2.6,4.8,3.9,7.2c2,3.6,4.4,7,6.7,10.4c1.6,2.5,3.2,5.1,4.6,8.1Zm351.3,7.8c-0.8,0.9,-1.9,1.3,-3.1,1.7c-3.4,1.2,-6.7,2.2,-9.7,4.2c-0.5,0.6,-1.4,0.7,-2.1,1c-1.9,0.4,-3.7,1.2,-5.3,2.4c-1.6,0.8,-3.2,1.8,-4.7,2.5c-2.9,1.3,-5.8,2.6,-8.7,3.9c-1.7,0.9,-3.2,1.8,-4.7,2.6c-0.4,0.2,-0.7,0.3,-0.8,0.6c-0.4,0.4,-0.6,1,-0.5,1.7c0,0.4,0.7,0.9,1.1,0.9c0.4,0,0.7,0,1,0c3.7,-0.2,7.3,-0.4,11.1,-0.7c3.3,-0.5,6.8,-0.4,10.1,-0.6c2.5,-0.1,5,0,7.5,0c2.1,-0.1,4.2,-0.4,6.2,-0.6c2.7,-0.1,5.5,-0.3,8.2,-0.1c3.2,0.4,6.6,0.4,9.8,0.4c1.9,0,3.9,0.1,5.8,0.3c1.8,0.1,3.5,0.2,5.3,0.2c4.3,-0.2,8.8,0.1,12.9,1.2c0.6,0.1,1.2,-0.2,1.6,-0.8c0.5,-0.5,0.5,-1.4,0.2,-2.2c0,-0.3,-0.1,-0.4,-0.3,-0.7c-1.1,-1.8,-2,-3.8,-2.7,-5.9c-1.5,-3.7,-3.1,-7.3,-4.5,-11c-1.1,-2.7,-1.9,-5.3,-3.2,-7.8c-0.2,-0.1,-0.2,-0.3,-0.2,-0.4c0.3,-0.8,0.4,-1.8,0.7,-2.6c1,-3.4,2.2,-6.8,4.3,-9.6c0.4,-0.7,0.8,-1.4,1.2,-2.1c1,-2.5,2.7,-4.6,4.3,-6.6c0.5,-0.7,1.1,-1.4,1.6,-2.2c0.4,-0.5,0.4,-1.2,0.1,-1.7c-0.1,-0.3,-0.4,-0.4,-0.5,-0.7c-0.9,-0.1,-1.7,-0.1,-2.4,-0.2c-0.8,-0.1,-1.7,-0.4,-2.5,-0.7c-0.8,-0.1,-1.7,-0.4,-2.7,-0.5c-3.3,-0.2,-6.6,-0.7,-10,-1.1C864.2,51.2,864,51.2,864,51.2c-2.2,-0.1,-4.4,-0.2,-6.5,-0.6c-3.1,-0.5,-6.1,-0.1,-9.2,-0.1c-0.7,0,-1.5,0.7,-1.5,1.6c-0.1,0.4,-0.1,0.8,-0.1,1.4c0,1.2,0.1,2.6,-0.2,3.8c-0.4,2.3,-0.6,4.5,-0.4,6.7c0,0.4,0,1,0,1.4c-0.2,4.6,-0.4,9.2,-0.8,13.8c0.1,1.4,0.1,2.9,-0.3,4.3c-1.1,0.7,-2.2,1.6,-3.3,2.3c-0.5,0.3,-1.6,0.6,-1.8,0.7Z" class="g10_2" />


 <path d="M54.4,218.3c0,0,-4.7,0,-4.7,4l0,20.6c0,0,0,3.9,4.7,3.9l110.3,0c0,0,4.7,0,4.7,-3.9l0,-20.6c0,0,0,-4,-4.7,-4Z" class="btn_bg" />
<path d="M54.4,218.3c0,0,-4.7,0,-4.7,4l0,20.6c0,0,0,3.9,4.7,3.9l110.3,0c0,0,4.7,0,4.7,-3.9l0,-20.6c0,0,0,-4,-4.7,-4l-110.3,0Z" class="btn_bortercolor" />
<path d="M56.2,220.6L55.6,216m-1.2,5l-2.3,-4.1m1.3,4.8L49,219m3.8,3.8l-5.4,-0.7m5.2,2.7l-5.4,0m5.4,2.3l-5.4,0m5.4,2.3l-5.4,0m5.4,2.3l-5.4,0m5.4,2.3l-5.4,0m5.4,2.3l-5.4,0m5.4,2.3l-5.4,0m5.4,2.3l-5.4,0m5.6,1.5L47.7,244m6,-0.4l-4.1,3.1m5.3,-2.4l-2.1,4.3m3.8,-4.1l0,4.6m2.7,-4.6l0,4.6" class="btn_border" />
<path d="M62,244.5l0,4.6m2.8,-4.6l0,4.6m2.7,-4.6l0,4.6m2.7,-4.6l0,4.6" class="btn_border" />
<path d="M73,244.5l0,4.6m2.7,-4.6l0,4.6m2.7,-4.6l0,4.6m2.8,-4.6l0,4.6m2.7,-4.6l0,4.6m2.7,-4.6l0,4.6m2.8,-4.6l0,4.6m2.7,-4.6l0,4.6m2.7,-4.6l0,4.6m2.8,-4.6l0,4.6m2.7,-4.6l0,4.6m2.7,-4.6l0,4.6m2.8,-4.6l0,4.6m2.7,-4.6l0,4.6m2.7,-4.6l0,4.6m2.8,-4.6l0,4.6m2.7,-4.6l0,4.6m2.7,-4.6l0,4.6m2.8,-4.6l0,4.6m2.7,-4.6l0,4.6m2.7,-4.6l0,4.6m2.8,-4.6l0,4.6m2.7,-4.6l0,4.6m2.7,-4.6l0,4.6m2.7,-4.6l0,4.6m2.8,-4.6l0,4.6m2.7,-4.6l0,4.6m2.7,-4.6l0,4.6m2.8,-4.6l0,4.6m2.7,-4.6l0,4.6m2.7,-4.6l0,4.6m2.8,-4.6l0,4.6m2.7,-4.6l0,4.6m2.6,-4.6l0.3,4.6m1.4,-4.8l2.3,4.1m-1,-4.9l4,3.1m-3.3,-4.2l5.3,1.3m-5.1,-2.9l5.4,0m-5.4,-2.3l5.4,0m-5.4,-2.3l5.4,0m-5.4,-2.3l5.4,0m-5.4,-2.3l5.4,0m-5.4,-2.4l5.4,0m-5.4,-2.3l5.4,0m-5.4,-2.3l5.4,0" class="btn_border" />
<path d="M166.8,223l5.2,-1.3m-6,-0.1l4.4,-2.7m-5.3,2l2.1,-4.2m-3.8,3.9l0.2,-4.6m-2.8,4.6l0,-4.6m-2.8,4.6l0,-4.6m-2.7,4.6l0,-4.6m-2.7,4.6l0,-4.6m-2.8,4.6l0,-4.6m-2.7,4.6l0,-4.6m-2.7,4.6l0,-4.6m-2.8,4.6l0,-4.6m-2.7,4.6l0,-4.6m-2.7,4.6l0,-4.6m-2.8,4.6l0,-4.6m-2.7,4.6l0,-4.6m-2.7,4.6l0,-4.6m-2.8,4.6l0,-4.6m-2.7,4.6l0,-4.6m-2.7,4.6l0,-4.6m-2.8,4.6l0,-4.6m-2.7,4.6l0,-4.6m-2.7,4.6l0,-4.6m-2.8,4.6l0,-4.6m-2.7,4.6l0,-4.6m-2.7,4.6l0,-4.6m-2.8,4.6l0,-4.6m-2.7,4.6l0,-4.6m-2.7,4.6l0,-4.6m-2.8,4.6l0,-4.6m-2.7,4.6l0,-4.6" class="btn_border" />
<path d="M87,220.6L87,216m-2.8,4.6l0,-4.6m-2.7,4.6l0,-4.6m-2.7,4.6l0,-4.6m-2.7,4.6l0,-4.6m-2.8,4.6l0,-4.6m-2.7,4.6l0,-4.6m-2.7,4.6l0,-4.6m-2.8,4.6l0,-4.6m-2.7,4.6l0,-4.6m-2.7,4.6l0,-4.6m-2.8,4.6l0,-4.6" class="btn_border" />

<image x="406" y="245" width="242" height="310" xlink:href="https://majemastoragelive.blob.core.windows.net/learn-english-test/ebook/Grade3/Goodtoknow/Goodtoknow/img/2.png" />
<image x="708" y="245" width="243" height="310" xlink:href="https://majemastoragelive.blob.core.windows.net/learn-english-test/ebook/Grade3/Goodtoknow/Goodtoknow/img/3.png" />

<image x="68" y="856" width="77" height="71" xlink:href="https://majemastoragelive.blob.core.windows.net/learn-english-test/ebook/Grade3/Goodtoknow/page1/img/19.png" />
<image x="65" y="727" width="85" height="85" xlink:href="https://majemastoragelive.blob.core.windows.net/learn-english-test/ebook/Grade3/Goodtoknow/page1/img/20.png" />
</svg>