<?xml version="1.0" encoding="UTF-8" standalone="no"?>
<!DOCTYPE svg PUBLIC "-//W3C//DTD SVG 1.1//EN"
"http://www.w3.org/Graphics/SVG/1.1/DTD/svg11.dtd">
<svg version="1.1" xmlns="http://www.w3.org/2000/svg" xmlns:xlink="http://www.w3.org/1999/xlink">
<defs>
<clipPath id="c0_4"><path d="M0.5,1190.5L0.5,0.5l1160,0l0,1190Z" /></clipPath>
<clipPath id="c1_4"><path d="M799.5,736.5l0,-242l212,0l0,242Z" /></clipPath>
<clipPath id="c2_4"><path d="M258.5,391.5l0,-243l211,0l0,243Z" /></clipPath>
<clipPath id="c3_4"><path d="M468.5,391.5l0,-243l212,0l0,243Z" /></clipPath>
<clipPath id="c4_4"><path d="M694.5,391.5l0,-243l211,0l0,243Z" /></clipPath>
<clipPath id="c5_4"><path d="M905.5,391.5l0,-243l211,0l0,243Z" /></clipPath>
<clipPath id="c6_4"><path d="M258.5,736.5l0,-242l211,0l0,242Z" /></clipPath>
<clipPath id="c7_4"><path d="M468.5,736.5l0,-242l212,0l0,242Z" /></clipPath>
<style type="text/css"><![CDATA[
	.btn_bg{
fill: #00A1BE;
}

	.btn_bortercolor{
fill: none;
stroke: #6DC6DA;
stroke-width: 5;
stroke-linecap: butt;
stroke-linejoin: miter;
stroke-miterlimit: 4;
}
	.btn_border{
fill: none;
stroke: #FFFFFF;
stroke-width: 1;
stroke-linecap: butt;
stroke-linejoin: miter;
stroke-miterlimit: 4;
}
.g10_4{
fill: none;
stroke: #FFFFFF;
stroke-width: 6;
stroke-linecap: round;
stroke-linejoin: round;
stroke-miterlimit: 4;
}
.g14_4{
fill: none;
stroke: #62BDCE;
stroke-width: 5;
stroke-linecap: butt;
stroke-linejoin: miter;
stroke-miterlimit: 4;
}
.g1_4{
fill: #FFFDEF;
}
.g4_4{
fill: #FFFFFF;
}
.g9_4{
fill: none;
stroke: #FFFFFF;
stroke-width: 6;
stroke-linecap: round;
stroke-linejoin: round;
stroke-miterlimit: 4;
stroke-dasharray: 1,11;
}
.g3_4{
fill: #93D5F5;
}
.g15_4{
fill: none;
stroke: #FFFFFF;
stroke-width: 1;
stroke-linecap: butt;
stroke-linejoin: miter;
stroke-miterlimit: 4;
}
.g2_4{
fill: #74CAF2;
}
.g7_4{
fill: none;
stroke: #000000;
stroke-width: 0.5;
stroke-linecap: butt;
stroke-linejoin: miter;
stroke-miterlimit: 4;
}
.g11_4{
fill: none;
stroke: #C8C8C7;
stroke-width: 1;
stroke-linecap: butt;
stroke-linejoin: miter;
stroke-miterlimit: 4;
}
.g8_4{
fill: none;
stroke: #93D5F5;
stroke-width: 10;
stroke-linecap: butt;
stroke-linejoin: miter;
stroke-miterlimit: 4;
}
.g13_4{
fill: #0099B4;
}
.g5_4{
fill: none;
stroke: #FFFFFF;
stroke-width: 1;
stroke-linecap: butt;
stroke-linejoin: miter;
}
.g6_4{
fill: none;
stroke: #000000;
stroke-width: 1;
stroke-linecap: butt;
stroke-linejoin: miter;
}
.g12_4{
fill: #00BEFF;
}
]]></style>
</defs>
<g id="button" transform="translate(47,298.5)">
<path d="M7.4,2.3c0,0,-4.7,0,-4.7,4l0,20.6c0,0,0,3.9,4.7,3.9l110.3,0c0,0,4.7,0,4.7,-3.9l0,-20.6c0,0,0,-4,-4.7,-4Z" class="btn_bg" />
<path d="M7.4,2.3c0,0,-4.7,0,-4.7,4l0,20.6c0,0,0,3.9,4.7,3.9l110.3,0c0,0,4.7,0,4.7,-3.9l0,-20.6c0,0,0,-4,-4.7,-4l-110.3,0Z" class="btn_bortercolor" />
<path d="M9.2,4.6L8.6,0m-1.2,5l-2.3,-4.1m1.3,4.8L2,3m3.8,3.8l-5.4,-0.7m5.2,2.7l-5.4,0m5.4,2.3l-5.4,0m5.4,2.3l-5.4,0m5.4,2.3l-5.4,0m5.4,2.3l-5.4,0m5.4,2.3l-5.4,0m5.4,2.3l-5.4,0m5.4,2.3l-5.4,0m5.6,1.5L0.7,28m6,-0.4l-4.1,3.1m5.3,-2.4l-2.1,4.3m3.8,-4.1l0,4.6m2.7,-4.6l0,4.6" class="btn_border" />
<path d="M15,28.5l0,4.6m2.8,-4.6l0,4.6m2.7,-4.6l0,4.6m2.7,-4.6l0,4.6" class="btn_border" />
<path d="M26,28.5l0,4.6m2.7,-4.6l0,4.6m2.7,-4.6l0,4.6m2.8,-4.6l0,4.6m2.7,-4.6l0,4.6m2.7,-4.6l0,4.6m2.8,-4.6l0,4.6m2.7,-4.6l0,4.6m2.7,-4.6l0,4.6m2.8,-4.6l0,4.6m2.7,-4.6l0,4.6m2.7,-4.6l0,4.6m2.8,-4.6l0,4.6m2.7,-4.6l0,4.6m2.7,-4.6l0,4.6m2.8,-4.6l0,4.6m2.7,-4.6l0,4.6m2.7,-4.6l0,4.6m2.8,-4.6l0,4.6m2.7,-4.6l0,4.6m2.7,-4.6l0,4.6m2.8,-4.6l0,4.6m2.7,-4.6l0,4.6m2.7,-4.6l0,4.6m2.7,-4.6l0,4.6m2.8,-4.6l0,4.6m2.7,-4.6l0,4.6m2.7,-4.6l0,4.6m2.8,-4.6l0,4.6m2.7,-4.6l0,4.6m2.7,-4.6l0,4.6m2.8,-4.6l0,4.6m2.7,-4.6l0,4.6m2.6,-4.6l0.3,4.6m1.4,-4.8l2.3,4.1m-1,-4.9l4,3.1m-3.3,-4.2l5.3,1.3m-5.1,-2.9l5.4,0m-5.4,-2.3l5.4,0m-5.4,-2.3l5.4,0m-5.4,-2.3l5.4,0m-5.4,-2.3l5.4,0m-5.4,-2.4l5.4,0m-5.4,-2.3l5.4,0m-5.4,-2.3l5.4,0" class="btn_border" />
<path d="M119.8,7l5.2,-1.3m-6,-0.1l4.4,-2.7m-5.3,2l2.1,-4.2m-3.8,3.9l0.2,-4.6m-2.8,4.6l0,-4.6m-2.8,4.6l0,-4.6m-2.7,4.6l0,-4.6m-2.7,4.6l0,-4.6m-2.8,4.6l0,-4.6m-2.7,4.6l0,-4.6m-2.7,4.6l0,-4.6m-2.8,4.6l0,-4.6m-2.7,4.6l0,-4.6m-2.7,4.6l0,-4.6m-2.8,4.6l0,-4.6m-2.7,4.6l0,-4.6m-2.7,4.6l0,-4.6m-2.8,4.6l0,-4.6m-2.7,4.6l0,-4.6m-2.7,4.6l0,-4.6m-2.8,4.6l0,-4.6m-2.7,4.6l0,-4.6m-2.7,4.6l0,-4.6m-2.8,4.6l0,-4.6m-2.7,4.6l0,-4.6m-2.7,4.6l0,-4.6m-2.8,4.6l0,-4.6m-2.7,4.6l0,-4.6m-2.7,4.6l0,-4.6m-2.8,4.6l0,-4.6m-2.7,4.6l0,-4.6" class="btn_border" />
<path d="M40,4.6L40,0m-2.8,4.6l0,-4.6m-2.7,4.6l0,-4.6m-2.7,4.6l0,-4.6m-2.7,4.6l0,-4.6m-2.8,4.6l0,-4.6m-2.7,4.6l0,-4.6m-2.7,4.6l0,-4.6m-2.8,4.6l0,-4.6m-2.7,4.6l0,-4.6m-2.7,4.6l0,-4.6m-2.8,4.6l0,-4.6" class="btn_border" />
</g>
<path d="M189,1190l971,0L1160,0L189,0l0,1190Z" class="g1_4" />
<g clip-path="url(#c0_4)">
<path d="M263.1,43.1l-1.6,1.5c0.3,0.4,0.6,0.7,0.8,0.8l1.6,-1.5l1.5,1.5c0.3,-0.1,0.5,-0.4,0.8,-0.8l-1.5,-1.5l1.5,-1.4c-0.3,-0.3,-0.5,-0.7,-0.8,-0.8l-1.5,1.5l-1.6,-1.5c-0.2,0.1,-0.5,0.5,-0.8,0.8Zm-14.8,0l-1.5,1.5c0.2,0.4,0.5,0.7,0.8,0.8l1.5,-1.5l1.5,1.5c0.4,-0.1,0.6,-0.4,0.8,-0.8l-1.5,-1.5l1.5,-1.4C251.2,41.4,251,41,250.6,40.9l-1.5,1.5l-1.5,-1.5c-0.3,0.1,-0.6,0.5,-0.8,0.8Zm-44.3,0l-1.5,1.5c0.2,0.4,0.6,0.7,0.8,0.8l1.5,-1.5l1.6,1.5c0.3,-0.1,0.5,-0.4,0.8,-0.8l-1.6,-1.5l1.6,-1.4c-0.3,-0.3,-0.5,-0.7,-0.8,-0.8l-1.6,1.5l-1.5,-1.5c-0.2,0.1,-0.6,0.5,-0.8,0.8Zm29.5,0L232,44.6c0.3,0.4,0.6,0.7,0.8,0.8l1.5,-1.5l1.6,1.5c0.3,-0.1,0.5,-0.4,0.8,-0.8l-1.6,-1.5l1.6,-1.4c-0.3,-0.3,-0.5,-0.7,-0.8,-0.8l-1.6,1.5l-1.5,-1.5c-0.2,0.1,-0.5,0.5,-0.8,0.8Zm-14.7,0l-1.5,1.5c0.2,0.4,0.5,0.7,0.8,0.8l1.5,-1.5l1.5,1.5c0.3,-0.1,0.6,-0.4,0.8,-0.8l-1.5,-1.5l1.5,-1.4c-0.2,-0.3,-0.5,-0.7,-0.8,-0.8l-1.5,1.5l-1.5,-1.5c-0.3,0.1,-0.6,0.5,-0.8,0.8Zm119.7,0l-1.6,1.5c0.3,0.4,0.6,0.7,0.8,0.8l1.6,-1.5l1.5,1.5c0.3,-0.1,0.5,-0.4,0.8,-0.8l-1.5,-1.5l1.5,-1.4c-0.3,-0.3,-0.5,-0.7,-0.8,-0.8l-1.5,1.5l-1.6,-1.5c-0.2,0.1,-0.5,0.5,-0.8,0.8Zm-14.8,0l-1.5,1.5c0.2,0.4,0.5,0.7,0.8,0.8l1.5,-1.5l1.5,1.5c0.3,-0.1,0.6,-0.4,0.8,-0.8l-1.5,-1.5l1.5,-1.4C326.6,41.4,326.3,41,326,40.9l-1.5,1.5L323,40.9c-0.3,0.1,-0.6,0.5,-0.8,0.8Zm-44.3,0l-1.5,1.5c0.2,0.4,0.6,0.7,0.8,0.8l1.5,-1.5l1.5,1.5c0.4,-0.1,0.6,-0.4,0.8,-0.8L281,43.1l1.5,-1.4c-0.2,-0.3,-0.4,-0.7,-0.8,-0.8l-1.5,1.5l-1.5,-1.5c-0.2,0.1,-0.6,0.5,-0.8,0.8Zm29.5,0l-1.5,1.5c0.3,0.4,0.6,0.7,0.8,0.8l1.5,-1.5l1.6,1.5c0.3,-0.1,0.5,-0.4,0.8,-0.8l-1.6,-1.5l1.6,-1.4c-0.3,-0.3,-0.5,-0.7,-0.8,-0.8l-1.6,1.5l-1.5,-1.5c-0.2,0.1,-0.5,0.5,-0.8,0.8Zm-14.7,0l-1.5,1.5c0.2,0.4,0.5,0.7,0.8,0.8L295,43.9l1.5,1.5c0.3,-0.1,0.6,-0.4,0.8,-0.8l-1.5,-1.5l1.5,-1.4c-0.2,-0.3,-0.5,-0.7,-0.8,-0.8L295,42.4l-1.5,-1.5c-0.3,0.1,-0.6,0.5,-0.8,0.8Zm119.6,0l-1.5,1.5c0.3,0.4,0.6,0.7,0.8,0.8l1.6,-1.5l1.5,1.5c0.3,-0.1,0.5,-0.4,0.8,-0.8l-1.5,-1.5L417,41.7c-0.3,-0.3,-0.5,-0.7,-0.8,-0.8l-1.5,1.5l-1.6,-1.5c-0.2,0.1,-0.5,0.5,-0.8,0.8Zm-14.7,0l-1.5,1.5c0.2,0.4,0.5,0.7,0.8,0.8l1.5,-1.5l1.5,1.5c0.3,-0.1,0.6,-0.4,0.8,-0.8l-1.5,-1.5l1.5,-1.4C402,41.4,401.7,41,401.4,40.9l-1.5,1.5l-1.5,-1.5c-0.3,0.1,-0.6,0.5,-0.8,0.8Zm-44.3,0l-1.5,1.5c0.2,0.4,0.6,0.7,0.8,0.8l1.5,-1.5l1.5,1.5c0.4,-0.1,0.6,-0.4,0.8,-0.8l-1.5,-1.5l1.5,-1.4c-0.2,-0.3,-0.4,-0.7,-0.8,-0.8l-1.5,1.5l-1.5,-1.5c-0.2,0.1,-0.6,0.5,-0.8,0.8Zm29.5,0l-1.5,1.5c0.2,0.4,0.6,0.7,0.8,0.8l1.5,-1.5l1.6,1.5c0.3,-0.1,0.5,-0.4,0.8,-0.8l-1.6,-1.5l1.6,-1.4C387.2,41.4,387,41,386.7,40.9l-1.6,1.5l-1.5,-1.5c-0.2,0.1,-0.6,0.5,-0.8,0.8Zm-14.7,0l-1.5,1.5c0.2,0.4,0.5,0.7,0.8,0.8l1.5,-1.5l1.5,1.5c0.3,-0.1,0.6,-0.4,0.8,-0.8l-1.5,-1.5l1.5,-1.4c-0.2,-0.3,-0.5,-0.7,-0.8,-0.8l-1.5,1.5l-1.5,-1.5c-0.3,0.1,-0.6,0.5,-0.8,0.8Zm119.6,0l-1.5,1.5c0.3,0.4,0.6,0.7,0.8,0.8L490,43.9l1.6,1.5c0.3,-0.1,0.5,-0.4,0.8,-0.8l-1.6,-1.5l1.6,-1.4c-0.3,-0.3,-0.5,-0.7,-0.8,-0.8L490,42.4l-1.5,-1.5c-0.2,0.1,-0.5,0.5,-0.8,0.8Zm-14.7,0L473,44.6c0.2,0.4,0.5,0.7,0.8,0.8l1.5,-1.5l1.5,1.5c0.3,-0.1,0.6,-0.4,0.8,-0.8l-1.5,-1.5l1.5,-1.4c-0.2,-0.3,-0.5,-0.7,-0.8,-0.8l-1.5,1.5l-1.5,-1.5c-0.3,0.1,-0.6,0.5,-0.8,0.8Zm-44.3,0l-1.5,1.5c0.2,0.4,0.5,0.7,0.8,0.8L431,43.9l1.5,1.5c0.4,-0.1,0.6,-0.4,0.8,-0.8l-1.5,-1.5l1.5,-1.4c-0.2,-0.3,-0.4,-0.7,-0.8,-0.8L431,42.4l-1.5,-1.5c-0.3,0.1,-0.6,0.5,-0.8,0.8Zm29.5,0l-1.5,1.5c0.2,0.4,0.6,0.7,0.8,0.8l1.5,-1.5l1.6,1.5c0.3,-0.1,0.5,-0.4,0.8,-0.8l-1.6,-1.5l1.6,-1.4c-0.3,-0.3,-0.5,-0.7,-0.8,-0.8l-1.6,1.5L459,40.9c-0.2,0.1,-0.6,0.5,-0.8,0.8Zm-14.7,0l-1.6,1.5c0.3,0.4,0.6,0.7,0.8,0.8l1.6,-1.5l1.5,1.5c0.3,-0.1,0.6,-0.4,0.8,-0.8l-1.5,-1.5l1.5,-1.4c-0.2,-0.3,-0.5,-0.7,-0.8,-0.8l-1.5,1.5l-1.6,-1.5c-0.2,0.1,-0.5,0.5,-0.8,0.8Zm119.6,0l-1.5,1.5c0.3,0.4,0.6,0.7,0.8,0.8l1.5,-1.5l1.6,1.5c0.3,-0.1,0.5,-0.4,0.8,-0.8l-1.6,-1.5l1.6,-1.4C567.5,41.4,567.3,41,567,40.9l-1.6,1.5l-1.5,-1.5c-0.2,0.1,-0.5,0.5,-0.8,0.8Zm-14.7,0l-1.5,1.5c0.2,0.4,0.5,0.7,0.8,0.8l1.5,-1.5l1.5,1.5c0.3,-0.1,0.6,-0.4,0.8,-0.8l-1.5,-1.5L553,41.7c-0.2,-0.3,-0.5,-0.7,-0.8,-0.8l-1.5,1.5l-1.5,-1.5c-0.3,0.1,-0.6,0.5,-0.8,0.8Zm-44.3,0l-1.5,1.5c0.2,0.4,0.5,0.7,0.8,0.8l1.5,-1.5l1.5,1.5c0.3,-0.1,0.6,-0.4,0.8,-0.8l-1.5,-1.5l1.5,-1.4c-0.2,-0.3,-0.5,-0.7,-0.8,-0.8l-1.5,1.5l-1.5,-1.5c-0.3,0.1,-0.6,0.5,-0.8,0.8Zm29.5,0l-1.5,1.5c0.2,0.4,0.6,0.7,0.8,0.8l1.5,-1.5l1.5,1.5c0.4,-0.1,0.6,-0.4,0.8,-0.8l-1.5,-1.5l1.5,-1.4C538,41.4,537.8,41,537.4,40.9l-1.5,1.5l-1.5,-1.5c-0.2,0.1,-0.6,0.5,-0.8,0.8Zm-14.7,0l-1.6,1.5c0.3,0.4,0.6,0.7,0.8,0.8l1.6,-1.5l1.5,1.5c0.3,-0.1,0.5,-0.4,0.8,-0.8L522,43.1l1.5,-1.4C523.2,41.4,523,41,522.7,40.9l-1.5,1.5l-1.6,-1.5c-0.2,0.1,-0.5,0.5,-0.8,0.8Zm119.6,0l-1.5,1.5c0.2,0.4,0.6,0.7,0.8,0.8l1.5,-1.5l1.6,1.5c0.3,-0.1,0.5,-0.4,0.8,-0.8l-1.6,-1.5l1.6,-1.4c-0.3,-0.3,-0.5,-0.7,-0.8,-0.8l-1.6,1.5l-1.5,-1.5c-0.2,0.1,-0.6,0.5,-0.8,0.8Zm-14.7,0l-1.6,1.5c0.3,0.4,0.6,0.7,0.9,0.8l1.5,-1.5l1.5,1.5c0.3,-0.1,0.6,-0.4,0.8,-0.8l-1.5,-1.5l1.5,-1.4c-0.2,-0.3,-0.5,-0.7,-0.8,-0.8l-1.5,1.5l-1.5,-1.5c-0.3,0.1,-0.6,0.5,-0.9,0.8Zm-44.3,0l-1.5,1.5c0.2,0.4,0.5,0.7,0.8,0.8l1.5,-1.5l1.5,1.5c0.3,-0.1,0.6,-0.4,0.8,-0.8l-1.5,-1.5l1.5,-1.4c-0.2,-0.3,-0.5,-0.7,-0.8,-0.8l-1.5,1.5l-1.5,-1.5c-0.3,0.1,-0.6,0.5,-0.8,0.8Zm29.5,0L609,44.6c0.2,0.4,0.6,0.7,0.8,0.8l1.5,-1.5l1.5,1.5c0.4,-0.1,0.6,-0.4,0.8,-0.8l-1.5,-1.5l1.5,-1.4c-0.2,-0.3,-0.4,-0.7,-0.8,-0.8l-1.5,1.5l-1.5,-1.5c-0.2,0.1,-0.6,0.5,-0.8,0.8Zm-14.7,0l-1.6,1.5c0.3,0.4,0.6,0.7,0.8,0.8l1.6,-1.5l1.5,1.5c0.3,-0.1,0.5,-0.4,0.8,-0.8l-1.5,-1.5l1.5,-1.4c-0.3,-0.3,-0.5,-0.7,-0.8,-0.8l-1.5,1.5L595,40.9c-0.2,0.1,-0.5,0.5,-0.8,0.8Zm119.6,0l-1.5,1.5c0.2,0.4,0.6,0.7,0.8,0.8l1.5,-1.5l1.5,1.5c0.4,-0.1,0.6,-0.4,0.9,-0.8L717,43.1l1.6,-1.4c-0.3,-0.3,-0.5,-0.7,-0.9,-0.8l-1.5,1.5l-1.5,-1.5c-0.2,0.1,-0.6,0.5,-0.8,0.8Zm-14.7,0l-1.6,1.5c0.3,0.4,0.6,0.7,0.8,0.8l1.6,-1.5l1.5,1.5c0.3,-0.1,0.6,-0.4,0.8,-0.8l-1.5,-1.5l1.5,-1.4C703.6,41.4,703.3,41,703,40.9l-1.5,1.5l-1.6,-1.5c-0.2,0.1,-0.5,0.5,-0.8,0.8Zm-44.3,0l-1.5,1.5c0.2,0.4,0.5,0.7,0.8,0.8l1.5,-1.5l1.5,1.5c0.3,-0.1,0.6,-0.4,0.8,-0.8L658,43.1l1.5,-1.4C659.3,41.4,659,41,658.7,40.9l-1.5,1.5l-1.5,-1.5c-0.3,0.1,-0.6,0.5,-0.8,0.8Zm29.5,0l-1.5,1.5c0.2,0.4,0.5,0.7,0.8,0.8l1.5,-1.5l1.5,1.5c0.4,-0.1,0.6,-0.4,0.8,-0.8l-1.5,-1.5L689,41.7c-0.2,-0.3,-0.4,-0.7,-0.8,-0.8l-1.5,1.5l-1.5,-1.5c-0.3,0.1,-0.6,0.5,-0.8,0.8Zm-14.8,0l-1.5,1.5c0.3,0.4,0.6,0.7,0.8,0.8L672,43.9l1.5,1.5c0.3,-0.1,0.5,-0.4,0.8,-0.8l-1.5,-1.5l1.5,-1.4C674,41.4,673.8,41,673.5,40.9L672,42.4l-1.6,-1.5c-0.2,0.1,-0.5,0.5,-0.8,0.8Zm119.7,0l-1.5,1.5c0.2,0.4,0.6,0.7,0.8,0.8l1.5,-1.5l1.5,1.5c0.4,-0.1,0.6,-0.4,0.8,-0.8l-1.5,-1.5l1.5,-1.4c-0.2,-0.3,-0.4,-0.7,-0.8,-0.8l-1.5,1.5l-1.5,-1.5c-0.2,0.1,-0.6,0.5,-0.8,0.8Zm-14.7,0l-1.6,1.5c0.3,0.4,0.6,0.7,0.8,0.8l1.6,-1.5l1.5,1.5c0.3,-0.1,0.5,-0.4,0.8,-0.8l-1.5,-1.5l1.5,-1.4c-0.3,-0.3,-0.5,-0.7,-0.8,-0.8l-1.5,1.5l-1.6,-1.5c-0.2,0.1,-0.5,0.5,-0.8,0.8Zm-44.3,0l-1.5,1.5c0.2,0.4,0.5,0.7,0.8,0.8l1.5,-1.5l1.5,1.5c0.3,-0.1,0.6,-0.4,0.8,-0.8l-1.5,-1.5l1.5,-1.4c-0.2,-0.3,-0.5,-0.7,-0.8,-0.8l-1.5,1.5l-1.5,-1.5c-0.3,0.1,-0.6,0.5,-0.8,0.8Zm29.5,0l-1.5,1.5c0.2,0.4,0.5,0.7,0.8,0.8l1.5,-1.5l1.5,1.5c0.3,-0.1,0.6,-0.4,0.8,-0.8l-1.5,-1.5l1.5,-1.4c-0.2,-0.3,-0.5,-0.7,-0.8,-0.8l-1.5,1.5l-1.5,-1.5c-0.3,0.1,-0.6,0.5,-0.8,0.8Zm-14.8,0L745,44.6c0.3,0.4,0.6,0.7,0.8,0.8l1.5,-1.5l1.6,1.5c0.3,-0.1,0.5,-0.4,0.8,-0.8l-1.6,-1.5l1.6,-1.4c-0.3,-0.3,-0.5,-0.7,-0.8,-0.8l-1.6,1.5l-1.5,-1.5c-0.2,0.1,-0.5,0.5,-0.8,0.8Zm119.7,0l-1.5,1.5c0.2,0.4,0.5,0.7,0.8,0.8L867,43.9l1.5,1.5c0.4,-0.1,0.6,-0.4,0.8,-0.8l-1.5,-1.5l1.5,-1.4c-0.2,-0.3,-0.4,-0.7,-0.8,-0.8L867,42.4l-1.5,-1.5c-0.3,0.1,-0.6,0.5,-0.8,0.8Zm-14.7,0l-1.6,1.5c0.3,0.4,0.6,0.7,0.8,0.8l1.6,-1.5l1.5,1.5c0.3,-0.1,0.5,-0.4,0.8,-0.8l-1.5,-1.5l1.5,-1.4c-0.3,-0.3,-0.5,-0.7,-0.8,-0.8l-1.5,1.5l-1.6,-1.5c-0.2,0.1,-0.5,0.5,-0.8,0.8Zm-44.3,0l-1.5,1.5c0.2,0.4,0.5,0.7,0.8,0.8L808,43.9l1.5,1.5c0.3,-0.1,0.6,-0.4,0.8,-0.8l-1.5,-1.5l1.5,-1.4c-0.2,-0.3,-0.5,-0.7,-0.8,-0.8L808,42.4l-1.5,-1.5c-0.3,0.1,-0.6,0.5,-0.8,0.8Zm29.5,0l-1.5,1.5c0.2,0.4,0.5,0.7,0.8,0.8l1.5,-1.5l1.5,1.5c0.3,-0.1,0.6,-0.4,0.8,-0.8l-1.5,-1.5l1.5,-1.4C839.6,41.4,839.3,41,839,40.9l-1.5,1.5L836,40.9c-0.3,0.1,-0.6,0.5,-0.8,0.8Zm-14.8,0l-1.5,1.5c0.3,0.4,0.6,0.7,0.8,0.8l1.5,-1.5l1.6,1.5c0.3,-0.1,0.5,-0.4,0.8,-0.8l-1.6,-1.5l1.6,-1.4c-0.3,-0.3,-0.5,-0.7,-0.8,-0.8l-1.6,1.5l-1.5,-1.5c-0.2,0.1,-0.5,0.5,-0.8,0.8Zm119.7,0l-1.5,1.5c0.2,0.4,0.5,0.7,0.8,0.8l1.5,-1.5l1.5,1.5c0.4,-0.1,0.6,-0.4,0.8,-0.8l-1.5,-1.5l1.5,-1.4c-0.2,-0.3,-0.4,-0.7,-0.8,-0.8l-1.5,1.5l-1.5,-1.5c-0.3,0.1,-0.6,0.5,-0.8,0.8Zm-14.8,0l-1.5,1.5c0.3,0.4,0.6,0.7,0.8,0.8l1.5,-1.5l1.6,1.5c0.3,-0.1,0.5,-0.4,0.8,-0.8l-1.5,-1.5L930,41.7c-0.3,-0.3,-0.5,-0.7,-0.8,-0.8l-1.6,1.5l-1.5,-1.5c-0.2,0.1,-0.5,0.5,-0.8,0.8Zm-44.2,0L881,44.6c0.3,0.4,0.6,0.7,0.8,0.8l1.6,-1.5l1.5,1.5c0.3,-0.1,0.6,-0.4,0.8,-0.8l-1.5,-1.5l1.5,-1.4c-0.2,-0.3,-0.5,-0.7,-0.8,-0.8l-1.5,1.5l-1.6,-1.5c-0.2,0.1,-0.5,0.5,-0.8,0.8Zm29.5,0l-1.5,1.5c0.2,0.4,0.5,0.7,0.8,0.8l1.5,-1.5l1.5,1.5c0.3,-0.1,0.6,-0.4,0.8,-0.8l-1.5,-1.5l1.5,-1.4C915,41.4,914.7,41,914.4,40.9l-1.5,1.5l-1.5,-1.5c-0.3,0.1,-0.6,0.5,-0.8,0.8Zm-14.8,0l-1.5,1.5c0.2,0.4,0.6,0.7,0.8,0.8l1.5,-1.5l1.6,1.5c0.3,-0.1,0.5,-0.4,0.8,-0.8l-1.6,-1.5l1.6,-1.4C900.2,41.4,900,41,899.7,40.9l-1.6,1.5l-1.5,-1.5c-0.2,0.1,-0.6,0.5,-0.8,0.8Zm119.7,0l-1.5,1.5c0.2,0.4,0.5,0.7,0.8,0.8l1.5,-1.5l1.5,1.5c0.3,-0.1,0.6,-0.4,0.8,-0.8l-1.5,-1.5l1.5,-1.4c-0.2,-0.3,-0.5,-0.7,-0.8,-0.8l-1.5,1.5l-1.5,-1.5c-0.3,0.1,-0.6,0.5,-0.8,0.8Zm-14.8,0l-1.5,1.5c0.3,0.4,0.6,0.7,0.8,0.8l1.5,-1.5l1.6,1.5c0.3,-0.1,0.5,-0.4,0.8,-0.8l-1.6,-1.5l1.6,-1.4c-0.3,-0.3,-0.5,-0.7,-0.8,-0.8l-1.6,1.5l-1.5,-1.5c-0.2,0.1,-0.5,0.5,-0.8,0.8Zm-44.2,0l-1.6,1.5c0.3,0.4,0.6,0.7,0.8,0.8l1.6,-1.5l1.5,1.5c0.3,-0.1,0.6,-0.4,0.8,-0.8l-1.5,-1.5l1.5,-1.4c-0.2,-0.3,-0.5,-0.7,-0.8,-0.8l-1.5,1.5l-1.6,-1.5c-0.2,0.1,-0.5,0.5,-0.8,0.8Zm29.5,0L986,44.6c0.2,0.4,0.5,0.7,0.8,0.8l1.5,-1.5l1.5,1.5c0.3,-0.1,0.6,-0.4,0.8,-0.8l-1.5,-1.5l1.5,-1.4c-0.2,-0.3,-0.5,-0.7,-0.8,-0.8l-1.5,1.5l-1.5,-1.5c-0.3,0.1,-0.6,0.5,-0.8,0.8Zm-14.8,0l-1.5,1.5c0.2,0.4,0.6,0.7,0.8,0.8l1.5,-1.5l1.5,1.5c0.4,-0.1,0.6,-0.4,0.9,-0.8l-1.6,-1.5l1.6,-1.4C975.6,41.4,975.4,41,975,40.9l-1.5,1.5L972,40.9c-0.2,0.1,-0.6,0.5,-0.8,0.8Zm119.7,0l-1.5,1.5c0.2,0.4,0.5,0.7,0.8,0.8l1.5,-1.5l1.5,1.5c0.3,-0.1,0.6,-0.4,0.8,-0.8L1094,43.1l1.5,-1.4c-0.2,-0.3,-0.5,-0.7,-0.8,-0.8l-1.5,1.5l-1.5,-1.5c-0.3,0.1,-0.6,0.5,-0.8,0.8Zm-14.8,0l-1.5,1.5c0.3,0.4,0.6,0.7,0.8,0.8l1.5,-1.5l1.6,1.5c0.3,-0.1,0.5,-0.4,0.8,-0.8l-1.6,-1.5l1.6,-1.4c-0.3,-0.3,-0.5,-0.7,-0.8,-0.8l-1.6,1.5l-1.5,-1.5c-0.2,0.1,-0.5,0.5,-0.8,0.8Zm-44.2,0l-1.6,1.5c0.3,0.4,0.6,0.7,0.8,0.8l1.6,-1.5l1.5,1.5c0.3,-0.1,0.5,-0.4,0.8,-0.8L1035,43.1l1.5,-1.4c-0.3,-0.3,-0.5,-0.7,-0.8,-0.8l-1.5,1.5l-1.6,-1.5c-0.2,0.1,-0.5,0.5,-0.8,0.8Zm29.5,0l-1.5,1.5c0.2,0.4,0.5,0.7,0.8,0.8l1.5,-1.5l1.5,1.5c0.3,-0.1,0.6,-0.4,0.8,-0.8l-1.5,-1.5l1.5,-1.4c-0.2,-0.3,-0.5,-0.7,-0.8,-0.8l-1.5,1.5l-1.5,-1.5c-0.3,0.1,-0.6,0.5,-0.8,0.8Zm-14.8,0l-1.5,1.5c0.2,0.4,0.6,0.7,0.8,0.8l1.5,-1.5l1.5,1.5c0.4,-0.1,0.6,-0.4,0.8,-0.8l-1.5,-1.5l1.5,-1.4c-0.2,-0.3,-0.4,-0.7,-0.8,-0.8l-1.5,1.5l-1.5,-1.5c-0.2,0.1,-0.6,0.5,-0.8,0.8Zm119.7,0l-1.5,1.5c0.2,0.4,0.5,0.7,0.8,0.8l1.5,-1.5l1.5,1.5c0.3,-0.1,0.6,-0.4,0.8,-0.8l-1.5,-1.5l1.5,-1.4c-0.2,-0.3,-0.5,-0.7,-0.8,-0.8l-1.5,1.5l-1.5,-1.5c-0.3,0.1,-0.6,0.5,-0.8,0.8Zm-14.8,0l-1.5,1.5c0.2,0.4,0.6,0.7,0.8,0.8l1.5,-1.5l1.6,1.5c0.3,-0.1,0.5,-0.4,0.8,-0.8l-1.6,-1.5l1.6,-1.4c-0.3,-0.3,-0.5,-0.7,-0.8,-0.8l-1.6,1.5l-1.5,-1.5c-0.2,0.1,-0.6,0.5,-0.8,0.8Zm-44.2,0l-1.6,1.5c0.3,0.4,0.6,0.7,0.8,0.8l1.6,-1.5l1.5,1.5c0.3,-0.1,0.5,-0.4,0.8,-0.8l-1.5,-1.5l1.5,-1.4c-0.3,-0.3,-0.5,-0.7,-0.8,-0.8l-1.5,1.5L1108,40.9c-0.2,0.1,-0.5,0.5,-0.8,0.8Zm29.5,0l-1.6,1.5c0.3,0.4,0.6,0.7,0.8,0.8l1.6,-1.5l1.5,1.5c0.3,-0.1,0.6,-0.4,0.8,-0.8l-1.5,-1.5l1.5,-1.4c-0.2,-0.3,-0.5,-0.7,-0.8,-0.8l-1.5,1.5l-1.6,-1.5c-0.2,0.1,-0.5,0.5,-0.8,0.8Zm-14.8,0l-1.5,1.5c0.2,0.4,0.5,0.7,0.8,0.8l1.5,-1.5l1.5,1.5c0.4,-0.1,0.6,-0.4,0.8,-0.8l-1.5,-1.5l1.5,-1.4c-0.2,-0.3,-0.4,-0.7,-0.8,-0.8l-1.5,1.5l-1.5,-1.5c-0.3,0.1,-0.6,0.5,-0.8,0.8Zm119.7,0l-1.5,1.5c0.2,0.4,0.5,0.7,0.8,0.8l1.5,-1.5l1.5,1.5c0.3,-0.1,0.6,-0.4,0.8,-0.8l-1.5,-1.5l1.5,-1.4c-0.2,-0.3,-0.5,-0.7,-0.8,-0.8l-1.5,1.5l-1.5,-1.5c-0.3,0.1,-0.6,0.5,-0.8,0.8Zm-14.8,0l-1.5,1.5c0.2,0.4,0.6,0.7,0.8,0.8l1.5,-1.5l1.5,1.5c0.4,-0.1,0.6,-0.4,0.9,-0.8L1230,43.1l1.6,-1.4c-0.3,-0.3,-0.5,-0.7,-0.9,-0.8l-1.5,1.5l-1.5,-1.5c-0.2,0.1,-0.6,0.5,-0.8,0.8Zm-44.3,0l-1.5,1.5c0.3,0.4,0.6,0.7,0.8,0.8l1.5,-1.5l1.6,1.5c0.3,-0.1,0.5,-0.4,0.8,-0.8l-1.5,-1.5l1.5,-1.4c-0.3,-0.3,-0.5,-0.7,-0.8,-0.8l-1.6,1.5l-1.5,-1.5c-0.2,0.1,-0.5,0.5,-0.8,0.8Zm29.6,0l-1.6,1.5c0.3,0.4,0.6,0.7,0.8,0.8l1.6,-1.5l1.5,1.5c0.3,-0.1,0.6,-0.4,0.8,-0.8l-1.5,-1.5l1.5,-1.4c-0.2,-0.3,-0.5,-0.7,-0.8,-0.8l-1.5,1.5l-1.6,-1.5c-0.2,0.1,-0.5,0.5,-0.8,0.8Zm-14.8,0l-1.5,1.5c0.2,0.4,0.5,0.7,0.8,0.8l1.5,-1.5l1.5,1.5c0.4,-0.1,0.6,-0.4,0.8,-0.8l-1.5,-1.5l1.5,-1.4c-0.2,-0.3,-0.4,-0.7,-0.8,-0.8l-1.5,1.5l-1.5,-1.5c-0.3,0.1,-0.6,0.5,-0.8,0.8Z" class="g2_4" />
<path d="M264.4,1147.7l-1.5,1.5c0.2,0.3,0.5,0.7,0.8,0.8l1.5,-1.5l1.5,1.5c0.3,-0.1,0.6,-0.5,0.8,-0.8l-1.5,-1.5l1.5,-1.5c-0.2,-0.3,-0.5,-0.6,-0.8,-0.8l-1.5,1.6l-1.5,-1.6c-0.3,0.2,-0.6,0.5,-0.8,0.8Zm-14.8,0l-1.5,1.5c0.2,0.3,0.6,0.7,0.8,0.8l1.5,-1.5l1.6,1.5c0.3,-0.1,0.5,-0.5,0.8,-0.8l-1.6,-1.5l1.6,-1.5c-0.3,-0.3,-0.5,-0.6,-0.8,-0.8l-1.6,1.6l-1.5,-1.6c-0.2,0.2,-0.6,0.5,-0.8,0.8Zm-44.2,0l-1.6,1.5c0.3,0.3,0.6,0.7,0.8,0.8l1.6,-1.5l1.5,1.5c0.3,-0.1,0.5,-0.5,0.8,-0.8l-1.5,-1.5l1.5,-1.5c-0.3,-0.3,-0.5,-0.6,-0.8,-0.8l-1.5,1.6l-1.6,-1.6c-0.2,0.2,-0.5,0.5,-0.8,0.8Zm29.5,0l-1.5,1.5c0.2,0.3,0.5,0.7,0.8,0.8l1.5,-1.5l1.5,1.5c0.3,-0.1,0.6,-0.5,0.8,-0.8l-1.5,-1.5l1.5,-1.5c-0.2,-0.3,-0.5,-0.6,-0.8,-0.8l-1.5,1.6l-1.5,-1.6c-0.3,0.2,-0.6,0.5,-0.8,0.8Zm-14.8,0l-1.5,1.5c0.2,0.3,0.6,0.7,0.8,0.8l1.5,-1.5l1.5,1.5c0.4,-0.1,0.6,-0.5,0.8,-0.8l-1.5,-1.5l1.5,-1.5c-0.2,-0.3,-0.4,-0.6,-0.8,-0.8l-1.5,1.6l-1.5,-1.6c-0.2,0.2,-0.6,0.5,-0.8,0.8Zm119.7,0l-1.5,1.5c0.2,0.3,0.5,0.7,0.8,0.8l1.5,-1.5l1.5,1.5c0.3,-0.1,0.6,-0.5,0.8,-0.8l-1.5,-1.5l1.5,-1.5c-0.2,-0.3,-0.5,-0.6,-0.8,-0.8l-1.5,1.6l-1.5,-1.6c-0.3,0.2,-0.6,0.5,-0.8,0.8Zm-14.8,0l-1.5,1.5c0.2,0.3,0.6,0.7,0.8,0.8l1.5,-1.5l1.6,1.5c0.3,-0.1,0.5,-0.5,0.8,-0.8l-1.6,-1.5l1.6,-1.5c-0.3,-0.3,-0.5,-0.6,-0.8,-0.8l-1.6,1.6l-1.5,-1.6c-0.2,0.2,-0.6,0.5,-0.8,0.8Zm-44.2,0l-1.6,1.5c0.3,0.3,0.6,0.7,0.8,0.8l1.6,-1.5l1.5,1.5c0.3,-0.1,0.5,-0.5,0.8,-0.8l-1.5,-1.5l1.5,-1.5c-0.3,-0.3,-0.5,-0.6,-0.8,-0.8l-1.5,1.6l-1.6,-1.6c-0.2,0.2,-0.5,0.5,-0.8,0.8Zm29.5,0l-1.6,1.5c0.3,0.3,0.6,0.7,0.8,0.8l1.6,-1.5l1.5,1.5c0.3,-0.1,0.6,-0.5,0.8,-0.8l-1.5,-1.5l1.5,-1.5c-0.2,-0.3,-0.5,-0.6,-0.8,-0.8l-1.5,1.6l-1.6,-1.6c-0.2,0.2,-0.5,0.5,-0.8,0.8Zm-14.8,0l-1.5,1.5c0.2,0.3,0.5,0.7,0.8,0.8l1.5,-1.5l1.5,1.5c0.4,-0.1,0.6,-0.5,0.8,-0.8l-1.5,-1.5l1.5,-1.5c-0.2,-0.3,-0.4,-0.6,-0.8,-0.8l-1.5,1.6l-1.5,-1.6c-0.3,0.2,-0.6,0.5,-0.8,0.8Zm119.7,0l-1.5,1.5c0.2,0.3,0.5,0.7,0.8,0.8l1.5,-1.5l1.5,1.5c0.3,-0.1,0.6,-0.5,0.8,-0.8l-1.5,-1.5l1.5,-1.5c-0.2,-0.3,-0.5,-0.6,-0.8,-0.8L416,1147l-1.5,-1.6c-0.3,0.2,-0.6,0.5,-0.8,0.8Zm-14.8,0l-1.5,1.5c0.2,0.3,0.6,0.7,0.8,0.8l1.5,-1.5l1.5,1.5c0.4,-0.1,0.6,-0.5,0.8,-0.8l-1.5,-1.5l1.5,-1.5c-0.2,-0.3,-0.4,-0.6,-0.8,-0.8l-1.5,1.6l-1.5,-1.6c-0.2,0.2,-0.6,0.5,-0.8,0.8Zm-44.3,0l-1.5,1.5c0.3,0.3,0.6,0.7,0.8,0.8l1.5,-1.5l1.6,1.5c0.3,-0.1,0.5,-0.5,0.8,-0.8l-1.6,-1.5l1.6,-1.5c-0.3,-0.3,-0.5,-0.6,-0.8,-0.8l-1.6,1.6l-1.5,-1.6c-0.2,0.2,-0.5,0.5,-0.8,0.8Zm29.6,0l-1.6,1.5c0.3,0.3,0.6,0.7,0.8,0.8l1.6,-1.5l1.5,1.5c0.3,-0.1,0.5,-0.5,0.8,-0.8l-1.5,-1.5l1.5,-1.5c-0.3,-0.3,-0.5,-0.6,-0.8,-0.8l-1.5,1.6l-1.6,-1.6c-0.2,0.2,-0.5,0.5,-0.8,0.8Zm-14.8,0l-1.5,1.5c0.2,0.3,0.5,0.7,0.8,0.8l1.5,-1.5l1.5,1.5c0.4,-0.1,0.6,-0.5,0.8,-0.8l-1.5,-1.5l1.5,-1.5c-0.2,-0.3,-0.4,-0.6,-0.8,-0.8l-1.5,1.6l-1.5,-1.6c-0.3,0.2,-0.6,0.5,-0.8,0.8Zm119.7,0l-1.6,1.5c0.3,0.3,0.6,0.7,0.8,0.8l1.6,-1.5l1.5,1.5c0.3,-0.1,0.6,-0.5,0.8,-0.8l-1.5,-1.5l1.5,-1.5c-0.2,-0.3,-0.5,-0.6,-0.8,-0.8l-1.5,1.6l-1.6,-1.6c-0.2,0.2,-0.5,0.5,-0.8,0.8Zm-14.8,0l-1.5,1.5c0.2,0.3,0.6,0.7,0.8,0.8l1.5,-1.5l1.5,1.5c0.4,-0.1,0.6,-0.5,0.8,-0.8l-1.5,-1.5l1.5,-1.5c-0.2,-0.3,-0.4,-0.6,-0.8,-0.8l-1.5,1.6l-1.5,-1.6c-0.2,0.2,-0.6,0.5,-0.8,0.8Zm-44.3,0l-1.5,1.5c0.3,0.3,0.6,0.7,0.8,0.8l1.5,-1.5l1.6,1.5c0.3,-0.1,0.5,-0.5,0.8,-0.8l-1.6,-1.5l1.6,-1.5c-0.3,-0.3,-0.5,-0.6,-0.8,-0.8l-1.6,1.6l-1.5,-1.6c-0.2,0.2,-0.5,0.5,-0.8,0.8Zm29.6,0l-1.6,1.5c0.3,0.3,0.6,0.7,0.8,0.8l1.6,-1.5l1.5,1.5c0.3,-0.1,0.5,-0.5,0.8,-0.8l-1.5,-1.5l1.5,-1.5c-0.3,-0.3,-0.5,-0.6,-0.8,-0.8l-1.5,1.6l-1.6,-1.6c-0.2,0.2,-0.5,0.5,-0.8,0.8Zm-14.8,0l-1.5,1.5c0.2,0.3,0.5,0.7,0.8,0.8l1.5,-1.5l1.5,1.5c0.3,-0.1,0.6,-0.5,0.8,-0.8l-1.5,-1.5l1.5,-1.5c-0.2,-0.3,-0.5,-0.6,-0.8,-0.8l-1.5,1.6l-1.5,-1.6c-0.3,0.2,-0.6,0.5,-0.8,0.8Zm119.7,0l-1.6,1.5c0.3,0.3,0.6,0.7,0.8,0.8l1.6,-1.5l1.5,1.5c0.3,-0.1,0.6,-0.5,0.8,-0.8l-1.5,-1.5l1.5,-1.5c-0.2,-0.3,-0.5,-0.6,-0.8,-0.8l-1.5,1.6l-1.6,-1.6c-0.2,0.2,-0.5,0.5,-0.8,0.8Zm-14.8,0l-1.5,1.5c0.2,0.3,0.5,0.7,0.8,0.8l1.5,-1.5l1.5,1.5c0.4,-0.1,0.6,-0.5,0.8,-0.8l-1.5,-1.5l1.5,-1.5c-0.2,-0.3,-0.4,-0.6,-0.8,-0.8L552,1147l-1.5,-1.6c-0.3,0.2,-0.6,0.5,-0.8,0.8Zm-44.3,0l-1.5,1.5c0.2,0.3,0.6,0.7,0.8,0.8l1.5,-1.5l1.6,1.5c0.3,-0.1,0.5,-0.5,0.8,-0.8l-1.6,-1.5l1.6,-1.5c-0.3,-0.3,-0.5,-0.6,-0.8,-0.8l-1.6,1.6l-1.5,-1.6c-0.2,0.2,-0.6,0.5,-0.8,0.8Zm29.5,0l-1.5,1.5c0.3,0.3,0.6,0.7,0.8,0.8l1.6,-1.5l1.5,1.5c0.3,-0.1,0.5,-0.5,0.8,-0.8l-1.5,-1.5l1.5,-1.5c-0.3,-0.3,-0.5,-0.6,-0.8,-0.8l-1.5,1.6l-1.6,-1.6c-0.2,0.2,-0.5,0.5,-0.8,0.8Zm-14.7,0l-1.5,1.5c0.2,0.3,0.5,0.7,0.8,0.8l1.5,-1.5l1.5,1.5c0.3,-0.1,0.6,-0.5,0.8,-0.8l-1.5,-1.5l1.5,-1.5c-0.2,-0.3,-0.5,-0.6,-0.8,-0.8l-1.5,1.6l-1.5,-1.6c-0.3,0.2,-0.6,0.5,-0.8,0.8Zm119.7,0l-1.6,1.5c0.3,0.3,0.6,0.7,0.8,0.8l1.6,-1.5l1.5,1.5c0.3,-0.1,0.5,-0.5,0.8,-0.8l-1.5,-1.5l1.5,-1.5c-0.3,-0.3,-0.5,-0.6,-0.8,-0.8l-1.5,1.6l-1.6,-1.6c-0.2,0.2,-0.5,0.5,-0.8,0.8Zm-14.8,0l-1.5,1.5c0.2,0.3,0.5,0.7,0.8,0.8l1.5,-1.5l1.5,1.5c0.3,-0.1,0.6,-0.5,0.8,-0.8l-1.5,-1.5l1.5,-1.5c-0.2,-0.3,-0.5,-0.6,-0.8,-0.8l-1.5,1.6l-1.5,-1.6c-0.3,0.2,-0.6,0.5,-0.8,0.8Zm-44.3,0l-1.5,1.5c0.2,0.3,0.6,0.7,0.8,0.8l1.5,-1.5l1.6,1.5c0.3,-0.1,0.5,-0.5,0.8,-0.8l-1.6,-1.5l1.6,-1.5c-0.3,-0.3,-0.5,-0.6,-0.8,-0.8l-1.6,1.6l-1.5,-1.6c-0.2,0.2,-0.6,0.5,-0.8,0.8Zm29.5,0l-1.5,1.5c0.3,0.3,0.6,0.7,0.8,0.8l1.5,-1.5l1.6,1.5c0.3,-0.1,0.5,-0.5,0.8,-0.8l-1.6,-1.5l1.6,-1.5c-0.3,-0.3,-0.5,-0.6,-0.8,-0.8l-1.6,1.6l-1.5,-1.6c-0.2,0.2,-0.5,0.5,-0.8,0.8Zm-14.7,0l-1.5,1.5c0.2,0.3,0.5,0.7,0.8,0.8l1.5,-1.5l1.5,1.5c0.3,-0.1,0.6,-0.5,0.8,-0.8l-1.5,-1.5l1.5,-1.5c-0.2,-0.3,-0.5,-0.6,-0.8,-0.8l-1.5,1.6l-1.5,-1.6c-0.3,0.2,-0.6,0.5,-0.8,0.8Zm119.7,0l-1.6,1.5c0.3,0.3,0.6,0.7,0.8,0.8l1.6,-1.5l1.5,1.5c0.3,-0.1,0.5,-0.5,0.8,-0.8l-1.5,-1.5l1.5,-1.5c-0.3,-0.3,-0.5,-0.6,-0.8,-0.8l-1.5,1.6l-1.6,-1.6c-0.2,0.2,-0.5,0.5,-0.8,0.8Zm-14.8,0l-1.5,1.5c0.2,0.3,0.5,0.7,0.8,0.8l1.5,-1.5l1.5,1.5c0.3,-0.1,0.6,-0.5,0.8,-0.8l-1.5,-1.5l1.5,-1.5c-0.2,-0.3,-0.5,-0.6,-0.8,-0.8l-1.5,1.6l-1.5,-1.6c-0.3,0.2,-0.6,0.5,-0.8,0.8Zm-44.3,0l-1.5,1.5c0.2,0.3,0.6,0.7,0.8,0.8l1.5,-1.5l1.5,1.5c0.4,-0.1,0.6,-0.5,0.8,-0.8l-1.5,-1.5l1.5,-1.5c-0.2,-0.3,-0.4,-0.6,-0.8,-0.8l-1.5,1.6l-1.5,-1.6c-0.2,0.2,-0.6,0.5,-0.8,0.8Zm29.5,0l-1.5,1.5c0.3,0.3,0.6,0.7,0.8,0.8l1.5,-1.5l1.6,1.5c0.3,-0.1,0.5,-0.5,0.8,-0.8l-1.6,-1.5l1.6,-1.5c-0.3,-0.3,-0.5,-0.6,-0.8,-0.8L688,1147l-1.5,-1.6c-0.2,0.2,-0.5,0.5,-0.8,0.8Zm-14.7,0l-1.5,1.5c0.2,0.3,0.5,0.7,0.8,0.8l1.5,-1.5l1.5,1.5c0.3,-0.1,0.6,-0.5,0.8,-0.8l-1.5,-1.5l1.5,-1.5c-0.2,-0.3,-0.5,-0.6,-0.8,-0.8l-1.5,1.6l-1.5,-1.6c-0.3,0.2,-0.6,0.5,-0.8,0.8Zm119.6,0l-1.5,1.5c0.3,0.3,0.6,0.7,0.8,0.8l1.5,-1.5l1.6,1.5c0.3,-0.1,0.5,-0.5,0.8,-0.8l-1.5,-1.5l1.5,-1.5c-0.3,-0.3,-0.5,-0.6,-0.8,-0.8l-1.6,1.6l-1.5,-1.6c-0.2,0.2,-0.5,0.5,-0.8,0.8Zm-14.7,0l-1.5,1.5c0.2,0.3,0.5,0.7,0.8,0.8l1.5,-1.5l1.5,1.5c0.3,-0.1,0.6,-0.5,0.8,-0.8l-1.5,-1.5l1.5,-1.5c-0.2,-0.3,-0.5,-0.6,-0.8,-0.8l-1.5,1.6l-1.5,-1.6c-0.3,0.2,-0.6,0.5,-0.8,0.8Zm-44.3,0l-1.5,1.5c0.2,0.3,0.6,0.7,0.8,0.8l1.5,-1.5l1.5,1.5c0.4,-0.1,0.6,-0.5,0.8,-0.8l-1.5,-1.5l1.5,-1.5c-0.2,-0.3,-0.4,-0.6,-0.8,-0.8l-1.5,1.6l-1.5,-1.6c-0.2,0.2,-0.6,0.5,-0.8,0.8Zm29.5,0l-1.5,1.5c0.2,0.3,0.6,0.7,0.8,0.8l1.5,-1.5l1.6,1.5c0.3,-0.1,0.5,-0.5,0.8,-0.8l-1.6,-1.5l1.6,-1.5c-0.3,-0.3,-0.5,-0.6,-0.8,-0.8l-1.6,1.6l-1.5,-1.6c-0.2,0.2,-0.6,0.5,-0.8,0.8Zm-14.7,0l-1.6,1.5c0.3,0.3,0.6,0.7,0.9,0.8l1.5,-1.5l1.5,1.5c0.3,-0.1,0.6,-0.5,0.8,-0.8l-1.5,-1.5l1.5,-1.5c-0.2,-0.3,-0.5,-0.6,-0.8,-0.8l-1.5,1.6l-1.5,-1.6c-0.3,0.2,-0.6,0.5,-0.9,0.8Zm119.6,0l-1.5,1.5c0.3,0.3,0.6,0.7,0.8,0.8l1.5,-1.5l1.6,1.5c0.3,-0.1,0.5,-0.5,0.8,-0.8l-1.6,-1.5l1.6,-1.5c-0.3,-0.3,-0.5,-0.6,-0.8,-0.8l-1.6,1.6l-1.5,-1.6c-0.2,0.2,-0.5,0.5,-0.8,0.8Zm-14.7,0l-1.5,1.5c0.2,0.3,0.5,0.7,0.8,0.8l1.5,-1.5l1.5,1.5c0.3,-0.1,0.6,-0.5,0.8,-0.8l-1.5,-1.5l1.5,-1.5c-0.2,-0.3,-0.5,-0.6,-0.8,-0.8l-1.5,1.6l-1.5,-1.6c-0.3,0.2,-0.6,0.5,-0.8,0.8Zm-44.3,0l-1.5,1.5c0.2,0.3,0.5,0.7,0.8,0.8l1.5,-1.5l1.5,1.5c0.4,-0.1,0.6,-0.5,0.8,-0.8l-1.5,-1.5l1.5,-1.5c-0.2,-0.3,-0.4,-0.6,-0.8,-0.8l-1.5,1.6l-1.5,-1.6c-0.3,0.2,-0.6,0.5,-0.8,0.8Zm29.5,0l-1.5,1.5c0.2,0.3,0.6,0.7,0.8,0.8l1.5,-1.5l1.6,1.5c0.3,-0.1,0.5,-0.5,0.8,-0.8l-1.6,-1.5l1.6,-1.5c-0.3,-0.3,-0.5,-0.6,-0.8,-0.8l-1.6,1.6l-1.5,-1.6c-0.2,0.2,-0.6,0.5,-0.8,0.8Zm-14.7,0l-1.6,1.5c0.3,0.3,0.6,0.7,0.8,0.8l1.6,-1.5l1.5,1.5c0.3,-0.1,0.6,-0.5,0.8,-0.8l-1.5,-1.5l1.5,-1.5c-0.2,-0.3,-0.5,-0.6,-0.8,-0.8l-1.5,1.6l-1.6,-1.6c-0.2,0.2,-0.5,0.5,-0.8,0.8Zm119.6,0l-1.5,1.5c0.3,0.3,0.6,0.7,0.8,0.8l1.5,-1.5l1.6,1.5c0.3,-0.1,0.5,-0.5,0.8,-0.8l-1.6,-1.5l1.6,-1.5c-0.3,-0.3,-0.5,-0.6,-0.8,-0.8l-1.6,1.6l-1.5,-1.6c-0.2,0.2,-0.5,0.5,-0.8,0.8Zm-14.7,0l-1.5,1.5c0.2,0.3,0.5,0.7,0.8,0.8l1.5,-1.5l1.5,1.5c0.3,-0.1,0.6,-0.5,0.8,-0.8l-1.5,-1.5l1.5,-1.5c-0.2,-0.3,-0.5,-0.6,-0.8,-0.8L929,1147l-1.5,-1.6c-0.3,0.2,-0.6,0.5,-0.8,0.8Zm-44.3,0l-1.5,1.5c0.2,0.3,0.5,0.7,0.8,0.8l1.5,-1.5l1.5,1.5c0.3,-0.1,0.6,-0.5,0.8,-0.8l-1.5,-1.5l1.5,-1.5c-0.2,-0.3,-0.5,-0.6,-0.8,-0.8l-1.5,1.6l-1.5,-1.6c-0.3,0.2,-0.6,0.5,-0.8,0.8Zm29.5,0l-1.5,1.5c0.2,0.3,0.6,0.7,0.8,0.8l1.5,-1.5l1.5,1.5c0.4,-0.1,0.6,-0.5,0.8,-0.8l-1.5,-1.5l1.5,-1.5c-0.2,-0.3,-0.4,-0.6,-0.8,-0.8l-1.5,1.6l-1.5,-1.6c-0.2,0.2,-0.6,0.5,-0.8,0.8Zm-14.7,0l-1.6,1.5c0.3,0.3,0.6,0.7,0.8,0.8l1.6,-1.5l1.5,1.5c0.3,-0.1,0.5,-0.5,0.8,-0.8l-1.5,-1.5l1.5,-1.5c-0.3,-0.3,-0.5,-0.6,-0.8,-0.8l-1.5,1.6l-1.6,-1.6c-0.2,0.2,-0.5,0.5,-0.8,0.8Zm119.6,0l-1.5,1.5c0.2,0.3,0.6,0.7,0.8,0.8l1.5,-1.5l1.6,1.5c0.3,-0.1,0.5,-0.5,0.8,-0.8l-1.6,-1.5l1.6,-1.5c-0.3,-0.3,-0.5,-0.6,-0.8,-0.8l-1.6,1.6l-1.5,-1.6c-0.2,0.2,-0.6,0.5,-0.8,0.8Zm-14.7,0l-1.6,1.5c0.3,0.3,0.6,0.7,0.8,0.8l1.6,-1.5l1.5,1.5c0.3,-0.1,0.6,-0.5,0.8,-0.8l-1.5,-1.5l1.5,-1.5c-0.2,-0.3,-0.5,-0.6,-0.8,-0.8l-1.5,1.6l-1.6,-1.6c-0.2,0.2,-0.5,0.5,-0.8,0.8Zm-44.3,0l-1.5,1.5c0.2,0.3,0.5,0.7,0.8,0.8l1.5,-1.5l1.5,1.5c0.3,-0.1,0.6,-0.5,0.8,-0.8l-1.5,-1.5l1.5,-1.5c-0.2,-0.3,-0.5,-0.6,-0.8,-0.8l-1.5,1.6l-1.5,-1.6c-0.3,0.2,-0.6,0.5,-0.8,0.8Zm29.5,0l-1.5,1.5c0.2,0.3,0.6,0.7,0.8,0.8l1.5,-1.5l1.5,1.5c0.4,-0.1,0.6,-0.5,0.8,-0.8l-1.5,-1.5l1.5,-1.5c-0.2,-0.3,-0.4,-0.6,-0.8,-0.8l-1.5,1.6l-1.5,-1.6c-0.2,0.2,-0.6,0.5,-0.8,0.8Zm-14.7,0l-1.6,1.5c0.3,0.3,0.6,0.7,0.8,0.8l1.6,-1.5l1.5,1.5c0.3,-0.1,0.5,-0.5,0.8,-0.8l-1.5,-1.5l1.5,-1.5c-0.3,-0.3,-0.5,-0.6,-0.8,-0.8l-1.5,1.6l-1.6,-1.6c-0.2,0.2,-0.5,0.5,-0.8,0.8Zm119.6,0l-1.5,1.5c0.2,0.3,0.6,0.7,0.8,0.8l1.5,-1.5l1.5,1.5c0.4,-0.1,0.6,-0.5,0.9,-0.8l-1.6,-1.5l1.6,-1.5c-0.3,-0.3,-0.5,-0.6,-0.9,-0.8l-1.5,1.6l-1.5,-1.6c-0.2,0.2,-0.6,0.5,-0.8,0.8Zm-14.7,0l-1.6,1.5c0.3,0.3,0.6,0.7,0.8,0.8l1.6,-1.5l1.5,1.5c0.3,-0.1,0.6,-0.5,0.8,-0.8l-1.5,-1.5l1.5,-1.5c-0.2,-0.3,-0.5,-0.6,-0.8,-0.8l-1.5,1.6l-1.6,-1.6c-0.2,0.2,-0.5,0.5,-0.8,0.8Zm-44.3,0l-1.5,1.5c0.2,0.3,0.5,0.7,0.8,0.8l1.5,-1.5l1.5,1.5c0.3,-0.1,0.6,-0.5,0.8,-0.8l-1.5,-1.5l1.5,-1.5c-0.2,-0.3,-0.5,-0.6,-0.8,-0.8l-1.5,1.6l-1.5,-1.6c-0.3,0.2,-0.6,0.5,-0.8,0.8Zm29.5,0l-1.5,1.5c0.2,0.3,0.5,0.7,0.8,0.8l1.5,-1.5l1.5,1.5c0.4,-0.1,0.6,-0.5,0.8,-0.8l-1.5,-1.5l1.5,-1.5c-0.2,-0.3,-0.4,-0.6,-0.8,-0.8l-1.5,1.6l-1.5,-1.6c-0.3,0.2,-0.6,0.5,-0.8,0.8Zm-14.8,0l-1.5,1.5c0.3,0.3,0.6,0.7,0.8,0.8l1.5,-1.5l1.6,1.5c0.3,-0.1,0.5,-0.5,0.8,-0.8l-1.5,-1.5l1.5,-1.5c-0.3,-0.3,-0.5,-0.6,-0.8,-0.8l-1.6,1.6l-1.5,-1.6c-0.2,0.2,-0.5,0.5,-0.8,0.8Zm119.7,0l-1.5,1.5c0.2,0.3,0.6,0.7,0.8,0.8l1.5,-1.5l1.5,1.5c0.4,-0.1,0.6,-0.5,0.8,-0.8l-1.5,-1.5l1.5,-1.5c-0.2,-0.3,-0.4,-0.6,-0.8,-0.8l-1.5,1.6l-1.5,-1.6c-0.2,0.2,-0.6,0.5,-0.8,0.8Zm-14.7,0l-1.6,1.5c0.3,0.3,0.6,0.7,0.8,0.8l1.6,-1.5l1.5,1.5c0.3,-0.1,0.5,-0.5,0.8,-0.8l-1.5,-1.5l1.5,-1.5c-0.3,-0.3,-0.5,-0.6,-0.8,-0.8l-1.5,1.6l-1.6,-1.6c-0.2,0.2,-0.5,0.5,-0.8,0.8Zm-44.3,0l-1.5,1.5c0.2,0.3,0.5,0.7,0.8,0.8l1.5,-1.5l1.5,1.5c0.3,-0.1,0.6,-0.5,0.8,-0.8l-1.5,-1.5l1.5,-1.5c-0.2,-0.3,-0.5,-0.6,-0.8,-0.8l-1.5,1.6l-1.5,-1.6c-0.3,0.2,-0.6,0.5,-0.8,0.8Zm29.5,0l-1.5,1.5c0.2,0.3,0.5,0.7,0.8,0.8l1.5,-1.5l1.5,1.5c0.3,-0.1,0.6,-0.5,0.8,-0.8l-1.5,-1.5l1.5,-1.5c-0.2,-0.3,-0.5,-0.6,-0.8,-0.8l-1.5,1.6l-1.5,-1.6c-0.3,0.2,-0.6,0.5,-0.8,0.8Zm-14.8,0l-1.5,1.5c0.3,0.3,0.6,0.7,0.8,0.8l1.5,-1.5l1.6,1.5c0.3,-0.1,0.5,-0.5,0.8,-0.8l-1.6,-1.5l1.6,-1.5c-0.3,-0.3,-0.5,-0.6,-0.8,-0.8l-1.6,1.6l-1.5,-1.6c-0.2,0.2,-0.5,0.5,-0.8,0.8Zm119.7,0l-1.5,1.5c0.2,0.3,0.5,0.7,0.8,0.8l1.5,-1.5l1.5,1.5c0.4,-0.1,0.6,-0.5,0.8,-0.8l-1.5,-1.5l1.5,-1.5c-0.2,-0.3,-0.4,-0.6,-0.8,-0.8l-1.5,1.6l-1.5,-1.6c-0.3,0.2,-0.6,0.5,-0.8,0.8Zm-14.7,0l-1.6,1.5c0.3,0.3,0.6,0.7,0.8,0.8l1.6,-1.5l1.5,1.5c0.3,-0.1,0.5,-0.5,0.8,-0.8l-1.5,-1.5l1.5,-1.5c-0.3,-0.3,-0.5,-0.6,-0.8,-0.8l-1.5,1.6l-1.6,-1.6c-0.2,0.2,-0.5,0.5,-0.8,0.8Zm-44.3,0l-1.5,1.5c0.2,0.3,0.5,0.7,0.8,0.8l1.5,-1.5l1.5,1.5c0.3,-0.1,0.6,-0.5,0.8,-0.8l-1.5,-1.5l1.5,-1.5c-0.2,-0.3,-0.5,-0.6,-0.8,-0.8l-1.5,1.6l-1.5,-1.6c-0.3,0.2,-0.6,0.5,-0.8,0.8Zm29.5,0l-1.5,1.5c0.2,0.3,0.5,0.7,0.8,0.8l1.5,-1.5l1.5,1.5c0.3,-0.1,0.6,-0.5,0.8,-0.8l-1.5,-1.5l1.5,-1.5c-0.2,-0.3,-0.5,-0.6,-0.8,-0.8l-1.5,1.6l-1.5,-1.6c-0.3,0.2,-0.6,0.5,-0.8,0.8Zm-14.8,0l-1.5,1.5c0.3,0.3,0.6,0.7,0.8,0.8l1.5,-1.5l1.6,1.5c0.3,-0.1,0.5,-0.5,0.8,-0.8l-1.6,-1.5l1.6,-1.5c-0.3,-0.3,-0.5,-0.6,-0.8,-0.8l-1.6,1.6l-1.5,-1.6c-0.2,0.2,-0.5,0.5,-0.8,0.8Z" class="g2_4" />
</g>
<path d="M281.9,30.7c-3,-0.4,-6,0,-9,0.3c-6.6,0.6,-12.3,5.6,-13.7,12.7c-0.3,1.6,-0.5,3.3,-0.7,4.7c0.1,4.5,1.1,8.4,3.6,11.8c3.4,4.9,8,8,13.8,9.3c5.6,1.4,10.3,-0.7,14.1,-4.4c2.8,-2.8,4.8,-6.3,5.3,-10.4c0.2,-0.8,0.3,-1.7,0.5,-2.4c1.1,-4.4,0,-8.6,-1.9,-12.4c-2.3,-4.9,-6.3,-8.3,-12,-9.2Z" class="g3_4" />
<image x="797" y="492" width="221" height="253" xlink:href="https://majemastoragelive.blob.core.windows.net/learn-english-test/ebook/Grade3/wildanimals/page2/img/1.png" />
<path d="M799,736l212,0l0,-242l-212,0l0,242Z" class="g4_4" />
<path d="M799,673l211,0l0,-179l-211,0l0,179Z" class="g4_4" />
<image x="799" y="494" width="213" height="184" xlink:href="https://majemastoragelive.blob.core.windows.net/learn-english-test/ebook/Grade3/wildanimals/page2/img/2.png" />
<g clip-path="url(#c1_4)">
<path d="M799.5,480.5l0,11m-13,2l11,0m213,-13l0,11m14,2l-11,0m-214,256l0,-11m-13,-2l11,0m213,13l0,-11m14,-2l-11,0" class="g5_4" />
<path d="M799.5,480.5l0,11m-13,2l11,0m213,-13l0,11m14,2l-11,0m-214,256l0,-11m-13,-2l11,0m213,13l0,-11m14,-2l-11,0" class="g6_4" />
<path d="M894.7,485.9l21.3,0M894.7,744.2l21.3,0M791.9,604.4l0,21.2m226.9,-21.2l0,21.2M905.4,480.6l0,10.6m0,247.6l0,10.7M786.6,615l10.6,0m216.3,0l10.6,0M905.4,485.9l2.6,0c0,1.4,-1.2,2.6,-2.6,2.6c-1.5,0,-2.7,-1.2,-2.7,-2.6c0,-1.5,1.2,-2.7,2.7,-2.7c1.4,0,2.6,1.2,2.6,2.7m-2.6,258.3l2.6,0c0,1.4,-1.2,2.6,-2.6,2.6c-1.5,0,-2.7,-1.2,-2.7,-2.6c0,-1.5,1.2,-2.7,2.7,-2.7c1.4,0,2.6,1.2,2.6,2.7M791.9,615l2.7,0c0,1.5,-1.2,2.7,-2.7,2.7c-1.5,0,-2.6,-1.2,-2.6,-2.7c0,-1.5,1.1,-2.6,2.6,-2.6c1.5,0,2.7,1.1,2.7,2.6m224.2,0l2.7,0c0,1.5,-1.2,2.7,-2.7,2.7c-1.5,0,-2.7,-1.2,-2.7,-2.7c0,-1.5,1.2,-2.6,2.7,-2.6c1.5,0,2.7,1.1,2.7,2.6" class="g5_4" />
<path d="M894.7,485.9l21.3,0M894.7,744.2l21.3,0M791.9,604.4l0,21.2m226.9,-21.2l0,21.2M905.4,480.6l0,10.6m0,247.6l0,10.7M786.6,615l10.6,0m216.3,0l10.6,0M905.4,485.9l2.6,0c0,1.4,-1.2,2.6,-2.6,2.6c-1.5,0,-2.7,-1.2,-2.7,-2.6c0,-1.5,1.2,-2.7,2.7,-2.7c1.4,0,2.6,1.2,2.6,2.7m-2.6,258.3l2.6,0c0,1.4,-1.2,2.6,-2.6,2.6c-1.5,0,-2.7,-1.2,-2.7,-2.6c0,-1.5,1.2,-2.7,2.7,-2.7c1.4,0,2.6,1.2,2.6,2.7M791.9,615l2.7,0c0,1.5,-1.2,2.7,-2.7,2.7c-1.5,0,-2.6,-1.2,-2.6,-2.7c0,-1.5,1.1,-2.6,2.6,-2.6c1.5,0,2.7,1.1,2.7,2.6m224.2,0l2.7,0c0,1.5,-1.2,2.7,-2.7,2.7c-1.5,0,-2.7,-1.2,-2.7,-2.7c0,-1.5,1.2,-2.6,2.7,-2.6c1.5,0,2.7,1.1,2.7,2.6" class="g6_4" />
</g>
<path d="M799.5,736.5l212,0l0,-242l-212,0l0,242Z" class="g7_4" />
<image x="255" y="147" width="222" height="253" xlink:href="https://majemastoragelive.blob.core.windows.net/learn-english-test/ebook/Grade3/wildanimals/page2/img/3.png" />
<path d="M258,391l211,0l0,-243l-211,0l0,243Z" class="g4_4" />
<path d="M258,328l211,0l0,-180l-211,0l0,180Z" class="g4_4" />
<image x="254" y="144" width="219" height="185" xlink:href="https://majemastoragelive.blob.core.windows.net/learn-english-test/ebook/Grade3/wildanimals/page2/img/4.png" />
<g clip-path="url(#c2_4)">
<path d="M258.5,135.5l0,10m-14,3l11,0m214,-13l0,10m13,3l-11,0m-213,256l0,-11m-14,-3l11,0m214,14l0,-11m13,-3l-11,0" class="g5_4" />
<path d="M258.5,135.5l0,10m-14,3l11,0m214,-13l0,10m13,3l-11,0m-213,256l0,-11m-14,-3l11,0m214,14l0,-11m13,-3l-11,0" class="g6_4" />
<path d="M353,140.5l21.2,0M353,398.8l21.2,0M250.2,259l0,21.3M477,259l0,21.3M363.6,135.2l0,10.6m0,247.7l0,10.6M244.8,269.6l10.7,0m216.2,0l10.7,0M363.6,140.5l2.7,0c0,1.5,-1.2,2.7,-2.7,2.7c-1.5,0,-2.7,-1.2,-2.7,-2.7c0,-1.5,1.2,-2.7,2.7,-2.7c1.5,0,2.7,1.2,2.7,2.7m-2.7,258.3l2.7,0c0,1.5,-1.2,2.6,-2.7,2.6c-1.5,0,-2.7,-1.1,-2.7,-2.6c0,-1.5,1.2,-2.7,2.7,-2.7c1.5,0,2.7,1.2,2.7,2.7M250.2,269.6l2.6,0c0,1.5,-1.2,2.7,-2.6,2.7c-1.5,0,-2.7,-1.2,-2.7,-2.7c0,-1.4,1.2,-2.6,2.7,-2.6c1.4,0,2.6,1.2,2.6,2.6m224.2,0l2.7,0c0,1.5,-1.2,2.7,-2.7,2.7c-1.4,0,-2.6,-1.2,-2.6,-2.7c0,-1.4,1.2,-2.6,2.6,-2.6c1.5,0,2.7,1.2,2.7,2.6" class="g5_4" />
<path d="M353,140.5l21.2,0M353,398.8l21.2,0M250.2,259l0,21.3M477,259l0,21.3M363.6,135.2l0,10.6m0,247.7l0,10.6M244.8,269.6l10.7,0m216.2,0l10.7,0M363.6,140.5l2.7,0c0,1.5,-1.2,2.7,-2.7,2.7c-1.5,0,-2.7,-1.2,-2.7,-2.7c0,-1.5,1.2,-2.7,2.7,-2.7c1.5,0,2.7,1.2,2.7,2.7m-2.7,258.3l2.7,0c0,1.5,-1.2,2.6,-2.7,2.6c-1.5,0,-2.7,-1.1,-2.7,-2.6c0,-1.5,1.2,-2.7,2.7,-2.7c1.5,0,2.7,1.2,2.7,2.7M250.2,269.6l2.6,0c0,1.5,-1.2,2.7,-2.6,2.7c-1.5,0,-2.7,-1.2,-2.7,-2.7c0,-1.4,1.2,-2.6,2.7,-2.6c1.4,0,2.6,1.2,2.6,2.6m224.2,0l2.7,0c0,1.5,-1.2,2.7,-2.7,2.7c-1.4,0,-2.6,-1.2,-2.6,-2.7c0,-1.4,1.2,-2.6,2.6,-2.6c1.5,0,2.7,1.2,2.7,2.6" class="g6_4" />
</g>
<path d="M258.5,391.5l211,0l0,-243l-211,0l0,243Z" class="g7_4" />
<image x="465" y="147" width="223" height="253" xlink:href="https://majemastoragelive.blob.core.windows.net/learn-english-test/ebook/Grade3/wildanimals/page2/img/5.png" />
<path d="M468,391l212,0l0,-243l-212,0l0,243Z" class="g4_4" />
<path d="M468,328l212,0l0,-180l-212,0l0,180Z" class="g4_4" />
<image x="464" y="144" width="220" height="185" xlink:href="https://majemastoragelive.blob.core.windows.net/learn-english-test/ebook/Grade3/wildanimals/page2/img/6.png" />
<g clip-path="url(#c3_4)">
<path d="M468.5,135.5l0,10m-13,3l11,0m213,-13l0,10m14,3l-11,0m-214,256l0,-11m-13,-3l11,0m213,14l0,-11m14,-3l-11,0" class="g5_4" />
<path d="M468.5,135.5l0,10m-13,3l11,0m213,-13l0,10m14,3l-11,0m-214,256l0,-11m-13,-3l11,0m213,14l0,-11m14,-3l-11,0" class="g6_4" />
<path d="M563.7,140.5l21.2,0M563.7,398.8l21.2,0M460.8,259l0,21.3M687.7,259l0,21.3M574.3,135.2l0,10.6m0,247.7l0,10.6M455.5,269.6l10.7,0m216.2,0l10.7,0M574.3,140.5l2.6,0c0,1.5,-1.1,2.7,-2.6,2.7c-1.5,0,-2.7,-1.2,-2.7,-2.7c0,-1.5,1.2,-2.7,2.7,-2.7c1.5,0,2.6,1.2,2.6,2.7m-2.6,258.3l2.6,0c0,1.5,-1.1,2.6,-2.6,2.6c-1.5,0,-2.7,-1.1,-2.7,-2.6c0,-1.5,1.2,-2.7,2.7,-2.7c1.5,0,2.6,1.2,2.6,2.7M460.8,269.6l2.7,0c0,1.5,-1.2,2.7,-2.7,2.7c-1.4,0,-2.6,-1.2,-2.6,-2.7c0,-1.4,1.2,-2.6,2.6,-2.6c1.5,0,2.7,1.2,2.7,2.6m224.2,0l2.7,0c0,1.5,-1.2,2.7,-2.7,2.7c-1.4,0,-2.6,-1.2,-2.6,-2.7c0,-1.4,1.2,-2.6,2.6,-2.6c1.5,0,2.7,1.2,2.7,2.6" class="g5_4" />
<path d="M563.7,140.5l21.2,0M563.7,398.8l21.2,0M460.8,259l0,21.3M687.7,259l0,21.3M574.3,135.2l0,10.6m0,247.7l0,10.6M455.5,269.6l10.7,0m216.2,0l10.7,0M574.3,140.5l2.6,0c0,1.5,-1.1,2.7,-2.6,2.7c-1.5,0,-2.7,-1.2,-2.7,-2.7c0,-1.5,1.2,-2.7,2.7,-2.7c1.5,0,2.6,1.2,2.6,2.7m-2.6,258.3l2.6,0c0,1.5,-1.1,2.6,-2.6,2.6c-1.5,0,-2.7,-1.1,-2.7,-2.6c0,-1.5,1.2,-2.7,2.7,-2.7c1.5,0,2.6,1.2,2.6,2.7M460.8,269.6l2.7,0c0,1.5,-1.2,2.7,-2.7,2.7c-1.4,0,-2.6,-1.2,-2.6,-2.7c0,-1.4,1.2,-2.6,2.6,-2.6c1.5,0,2.7,1.2,2.7,2.6m224.2,0l2.7,0c0,1.5,-1.2,2.7,-2.7,2.7c-1.4,0,-2.6,-1.2,-2.6,-2.7c0,-1.4,1.2,-2.6,2.6,-2.6c1.5,0,2.7,1.2,2.7,2.6" class="g6_4" />
</g>
<path d="M468.5,391.5l212,0l0,-243l-212,0l0,243Z" class="g7_4" />
<image x="692" y="147" width="221" height="253" xlink:href="https://majemastoragelive.blob.core.windows.net/learn-english-test/ebook/Grade3/wildanimals/page2/img/7.png" />
<path d="M694,391l211,0l0,-243l-211,0l0,243Z" class="g4_4" />
<path d="M694,327l211,0l0,-179l-211,0l0,179Z" class="g4_4" />
<image x="690" y="144" width="220" height="185" xlink:href="https://majemastoragelive.blob.core.windows.net/learn-english-test/ebook/Grade3/wildanimals/page2/img/8.png" />
<g clip-path="url(#c4_4)">
<path d="M694.5,135.5l0,10m-13,3l10,0m214,-13l0,10m13,3l-10,0m-214,256l0,-11m-13,-3l10,0m214,14l0,-11m13,-3l-10,0" class="g5_4" />
<path d="M694.5,135.5l0,10m-13,3l10,0m214,-13l0,10m13,3l-10,0m-214,256l0,-11m-13,-3l10,0m214,14l0,-11m13,-3l-10,0" class="g6_4" />
<path d="M789.3,140.4l21.3,0M789.3,398.7l21.3,0M686.5,259l0,21.2M913.4,259l0,21.2M799.9,135.1l0,10.7m0,247.6l0,10.6M681.2,269.6l10.6,0m216.3,0l10.6,0M799.9,140.4l2.7,0c0,1.5,-1.2,2.7,-2.7,2.7c-1.4,0,-2.6,-1.2,-2.6,-2.7c0,-1.4,1.2,-2.6,2.6,-2.6c1.5,0,2.7,1.2,2.7,2.6m-2.7,258.3l2.7,0c0,1.5,-1.2,2.7,-2.7,2.7c-1.4,0,-2.6,-1.2,-2.6,-2.7c0,-1.4,1.2,-2.6,2.6,-2.6c1.5,0,2.7,1.2,2.7,2.6M686.5,269.6l2.6,0c0,1.5,-1.2,2.6,-2.6,2.6c-1.5,0,-2.7,-1.1,-2.7,-2.6c0,-1.5,1.2,-2.7,2.7,-2.7c1.4,0,2.6,1.2,2.6,2.7m224.3,0l2.6,0c0,1.5,-1.2,2.6,-2.6,2.6c-1.5,0,-2.7,-1.1,-2.7,-2.6c0,-1.5,1.2,-2.7,2.7,-2.7c1.4,0,2.6,1.2,2.6,2.7" class="g5_4" />
<path d="M789.3,140.4l21.3,0M789.3,398.7l21.3,0M686.5,259l0,21.2M913.4,259l0,21.2M799.9,135.1l0,10.7m0,247.6l0,10.6M681.2,269.6l10.6,0m216.3,0l10.6,0M799.9,140.4l2.7,0c0,1.5,-1.2,2.7,-2.7,2.7c-1.4,0,-2.6,-1.2,-2.6,-2.7c0,-1.4,1.2,-2.6,2.6,-2.6c1.5,0,2.7,1.2,2.7,2.6m-2.7,258.3l2.7,0c0,1.5,-1.2,2.7,-2.7,2.7c-1.4,0,-2.6,-1.2,-2.6,-2.7c0,-1.4,1.2,-2.6,2.6,-2.6c1.5,0,2.7,1.2,2.7,2.6M686.5,269.6l2.6,0c0,1.5,-1.2,2.6,-2.6,2.6c-1.5,0,-2.7,-1.1,-2.7,-2.6c0,-1.5,1.2,-2.7,2.7,-2.7c1.4,0,2.6,1.2,2.6,2.7m224.3,0l2.6,0c0,1.5,-1.2,2.6,-2.6,2.6c-1.5,0,-2.7,-1.1,-2.7,-2.6c0,-1.5,1.2,-2.7,2.7,-2.7c1.4,0,2.6,1.2,2.6,2.7" class="g6_4" />
</g>
<path d="M694.5,391.5l211,0l0,-243l-211,0l0,243Z" class="g7_4" />
<image x="902" y="147" width="221" height="253" xlink:href="https://majemastoragelive.blob.core.windows.net/learn-english-test/ebook/Grade3/wildanimals/page2/img/9.png" />
<path d="M905,391l211,0l0,-243l-211,0l0,243Z" class="g4_4" />
<path d="M905,327l211,0l0,-179l-211,0l0,179Z" class="g4_4" />
<image x="901" y="144" width="219" height="185" xlink:href="https://majemastoragelive.blob.core.windows.net/learn-english-test/ebook/Grade3/wildanimals/page2/img/10.png" />
<g clip-path="url(#c5_4)">
<path d="M905.5,135.5l0,10m-14,3l11,0m214,-13l0,10m13,3l-11,0m-213,256l0,-11m-14,-3l11,0m214,14l0,-11m13,-3l-11,0" class="g5_4" />
<path d="M905.5,135.5l0,10m-14,3l11,0m214,-13l0,10m13,3l-11,0m-213,256l0,-11m-14,-3l11,0m214,14l0,-11m13,-3l-11,0" class="g6_4" />
<path d="M1000,140.4l21.2,0M1000,398.7l21.2,0M897.2,259l0,21.2M1124.1,259l0,21.2M1010.6,135.1l0,10.7m0,247.6l0,10.6M891.8,269.6l10.7,0m216.2,0l10.7,0M1010.6,140.4l2.7,0c0,1.5,-1.2,2.7,-2.7,2.7c-1.5,0,-2.6,-1.2,-2.6,-2.7c0,-1.4,1.1,-2.6,2.6,-2.6c1.5,0,2.7,1.2,2.7,2.6m-2.7,258.3l2.7,0c0,1.5,-1.2,2.7,-2.7,2.7c-1.5,0,-2.6,-1.2,-2.6,-2.7c0,-1.4,1.1,-2.6,2.6,-2.6c1.5,0,2.7,1.2,2.7,2.6M897.2,269.6l2.6,0c0,1.5,-1.2,2.6,-2.6,2.6c-1.5,0,-2.7,-1.1,-2.7,-2.6c0,-1.5,1.2,-2.7,2.7,-2.7c1.4,0,2.6,1.2,2.6,2.7m224.3,0l2.6,0c0,1.5,-1.2,2.6,-2.6,2.6c-1.5,0,-2.7,-1.1,-2.7,-2.6c0,-1.5,1.2,-2.7,2.7,-2.7c1.4,0,2.6,1.2,2.6,2.7" class="g5_4" />
<path d="M1000,140.4l21.2,0M1000,398.7l21.2,0M897.2,259l0,21.2M1124.1,259l0,21.2M1010.6,135.1l0,10.7m0,247.6l0,10.6M891.8,269.6l10.7,0m216.2,0l10.7,0M1010.6,140.4l2.7,0c0,1.5,-1.2,2.7,-2.7,2.7c-1.5,0,-2.6,-1.2,-2.6,-2.7c0,-1.4,1.1,-2.6,2.6,-2.6c1.5,0,2.7,1.2,2.7,2.6m-2.7,258.3l2.7,0c0,1.5,-1.2,2.7,-2.7,2.7c-1.5,0,-2.6,-1.2,-2.6,-2.7c0,-1.4,1.1,-2.6,2.6,-2.6c1.5,0,2.7,1.2,2.7,2.6M897.2,269.6l2.6,0c0,1.5,-1.2,2.6,-2.6,2.6c-1.5,0,-2.7,-1.1,-2.7,-2.6c0,-1.5,1.2,-2.7,2.7,-2.7c1.4,0,2.6,1.2,2.6,2.7m224.3,0l2.6,0c0,1.5,-1.2,2.6,-2.6,2.6c-1.5,0,-2.7,-1.1,-2.7,-2.6c0,-1.5,1.2,-2.7,2.7,-2.7c1.4,0,2.6,1.2,2.6,2.7" class="g6_4" />
</g>
<path d="M905.5,391.5l211,0l0,-243l-211,0l0,243Z" class="g7_4" />
<image x="255" y="492" width="222" height="253" xlink:href="https://majemastoragelive.blob.core.windows.net/learn-english-test/ebook/Grade3/wildanimals/page2/img/11.png" />
<path d="M258,736l211,0l0,-242l-211,0l0,242Z" class="g4_4" />
<path d="M258,673l211,0l0,-179l-211,0l0,179Z" class="g4_4" />
<image x="254" y="491" width="219" height="185" xlink:href="https://majemastoragelive.blob.core.windows.net/learn-english-test/ebook/Grade3/wildanimals/page2/img/12.png" />
<g clip-path="url(#c6_4)">
<path d="M258.5,480.5l0,11m-14,2l11,0m214,-13l0,11m13,2l-11,0m-213,256l0,-11m-14,-2l11,0m214,13l0,-11m13,-2l-11,0" class="g5_4" />
<path d="M258.5,480.5l0,11m-14,2l11,0m214,-13l0,11m13,2l-11,0m-213,256l0,-11m-14,-2l11,0m214,13l0,-11m13,-2l-11,0" class="g6_4" />
<path d="M353,485.9l21.2,0M353,744.2l21.2,0M250.2,604.4l0,21.2M477,604.4l0,21.2M363.6,480.6l0,10.6m0,247.6l0,10.7M244.8,615l10.7,0m216.2,0l10.7,0M363.6,485.9l2.7,0c0,1.4,-1.2,2.6,-2.7,2.6c-1.5,0,-2.7,-1.2,-2.7,-2.6c0,-1.5,1.2,-2.7,2.7,-2.7c1.5,0,2.7,1.2,2.7,2.7m-2.7,258.3l2.7,0c0,1.4,-1.2,2.6,-2.7,2.6c-1.5,0,-2.7,-1.2,-2.7,-2.6c0,-1.5,1.2,-2.7,2.7,-2.7c1.5,0,2.7,1.2,2.7,2.7M250.2,615l2.6,0c0,1.5,-1.2,2.7,-2.6,2.7c-1.5,0,-2.7,-1.2,-2.7,-2.7c0,-1.5,1.2,-2.6,2.7,-2.6c1.4,0,2.6,1.1,2.6,2.6M477,615l2.7,0c0,1.5,-1.2,2.7,-2.7,2.7c-1.4,0,-2.6,-1.2,-2.6,-2.7c0,-1.5,1.2,-2.6,2.6,-2.6c1.5,0,2.7,1.1,2.7,2.6" class="g5_4" />
<path d="M353,485.9l21.2,0M353,744.2l21.2,0M250.2,604.4l0,21.2M477,604.4l0,21.2M363.6,480.6l0,10.6m0,247.6l0,10.7M244.8,615l10.7,0m216.2,0l10.7,0M363.6,485.9l2.7,0c0,1.4,-1.2,2.6,-2.7,2.6c-1.5,0,-2.7,-1.2,-2.7,-2.6c0,-1.5,1.2,-2.7,2.7,-2.7c1.5,0,2.7,1.2,2.7,2.7m-2.7,258.3l2.7,0c0,1.4,-1.2,2.6,-2.7,2.6c-1.5,0,-2.7,-1.2,-2.7,-2.6c0,-1.5,1.2,-2.7,2.7,-2.7c1.5,0,2.7,1.2,2.7,2.7M250.2,615l2.6,0c0,1.5,-1.2,2.7,-2.6,2.7c-1.5,0,-2.7,-1.2,-2.7,-2.7c0,-1.5,1.2,-2.6,2.7,-2.6c1.4,0,2.6,1.1,2.6,2.6M477,615l2.7,0c0,1.5,-1.2,2.7,-2.7,2.7c-1.4,0,-2.6,-1.2,-2.6,-2.7c0,-1.5,1.2,-2.6,2.6,-2.6c1.5,0,2.7,1.1,2.7,2.6" class="g6_4" />
</g>
<path d="M258.5,736.5l211,0l0,-242l-211,0l0,242Z" class="g7_4" />
<image x="465" y="492" width="223" height="253" xlink:href="https://majemastoragelive.blob.core.windows.net/learn-english-test/ebook/Grade3/wildanimals/page2/img/13.png" />
<path d="M468,736l212,0l0,-242l-212,0l0,242Z" class="g4_4" />
<path d="M468,673l212,0l0,-179l-212,0l0,179Z" class="g4_4" />
<image x="464" y="491" width="220" height="185" xlink:href="https://majemastoragelive.blob.core.windows.net/learn-english-test/ebook/Grade3/wildanimals/page2/img/14.png" />
<g clip-path="url(#c7_4)">
<path d="M468.5,480.5l0,11m-13,2l11,0m213,-13l0,11m14,2l-11,0m-214,256l0,-11m-13,-2l11,0m213,13l0,-11m14,-2l-11,0" class="g5_4" />
<path d="M468.5,480.5l0,11m-13,2l11,0m213,-13l0,11m14,2l-11,0m-214,256l0,-11m-13,-2l11,0m213,13l0,-11m14,-2l-11,0" class="g6_4" />
<path d="M563.7,485.9l21.2,0M563.7,744.2l21.2,0M460.8,604.4l0,21.2M687.7,604.4l0,21.2M574.3,480.6l0,10.6m0,247.6l0,10.7M455.5,615l10.7,0m216.2,0l10.7,0M574.3,485.9l2.6,0c0,1.4,-1.1,2.6,-2.6,2.6c-1.5,0,-2.7,-1.2,-2.7,-2.6c0,-1.5,1.2,-2.7,2.7,-2.7c1.5,0,2.6,1.2,2.6,2.7m-2.6,258.3l2.6,0c0,1.4,-1.1,2.6,-2.6,2.6c-1.5,0,-2.7,-1.2,-2.7,-2.6c0,-1.5,1.2,-2.7,2.7,-2.7c1.5,0,2.6,1.2,2.6,2.7M460.8,615l2.7,0c0,1.5,-1.2,2.7,-2.7,2.7c-1.4,0,-2.6,-1.2,-2.6,-2.7c0,-1.5,1.2,-2.6,2.6,-2.6c1.5,0,2.7,1.1,2.7,2.6m224.2,0l2.7,0c0,1.5,-1.2,2.7,-2.7,2.7c-1.4,0,-2.6,-1.2,-2.6,-2.7c0,-1.5,1.2,-2.6,2.6,-2.6c1.5,0,2.7,1.1,2.7,2.6" class="g5_4" />
<path d="M563.7,485.9l21.2,0M563.7,744.2l21.2,0M460.8,604.4l0,21.2M687.7,604.4l0,21.2M574.3,480.6l0,10.6m0,247.6l0,10.7M455.5,615l10.7,0m216.2,0l10.7,0M574.3,485.9l2.6,0c0,1.4,-1.1,2.6,-2.6,2.6c-1.5,0,-2.7,-1.2,-2.7,-2.6c0,-1.5,1.2,-2.7,2.7,-2.7c1.5,0,2.6,1.2,2.6,2.7m-2.6,258.3l2.6,0c0,1.4,-1.1,2.6,-2.6,2.6c-1.5,0,-2.7,-1.2,-2.7,-2.6c0,-1.5,1.2,-2.7,2.7,-2.7c1.5,0,2.6,1.2,2.6,2.7M460.8,615l2.7,0c0,1.5,-1.2,2.7,-2.7,2.7c-1.4,0,-2.6,-1.2,-2.6,-2.7c0,-1.5,1.2,-2.6,2.6,-2.6c1.5,0,2.7,1.1,2.7,2.6m224.2,0l2.7,0c0,1.5,-1.2,2.7,-2.7,2.7c-1.4,0,-2.6,-1.2,-2.6,-2.7c0,-1.5,1.2,-2.6,2.6,-2.6c1.5,0,2.7,1.1,2.7,2.6" class="g6_4" />
</g>
<path d="M468.5,736.5l212,0l0,-242l-212,0l0,242Z" class="g7_4" />
<image x="961" y="908" width="174" height="174" xlink:href="https://majemastoragelive.blob.core.windows.net/learn-english-test/ebook/Grade3/wildanimals/page2/img/15.png" />
<path d="M285.5,781c0,0,-21.6,0,-21.6,21.7l0,249.5c0,0,0,21.7,21.6,21.7l631.2,0c0,0,21.6,0,21.6,-21.7l0,-249.5c0,0,0,-21.7,-21.6,-21.7Z" class="g4_4" />
<path d="M285.5,781c0,0,-21.6,0,-21.6,21.7l0,249.5c0,0,0,21.7,21.6,21.7l631.2,0c0,0,21.6,0,21.6,-21.7l0,-249.5c0,0,0,-21.7,-21.6,-21.7l-631.2,0Z" class="g8_4" />
<path d="M273.3,784.4c-4.1,2.1,-7.9,5.9,-9.3,12.1" class="g9_4" />
<path d="M263,812l0,236" class="g9_4" />
<path d="M266,1063.7c2.2,4.2,6,7.9,12.2,9.3" class="g9_4" />
<path d="M294,1073l618,0" class="g9_4" />
<path d="M928.2,1071c4.2,-2.2,7.9,-6,9.3,-12.2" class="g9_4" />
<path d="M938,1043l0,-236" class="g9_4" />
<path d="M935.5,791.6c-2.2,-4.1,-6,-7.9,-12.2,-9.3" class="g9_4" />
<path d="M907,781l-619,0" class="g9_4" />
<path d="M263,801l0,0m0,252l0,0m20,20l0,0m635,0l0,0m20,-20l0,0m0,-252l0,0M918,781l0,0m-635,0l0,0" class="g10_4" />
<path d="M520.5,826.5l275,0" class="g11_4" />
<path d="M492.5,870.5l303,0" class="g11_4" />
<path d="M483.5,914.5l312,0" class="g11_4" />
<path d="M403.5,958.5l394,0" class="g11_4" />
<path d="M511.5,1003.5l285,0" class="g11_4" />
<path d="M482.5,1047.5l221,0" class="g11_4" />
<path d="M0,1190l214,0L214,0L0,0L0,1190Z" class="g12_4" />
<g clip-path="url(#c0_4)">
<path d="M210.2,1137.1l1.5,1.6c0.3,-0.3,0.7,-0.6,0.8,-0.9l-1.5,-1.6l1.5,-1.7c-0.1,-0.3,-0.5,-0.6,-0.8,-0.8l-1.5,1.6l-1.4,-1.6c-0.3,0.2,-0.7,0.5,-0.8,0.8l1.5,1.7l-1.5,1.6c0.1,0.3,0.5,0.6,0.8,0.9Zm0,15.9l1.5,1.7c0.3,-0.3,0.7,-0.6,0.8,-0.9l-1.5,-1.6l1.5,-1.7c-0.1,-0.3,-0.5,-0.6,-0.8,-0.8l-1.5,1.6l-1.4,-1.6c-0.3,0.2,-0.7,0.5,-0.8,0.8l1.5,1.7l-1.5,1.6c0.1,0.3,0.5,0.6,0.8,0.9Zm0,48l1.5,1.6c0.3,-0.2,0.7,-0.6,0.8,-0.8l-1.5,-1.7l1.5,-1.6c-0.1,-0.4,-0.5,-0.6,-0.8,-0.9l-1.5,1.7l-1.4,-1.7c-0.3,0.3,-0.7,0.5,-0.8,0.9l1.5,1.6l-1.5,1.7c0.1,0.2,0.5,0.6,0.8,0.8Zm0,-32l1.5,1.7c0.3,-0.3,0.7,-0.6,0.8,-0.9l-1.5,-1.6l1.5,-1.7c-0.1,-0.3,-0.5,-0.6,-0.8,-0.9l-1.5,1.7l-1.4,-1.7c-0.3,0.3,-0.7,0.6,-0.8,0.9l1.5,1.7l-1.5,1.6c0.1,0.3,0.5,0.6,0.8,0.9Zm0,16l1.5,1.7c0.3,-0.3,0.7,-0.7,0.8,-0.9l-1.5,-1.7l1.5,-1.6c-0.1,-0.4,-0.5,-0.6,-0.8,-0.9l-1.5,1.7l-1.4,-1.7c-0.3,0.3,-0.7,0.5,-0.8,0.9l1.5,1.6l-1.5,1.7c0.1,0.2,0.5,0.6,0.8,0.9Zm0,-129.6l1.5,1.7c0.3,-0.3,0.7,-0.6,0.8,-0.9l-1.5,-1.7l1.5,-1.6c-0.1,-0.4,-0.5,-0.6,-0.8,-0.9l-1.5,1.7l-1.4,-1.7c-0.3,0.3,-0.7,0.5,-0.8,0.9l1.5,1.6l-1.5,1.7c0.1,0.3,0.5,0.6,0.8,0.9Zm0,16l1.5,1.6c0.3,-0.2,0.7,-0.6,0.8,-0.8l-1.5,-1.7l1.5,-1.6c-0.1,-0.4,-0.5,-0.6,-0.8,-0.9l-1.5,1.7l-1.4,-1.7c-0.3,0.3,-0.7,0.5,-0.8,0.9l1.5,1.6l-1.5,1.7c0.1,0.2,0.5,0.6,0.8,0.8Zm0,47.9l1.5,1.7c0.3,-0.3,0.7,-0.6,0.8,-0.9l-1.5,-1.6l1.5,-1.7c-0.1,-0.3,-0.5,-0.6,-0.8,-0.8l-1.5,1.6l-1.4,-1.6c-0.3,0.2,-0.7,0.5,-0.8,0.8l1.5,1.7l-1.5,1.6c0.1,0.3,0.5,0.6,0.8,0.9Zm0,-31.9l1.5,1.6c0.3,-0.2,0.7,-0.6,0.8,-0.8l-1.5,-1.7l1.5,-1.6c-0.1,-0.4,-0.5,-0.6,-0.8,-0.9l-1.5,1.6l-1.4,-1.6c-0.3,0.3,-0.7,0.5,-0.8,0.9l1.5,1.6l-1.5,1.7c0.1,0.2,0.5,0.6,0.8,0.8Zm0,16l1.5,1.6c0.3,-0.2,0.7,-0.6,0.8,-0.9l-1.5,-1.6l1.5,-1.7c-0.1,-0.3,-0.5,-0.6,-0.8,-0.8l-1.5,1.6l-1.4,-1.6c-0.3,0.2,-0.7,0.5,-0.8,0.8l1.5,1.7l-1.5,1.6c0.1,0.3,0.5,0.7,0.8,0.9Zm0,-129.6l1.5,1.6c0.3,-0.2,0.7,-0.6,0.8,-0.9L211,972.9l1.5,-1.7c-0.1,-0.3,-0.5,-0.6,-0.8,-0.8l-1.5,1.6l-1.4,-1.6c-0.3,0.2,-0.7,0.5,-0.8,0.8l1.5,1.7l-1.5,1.6c0.1,0.3,0.5,0.7,0.8,0.9Zm0,16l1.5,1.6c0.3,-0.3,0.7,-0.6,0.8,-0.9L211,988.9l1.5,-1.7c-0.1,-0.3,-0.5,-0.6,-0.8,-0.8l-1.5,1.6l-1.4,-1.6c-0.3,0.2,-0.7,0.5,-0.8,0.8l1.5,1.7l-1.5,1.6c0.1,0.3,0.5,0.6,0.8,0.9Zm0,47.9l1.5,1.6c0.3,-0.2,0.7,-0.6,0.8,-0.8l-1.5,-1.7l1.5,-1.6c-0.1,-0.4,-0.5,-0.6,-0.8,-0.9l-1.5,1.7l-1.4,-1.7c-0.3,0.3,-0.7,0.5,-0.8,0.9l1.5,1.6l-1.5,1.7c0.1,0.2,0.5,0.6,0.8,0.8Zm0,-32l1.5,1.7c0.3,-0.3,0.7,-0.6,0.8,-0.9l-1.5,-1.6l1.5,-1.7c-0.1,-0.3,-0.5,-0.6,-0.8,-0.9l-1.5,1.7l-1.4,-1.7c-0.3,0.3,-0.7,0.6,-0.8,0.9l1.5,1.7l-1.5,1.6c0.1,0.3,0.5,0.6,0.8,0.9Zm0,16l1.5,1.7c0.3,-0.3,0.7,-0.6,0.8,-0.9l-1.5,-1.7l1.5,-1.6c-0.1,-0.4,-0.5,-0.6,-0.8,-0.9l-1.5,1.7l-1.4,-1.7c-0.3,0.3,-0.7,0.5,-0.8,0.9l1.5,1.6l-1.5,1.7c0.1,0.3,0.5,0.6,0.8,0.9Zm0,-129.6l1.5,1.7c0.3,-0.3,0.7,-0.6,0.8,-0.9L211,891.3l1.5,-1.7c-0.1,-0.3,-0.5,-0.6,-0.8,-0.9l-1.5,1.7l-1.4,-1.7c-0.3,0.3,-0.7,0.6,-0.8,0.9l1.5,1.7l-1.5,1.6c0.1,0.3,0.5,0.6,0.8,0.9Zm0,16l1.5,1.7c0.3,-0.3,0.7,-0.7,0.8,-0.9L211,907.2l1.5,-1.6c-0.1,-0.4,-0.5,-0.6,-0.8,-0.9l-1.5,1.7l-1.4,-1.7c-0.3,0.3,-0.7,0.5,-0.8,0.9l1.5,1.6l-1.5,1.7c0.1,0.2,0.5,0.6,0.8,0.9Zm0,48l1.5,1.6c0.3,-0.3,0.7,-0.6,0.8,-0.9L211,955.2l1.5,-1.7c-0.1,-0.3,-0.5,-0.6,-0.8,-0.8l-1.5,1.6l-1.4,-1.6c-0.3,0.2,-0.7,0.5,-0.8,0.8l1.5,1.7l-1.5,1.6c0.1,0.3,0.5,0.6,0.8,0.9Zm0,-32l1.5,1.6c0.3,-0.2,0.7,-0.6,0.8,-0.8L211,923.2l1.5,-1.6c-0.1,-0.4,-0.5,-0.6,-0.8,-0.9l-1.5,1.7l-1.4,-1.7c-0.3,0.3,-0.7,0.5,-0.8,0.9l1.5,1.6l-1.5,1.7c0.1,0.2,0.5,0.6,0.8,0.8Zm0,16l1.5,1.6c0.3,-0.2,0.7,-0.6,0.8,-0.8L211,939.2l1.5,-1.6c-0.1,-0.4,-0.5,-0.7,-0.8,-0.9l-1.5,1.6l-1.4,-1.6c-0.3,0.2,-0.7,0.5,-0.8,0.9l1.5,1.6l-1.5,1.7c0.1,0.2,0.5,0.6,0.8,0.8Zm0,-129.6l1.5,1.6c0.3,-0.2,0.7,-0.6,0.8,-0.8L211,809.6l1.5,-1.6c-0.1,-0.4,-0.5,-0.7,-0.8,-0.9l-1.5,1.6l-1.4,-1.6c-0.3,0.2,-0.7,0.5,-0.8,0.9l1.5,1.6l-1.5,1.7c0.1,0.2,0.5,0.6,0.8,0.8Zm0,16l1.5,1.6c0.3,-0.3,0.7,-0.6,0.8,-0.9L211,825.6l1.5,-1.7c-0.1,-0.3,-0.5,-0.6,-0.8,-0.8l-1.5,1.6l-1.4,-1.6c-0.3,0.2,-0.7,0.5,-0.8,0.8l1.5,1.7l-1.5,1.6c0.1,0.3,0.5,0.6,0.8,0.9Zm0,47.9l1.5,1.7c0.3,-0.3,0.7,-0.7,0.8,-0.9L211,873.5l1.5,-1.6c-0.1,-0.4,-0.5,-0.6,-0.8,-0.9l-1.5,1.7L208.8,871c-0.3,0.3,-0.7,0.5,-0.8,0.9l1.5,1.6l-1.5,1.7c0.1,0.2,0.5,0.6,0.8,0.9Zm0,-32l1.5,1.7c0.3,-0.3,0.7,-0.6,0.8,-0.9L211,841.6l1.5,-1.7c-0.1,-0.3,-0.5,-0.6,-0.8,-0.8l-1.5,1.6l-1.4,-1.6c-0.3,0.2,-0.7,0.5,-0.8,0.8l1.5,1.7l-1.5,1.6c0.1,0.3,0.5,0.6,0.8,0.9Zm0,16l1.5,1.7c0.3,-0.3,0.7,-0.6,0.8,-0.9L211,857.6l1.5,-1.7c-0.1,-0.3,-0.5,-0.6,-0.8,-0.9l-1.5,1.7L208.8,855c-0.3,0.3,-0.7,0.6,-0.8,0.9l1.5,1.7l-1.5,1.6c0.1,0.3,0.5,0.6,0.8,0.9Zm0,-129.6l1.5,1.7c0.3,-0.3,0.7,-0.6,0.8,-0.9L211,728l1.5,-1.7c-0.1,-0.3,-0.5,-0.6,-0.8,-0.9l-1.5,1.7l-1.4,-1.7c-0.3,0.3,-0.7,0.6,-0.8,0.9l1.5,1.7l-1.5,1.6c0.1,0.3,0.5,0.6,0.8,0.9Zm0,16l1.5,1.7c0.3,-0.3,0.7,-0.6,0.8,-0.9L211,743.9l1.5,-1.6c-0.1,-0.4,-0.5,-0.6,-0.8,-0.9l-1.5,1.7l-1.4,-1.7c-0.3,0.3,-0.7,0.5,-0.8,0.9l1.5,1.6l-1.5,1.7c0.1,0.3,0.5,0.6,0.8,0.9Zm0,48l1.5,1.6c0.3,-0.3,0.7,-0.6,0.8,-0.9L211,791.9l1.5,-1.7c-0.1,-0.3,-0.5,-0.6,-0.8,-0.8l-1.5,1.6l-1.4,-1.6c-0.3,0.2,-0.7,0.5,-0.8,0.8l1.5,1.7l-1.5,1.6c0.1,0.3,0.5,0.6,0.8,0.9Zm0,-32l1.5,1.6c0.3,-0.2,0.7,-0.6,0.8,-0.8L211,759.9l1.5,-1.6c-0.1,-0.4,-0.5,-0.6,-0.8,-0.9l-1.5,1.7l-1.4,-1.7c-0.3,0.3,-0.7,0.5,-0.8,0.9l1.5,1.6l-1.5,1.7c0.1,0.2,0.5,0.6,0.8,0.8Zm0,16l1.5,1.6c0.3,-0.2,0.7,-0.6,0.8,-0.8L211,775.9l1.5,-1.6c-0.1,-0.4,-0.5,-0.6,-0.8,-0.9l-1.5,1.6l-1.4,-1.6c-0.3,0.3,-0.7,0.5,-0.8,0.9l1.5,1.6l-1.5,1.7c0.1,0.2,0.5,0.6,0.8,0.8Zm0,-129.6l1.5,1.6c0.3,-0.2,0.7,-0.6,0.8,-0.8L211,646.3l1.5,-1.6c-0.1,-0.4,-0.5,-0.6,-0.8,-0.9l-1.5,1.6l-1.4,-1.6c-0.3,0.3,-0.7,0.5,-0.8,0.9l1.5,1.6L208,648c0.1,0.2,0.5,0.6,0.8,0.8Zm0,16l1.5,1.6c0.3,-0.2,0.7,-0.6,0.8,-0.9L211,662.3l1.5,-1.7c-0.1,-0.3,-0.5,-0.6,-0.8,-0.8l-1.5,1.6l-1.4,-1.6c-0.3,0.2,-0.7,0.5,-0.8,0.8l1.5,1.7l-1.5,1.6c0.1,0.3,0.5,0.7,0.8,0.9Zm0,47.9l1.5,1.7c0.3,-0.3,0.7,-0.6,0.8,-0.9L211,710.2l1.5,-1.6c-0.1,-0.4,-0.5,-0.6,-0.8,-0.9l-1.5,1.7l-1.4,-1.7c-0.3,0.3,-0.7,0.5,-0.8,0.9l1.5,1.6l-1.5,1.7c0.1,0.3,0.5,0.6,0.8,0.9Zm0,-31.9l1.5,1.6c0.3,-0.3,0.7,-0.6,0.8,-0.9L211,678.3l1.5,-1.7c-0.1,-0.3,-0.5,-0.6,-0.8,-0.8l-1.5,1.6l-1.4,-1.6c-0.3,0.2,-0.7,0.5,-0.8,0.8l1.5,1.7l-1.5,1.6c0.1,0.3,0.5,0.6,0.8,0.9Zm0,15.9l1.5,1.7c0.3,-0.3,0.7,-0.6,0.8,-0.9L211,694.3l1.5,-1.7c-0.1,-0.3,-0.5,-0.6,-0.8,-0.9l-1.5,1.7l-1.4,-1.7c-0.3,0.3,-0.7,0.6,-0.8,0.9l1.5,1.7l-1.5,1.6c0.1,0.3,0.5,0.6,0.8,0.9Zm0,-129.6l1.5,1.7c0.3,-0.3,0.7,-0.6,0.8,-0.9L211,564.7l1.5,-1.7c-0.1,-0.3,-0.5,-0.6,-0.8,-0.8l-1.5,1.6l-1.4,-1.6c-0.3,0.2,-0.7,0.5,-0.8,0.8l1.5,1.7l-1.5,1.6c0.1,0.3,0.5,0.6,0.8,0.9Zm0,16l1.5,1.7c0.3,-0.3,0.7,-0.6,0.8,-0.9L211,580.7l1.5,-1.7c-0.1,-0.3,-0.5,-0.6,-0.8,-0.9l-1.5,1.7l-1.4,-1.7c-0.3,0.3,-0.7,0.6,-0.8,0.9l1.5,1.7l-1.5,1.6c0.1,0.3,0.5,0.6,0.8,0.9Zm0,48l1.5,1.6c0.3,-0.2,0.7,-0.6,0.8,-0.8L211,628.6l1.5,-1.7c-0.1,-0.3,-0.5,-0.6,-0.8,-0.8l-1.5,1.6l-1.4,-1.6c-0.3,0.2,-0.7,0.5,-0.8,0.8l1.5,1.7l-1.5,1.7c0.1,0.2,0.5,0.6,0.8,0.8Zm0,-32l1.5,1.7c0.3,-0.3,0.7,-0.7,0.8,-0.9L211,596.6l1.5,-1.6c-0.1,-0.4,-0.5,-0.6,-0.8,-0.9l-1.5,1.7l-1.4,-1.7c-0.3,0.3,-0.7,0.5,-0.8,0.9l1.5,1.6l-1.5,1.7c0.1,0.2,0.5,0.6,0.8,0.9Zm0,16l1.5,1.6c0.3,-0.2,0.7,-0.6,0.8,-0.8L211,612.6l1.5,-1.6c-0.1,-0.4,-0.5,-0.6,-0.8,-0.9l-1.5,1.7l-1.4,-1.7c-0.3,0.3,-0.7,0.5,-0.8,0.9l1.5,1.6l-1.5,1.7c0.1,0.2,0.5,0.6,0.8,0.8Zm0,-129.6l1.5,1.6c0.3,-0.2,0.7,-0.6,0.8,-0.8L211,483l1.5,-1.6c-0.1,-0.4,-0.5,-0.6,-0.8,-0.9l-1.5,1.7l-1.4,-1.7c-0.3,0.3,-0.7,0.5,-0.8,0.9l1.5,1.6l-1.5,1.7c0.1,0.2,0.5,0.6,0.8,0.8Zm0,16l1.5,1.6c0.3,-0.2,0.7,-0.6,0.8,-0.8L211,499l1.5,-1.6c-0.1,-0.4,-0.5,-0.6,-0.8,-0.9l-1.5,1.6l-1.4,-1.6c-0.3,0.3,-0.7,0.5,-0.8,0.9l1.5,1.6l-1.5,1.7c0.1,0.2,0.5,0.6,0.8,0.8Zm0,47.9l1.5,1.7c0.3,-0.3,0.7,-0.6,0.8,-0.9L211,547l1.5,-1.7c-0.1,-0.3,-0.5,-0.6,-0.8,-0.9l-1.5,1.7l-1.4,-1.7c-0.3,0.3,-0.7,0.6,-0.8,0.9l1.5,1.7l-1.5,1.6c0.1,0.3,0.5,0.6,0.8,0.9Zm0,-31.9l1.5,1.6c0.3,-0.3,0.7,-0.6,0.8,-0.9L211,515l1.5,-1.7c-0.1,-0.3,-0.5,-0.6,-0.8,-0.8l-1.5,1.6l-1.4,-1.6c-0.3,0.2,-0.7,0.5,-0.8,0.8l1.5,1.7l-1.5,1.6c0.1,0.3,0.5,0.6,0.8,0.9Zm0,15.9l1.5,1.7c0.3,-0.3,0.7,-0.6,0.8,-0.9L211,531l1.5,-1.7c-0.1,-0.3,-0.5,-0.6,-0.8,-0.8l-1.5,1.6l-1.4,-1.6c-0.3,0.2,-0.7,0.5,-0.8,0.8l1.5,1.7l-1.5,1.6c0.1,0.3,0.5,0.6,0.8,0.9Zm0,-129.5l1.5,1.6c0.3,-0.3,0.7,-0.6,0.8,-0.9L211,401.4l1.5,-1.7c-0.1,-0.3,-0.5,-0.6,-0.8,-0.8l-1.5,1.6l-1.4,-1.6c-0.3,0.2,-0.7,0.5,-0.8,0.8l1.5,1.7L208,403c0.1,0.3,0.5,0.6,0.8,0.9Zm0,15.9l1.5,1.7c0.3,-0.3,0.7,-0.6,0.8,-0.9L211,417.4l1.5,-1.7c-0.1,-0.3,-0.5,-0.6,-0.8,-0.9l-1.5,1.7l-1.4,-1.7c-0.3,0.3,-0.7,0.6,-0.8,0.9l1.5,1.7L208,419c0.1,0.3,0.5,0.6,0.8,0.9Zm0,48l1.5,1.6c0.3,-0.2,0.7,-0.6,0.8,-0.8L211,465.3l1.5,-1.6c-0.1,-0.4,-0.5,-0.6,-0.8,-0.9l-1.5,1.6l-1.4,-1.6c-0.3,0.3,-0.7,0.5,-0.8,0.9l1.5,1.6L208,467c0.1,0.2,0.5,0.6,0.8,0.8Zm0,-32l1.5,1.7c0.3,-0.3,0.7,-0.6,0.8,-0.9L211,433.3l1.5,-1.6c-0.1,-0.4,-0.5,-0.6,-0.8,-0.9l-1.5,1.7l-1.4,-1.7c-0.3,0.3,-0.7,0.5,-0.8,0.9l1.5,1.6L208,435c0.1,0.3,0.5,0.6,0.8,0.9Zm0,16l1.5,1.6c0.3,-0.2,0.7,-0.6,0.8,-0.8L211,449.3l1.5,-1.6c-0.1,-0.4,-0.5,-0.6,-0.8,-0.9l-1.5,1.7l-1.4,-1.7c-0.3,0.3,-0.7,0.5,-0.8,0.9l1.5,1.6L208,451c0.1,0.2,0.5,0.6,0.8,0.8Zm0,-129.6l1.5,1.7c0.3,-0.3,0.7,-0.7,0.8,-0.9L211,319.7l1.5,-1.6c-0.1,-0.4,-0.5,-0.6,-0.8,-0.9l-1.5,1.7l-1.4,-1.7c-0.3,0.3,-0.7,0.5,-0.8,0.9l1.5,1.6l-1.5,1.7c0.1,0.2,0.5,0.6,0.8,0.9Zm0,16l1.5,1.6c0.3,-0.2,0.7,-0.6,0.8,-0.8L211,335.7l1.5,-1.6c-0.1,-0.4,-0.5,-0.6,-0.8,-0.9l-1.5,1.6l-1.4,-1.6c-0.3,0.3,-0.7,0.5,-0.8,0.9l1.5,1.6l-1.5,1.7c0.1,0.2,0.5,0.6,0.8,0.8Zm0,47.9l1.5,1.7c0.3,-0.3,0.7,-0.6,0.8,-0.9L211,383.7l1.5,-1.7c-0.1,-0.3,-0.5,-0.6,-0.8,-0.9l-1.5,1.7l-1.4,-1.7c-0.3,0.3,-0.7,0.6,-0.8,0.9l1.5,1.7l-1.5,1.6c0.1,0.3,0.5,0.6,0.8,0.9Zm0,-31.9l1.5,1.6c0.3,-0.2,0.7,-0.6,0.8,-0.8L211,351.7l1.5,-1.7c-0.1,-0.3,-0.5,-0.6,-0.8,-0.8l-1.5,1.6l-1.4,-1.6c-0.3,0.2,-0.7,0.5,-0.8,0.8l1.5,1.7l-1.5,1.7c0.1,0.2,0.5,0.6,0.8,0.8Zm0,16l1.5,1.6c0.3,-0.3,0.7,-0.6,0.8,-0.9L211,367.7l1.5,-1.7c-0.1,-0.3,-0.5,-0.6,-0.8,-0.8l-1.5,1.6l-1.4,-1.6c-0.3,0.2,-0.7,0.5,-0.8,0.8l1.5,1.7l-1.5,1.6c0.1,0.3,0.5,0.6,0.8,0.9Zm0,-129.6l1.5,1.6c0.3,-0.3,0.7,-0.6,0.8,-0.9L211,238.1l1.5,-1.7c-0.1,-0.3,-0.5,-0.6,-0.8,-0.8l-1.5,1.6l-1.4,-1.6c-0.3,0.2,-0.7,0.5,-0.8,0.8l1.5,1.7l-1.5,1.6c0.1,0.3,0.5,0.6,0.8,0.9Zm0,15.9l1.5,1.7c0.3,-0.3,0.7,-0.6,0.8,-0.9L211,254.1l1.5,-1.7c-0.1,-0.3,-0.5,-0.6,-0.8,-0.8l-1.5,1.6l-1.4,-1.6c-0.3,0.2,-0.7,0.5,-0.8,0.8l1.5,1.7l-1.5,1.6c0.1,0.3,0.5,0.6,0.8,0.9Zm0,48l1.5,1.6c0.3,-0.2,0.7,-0.6,0.8,-0.8L211,302l1.5,-1.6c-0.1,-0.4,-0.5,-0.6,-0.8,-0.9l-1.5,1.6l-1.4,-1.6c-0.3,0.3,-0.7,0.5,-0.8,0.9l1.5,1.6l-1.5,1.7c0.1,0.2,0.5,0.6,0.8,0.8Zm0,-32l1.5,1.7c0.3,-0.3,0.7,-0.6,0.8,-0.9L211,270.1l1.5,-1.7c-0.1,-0.3,-0.5,-0.6,-0.8,-0.9l-1.5,1.7l-1.4,-1.7c-0.3,0.3,-0.7,0.6,-0.8,0.9l1.5,1.7l-1.5,1.6c0.1,0.3,0.5,0.6,0.8,0.9Zm0,16l1.5,1.7c0.3,-0.3,0.7,-0.7,0.8,-0.9L211,286l1.5,-1.6c-0.1,-0.4,-0.5,-0.6,-0.8,-0.9l-1.5,1.7l-1.4,-1.7c-0.3,0.3,-0.7,0.5,-0.8,0.9l1.5,1.6l-1.5,1.7c0.1,0.2,0.5,0.6,0.8,0.9Zm0,-129.6l1.5,1.7c0.3,-0.3,0.7,-0.6,0.8,-0.9L211,156.4l1.5,-1.6c-0.1,-0.4,-0.5,-0.6,-0.8,-0.9l-1.5,1.7l-1.4,-1.7c-0.3,0.3,-0.7,0.5,-0.8,0.9l1.5,1.6l-1.5,1.7c0.1,0.3,0.5,0.6,0.8,0.9Zm0,16l1.5,1.6c0.3,-0.2,0.7,-0.6,0.8,-0.8L211,172.4l1.5,-1.6c-0.1,-0.4,-0.5,-0.6,-0.8,-0.9l-1.5,1.7l-1.4,-1.7c-0.3,0.3,-0.7,0.5,-0.8,0.9l1.5,1.6l-1.5,1.7c0.1,0.2,0.5,0.6,0.8,0.8Zm0,47.9l1.5,1.7c0.3,-0.3,0.7,-0.6,0.8,-0.9L211,220.4l1.5,-1.7c-0.1,-0.3,-0.5,-0.6,-0.8,-0.8l-1.5,1.6l-1.4,-1.6c-0.3,0.2,-0.7,0.5,-0.8,0.8l1.5,1.7L208,222c0.1,0.3,0.5,0.6,0.8,0.9Zm0,-31.9l1.5,1.6c0.3,-0.2,0.7,-0.6,0.8,-0.8L211,188.4l1.5,-1.6c-0.1,-0.4,-0.5,-0.6,-0.8,-0.9l-1.5,1.6l-1.4,-1.6c-0.3,0.3,-0.7,0.5,-0.8,0.9l1.5,1.6l-1.5,1.7c0.1,0.2,0.5,0.6,0.8,0.8Zm0,16l1.5,1.6c0.3,-0.3,0.7,-0.6,0.8,-0.9L211,204.4l1.5,-1.7c-0.1,-0.3,-0.5,-0.6,-0.8,-0.8l-1.5,1.6l-1.4,-1.6c-0.3,0.2,-0.7,0.5,-0.8,0.8l1.5,1.7L208,206c0.1,0.3,0.5,0.6,0.8,0.9Zm0,-129.6l1.5,1.6c0.3,-0.2,0.7,-0.6,0.8,-0.8L211,74.8l1.5,-1.7c-0.1,-0.3,-0.5,-0.6,-0.8,-0.8l-1.5,1.6l-1.4,-1.6c-0.3,0.2,-0.7,0.5,-0.8,0.8l1.5,1.7L208,76.5c0.1,0.2,0.5,0.6,0.8,0.8Zm0,16l1.5,1.6c0.3,-0.3,0.7,-0.6,0.8,-0.9L211,90.8l1.5,-1.7c-0.1,-0.3,-0.5,-0.6,-0.8,-0.8l-1.5,1.6l-1.4,-1.6c-0.3,0.2,-0.7,0.5,-0.8,0.8l1.5,1.7L208,92.4c0.1,0.3,0.5,0.6,0.8,0.9Zm0,47.9l1.5,1.6c0.3,-0.2,0.7,-0.6,0.8,-0.8L211,138.7l1.5,-1.6c-0.1,-0.4,-0.5,-0.6,-0.8,-0.9l-1.5,1.7l-1.4,-1.7c-0.3,0.3,-0.7,0.5,-0.8,0.9l1.5,1.6l-1.5,1.7c0.1,0.2,0.5,0.6,0.8,0.8Zm0,-32l1.5,1.7c0.3,-0.3,0.7,-0.6,0.8,-0.9L211,106.8l1.5,-1.7c-0.1,-0.3,-0.5,-0.6,-0.8,-0.9l-1.5,1.7l-1.4,-1.7c-0.3,0.3,-0.7,0.6,-0.8,0.9l1.5,1.7l-1.5,1.6c0.1,0.3,0.5,0.6,0.8,0.9Zm0,16l1.5,1.7c0.3,-0.3,0.7,-0.6,0.8,-0.9L211,122.7l1.5,-1.6c-0.1,-0.4,-0.5,-0.6,-0.8,-0.9l-1.5,1.7l-1.4,-1.7c-0.3,0.3,-0.7,0.5,-0.8,0.9l1.5,1.6l-1.5,1.7c0.1,0.3,0.5,0.6,0.8,0.9Zm0,-126l1.5,1.6c0.3,-0.2,0.7,-0.6,0.8,-0.8L211,-3.3l1.5,-1.6c-0.1,-0.4,-0.5,-0.6,-0.8,-0.9l-1.5,1.7l-1.4,-1.7c-0.3,0.3,-0.7,0.5,-0.8,0.9l1.5,1.6L208,-1.6c0.1,0.2,0.5,0.6,0.8,0.8Zm0,15.9l1.5,1.6c0.3,-0.2,0.7,-0.6,0.8,-0.8L211,12.6L212.5,11c-0.1,-0.4,-0.5,-0.6,-0.8,-0.9l-1.5,1.6l-1.4,-1.6c-0.3,0.3,-0.7,0.5,-0.8,0.9l1.5,1.6L208,14.3c0.1,0.2,0.5,0.6,0.8,0.8Zm0,47.9l1.5,1.7c0.3,-0.3,0.7,-0.6,0.8,-0.9L211,60.6l1.5,-1.7C212.4,58.6,212,58.3,211.7,58l-1.5,1.7L208.8,58c-0.3,0.3,-0.7,0.6,-0.8,0.9l1.5,1.7L208,62.2c0.1,0.3,0.5,0.6,0.8,0.9Zm0,-31.9l1.5,1.6c0.3,-0.2,0.7,-0.6,0.8,-0.9L211,28.6l1.5,-1.7c-0.1,-0.3,-0.5,-0.6,-0.8,-0.8l-1.5,1.6l-1.4,-1.6c-0.3,0.2,-0.7,0.5,-0.8,0.8l1.5,1.7L208,30.2c0.1,0.3,0.5,0.7,0.8,0.9Zm0,15.9l1.5,1.7c0.3,-0.3,0.7,-0.6,0.8,-0.9L211,44.6l1.5,-1.7c-0.1,-0.3,-0.5,-0.6,-0.8,-0.8l-1.5,1.6l-1.4,-1.6c-0.3,0.2,-0.7,0.5,-0.8,0.8l1.5,1.7L208,46.2c0.1,0.3,0.5,0.6,0.8,0.9Z" class="g4_4" />
</g>
<path d="M62.8,960.1c0,0,-4,0,-4,4l0,20.6c0,0,0,4,4,4l93,0c0,0,4,0,4,-4l0,-20.6c0,0,0,-4,-4,-4Z" class="g13_4" />
<path d="M62.8,960.1c0,0,-4,0,-4,4l0,20.6c0,0,0,4,4,4l93,0c0,0,4,0,4,-4l0,-20.6c0,0,0,-4,-4,-4l-93,0Z" class="g14_4" />
<path d="M64.3,962.4l-0.6,-4.5m-0.9,5l-2,-4.2m1.1,4.9l-3.7,-2.7m3.2,3.8L56.8,964m4.5,2.6l-4.6,0m4.6,2.3l-4.6,0m4.6,2.3l-4.6,0m4.6,2.3l-4.6,0m4.6,2.3l-4.6,0m4.6,2.3l-4.6,0m4.6,2.4l-4.6,0m4.6,2.3l-4.6,0m4.7,1.4l-4.3,1.6m5,-0.3l-3.4,3m4.5,-2.3l-1.8,4.2m3.2,-4l0,4.6m2.3,-4.6l0,4.6m2.3,-4.6l0,4.6m2.3,-4.6l0,4.6m2.3,-4.6l0,4.6m2.3,-4.6l0,4.6m2.3,-4.6l0,4.6m2.3,-4.6l0,4.6M83,986.4l0,4.6m2.3,-4.6l0,4.6m2.3,-4.6l0,4.6m2.3,-4.6l0,4.6m2.3,-4.6l0,4.6m2.3,-4.6l0,4.6m2.4,-4.6l0,4.6m2.3,-4.6l0,4.6m2.3,-4.6l0,4.6m2.3,-4.6l0,4.6m2.3,-4.6l0,4.6m2.3,-4.6l0,4.6m2.3,-4.6l0,4.6m2.3,-4.6l0,4.6m2.3,-4.6l0,4.6m2.3,-4.6l0,4.6m2.3,-4.6l0,4.6m2.3,-4.6l0,4.6m2.3,-4.6l0,4.6m2.3,-4.6l0,4.6m2.3,-4.6l0,4.6m2.4,-4.6l0,4.6m2.3,-4.6l0,4.6m2.3,-4.6l0,4.6m2.3,-4.6l0,4.6m2.3,-4.6l0,4.6m2.3,-4.6l0,4.6m2.3,-4.6l0,4.6m2.3,-4.6l0,4.6m2.3,-4.6l0,4.6m2.3,-4.6l0,4.6m2.2,-4.6l0.2,4.6m1.2,-4.9l1.9,4.2M157,985.4l3.3,3.1m-2.8,-4.2l4.5,1.2m-4.3,-2.9l4.6,0m-4.6,-2.3l4.6,0M157.7,978l4.6,0m-4.6,-2.3l4.6,0m-4.6,-2.3l4.6,0m-4.6,-2.3l4.6,0m-4.6,-2.3l4.6,0m-4.6,-2.3l4.6,0m-4.7,-1.7l4.4,-1.2m-5.1,-0.1l3.8,-2.7m-4.5,2l1.7,-4.2m-3.2,3.8l0.2,-4.5m-2.4,4.5l0,-4.5m-2.3,4.5l0,-4.5m-2.3,4.5l0,-4.5m-2.3,4.5l0,-4.5m-2.3,4.5l0,-4.5m-2.3,4.5l0,-4.5m-2.3,4.5l0,-4.5m-2.3,4.5l0,-4.5m-2.3,4.5l0,-4.5m-2.3,4.5l0,-4.5m-2.4,4.5l0,-4.5m-2.3,4.5l0,-4.5m-2.3,4.5l0,-4.5m-2.3,4.5l0,-4.5m-2.3,4.5l0,-4.5m-2.3,4.5l0,-4.5m-2.3,4.5l0,-4.5m-2.3,4.5l0,-4.5m-2.3,4.5l0,-4.5m-2.3,4.5l0,-4.5m-2.3,4.5l0,-4.5m-2.3,4.5l0,-4.5m-2.3,4.5l0,-4.5m-2.3,4.5l0,-4.5m-2.3,4.5l0,-4.5m-2.3,4.5l0,-4.5m-2.4,4.5l0,-4.5m-2.3,4.5l0,-4.5m-2.3,4.5l0,-4.5m-2.3,4.5l0,-4.5m-2.3,4.5l0,-4.5M81,962.4l0,-4.5m-2.3,4.5l0,-4.5m-2.3,4.5l0,-4.5m-2.3,4.5l0,-4.5m-2.3,4.5l0,-4.5m-2.3,4.5l0,-4.5m-2.3,4.5l0,-4.5m-2.3,4.5l0,-4.5" class="g15_4" />
<use x="0" y="-15" xlink:href="#button"/>
<use x="0" y="-83" xlink:href="#button"/>
</svg>