<?xml version="1.0" encoding="UTF-8" standalone="no"?>
<!DOCTYPE svg PUBLIC "-//W3C//DTD SVG 1.1//EN"
"http://www.w3.org/Graphics/SVG/1.1/DTD/svg11.dtd">
<svg version="1.1" xmlns="http://www.w3.org/2000/svg" xmlns:xlink="http://www.w3.org/1999/xlink">
<defs>
<clipPath id="c0_3"><path d="M0.5,1190.5L0.5,0.5l1160,0l0,1190Z" /></clipPath>
<style type="text/css"><![CDATA[
	.btn_bg{
fill: #00A1BE;
}

	.btn_bortercolor{
fill: none;
stroke: #6DC6DA;
stroke-width: 5;
stroke-linecap: butt;
stroke-linejoin: miter;
stroke-miterlimit: 4;
}
	.btn_border{
fill: none;
stroke: #FFFFFF;
stroke-width: 1;
stroke-linecap: butt;
stroke-linejoin: miter;
stroke-miterlimit: 4;
}

.g7_3{
fill: none;
stroke: #FFFFFF;
stroke-width: 7;
stroke-linecap: round;
stroke-linejoin: round;
stroke-miterlimit: 4;
stroke-dasharray: 1,13;
}
.g3_3{
fill: #FFFFFF;
}
.g2_3{
fill: #00BEFF;
}
.g1_3{
fill: #F5AFCE;
}
.g11_3{
fill: none;
stroke: #62BDCE;
stroke-width: 5;
stroke-linecap: butt;
stroke-linejoin: miter;
stroke-miterlimit: 4;
}
.g8_3{
fill: none;
stroke: #FFFFFF;
stroke-width: 7;
stroke-linecap: round;
stroke-linejoin: round;
stroke-miterlimit: 4;
}
.g4_3{
fill: #F8BFD8;
}
.g9_3{
fill: none;
stroke: #F5AFCE;
stroke-width: 2;
stroke-linecap: butt;
stroke-linejoin: miter;
}
.g12_3{
fill: none;
stroke: #FFFFFF;
stroke-width: 1;
stroke-linecap: butt;
stroke-linejoin: miter;
stroke-miterlimit: 4;
}
.g6_3{
fill: none;
stroke: #FFFFFF;
stroke-width: 7;
stroke-linecap: round;
stroke-linejoin: round;
stroke-miterlimit: 4;
stroke-dasharray: 1,11;
}
.g5_3{
fill: none;
stroke: #F5AFCE;
stroke-width: 11;
stroke-linecap: butt;
stroke-linejoin: miter;
stroke-miterlimit: 4;
}
.g10_3{
fill: #0099B4;
}
]]></style>
</defs>
<g id="button" transform="translate(47,298.5)">
<path d="M7.4,2.3c0,0,-4.7,0,-4.7,4l0,20.6c0,0,0,3.9,4.7,3.9l110.3,0c0,0,4.7,0,4.7,-3.9l0,-20.6c0,0,0,-4,-4.7,-4Z" class="btn_bg" />
<path d="M7.4,2.3c0,0,-4.7,0,-4.7,4l0,20.6c0,0,0,3.9,4.7,3.9l110.3,0c0,0,4.7,0,4.7,-3.9l0,-20.6c0,0,0,-4,-4.7,-4l-110.3,0Z" class="btn_bortercolor" />
<path d="M9.2,4.6L8.6,0m-1.2,5l-2.3,-4.1m1.3,4.8L2,3m3.8,3.8l-5.4,-0.7m5.2,2.7l-5.4,0m5.4,2.3l-5.4,0m5.4,2.3l-5.4,0m5.4,2.3l-5.4,0m5.4,2.3l-5.4,0m5.4,2.3l-5.4,0m5.4,2.3l-5.4,0m5.4,2.3l-5.4,0m5.6,1.5L0.7,28m6,-0.4l-4.1,3.1m5.3,-2.4l-2.1,4.3m3.8,-4.1l0,4.6m2.7,-4.6l0,4.6" class="btn_border" />
<path d="M15,28.5l0,4.6m2.8,-4.6l0,4.6m2.7,-4.6l0,4.6m2.7,-4.6l0,4.6" class="btn_border" />
<path d="M26,28.5l0,4.6m2.7,-4.6l0,4.6m2.7,-4.6l0,4.6m2.8,-4.6l0,4.6m2.7,-4.6l0,4.6m2.7,-4.6l0,4.6m2.8,-4.6l0,4.6m2.7,-4.6l0,4.6m2.7,-4.6l0,4.6m2.8,-4.6l0,4.6m2.7,-4.6l0,4.6m2.7,-4.6l0,4.6m2.8,-4.6l0,4.6m2.7,-4.6l0,4.6m2.7,-4.6l0,4.6m2.8,-4.6l0,4.6m2.7,-4.6l0,4.6m2.7,-4.6l0,4.6m2.8,-4.6l0,4.6m2.7,-4.6l0,4.6m2.7,-4.6l0,4.6m2.8,-4.6l0,4.6m2.7,-4.6l0,4.6m2.7,-4.6l0,4.6m2.7,-4.6l0,4.6m2.8,-4.6l0,4.6m2.7,-4.6l0,4.6m2.7,-4.6l0,4.6m2.8,-4.6l0,4.6m2.7,-4.6l0,4.6m2.7,-4.6l0,4.6m2.8,-4.6l0,4.6m2.7,-4.6l0,4.6m2.6,-4.6l0.3,4.6m1.4,-4.8l2.3,4.1m-1,-4.9l4,3.1m-3.3,-4.2l5.3,1.3m-5.1,-2.9l5.4,0m-5.4,-2.3l5.4,0m-5.4,-2.3l5.4,0m-5.4,-2.3l5.4,0m-5.4,-2.3l5.4,0m-5.4,-2.4l5.4,0m-5.4,-2.3l5.4,0m-5.4,-2.3l5.4,0" class="btn_border" />
<path d="M119.8,7l5.2,-1.3m-6,-0.1l4.4,-2.7m-5.3,2l2.1,-4.2m-3.8,3.9l0.2,-4.6m-2.8,4.6l0,-4.6m-2.8,4.6l0,-4.6m-2.7,4.6l0,-4.6m-2.7,4.6l0,-4.6m-2.8,4.6l0,-4.6m-2.7,4.6l0,-4.6m-2.7,4.6l0,-4.6m-2.8,4.6l0,-4.6m-2.7,4.6l0,-4.6m-2.7,4.6l0,-4.6m-2.8,4.6l0,-4.6m-2.7,4.6l0,-4.6m-2.7,4.6l0,-4.6m-2.8,4.6l0,-4.6m-2.7,4.6l0,-4.6m-2.7,4.6l0,-4.6m-2.8,4.6l0,-4.6m-2.7,4.6l0,-4.6m-2.7,4.6l0,-4.6m-2.8,4.6l0,-4.6m-2.7,4.6l0,-4.6m-2.7,4.6l0,-4.6m-2.8,4.6l0,-4.6m-2.7,4.6l0,-4.6m-2.7,4.6l0,-4.6m-2.8,4.6l0,-4.6m-2.7,4.6l0,-4.6" class="btn_border" />
<path d="M40,4.6L40,0m-2.8,4.6l0,-4.6m-2.7,4.6l0,-4.6m-2.7,4.6l0,-4.6m-2.7,4.6l0,-4.6m-2.8,4.6l0,-4.6m-2.7,4.6l0,-4.6m-2.7,4.6l0,-4.6m-2.8,4.6l0,-4.6m-2.7,4.6l0,-4.6m-2.7,4.6l0,-4.6m-2.8,4.6l0,-4.6" class="btn_border" />
</g>
<g clip-path="url(#c0_3)">
<path d="M186,43.3l-1.5,1.5c0.2,0.3,0.5,0.6,0.8,0.8l1.5,-1.5l1.5,1.5c0.3,-0.2,0.6,-0.5,0.8,-0.8l-1.5,-1.5l1.5,-1.5c-0.2,-0.3,-0.5,-0.6,-0.8,-0.8l-1.5,1.5L185.3,41c-0.3,0.2,-0.6,0.5,-0.8,0.8Zm-14.8,0l-1.5,1.5c0.2,0.3,0.6,0.6,0.8,0.8L172,44.1l1.5,1.5c0.4,-0.2,0.6,-0.5,0.8,-0.8l-1.5,-1.5l1.5,-1.5c-0.2,-0.3,-0.4,-0.6,-0.8,-0.8L172,42.5L170.5,41c-0.2,0.2,-0.6,0.5,-0.8,0.8Zm-44.3,0l-1.5,1.5c0.3,0.3,0.6,0.6,0.8,0.8l1.5,-1.5l1.6,1.5c0.3,-0.2,0.5,-0.5,0.8,-0.8l-1.6,-1.5l1.6,-1.5c-0.3,-0.3,-0.5,-0.6,-0.8,-0.8l-1.6,1.5L126.2,41c-0.2,0.2,-0.5,0.5,-0.8,0.8Zm29.6,0l-1.6,1.5c0.3,0.3,0.6,0.6,0.8,0.8l1.6,-1.5l1.5,1.5c0.3,-0.2,0.5,-0.5,0.8,-0.8l-1.5,-1.5l1.5,-1.5c-0.3,-0.3,-0.5,-0.6,-0.8,-0.8l-1.5,1.5L155.7,41c-0.2,0.2,-0.5,0.5,-0.8,0.8Zm-14.8,0l-1.5,1.5c0.2,0.3,0.5,0.6,0.8,0.8l1.5,-1.5l1.5,1.5c0.4,-0.2,0.6,-0.5,0.8,-0.8l-1.5,-1.5l1.5,-1.5C144.6,41.5,144.4,41.2,144,41l-1.5,1.5L141,41c-0.3,0.2,-0.6,0.5,-0.8,0.8Zm119.7,0l-1.6,1.5c0.3,0.3,0.6,0.6,0.9,0.8l1.5,-1.5l1.5,1.5c0.3,-0.2,0.6,-0.5,0.8,-0.8L263,43.3l1.5,-1.5C264.3,41.5,264,41.2,263.7,41l-1.5,1.5L260.7,41c-0.3,0.2,-0.6,0.5,-0.9,0.8Zm-14.8,0l-1.5,1.5c0.2,0.3,0.6,0.6,0.8,0.8l1.5,-1.5l1.5,1.5c0.4,-0.2,0.6,-0.5,0.8,-0.8l-1.5,-1.5l1.5,-1.5c-0.2,-0.3,-0.4,-0.6,-0.8,-0.8l-1.5,1.5L245.9,41c-0.2,0.2,-0.6,0.5,-0.8,0.8Zm-44.3,0l-1.5,1.5c0.3,0.3,0.6,0.6,0.8,0.8l1.5,-1.5l1.6,1.5c0.3,-0.2,0.5,-0.5,0.8,-0.8l-1.6,-1.5l1.6,-1.5C205.2,41.5,205,41.2,204.7,41l-1.6,1.5L201.6,41c-0.2,0.2,-0.5,0.5,-0.8,0.8Zm29.6,0l-1.6,1.5c0.3,0.3,0.6,0.6,0.8,0.8l1.6,-1.5l1.5,1.5c0.3,-0.2,0.5,-0.5,0.8,-0.8l-1.5,-1.5L235,41.8c-0.3,-0.3,-0.5,-0.6,-0.8,-0.8l-1.5,1.5L231.1,41c-0.2,0.2,-0.5,0.5,-0.8,0.8Zm-14.8,0l-1.5,1.5c0.2,0.3,0.5,0.6,0.8,0.8l1.5,-1.5l1.5,1.5c0.3,-0.2,0.6,-0.5,0.8,-0.8l-1.5,-1.5l1.5,-1.5C220,41.5,219.7,41.2,219.4,41l-1.5,1.5L216.4,41c-0.3,0.2,-0.6,0.5,-0.8,0.8Zm119.7,0l-1.6,1.5c0.3,0.3,0.6,0.6,0.8,0.8l1.6,-1.5l1.5,1.5c0.3,-0.2,0.6,-0.5,0.8,-0.8l-1.5,-1.5l1.5,-1.5c-0.2,-0.3,-0.5,-0.6,-0.8,-0.8l-1.5,1.5L336,41c-0.2,0.2,-0.5,0.5,-0.8,0.8Zm-14.8,0l-1.5,1.5c0.2,0.3,0.5,0.6,0.8,0.8l1.5,-1.5l1.5,1.5c0.4,-0.2,0.6,-0.5,0.8,-0.8l-1.5,-1.5l1.5,-1.5c-0.2,-0.3,-0.4,-0.6,-0.8,-0.8l-1.5,1.5L321.3,41c-0.3,0.2,-0.6,0.5,-0.8,0.8Zm-44.3,0l-1.5,1.5c0.2,0.3,0.6,0.6,0.8,0.8l1.5,-1.5l1.6,1.5c0.3,-0.2,0.5,-0.5,0.8,-0.8l-1.6,-1.5l1.6,-1.5c-0.3,-0.3,-0.5,-0.6,-0.8,-0.8l-1.6,1.5L277,41c-0.2,0.2,-0.6,0.5,-0.8,0.8Zm29.5,0l-1.5,1.5c0.3,0.3,0.6,0.6,0.8,0.8l1.6,-1.5l1.5,1.5c0.3,-0.2,0.5,-0.5,0.8,-0.8l-1.5,-1.5l1.5,-1.5c-0.3,-0.3,-0.5,-0.6,-0.8,-0.8l-1.5,1.5L306.5,41c-0.2,0.2,-0.5,0.5,-0.8,0.8Zm-14.7,0L291,44.8c0.2,0.3,0.5,0.6,0.8,0.8l1.5,-1.5l1.5,1.5c0.3,-0.2,0.6,-0.5,0.8,-0.8l-1.5,-1.5l1.5,-1.5c-0.2,-0.3,-0.5,-0.6,-0.8,-0.8l-1.5,1.5L291.8,41c-0.3,0.2,-0.6,0.5,-0.8,0.8Zm119.7,0l-1.6,1.5c0.3,0.3,0.6,0.6,0.8,0.8L413,44.1l1.5,1.5c0.3,-0.2,0.5,-0.5,0.8,-0.8l-1.5,-1.5l1.5,-1.5C415,41.5,414.8,41.2,414.5,41L413,42.5L411.4,41c-0.2,0.2,-0.5,0.5,-0.8,0.8Zm-14.8,0l-1.5,1.5c0.2,0.3,0.5,0.6,0.8,0.8l1.5,-1.5l1.5,1.5c0.3,-0.2,0.6,-0.5,0.8,-0.8L399,43.3l1.5,-1.5C400.3,41.5,400,41.2,399.7,41l-1.5,1.5L396.7,41c-0.3,0.2,-0.6,0.5,-0.8,0.8Zm-44.3,0l-1.5,1.5c0.2,0.3,0.6,0.6,0.8,0.8l1.5,-1.5l1.6,1.5c0.3,-0.2,0.5,-0.5,0.8,-0.8l-1.6,-1.5l1.6,-1.5C356,41.5,355.8,41.2,355.5,41l-1.6,1.5L352.4,41c-0.2,0.2,-0.6,0.5,-0.8,0.8Zm29.5,0l-1.5,1.5c0.3,0.3,0.6,0.6,0.8,0.8l1.5,-1.5l1.6,1.5c0.3,-0.2,0.5,-0.5,0.8,-0.8l-1.6,-1.5l1.6,-1.5C385.5,41.5,385.3,41.2,385,41l-1.6,1.5L381.9,41c-0.2,0.2,-0.5,0.5,-0.8,0.8Zm-14.7,0l-1.5,1.5c0.2,0.3,0.5,0.6,0.8,0.8l1.5,-1.5l1.5,1.5c0.3,-0.2,0.6,-0.5,0.8,-0.8l-1.5,-1.5L371,41.8c-0.2,-0.3,-0.5,-0.6,-0.8,-0.8l-1.5,1.5L367.2,41c-0.3,0.2,-0.6,0.5,-0.8,0.8Zm119.7,0L486,44.8c0.3,0.3,0.6,0.6,0.8,0.8l1.6,-1.5l1.5,1.5c0.3,-0.2,0.5,-0.5,0.8,-0.8l-1.5,-1.5l1.5,-1.5c-0.3,-0.3,-0.5,-0.6,-0.8,-0.8l-1.5,1.5L486.8,41c-0.2,0.2,-0.5,0.5,-0.8,0.8Zm-14.8,0l-1.5,1.5c0.2,0.3,0.5,0.6,0.8,0.8l1.5,-1.5l1.5,1.5c0.3,-0.2,0.6,-0.5,0.8,-0.8l-1.5,-1.5l1.5,-1.5c-0.2,-0.3,-0.5,-0.6,-0.8,-0.8l-1.5,1.5L472.1,41c-0.3,0.2,-0.6,0.5,-0.8,0.8Zm-44.3,0L427,44.8c0.2,0.3,0.6,0.6,0.8,0.8l1.5,-1.5l1.5,1.5c0.4,-0.2,0.6,-0.5,0.8,-0.8l-1.5,-1.5l1.5,-1.5c-0.2,-0.3,-0.4,-0.6,-0.8,-0.8l-1.5,1.5L427.8,41c-0.2,0.2,-0.6,0.5,-0.8,0.8Zm29.5,0l-1.5,1.5c0.3,0.3,0.6,0.6,0.8,0.8l1.5,-1.5l1.6,1.5c0.3,-0.2,0.5,-0.5,0.8,-0.8l-1.6,-1.5l1.6,-1.5c-0.3,-0.3,-0.5,-0.6,-0.8,-0.8l-1.6,1.5L457.3,41c-0.2,0.2,-0.5,0.5,-0.8,0.8Zm-14.7,0l-1.5,1.5c0.2,0.3,0.5,0.6,0.8,0.8l1.5,-1.5l1.5,1.5c0.3,-0.2,0.6,-0.5,0.8,-0.8l-1.5,-1.5l1.5,-1.5c-0.2,-0.3,-0.5,-0.6,-0.8,-0.8l-1.5,1.5L442.6,41c-0.3,0.2,-0.6,0.5,-0.8,0.8Zm119.6,0l-1.5,1.5c0.3,0.3,0.6,0.6,0.8,0.8l1.5,-1.5l1.6,1.5c0.3,-0.2,0.5,-0.5,0.8,-0.8l-1.5,-1.5l1.5,-1.5c-0.3,-0.3,-0.5,-0.6,-0.8,-0.8l-1.6,1.5L562.2,41c-0.2,0.2,-0.5,0.5,-0.8,0.8Zm-14.7,0l-1.5,1.5c0.2,0.3,0.5,0.6,0.8,0.8L549,44.1l1.5,1.5c0.3,-0.2,0.6,-0.5,0.8,-0.8l-1.5,-1.5l1.5,-1.5c-0.2,-0.3,-0.5,-0.6,-0.8,-0.8L549,42.5L547.5,41c-0.3,0.2,-0.6,0.5,-0.8,0.8Zm-44.3,0l-1.5,1.5c0.2,0.3,0.6,0.6,0.8,0.8l1.5,-1.5l1.5,1.5c0.4,-0.2,0.6,-0.5,0.8,-0.8l-1.5,-1.5L507,41.8c-0.2,-0.3,-0.4,-0.6,-0.8,-0.8l-1.5,1.5L503.2,41c-0.2,0.2,-0.6,0.5,-0.8,0.8Zm29.5,0l-1.5,1.5c0.2,0.3,0.6,0.6,0.8,0.8l1.5,-1.5l1.6,1.5c0.3,-0.2,0.5,-0.5,0.8,-0.8L535,43.3l1.6,-1.5c-0.3,-0.3,-0.5,-0.6,-0.8,-0.8l-1.6,1.5L532.7,41c-0.2,0.2,-0.6,0.5,-0.8,0.8Zm-14.7,0l-1.6,1.5c0.3,0.3,0.6,0.6,0.9,0.8l1.5,-1.5l1.5,1.5c0.3,-0.2,0.6,-0.5,0.8,-0.8l-1.5,-1.5l1.5,-1.5C521.6,41.5,521.3,41.2,521,41l-1.5,1.5L518,41c-0.3,0.2,-0.6,0.5,-0.9,0.8Zm119.6,0l-1.5,1.5c0.3,0.3,0.6,0.6,0.8,0.8l1.5,-1.5l1.6,1.5c0.3,-0.2,0.5,-0.5,0.8,-0.8l-1.6,-1.5l1.6,-1.5C641.2,41.5,641,41.2,640.7,41l-1.6,1.5L637.6,41c-0.2,0.2,-0.5,0.5,-0.8,0.8Zm-14.7,0l-1.5,1.5c0.2,0.3,0.5,0.6,0.8,0.8l1.5,-1.5l1.5,1.5c0.3,-0.2,0.6,-0.5,0.8,-0.8l-1.5,-1.5l1.5,-1.5c-0.2,-0.3,-0.5,-0.6,-0.8,-0.8l-1.5,1.5L622.9,41c-0.3,0.2,-0.6,0.5,-0.8,0.8Zm-44.3,0l-1.5,1.5c0.2,0.3,0.5,0.6,0.8,0.8l1.5,-1.5l1.5,1.5c0.4,-0.2,0.6,-0.5,0.8,-0.8l-1.5,-1.5l1.5,-1.5C582.2,41.5,582,41.2,581.6,41l-1.5,1.5L578.6,41c-0.3,0.2,-0.6,0.5,-0.8,0.8Zm29.5,0l-1.5,1.5c0.2,0.3,0.6,0.6,0.8,0.8l1.5,-1.5l1.6,1.5c0.3,-0.2,0.5,-0.5,0.8,-0.8l-1.6,-1.5L612,41.8c-0.3,-0.3,-0.5,-0.6,-0.8,-0.8l-1.6,1.5L608.1,41c-0.2,0.2,-0.6,0.5,-0.8,0.8Zm-14.7,0l-1.6,1.5c0.3,0.3,0.6,0.6,0.8,0.8l1.6,-1.5l1.5,1.5c0.3,-0.2,0.6,-0.5,0.8,-0.8l-1.5,-1.5l1.5,-1.5C597,41.5,596.7,41.2,596.4,41l-1.5,1.5L593.3,41c-0.2,0.2,-0.5,0.5,-0.8,0.8Zm119.6,0l-1.5,1.5c0.3,0.3,0.6,0.6,0.8,0.8l1.5,-1.5l1.6,1.5c0.3,-0.2,0.5,-0.5,0.8,-0.8l-1.6,-1.5l1.6,-1.5c-0.3,-0.3,-0.5,-0.6,-0.8,-0.8l-1.6,1.5L713,41c-0.2,0.2,-0.5,0.5,-0.8,0.8Zm-14.7,0l-1.5,1.5c0.2,0.3,0.5,0.6,0.8,0.8l1.5,-1.5l1.5,1.5c0.3,-0.2,0.6,-0.5,0.8,-0.8l-1.5,-1.5l1.5,-1.5c-0.2,-0.3,-0.5,-0.6,-0.8,-0.8l-1.5,1.5L698.3,41c-0.3,0.2,-0.6,0.5,-0.8,0.8Zm-44.3,0l-1.5,1.5c0.2,0.3,0.5,0.6,0.8,0.8l1.5,-1.5l1.5,1.5c0.3,-0.2,0.6,-0.5,0.8,-0.8l-1.5,-1.5l1.5,-1.5C657.6,41.5,657.3,41.2,657,41l-1.5,1.5L654,41c-0.3,0.2,-0.6,0.5,-0.8,0.8Zm29.5,0l-1.5,1.5c0.2,0.3,0.6,0.6,0.8,0.8L685,44.1l1.5,1.5c0.4,-0.2,0.6,-0.5,0.8,-0.8l-1.5,-1.5l1.5,-1.5c-0.2,-0.3,-0.4,-0.6,-0.8,-0.8L685,42.5L683.5,41c-0.2,0.2,-0.6,0.5,-0.8,0.8Zm-14.7,0l-1.6,1.5c0.3,0.3,0.6,0.6,0.8,0.8l1.6,-1.5l1.5,1.5c0.3,-0.2,0.5,-0.5,0.8,-0.8l-1.5,-1.5l1.5,-1.5c-0.3,-0.3,-0.5,-0.6,-0.8,-0.8l-1.5,1.5L668.7,41c-0.2,0.2,-0.5,0.5,-0.8,0.8Zm119.6,0l-1.5,1.5c0.2,0.3,0.6,0.6,0.8,0.8l1.5,-1.5l1.6,1.5c0.3,-0.2,0.5,-0.5,0.8,-0.8l-1.6,-1.5l1.6,-1.5C792,41.5,791.8,41.2,791.5,41l-1.6,1.5L788.4,41c-0.2,0.2,-0.6,0.5,-0.8,0.8Zm-14.7,0l-1.6,1.5c0.3,0.3,0.6,0.6,0.8,0.8l1.6,-1.5l1.5,1.5c0.3,-0.2,0.6,-0.5,0.8,-0.8L776,43.3l1.5,-1.5C777.3,41.5,777,41.2,776.7,41l-1.5,1.5L773.6,41c-0.2,0.2,-0.5,0.5,-0.8,0.8Zm-44.3,0l-1.5,1.5c0.2,0.3,0.5,0.6,0.8,0.8l1.5,-1.5l1.5,1.5c0.3,-0.2,0.6,-0.5,0.8,-0.8l-1.5,-1.5l1.5,-1.5C733,41.5,732.7,41.2,732.4,41l-1.5,1.5L729.4,41c-0.3,0.2,-0.6,0.5,-0.8,0.8Zm29.5,0l-1.5,1.5c0.2,0.3,0.5,0.6,0.8,0.8l1.5,-1.5l1.5,1.5c0.4,-0.2,0.6,-0.5,0.8,-0.8l-1.5,-1.5l1.5,-1.5c-0.2,-0.3,-0.4,-0.6,-0.8,-0.8l-1.5,1.5L758.9,41c-0.3,0.2,-0.6,0.5,-0.8,0.8Zm-14.7,0l-1.6,1.5c0.3,0.3,0.6,0.6,0.8,0.8l1.6,-1.5l1.5,1.5c0.3,-0.2,0.5,-0.5,0.8,-0.8l-1.5,-1.5L748,41.8c-0.3,-0.3,-0.5,-0.6,-0.8,-0.8l-1.5,1.5L744.1,41c-0.2,0.2,-0.5,0.5,-0.8,0.8Zm119.6,0L863,44.8c0.2,0.3,0.6,0.6,0.8,0.8l1.5,-1.5l1.5,1.5c0.4,-0.2,0.6,-0.5,0.9,-0.8l-1.6,-1.5l1.6,-1.5c-0.3,-0.3,-0.5,-0.6,-0.9,-0.8l-1.5,1.5L863.8,41c-0.2,0.2,-0.6,0.5,-0.8,0.8Zm-14.7,0l-1.6,1.5c0.3,0.3,0.6,0.6,0.8,0.8l1.6,-1.5l1.5,1.5c0.3,-0.2,0.6,-0.5,0.8,-0.8l-1.5,-1.5l1.5,-1.5c-0.2,-0.3,-0.5,-0.6,-0.8,-0.8l-1.5,1.5L849,41c-0.2,0.2,-0.5,0.5,-0.8,0.8Zm-44.3,0L804,44.8c0.2,0.3,0.5,0.6,0.8,0.8l1.5,-1.5l1.5,1.5c0.3,-0.2,0.6,-0.5,0.8,-0.8l-1.5,-1.5l1.5,-1.5c-0.2,-0.3,-0.5,-0.6,-0.8,-0.8l-1.5,1.5L804.8,41c-0.3,0.2,-0.6,0.5,-0.8,0.8Zm29.5,0l-1.5,1.5c0.2,0.3,0.5,0.6,0.8,0.8l1.5,-1.5l1.5,1.5c0.4,-0.2,0.6,-0.5,0.8,-0.8l-1.5,-1.5l1.5,-1.5c-0.2,-0.3,-0.4,-0.6,-0.8,-0.8l-1.5,1.5L834.3,41c-0.3,0.2,-0.6,0.5,-0.8,0.8Zm-14.8,0l-1.5,1.5c0.3,0.3,0.6,0.6,0.8,0.8l1.6,-1.5l1.5,1.5c0.3,-0.2,0.5,-0.5,0.8,-0.8l-1.5,-1.5l1.5,-1.5c-0.3,-0.3,-0.5,-0.6,-0.8,-0.8l-1.5,1.5L819.5,41c-0.2,0.2,-0.5,0.5,-0.8,0.8Zm119.7,0l-1.5,1.5c0.2,0.3,0.6,0.6,0.8,0.8l1.5,-1.5l1.5,1.5c0.4,-0.2,0.6,-0.5,0.8,-0.8l-1.5,-1.5L943,41.8c-0.2,-0.3,-0.4,-0.6,-0.8,-0.8l-1.5,1.5L939.2,41c-0.2,0.2,-0.6,0.5,-0.8,0.8Zm-14.7,0l-1.6,1.5c0.3,0.3,0.6,0.6,0.8,0.8L926,44.1l1.5,1.5c0.3,-0.2,0.5,-0.5,0.8,-0.8l-1.5,-1.5l1.5,-1.5C928,41.5,927.8,41.2,927.5,41L926,42.5L924.4,41c-0.2,0.2,-0.5,0.5,-0.8,0.8Zm-44.3,0l-1.5,1.5c0.2,0.3,0.5,0.6,0.8,0.8l1.5,-1.5l1.5,1.5c0.3,-0.2,0.6,-0.5,0.8,-0.8l-1.5,-1.5L884,41.8c-0.2,-0.3,-0.5,-0.6,-0.8,-0.8l-1.5,1.5L880.2,41c-0.3,0.2,-0.6,0.5,-0.8,0.8Zm29.5,0l-1.5,1.5c0.2,0.3,0.5,0.6,0.8,0.8l1.5,-1.5l1.5,1.5c0.3,-0.2,0.6,-0.5,0.8,-0.8L912,43.3l1.5,-1.5C913.3,41.5,913,41.2,912.7,41l-1.5,1.5L909.7,41c-0.3,0.2,-0.6,0.5,-0.8,0.8Zm-14.8,0l-1.5,1.5c0.3,0.3,0.6,0.6,0.8,0.8l1.5,-1.5l1.6,1.5c0.3,-0.2,0.5,-0.5,0.8,-0.8l-1.6,-1.5l1.6,-1.5C898.5,41.5,898.3,41.2,898,41l-1.6,1.5L894.9,41c-0.2,0.2,-0.5,0.5,-0.8,0.8Zm119.7,0l-1.5,1.5c0.2,0.3,0.5,0.6,0.8,0.8l1.5,-1.5l1.5,1.5c0.4,-0.2,0.6,-0.5,0.8,-0.8l-1.5,-1.5l1.5,-1.5c-0.2,-0.3,-0.4,-0.6,-0.8,-0.8l-1.5,1.5L1014.6,41c-0.3,0.2,-0.6,0.5,-0.8,0.8Zm-14.7,0L999,44.8c0.3,0.3,0.6,0.6,0.8,0.8l1.6,-1.5l1.5,1.5c0.3,-0.2,0.5,-0.5,0.8,-0.8l-1.5,-1.5l1.5,-1.5c-0.3,-0.3,-0.5,-0.6,-0.8,-0.8l-1.5,1.5L999.8,41c-0.2,0.2,-0.5,0.5,-0.8,0.8Zm-44.3,0l-1.5,1.5c0.2,0.3,0.5,0.6,0.8,0.8l1.5,-1.5l1.5,1.5c0.3,-0.2,0.6,-0.5,0.8,-0.8l-1.5,-1.5l1.5,-1.5c-0.2,-0.3,-0.5,-0.6,-0.8,-0.8l-1.5,1.5L955.6,41c-0.3,0.2,-0.6,0.5,-0.8,0.8Zm29.5,0l-1.5,1.5c0.2,0.3,0.5,0.6,0.8,0.8l1.5,-1.5l1.5,1.5c0.3,-0.2,0.6,-0.5,0.8,-0.8l-1.5,-1.5l1.5,-1.5c-0.2,-0.3,-0.5,-0.6,-0.8,-0.8l-1.5,1.5L985.1,41c-0.3,0.2,-0.6,0.5,-0.8,0.8Zm-14.8,0l-1.5,1.5c0.3,0.3,0.6,0.6,0.8,0.8l1.5,-1.5l1.6,1.5c0.3,-0.2,0.5,-0.5,0.8,-0.8l-1.6,-1.5l1.6,-1.5c-0.3,-0.3,-0.5,-0.6,-0.8,-0.8l-1.6,1.5L970.3,41c-0.2,0.2,-0.5,0.5,-0.8,0.8Zm119.7,0l-1.5,1.5c0.2,0.3,0.5,0.6,0.8,0.8l1.5,-1.5l1.5,1.5c0.4,-0.2,0.6,-0.5,0.8,-0.8l-1.5,-1.5l1.5,-1.5c-0.2,-0.3,-0.4,-0.6,-0.8,-0.8l-1.5,1.5L1090,41c-0.3,0.2,-0.6,0.5,-0.8,0.8Zm-14.8,0l-1.5,1.5c0.3,0.3,0.6,0.6,0.8,0.8l1.5,-1.5l1.6,1.5c0.3,-0.2,0.5,-0.5,0.8,-0.8l-1.5,-1.5l1.5,-1.5c-0.3,-0.3,-0.5,-0.6,-0.8,-0.8l-1.6,1.5L1075.2,41c-0.2,0.2,-0.5,0.5,-0.8,0.8Zm-44.2,0l-1.6,1.5c0.3,0.3,0.6,0.6,0.8,0.8l1.6,-1.5l1.5,1.5c0.3,-0.2,0.6,-0.5,0.8,-0.8l-1.5,-1.5l1.5,-1.5c-0.2,-0.3,-0.5,-0.6,-0.8,-0.8l-1.5,1.5L1030.9,41c-0.2,0.2,-0.5,0.5,-0.8,0.8Zm29.5,0l-1.5,1.5c0.2,0.3,0.5,0.6,0.8,0.8l1.5,-1.5l1.5,1.5c0.3,-0.2,0.6,-0.5,0.8,-0.8l-1.5,-1.5l1.5,-1.5c-0.2,-0.3,-0.5,-0.6,-0.8,-0.8l-1.5,1.5L1060.5,41c-0.3,0.2,-0.6,0.5,-0.8,0.8Zm-14.8,0l-1.5,1.5c0.2,0.3,0.6,0.6,0.8,0.8l1.5,-1.5l1.6,1.5c0.3,-0.2,0.5,-0.5,0.8,-0.8L1048,43.3l1.6,-1.5c-0.3,-0.3,-0.5,-0.6,-0.8,-0.8l-1.6,1.5L1045.7,41c-0.2,0.2,-0.6,0.5,-0.8,0.8Zm119.7,0l-1.5,1.5c0.2,0.3,0.5,0.6,0.8,0.8l1.5,-1.5l1.5,1.5c0.3,-0.2,0.6,-0.5,0.8,-0.8l-1.5,-1.5l1.5,-1.5c-0.2,-0.3,-0.5,-0.6,-0.8,-0.8l-1.5,1.5L1165.4,41c-0.3,0.2,-0.6,0.5,-0.8,0.8Zm-14.8,0l-1.5,1.5c0.3,0.3,0.6,0.6,0.8,0.8l1.5,-1.5l1.6,1.5c0.3,-0.2,0.5,-0.5,0.8,-0.8l-1.6,-1.5l1.6,-1.5c-0.3,-0.3,-0.5,-0.6,-0.8,-0.8l-1.6,1.5L1150.6,41c-0.2,0.2,-0.5,0.5,-0.8,0.8Zm-44.2,0l-1.6,1.5c0.3,0.3,0.6,0.6,0.8,0.8l1.6,-1.5l1.5,1.5c0.3,-0.2,0.6,-0.5,0.8,-0.8l-1.5,-1.5l1.5,-1.5c-0.2,-0.3,-0.5,-0.6,-0.8,-0.8l-1.5,1.5L1106.3,41c-0.2,0.2,-0.5,0.5,-0.8,0.8Zm29.5,0l-1.5,1.5c0.2,0.3,0.5,0.6,0.8,0.8l1.5,-1.5l1.5,1.5c0.3,-0.2,0.6,-0.5,0.8,-0.8l-1.5,-1.5l1.5,-1.5c-0.2,-0.3,-0.5,-0.6,-0.8,-0.8l-1.5,1.5L1135.9,41c-0.3,0.2,-0.6,0.5,-0.8,0.8Zm-14.8,0l-1.5,1.5c0.2,0.3,0.6,0.6,0.8,0.8l1.5,-1.5l1.5,1.5c0.4,-0.2,0.6,-0.5,0.9,-0.8l-1.6,-1.5l1.6,-1.5c-0.3,-0.3,-0.5,-0.6,-0.9,-0.8l-1.5,1.5L1121.1,41c-0.2,0.2,-0.6,0.5,-0.8,0.8Z" class="g1_3" />
</g>
<path d="M173,1148l-1.5,1.5c0.2,0.3,0.5,0.6,0.8,0.8l1.5,-1.5l1.5,1.5c0.3,-0.2,0.6,-0.5,0.8,-0.8l-1.5,-1.5l1.5,-1.5c-0.2,-0.3,-0.5,-0.6,-0.8,-0.8l-1.5,1.5l-1.5,-1.5c-0.3,0.2,-0.6,0.5,-0.8,0.8Zm-14.8,0l-1.5,1.5c0.2,0.3,0.6,0.6,0.8,0.8l1.5,-1.5l1.6,1.5c0.3,-0.2,0.5,-0.5,0.8,-0.8l-1.6,-1.5l1.6,-1.5c-0.3,-0.3,-0.5,-0.6,-0.8,-0.8l-1.6,1.5l-1.5,-1.5c-0.2,0.2,-0.6,0.5,-0.8,0.8Zm-44.2,0l-1.6,1.5c0.3,0.3,0.6,0.6,0.8,0.8l1.6,-1.5l1.5,1.5c0.3,-0.2,0.5,-0.5,0.8,-0.8l-1.5,-1.5l1.5,-1.5c-0.3,-0.3,-0.5,-0.6,-0.8,-0.8l-1.5,1.5l-1.6,-1.5c-0.2,0.2,-0.5,0.5,-0.8,0.8Zm29.5,0l-1.6,1.5c0.3,0.3,0.6,0.6,0.8,0.8l1.6,-1.5l1.5,1.5c0.3,-0.2,0.6,-0.5,0.8,-0.8l-1.5,-1.5l1.5,-1.5c-0.2,-0.3,-0.5,-0.6,-0.8,-0.8l-1.5,1.5l-1.6,-1.5c-0.2,0.2,-0.5,0.5,-0.8,0.8Zm-14.8,0l-1.5,1.5c0.2,0.3,0.5,0.6,0.8,0.8l1.5,-1.5l1.5,1.5c0.4,-0.2,0.6,-0.5,0.8,-0.8l-1.5,-1.5l1.5,-1.5c-0.2,-0.3,-0.4,-0.6,-0.8,-0.8l-1.5,1.5l-1.5,-1.5c-0.3,0.2,-0.6,0.5,-0.8,0.8Zm119.7,0l-1.5,1.5c0.2,0.3,0.5,0.6,0.8,0.8l1.5,-1.5l1.5,1.5c0.3,-0.2,0.6,-0.5,0.8,-0.8L250,1148l1.5,-1.5c-0.2,-0.3,-0.5,-0.6,-0.8,-0.8l-1.5,1.5l-1.5,-1.5c-0.3,0.2,-0.6,0.5,-0.8,0.8Zm-14.8,0l-1.5,1.5c0.2,0.3,0.6,0.6,0.8,0.8l1.5,-1.5l1.5,1.5c0.4,-0.2,0.6,-0.5,0.9,-0.8l-1.6,-1.5l1.6,-1.5c-0.3,-0.3,-0.5,-0.6,-0.9,-0.8l-1.5,1.5l-1.5,-1.5c-0.2,0.2,-0.6,0.5,-0.8,0.8Zm-44.3,0l-1.5,1.5c0.3,0.3,0.6,0.6,0.8,0.8l1.5,-1.5l1.6,1.5c0.3,-0.2,0.5,-0.5,0.8,-0.8L191,1148l1.5,-1.5c-0.3,-0.3,-0.5,-0.6,-0.8,-0.8l-1.6,1.5l-1.5,-1.5c-0.2,0.2,-0.5,0.5,-0.8,0.8Zm29.6,0l-1.6,1.5c0.3,0.3,0.6,0.6,0.8,0.8l1.6,-1.5l1.5,1.5c0.3,-0.2,0.6,-0.5,0.8,-0.8l-1.5,-1.5l1.5,-1.5c-0.2,-0.3,-0.5,-0.6,-0.8,-0.8l-1.5,1.5l-1.6,-1.5c-0.2,0.2,-0.5,0.5,-0.8,0.8Zm-14.8,0l-1.5,1.5c0.2,0.3,0.5,0.6,0.8,0.8l1.5,-1.5l1.5,1.5c0.4,-0.2,0.6,-0.5,0.8,-0.8l-1.5,-1.5l1.5,-1.5c-0.2,-0.3,-0.4,-0.6,-0.8,-0.8l-1.5,1.5l-1.5,-1.5c-0.3,0.2,-0.6,0.5,-0.8,0.8Zm119.7,0l-1.5,1.5c0.2,0.3,0.5,0.6,0.8,0.8l1.5,-1.5l1.5,1.5c0.3,-0.2,0.6,-0.5,0.8,-0.8l-1.5,-1.5l1.5,-1.5c-0.2,-0.3,-0.5,-0.6,-0.8,-0.8l-1.5,1.5l-1.5,-1.5c-0.3,0.2,-0.6,0.5,-0.8,0.8Zm-14.8,0l-1.5,1.5c0.2,0.3,0.6,0.6,0.8,0.8l1.5,-1.5l1.5,1.5c0.4,-0.2,0.6,-0.5,0.8,-0.8l-1.5,-1.5l1.5,-1.5c-0.2,-0.3,-0.4,-0.6,-0.8,-0.8l-1.5,1.5l-1.5,-1.5c-0.2,0.2,-0.6,0.5,-0.8,0.8Zm-44.3,0l-1.5,1.5c0.3,0.3,0.6,0.6,0.8,0.8l1.5,-1.5l1.6,1.5c0.3,-0.2,0.5,-0.5,0.8,-0.8l-1.6,-1.5l1.6,-1.5c-0.3,-0.3,-0.5,-0.6,-0.8,-0.8l-1.6,1.5l-1.5,-1.5c-0.2,0.2,-0.5,0.5,-0.8,0.8Zm29.6,0l-1.6,1.5c0.3,0.3,0.6,0.6,0.8,0.8l1.6,-1.5l1.5,1.5c0.3,-0.2,0.5,-0.5,0.8,-0.8l-1.5,-1.5l1.5,-1.5c-0.3,-0.3,-0.5,-0.6,-0.8,-0.8l-1.5,1.5l-1.6,-1.5c-0.2,0.2,-0.5,0.5,-0.8,0.8Zm-14.8,0l-1.5,1.5c0.2,0.3,0.5,0.6,0.8,0.8l1.5,-1.5l1.5,1.5c0.3,-0.2,0.6,-0.5,0.8,-0.8l-1.5,-1.5l1.5,-1.5c-0.2,-0.3,-0.5,-0.6,-0.8,-0.8l-1.5,1.5l-1.5,-1.5c-0.3,0.2,-0.6,0.5,-0.8,0.8Zm119.7,0l-1.6,1.5c0.3,0.3,0.6,0.6,0.8,0.8l1.6,-1.5l1.5,1.5c0.3,-0.2,0.6,-0.5,0.8,-0.8l-1.5,-1.5l1.5,-1.5c-0.2,-0.3,-0.5,-0.6,-0.8,-0.8l-1.5,1.5l-1.6,-1.5c-0.2,0.2,-0.5,0.5,-0.8,0.8Zm-14.8,0l-1.5,1.5c0.2,0.3,0.5,0.6,0.8,0.8l1.5,-1.5l1.5,1.5c0.4,-0.2,0.6,-0.5,0.8,-0.8L386,1148l1.5,-1.5c-0.2,-0.3,-0.4,-0.6,-0.8,-0.8l-1.5,1.5l-1.5,-1.5c-0.3,0.2,-0.6,0.5,-0.8,0.8Zm-44.3,0l-1.5,1.5c0.3,0.3,0.6,0.6,0.8,0.8l1.5,-1.5l1.6,1.5c0.3,-0.2,0.5,-0.5,0.8,-0.8l-1.6,-1.5l1.6,-1.5c-0.3,-0.3,-0.5,-0.6,-0.8,-0.8l-1.6,1.5l-1.5,-1.5c-0.2,0.2,-0.5,0.5,-0.8,0.8Zm29.6,0l-1.6,1.5c0.3,0.3,0.6,0.6,0.8,0.8l1.6,-1.5l1.5,1.5c0.3,-0.2,0.5,-0.5,0.8,-0.8l-1.5,-1.5l1.5,-1.5c-0.3,-0.3,-0.5,-0.6,-0.8,-0.8l-1.5,1.5l-1.6,-1.5c-0.2,0.2,-0.5,0.5,-0.8,0.8Zm-14.8,0l-1.5,1.5c0.2,0.3,0.5,0.6,0.8,0.8l1.5,-1.5l1.5,1.5c0.3,-0.2,0.6,-0.5,0.8,-0.8l-1.5,-1.5l1.5,-1.5c-0.2,-0.3,-0.5,-0.6,-0.8,-0.8l-1.5,1.5l-1.5,-1.5c-0.3,0.2,-0.6,0.5,-0.8,0.8Zm119.7,0l-1.6,1.5c0.3,0.3,0.6,0.6,0.8,0.8l1.6,-1.5l1.5,1.5c0.3,-0.2,0.5,-0.5,0.8,-0.8l-1.5,-1.5l1.5,-1.5c-0.3,-0.3,-0.5,-0.6,-0.8,-0.8l-1.5,1.5l-1.6,-1.5c-0.2,0.2,-0.5,0.5,-0.8,0.8Zm-14.8,0l-1.5,1.5c0.2,0.3,0.5,0.6,0.8,0.8l1.5,-1.5l1.5,1.5c0.4,-0.2,0.6,-0.5,0.8,-0.8l-1.5,-1.5l1.5,-1.5c-0.2,-0.3,-0.4,-0.6,-0.8,-0.8l-1.5,1.5l-1.5,-1.5c-0.3,0.2,-0.6,0.5,-0.8,0.8Zm-44.3,0l-1.5,1.5c0.2,0.3,0.6,0.6,0.8,0.8l1.5,-1.5l1.6,1.5c0.3,-0.2,0.5,-0.5,0.8,-0.8l-1.6,-1.5l1.6,-1.5c-0.3,-0.3,-0.5,-0.6,-0.8,-0.8l-1.6,1.5l-1.5,-1.5c-0.2,0.2,-0.6,0.5,-0.8,0.8Zm29.5,0l-1.5,1.5c0.3,0.3,0.6,0.6,0.8,0.8l1.5,-1.5l1.6,1.5c0.3,-0.2,0.5,-0.5,0.8,-0.8l-1.6,-1.5l1.6,-1.5c-0.3,-0.3,-0.5,-0.6,-0.8,-0.8l-1.6,1.5l-1.5,-1.5c-0.2,0.2,-0.5,0.5,-0.8,0.8Zm-14.7,0l-1.5,1.5c0.2,0.3,0.5,0.6,0.8,0.8l1.5,-1.5l1.5,1.5c0.3,-0.2,0.6,-0.5,0.8,-0.8l-1.5,-1.5l1.5,-1.5c-0.2,-0.3,-0.5,-0.6,-0.8,-0.8l-1.5,1.5l-1.5,-1.5c-0.3,0.2,-0.6,0.5,-0.8,0.8Zm119.7,0l-1.6,1.5c0.3,0.3,0.6,0.6,0.8,0.8l1.6,-1.5l1.5,1.5c0.3,-0.2,0.5,-0.5,0.8,-0.8l-1.5,-1.5l1.5,-1.5c-0.3,-0.3,-0.5,-0.6,-0.8,-0.8l-1.5,1.5l-1.6,-1.5c-0.2,0.2,-0.5,0.5,-0.8,0.8Zm-14.8,0l-1.5,1.5c0.2,0.3,0.5,0.6,0.8,0.8l1.5,-1.5l1.5,1.5c0.3,-0.2,0.6,-0.5,0.8,-0.8l-1.5,-1.5l1.5,-1.5c-0.2,-0.3,-0.5,-0.6,-0.8,-0.8l-1.5,1.5l-1.5,-1.5c-0.3,0.2,-0.6,0.5,-0.8,0.8Zm-44.3,0l-1.5,1.5c0.2,0.3,0.6,0.6,0.8,0.8l1.5,-1.5l1.5,1.5c0.4,-0.2,0.6,-0.5,0.9,-0.8l-1.6,-1.5l1.6,-1.5c-0.3,-0.3,-0.5,-0.6,-0.9,-0.8l-1.5,1.5l-1.5,-1.5c-0.2,0.2,-0.6,0.5,-0.8,0.8Zm29.5,0l-1.5,1.5c0.3,0.3,0.6,0.6,0.8,0.8l1.5,-1.5l1.6,1.5c0.3,-0.2,0.5,-0.5,0.8,-0.8L522,1148l1.6,-1.5c-0.3,-0.3,-0.5,-0.6,-0.8,-0.8l-1.6,1.5l-1.5,-1.5c-0.2,0.2,-0.5,0.5,-0.8,0.8Zm-14.7,0l-1.5,1.5c0.2,0.3,0.5,0.6,0.8,0.8l1.5,-1.5l1.5,1.5c0.3,-0.2,0.6,-0.5,0.8,-0.8l-1.5,-1.5l1.5,-1.5c-0.2,-0.3,-0.5,-0.6,-0.8,-0.8l-1.5,1.5l-1.5,-1.5c-0.3,0.2,-0.6,0.5,-0.8,0.8Zm119.6,0l-1.5,1.5c0.3,0.3,0.6,0.6,0.8,0.8l1.6,-1.5l1.5,1.5c0.3,-0.2,0.5,-0.5,0.8,-0.8L627,1148l1.5,-1.5c-0.3,-0.3,-0.5,-0.6,-0.8,-0.8l-1.5,1.5l-1.6,-1.5c-0.2,0.2,-0.5,0.5,-0.8,0.8Zm-14.7,0l-1.5,1.5c0.2,0.3,0.5,0.6,0.8,0.8l1.5,-1.5l1.5,1.5c0.3,-0.2,0.6,-0.5,0.8,-0.8l-1.5,-1.5l1.5,-1.5c-0.2,-0.3,-0.5,-0.6,-0.8,-0.8l-1.5,1.5l-1.5,-1.5c-0.3,0.2,-0.6,0.5,-0.8,0.8Zm-44.3,0l-1.5,1.5c0.2,0.3,0.6,0.6,0.8,0.8l1.5,-1.5l1.5,1.5c0.4,-0.2,0.6,-0.5,0.8,-0.8l-1.5,-1.5l1.5,-1.5c-0.2,-0.3,-0.4,-0.6,-0.8,-0.8l-1.5,1.5l-1.5,-1.5c-0.2,0.2,-0.6,0.5,-0.8,0.8Zm29.5,0l-1.5,1.5c0.2,0.3,0.6,0.6,0.8,0.8l1.5,-1.5l1.6,1.5c0.3,-0.2,0.5,-0.5,0.8,-0.8l-1.6,-1.5l1.6,-1.5c-0.3,-0.3,-0.5,-0.6,-0.8,-0.8l-1.6,1.5l-1.5,-1.5c-0.2,0.2,-0.6,0.5,-0.8,0.8Zm-14.7,0l-1.6,1.5c0.3,0.3,0.6,0.6,0.9,0.8l1.5,-1.5l1.5,1.5c0.3,-0.2,0.6,-0.5,0.8,-0.8l-1.5,-1.5l1.5,-1.5c-0.2,-0.3,-0.5,-0.6,-0.8,-0.8l-1.5,1.5l-1.5,-1.5c-0.3,0.2,-0.6,0.5,-0.9,0.8Zm119.6,0l-1.5,1.5c0.3,0.3,0.6,0.6,0.8,0.8l1.5,-1.5l1.6,1.5c0.3,-0.2,0.5,-0.5,0.8,-0.8l-1.6,-1.5l1.6,-1.5c-0.3,-0.3,-0.5,-0.6,-0.8,-0.8l-1.6,1.5l-1.5,-1.5c-0.2,0.2,-0.5,0.5,-0.8,0.8Zm-14.7,0l-1.5,1.5c0.2,0.3,0.5,0.6,0.8,0.8l1.5,-1.5l1.5,1.5c0.3,-0.2,0.6,-0.5,0.8,-0.8l-1.5,-1.5l1.5,-1.5c-0.2,-0.3,-0.5,-0.6,-0.8,-0.8l-1.5,1.5l-1.5,-1.5c-0.3,0.2,-0.6,0.5,-0.8,0.8Zm-44.3,0l-1.5,1.5c0.2,0.3,0.5,0.6,0.8,0.8l1.5,-1.5l1.5,1.5c0.4,-0.2,0.6,-0.5,0.8,-0.8l-1.5,-1.5l1.5,-1.5c-0.2,-0.3,-0.4,-0.6,-0.8,-0.8l-1.5,1.5l-1.5,-1.5c-0.3,0.2,-0.6,0.5,-0.8,0.8Zm29.5,0l-1.5,1.5c0.2,0.3,0.6,0.6,0.8,0.8l1.5,-1.5l1.6,1.5c0.3,-0.2,0.5,-0.5,0.8,-0.8l-1.6,-1.5l1.6,-1.5c-0.3,-0.3,-0.5,-0.6,-0.8,-0.8l-1.6,1.5l-1.5,-1.5c-0.2,0.2,-0.6,0.5,-0.8,0.8Zm-14.7,0l-1.6,1.5c0.3,0.3,0.6,0.6,0.8,0.8l1.6,-1.5l1.5,1.5c0.3,-0.2,0.6,-0.5,0.8,-0.8l-1.5,-1.5l1.5,-1.5c-0.2,-0.3,-0.5,-0.6,-0.8,-0.8l-1.5,1.5l-1.6,-1.5c-0.2,0.2,-0.5,0.5,-0.8,0.8Zm119.6,0l-1.5,1.5c0.3,0.3,0.6,0.6,0.8,0.8l1.5,-1.5l1.6,1.5c0.3,-0.2,0.5,-0.5,0.8,-0.8l-1.6,-1.5l1.6,-1.5c-0.3,-0.3,-0.5,-0.6,-0.8,-0.8l-1.6,1.5l-1.5,-1.5c-0.2,0.2,-0.5,0.5,-0.8,0.8Zm-14.7,0l-1.5,1.5c0.2,0.3,0.5,0.6,0.8,0.8l1.5,-1.5l1.5,1.5c0.3,-0.2,0.6,-0.5,0.8,-0.8L763,1148l1.5,-1.5c-0.2,-0.3,-0.5,-0.6,-0.8,-0.8l-1.5,1.5l-1.5,-1.5c-0.3,0.2,-0.6,0.5,-0.8,0.8Zm-44.3,0l-1.5,1.5c0.2,0.3,0.5,0.6,0.8,0.8l1.5,-1.5l1.5,1.5c0.4,-0.2,0.6,-0.5,0.8,-0.8l-1.5,-1.5l1.5,-1.5c-0.2,-0.3,-0.4,-0.6,-0.8,-0.8l-1.5,1.5l-1.5,-1.5c-0.3,0.2,-0.6,0.5,-0.8,0.8Zm29.5,0l-1.5,1.5c0.2,0.3,0.6,0.6,0.8,0.8l1.5,-1.5l1.5,1.5c0.4,-0.2,0.6,-0.5,0.8,-0.8l-1.5,-1.5l1.5,-1.5c-0.2,-0.3,-0.4,-0.6,-0.8,-0.8l-1.5,1.5l-1.5,-1.5c-0.2,0.2,-0.6,0.5,-0.8,0.8Zm-14.7,0l-1.6,1.5c0.3,0.3,0.6,0.6,0.8,0.8l1.6,-1.5l1.5,1.5c0.3,-0.2,0.5,-0.5,0.8,-0.8l-1.5,-1.5l1.5,-1.5c-0.3,-0.3,-0.5,-0.6,-0.8,-0.8l-1.5,1.5l-1.6,-1.5c-0.2,0.2,-0.5,0.5,-0.8,0.8Zm119.6,0l-1.5,1.5c0.2,0.3,0.6,0.6,0.8,0.8l1.5,-1.5l1.6,1.5c0.3,-0.2,0.5,-0.5,0.8,-0.8l-1.6,-1.5l1.6,-1.5c-0.3,-0.3,-0.5,-0.6,-0.8,-0.8l-1.6,1.5l-1.5,-1.5c-0.2,0.2,-0.6,0.5,-0.8,0.8Zm-14.7,0l-1.6,1.5c0.3,0.3,0.6,0.6,0.9,0.8l1.5,-1.5l1.5,1.5c0.3,-0.2,0.6,-0.5,0.8,-0.8l-1.5,-1.5l1.5,-1.5c-0.2,-0.3,-0.5,-0.6,-0.8,-0.8l-1.5,1.5l-1.5,-1.5c-0.3,0.2,-0.6,0.5,-0.9,0.8Zm-44.3,0l-1.5,1.5c0.2,0.3,0.5,0.6,0.8,0.8l1.5,-1.5l1.5,1.5c0.3,-0.2,0.6,-0.5,0.8,-0.8l-1.5,-1.5l1.5,-1.5c-0.2,-0.3,-0.5,-0.6,-0.8,-0.8l-1.5,1.5l-1.5,-1.5c-0.3,0.2,-0.6,0.5,-0.8,0.8Zm29.5,0l-1.5,1.5c0.2,0.3,0.6,0.6,0.8,0.8l1.5,-1.5l1.5,1.5c0.4,-0.2,0.6,-0.5,0.8,-0.8l-1.5,-1.5l1.5,-1.5c-0.2,-0.3,-0.4,-0.6,-0.8,-0.8l-1.5,1.5l-1.5,-1.5c-0.2,0.2,-0.6,0.5,-0.8,0.8Zm-14.7,0l-1.6,1.5c0.3,0.3,0.6,0.6,0.8,0.8l1.6,-1.5l1.5,1.5c0.3,-0.2,0.5,-0.5,0.8,-0.8l-1.5,-1.5l1.5,-1.5c-0.3,-0.3,-0.5,-0.6,-0.8,-0.8l-1.5,1.5l-1.6,-1.5c-0.2,0.2,-0.5,0.5,-0.8,0.8Zm119.6,0l-1.5,1.5c0.2,0.3,0.6,0.6,0.8,0.8l1.5,-1.5l1.6,1.5c0.3,-0.2,0.5,-0.5,0.8,-0.8l-1.6,-1.5l1.6,-1.5c-0.3,-0.3,-0.5,-0.6,-0.8,-0.8l-1.6,1.5l-1.5,-1.5c-0.2,0.2,-0.6,0.5,-0.8,0.8Zm-14.7,0l-1.6,1.5c0.3,0.3,0.6,0.6,0.8,0.8l1.6,-1.5l1.5,1.5c0.3,-0.2,0.6,-0.5,0.8,-0.8l-1.5,-1.5l1.5,-1.5c-0.2,-0.3,-0.5,-0.6,-0.8,-0.8l-1.5,1.5l-1.6,-1.5c-0.2,0.2,-0.5,0.5,-0.8,0.8Zm-44.3,0l-1.5,1.5c0.2,0.3,0.5,0.6,0.8,0.8l1.5,-1.5l1.5,1.5c0.3,-0.2,0.6,-0.5,0.8,-0.8l-1.5,-1.5l1.5,-1.5c-0.2,-0.3,-0.5,-0.6,-0.8,-0.8l-1.5,1.5l-1.5,-1.5c-0.3,0.2,-0.6,0.5,-0.8,0.8Zm29.5,0l-1.5,1.5c0.2,0.3,0.5,0.6,0.8,0.8l1.5,-1.5l1.5,1.5c0.4,-0.2,0.6,-0.5,0.8,-0.8L899,1148l1.5,-1.5c-0.2,-0.3,-0.4,-0.6,-0.8,-0.8l-1.5,1.5l-1.5,-1.5c-0.3,0.2,-0.6,0.5,-0.8,0.8Zm-14.7,0l-1.6,1.5c0.3,0.3,0.6,0.6,0.8,0.8l1.6,-1.5l1.5,1.5c0.3,-0.2,0.5,-0.5,0.8,-0.8l-1.5,-1.5l1.5,-1.5c-0.3,-0.3,-0.5,-0.6,-0.8,-0.8l-1.5,1.5l-1.6,-1.5c-0.2,0.2,-0.5,0.5,-0.8,0.8Zm119.6,0l-1.5,1.5c0.2,0.3,0.6,0.6,0.8,0.8l1.5,-1.5l1.5,1.5c0.4,-0.2,0.6,-0.5,0.8,-0.8l-1.5,-1.5l1.5,-1.5c-0.2,-0.3,-0.4,-0.6,-0.8,-0.8l-1.5,1.5l-1.5,-1.5c-0.2,0.2,-0.6,0.5,-0.8,0.8Zm-14.7,0l-1.6,1.5c0.3,0.3,0.6,0.6,0.8,0.8l1.6,-1.5l1.5,1.5c0.3,-0.2,0.5,-0.5,0.8,-0.8l-1.5,-1.5l1.5,-1.5c-0.3,-0.3,-0.5,-0.6,-0.8,-0.8l-1.5,1.5l-1.6,-1.5c-0.2,0.2,-0.5,0.5,-0.8,0.8Zm-44.3,0l-1.5,1.5c0.2,0.3,0.5,0.6,0.8,0.8l1.5,-1.5l1.5,1.5c0.3,-0.2,0.6,-0.5,0.8,-0.8l-1.5,-1.5l1.5,-1.5c-0.2,-0.3,-0.5,-0.6,-0.8,-0.8l-1.5,1.5l-1.5,-1.5c-0.3,0.2,-0.6,0.5,-0.8,0.8Zm29.5,0l-1.5,1.5c0.2,0.3,0.5,0.6,0.8,0.8l1.5,-1.5l1.5,1.5c0.3,-0.2,0.6,-0.5,0.8,-0.8l-1.5,-1.5l1.5,-1.5c-0.2,-0.3,-0.5,-0.6,-0.8,-0.8l-1.5,1.5l-1.5,-1.5c-0.3,0.2,-0.6,0.5,-0.8,0.8Zm-14.8,0l-1.5,1.5c0.3,0.3,0.6,0.6,0.8,0.8l1.5,-1.5l1.6,1.5c0.3,-0.2,0.5,-0.5,0.8,-0.8l-1.6,-1.5l1.6,-1.5c-0.3,-0.3,-0.5,-0.6,-0.8,-0.8l-1.6,1.5l-1.5,-1.5c-0.2,0.2,-0.5,0.5,-0.8,0.8Zm119.7,0l-1.5,1.5c0.2,0.3,0.5,0.6,0.8,0.8l1.5,-1.5l1.5,1.5c0.4,-0.2,0.6,-0.5,0.8,-0.8l-1.5,-1.5l1.5,-1.5c-0.2,-0.3,-0.4,-0.6,-0.8,-0.8l-1.5,1.5l-1.5,-1.5c-0.3,0.2,-0.6,0.5,-0.8,0.8Zm-14.7,0l-1.6,1.5c0.3,0.3,0.6,0.6,0.8,0.8l1.6,-1.5l1.5,1.5c0.3,-0.2,0.5,-0.5,0.8,-0.8l-1.5,-1.5l1.5,-1.5c-0.3,-0.3,-0.5,-0.6,-0.8,-0.8l-1.5,1.5l-1.6,-1.5c-0.2,0.2,-0.5,0.5,-0.8,0.8Zm-44.3,0l-1.5,1.5c0.2,0.3,0.5,0.6,0.8,0.8l1.5,-1.5l1.5,1.5c0.3,-0.2,0.6,-0.5,0.8,-0.8l-1.5,-1.5l1.5,-1.5c-0.2,-0.3,-0.5,-0.6,-0.8,-0.8l-1.5,1.5l-1.5,-1.5c-0.3,0.2,-0.6,0.5,-0.8,0.8Zm29.5,0l-1.5,1.5c0.2,0.3,0.5,0.6,0.8,0.8l1.5,-1.5l1.5,1.5c0.3,-0.2,0.6,-0.5,0.8,-0.8l-1.5,-1.5l1.5,-1.5c-0.2,-0.3,-0.5,-0.6,-0.8,-0.8l-1.5,1.5l-1.5,-1.5c-0.3,0.2,-0.6,0.5,-0.8,0.8Zm-14.8,0l-1.5,1.5c0.3,0.3,0.6,0.6,0.8,0.8l1.5,-1.5l1.6,1.5c0.3,-0.2,0.5,-0.5,0.8,-0.8L1035,1148l1.6,-1.5c-0.3,-0.3,-0.5,-0.6,-0.8,-0.8l-1.6,1.5l-1.5,-1.5c-0.2,0.2,-0.5,0.5,-0.8,0.8Zm119.7,0l-1.5,1.5c0.2,0.3,0.5,0.6,0.8,0.8l1.5,-1.5l1.5,1.5c0.4,-0.2,0.6,-0.5,0.8,-0.8l-1.5,-1.5l1.5,-1.5c-0.2,-0.3,-0.4,-0.6,-0.8,-0.8l-1.5,1.5l-1.5,-1.5c-0.3,0.2,-0.6,0.5,-0.8,0.8Zm-14.8,0l-1.5,1.5c0.3,0.3,0.6,0.6,0.8,0.8l1.6,-1.5l1.5,1.5c0.3,-0.2,0.5,-0.5,0.8,-0.8L1140,1148l1.5,-1.5c-0.3,-0.3,-0.5,-0.6,-0.8,-0.8l-1.5,1.5l-1.6,-1.5c-0.2,0.2,-0.5,0.5,-0.8,0.8Zm-44.2,0l-1.6,1.5c0.3,0.3,0.6,0.6,0.9,0.8l1.5,-1.5l1.5,1.5c0.3,-0.2,0.6,-0.5,0.8,-0.8l-1.5,-1.5l1.5,-1.5c-0.2,-0.3,-0.5,-0.6,-0.8,-0.8l-1.5,1.5l-1.5,-1.5c-0.3,0.2,-0.6,0.5,-0.9,0.8Zm29.5,0l-1.5,1.5c0.2,0.3,0.5,0.6,0.8,0.8l1.5,-1.5l1.5,1.5c0.3,-0.2,0.6,-0.5,0.8,-0.8l-1.5,-1.5l1.5,-1.5c-0.2,-0.3,-0.5,-0.6,-0.8,-0.8l-1.5,1.5l-1.5,-1.5c-0.3,0.2,-0.6,0.5,-0.8,0.8Zm-14.8,0l-1.5,1.5c0.2,0.3,0.6,0.6,0.8,0.8l1.5,-1.5l1.6,1.5c0.3,-0.2,0.5,-0.5,0.8,-0.8l-1.6,-1.5l1.6,-1.5c-0.3,-0.3,-0.5,-0.6,-0.8,-0.8l-1.6,1.5l-1.5,-1.5c-0.2,0.2,-0.6,0.5,-0.8,0.8Z" class="g1_3" />
<path d="M0,1190l214,0L214,0L0,0L0,1190Z" class="g2_3" />
<g clip-path="url(#c0_3)">
<path d="M210.2,1137.1l1.5,1.6c0.3,-0.3,0.7,-0.6,0.8,-0.9l-1.5,-1.6l1.5,-1.7c-0.1,-0.3,-0.5,-0.6,-0.8,-0.8l-1.5,1.6l-1.4,-1.6c-0.3,0.2,-0.7,0.5,-0.8,0.8l1.5,1.7l-1.5,1.6c0.1,0.3,0.5,0.6,0.8,0.9Zm0,15.9l1.5,1.7c0.3,-0.3,0.7,-0.6,0.8,-0.9l-1.5,-1.6l1.5,-1.7c-0.1,-0.3,-0.5,-0.6,-0.8,-0.8l-1.5,1.6l-1.4,-1.6c-0.3,0.2,-0.7,0.5,-0.8,0.8l1.5,1.7l-1.5,1.6c0.1,0.3,0.5,0.6,0.8,0.9Zm0,48l1.5,1.6c0.3,-0.2,0.7,-0.6,0.8,-0.8l-1.5,-1.7l1.5,-1.6c-0.1,-0.4,-0.5,-0.6,-0.8,-0.9l-1.5,1.7l-1.4,-1.7c-0.3,0.3,-0.7,0.5,-0.8,0.9l1.5,1.6l-1.5,1.7c0.1,0.2,0.5,0.6,0.8,0.8Zm0,-32l1.5,1.7c0.3,-0.3,0.7,-0.6,0.8,-0.9l-1.5,-1.6l1.5,-1.7c-0.1,-0.3,-0.5,-0.6,-0.8,-0.9l-1.5,1.7l-1.4,-1.7c-0.3,0.3,-0.7,0.6,-0.8,0.9l1.5,1.7l-1.5,1.6c0.1,0.3,0.5,0.6,0.8,0.9Zm0,16l1.5,1.7c0.3,-0.3,0.7,-0.7,0.8,-0.9l-1.5,-1.7l1.5,-1.6c-0.1,-0.4,-0.5,-0.6,-0.8,-0.9l-1.5,1.7l-1.4,-1.7c-0.3,0.3,-0.7,0.5,-0.8,0.9l1.5,1.6l-1.5,1.7c0.1,0.2,0.5,0.6,0.8,0.9Zm0,-129.6l1.5,1.7c0.3,-0.3,0.7,-0.6,0.8,-0.9l-1.5,-1.7l1.5,-1.6c-0.1,-0.4,-0.5,-0.6,-0.8,-0.9l-1.5,1.7l-1.4,-1.7c-0.3,0.3,-0.7,0.5,-0.8,0.9l1.5,1.6l-1.5,1.7c0.1,0.3,0.5,0.6,0.8,0.9Zm0,16l1.5,1.6c0.3,-0.2,0.7,-0.6,0.8,-0.8l-1.5,-1.7l1.5,-1.6c-0.1,-0.4,-0.5,-0.6,-0.8,-0.9l-1.5,1.7l-1.4,-1.7c-0.3,0.3,-0.7,0.5,-0.8,0.9l1.5,1.6l-1.5,1.7c0.1,0.2,0.5,0.6,0.8,0.8Zm0,47.9l1.5,1.7c0.3,-0.3,0.7,-0.6,0.8,-0.9l-1.5,-1.6l1.5,-1.7c-0.1,-0.3,-0.5,-0.6,-0.8,-0.8l-1.5,1.6l-1.4,-1.6c-0.3,0.2,-0.7,0.5,-0.8,0.8l1.5,1.7l-1.5,1.6c0.1,0.3,0.5,0.6,0.8,0.9Zm0,-31.9l1.5,1.6c0.3,-0.2,0.7,-0.6,0.8,-0.8l-1.5,-1.7l1.5,-1.6c-0.1,-0.4,-0.5,-0.6,-0.8,-0.9l-1.5,1.6l-1.4,-1.6c-0.3,0.3,-0.7,0.5,-0.8,0.9l1.5,1.6l-1.5,1.7c0.1,0.2,0.5,0.6,0.8,0.8Zm0,16l1.5,1.6c0.3,-0.2,0.7,-0.6,0.8,-0.9l-1.5,-1.6l1.5,-1.7c-0.1,-0.3,-0.5,-0.6,-0.8,-0.8l-1.5,1.6l-1.4,-1.6c-0.3,0.2,-0.7,0.5,-0.8,0.8l1.5,1.7l-1.5,1.6c0.1,0.3,0.5,0.7,0.8,0.9Zm0,-129.6l1.5,1.6c0.3,-0.2,0.7,-0.6,0.8,-0.9L211,972.9l1.5,-1.7c-0.1,-0.3,-0.5,-0.6,-0.8,-0.8l-1.5,1.6l-1.4,-1.6c-0.3,0.2,-0.7,0.5,-0.8,0.8l1.5,1.7l-1.5,1.6c0.1,0.3,0.5,0.7,0.8,0.9Zm0,16l1.5,1.6c0.3,-0.3,0.7,-0.6,0.8,-0.9L211,988.9l1.5,-1.7c-0.1,-0.3,-0.5,-0.6,-0.8,-0.8l-1.5,1.6l-1.4,-1.6c-0.3,0.2,-0.7,0.5,-0.8,0.8l1.5,1.7l-1.5,1.6c0.1,0.3,0.5,0.6,0.8,0.9Zm0,47.9l1.5,1.6c0.3,-0.2,0.7,-0.6,0.8,-0.8l-1.5,-1.7l1.5,-1.6c-0.1,-0.4,-0.5,-0.6,-0.8,-0.9l-1.5,1.7l-1.4,-1.7c-0.3,0.3,-0.7,0.5,-0.8,0.9l1.5,1.6l-1.5,1.7c0.1,0.2,0.5,0.6,0.8,0.8Zm0,-32l1.5,1.7c0.3,-0.3,0.7,-0.6,0.8,-0.9l-1.5,-1.6l1.5,-1.7c-0.1,-0.3,-0.5,-0.6,-0.8,-0.9l-1.5,1.7l-1.4,-1.7c-0.3,0.3,-0.7,0.6,-0.8,0.9l1.5,1.7l-1.5,1.6c0.1,0.3,0.5,0.6,0.8,0.9Zm0,16l1.5,1.7c0.3,-0.3,0.7,-0.6,0.8,-0.9l-1.5,-1.7l1.5,-1.6c-0.1,-0.4,-0.5,-0.6,-0.8,-0.9l-1.5,1.7l-1.4,-1.7c-0.3,0.3,-0.7,0.5,-0.8,0.9l1.5,1.6l-1.5,1.7c0.1,0.3,0.5,0.6,0.8,0.9Zm0,-129.6l1.5,1.7c0.3,-0.3,0.7,-0.6,0.8,-0.9L211,891.3l1.5,-1.7c-0.1,-0.3,-0.5,-0.6,-0.8,-0.9l-1.5,1.7l-1.4,-1.7c-0.3,0.3,-0.7,0.6,-0.8,0.9l1.5,1.7l-1.5,1.6c0.1,0.3,0.5,0.6,0.8,0.9Zm0,16l1.5,1.7c0.3,-0.3,0.7,-0.7,0.8,-0.9L211,907.2l1.5,-1.6c-0.1,-0.4,-0.5,-0.6,-0.8,-0.9l-1.5,1.7l-1.4,-1.7c-0.3,0.3,-0.7,0.5,-0.8,0.9l1.5,1.6l-1.5,1.7c0.1,0.2,0.5,0.6,0.8,0.9Zm0,48l1.5,1.6c0.3,-0.3,0.7,-0.6,0.8,-0.9L211,955.2l1.5,-1.7c-0.1,-0.3,-0.5,-0.6,-0.8,-0.8l-1.5,1.6l-1.4,-1.6c-0.3,0.2,-0.7,0.5,-0.8,0.8l1.5,1.7l-1.5,1.6c0.1,0.3,0.5,0.6,0.8,0.9Zm0,-32l1.5,1.6c0.3,-0.2,0.7,-0.6,0.8,-0.8L211,923.2l1.5,-1.6c-0.1,-0.4,-0.5,-0.6,-0.8,-0.9l-1.5,1.7l-1.4,-1.7c-0.3,0.3,-0.7,0.5,-0.8,0.9l1.5,1.6l-1.5,1.7c0.1,0.2,0.5,0.6,0.8,0.8Zm0,16l1.5,1.6c0.3,-0.2,0.7,-0.6,0.8,-0.8L211,939.2l1.5,-1.6c-0.1,-0.4,-0.5,-0.7,-0.8,-0.9l-1.5,1.6l-1.4,-1.6c-0.3,0.2,-0.7,0.5,-0.8,0.9l1.5,1.6l-1.5,1.7c0.1,0.2,0.5,0.6,0.8,0.8Zm0,-129.6l1.5,1.6c0.3,-0.2,0.7,-0.6,0.8,-0.8L211,809.6l1.5,-1.6c-0.1,-0.4,-0.5,-0.7,-0.8,-0.9l-1.5,1.6l-1.4,-1.6c-0.3,0.2,-0.7,0.5,-0.8,0.9l1.5,1.6l-1.5,1.7c0.1,0.2,0.5,0.6,0.8,0.8Zm0,16l1.5,1.6c0.3,-0.3,0.7,-0.6,0.8,-0.9L211,825.6l1.5,-1.7c-0.1,-0.3,-0.5,-0.6,-0.8,-0.8l-1.5,1.6l-1.4,-1.6c-0.3,0.2,-0.7,0.5,-0.8,0.8l1.5,1.7l-1.5,1.6c0.1,0.3,0.5,0.6,0.8,0.9Zm0,47.9l1.5,1.7c0.3,-0.3,0.7,-0.7,0.8,-0.9L211,873.5l1.5,-1.6c-0.1,-0.4,-0.5,-0.6,-0.8,-0.9l-1.5,1.7L208.8,871c-0.3,0.3,-0.7,0.5,-0.8,0.9l1.5,1.6l-1.5,1.7c0.1,0.2,0.5,0.6,0.8,0.9Zm0,-32l1.5,1.7c0.3,-0.3,0.7,-0.6,0.8,-0.9L211,841.6l1.5,-1.7c-0.1,-0.3,-0.5,-0.6,-0.8,-0.8l-1.5,1.6l-1.4,-1.6c-0.3,0.2,-0.7,0.5,-0.8,0.8l1.5,1.7l-1.5,1.6c0.1,0.3,0.5,0.6,0.8,0.9Zm0,16l1.5,1.7c0.3,-0.3,0.7,-0.6,0.8,-0.9L211,857.6l1.5,-1.7c-0.1,-0.3,-0.5,-0.6,-0.8,-0.9l-1.5,1.7L208.8,855c-0.3,0.3,-0.7,0.6,-0.8,0.9l1.5,1.7l-1.5,1.6c0.1,0.3,0.5,0.6,0.8,0.9Zm0,-129.6l1.5,1.7c0.3,-0.3,0.7,-0.6,0.8,-0.9L211,728l1.5,-1.7c-0.1,-0.3,-0.5,-0.6,-0.8,-0.9l-1.5,1.7l-1.4,-1.7c-0.3,0.3,-0.7,0.6,-0.8,0.9l1.5,1.7l-1.5,1.6c0.1,0.3,0.5,0.6,0.8,0.9Zm0,16l1.5,1.7c0.3,-0.3,0.7,-0.6,0.8,-0.9L211,743.9l1.5,-1.6c-0.1,-0.4,-0.5,-0.6,-0.8,-0.9l-1.5,1.7l-1.4,-1.7c-0.3,0.3,-0.7,0.5,-0.8,0.9l1.5,1.6l-1.5,1.7c0.1,0.3,0.5,0.6,0.8,0.9Zm0,48l1.5,1.6c0.3,-0.3,0.7,-0.6,0.8,-0.9L211,791.9l1.5,-1.7c-0.1,-0.3,-0.5,-0.6,-0.8,-0.8l-1.5,1.6l-1.4,-1.6c-0.3,0.2,-0.7,0.5,-0.8,0.8l1.5,1.7l-1.5,1.6c0.1,0.3,0.5,0.6,0.8,0.9Zm0,-32l1.5,1.6c0.3,-0.2,0.7,-0.6,0.8,-0.8L211,759.9l1.5,-1.6c-0.1,-0.4,-0.5,-0.6,-0.8,-0.9l-1.5,1.7l-1.4,-1.7c-0.3,0.3,-0.7,0.5,-0.8,0.9l1.5,1.6l-1.5,1.7c0.1,0.2,0.5,0.6,0.8,0.8Zm0,16l1.5,1.6c0.3,-0.2,0.7,-0.6,0.8,-0.8L211,775.9l1.5,-1.6c-0.1,-0.4,-0.5,-0.6,-0.8,-0.9l-1.5,1.6l-1.4,-1.6c-0.3,0.3,-0.7,0.5,-0.8,0.9l1.5,1.6l-1.5,1.7c0.1,0.2,0.5,0.6,0.8,0.8Zm0,-129.6l1.5,1.6c0.3,-0.2,0.7,-0.6,0.8,-0.8L211,646.3l1.5,-1.6c-0.1,-0.4,-0.5,-0.6,-0.8,-0.9l-1.5,1.6l-1.4,-1.6c-0.3,0.3,-0.7,0.5,-0.8,0.9l1.5,1.6L208,648c0.1,0.2,0.5,0.6,0.8,0.8Zm0,16l1.5,1.6c0.3,-0.2,0.7,-0.6,0.8,-0.9L211,662.3l1.5,-1.7c-0.1,-0.3,-0.5,-0.6,-0.8,-0.8l-1.5,1.6l-1.4,-1.6c-0.3,0.2,-0.7,0.5,-0.8,0.8l1.5,1.7l-1.5,1.6c0.1,0.3,0.5,0.7,0.8,0.9Zm0,47.9l1.5,1.7c0.3,-0.3,0.7,-0.6,0.8,-0.9L211,710.2l1.5,-1.6c-0.1,-0.4,-0.5,-0.6,-0.8,-0.9l-1.5,1.7l-1.4,-1.7c-0.3,0.3,-0.7,0.5,-0.8,0.9l1.5,1.6l-1.5,1.7c0.1,0.3,0.5,0.6,0.8,0.9Zm0,-31.9l1.5,1.6c0.3,-0.3,0.7,-0.6,0.8,-0.9L211,678.3l1.5,-1.7c-0.1,-0.3,-0.5,-0.6,-0.8,-0.8l-1.5,1.6l-1.4,-1.6c-0.3,0.2,-0.7,0.5,-0.8,0.8l1.5,1.7l-1.5,1.6c0.1,0.3,0.5,0.6,0.8,0.9Zm0,15.9l1.5,1.7c0.3,-0.3,0.7,-0.6,0.8,-0.9L211,694.3l1.5,-1.7c-0.1,-0.3,-0.5,-0.6,-0.8,-0.9l-1.5,1.7l-1.4,-1.7c-0.3,0.3,-0.7,0.6,-0.8,0.9l1.5,1.7l-1.5,1.6c0.1,0.3,0.5,0.6,0.8,0.9Zm0,-129.6l1.5,1.7c0.3,-0.3,0.7,-0.6,0.8,-0.9L211,564.7l1.5,-1.7c-0.1,-0.3,-0.5,-0.6,-0.8,-0.8l-1.5,1.6l-1.4,-1.6c-0.3,0.2,-0.7,0.5,-0.8,0.8l1.5,1.7l-1.5,1.6c0.1,0.3,0.5,0.6,0.8,0.9Zm0,16l1.5,1.7c0.3,-0.3,0.7,-0.6,0.8,-0.9L211,580.7l1.5,-1.7c-0.1,-0.3,-0.5,-0.6,-0.8,-0.9l-1.5,1.7l-1.4,-1.7c-0.3,0.3,-0.7,0.6,-0.8,0.9l1.5,1.7l-1.5,1.6c0.1,0.3,0.5,0.6,0.8,0.9Zm0,48l1.5,1.6c0.3,-0.2,0.7,-0.6,0.8,-0.8L211,628.6l1.5,-1.7c-0.1,-0.3,-0.5,-0.6,-0.8,-0.8l-1.5,1.6l-1.4,-1.6c-0.3,0.2,-0.7,0.5,-0.8,0.8l1.5,1.7l-1.5,1.7c0.1,0.2,0.5,0.6,0.8,0.8Zm0,-32l1.5,1.7c0.3,-0.3,0.7,-0.7,0.8,-0.9L211,596.6l1.5,-1.6c-0.1,-0.4,-0.5,-0.6,-0.8,-0.9l-1.5,1.7l-1.4,-1.7c-0.3,0.3,-0.7,0.5,-0.8,0.9l1.5,1.6l-1.5,1.7c0.1,0.2,0.5,0.6,0.8,0.9Zm0,16l1.5,1.6c0.3,-0.2,0.7,-0.6,0.8,-0.8L211,612.6l1.5,-1.6c-0.1,-0.4,-0.5,-0.6,-0.8,-0.9l-1.5,1.7l-1.4,-1.7c-0.3,0.3,-0.7,0.5,-0.8,0.9l1.5,1.6l-1.5,1.7c0.1,0.2,0.5,0.6,0.8,0.8Zm0,-129.6l1.5,1.6c0.3,-0.2,0.7,-0.6,0.8,-0.8L211,483l1.5,-1.6c-0.1,-0.4,-0.5,-0.6,-0.8,-0.9l-1.5,1.7l-1.4,-1.7c-0.3,0.3,-0.7,0.5,-0.8,0.9l1.5,1.6l-1.5,1.7c0.1,0.2,0.5,0.6,0.8,0.8Zm0,16l1.5,1.6c0.3,-0.2,0.7,-0.6,0.8,-0.8L211,499l1.5,-1.6c-0.1,-0.4,-0.5,-0.6,-0.8,-0.9l-1.5,1.6l-1.4,-1.6c-0.3,0.3,-0.7,0.5,-0.8,0.9l1.5,1.6l-1.5,1.7c0.1,0.2,0.5,0.6,0.8,0.8Zm0,47.9l1.5,1.7c0.3,-0.3,0.7,-0.6,0.8,-0.9L211,547l1.5,-1.7c-0.1,-0.3,-0.5,-0.6,-0.8,-0.9l-1.5,1.7l-1.4,-1.7c-0.3,0.3,-0.7,0.6,-0.8,0.9l1.5,1.7l-1.5,1.6c0.1,0.3,0.5,0.6,0.8,0.9Zm0,-31.9l1.5,1.6c0.3,-0.3,0.7,-0.6,0.8,-0.9L211,515l1.5,-1.7c-0.1,-0.3,-0.5,-0.6,-0.8,-0.8l-1.5,1.6l-1.4,-1.6c-0.3,0.2,-0.7,0.5,-0.8,0.8l1.5,1.7l-1.5,1.6c0.1,0.3,0.5,0.6,0.8,0.9Zm0,15.9l1.5,1.7c0.3,-0.3,0.7,-0.6,0.8,-0.9L211,531l1.5,-1.7c-0.1,-0.3,-0.5,-0.6,-0.8,-0.8l-1.5,1.6l-1.4,-1.6c-0.3,0.2,-0.7,0.5,-0.8,0.8l1.5,1.7l-1.5,1.6c0.1,0.3,0.5,0.6,0.8,0.9Zm0,-129.5l1.5,1.6c0.3,-0.3,0.7,-0.6,0.8,-0.9L211,401.4l1.5,-1.7c-0.1,-0.3,-0.5,-0.6,-0.8,-0.8l-1.5,1.6l-1.4,-1.6c-0.3,0.2,-0.7,0.5,-0.8,0.8l1.5,1.7L208,403c0.1,0.3,0.5,0.6,0.8,0.9Zm0,15.9l1.5,1.7c0.3,-0.3,0.7,-0.6,0.8,-0.9L211,417.4l1.5,-1.7c-0.1,-0.3,-0.5,-0.6,-0.8,-0.9l-1.5,1.7l-1.4,-1.7c-0.3,0.3,-0.7,0.6,-0.8,0.9l1.5,1.7L208,419c0.1,0.3,0.5,0.6,0.8,0.9Zm0,48l1.5,1.6c0.3,-0.2,0.7,-0.6,0.8,-0.8L211,465.3l1.5,-1.6c-0.1,-0.4,-0.5,-0.6,-0.8,-0.9l-1.5,1.6l-1.4,-1.6c-0.3,0.3,-0.7,0.5,-0.8,0.9l1.5,1.6L208,467c0.1,0.2,0.5,0.6,0.8,0.8Zm0,-32l1.5,1.7c0.3,-0.3,0.7,-0.6,0.8,-0.9L211,433.3l1.5,-1.6c-0.1,-0.4,-0.5,-0.6,-0.8,-0.9l-1.5,1.7l-1.4,-1.7c-0.3,0.3,-0.7,0.5,-0.8,0.9l1.5,1.6L208,435c0.1,0.3,0.5,0.6,0.8,0.9Zm0,16l1.5,1.6c0.3,-0.2,0.7,-0.6,0.8,-0.8L211,449.3l1.5,-1.6c-0.1,-0.4,-0.5,-0.6,-0.8,-0.9l-1.5,1.7l-1.4,-1.7c-0.3,0.3,-0.7,0.5,-0.8,0.9l1.5,1.6L208,451c0.1,0.2,0.5,0.6,0.8,0.8Zm0,-129.6l1.5,1.7c0.3,-0.3,0.7,-0.7,0.8,-0.9L211,319.7l1.5,-1.6c-0.1,-0.4,-0.5,-0.6,-0.8,-0.9l-1.5,1.7l-1.4,-1.7c-0.3,0.3,-0.7,0.5,-0.8,0.9l1.5,1.6l-1.5,1.7c0.1,0.2,0.5,0.6,0.8,0.9Zm0,16l1.5,1.6c0.3,-0.2,0.7,-0.6,0.8,-0.8L211,335.7l1.5,-1.6c-0.1,-0.4,-0.5,-0.6,-0.8,-0.9l-1.5,1.6l-1.4,-1.6c-0.3,0.3,-0.7,0.5,-0.8,0.9l1.5,1.6l-1.5,1.7c0.1,0.2,0.5,0.6,0.8,0.8Zm0,47.9l1.5,1.7c0.3,-0.3,0.7,-0.6,0.8,-0.9L211,383.7l1.5,-1.7c-0.1,-0.3,-0.5,-0.6,-0.8,-0.9l-1.5,1.7l-1.4,-1.7c-0.3,0.3,-0.7,0.6,-0.8,0.9l1.5,1.7l-1.5,1.6c0.1,0.3,0.5,0.6,0.8,0.9Zm0,-31.9l1.5,1.6c0.3,-0.2,0.7,-0.6,0.8,-0.8L211,351.7l1.5,-1.7c-0.1,-0.3,-0.5,-0.6,-0.8,-0.8l-1.5,1.6l-1.4,-1.6c-0.3,0.2,-0.7,0.5,-0.8,0.8l1.5,1.7l-1.5,1.7c0.1,0.2,0.5,0.6,0.8,0.8Zm0,16l1.5,1.6c0.3,-0.3,0.7,-0.6,0.8,-0.9L211,367.7l1.5,-1.7c-0.1,-0.3,-0.5,-0.6,-0.8,-0.8l-1.5,1.6l-1.4,-1.6c-0.3,0.2,-0.7,0.5,-0.8,0.8l1.5,1.7l-1.5,1.6c0.1,0.3,0.5,0.6,0.8,0.9Zm0,-129.6l1.5,1.6c0.3,-0.3,0.7,-0.6,0.8,-0.9L211,238.1l1.5,-1.7c-0.1,-0.3,-0.5,-0.6,-0.8,-0.8l-1.5,1.6l-1.4,-1.6c-0.3,0.2,-0.7,0.5,-0.8,0.8l1.5,1.7l-1.5,1.6c0.1,0.3,0.5,0.6,0.8,0.9Zm0,15.9l1.5,1.7c0.3,-0.3,0.7,-0.6,0.8,-0.9L211,254.1l1.5,-1.7c-0.1,-0.3,-0.5,-0.6,-0.8,-0.8l-1.5,1.6l-1.4,-1.6c-0.3,0.2,-0.7,0.5,-0.8,0.8l1.5,1.7l-1.5,1.6c0.1,0.3,0.5,0.6,0.8,0.9Zm0,48l1.5,1.6c0.3,-0.2,0.7,-0.6,0.8,-0.8L211,302l1.5,-1.6c-0.1,-0.4,-0.5,-0.6,-0.8,-0.9l-1.5,1.6l-1.4,-1.6c-0.3,0.3,-0.7,0.5,-0.8,0.9l1.5,1.6l-1.5,1.7c0.1,0.2,0.5,0.6,0.8,0.8Zm0,-32l1.5,1.7c0.3,-0.3,0.7,-0.6,0.8,-0.9L211,270.1l1.5,-1.7c-0.1,-0.3,-0.5,-0.6,-0.8,-0.9l-1.5,1.7l-1.4,-1.7c-0.3,0.3,-0.7,0.6,-0.8,0.9l1.5,1.7l-1.5,1.6c0.1,0.3,0.5,0.6,0.8,0.9Zm0,16l1.5,1.7c0.3,-0.3,0.7,-0.7,0.8,-0.9L211,286l1.5,-1.6c-0.1,-0.4,-0.5,-0.6,-0.8,-0.9l-1.5,1.7l-1.4,-1.7c-0.3,0.3,-0.7,0.5,-0.8,0.9l1.5,1.6l-1.5,1.7c0.1,0.2,0.5,0.6,0.8,0.9Zm0,-129.6l1.5,1.7c0.3,-0.3,0.7,-0.6,0.8,-0.9L211,156.4l1.5,-1.6c-0.1,-0.4,-0.5,-0.6,-0.8,-0.9l-1.5,1.7l-1.4,-1.7c-0.3,0.3,-0.7,0.5,-0.8,0.9l1.5,1.6l-1.5,1.7c0.1,0.3,0.5,0.6,0.8,0.9Zm0,16l1.5,1.6c0.3,-0.2,0.7,-0.6,0.8,-0.8L211,172.4l1.5,-1.6c-0.1,-0.4,-0.5,-0.6,-0.8,-0.9l-1.5,1.7l-1.4,-1.7c-0.3,0.3,-0.7,0.5,-0.8,0.9l1.5,1.6l-1.5,1.7c0.1,0.2,0.5,0.6,0.8,0.8Zm0,47.9l1.5,1.7c0.3,-0.3,0.7,-0.6,0.8,-0.9L211,220.4l1.5,-1.7c-0.1,-0.3,-0.5,-0.6,-0.8,-0.8l-1.5,1.6l-1.4,-1.6c-0.3,0.2,-0.7,0.5,-0.8,0.8l1.5,1.7L208,222c0.1,0.3,0.5,0.6,0.8,0.9Zm0,-31.9l1.5,1.6c0.3,-0.2,0.7,-0.6,0.8,-0.8L211,188.4l1.5,-1.6c-0.1,-0.4,-0.5,-0.6,-0.8,-0.9l-1.5,1.6l-1.4,-1.6c-0.3,0.3,-0.7,0.5,-0.8,0.9l1.5,1.6l-1.5,1.7c0.1,0.2,0.5,0.6,0.8,0.8Zm0,16l1.5,1.6c0.3,-0.3,0.7,-0.6,0.8,-0.9L211,204.4l1.5,-1.7c-0.1,-0.3,-0.5,-0.6,-0.8,-0.8l-1.5,1.6l-1.4,-1.6c-0.3,0.2,-0.7,0.5,-0.8,0.8l1.5,1.7L208,206c0.1,0.3,0.5,0.6,0.8,0.9Zm0,-129.6l1.5,1.6c0.3,-0.2,0.7,-0.6,0.8,-0.8L211,74.8l1.5,-1.7c-0.1,-0.3,-0.5,-0.6,-0.8,-0.8l-1.5,1.6l-1.4,-1.6c-0.3,0.2,-0.7,0.5,-0.8,0.8l1.5,1.7L208,76.5c0.1,0.2,0.5,0.6,0.8,0.8Zm0,16l1.5,1.6c0.3,-0.3,0.7,-0.6,0.8,-0.9L211,90.8l1.5,-1.7c-0.1,-0.3,-0.5,-0.6,-0.8,-0.8l-1.5,1.6l-1.4,-1.6c-0.3,0.2,-0.7,0.5,-0.8,0.8l1.5,1.7L208,92.4c0.1,0.3,0.5,0.6,0.8,0.9Zm0,47.9l1.5,1.6c0.3,-0.2,0.7,-0.6,0.8,-0.8L211,138.7l1.5,-1.6c-0.1,-0.4,-0.5,-0.6,-0.8,-0.9l-1.5,1.7l-1.4,-1.7c-0.3,0.3,-0.7,0.5,-0.8,0.9l1.5,1.6l-1.5,1.7c0.1,0.2,0.5,0.6,0.8,0.8Zm0,-32l1.5,1.7c0.3,-0.3,0.7,-0.6,0.8,-0.9L211,106.8l1.5,-1.7c-0.1,-0.3,-0.5,-0.6,-0.8,-0.9l-1.5,1.7l-1.4,-1.7c-0.3,0.3,-0.7,0.6,-0.8,0.9l1.5,1.7l-1.5,1.6c0.1,0.3,0.5,0.6,0.8,0.9Zm0,16l1.5,1.7c0.3,-0.3,0.7,-0.6,0.8,-0.9L211,122.7l1.5,-1.6c-0.1,-0.4,-0.5,-0.6,-0.8,-0.9l-1.5,1.7l-1.4,-1.7c-0.3,0.3,-0.7,0.5,-0.8,0.9l1.5,1.6l-1.5,1.7c0.1,0.3,0.5,0.6,0.8,0.9Zm0,-126l1.5,1.6c0.3,-0.2,0.7,-0.6,0.8,-0.8L211,-3.3l1.5,-1.6c-0.1,-0.4,-0.5,-0.6,-0.8,-0.9l-1.5,1.7l-1.4,-1.7c-0.3,0.3,-0.7,0.5,-0.8,0.9l1.5,1.6L208,-1.6c0.1,0.2,0.5,0.6,0.8,0.8Zm0,15.9l1.5,1.6c0.3,-0.2,0.7,-0.6,0.8,-0.8L211,12.6L212.5,11c-0.1,-0.4,-0.5,-0.6,-0.8,-0.9l-1.5,1.6l-1.4,-1.6c-0.3,0.3,-0.7,0.5,-0.8,0.9l1.5,1.6L208,14.3c0.1,0.2,0.5,0.6,0.8,0.8Zm0,47.9l1.5,1.7c0.3,-0.3,0.7,-0.6,0.8,-0.9L211,60.6l1.5,-1.7C212.4,58.6,212,58.3,211.7,58l-1.5,1.7L208.8,58c-0.3,0.3,-0.7,0.6,-0.8,0.9l1.5,1.7L208,62.2c0.1,0.3,0.5,0.6,0.8,0.9Zm0,-31.9l1.5,1.6c0.3,-0.2,0.7,-0.6,0.8,-0.9L211,28.6l1.5,-1.7c-0.1,-0.3,-0.5,-0.6,-0.8,-0.8l-1.5,1.6l-1.4,-1.6c-0.3,0.2,-0.7,0.5,-0.8,0.8l1.5,1.7L208,30.2c0.1,0.3,0.5,0.7,0.8,0.9Zm0,15.9l1.5,1.7c0.3,-0.3,0.7,-0.6,0.8,-0.9L211,44.6l1.5,-1.7c-0.1,-0.3,-0.5,-0.6,-0.8,-0.8l-1.5,1.6l-1.4,-1.6c-0.3,0.2,-0.7,0.5,-0.8,0.8l1.5,1.7L208,46.2c0.1,0.3,0.5,0.6,0.8,0.9Z" class="g3_3" />
</g>
<path d="M281.5,31.4c-3,-0.5,-6,0,-9,0.2c-6.6,0.6,-12.3,5.7,-13.7,12.7c-0.3,1.6,-0.5,3.3,-0.7,4.7c0.1,4.5,1.1,8.4,3.6,11.8c3.4,4.9,8,8,13.8,9.3c5.6,1.4,10.3,-0.7,14.1,-4.4c2.8,-2.8,4.8,-6.3,5.4,-10.4c0.1,-0.8,0.2,-1.6,0.4,-2.3c1.1,-4.5,0,-8.7,-1.9,-12.5c-2.3,-4.9,-6.3,-8.3,-12,-9.1Z" class="g4_3" />
<path d="M282.4,219.7c0,0,-21.6,0,-21.6,21.6l0,285.3c0,0,0,21.7,21.6,21.7l807.2,0c0,0,21.7,0,21.7,-21.7l0,-285.3c0,0,0,-21.6,-21.7,-21.6Z" class="g3_3" />
<path d="M282.4,219.7c0,0,-21.6,0,-21.6,21.6l0,285.3c0,0,0,21.7,21.6,21.7l807.2,0c0,0,21.7,0,21.7,-21.7l0,-285.3c0,0,0,-21.6,-21.7,-21.6l-807.2,0Z" class="g5_3" />
<path d="M286,737.5c0,0,-21.6,0,-21.6,21.7l0,285.2c0,0,0,21.7,21.6,21.7l807.2,0c0,0,21.7,0,21.7,-21.7l0,-285.2c0,0,0,-21.7,-21.7,-21.7Z" class="g3_3" />
<path d="M286,737.5c0,0,-21.6,0,-21.6,21.7l0,285.2c0,0,0,21.7,21.6,21.7l807.2,0c0,0,21.7,0,21.7,-21.7l0,-285.2c0,0,0,-21.7,-21.7,-21.7l-807.2,0Z" class="g5_3" />
<path d="M271.1,222.8c-4.2,2.2,-8.1,6.1,-9.4,12.4" class="g6_3" />
<path d="M261.5,253.5l0,268" class="g7_3" />
<path d="M263.7,537.8c2.2,4.3,6.1,8.1,12.4,9.5" class="g6_3" />
<path d="M293.5,547.5l792,0" class="g7_3" />
<path d="M1101.6,545.3c4.2,-2.3,8.1,-6.1,9.5,-12.5" class="g6_3" />
<path d="M1111.5,515.5l0,-269" class="g7_3" />
<path d="M1109,230.2c-2.2,-4.2,-6.1,-8.1,-12.4,-9.5" class="g6_3" />
<path d="M1078.5,220.5l-791,0" class="g7_3" />
<path d="M261.5,240.5l0,0m0,287l0,0m20,20l0,0m810,0l0,0m20,-20l0,0m0,-287l0,0m-20,-20l0,0m-810,0l0,0" class="g8_3" />
<path d="M274.8,740.6c-4.3,2.2,-8.1,6.1,-9.5,12.4" class="g6_3" />
<path d="M264.5,770.5l0,269" class="g7_3" />
<path d="M267.3,1055.7c2.3,4.2,6.1,8,12.5,9.4" class="g6_3" />
<path d="M297.5,1065.5l791,0" class="g7_3" />
<path d="M1105.2,1063.1c4.2,-2.2,8.1,-6.1,9.5,-12.4" class="g6_3" />
<path d="M1115.5,1032.5l0,-268" class="g7_3" />
<path d="M1112.6,748c-2.2,-4.2,-6.1,-8.1,-12.4,-9.5" class="g6_3" />
<path d="M1082.5,737.5l-791,0" class="g7_3" />
<path d="M264.5,758.5l0,0m0,287l0,0m21,20l0,0m809,0l0,0m21,-20l0,0m0,-287l0,0m-21,-21l0,0m-809,0l0,0" class="g8_3" />
<path d="M851.4,88.4l-0.1,0.1c0.4,-0.4,0.8,-0.8,1.2,-1.2c0,-0.5,0.1,-0.9,0.2,-1.4c0.3,-2.7,0.4,-5.5,0.6,-8.1c0.1,-2.2,0.2,-4.5,-0.1,-6.7c0,-0.8,-0.1,-1.5,0.1,-2.2c0,-0.8,0.1,-1.5,0.2,-2.4c0.2,-3.9,0.4,-7.8,0.9,-11.7c0.1,-0.8,0.3,-1.6,0.1,-2.5c0,-2.2,0.2,-4.4,-0.2,-6.6c0.1,-2.1,-0.4,-4.1,-0.1,-6.1c0.1,-1.3,-0.2,-2.5,-0.4,-3.9c0,-0.4,-0.3,-0.9,-0.7,-1c-1.1,-0.2,-2.2,-0.5,-3.2,-0.6c-2,-0.3,-3.8,-0.7,-5.6,-0.8c-4.2,-0.2,-8.2,-0.8,-12.4,-0.6c-1.9,0.2,-4,0.2,-5.9,0.3c-2.1,0.1,-4.3,0.2,-6.6,0.5c-1.1,0.2,-2.3,0.2,-3.6,0.2c-1.5,0.2,-3.2,0.2,-4.8,0.8c-0.7,0.1,-1.5,0.1,-2.2,0.2c-0.9,0,-1.6,-0.2,-2.3,-0.3C803.6,33.9,800.6,34,797.6,34c-1.8,0.2,-3.7,0.1,-5.5,0c-2.8,-0.3,-5.7,-0.2,-8.5,-0.7c-0.2,0,-0.2,0,-0.3,0c-2.9,-0.1,-5.7,0,-8.5,-0.3c-3,-0.2,-6,0,-8.9,-0.2c-3.2,-0.3,-6.5,-0.1,-9.8,-0.1c-1.7,0,-3.5,-0.1,-5.2,-0.4c-1.2,-0.1,-2.6,-0.2,-3.9,0c-3,0.1,-6.1,0.1,-9.2,0c-0.6,0,-1.3,0,-1.9,0c-3.5,0.2,-6.8,0.3,-10.1,0.2c-3,-0.1,-5.7,-0.1,-8.7,-0.3c-1.1,-0.1,-2.3,0.1,-3.4,0.1c-7.5,-0.2,-14.9,-0.9,-22.4,-0.6c-0.4,0,-1,0,-1.5,0c-3.5,0.1,-6.9,-0.7,-10.2,-0.1c-0.3,0,-0.7,0,-1,0c-2.3,-0.2,-4.8,-0.1,-7.2,-0.1c-2.9,0,-5.8,0.4,-8.7,1c-0.6,0.1,-1.1,0.1,-1.7,0.1c-2.1,0.1,-4.2,0,-6.2,0.4c-0.9,0.2,-1.7,0.1,-2.5,0.1c-5.9,0.1,-11.7,0,-17.4,-0.3c-1.5,-0.1,-3.1,0.4,-4.6,0.4c-1.7,0,-3.2,-0.4,-4.9,-0.2c-1.4,0.2,-2.6,0.2,-4,0.3C616,34,610.3,33.8,604.7,34.2c-0.1,0,-0.4,0,-0.5,0c-2,0,-3.8,0.2,-5.6,0.2c-1.4,0.1,-2.6,0.2,-3.8,0.2c-2.7,-0.1,-5.2,-0.2,-7.7,-0.1c-6.7,0,-13.5,-0.1,-20.3,-0.1c-0.5,0,-1.1,0,-1.5,-0.1c-2.2,-0.5,-4.5,-0.5,-6.6,-0.4c-2.3,0,-4.7,0.2,-6.9,0c-2.2,-0.3,-4.3,-0.2,-6.5,-0.2c-2.4,-0.1,-4.8,-0.1,-7.3,-0.2c-0.9,0.1,-2.1,-0.1,-3.2,-0.2c-1.1,-0.1,-2.2,-0.4,-3.2,-0.5c-0.5,0,-0.8,0.3,-1.1,0.7c0,0.6,0,1.1,0.1,1.7c0.1,0.8,0.1,1.5,0.3,2.2c0.4,2.4,0.6,4.9,0.4,7.4C530.9,47.6,531,50.2,531,53c0.1,5.3,0.2,10.5,0.1,16c0.1,1.6,0.1,3.4,0.1,5.2c0.1,3.8,0.2,7.5,0.2,11.3c0,0.8,0.5,1.4,1.3,1.6c1.5,0,3.2,-0.2,4.7,-0.2c3.6,0.1,7.3,-0.2,10.9,-0.2c3.3,0.1,6.8,-0.1,10.1,0.3c0.4,0.1,0.9,0,1.4,-0.1c2.9,0.1,5.8,0.2,8.8,0.2c0.7,0,1.4,-0.1,1.9,0.1c2.5,0.3,5,0.4,7.5,0.7c1.4,0,2.7,0.2,3.9,0.2c4.5,-0.1,8.8,-0.2,13.2,-0.2c0.7,-0.1,1.6,-0.1,2.2,-0.1c4.5,0.1,9.1,0,13.5,0.1c0.7,-0.1,1.6,-0.2,2.3,-0.1c1.3,0,2.9,-0.2,4.3,-0.1c1.3,0.2,2.7,0,4.1,0c2.4,-0.1,4.6,-0.2,7,0c4.7,0.5,9.6,0.5,14.3,0c1.5,-0.3,2.9,-0.5,4.3,-0.3c2.4,0.2,4.6,0,6.8,-0.2c2.2,-0.3,4.4,-0.4,6.5,0.1c0.7,0.1,1.4,0.1,2,0.1c1.4,0.1,2.6,0.2,4,0.3c3.9,0.5,7.9,0.6,12.1,0.4c1.3,-0.1,2.6,-0.1,3.9,0c2.4,0.4,4.7,0.4,7.2,0.2c1.6,0,3.1,-0.1,4.6,-0.1c1.7,0,3.5,-0.1,5.2,-0.1c2,0,4.1,-0.1,6.2,-0.1c2.9,0,5.8,0,8.9,-0.3c0.4,0,0.8,0,1.2,0c3.4,0.1,6.6,0,9.9,0.1c3.6,0.1,7.4,0,11.1,0.2c2,0,3.9,0.1,5.9,0.2c1.4,0.1,2.8,0.2,4.3,0.2c2.4,0.2,4.7,0.5,7.1,0.4c3.5,0.1,6.8,0.1,10.1,0.1c2.8,0.1,5.6,0.1,8.2,0.2c3.2,0.1,6.4,0,9.6,-0.1c1.8,0,3.6,0,5.6,-0.1c4.4,0,8.9,-0.1,13.3,-0.2c1,0,2.1,-0.2,2.9,0.1c2.1,0.4,4.2,0.2,6.3,-0.1c0.8,-0.2,1.6,-0.2,2.6,-0.2c1.5,0,3.1,-0.2,4.5,-0.6c0.9,-0.2,1.9,-0.3,3,-0.4c1,0.2,2.1,0,3.2,0c1.3,0,2.6,-0.2,3.9,-0.1c3,0,6.1,-0.2,9.2,0.1c2.9,0.3,5.9,0.3,8.9,0.4c0.9,0.2,1.9,0.4,2.9,0.5c1,0.3,2.1,-0.3,3.2,0m-349.9,-1c-0.7,1.8,-1.5,3.5,-2.2,5.3c-1,2.4,-2.3,4.8,-3.2,7.3c-1.1,2.8,-2.3,5.3,-3.6,8c-0.5,1.1,-1.1,2.2,-1.9,3.2c-0.3,0.2,-0.3,0.4,-0.4,0.6c-0.3,0.5,-0.1,1.2,0.2,1.6c1,1,1.9,1.4,3.3,1.2c3.4,-0.4,6.7,-0.6,10.2,-0.7c2.5,0,5.1,0.2,7.7,0.4c3.8,0.5,7.6,1,11.5,0.8c2,0,4.1,0.1,6.2,0.2c2.7,0.3,5.2,0.3,7.8,0c3.3,-0.2,6.8,-0.4,10.1,-0.1c2.1,0.3,4.2,0.4,6.3,-0.1c3.3,-0.6,6.7,-0.5,10,-0.2c1.2,0.2,2.5,0.1,3.6,0.1c0.8,0,1.5,-0.7,1.6,-1.5c0.2,-0.7,0.2,-1.3,-0.1,-1.7c-0.2,-0.1,-0.2,-0.3,-0.3,-0.3c-0.8,-0.5,-1.8,-0.9,-2.7,-1.5c-2.8,-1.4,-5.7,-2.8,-8.8,-3.8c-0.3,0,-0.5,-0.2,-0.8,-0.3c-4.7,-2.1,-9.1,-4.1,-13.7,-5.9c-0.7,-0.2,-1.5,-0.6,-2.2,-0.9C539.4,98.7,538.7,98.3,538,98c-3.7,-1.3,-7.2,-3.2,-10.6,-5.3c-0.3,-0.2,-0.4,-0.2,-0.6,-0.3C526.6,92.2,526.3,92,526,91.7c-0.2,-0.4,-0.2,-1,-0.2,-1.4C525.5,86.8,525.6,83.5,525.6,80c0.1,-5.2,-0.4,-10.5,-0.5,-15.9c0,-1,-0.3,-1.8,-0.6,-2.7c-0.3,-0.8,-0.9,-1.2,-1.4,-1.3C522.5,59.9,522,59.9,521.4,60c-2.2,-0.1,-4.3,-0.4,-6.5,-0.6c-3.1,-0.4,-6.3,-0.9,-9.5,-0.3c-0.5,0.2,-1.1,0,-1.7,0.1c-2,0,-4.3,-0.2,-6.5,0.1c-0.7,0.1,-1.5,0,-2.2,-0.1c-2.8,-0.3,-5.4,-0.1,-8.2,0c-0.3,0,-0.4,0.1,-0.7,0.3c0,0.2,-0.1,0.5,-0.1,0.9c0,0.5,0.1,0.9,0.3,1.3c1.3,2.3,2.6,4.8,3.8,7.1c2.1,3.6,4.5,7.1,6.8,10.5c1.5,2.5,3.1,5.1,4.6,8.1m351.3,7.8c-0.9,0.8,-2,1.3,-3.2,1.7c-3.3,1.2,-6.6,2.2,-9.7,4.2c-0.5,0.6,-1.3,0.7,-2,1c-2,0.3,-3.8,1.2,-5.4,2.3c-1.5,0.9,-3.2,1.9,-4.7,2.6c-2.9,1.3,-5.8,2.6,-8.7,3.9c-1.6,0.9,-3.1,1.7,-4.7,2.6c-0.4,0.1,-0.6,0.3,-0.8,0.6c-0.4,0.4,-0.5,0.9,-0.5,1.6c0,0.5,0.7,1,1.1,1c0.4,0,0.7,0,1,0c3.7,-0.2,7.4,-0.4,11.1,-0.8c3.3,-0.5,6.8,-0.4,10.1,-0.6c2.5,0,5,0.1,7.5,0c2.1,0,4.2,-0.3,6.3,-0.5c2.6,-0.2,5.4,-0.4,8.2,-0.1c3.2,0.3,6.5,0.4,9.7,0.4c2,-0.1,3.9,0,5.9,0.3c1.8,0.1,3.4,0.2,5.2,0.2c4.3,-0.3,8.8,0.1,13,1.1c0.5,0.1,1.1,-0.1,1.5,-0.7c0.5,-0.6,0.5,-1.4,0.2,-2.2c0,-0.3,-0.1,-0.4,-0.3,-0.7c-1.1,-1.8,-2,-3.9,-2.7,-5.9c-1.4,-3.8,-3,-7.4,-4.5,-11.1c-1,-2.6,-1.9,-5.2,-3.2,-7.7c-0.1,-0.2,-0.1,-0.3,-0.1,-0.4c0.2,-0.9,0.4,-1.8,0.6,-2.7C884.8,82,886,78.6,888,75.8c0.4,-0.7,0.8,-1.4,1.2,-2.1c1.1,-2.5,2.7,-4.6,4.3,-6.6c0.6,-0.7,1.1,-1.4,1.7,-2.3c0.4,-0.4,0.4,-1.1,0.1,-1.6c-0.2,-0.3,-0.4,-0.4,-0.6,-0.7c-0.8,-0.1,-1.7,-0.1,-2.4,-0.3c-0.8,-0.1,-1.6,-0.3,-2.5,-0.6c-0.8,-0.1,-1.6,-0.4,-2.6,-0.5c-3.4,-0.2,-6.7,-0.7,-10,-1.1c-0.2,-0.1,-0.3,-0.1,-0.3,-0.1c-2.2,-0.1,-4.5,-0.2,-6.6,-0.6c-3,-0.5,-6.1,-0.2,-9.1,-0.1c-0.7,0,-1.6,0.7,-1.5,1.5c-0.2,0.4,-0.2,0.9,-0.2,1.4c0.1,1.3,0.1,2.7,-0.2,3.9c-0.3,2.2,-0.6,4.5,-0.4,6.7c0,0.4,0,1,0,1.4c-0.2,4.6,-0.4,9.2,-0.7,13.7c0,1.4,0,3,-0.4,4.4c-1.1,0.7,-2.1,1.5,-3.2,2.2c-0.6,0.3,-1.7,0.6,-1.8,0.8Z" class="g4_3" />
<path d="M851.4,88.4l-0.1,0.1c0.4,-0.4,0.8,-0.8,1.2,-1.2c0,-0.5,0.1,-0.9,0.2,-1.4c0.3,-2.7,0.4,-5.5,0.6,-8.1c0.1,-2.2,0.2,-4.5,-0.1,-6.7c0,-0.8,-0.1,-1.5,0.1,-2.2c0,-0.8,0.1,-1.5,0.2,-2.4c0.2,-3.9,0.4,-7.8,0.9,-11.7c0.1,-0.8,0.3,-1.6,0.1,-2.5c0,-2.2,0.2,-4.4,-0.2,-6.6c0.1,-2.1,-0.4,-4.1,-0.1,-6.1c0.1,-1.3,-0.2,-2.5,-0.4,-3.9c0,-0.4,-0.3,-0.9,-0.7,-1c-1.1,-0.2,-2.2,-0.5,-3.2,-0.6c-2,-0.3,-3.8,-0.7,-5.6,-0.8c-4.2,-0.2,-8.2,-0.8,-12.4,-0.6c-1.9,0.2,-4,0.2,-5.9,0.3c-2.1,0.1,-4.3,0.2,-6.6,0.5c-1.1,0.2,-2.3,0.2,-3.6,0.2c-1.5,0.2,-3.2,0.2,-4.8,0.8c-0.7,0.1,-1.5,0.1,-2.2,0.2c-0.9,0,-1.6,-0.2,-2.3,-0.3C803.6,33.9,800.6,34,797.6,34c-1.8,0.2,-3.7,0.1,-5.5,0c-2.8,-0.3,-5.7,-0.2,-8.5,-0.7c-0.2,0,-0.2,0,-0.3,0c-2.9,-0.1,-5.7,0,-8.5,-0.3c-3,-0.2,-6,0,-8.9,-0.2c-3.2,-0.3,-6.5,-0.1,-9.8,-0.1c-1.7,0,-3.5,-0.1,-5.2,-0.4c-1.2,-0.1,-2.6,-0.2,-3.9,0c-3,0.1,-6.1,0.1,-9.2,0c-0.6,0,-1.3,0,-1.9,0c-3.5,0.2,-6.8,0.3,-10.1,0.2c-3,-0.1,-5.7,-0.1,-8.7,-0.3c-1.1,-0.1,-2.3,0.1,-3.4,0.1c-7.5,-0.2,-14.9,-0.9,-22.4,-0.6c-0.4,0,-1,0,-1.5,0c-3.5,0.1,-6.9,-0.7,-10.2,-0.1c-0.3,0,-0.7,0,-1,0c-2.3,-0.2,-4.8,-0.1,-7.2,-0.1c-2.9,0,-5.8,0.4,-8.7,1c-0.6,0.1,-1.1,0.1,-1.7,0.1c-2.1,0.1,-4.2,0,-6.2,0.4c-0.9,0.2,-1.7,0.1,-2.5,0.1c-5.9,0.1,-11.7,0,-17.4,-0.3c-1.5,-0.1,-3.1,0.4,-4.6,0.4c-1.7,0,-3.2,-0.4,-4.9,-0.2c-1.4,0.2,-2.6,0.2,-4,0.3C616,34,610.3,33.8,604.7,34.2c-0.1,0,-0.4,0,-0.5,0c-2,0,-3.8,0.2,-5.6,0.2c-1.4,0.1,-2.6,0.2,-3.8,0.2c-2.7,-0.1,-5.2,-0.2,-7.7,-0.1c-6.7,0,-13.5,-0.1,-20.3,-0.1c-0.5,0,-1.1,0,-1.5,-0.1c-2.2,-0.5,-4.5,-0.5,-6.6,-0.4c-2.3,0,-4.7,0.2,-6.9,0c-2.2,-0.3,-4.3,-0.2,-6.5,-0.2c-2.4,-0.1,-4.8,-0.1,-7.3,-0.2c-0.9,0.1,-2.1,-0.1,-3.2,-0.2c-1.1,-0.1,-2.2,-0.4,-3.2,-0.5c-0.5,0,-0.8,0.3,-1.1,0.7c0,0.6,0,1.1,0.1,1.7c0.1,0.8,0.1,1.5,0.3,2.2c0.4,2.4,0.6,4.9,0.4,7.4C530.9,47.6,531,50.2,531,53c0.1,5.3,0.2,10.5,0.1,16c0.1,1.6,0.1,3.4,0.1,5.2c0.1,3.8,0.2,7.5,0.2,11.3c0,0.8,0.5,1.4,1.3,1.6c1.5,0,3.2,-0.2,4.7,-0.2c3.6,0.1,7.3,-0.2,10.9,-0.2c3.3,0.1,6.8,-0.1,10.1,0.3c0.4,0.1,0.9,0,1.4,-0.1c2.9,0.1,5.8,0.2,8.8,0.2c0.7,0,1.4,-0.1,1.9,0.1c2.5,0.3,5,0.4,7.5,0.7c1.4,0,2.7,0.2,3.9,0.2c4.5,-0.1,8.8,-0.2,13.2,-0.2c0.7,-0.1,1.6,-0.1,2.2,-0.1c4.5,0.1,9.1,0,13.5,0.1c0.7,-0.1,1.6,-0.2,2.3,-0.1c1.3,0,2.9,-0.2,4.3,-0.1c1.3,0.2,2.7,0,4.1,0c2.4,-0.1,4.6,-0.2,7,0c4.7,0.5,9.6,0.5,14.3,0c1.5,-0.3,2.9,-0.5,4.3,-0.3c2.4,0.2,4.6,0,6.8,-0.2c2.2,-0.3,4.4,-0.4,6.5,0.1c0.7,0.1,1.4,0.1,2,0.1c1.4,0.1,2.6,0.2,4,0.3c3.9,0.5,7.9,0.6,12.1,0.4c1.3,-0.1,2.6,-0.1,3.9,0c2.4,0.4,4.7,0.4,7.2,0.2c1.6,0,3.1,-0.1,4.6,-0.1c1.7,0,3.5,-0.1,5.2,-0.1c2,0,4.1,-0.1,6.2,-0.1c2.9,0,5.8,0,8.9,-0.3c0.4,0,0.8,0,1.2,0c3.4,0.1,6.6,0,9.9,0.1c3.6,0.1,7.4,0,11.1,0.2c2,0,3.9,0.1,5.9,0.2c1.4,0.1,2.8,0.2,4.3,0.2c2.4,0.2,4.7,0.5,7.1,0.4c3.5,0.1,6.8,0.1,10.1,0.1c2.8,0.1,5.6,0.1,8.2,0.2c3.2,0.1,6.4,0,9.6,-0.1c1.8,0,3.6,0,5.6,-0.1c4.4,0,8.9,-0.1,13.3,-0.2c1,0,2.1,-0.2,2.9,0.1c2.1,0.4,4.2,0.2,6.3,-0.1c0.8,-0.2,1.6,-0.2,2.6,-0.2c1.5,0,3.1,-0.2,4.5,-0.6c0.9,-0.2,1.9,-0.3,3,-0.4c1,0.2,2.1,0,3.2,0c1.3,0,2.6,-0.2,3.9,-0.1c3,0,6.1,-0.2,9.2,0.1c2.9,0.3,5.9,0.3,8.9,0.4c0.9,0.2,1.9,0.4,2.9,0.5c1,0.3,2.1,-0.3,3.2,0Zm-349.9,-1c-0.7,1.8,-1.5,3.5,-2.2,5.3c-1,2.4,-2.3,4.8,-3.2,7.3c-1.1,2.8,-2.3,5.3,-3.6,8c-0.5,1.1,-1.1,2.2,-1.9,3.2c-0.3,0.2,-0.3,0.4,-0.4,0.6c-0.3,0.5,-0.1,1.2,0.2,1.6c1,1,1.9,1.4,3.3,1.2c3.4,-0.4,6.7,-0.6,10.2,-0.7c2.5,0,5.1,0.2,7.7,0.4c3.8,0.5,7.6,1,11.5,0.8c2,0,4.1,0.1,6.2,0.2c2.7,0.3,5.2,0.3,7.8,0c3.3,-0.2,6.8,-0.4,10.1,-0.1c2.1,0.3,4.2,0.4,6.3,-0.1c3.3,-0.6,6.7,-0.5,10,-0.2c1.2,0.2,2.5,0.1,3.6,0.1c0.8,0,1.5,-0.7,1.6,-1.5c0.2,-0.7,0.2,-1.3,-0.1,-1.7c-0.2,-0.1,-0.2,-0.3,-0.3,-0.3c-0.8,-0.5,-1.8,-0.9,-2.7,-1.5c-2.8,-1.4,-5.7,-2.8,-8.8,-3.8c-0.3,0,-0.5,-0.2,-0.8,-0.3c-4.7,-2.1,-9.1,-4.1,-13.7,-5.9c-0.7,-0.2,-1.5,-0.6,-2.2,-0.9C539.4,98.7,538.7,98.3,538,98c-3.7,-1.3,-7.2,-3.2,-10.6,-5.3c-0.3,-0.2,-0.4,-0.2,-0.6,-0.3C526.6,92.2,526.3,92,526,91.7c-0.2,-0.4,-0.2,-1,-0.2,-1.4C525.5,86.8,525.6,83.5,525.6,80c0.1,-5.2,-0.4,-10.5,-0.5,-15.9c0,-1,-0.3,-1.8,-0.6,-2.7c-0.3,-0.8,-0.9,-1.2,-1.4,-1.3C522.5,59.9,522,59.9,521.4,60c-2.2,-0.1,-4.3,-0.4,-6.5,-0.6c-3.1,-0.4,-6.3,-0.9,-9.5,-0.3c-0.5,0.2,-1.1,0,-1.7,0.1c-2,0,-4.3,-0.2,-6.5,0.1c-0.7,0.1,-1.5,0,-2.2,-0.1c-2.8,-0.3,-5.4,-0.1,-8.2,0c-0.3,0,-0.4,0.1,-0.7,0.3c0,0.2,-0.1,0.5,-0.1,0.9c0,0.5,0.1,0.9,0.3,1.3c1.3,2.3,2.6,4.8,3.8,7.1c2.1,3.6,4.5,7.1,6.8,10.5c1.5,2.5,3.1,5.1,4.6,8.1Zm351.3,7.8c-0.9,0.8,-2,1.3,-3.2,1.7c-3.3,1.2,-6.6,2.2,-9.7,4.2c-0.5,0.6,-1.3,0.7,-2,1c-2,0.3,-3.8,1.2,-5.4,2.3c-1.5,0.9,-3.2,1.9,-4.7,2.6c-2.9,1.3,-5.8,2.6,-8.7,3.9c-1.6,0.9,-3.1,1.7,-4.7,2.6c-0.4,0.1,-0.6,0.3,-0.8,0.6c-0.4,0.4,-0.5,0.9,-0.5,1.6c0,0.5,0.7,1,1.1,1c0.4,0,0.7,0,1,0c3.7,-0.2,7.4,-0.4,11.1,-0.8c3.3,-0.5,6.8,-0.4,10.1,-0.6c2.5,0,5,0.1,7.5,0c2.1,0,4.2,-0.3,6.3,-0.5c2.6,-0.2,5.4,-0.4,8.2,-0.1c3.2,0.3,6.5,0.4,9.7,0.4c2,-0.1,3.9,0,5.9,0.3c1.8,0.1,3.4,0.2,5.2,0.2c4.3,-0.3,8.8,0.1,13,1.1c0.5,0.1,1.1,-0.1,1.5,-0.7c0.5,-0.6,0.5,-1.4,0.2,-2.2c0,-0.3,-0.1,-0.4,-0.3,-0.7c-1.1,-1.8,-2,-3.9,-2.7,-5.9c-1.4,-3.8,-3,-7.4,-4.5,-11.1c-1,-2.6,-1.9,-5.2,-3.2,-7.7c-0.1,-0.2,-0.1,-0.3,-0.1,-0.4c0.2,-0.9,0.4,-1.8,0.6,-2.7C884.8,82,886,78.6,888,75.8c0.4,-0.7,0.8,-1.4,1.2,-2.1c1.1,-2.5,2.7,-4.6,4.3,-6.6c0.6,-0.7,1.1,-1.4,1.7,-2.3c0.4,-0.4,0.4,-1.1,0.1,-1.6c-0.2,-0.3,-0.4,-0.4,-0.6,-0.7c-0.8,-0.1,-1.7,-0.1,-2.4,-0.3c-0.8,-0.1,-1.6,-0.3,-2.5,-0.6c-0.8,-0.1,-1.6,-0.4,-2.6,-0.5c-3.4,-0.2,-6.7,-0.7,-10,-1.1c-0.2,-0.1,-0.3,-0.1,-0.3,-0.1c-2.2,-0.1,-4.5,-0.2,-6.6,-0.6c-3,-0.5,-6.1,-0.2,-9.1,-0.1c-0.7,0,-1.6,0.7,-1.5,1.5c-0.2,0.4,-0.2,0.9,-0.2,1.4c0.1,1.3,0.1,2.7,-0.2,3.9c-0.3,2.2,-0.6,4.5,-0.4,6.7c0,0.4,0,1,0,1.4c-0.2,4.6,-0.4,9.2,-0.7,13.7c0,1.4,0,3,-0.4,4.4c-1.1,0.7,-2.1,1.5,-3.2,2.2c-0.6,0.3,-1.7,0.6,-1.8,0.8Z" class="g9_3" />
<image x="254" y="150" width="51" height="50" xlink:href="https://majemastoragelive.blob.core.windows.net/learn-english-test/ebook/Grade3/images/1.png" />
<image x="306" y="149" width="54" height="53" xlink:href="https://majemastoragelive.blob.core.windows.net/learn-english-test/ebook/Grade3/images/4.png" />
<image x="254" y="669" width="51" height="51" xlink:href="https://majemastoragelive.blob.core.windows.net/learn-english-test/ebook/Grade3/images/1.png" />
<image x="306" y="668" width="54" height="53" xlink:href="https://majemastoragelive.blob.core.windows.net/learn-english-test/ebook/Grade3/images/4.png" />
<image x="275" y="268" width="112" height="83" xlink:href="https://majemastoragelive.blob.core.windows.net/learn-english-test/ebook/Grade3/Goodtoknow/page1/img/5.png" />
<image x="430" y="270" width="110" height="83" xlink:href="https://majemastoragelive.blob.core.windows.net/learn-english-test/ebook/Grade3/Goodtoknow/page1/img/6.png" />
<image x="588" y="265" width="112" height="82" xlink:href="https://majemastoragelive.blob.core.windows.net/learn-english-test/ebook/Grade3/Goodtoknow/page1/img/7.png" />
<image x="749" y="265" width="112" height="82" xlink:href="https://majemastoragelive.blob.core.windows.net/learn-english-test/ebook/Grade3/Goodtoknow/page1/img/8.png" />
<image x="907" y="265" width="112" height="82" xlink:href="https://majemastoragelive.blob.core.windows.net/learn-english-test/ebook/Grade3/Goodtoknow/page1/img/9.png" />
<image x="982" y="410" width="113" height="83" xlink:href="https://majemastoragelive.blob.core.windows.net/learn-english-test/ebook/Grade3/Goodtoknow/page1/img/10.png" />
<image x="332" y="410" width="113" height="83" xlink:href="https://majemastoragelive.blob.core.windows.net/learn-english-test/ebook/Grade3/Goodtoknow/page1/img/11.png" />
<image x="491" y="410" width="114" height="83" xlink:href="https://majemastoragelive.blob.core.windows.net/learn-english-test/ebook/Grade3/Goodtoknow/page1/img/12.png" />
<image x="667" y="410" width="113" height="83" xlink:href="https://majemastoragelive.blob.core.windows.net/learn-english-test/ebook/Grade3/Goodtoknow/page1/img/13.png" />
<image x="840" y="408" width="113" height="84" xlink:href="https://majemastoragelive.blob.core.windows.net/learn-english-test/ebook/Grade3/Goodtoknow/page1/img/14.png" />
<image x="388" y="796" width="603" height="161" xlink:href="https://majemastoragelive.blob.core.windows.net/learn-english-test/ebook/Grade3/Goodtoknow/page1/img/15.png" />
<path d="M62.8,960.1c0,0,-4,0,-4,4l0,20.6c0,0,0,4,4,4l93,0c0,0,4,0,4,-4l0,-20.6c0,0,0,-4,-4,-4Z" class="g10_3" />
<path d="M62.8,960.1c0,0,-4,0,-4,4l0,20.6c0,0,0,4,4,4l93,0c0,0,4,0,4,-4l0,-20.6c0,0,0,-4,-4,-4l-93,0Z" class="g11_3" />
<path d="M64.3,962.4l-0.6,-4.5m-0.9,5l-2,-4.2m1.1,4.9l-3.7,-2.7m3.2,3.8L56.8,964m4.5,2.6l-4.6,0m4.6,2.3l-4.6,0m4.6,2.3l-4.6,0m4.6,2.3l-4.6,0m4.6,2.3l-4.6,0m4.6,2.3l-4.6,0m4.6,2.4l-4.6,0m4.6,2.3l-4.6,0m4.7,1.4l-4.3,1.6m5,-0.3l-3.4,3m4.5,-2.3l-1.8,4.2m3.2,-4l0,4.6m2.3,-4.6l0,4.6m2.3,-4.6l0,4.6m2.3,-4.6l0,4.6m2.3,-4.6l0,4.6m2.3,-4.6l0,4.6m2.3,-4.6l0,4.6m2.3,-4.6l0,4.6M83,986.4l0,4.6m2.3,-4.6l0,4.6m2.3,-4.6l0,4.6m2.3,-4.6l0,4.6m2.3,-4.6l0,4.6m2.3,-4.6l0,4.6m2.4,-4.6l0,4.6m2.3,-4.6l0,4.6m2.3,-4.6l0,4.6m2.3,-4.6l0,4.6m2.3,-4.6l0,4.6m2.3,-4.6l0,4.6m2.3,-4.6l0,4.6m2.3,-4.6l0,4.6m2.3,-4.6l0,4.6m2.3,-4.6l0,4.6m2.3,-4.6l0,4.6m2.3,-4.6l0,4.6m2.3,-4.6l0,4.6m2.3,-4.6l0,4.6m2.3,-4.6l0,4.6m2.4,-4.6l0,4.6m2.3,-4.6l0,4.6m2.3,-4.6l0,4.6m2.3,-4.6l0,4.6m2.3,-4.6l0,4.6m2.3,-4.6l0,4.6m2.3,-4.6l0,4.6m2.3,-4.6l0,4.6m2.3,-4.6l0,4.6m2.3,-4.6l0,4.6m2.2,-4.6l0.2,4.6m1.2,-4.9l1.9,4.2M157,985.4l3.3,3.1m-2.8,-4.2l4.5,1.2m-4.3,-2.9l4.6,0m-4.6,-2.3l4.6,0M157.7,978l4.6,0m-4.6,-2.3l4.6,0m-4.6,-2.3l4.6,0m-4.6,-2.3l4.6,0m-4.6,-2.3l4.6,0m-4.6,-2.3l4.6,0m-4.7,-1.7l4.4,-1.2m-5.1,-0.1l3.8,-2.7m-4.5,2l1.7,-4.2m-3.2,3.8l0.2,-4.5m-2.4,4.5l0,-4.5m-2.3,4.5l0,-4.5m-2.3,4.5l0,-4.5m-2.3,4.5l0,-4.5m-2.3,4.5l0,-4.5m-2.3,4.5l0,-4.5m-2.3,4.5l0,-4.5m-2.3,4.5l0,-4.5m-2.3,4.5l0,-4.5m-2.3,4.5l0,-4.5m-2.4,4.5l0,-4.5m-2.3,4.5l0,-4.5m-2.3,4.5l0,-4.5m-2.3,4.5l0,-4.5m-2.3,4.5l0,-4.5m-2.3,4.5l0,-4.5m-2.3,4.5l0,-4.5m-2.3,4.5l0,-4.5m-2.3,4.5l0,-4.5m-2.3,4.5l0,-4.5m-2.3,4.5l0,-4.5m-2.3,4.5l0,-4.5m-2.3,4.5l0,-4.5m-2.3,4.5l0,-4.5m-2.3,4.5l0,-4.5m-2.3,4.5l0,-4.5m-2.4,4.5l0,-4.5m-2.3,4.5l0,-4.5m-2.3,4.5l0,-4.5m-2.3,4.5l0,-4.5m-2.3,4.5l0,-4.5M81,962.4l0,-4.5m-2.3,4.5l0,-4.5m-2.3,4.5l0,-4.5m-2.3,4.5l0,-4.5m-2.3,4.5l0,-4.5m-2.3,4.5l0,-4.5m-2.3,4.5l0,-4.5m-2.3,4.5l0,-4.5" class="g12_3" />


<image x="68" y="856" width="77" height="71" xlink:href="https://majemastoragelive.blob.core.windows.net/learn-english-test/ebook/Grade3/Goodtoknow/page1/img/19.png" />
<image x="65" y="727" width="85" height="85" xlink:href="https://majemastoragelive.blob.core.windows.net/learn-english-test/ebook/Grade3/Goodtoknow/page1/img/20.png" />
<use x="0" y="-15" xlink:href="#button"/>
<use x="0" y="-83" xlink:href="#button"/>
</svg>