<?xml version="1.0" encoding="UTF-8" standalone="no"?>
<!DOCTYPE svg PUBLIC "-//W3C//DTD SVG 1.1//EN"
"http://www.w3.org/Graphics/SVG/1.1/DTD/svg11.dtd">
<svg version="1.1" xmlns="http://www.w3.org/2000/svg" xmlns:xlink="http://www.w3.org/1999/xlink">
<defs>
<clipPath id="c0_3"><path d="M0.5,1190.5L0.5,0.5l1160,0l0,1190Z" /></clipPath>
<clipPath id="c1_3"><path d="M904.5,391.5l0,-243l212,0l0,243Z" /></clipPath>
<clipPath id="c2_3"><path d="M257.5,736.5l0,-242l211,0l0,242Z" /></clipPath>
<clipPath id="c3_3"><path d="M467.5,736.5l0,-242l212,0l0,242Z" /></clipPath>
<clipPath id="c4_3"><path d="M693.5,736.5l0,-242l211,0l0,242Z" /></clipPath>
<clipPath id="c5_3"><path d="M903.5,736.5l0,-242l212,0l0,242Z" /></clipPath>
<clipPath id="c6_3"><path d="M258.5,1077.5l0,-242l211,0l0,242Z" /></clipPath>
<clipPath id="c7_3"><path d="M468.5,1077.5l0,-242l212,0l0,242Z" /></clipPath>
<clipPath id="c8_3"><path d="M693.5,1077.5l0,-242l211,0l0,242Z" /></clipPath>
<clipPath id="c9_3"><path d="M904.5,1077.5l0,-242l211,0l0,242Z" /></clipPath>
<style type="text/css"><![CDATA[
	.btn_bg{
fill: #00A1BE;
}

	.btn_bortercolor{
fill: none;
stroke: #6DC6DA;
stroke-width: 5;
stroke-linecap: butt;
stroke-linejoin: miter;
stroke-miterlimit: 4;
}
	.btn_border{
fill: none;
stroke: #FFFFFF;
stroke-width: 1;
stroke-linecap: butt;
stroke-linejoin: miter;
stroke-miterlimit: 4;
}

.g1_3{
fill: #FFFDEF;
}
.g4_3{
fill: #FFFFFF;
}
.g10_3{
fill: #00BEFF;
}
.g3_3{
fill: #93D5F5;
}
.g13_3{
fill: none;
stroke: #FFFFFF;
stroke-width: 1;
stroke-linecap: butt;
stroke-linejoin: miter;
stroke-miterlimit: 4;
}
.g2_3{
fill: #74CAF2;
}
.g11_3{
fill: #0099B4;
}
.g7_3{
fill: none;
stroke: #000000;
stroke-width: 0.5;
stroke-linecap: butt;
stroke-linejoin: miter;
stroke-miterlimit: 4;
}
.g12_3{
fill: none;
stroke: #62BDCE;
stroke-width: 5;
stroke-linecap: butt;
stroke-linejoin: miter;
stroke-miterlimit: 4;
}
.g9_3{
fill: #FFE5E3;
}
.g5_3{
fill: none;
stroke: #FFFFFF;
stroke-width: 1;
stroke-linecap: butt;
stroke-linejoin: miter;
}
.g6_3{
fill: none;
stroke: #000000;
stroke-width: 1;
stroke-linecap: butt;
stroke-linejoin: miter;
}
.g8_3{
fill: #EAE6E5;
}
]]></style>
</defs>
<g id="button" transform="translate(47,298.5)">
<path d="M7.4,2.3c0,0,-4.7,0,-4.7,4l0,20.6c0,0,0,3.9,4.7,3.9l110.3,0c0,0,4.7,0,4.7,-3.9l0,-20.6c0,0,0,-4,-4.7,-4Z" class="btn_bg" />
<path d="M7.4,2.3c0,0,-4.7,0,-4.7,4l0,20.6c0,0,0,3.9,4.7,3.9l110.3,0c0,0,4.7,0,4.7,-3.9l0,-20.6c0,0,0,-4,-4.7,-4l-110.3,0Z" class="btn_bortercolor" />
<path d="M9.2,4.6L8.6,0m-1.2,5l-2.3,-4.1m1.3,4.8L2,3m3.8,3.8l-5.4,-0.7m5.2,2.7l-5.4,0m5.4,2.3l-5.4,0m5.4,2.3l-5.4,0m5.4,2.3l-5.4,0m5.4,2.3l-5.4,0m5.4,2.3l-5.4,0m5.4,2.3l-5.4,0m5.4,2.3l-5.4,0m5.6,1.5L0.7,28m6,-0.4l-4.1,3.1m5.3,-2.4l-2.1,4.3m3.8,-4.1l0,4.6m2.7,-4.6l0,4.6" class="btn_border" />
<path d="M15,28.5l0,4.6m2.8,-4.6l0,4.6m2.7,-4.6l0,4.6m2.7,-4.6l0,4.6" class="btn_border" />
<path d="M26,28.5l0,4.6m2.7,-4.6l0,4.6m2.7,-4.6l0,4.6m2.8,-4.6l0,4.6m2.7,-4.6l0,4.6m2.7,-4.6l0,4.6m2.8,-4.6l0,4.6m2.7,-4.6l0,4.6m2.7,-4.6l0,4.6m2.8,-4.6l0,4.6m2.7,-4.6l0,4.6m2.7,-4.6l0,4.6m2.8,-4.6l0,4.6m2.7,-4.6l0,4.6m2.7,-4.6l0,4.6m2.8,-4.6l0,4.6m2.7,-4.6l0,4.6m2.7,-4.6l0,4.6m2.8,-4.6l0,4.6m2.7,-4.6l0,4.6m2.7,-4.6l0,4.6m2.8,-4.6l0,4.6m2.7,-4.6l0,4.6m2.7,-4.6l0,4.6m2.7,-4.6l0,4.6m2.8,-4.6l0,4.6m2.7,-4.6l0,4.6m2.7,-4.6l0,4.6m2.8,-4.6l0,4.6m2.7,-4.6l0,4.6m2.7,-4.6l0,4.6m2.8,-4.6l0,4.6m2.7,-4.6l0,4.6m2.6,-4.6l0.3,4.6m1.4,-4.8l2.3,4.1m-1,-4.9l4,3.1m-3.3,-4.2l5.3,1.3m-5.1,-2.9l5.4,0m-5.4,-2.3l5.4,0m-5.4,-2.3l5.4,0m-5.4,-2.3l5.4,0m-5.4,-2.3l5.4,0m-5.4,-2.4l5.4,0m-5.4,-2.3l5.4,0m-5.4,-2.3l5.4,0" class="btn_border" />
<path d="M119.8,7l5.2,-1.3m-6,-0.1l4.4,-2.7m-5.3,2l2.1,-4.2m-3.8,3.9l0.2,-4.6m-2.8,4.6l0,-4.6m-2.8,4.6l0,-4.6m-2.7,4.6l0,-4.6m-2.7,4.6l0,-4.6m-2.8,4.6l0,-4.6m-2.7,4.6l0,-4.6m-2.7,4.6l0,-4.6m-2.8,4.6l0,-4.6m-2.7,4.6l0,-4.6m-2.7,4.6l0,-4.6m-2.8,4.6l0,-4.6m-2.7,4.6l0,-4.6m-2.7,4.6l0,-4.6m-2.8,4.6l0,-4.6m-2.7,4.6l0,-4.6m-2.7,4.6l0,-4.6m-2.8,4.6l0,-4.6m-2.7,4.6l0,-4.6m-2.7,4.6l0,-4.6m-2.8,4.6l0,-4.6m-2.7,4.6l0,-4.6m-2.7,4.6l0,-4.6m-2.8,4.6l0,-4.6m-2.7,4.6l0,-4.6m-2.7,4.6l0,-4.6m-2.8,4.6l0,-4.6m-2.7,4.6l0,-4.6" class="btn_border" />
<path d="M40,4.6L40,0m-2.8,4.6l0,-4.6m-2.7,4.6l0,-4.6m-2.7,4.6l0,-4.6m-2.7,4.6l0,-4.6m-2.8,4.6l0,-4.6m-2.7,4.6l0,-4.6m-2.7,4.6l0,-4.6m-2.8,4.6l0,-4.6m-2.7,4.6l0,-4.6m-2.7,4.6l0,-4.6m-2.8,4.6l0,-4.6" class="btn_border" />
</g>
<path d="M181,1190l979,0L1160,0L181,0l0,1190Z" class="g1_3" />
<g clip-path="url(#c0_3)">
<path d="M189.2,43l-1.5,1.5c0.2,0.3,0.6,0.7,0.8,0.8L190,43.8l1.6,1.5c0.3,-0.1,0.5,-0.5,0.8,-0.8L190.8,43l1.6,-1.4c-0.3,-0.4,-0.5,-0.7,-0.8,-0.8L190,42.3l-1.5,-1.5c-0.2,0.1,-0.6,0.4,-0.8,0.8Zm-14.7,0l-1.6,1.5c0.3,0.3,0.6,0.7,0.8,0.8l1.6,-1.5l1.5,1.5c0.3,-0.1,0.6,-0.5,0.8,-0.8L176.1,43l1.5,-1.4c-0.2,-0.4,-0.5,-0.7,-0.8,-0.8l-1.5,1.5l-1.6,-1.5c-0.2,0.1,-0.5,0.4,-0.8,0.8Zm-44.3,0l-1.5,1.5c0.2,0.3,0.5,0.7,0.8,0.8L131,43.8l1.5,1.5c0.3,-0.1,0.6,-0.5,0.8,-0.8L131.8,43l1.5,-1.4c-0.2,-0.4,-0.5,-0.7,-0.8,-0.8L131,42.3l-1.5,-1.5c-0.3,0.1,-0.6,0.4,-0.8,0.8Zm29.5,0l-1.5,1.5c0.2,0.3,0.5,0.7,0.8,0.8l1.5,-1.5l1.5,1.5c0.4,-0.1,0.6,-0.5,0.8,-0.8L161.3,43l1.5,-1.4c-0.2,-0.4,-0.4,-0.7,-0.8,-0.8l-1.5,1.5L159,40.8c-0.3,0.1,-0.6,0.4,-0.8,0.8ZM145,43l-1.6,1.5c0.3,0.3,0.6,0.7,0.8,0.8l1.6,-1.5l1.5,1.5c0.3,-0.1,0.5,-0.5,0.8,-0.8L146.6,43l1.5,-1.4c-0.3,-0.4,-0.5,-0.7,-0.8,-0.8l-1.5,1.5l-1.6,-1.5c-0.2,0.1,-0.5,0.4,-0.8,0.8Zm119.6,0l-1.5,1.5c0.2,0.3,0.6,0.7,0.8,0.8l1.5,-1.5l1.5,1.5c0.4,-0.1,0.6,-0.5,0.8,-0.8L266.2,43l1.5,-1.4c-0.2,-0.4,-0.4,-0.7,-0.8,-0.8l-1.5,1.5l-1.5,-1.5c-0.2,0.1,-0.6,0.4,-0.8,0.8Zm-14.7,0l-1.6,1.5c0.3,0.3,0.6,0.7,0.8,0.8l1.6,-1.5l1.5,1.5c0.3,-0.1,0.6,-0.5,0.8,-0.8L251.5,43L253,41.6c-0.2,-0.4,-0.5,-0.7,-0.8,-0.8l-1.5,1.5l-1.6,-1.5c-0.2,0.1,-0.5,0.4,-0.8,0.8Zm-44.3,0l-1.5,1.5c0.2,0.3,0.5,0.7,0.8,0.8l1.5,-1.5l1.5,1.5c0.3,-0.1,0.6,-0.5,0.8,-0.8L207.2,43l1.5,-1.4c-0.2,-0.4,-0.5,-0.7,-0.8,-0.8l-1.5,1.5l-1.5,-1.5c-0.3,0.1,-0.6,0.4,-0.8,0.8Zm29.5,0l-1.5,1.5c0.2,0.3,0.5,0.7,0.8,0.8l1.5,-1.5l1.5,1.5c0.4,-0.1,0.6,-0.5,0.8,-0.8L236.7,43l1.5,-1.4c-0.2,-0.4,-0.4,-0.7,-0.8,-0.8l-1.5,1.5l-1.5,-1.5c-0.3,0.1,-0.6,0.4,-0.8,0.8Zm-14.8,0l-1.5,1.5c0.3,0.3,0.6,0.7,0.8,0.8l1.5,-1.5l1.6,1.5c0.3,-0.1,0.5,-0.5,0.8,-0.8L222,43l1.5,-1.4c-0.3,-0.4,-0.5,-0.7,-0.8,-0.8l-1.6,1.5l-1.5,-1.5c-0.2,0.1,-0.5,0.4,-0.8,0.8ZM340,43l-1.5,1.5c0.2,0.3,0.6,0.7,0.8,0.8l1.5,-1.5l1.5,1.5c0.4,-0.1,0.6,-0.5,0.8,-0.8L341.6,43l1.5,-1.4c-0.2,-0.4,-0.4,-0.7,-0.8,-0.8l-1.5,1.5l-1.5,-1.5c-0.2,0.1,-0.6,0.4,-0.8,0.8Zm-14.7,0l-1.6,1.5c0.3,0.3,0.6,0.7,0.8,0.8l1.6,-1.5l1.5,1.5c0.3,-0.1,0.5,-0.5,0.8,-0.8L326.9,43l1.5,-1.4c-0.3,-0.4,-0.5,-0.7,-0.8,-0.8l-1.5,1.5l-1.6,-1.5c-0.2,0.1,-0.5,0.4,-0.8,0.8ZM281,43l-1.5,1.5c0.2,0.3,0.5,0.7,0.8,0.8l1.5,-1.5l1.5,1.5c0.3,-0.1,0.6,-0.5,0.8,-0.8L282.6,43l1.5,-1.4c-0.2,-0.4,-0.5,-0.7,-0.8,-0.8l-1.5,1.5l-1.5,-1.5c-0.3,0.1,-0.6,0.4,-0.8,0.8Zm29.5,0L309,44.5c0.2,0.3,0.5,0.7,0.8,0.8l1.5,-1.5l1.5,1.5c0.3,-0.1,0.6,-0.5,0.8,-0.8L312.1,43l1.5,-1.4c-0.2,-0.4,-0.5,-0.7,-0.8,-0.8l-1.5,1.5l-1.5,-1.5c-0.3,0.1,-0.6,0.4,-0.8,0.8Zm-14.8,0l-1.5,1.5c0.3,0.3,0.6,0.7,0.8,0.8l1.5,-1.5l1.6,1.5c0.3,-0.1,0.5,-0.5,0.8,-0.8L297.3,43l1.6,-1.4c-0.3,-0.4,-0.5,-0.7,-0.8,-0.8l-1.6,1.5L295,40.8c-0.2,0.1,-0.5,0.4,-0.8,0.8Zm119.7,0l-1.5,1.5c0.2,0.3,0.5,0.7,0.8,0.8l1.5,-1.5l1.5,1.5c0.4,-0.1,0.6,-0.5,0.8,-0.8L417,43l1.5,-1.4c-0.2,-0.4,-0.4,-0.7,-0.8,-0.8l-1.5,1.5l-1.5,-1.5c-0.3,0.1,-0.6,0.4,-0.8,0.8Zm-14.7,0l-1.6,1.5c0.3,0.3,0.6,0.7,0.8,0.8l1.6,-1.5l1.5,1.5c0.3,-0.1,0.5,-0.5,0.8,-0.8L402.3,43l1.5,-1.4c-0.3,-0.4,-0.5,-0.7,-0.8,-0.8l-1.5,1.5l-1.6,-1.5c-0.2,0.1,-0.5,0.4,-0.8,0.8Zm-44.3,0l-1.5,1.5c0.2,0.3,0.5,0.7,0.8,0.8l1.5,-1.5l1.5,1.5c0.3,-0.1,0.6,-0.5,0.8,-0.8L358,43l1.5,-1.4c-0.2,-0.4,-0.5,-0.7,-0.8,-0.8l-1.5,1.5l-1.5,-1.5c-0.3,0.1,-0.6,0.4,-0.8,0.8Zm29.5,0l-1.5,1.5c0.2,0.3,0.5,0.7,0.8,0.8l1.5,-1.5l1.5,1.5c0.3,-0.1,0.6,-0.5,0.8,-0.8L387.5,43L389,41.6c-0.2,-0.4,-0.5,-0.7,-0.8,-0.8l-1.5,1.5l-1.5,-1.5c-0.3,0.1,-0.6,0.4,-0.8,0.8Zm-14.8,0l-1.5,1.5c0.3,0.3,0.6,0.7,0.8,0.8l1.5,-1.5l1.6,1.5c0.3,-0.1,0.5,-0.5,0.8,-0.8L372.7,43l1.6,-1.4c-0.3,-0.4,-0.5,-0.7,-0.8,-0.8l-1.6,1.5l-1.5,-1.5c-0.2,0.1,-0.5,0.4,-0.8,0.8Zm119.7,0l-1.5,1.5c0.2,0.3,0.5,0.7,0.8,0.8l1.5,-1.5l1.5,1.5c0.3,-0.1,0.6,-0.5,0.8,-0.8L492.4,43l1.5,-1.4c-0.2,-0.4,-0.5,-0.7,-0.8,-0.8l-1.5,1.5l-1.5,-1.5c-0.3,0.1,-0.6,0.4,-0.8,0.8ZM476,43l-1.5,1.5c0.3,0.3,0.6,0.7,0.8,0.8l1.5,-1.5l1.6,1.5c0.3,-0.1,0.5,-0.5,0.8,-0.8L477.6,43l1.6,-1.4c-0.3,-0.4,-0.5,-0.7,-0.8,-0.8l-1.6,1.5l-1.5,-1.5c-0.2,0.1,-0.5,0.4,-0.8,0.8Zm-44.2,0l-1.6,1.5c0.3,0.3,0.6,0.7,0.8,0.8l1.6,-1.5l1.5,1.5c0.3,-0.1,0.6,-0.5,0.8,-0.8L433.4,43l1.5,-1.4c-0.2,-0.4,-0.5,-0.7,-0.8,-0.8l-1.5,1.5L431,40.8c-0.2,0.1,-0.5,0.4,-0.8,0.8Zm29.5,0l-1.5,1.5c0.2,0.3,0.5,0.7,0.8,0.8l1.5,-1.5l1.5,1.5c0.3,-0.1,0.6,-0.5,0.8,-0.8L462.9,43l1.5,-1.4c-0.2,-0.4,-0.5,-0.7,-0.8,-0.8l-1.5,1.5l-1.5,-1.5c-0.3,0.1,-0.6,0.4,-0.8,0.8Zm-14.8,0L445,44.5c0.2,0.3,0.6,0.7,0.8,0.8l1.5,-1.5l1.6,1.5c0.3,-0.1,0.5,-0.5,0.8,-0.8L448.1,43l1.6,-1.4c-0.3,-0.4,-0.5,-0.7,-0.8,-0.8l-1.6,1.5l-1.5,-1.5c-0.2,0.1,-0.6,0.4,-0.8,0.8Zm119.7,0l-1.5,1.5c0.2,0.3,0.5,0.7,0.8,0.8L567,43.8l1.5,1.5c0.3,-0.1,0.6,-0.5,0.8,-0.8L567.8,43l1.5,-1.4c-0.2,-0.4,-0.5,-0.7,-0.8,-0.8L567,42.3l-1.5,-1.5c-0.3,0.1,-0.6,0.4,-0.8,0.8Zm-14.8,0l-1.5,1.5c0.3,0.3,0.6,0.7,0.8,0.8l1.5,-1.5l1.6,1.5c0.3,-0.1,0.5,-0.5,0.8,-0.8L553,43l1.6,-1.4c-0.3,-0.4,-0.5,-0.7,-0.8,-0.8l-1.6,1.5l-1.5,-1.5c-0.2,0.1,-0.5,0.4,-0.8,0.8Zm-44.2,0l-1.6,1.5c0.3,0.3,0.6,0.7,0.8,0.8L508,43.8l1.5,1.5c0.3,-0.1,0.5,-0.5,0.8,-0.8L508.8,43l1.5,-1.4c-0.3,-0.4,-0.5,-0.7,-0.8,-0.8L508,42.3l-1.6,-1.5c-0.2,0.1,-0.5,0.4,-0.8,0.8Zm29.5,0l-1.5,1.5c0.2,0.3,0.5,0.7,0.8,0.8l1.5,-1.5l1.5,1.5c0.3,-0.1,0.6,-0.5,0.8,-0.8L538.3,43l1.5,-1.4c-0.2,-0.4,-0.5,-0.7,-0.8,-0.8l-1.5,1.5L536,40.8c-0.3,0.1,-0.6,0.4,-0.8,0.8Zm-14.8,0l-1.5,1.5c0.2,0.3,0.6,0.7,0.8,0.8l1.5,-1.5l1.5,1.5c0.4,-0.1,0.6,-0.5,0.8,-0.8L523.5,43L525,41.6c-0.2,-0.4,-0.4,-0.7,-0.8,-0.8l-1.5,1.5l-1.5,-1.5c-0.2,0.1,-0.6,0.4,-0.8,0.8Zm119.7,0l-1.5,1.5c0.2,0.3,0.5,0.7,0.8,0.8l1.5,-1.5l1.5,1.5c0.3,-0.1,0.6,-0.5,0.8,-0.8L643.2,43l1.5,-1.4c-0.2,-0.4,-0.5,-0.7,-0.8,-0.8l-1.5,1.5l-1.5,-1.5c-0.3,0.1,-0.6,0.4,-0.8,0.8Zm-14.8,0l-1.5,1.5c0.2,0.3,0.6,0.7,0.8,0.8l1.5,-1.5l1.6,1.5c0.3,-0.1,0.5,-0.5,0.8,-0.8L628.4,43L630,41.6c-0.3,-0.4,-0.5,-0.7,-0.8,-0.8l-1.6,1.5l-1.5,-1.5c-0.2,0.1,-0.6,0.4,-0.8,0.8Zm-44.2,0L581,44.5c0.3,0.3,0.6,0.7,0.8,0.8l1.6,-1.5l1.5,1.5c0.3,-0.1,0.5,-0.5,0.8,-0.8L584.2,43l1.5,-1.4c-0.3,-0.4,-0.5,-0.7,-0.8,-0.8l-1.5,1.5l-1.6,-1.5c-0.2,0.1,-0.5,0.4,-0.8,0.8Zm29.5,0l-1.6,1.5c0.3,0.3,0.6,0.7,0.9,0.8l1.5,-1.5l1.5,1.5c0.3,-0.1,0.6,-0.5,0.8,-0.8L613.7,43l1.5,-1.4c-0.2,-0.4,-0.5,-0.7,-0.8,-0.8l-1.5,1.5l-1.5,-1.5c-0.3,0.1,-0.6,0.4,-0.9,0.8Zm-14.8,0l-1.5,1.5c0.2,0.3,0.6,0.7,0.8,0.8l1.5,-1.5l1.5,1.5c0.4,-0.1,0.6,-0.5,0.8,-0.8L598.9,43l1.5,-1.4c-0.2,-0.4,-0.4,-0.7,-0.8,-0.8l-1.5,1.5l-1.5,-1.5c-0.2,0.1,-0.6,0.4,-0.8,0.8ZM717,43l-1.5,1.5c0.2,0.3,0.5,0.7,0.8,0.8l1.5,-1.5l1.5,1.5c0.3,-0.1,0.6,-0.5,0.8,-0.8L718.6,43l1.5,-1.4c-0.2,-0.4,-0.5,-0.7,-0.8,-0.8l-1.5,1.5l-1.5,-1.5c-0.3,0.1,-0.6,0.4,-0.8,0.8Zm-14.8,0l-1.5,1.5c0.2,0.3,0.6,0.7,0.8,0.8L703,43.8l1.6,1.5c0.3,-0.1,0.5,-0.5,0.8,-0.8L703.8,43l1.6,-1.4c-0.3,-0.4,-0.5,-0.7,-0.8,-0.8L703,42.3l-1.5,-1.5c-0.2,0.1,-0.6,0.4,-0.8,0.8ZM658,43l-1.6,1.5c0.3,0.3,0.6,0.7,0.8,0.8l1.6,-1.5l1.5,1.5c0.3,-0.1,0.5,-0.5,0.8,-0.8L659.6,43l1.5,-1.4c-0.3,-0.4,-0.5,-0.7,-0.8,-0.8l-1.5,1.5l-1.6,-1.5c-0.2,0.1,-0.5,0.4,-0.8,0.8Zm29.5,0l-1.6,1.5c0.3,0.3,0.6,0.7,0.8,0.8l1.6,-1.5l1.5,1.5c0.3,-0.1,0.6,-0.5,0.8,-0.8L689.1,43l1.5,-1.4c-0.2,-0.4,-0.5,-0.7,-0.8,-0.8l-1.5,1.5l-1.6,-1.5c-0.2,0.1,-0.5,0.4,-0.8,0.8Zm-14.8,0l-1.5,1.5c0.2,0.3,0.5,0.7,0.8,0.8l1.5,-1.5l1.5,1.5c0.4,-0.1,0.6,-0.5,0.8,-0.8L674.3,43l1.5,-1.4c-0.2,-0.4,-0.4,-0.7,-0.8,-0.8l-1.5,1.5L672,40.8c-0.3,0.1,-0.6,0.4,-0.8,0.8Zm119.7,0l-1.5,1.5c0.2,0.3,0.5,0.7,0.8,0.8l1.5,-1.5l1.5,1.5c0.3,-0.1,0.6,-0.5,0.8,-0.8L794,43l1.5,-1.4c-0.2,-0.4,-0.5,-0.7,-0.8,-0.8l-1.5,1.5l-1.5,-1.5c-0.3,0.1,-0.6,0.4,-0.8,0.8Zm-14.8,0l-1.5,1.5c0.2,0.3,0.6,0.7,0.8,0.8l1.5,-1.5l1.5,1.5c0.4,-0.1,0.6,-0.5,0.8,-0.8L779.2,43l1.5,-1.4c-0.2,-0.4,-0.4,-0.7,-0.8,-0.8l-1.5,1.5l-1.5,-1.5c-0.2,0.1,-0.6,0.4,-0.8,0.8Zm-44.3,0l-1.5,1.5c0.3,0.3,0.6,0.7,0.8,0.8l1.5,-1.5l1.6,1.5c0.3,-0.1,0.5,-0.5,0.8,-0.8L734.9,43l1.6,-1.4c-0.3,-0.4,-0.5,-0.7,-0.8,-0.8l-1.6,1.5l-1.5,-1.5c-0.2,0.1,-0.5,0.4,-0.8,0.8Zm29.6,0l-1.6,1.5c0.3,0.3,0.6,0.7,0.8,0.8l1.6,-1.5l1.5,1.5c0.3,-0.1,0.5,-0.5,0.8,-0.8L764.5,43L766,41.6c-0.3,-0.4,-0.5,-0.7,-0.8,-0.8l-1.5,1.5l-1.6,-1.5c-0.2,0.1,-0.5,0.4,-0.8,0.8Zm-14.8,0l-1.5,1.5c0.2,0.3,0.5,0.7,0.8,0.8l1.5,-1.5l1.5,1.5c0.3,-0.1,0.6,-0.5,0.8,-0.8L749.7,43l1.5,-1.4c-0.2,-0.4,-0.5,-0.7,-0.8,-0.8l-1.5,1.5l-1.5,-1.5c-0.3,0.1,-0.6,0.4,-0.8,0.8Zm119.7,0l-1.6,1.5c0.3,0.3,0.6,0.7,0.8,0.8l1.6,-1.5l1.5,1.5c0.3,-0.1,0.6,-0.5,0.8,-0.8L869.4,43l1.5,-1.4c-0.2,-0.4,-0.5,-0.7,-0.8,-0.8l-1.5,1.5L867,40.8c-0.2,0.1,-0.5,0.4,-0.8,0.8ZM853,43l-1.5,1.5c0.2,0.3,0.6,0.7,0.8,0.8l1.5,-1.5l1.5,1.5c0.4,-0.1,0.6,-0.5,0.8,-0.8L854.6,43l1.5,-1.4c-0.2,-0.4,-0.4,-0.7,-0.8,-0.8l-1.5,1.5l-1.5,-1.5c-0.2,0.1,-0.6,0.4,-0.8,0.8Zm-44.3,0l-1.5,1.5c0.3,0.3,0.6,0.7,0.8,0.8l1.5,-1.5l1.6,1.5c0.3,-0.1,0.5,-0.5,0.8,-0.8L810.3,43l1.6,-1.4c-0.3,-0.4,-0.5,-0.7,-0.8,-0.8l-1.6,1.5L808,40.8c-0.2,0.1,-0.5,0.4,-0.8,0.8Zm29.6,0l-1.6,1.5c0.3,0.3,0.6,0.7,0.8,0.8l1.6,-1.5l1.5,1.5c0.3,-0.1,0.5,-0.5,0.8,-0.8L839.9,43l1.5,-1.4c-0.3,-0.4,-0.5,-0.7,-0.8,-0.8l-1.5,1.5l-1.6,-1.5c-0.2,0.1,-0.5,0.4,-0.8,0.8Zm-14.8,0L822,44.5c0.2,0.3,0.5,0.7,0.8,0.8l1.5,-1.5l1.5,1.5c0.3,-0.1,0.6,-0.5,0.8,-0.8L825.1,43l1.5,-1.4c-0.2,-0.4,-0.5,-0.7,-0.8,-0.8l-1.5,1.5l-1.5,-1.5c-0.3,0.1,-0.6,0.4,-0.8,0.8Zm119.7,0l-1.6,1.5c0.3,0.3,0.6,0.7,0.8,0.8L944,43.8l1.5,1.5c0.3,-0.1,0.6,-0.5,0.8,-0.8L944.8,43l1.5,-1.4c-0.2,-0.4,-0.5,-0.7,-0.8,-0.8L944,42.3l-1.6,-1.5c-0.2,0.1,-0.5,0.4,-0.8,0.8Zm-14.8,0l-1.5,1.5c0.2,0.3,0.5,0.7,0.8,0.8l1.5,-1.5l1.5,1.5c0.4,-0.1,0.6,-0.5,0.8,-0.8L930,43l1.5,-1.4c-0.2,-0.4,-0.4,-0.7,-0.8,-0.8l-1.5,1.5l-1.5,-1.5c-0.3,0.1,-0.6,0.4,-0.8,0.8Zm-44.3,0l-1.5,1.5c0.2,0.3,0.6,0.7,0.8,0.8l1.5,-1.5l1.6,1.5c0.3,-0.1,0.5,-0.5,0.8,-0.8L885.7,43l1.6,-1.4c-0.3,-0.4,-0.5,-0.7,-0.8,-0.8l-1.6,1.5l-1.5,-1.5c-0.2,0.1,-0.6,0.4,-0.8,0.8Zm29.5,0l-1.5,1.5c0.3,0.3,0.6,0.7,0.8,0.8l1.6,-1.5l1.5,1.5c0.3,-0.1,0.5,-0.5,0.8,-0.8L915.3,43l1.5,-1.4c-0.3,-0.4,-0.5,-0.7,-0.8,-0.8l-1.5,1.5l-1.6,-1.5c-0.2,0.1,-0.5,0.4,-0.8,0.8Zm-14.7,0l-1.5,1.5c0.2,0.3,0.5,0.7,0.8,0.8l1.5,-1.5l1.5,1.5c0.3,-0.1,0.6,-0.5,0.8,-0.8L900.5,43L902,41.6c-0.2,-0.4,-0.5,-0.7,-0.8,-0.8l-1.5,1.5l-1.5,-1.5c-0.3,0.1,-0.6,0.4,-0.8,0.8Zm119.7,0l-1.6,1.5c0.3,0.3,0.6,0.7,0.8,0.8l1.6,-1.5l1.5,1.5c0.3,-0.1,0.5,-0.5,0.8,-0.8L1020.2,43l1.5,-1.4c-0.3,-0.4,-0.5,-0.7,-0.8,-0.8l-1.5,1.5l-1.6,-1.5c-0.2,0.1,-0.5,0.4,-0.8,0.8Zm-14.8,0l-1.5,1.5c0.2,0.3,0.5,0.7,0.8,0.8l1.5,-1.5l1.5,1.5c0.3,-0.1,0.6,-0.5,0.8,-0.8L1005.4,43l1.5,-1.4c-0.2,-0.4,-0.5,-0.7,-0.8,-0.8l-1.5,1.5l-1.5,-1.5c-0.3,0.1,-0.6,0.4,-0.8,0.8Zm-44.3,0L958,44.5c0.2,0.3,0.6,0.7,0.8,0.8l1.5,-1.5l1.6,1.5c0.3,-0.1,0.5,-0.5,0.8,-0.8L961.1,43l1.6,-1.4c-0.3,-0.4,-0.5,-0.7,-0.8,-0.8l-1.6,1.5l-1.5,-1.5c-0.2,0.1,-0.6,0.4,-0.8,0.8ZM989,43l-1.5,1.5c0.3,0.3,0.6,0.7,0.8,0.8l1.5,-1.5l1.6,1.5c0.3,-0.1,0.5,-0.5,0.8,-0.8L990.6,43l1.6,-1.4c-0.3,-0.4,-0.5,-0.7,-0.8,-0.8l-1.6,1.5l-1.5,-1.5c-0.2,0.1,-0.5,0.4,-0.8,0.8Zm-14.7,0l-1.5,1.5c0.2,0.3,0.5,0.7,0.8,0.8l1.5,-1.5l1.5,1.5c0.3,-0.1,0.6,-0.5,0.8,-0.8L975.9,43l1.5,-1.4c-0.2,-0.4,-0.5,-0.7,-0.8,-0.8l-1.5,1.5l-1.5,-1.5c-0.3,0.1,-0.6,0.4,-0.8,0.8ZM1094,43l-1.6,1.5c0.3,0.3,0.6,0.7,0.8,0.8l1.6,-1.5l1.5,1.5c0.3,-0.1,0.5,-0.5,0.8,-0.8L1095.6,43l1.5,-1.4c-0.3,-0.4,-0.5,-0.7,-0.8,-0.8l-1.5,1.5l-1.6,-1.5c-0.2,0.1,-0.5,0.4,-0.8,0.8Zm-14.8,0l-1.5,1.5c0.2,0.3,0.5,0.7,0.8,0.8l1.5,-1.5l1.5,1.5c0.3,-0.1,0.6,-0.5,0.8,-0.8L1080.8,43l1.5,-1.4c-0.2,-0.4,-0.5,-0.7,-0.8,-0.8l-1.5,1.5l-1.5,-1.5c-0.3,0.1,-0.6,0.4,-0.8,0.8Zm-44.3,0l-1.5,1.5c0.2,0.3,0.6,0.7,0.8,0.8l1.5,-1.5l1.5,1.5c0.4,-0.1,0.6,-0.5,0.8,-0.8L1036.5,43l1.5,-1.4c-0.2,-0.4,-0.4,-0.7,-0.8,-0.8l-1.5,1.5l-1.5,-1.5c-0.2,0.1,-0.6,0.4,-0.8,0.8Zm29.5,0l-1.5,1.5c0.3,0.3,0.6,0.7,0.8,0.8l1.5,-1.5l1.6,1.5c0.3,-0.1,0.5,-0.5,0.8,-0.8L1066,43l1.6,-1.4c-0.3,-0.4,-0.5,-0.7,-0.8,-0.8l-1.6,1.5l-1.5,-1.5c-0.2,0.1,-0.5,0.4,-0.8,0.8Zm-14.7,0l-1.5,1.5c0.2,0.3,0.5,0.7,0.8,0.8l1.5,-1.5l1.5,1.5c0.3,-0.1,0.6,-0.5,0.8,-0.8L1051.3,43l1.5,-1.4c-0.2,-0.4,-0.5,-0.7,-0.8,-0.8l-1.5,1.5L1049,40.8c-0.3,0.1,-0.6,0.4,-0.8,0.8Zm119.6,0l-1.5,1.5c0.3,0.3,0.6,0.7,0.8,0.8l1.5,-1.5l1.6,1.5c0.3,-0.1,0.5,-0.5,0.8,-0.8L1171,43l1.5,-1.4c-0.3,-0.4,-0.5,-0.7,-0.8,-0.8l-1.6,1.5l-1.5,-1.5c-0.2,0.1,-0.5,0.4,-0.8,0.8Zm-14.7,0l-1.5,1.5c0.2,0.3,0.5,0.7,0.8,0.8l1.5,-1.5l1.5,1.5c0.3,-0.1,0.6,-0.5,0.8,-0.8L1156.2,43l1.5,-1.4c-0.2,-0.4,-0.5,-0.7,-0.8,-0.8l-1.5,1.5l-1.5,-1.5c-0.3,0.1,-0.6,0.4,-0.8,0.8Zm-44.3,0l-1.5,1.5c0.2,0.3,0.5,0.7,0.8,0.8l1.5,-1.5l1.5,1.5c0.4,-0.1,0.6,-0.5,0.8,-0.8L1111.9,43l1.5,-1.4c-0.2,-0.4,-0.4,-0.7,-0.8,-0.8l-1.5,1.5l-1.5,-1.5c-0.3,0.1,-0.6,0.4,-0.8,0.8Zm29.5,0l-1.5,1.5c0.2,0.3,0.6,0.7,0.8,0.8l1.5,-1.5l1.6,1.5c0.3,-0.1,0.5,-0.5,0.8,-0.8L1141.4,43l1.6,-1.4c-0.3,-0.4,-0.5,-0.7,-0.8,-0.8l-1.6,1.5l-1.5,-1.5c-0.2,0.1,-0.6,0.4,-0.8,0.8Zm-14.7,0l-1.6,1.5c0.3,0.3,0.6,0.7,0.8,0.8l1.6,-1.5l1.5,1.5c0.3,-0.1,0.6,-0.5,0.8,-0.8L1126.7,43l1.5,-1.4c-0.2,-0.4,-0.5,-0.7,-0.8,-0.8l-1.5,1.5l-1.6,-1.5c-0.2,0.1,-0.5,0.4,-0.8,0.8Z" class="g2_3" />
<path d="M189.2,1147.7l-1.5,1.5c0.2,0.3,0.6,0.7,0.8,0.8l1.5,-1.5l1.6,1.5c0.3,-0.1,0.5,-0.5,0.8,-0.8l-1.6,-1.5l1.6,-1.5c-0.3,-0.3,-0.5,-0.6,-0.8,-0.8L190,1147l-1.5,-1.6c-0.2,0.2,-0.6,0.5,-0.8,0.8Zm-14.7,0l-1.6,1.5c0.3,0.3,0.6,0.7,0.8,0.8l1.6,-1.5l1.5,1.5c0.3,-0.1,0.6,-0.5,0.8,-0.8l-1.5,-1.5l1.5,-1.5c-0.2,-0.3,-0.5,-0.6,-0.8,-0.8l-1.5,1.6l-1.6,-1.6c-0.2,0.2,-0.5,0.5,-0.8,0.8Zm-44.3,0l-1.5,1.5c0.2,0.3,0.5,0.7,0.8,0.8l1.5,-1.5l1.5,1.5c0.3,-0.1,0.6,-0.5,0.8,-0.8l-1.5,-1.5l1.5,-1.5c-0.2,-0.3,-0.5,-0.6,-0.8,-0.8L131,1147l-1.5,-1.6c-0.3,0.2,-0.6,0.5,-0.8,0.8Zm29.5,0l-1.5,1.5c0.2,0.3,0.5,0.7,0.8,0.8l1.5,-1.5l1.5,1.5c0.4,-0.1,0.6,-0.5,0.8,-0.8l-1.5,-1.5l1.5,-1.5c-0.2,-0.3,-0.4,-0.6,-0.8,-0.8l-1.5,1.6l-1.5,-1.6c-0.3,0.2,-0.6,0.5,-0.8,0.8Zm-14.7,0l-1.6,1.5c0.3,0.3,0.6,0.7,0.8,0.8l1.6,-1.5l1.5,1.5c0.3,-0.1,0.5,-0.5,0.8,-0.8l-1.5,-1.5l1.5,-1.5c-0.3,-0.3,-0.5,-0.6,-0.8,-0.8l-1.5,1.6l-1.6,-1.6c-0.2,0.2,-0.5,0.5,-0.8,0.8Zm119.6,0l-1.5,1.5c0.2,0.3,0.6,0.7,0.8,0.8l1.5,-1.5l1.5,1.5c0.4,-0.1,0.6,-0.5,0.8,-0.8l-1.5,-1.5l1.5,-1.5c-0.2,-0.3,-0.4,-0.6,-0.8,-0.8l-1.5,1.6l-1.5,-1.6c-0.2,0.2,-0.6,0.5,-0.8,0.8Zm-14.7,0l-1.6,1.5c0.3,0.3,0.6,0.7,0.8,0.8l1.6,-1.5l1.5,1.5c0.3,-0.1,0.6,-0.5,0.8,-0.8l-1.5,-1.5l1.5,-1.5c-0.2,-0.3,-0.5,-0.6,-0.8,-0.8l-1.5,1.6l-1.6,-1.6c-0.2,0.2,-0.5,0.5,-0.8,0.8Zm-44.3,0l-1.5,1.5c0.2,0.3,0.5,0.7,0.8,0.8l1.5,-1.5l1.5,1.5c0.3,-0.1,0.6,-0.5,0.8,-0.8l-1.5,-1.5l1.5,-1.5c-0.2,-0.3,-0.5,-0.6,-0.8,-0.8l-1.5,1.6l-1.5,-1.6c-0.3,0.2,-0.6,0.5,-0.8,0.8Zm29.5,0l-1.5,1.5c0.2,0.3,0.5,0.7,0.8,0.8l1.5,-1.5l1.5,1.5c0.4,-0.1,0.6,-0.5,0.8,-0.8l-1.5,-1.5l1.5,-1.5c-0.2,-0.3,-0.4,-0.6,-0.8,-0.8l-1.5,1.6l-1.5,-1.6c-0.3,0.2,-0.6,0.5,-0.8,0.8Zm-14.8,0l-1.5,1.5c0.3,0.3,0.6,0.7,0.8,0.8l1.5,-1.5l1.6,1.5c0.3,-0.1,0.5,-0.5,0.8,-0.8l-1.5,-1.5l1.5,-1.5c-0.3,-0.3,-0.5,-0.6,-0.8,-0.8l-1.6,1.6l-1.5,-1.6c-0.2,0.2,-0.5,0.5,-0.8,0.8Zm119.7,0l-1.5,1.5c0.2,0.3,0.6,0.7,0.8,0.8l1.5,-1.5l1.5,1.5c0.4,-0.1,0.6,-0.5,0.8,-0.8l-1.5,-1.5l1.5,-1.5c-0.2,-0.3,-0.4,-0.6,-0.8,-0.8l-1.5,1.6l-1.5,-1.6c-0.2,0.2,-0.6,0.5,-0.8,0.8Zm-14.7,0l-1.6,1.5c0.3,0.3,0.6,0.7,0.8,0.8l1.6,-1.5l1.5,1.5c0.3,-0.1,0.5,-0.5,0.8,-0.8l-1.5,-1.5l1.5,-1.5c-0.3,-0.3,-0.5,-0.6,-0.8,-0.8l-1.5,1.6l-1.6,-1.6c-0.2,0.2,-0.5,0.5,-0.8,0.8Zm-44.3,0l-1.5,1.5c0.2,0.3,0.5,0.7,0.8,0.8l1.5,-1.5l1.5,1.5c0.3,-0.1,0.6,-0.5,0.8,-0.8l-1.5,-1.5l1.5,-1.5c-0.2,-0.3,-0.5,-0.6,-0.8,-0.8l-1.5,1.6l-1.5,-1.6c-0.3,0.2,-0.6,0.5,-0.8,0.8Zm29.5,0l-1.5,1.5c0.2,0.3,0.5,0.7,0.8,0.8l1.5,-1.5l1.5,1.5c0.3,-0.1,0.6,-0.5,0.8,-0.8l-1.5,-1.5l1.5,-1.5c-0.2,-0.3,-0.5,-0.6,-0.8,-0.8l-1.5,1.6l-1.5,-1.6c-0.3,0.2,-0.6,0.5,-0.8,0.8Zm-14.8,0l-1.5,1.5c0.3,0.3,0.6,0.7,0.8,0.8l1.5,-1.5l1.6,1.5c0.3,-0.1,0.5,-0.5,0.8,-0.8l-1.6,-1.5l1.6,-1.5c-0.3,-0.3,-0.5,-0.6,-0.8,-0.8l-1.6,1.6l-1.5,-1.6c-0.2,0.2,-0.5,0.5,-0.8,0.8Zm119.7,0l-1.5,1.5c0.2,0.3,0.5,0.7,0.8,0.8l1.5,-1.5l1.5,1.5c0.4,-0.1,0.6,-0.5,0.8,-0.8l-1.5,-1.5l1.5,-1.5c-0.2,-0.3,-0.4,-0.6,-0.8,-0.8l-1.5,1.6l-1.5,-1.6c-0.3,0.2,-0.6,0.5,-0.8,0.8Zm-14.7,0l-1.6,1.5c0.3,0.3,0.6,0.7,0.8,0.8l1.6,-1.5l1.5,1.5c0.3,-0.1,0.5,-0.5,0.8,-0.8l-1.5,-1.5l1.5,-1.5c-0.3,-0.3,-0.5,-0.6,-0.8,-0.8l-1.5,1.6l-1.6,-1.6c-0.2,0.2,-0.5,0.5,-0.8,0.8Zm-44.3,0l-1.5,1.5c0.2,0.3,0.5,0.7,0.8,0.8l1.5,-1.5l1.5,1.5c0.3,-0.1,0.6,-0.5,0.8,-0.8l-1.5,-1.5l1.5,-1.5c-0.2,-0.3,-0.5,-0.6,-0.8,-0.8l-1.5,1.6l-1.5,-1.6c-0.3,0.2,-0.6,0.5,-0.8,0.8Zm29.5,0l-1.5,1.5c0.2,0.3,0.5,0.7,0.8,0.8l1.5,-1.5l1.5,1.5c0.3,-0.1,0.6,-0.5,0.8,-0.8l-1.5,-1.5l1.5,-1.5c-0.2,-0.3,-0.5,-0.6,-0.8,-0.8l-1.5,1.6l-1.5,-1.6c-0.3,0.2,-0.6,0.5,-0.8,0.8Zm-14.8,0l-1.5,1.5c0.3,0.3,0.6,0.7,0.8,0.8l1.5,-1.5l1.6,1.5c0.3,-0.1,0.5,-0.5,0.8,-0.8l-1.6,-1.5l1.6,-1.5c-0.3,-0.3,-0.5,-0.6,-0.8,-0.8l-1.6,1.6l-1.5,-1.6c-0.2,0.2,-0.5,0.5,-0.8,0.8Zm119.7,0l-1.5,1.5c0.2,0.3,0.5,0.7,0.8,0.8l1.5,-1.5l1.5,1.5c0.3,-0.1,0.6,-0.5,0.8,-0.8l-1.5,-1.5l1.5,-1.5c-0.2,-0.3,-0.5,-0.6,-0.8,-0.8l-1.5,1.6l-1.5,-1.6c-0.3,0.2,-0.6,0.5,-0.8,0.8Zm-14.8,0l-1.5,1.5c0.3,0.3,0.6,0.7,0.8,0.8l1.5,-1.5l1.6,1.5c0.3,-0.1,0.5,-0.5,0.8,-0.8l-1.6,-1.5l1.6,-1.5c-0.3,-0.3,-0.5,-0.6,-0.8,-0.8l-1.6,1.6l-1.5,-1.6c-0.2,0.2,-0.5,0.5,-0.8,0.8Zm-44.2,0l-1.6,1.5c0.3,0.3,0.6,0.7,0.8,0.8l1.6,-1.5l1.5,1.5c0.3,-0.1,0.6,-0.5,0.8,-0.8l-1.5,-1.5l1.5,-1.5c-0.2,-0.3,-0.5,-0.6,-0.8,-0.8l-1.5,1.6l-1.6,-1.6c-0.2,0.2,-0.5,0.5,-0.8,0.8Zm29.5,0l-1.5,1.5c0.2,0.3,0.5,0.7,0.8,0.8l1.5,-1.5l1.5,1.5c0.3,-0.1,0.6,-0.5,0.8,-0.8l-1.5,-1.5l1.5,-1.5c-0.2,-0.3,-0.5,-0.6,-0.8,-0.8l-1.5,1.6l-1.5,-1.6c-0.3,0.2,-0.6,0.5,-0.8,0.8Zm-14.8,0l-1.5,1.5c0.2,0.3,0.6,0.7,0.8,0.8l1.5,-1.5l1.6,1.5c0.3,-0.1,0.5,-0.5,0.8,-0.8l-1.6,-1.5l1.6,-1.5c-0.3,-0.3,-0.5,-0.6,-0.8,-0.8l-1.6,1.6l-1.5,-1.6c-0.2,0.2,-0.6,0.5,-0.8,0.8Zm119.7,0l-1.5,1.5c0.2,0.3,0.5,0.7,0.8,0.8l1.5,-1.5l1.5,1.5c0.3,-0.1,0.6,-0.5,0.8,-0.8l-1.5,-1.5l1.5,-1.5c-0.2,-0.3,-0.5,-0.6,-0.8,-0.8L567,1147l-1.5,-1.6c-0.3,0.2,-0.6,0.5,-0.8,0.8Zm-14.8,0l-1.5,1.5c0.3,0.3,0.6,0.7,0.8,0.8l1.5,-1.5l1.6,1.5c0.3,-0.1,0.5,-0.5,0.8,-0.8l-1.6,-1.5l1.6,-1.5c-0.3,-0.3,-0.5,-0.6,-0.8,-0.8l-1.6,1.6l-1.5,-1.6c-0.2,0.2,-0.5,0.5,-0.8,0.8Zm-44.2,0l-1.6,1.5c0.3,0.3,0.6,0.7,0.8,0.8l1.6,-1.5l1.5,1.5c0.3,-0.1,0.5,-0.5,0.8,-0.8l-1.5,-1.5l1.5,-1.5c-0.3,-0.3,-0.5,-0.6,-0.8,-0.8L508,1147l-1.6,-1.6c-0.2,0.2,-0.5,0.5,-0.8,0.8Zm29.5,0l-1.5,1.5c0.2,0.3,0.5,0.7,0.8,0.8l1.5,-1.5l1.5,1.5c0.3,-0.1,0.6,-0.5,0.8,-0.8l-1.5,-1.5l1.5,-1.5c-0.2,-0.3,-0.5,-0.6,-0.8,-0.8l-1.5,1.6l-1.5,-1.6c-0.3,0.2,-0.6,0.5,-0.8,0.8Zm-14.8,0l-1.5,1.5c0.2,0.3,0.6,0.7,0.8,0.8l1.5,-1.5l1.5,1.5c0.4,-0.1,0.6,-0.5,0.8,-0.8l-1.5,-1.5l1.5,-1.5c-0.2,-0.3,-0.4,-0.6,-0.8,-0.8l-1.5,1.6l-1.5,-1.6c-0.2,0.2,-0.6,0.5,-0.8,0.8Zm119.7,0l-1.5,1.5c0.2,0.3,0.5,0.7,0.8,0.8l1.5,-1.5l1.5,1.5c0.3,-0.1,0.6,-0.5,0.8,-0.8l-1.5,-1.5l1.5,-1.5c-0.2,-0.3,-0.5,-0.6,-0.8,-0.8l-1.5,1.6l-1.5,-1.6c-0.3,0.2,-0.6,0.5,-0.8,0.8Zm-14.8,0l-1.5,1.5c0.2,0.3,0.6,0.7,0.8,0.8l1.5,-1.5l1.6,1.5c0.3,-0.1,0.5,-0.5,0.8,-0.8l-1.6,-1.5l1.6,-1.5c-0.3,-0.3,-0.5,-0.6,-0.8,-0.8l-1.6,1.6l-1.5,-1.6c-0.2,0.2,-0.6,0.5,-0.8,0.8Zm-44.2,0l-1.6,1.5c0.3,0.3,0.6,0.7,0.8,0.8l1.6,-1.5l1.5,1.5c0.3,-0.1,0.5,-0.5,0.8,-0.8l-1.5,-1.5l1.5,-1.5c-0.3,-0.3,-0.5,-0.6,-0.8,-0.8l-1.5,1.6l-1.6,-1.6c-0.2,0.2,-0.5,0.5,-0.8,0.8Zm29.5,0l-1.6,1.5c0.3,0.3,0.6,0.7,0.9,0.8l1.5,-1.5l1.5,1.5c0.3,-0.1,0.6,-0.5,0.8,-0.8l-1.5,-1.5l1.5,-1.5c-0.2,-0.3,-0.5,-0.6,-0.8,-0.8l-1.5,1.6l-1.5,-1.6c-0.3,0.2,-0.6,0.5,-0.9,0.8Zm-14.8,0l-1.5,1.5c0.2,0.3,0.6,0.7,0.8,0.8l1.5,-1.5l1.5,1.5c0.4,-0.1,0.6,-0.5,0.8,-0.8l-1.5,-1.5l1.5,-1.5c-0.2,-0.3,-0.4,-0.6,-0.8,-0.8l-1.5,1.6l-1.5,-1.6c-0.2,0.2,-0.6,0.5,-0.8,0.8Zm119.7,0l-1.5,1.5c0.2,0.3,0.5,0.7,0.8,0.8l1.5,-1.5l1.5,1.5c0.3,-0.1,0.6,-0.5,0.8,-0.8l-1.5,-1.5l1.5,-1.5c-0.2,-0.3,-0.5,-0.6,-0.8,-0.8l-1.5,1.6l-1.5,-1.6c-0.3,0.2,-0.6,0.5,-0.8,0.8Zm-14.8,0l-1.5,1.5c0.2,0.3,0.6,0.7,0.8,0.8l1.5,-1.5l1.6,1.5c0.3,-0.1,0.5,-0.5,0.8,-0.8l-1.6,-1.5l1.6,-1.5c-0.3,-0.3,-0.5,-0.6,-0.8,-0.8L703,1147l-1.5,-1.6c-0.2,0.2,-0.6,0.5,-0.8,0.8Zm-44.2,0l-1.6,1.5c0.3,0.3,0.6,0.7,0.8,0.8l1.6,-1.5l1.5,1.5c0.3,-0.1,0.5,-0.5,0.8,-0.8l-1.5,-1.5l1.5,-1.5c-0.3,-0.3,-0.5,-0.6,-0.8,-0.8l-1.5,1.6l-1.6,-1.6c-0.2,0.2,-0.5,0.5,-0.8,0.8Zm29.5,0l-1.6,1.5c0.3,0.3,0.6,0.7,0.8,0.8l1.6,-1.5l1.5,1.5c0.3,-0.1,0.6,-0.5,0.8,-0.8l-1.5,-1.5l1.5,-1.5c-0.2,-0.3,-0.5,-0.6,-0.8,-0.8l-1.5,1.6l-1.6,-1.6c-0.2,0.2,-0.5,0.5,-0.8,0.8Zm-14.8,0l-1.5,1.5c0.2,0.3,0.5,0.7,0.8,0.8l1.5,-1.5l1.5,1.5c0.4,-0.1,0.6,-0.5,0.8,-0.8l-1.5,-1.5l1.5,-1.5c-0.2,-0.3,-0.4,-0.6,-0.8,-0.8l-1.5,1.6l-1.5,-1.6c-0.3,0.2,-0.6,0.5,-0.8,0.8Zm119.7,0l-1.5,1.5c0.2,0.3,0.5,0.7,0.8,0.8l1.5,-1.5l1.5,1.5c0.3,-0.1,0.6,-0.5,0.8,-0.8l-1.5,-1.5l1.5,-1.5c-0.2,-0.3,-0.5,-0.6,-0.8,-0.8l-1.5,1.6l-1.5,-1.6c-0.3,0.2,-0.6,0.5,-0.8,0.8Zm-14.8,0l-1.5,1.5c0.2,0.3,0.6,0.7,0.8,0.8l1.5,-1.5l1.5,1.5c0.4,-0.1,0.6,-0.5,0.8,-0.8l-1.5,-1.5l1.5,-1.5c-0.2,-0.3,-0.4,-0.6,-0.8,-0.8l-1.5,1.6l-1.5,-1.6c-0.2,0.2,-0.6,0.5,-0.8,0.8Zm-44.3,0l-1.5,1.5c0.3,0.3,0.6,0.7,0.8,0.8l1.5,-1.5l1.6,1.5c0.3,-0.1,0.5,-0.5,0.8,-0.8l-1.6,-1.5l1.6,-1.5c-0.3,-0.3,-0.5,-0.6,-0.8,-0.8l-1.6,1.6l-1.5,-1.6c-0.2,0.2,-0.5,0.5,-0.8,0.8Zm29.6,0l-1.6,1.5c0.3,0.3,0.6,0.7,0.8,0.8l1.6,-1.5l1.5,1.5c0.3,-0.1,0.5,-0.5,0.8,-0.8l-1.5,-1.5l1.5,-1.5c-0.3,-0.3,-0.5,-0.6,-0.8,-0.8l-1.5,1.6l-1.6,-1.6c-0.2,0.2,-0.5,0.5,-0.8,0.8Zm-14.8,0l-1.5,1.5c0.2,0.3,0.5,0.7,0.8,0.8l1.5,-1.5l1.5,1.5c0.3,-0.1,0.6,-0.5,0.8,-0.8l-1.5,-1.5l1.5,-1.5c-0.2,-0.3,-0.5,-0.6,-0.8,-0.8l-1.5,1.6l-1.5,-1.6c-0.3,0.2,-0.6,0.5,-0.8,0.8Zm119.7,0l-1.6,1.5c0.3,0.3,0.6,0.7,0.8,0.8l1.6,-1.5l1.5,1.5c0.3,-0.1,0.6,-0.5,0.8,-0.8l-1.5,-1.5l1.5,-1.5c-0.2,-0.3,-0.5,-0.6,-0.8,-0.8l-1.5,1.6l-1.6,-1.6c-0.2,0.2,-0.5,0.5,-0.8,0.8Zm-14.8,0l-1.5,1.5c0.2,0.3,0.6,0.7,0.8,0.8l1.5,-1.5l1.5,1.5c0.4,-0.1,0.6,-0.5,0.8,-0.8l-1.5,-1.5l1.5,-1.5c-0.2,-0.3,-0.4,-0.6,-0.8,-0.8l-1.5,1.6l-1.5,-1.6c-0.2,0.2,-0.6,0.5,-0.8,0.8Zm-44.3,0l-1.5,1.5c0.3,0.3,0.6,0.7,0.8,0.8l1.5,-1.5l1.6,1.5c0.3,-0.1,0.5,-0.5,0.8,-0.8l-1.6,-1.5l1.6,-1.5c-0.3,-0.3,-0.5,-0.6,-0.8,-0.8l-1.6,1.6l-1.5,-1.6c-0.2,0.2,-0.5,0.5,-0.8,0.8Zm29.6,0l-1.6,1.5c0.3,0.3,0.6,0.7,0.8,0.8l1.6,-1.5l1.5,1.5c0.3,-0.1,0.5,-0.5,0.8,-0.8l-1.5,-1.5l1.5,-1.5c-0.3,-0.3,-0.5,-0.6,-0.8,-0.8l-1.5,1.6l-1.6,-1.6c-0.2,0.2,-0.5,0.5,-0.8,0.8Zm-14.8,0l-1.5,1.5c0.2,0.3,0.5,0.7,0.8,0.8l1.5,-1.5l1.5,1.5c0.3,-0.1,0.6,-0.5,0.8,-0.8l-1.5,-1.5l1.5,-1.5c-0.2,-0.3,-0.5,-0.6,-0.8,-0.8l-1.5,1.6l-1.5,-1.6c-0.3,0.2,-0.6,0.5,-0.8,0.8Zm119.7,0l-1.6,1.5c0.3,0.3,0.6,0.7,0.8,0.8l1.6,-1.5l1.5,1.5c0.3,-0.1,0.6,-0.5,0.8,-0.8l-1.5,-1.5l1.5,-1.5c-0.2,-0.3,-0.5,-0.6,-0.8,-0.8L944,1147l-1.6,-1.6c-0.2,0.2,-0.5,0.5,-0.8,0.8Zm-14.8,0l-1.5,1.5c0.2,0.3,0.5,0.7,0.8,0.8l1.5,-1.5l1.5,1.5c0.4,-0.1,0.6,-0.5,0.8,-0.8l-1.5,-1.5l1.5,-1.5c-0.2,-0.3,-0.4,-0.6,-0.8,-0.8l-1.5,1.6l-1.5,-1.6c-0.3,0.2,-0.6,0.5,-0.8,0.8Zm-44.3,0l-1.5,1.5c0.2,0.3,0.6,0.7,0.8,0.8l1.5,-1.5l1.6,1.5c0.3,-0.1,0.5,-0.5,0.8,-0.8l-1.6,-1.5l1.6,-1.5c-0.3,-0.3,-0.5,-0.6,-0.8,-0.8l-1.6,1.6l-1.5,-1.6c-0.2,0.2,-0.6,0.5,-0.8,0.8Zm29.5,0l-1.5,1.5c0.3,0.3,0.6,0.7,0.8,0.8l1.6,-1.5l1.5,1.5c0.3,-0.1,0.5,-0.5,0.8,-0.8l-1.5,-1.5l1.5,-1.5c-0.3,-0.3,-0.5,-0.6,-0.8,-0.8l-1.5,1.6l-1.6,-1.6c-0.2,0.2,-0.5,0.5,-0.8,0.8Zm-14.7,0l-1.5,1.5c0.2,0.3,0.5,0.7,0.8,0.8l1.5,-1.5l1.5,1.5c0.3,-0.1,0.6,-0.5,0.8,-0.8l-1.5,-1.5l1.5,-1.5c-0.2,-0.3,-0.5,-0.6,-0.8,-0.8l-1.5,1.6l-1.5,-1.6c-0.3,0.2,-0.6,0.5,-0.8,0.8Zm119.7,0l-1.6,1.5c0.3,0.3,0.6,0.7,0.8,0.8l1.6,-1.5l1.5,1.5c0.3,-0.1,0.5,-0.5,0.8,-0.8l-1.5,-1.5l1.5,-1.5c-0.3,-0.3,-0.5,-0.6,-0.8,-0.8l-1.5,1.6l-1.6,-1.6c-0.2,0.2,-0.5,0.5,-0.8,0.8Zm-14.8,0l-1.5,1.5c0.2,0.3,0.5,0.7,0.8,0.8l1.5,-1.5l1.5,1.5c0.3,-0.1,0.6,-0.5,0.8,-0.8l-1.5,-1.5l1.5,-1.5c-0.2,-0.3,-0.5,-0.6,-0.8,-0.8l-1.5,1.6l-1.5,-1.6c-0.3,0.2,-0.6,0.5,-0.8,0.8Zm-44.3,0l-1.5,1.5c0.2,0.3,0.6,0.7,0.8,0.8l1.5,-1.5l1.6,1.5c0.3,-0.1,0.5,-0.5,0.8,-0.8l-1.6,-1.5l1.6,-1.5c-0.3,-0.3,-0.5,-0.6,-0.8,-0.8l-1.6,1.6l-1.5,-1.6c-0.2,0.2,-0.6,0.5,-0.8,0.8Zm29.5,0l-1.5,1.5c0.3,0.3,0.6,0.7,0.8,0.8l1.5,-1.5l1.6,1.5c0.3,-0.1,0.5,-0.5,0.8,-0.8l-1.6,-1.5l1.6,-1.5c-0.3,-0.3,-0.5,-0.6,-0.8,-0.8l-1.6,1.6l-1.5,-1.6c-0.2,0.2,-0.5,0.5,-0.8,0.8Zm-14.7,0l-1.5,1.5c0.2,0.3,0.5,0.7,0.8,0.8l1.5,-1.5l1.5,1.5c0.3,-0.1,0.6,-0.5,0.8,-0.8l-1.5,-1.5l1.5,-1.5c-0.2,-0.3,-0.5,-0.6,-0.8,-0.8l-1.5,1.6l-1.5,-1.6c-0.3,0.2,-0.6,0.5,-0.8,0.8Zm119.7,0l-1.6,1.5c0.3,0.3,0.6,0.7,0.8,0.8l1.6,-1.5l1.5,1.5c0.3,-0.1,0.5,-0.5,0.8,-0.8l-1.5,-1.5l1.5,-1.5c-0.3,-0.3,-0.5,-0.6,-0.8,-0.8l-1.5,1.6l-1.6,-1.6c-0.2,0.2,-0.5,0.5,-0.8,0.8Zm-14.8,0l-1.5,1.5c0.2,0.3,0.5,0.7,0.8,0.8l1.5,-1.5l1.5,1.5c0.3,-0.1,0.6,-0.5,0.8,-0.8l-1.5,-1.5l1.5,-1.5c-0.2,-0.3,-0.5,-0.6,-0.8,-0.8l-1.5,1.6l-1.5,-1.6c-0.3,0.2,-0.6,0.5,-0.8,0.8Zm-44.3,0l-1.5,1.5c0.2,0.3,0.6,0.7,0.8,0.8l1.5,-1.5l1.5,1.5c0.4,-0.1,0.6,-0.5,0.8,-0.8l-1.5,-1.5l1.5,-1.5c-0.2,-0.3,-0.4,-0.6,-0.8,-0.8l-1.5,1.6l-1.5,-1.6c-0.2,0.2,-0.6,0.5,-0.8,0.8Zm29.5,0l-1.5,1.5c0.3,0.3,0.6,0.7,0.8,0.8l1.5,-1.5l1.6,1.5c0.3,-0.1,0.5,-0.5,0.8,-0.8l-1.6,-1.5l1.6,-1.5c-0.3,-0.3,-0.5,-0.6,-0.8,-0.8l-1.6,1.6l-1.5,-1.6c-0.2,0.2,-0.5,0.5,-0.8,0.8Zm-14.7,0l-1.5,1.5c0.2,0.3,0.5,0.7,0.8,0.8l1.5,-1.5l1.5,1.5c0.3,-0.1,0.6,-0.5,0.8,-0.8l-1.5,-1.5l1.5,-1.5c-0.2,-0.3,-0.5,-0.6,-0.8,-0.8l-1.5,1.6l-1.5,-1.6c-0.3,0.2,-0.6,0.5,-0.8,0.8Zm119.6,0l-1.5,1.5c0.3,0.3,0.6,0.7,0.8,0.8l1.5,-1.5l1.6,1.5c0.3,-0.1,0.5,-0.5,0.8,-0.8l-1.5,-1.5l1.5,-1.5c-0.3,-0.3,-0.5,-0.6,-0.8,-0.8l-1.6,1.6l-1.5,-1.6c-0.2,0.2,-0.5,0.5,-0.8,0.8Zm-14.7,0l-1.5,1.5c0.2,0.3,0.5,0.7,0.8,0.8l1.5,-1.5l1.5,1.5c0.3,-0.1,0.6,-0.5,0.8,-0.8l-1.5,-1.5l1.5,-1.5c-0.2,-0.3,-0.5,-0.6,-0.8,-0.8l-1.5,1.6l-1.5,-1.6c-0.3,0.2,-0.6,0.5,-0.8,0.8Zm-44.3,0l-1.5,1.5c0.2,0.3,0.5,0.7,0.8,0.8l1.5,-1.5l1.5,1.5c0.4,-0.1,0.6,-0.5,0.8,-0.8l-1.5,-1.5l1.5,-1.5c-0.2,-0.3,-0.4,-0.6,-0.8,-0.8l-1.5,1.6l-1.5,-1.6c-0.3,0.2,-0.6,0.5,-0.8,0.8Zm29.5,0l-1.5,1.5c0.2,0.3,0.6,0.7,0.8,0.8l1.5,-1.5l1.6,1.5c0.3,-0.1,0.5,-0.5,0.8,-0.8l-1.6,-1.5l1.6,-1.5c-0.3,-0.3,-0.5,-0.6,-0.8,-0.8l-1.6,1.6l-1.5,-1.6c-0.2,0.2,-0.6,0.5,-0.8,0.8Zm-14.7,0l-1.6,1.5c0.3,0.3,0.6,0.7,0.8,0.8l1.6,-1.5l1.5,1.5c0.3,-0.1,0.6,-0.5,0.8,-0.8l-1.5,-1.5l1.5,-1.5c-0.2,-0.3,-0.5,-0.6,-0.8,-0.8l-1.5,1.6l-1.6,-1.6c-0.2,0.2,-0.5,0.5,-0.8,0.8Z" class="g2_3" />
</g>
<path d="M281.8,30.7c-3,-0.4,-6.1,0,-9,0.3c-6.6,0.6,-12.4,5.6,-13.8,12.7c-0.2,1.6,-0.4,3.3,-0.7,4.7c0.2,4.5,1.2,8.4,3.7,11.8c3.4,4.9,8,8,13.7,9.3c5.6,1.4,10.4,-0.7,14.2,-4.4c2.8,-2.8,4.8,-6.3,5.3,-10.4c0.2,-0.8,0.3,-1.7,0.5,-2.4c1.1,-4.4,0,-8.6,-1.9,-12.4c-2.4,-4.9,-6.3,-8.3,-12,-9.2Z" class="g3_3" />
<path d="M331.8,38.9c0.1,0.2,0.3,0.3,0.4,0.3c1.9,1,3.7,1.7,5.6,2.7c2.2,1,4.2,2.3,6.4,3.4c0.7,0.4,0.7,0.6,0.6,1.4c-0.6,1.8,-1.1,3.7,-2,5.6c-0.7,1.2,-1.1,2.3,-1.4,3.5c-0.5,1.6,-0.8,3,-1.3,4.5c-0.1,0.6,0.3,1,1,0.8c0.3,0,0.6,-0.2,0.9,-0.3c0.5,-0.2,0.9,-0.5,1.4,-0.6c2,-0.7,3.9,-1.4,5.9,-2.1c0.9,-0.1,1.8,-0.3,2.9,-0.3c2.4,0,4.7,0,7.2,0.2c4,0.3,8,0.5,11.9,1.1c2.6,0.3,5.1,0.9,7.6,1.4c4,0.9,7.9,2.3,12.1,2.9c3.1,0.5,6.2,1.3,9.3,2.2c2,0.5,4,0.8,6.1,0.9c1.7,0.2,3.4,0.3,5.1,0.5c0.9,0.1,1.8,0.1,2.8,0.3c4.6,0.3,9.1,-0.3,13.6,-0.9c4.4,-0.5,8.5,-1.4,12.6,-2.8c0.6,-0.3,1.4,-0.5,2,-0.6c3.2,-1,6.5,-1.9,9.4,-3.1c3.1,-1.4,6.3,-2.8,9.4,-4.2c3.7,-1.9,6.9,-4.1,10,-6.4l2.4,-1.9c0.4,-0.6,1,-1.2,1.5,-1.8c0.3,-0.3,0.2,-0.6,-0.3,-0.8c-0.3,-0.1,-0.6,-0.3,-0.8,-0.3c-2.5,-0.8,-4.8,-1.4,-7.1,-2.2c-2.2,-0.6,-4.4,-1.2,-6.5,-1.8c-0.8,-0.3,-1.3,-0.7,-1.4,-1.3c-0.3,-0.9,-0.8,-1.7,-1.1,-2.6c-0.6,-1.2,-1.1,-2.3,-1.6,-3.6c-0.7,-2,-1.4,-4.2,-2.1,-6.2C454,26.2,453.5,26,453,26.5c-0.4,0.5,-0.7,0.8,-1.2,1.1c-1.7,1.1,-3.4,2.3,-5.1,3.4c-1.4,0.9,-2.8,1.7,-4.4,2.6c-2.9,1.6,-6,2.7,-9.3,3.6c-2.9,0.9,-5.9,1.6,-9,2c-1.5,0.3,-3.2,0.5,-4.8,0.6c-2.3,0.2,-4.5,0.4,-6.8,0.2c-5.1,-0.2,-10.1,-1.1,-15,-2c-1.3,-0.3,-2.7,-0.5,-3.9,-0.6c-3,-0.3,-5.8,-1,-8.4,-1.7c-1.7,-0.5,-3.1,-1.1,-4.6,-1.6c-2.7,-0.8,-5.3,-1.5,-8,-2.3c-1,-0.3,-2.1,-0.6,-3.2,-0.8c-2.5,-0.5,-5,-0.9,-7.5,-1.1c-3.2,-0.4,-6.6,-0.4,-9.9,-0.1c-2.8,0.3,-5.4,0.7,-7.9,1.7c-1.2,0.4,-2.5,0.7,-3.7,1.4c-1.1,0.4,-2,1.2,-3.3,1.8c-2,1,-3.7,2.5,-5.2,4.2Z" class="g3_3" />
<image x="902" y="147" width="221" height="253" xlink:href="https://majemastoragelive.blob.core.windows.net/learn-english-test/ebook/Grade3/wildanimals/page1/img/1.png" />
<path d="M904,391l212,0l0,-243l-212,0l0,243Z" class="g4_3" />
<path d="M904,327l212,0l0,-179l-212,0l0,179Z" class="g4_3" />
<image x="904" y="147" width="212" height="183" xlink:href="https://majemastoragelive.blob.core.windows.net/learn-english-test/ebook/Grade3/wildanimals/page1/img/2.png" />
<g clip-path="url(#c1_3)">
<path d="M904.5,135.5l0,10m-13,3l10,0m214,-13l0,10m13,3l-10,0m-214,256l0,-11m-13,-3l10,0m214,14l0,-11m13,-3l-10,0" class="g5_3" />
<path d="M904.5,135.5l0,10m-13,3l10,0m214,-13l0,10m13,3l-10,0m-214,256l0,-11m-13,-3l10,0m214,14l0,-11m13,-3l-10,0" class="g6_3" />
<path d="M999.5,140.4l21.2,0M999.5,398.8l21.2,0M896.6,259l0,21.2m227,-21.2l0,21.2M1010.1,135.1l0,10.6m0,247.7l0,10.7M891.3,269.6l10.6,0m216.4,0l10.6,0M1010.1,140.4l2.7,0c0,1.5,-1.2,2.7,-2.7,2.7c-1.5,0,-2.7,-1.2,-2.7,-2.7c0,-1.4,1.2,-2.6,2.7,-2.6c1.5,0,2.7,1.2,2.7,2.6m-2.7,258.4l2.7,0c0,1.4,-1.2,2.6,-2.7,2.6c-1.5,0,-2.7,-1.2,-2.7,-2.6c0,-1.5,1.2,-2.7,2.7,-2.7c1.5,0,2.7,1.2,2.7,2.7M896.6,269.6l2.7,0c0,1.5,-1.2,2.6,-2.7,2.6c-1.4,0,-2.6,-1.1,-2.6,-2.6c0,-1.5,1.2,-2.7,2.6,-2.7c1.5,0,2.7,1.2,2.7,2.7m224.3,0l2.6,0c0,1.5,-1.2,2.6,-2.6,2.6c-1.5,0,-2.7,-1.1,-2.7,-2.6c0,-1.5,1.2,-2.7,2.7,-2.7c1.4,0,2.6,1.2,2.6,2.7" class="g5_3" />
<path d="M999.5,140.4l21.2,0M999.5,398.8l21.2,0M896.6,259l0,21.2m227,-21.2l0,21.2M1010.1,135.1l0,10.6m0,247.7l0,10.7M891.3,269.6l10.6,0m216.4,0l10.6,0M1010.1,140.4l2.7,0c0,1.5,-1.2,2.7,-2.7,2.7c-1.5,0,-2.7,-1.2,-2.7,-2.7c0,-1.4,1.2,-2.6,2.7,-2.6c1.5,0,2.7,1.2,2.7,2.6m-2.7,258.4l2.7,0c0,1.4,-1.2,2.6,-2.7,2.6c-1.5,0,-2.7,-1.2,-2.7,-2.6c0,-1.5,1.2,-2.7,2.7,-2.7c1.5,0,2.7,1.2,2.7,2.7M896.6,269.6l2.7,0c0,1.5,-1.2,2.6,-2.7,2.6c-1.4,0,-2.6,-1.1,-2.6,-2.6c0,-1.5,1.2,-2.7,2.6,-2.7c1.5,0,2.7,1.2,2.7,2.7m224.3,0l2.6,0c0,1.5,-1.2,2.6,-2.6,2.6c-1.5,0,-2.7,-1.1,-2.7,-2.6c0,-1.5,1.2,-2.7,2.7,-2.7c1.4,0,2.6,1.2,2.6,2.7" class="g6_3" />
</g>
<path d="M904.5,391.5l212,0l0,-243l-212,0l0,243Z" class="g7_3" />
<path d="M511.7,380.2c74.5,0,134.8,-60.3,134.8,-134.8c0,-74.5,-60.3,-134.8,-134.8,-134.8c-74.5,0,-134.8,60.3,-134.8,134.8c0,74.5,60.3,134.8,134.8,134.8Z" class="g3_3" />
<image x="406" y="130" width="216" height="243" xlink:href="https://majemastoragelive.blob.core.windows.net/learn-english-test/ebook/Grade3/wildanimals/page1/img/3.png" />
<path d="M420.2,131.3L408.5,353.9l194.1,10.2L614.3,141.5Z" class="g4_3" />
<path d="M413.4,259.8l-4.9,94.1l194.1,10.2L614.3,141.5L420.2,131.3Z" class="g8_3" />
<path d="M420.2,131.3L408.5,353.9l194.1,10.2L614.3,141.5Z" class="g9_3" />
<image x="408" y="130" width="207" height="235" xlink:href="https://majemastoragelive.blob.core.windows.net/learn-english-test/ebook/Grade3/wildanimals/page1/img/4.png" />
<image x="406" y="338" width="203" height="35" xlink:href="https://majemastoragelive.blob.core.windows.net/learn-english-test/ebook/Grade3/wildanimals/page1/img/5.png" />
<image x="406" y="336" width="203" height="37" xlink:href="https://majemastoragelive.blob.core.windows.net/learn-english-test/ebook/Grade3/wildanimals/page1/img/6.png" />
<path d="M420.2,131.3L408.5,353.9l194.1,10.2L614.3,141.5L420.2,131.3Z" class="g7_3" />
<image x="255" y="492" width="221" height="253" xlink:href="https://majemastoragelive.blob.core.windows.net/learn-english-test/ebook/Grade3/wildanimals/page1/img/7.png" />
<path d="M257,736l211,0l0,-242l-211,0l0,242Z" class="g4_3" />
<path d="M257,673l211,0l0,-179l-211,0l0,179Z" class="g4_3" />
<image x="253" y="490" width="219" height="185" xlink:href="https://majemastoragelive.blob.core.windows.net/learn-english-test/ebook/Grade3/wildanimals/page1/img/8.png" />
<g clip-path="url(#c2_3)">
<path d="M257.5,480.5l0,11m-14,2l11,0m213,-13l0,11m14,2l-11,0m-213,256l0,-11m-14,-2l11,0m213,13l0,-11m14,-2l-11,0" class="g5_3" />
<path d="M257.5,480.5l0,11m-14,2l11,0m213,-13l0,11m14,2l-11,0m-213,256l0,-11m-14,-2l11,0m213,13l0,-11m14,-2l-11,0" class="g6_3" />
<path d="M351.9,485.9l21.2,0M351.9,744.2l21.2,0M249,604.4l0,21.3M475.9,604.4l0,21.3M362.5,480.6l0,10.6m0,247.7l0,10.6M243.7,615l10.7,0m216.2,0l10.7,0M362.5,485.9l2.7,0c0,1.5,-1.2,2.6,-2.7,2.6c-1.5,0,-2.7,-1.1,-2.7,-2.6c0,-1.5,1.2,-2.7,2.7,-2.7c1.5,0,2.7,1.2,2.7,2.7m-2.7,258.3l2.7,0c0,1.4,-1.2,2.6,-2.7,2.6c-1.5,0,-2.7,-1.2,-2.7,-2.6c0,-1.5,1.2,-2.7,2.7,-2.7c1.5,0,2.7,1.2,2.7,2.7M249,615l2.7,0c0,1.5,-1.2,2.7,-2.7,2.7c-1.4,0,-2.6,-1.2,-2.6,-2.7c0,-1.4,1.2,-2.6,2.6,-2.6c1.5,0,2.7,1.2,2.7,2.6m224.2,0l2.7,0c0,1.5,-1.2,2.7,-2.7,2.7c-1.4,0,-2.6,-1.2,-2.6,-2.7c0,-1.4,1.2,-2.6,2.6,-2.6c1.5,0,2.7,1.2,2.7,2.6" class="g5_3" />
<path d="M351.9,485.9l21.2,0M351.9,744.2l21.2,0M249,604.4l0,21.3M475.9,604.4l0,21.3M362.5,480.6l0,10.6m0,247.7l0,10.6M243.7,615l10.7,0m216.2,0l10.7,0M362.5,485.9l2.7,0c0,1.5,-1.2,2.6,-2.7,2.6c-1.5,0,-2.7,-1.1,-2.7,-2.6c0,-1.5,1.2,-2.7,2.7,-2.7c1.5,0,2.7,1.2,2.7,2.7m-2.7,258.3l2.7,0c0,1.4,-1.2,2.6,-2.7,2.6c-1.5,0,-2.7,-1.2,-2.7,-2.6c0,-1.5,1.2,-2.7,2.7,-2.7c1.5,0,2.7,1.2,2.7,2.7M249,615l2.7,0c0,1.5,-1.2,2.7,-2.7,2.7c-1.4,0,-2.6,-1.2,-2.6,-2.7c0,-1.4,1.2,-2.6,2.6,-2.6c1.5,0,2.7,1.2,2.7,2.6m224.2,0l2.7,0c0,1.5,-1.2,2.7,-2.7,2.7c-1.4,0,-2.6,-1.2,-2.6,-2.7c0,-1.4,1.2,-2.6,2.6,-2.6c1.5,0,2.7,1.2,2.7,2.6" class="g6_3" />
</g>
<path d="M257.5,736.5l211,0l0,-242l-211,0l0,242Z" class="g7_3" />
<image x="465" y="492" width="221" height="253" xlink:href="https://majemastoragelive.blob.core.windows.net/learn-english-test/ebook/Grade3/wildanimals/page1/img/9.png" />
<path d="M467,736l212,0l0,-242l-212,0l0,242Z" class="g4_3" />
<path d="M467,673l212,0l0,-179l-212,0l0,179Z" class="g4_3" />
<image x="463" y="490" width="220" height="185" xlink:href="https://majemastoragelive.blob.core.windows.net/learn-english-test/ebook/Grade3/wildanimals/page1/img/10.png" />
<g clip-path="url(#c3_3)">
<path d="M467.5,480.5l0,11m-13,2l11,0m213,-13l0,11m13,2l-10,0m-214,256l0,-11m-13,-2l11,0m213,13l0,-11m13,-2l-10,0" class="g5_3" />
<path d="M467.5,480.5l0,11m-13,2l11,0m213,-13l0,11m13,2l-10,0m-214,256l0,-11m-13,-2l11,0m213,13l0,-11m13,-2l-10,0" class="g6_3" />
<path d="M562.6,485.9l21.2,0M562.6,744.2l21.2,0M459.7,604.4l0,21.3M686.6,604.4l0,21.3M573.2,480.6l0,10.6m0,247.7l0,10.6M454.4,615l10.7,0m216.2,0l10.6,0M573.2,485.9l2.6,0c0,1.5,-1.1,2.6,-2.6,2.6c-1.5,0,-2.7,-1.1,-2.7,-2.6c0,-1.5,1.2,-2.7,2.7,-2.7c1.5,0,2.6,1.2,2.6,2.7m-2.6,258.3l2.6,0c0,1.4,-1.1,2.6,-2.6,2.6c-1.5,0,-2.7,-1.2,-2.7,-2.6c0,-1.5,1.2,-2.7,2.7,-2.7c1.5,0,2.6,1.2,2.6,2.7M459.7,615l2.7,0c0,1.5,-1.2,2.7,-2.7,2.7c-1.4,0,-2.6,-1.2,-2.6,-2.7c0,-1.4,1.2,-2.6,2.6,-2.6c1.5,0,2.7,1.2,2.7,2.6m224.2,0l2.7,0c0,1.5,-1.2,2.7,-2.7,2.7c-1.4,0,-2.6,-1.2,-2.6,-2.7c0,-1.4,1.2,-2.6,2.6,-2.6c1.5,0,2.7,1.2,2.7,2.6" class="g5_3" />
<path d="M562.6,485.9l21.2,0M562.6,744.2l21.2,0M459.7,604.4l0,21.3M686.6,604.4l0,21.3M573.2,480.6l0,10.6m0,247.7l0,10.6M454.4,615l10.7,0m216.2,0l10.6,0M573.2,485.9l2.6,0c0,1.5,-1.1,2.6,-2.6,2.6c-1.5,0,-2.7,-1.1,-2.7,-2.6c0,-1.5,1.2,-2.7,2.7,-2.7c1.5,0,2.6,1.2,2.6,2.7m-2.6,258.3l2.6,0c0,1.4,-1.1,2.6,-2.6,2.6c-1.5,0,-2.7,-1.2,-2.7,-2.6c0,-1.5,1.2,-2.7,2.7,-2.7c1.5,0,2.6,1.2,2.6,2.7M459.7,615l2.7,0c0,1.5,-1.2,2.7,-2.7,2.7c-1.4,0,-2.6,-1.2,-2.6,-2.7c0,-1.4,1.2,-2.6,2.6,-2.6c1.5,0,2.7,1.2,2.7,2.6m224.2,0l2.7,0c0,1.5,-1.2,2.7,-2.7,2.7c-1.4,0,-2.6,-1.2,-2.6,-2.7c0,-1.4,1.2,-2.6,2.6,-2.6c1.5,0,2.7,1.2,2.7,2.6" class="g6_3" />
</g>
<path d="M467.5,736.5l212,0l0,-242l-212,0l0,242Z" class="g7_3" />
<image x="690" y="492" width="223" height="253" xlink:href="https://majemastoragelive.blob.core.windows.net/learn-english-test/ebook/Grade3/wildanimals/page1/img/11.png" />
<path d="M693,736l211,0l0,-242l-211,0l0,242Z" class="g4_3" />
<path d="M693,673l211,0l0,-179l-211,0l0,179Z" class="g4_3" />
<image x="689" y="490" width="219" height="185" xlink:href="https://majemastoragelive.blob.core.windows.net/learn-english-test/ebook/Grade3/wildanimals/page1/img/12.png" />
<g clip-path="url(#c4_3)">
<path d="M693.5,480.5l0,11m-14,2l11,0m214,-13l0,11m13,2l-11,0m-213,256l0,-11m-14,-2l11,0m214,13l0,-11m13,-2l-11,0" class="g5_3" />
<path d="M693.5,480.5l0,11m-14,2l11,0m214,-13l0,11m13,2l-11,0m-213,256l0,-11m-14,-2l11,0m214,13l0,-11m13,-2l-11,0" class="g6_3" />
<path d="M788,485.9l21.2,0M788,744.2l21.2,0M685.2,604.4l0,21.3M912.1,604.4l0,21.3M798.6,480.6l0,10.6m0,247.7l0,10.6M679.8,615l10.7,0m216.2,0l10.7,0M798.6,485.9l2.7,0c0,1.5,-1.2,2.6,-2.7,2.6c-1.5,0,-2.7,-1.1,-2.7,-2.6c0,-1.5,1.2,-2.7,2.7,-2.7c1.5,0,2.7,1.2,2.7,2.7m-2.7,258.3l2.7,0c0,1.4,-1.2,2.6,-2.7,2.6c-1.5,0,-2.7,-1.2,-2.7,-2.6c0,-1.5,1.2,-2.7,2.7,-2.7c1.5,0,2.7,1.2,2.7,2.7M685.2,615l2.6,0c0,1.5,-1.2,2.7,-2.6,2.7c-1.5,0,-2.7,-1.2,-2.7,-2.7c0,-1.4,1.2,-2.6,2.7,-2.6c1.4,0,2.6,1.2,2.6,2.6m224.3,0l2.6,0c0,1.5,-1.2,2.7,-2.6,2.7c-1.5,0,-2.7,-1.2,-2.7,-2.7c0,-1.4,1.2,-2.6,2.7,-2.6c1.4,0,2.6,1.2,2.6,2.6" class="g5_3" />
<path d="M788,485.9l21.2,0M788,744.2l21.2,0M685.2,604.4l0,21.3M912.1,604.4l0,21.3M798.6,480.6l0,10.6m0,247.7l0,10.6M679.8,615l10.7,0m216.2,0l10.7,0M798.6,485.9l2.7,0c0,1.5,-1.2,2.6,-2.7,2.6c-1.5,0,-2.7,-1.1,-2.7,-2.6c0,-1.5,1.2,-2.7,2.7,-2.7c1.5,0,2.7,1.2,2.7,2.7m-2.7,258.3l2.7,0c0,1.4,-1.2,2.6,-2.7,2.6c-1.5,0,-2.7,-1.2,-2.7,-2.6c0,-1.5,1.2,-2.7,2.7,-2.7c1.5,0,2.7,1.2,2.7,2.7M685.2,615l2.6,0c0,1.5,-1.2,2.7,-2.6,2.7c-1.5,0,-2.7,-1.2,-2.7,-2.7c0,-1.4,1.2,-2.6,2.7,-2.6c1.4,0,2.6,1.2,2.6,2.6m224.3,0l2.6,0c0,1.5,-1.2,2.7,-2.6,2.7c-1.5,0,-2.7,-1.2,-2.7,-2.7c0,-1.4,1.2,-2.6,2.7,-2.6c1.4,0,2.6,1.2,2.6,2.6" class="g6_3" />
</g>
<path d="M693.5,736.5l211,0l0,-242l-211,0l0,242Z" class="g7_3" />
<image x="901" y="492" width="221" height="253" xlink:href="https://majemastoragelive.blob.core.windows.net/learn-english-test/ebook/Grade3/wildanimals/page1/img/13.png" />
<path d="M903,736l212,0l0,-242l-212,0l0,242Z" class="g4_3" />
<path d="M903,673l212,0l0,-179l-212,0l0,179Z" class="g4_3" />
<image x="899" y="490" width="220" height="185" xlink:href="https://majemastoragelive.blob.core.windows.net/learn-english-test/ebook/Grade3/wildanimals/page1/img/14.png" />
<g clip-path="url(#c5_3)">
<path d="M903.5,480.5l0,11m-13,2l11,0m213,-13l0,11m14,2l-11,0m-214,256l0,-11m-13,-2l11,0m213,13l0,-11m14,-2l-11,0" class="g5_3" />
<path d="M903.5,480.5l0,11m-13,2l11,0m213,-13l0,11m14,2l-11,0m-214,256l0,-11m-13,-2l11,0m213,13l0,-11m14,-2l-11,0" class="g6_3" />
<path d="M998.7,485.9l21.2,0M998.7,744.2l21.2,0M895.8,604.4l0,21.3m226.9,-21.3l0,21.3M1009.3,480.6l0,10.6m0,247.7l0,10.6M890.5,615l10.7,0m216.2,0l10.7,0M1009.3,485.9l2.6,0c0,1.5,-1.1,2.6,-2.6,2.6c-1.5,0,-2.7,-1.1,-2.7,-2.6c0,-1.5,1.2,-2.7,2.7,-2.7c1.5,0,2.6,1.2,2.6,2.7m-2.6,258.3l2.6,0c0,1.4,-1.1,2.6,-2.6,2.6c-1.5,0,-2.7,-1.2,-2.7,-2.6c0,-1.5,1.2,-2.7,2.7,-2.7c1.5,0,2.6,1.2,2.6,2.7M895.8,615l2.7,0c0,1.5,-1.2,2.7,-2.7,2.7c-1.4,0,-2.6,-1.2,-2.6,-2.7c0,-1.4,1.2,-2.6,2.6,-2.6c1.5,0,2.7,1.2,2.7,2.6m224.2,0l2.7,0c0,1.5,-1.2,2.7,-2.7,2.7c-1.4,0,-2.6,-1.2,-2.6,-2.7c0,-1.4,1.2,-2.6,2.6,-2.6c1.5,0,2.7,1.2,2.7,2.6" class="g5_3" />
<path d="M998.7,485.9l21.2,0M998.7,744.2l21.2,0M895.8,604.4l0,21.3m226.9,-21.3l0,21.3M1009.3,480.6l0,10.6m0,247.7l0,10.6M890.5,615l10.7,0m216.2,0l10.7,0M1009.3,485.9l2.6,0c0,1.5,-1.1,2.6,-2.6,2.6c-1.5,0,-2.7,-1.1,-2.7,-2.6c0,-1.5,1.2,-2.7,2.7,-2.7c1.5,0,2.6,1.2,2.6,2.7m-2.6,258.3l2.6,0c0,1.4,-1.1,2.6,-2.6,2.6c-1.5,0,-2.7,-1.2,-2.7,-2.6c0,-1.5,1.2,-2.7,2.7,-2.7c1.5,0,2.6,1.2,2.6,2.7M895.8,615l2.7,0c0,1.5,-1.2,2.7,-2.7,2.7c-1.4,0,-2.6,-1.2,-2.6,-2.7c0,-1.4,1.2,-2.6,2.6,-2.6c1.5,0,2.7,1.2,2.7,2.6m224.2,0l2.7,0c0,1.5,-1.2,2.7,-2.7,2.7c-1.4,0,-2.6,-1.2,-2.6,-2.7c0,-1.4,1.2,-2.6,2.6,-2.6c1.5,0,2.7,1.2,2.7,2.6" class="g6_3" />
</g>
<path d="M903.5,736.5l212,0l0,-242l-212,0l0,242Z" class="g7_3" />
<image x="255" y="833" width="222" height="255" xlink:href="https://majemastoragelive.blob.core.windows.net/learn-english-test/ebook/Grade3/wildanimals/page1/img/15.png" />
<path d="M258,1077l211,0l0,-242l-211,0l0,242Z" class="g4_3" />
<path d="M258,1014l211,0l0,-179l-211,0l0,179Z" class="g4_3" />
<image x="254" y="831" width="219" height="185" xlink:href="https://majemastoragelive.blob.core.windows.net/learn-english-test/ebook/Grade3/wildanimals/page1/img/16.png" />
<g clip-path="url(#c6_3)">
<path d="M258.5,821.5l0,11m-14,2l11,0m214,-13l0,11m13,2l-11,0m-213,256l0,-11m-14,-2l11,0m214,13l0,-11m13,-2l-11,0" class="g5_3" />
<path d="M258.5,821.5l0,11m-14,2l11,0m214,-13l0,11m13,2l-11,0m-213,256l0,-11m-14,-2l11,0m214,13l0,-11m13,-2l-11,0" class="g6_3" />
<path d="M353,826.9l21.2,0M353,1085.2l21.2,0M250.1,945.4l0,21.3M477,945.4l0,21.3M363.6,821.6l0,10.6m0,247.7l0,10.6M244.8,956l10.7,0m216.2,0l10.6,0M363.6,826.9l2.6,0c0,1.5,-1.1,2.7,-2.6,2.7c-1.5,0,-2.7,-1.2,-2.7,-2.7c0,-1.5,1.2,-2.7,2.7,-2.7c1.5,0,2.6,1.2,2.6,2.7m-2.6,258.3l2.6,0c0,1.4,-1.1,2.6,-2.6,2.6c-1.5,0,-2.7,-1.2,-2.7,-2.6c0,-1.5,1.2,-2.7,2.7,-2.7c1.5,0,2.6,1.2,2.6,2.7M250.1,956l2.7,0c0,1.5,-1.2,2.7,-2.7,2.7c-1.4,0,-2.6,-1.2,-2.6,-2.7c0,-1.4,1.2,-2.6,2.6,-2.6c1.5,0,2.7,1.2,2.7,2.6M477,956l2.7,0c0,1.5,-1.2,2.7,-2.7,2.7c-1.4,0,-2.6,-1.2,-2.6,-2.7c0,-1.4,1.2,-2.6,2.6,-2.6c1.5,0,2.7,1.2,2.7,2.6" class="g5_3" />
<path d="M353,826.9l21.2,0M353,1085.2l21.2,0M250.1,945.4l0,21.3M477,945.4l0,21.3M363.6,821.6l0,10.6m0,247.7l0,10.6M244.8,956l10.7,0m216.2,0l10.6,0M363.6,826.9l2.6,0c0,1.5,-1.1,2.7,-2.6,2.7c-1.5,0,-2.7,-1.2,-2.7,-2.7c0,-1.5,1.2,-2.7,2.7,-2.7c1.5,0,2.6,1.2,2.6,2.7m-2.6,258.3l2.6,0c0,1.4,-1.1,2.6,-2.6,2.6c-1.5,0,-2.7,-1.2,-2.7,-2.6c0,-1.5,1.2,-2.7,2.7,-2.7c1.5,0,2.6,1.2,2.6,2.7M250.1,956l2.7,0c0,1.5,-1.2,2.7,-2.7,2.7c-1.4,0,-2.6,-1.2,-2.6,-2.7c0,-1.4,1.2,-2.6,2.6,-2.6c1.5,0,2.7,1.2,2.7,2.6M477,956l2.7,0c0,1.5,-1.2,2.7,-2.7,2.7c-1.4,0,-2.6,-1.2,-2.6,-2.7c0,-1.4,1.2,-2.6,2.6,-2.6c1.5,0,2.7,1.2,2.7,2.6" class="g6_3" />
</g>
<path d="M258.5,1077.5l211,0l0,-242l-211,0l0,242Z" class="g7_3" />
<image x="465" y="833" width="223" height="255" xlink:href="https://majemastoragelive.blob.core.windows.net/learn-english-test/ebook/Grade3/wildanimals/page1/img/17.png" />
<path d="M468,1077l212,0l0,-242l-212,0l0,242Z" class="g4_3" />
<path d="M468,1014l212,0l0,-179l-212,0l0,179Z" class="g4_3" />
<image x="464" y="831" width="220" height="185" xlink:href="https://majemastoragelive.blob.core.windows.net/learn-english-test/ebook/Grade3/wildanimals/page1/img/18.png" />
<g clip-path="url(#c7_3)">
<path d="M468.5,821.5l0,11m-13,2l11,0m213,-13l0,11m14,2l-11,0m-214,256l0,-11m-13,-2l11,0m213,13l0,-11m14,-2l-11,0" class="g5_3" />
<path d="M468.5,821.5l0,11m-13,2l11,0m213,-13l0,11m14,2l-11,0m-214,256l0,-11m-13,-2l11,0m213,13l0,-11m14,-2l-11,0" class="g6_3" />
<path d="M563.6,826.9l21.3,0m-21.3,258.3l21.3,0M460.8,945.4l0,21.3M687.7,945.4l0,21.3M574.3,821.6l0,10.6m0,247.7l0,10.6M455.5,956l10.6,0m216.3,0l10.6,0M574.3,826.9l2.6,0c0,1.5,-1.2,2.7,-2.6,2.7c-1.5,0,-2.7,-1.2,-2.7,-2.7c0,-1.5,1.2,-2.7,2.7,-2.7c1.4,0,2.6,1.2,2.6,2.7m-2.6,258.3l2.6,0c0,1.4,-1.2,2.6,-2.6,2.6c-1.5,0,-2.7,-1.2,-2.7,-2.6c0,-1.5,1.2,-2.7,2.7,-2.7c1.4,0,2.6,1.2,2.6,2.7M460.8,956l2.7,0c0,1.5,-1.2,2.7,-2.7,2.7c-1.4,0,-2.6,-1.2,-2.6,-2.7c0,-1.4,1.2,-2.6,2.6,-2.6c1.5,0,2.7,1.2,2.7,2.6m224.2,0l2.7,0c0,1.5,-1.2,2.7,-2.7,2.7c-1.4,0,-2.6,-1.2,-2.6,-2.7c0,-1.4,1.2,-2.6,2.6,-2.6c1.5,0,2.7,1.2,2.7,2.6" class="g5_3" />
<path d="M563.6,826.9l21.3,0m-21.3,258.3l21.3,0M460.8,945.4l0,21.3M687.7,945.4l0,21.3M574.3,821.6l0,10.6m0,247.7l0,10.6M455.5,956l10.6,0m216.3,0l10.6,0M574.3,826.9l2.6,0c0,1.5,-1.2,2.7,-2.6,2.7c-1.5,0,-2.7,-1.2,-2.7,-2.7c0,-1.5,1.2,-2.7,2.7,-2.7c1.4,0,2.6,1.2,2.6,2.7m-2.6,258.3l2.6,0c0,1.4,-1.2,2.6,-2.6,2.6c-1.5,0,-2.7,-1.2,-2.7,-2.6c0,-1.5,1.2,-2.7,2.7,-2.7c1.4,0,2.6,1.2,2.6,2.7M460.8,956l2.7,0c0,1.5,-1.2,2.7,-2.7,2.7c-1.4,0,-2.6,-1.2,-2.6,-2.7c0,-1.4,1.2,-2.6,2.6,-2.6c1.5,0,2.7,1.2,2.7,2.6m224.2,0l2.7,0c0,1.5,-1.2,2.7,-2.7,2.7c-1.4,0,-2.6,-1.2,-2.6,-2.7c0,-1.4,1.2,-2.6,2.6,-2.6c1.5,0,2.7,1.2,2.7,2.6" class="g6_3" />
</g>
<path d="M468.5,1077.5l212,0l0,-242l-212,0l0,242Z" class="g7_3" />
<image x="690" y="833" width="223" height="255" xlink:href="https://majemastoragelive.blob.core.windows.net/learn-english-test/ebook/Grade3/wildanimals/page1/img/19.png" />
<path d="M693,1077l211,0l0,-242l-211,0l0,242Z" class="g4_3" />
<path d="M693,1014l211,0l0,-179l-211,0l0,179Z" class="g4_3" />
<image x="689" y="831" width="220" height="185" xlink:href="https://majemastoragelive.blob.core.windows.net/learn-english-test/ebook/Grade3/wildanimals/page1/img/20.png" />
<g clip-path="url(#c8_3)">
<path d="M693.5,821.5l0,11m-13,2l10,0m214,-13l0,11m13,2l-10,0m-214,256l0,-11m-13,-2l10,0m214,13l0,-11m13,-2l-10,0" class="g5_3" />
<path d="M693.5,821.5l0,11m-13,2l10,0m214,-13l0,11m13,2l-10,0m-214,256l0,-11m-13,-2l10,0m214,13l0,-11m13,-2l-10,0" class="g6_3" />
<path d="M788.2,826.9l21.3,0m-21.3,258.3l21.3,0M685.4,945.4l0,21.3M912.3,945.4l0,21.3M798.9,821.6l0,10.6m0,247.7l0,10.6M680.1,956l10.6,0M907,956l10.6,0M798.9,826.9l2.6,0c0,1.5,-1.2,2.7,-2.6,2.7c-1.5,0,-2.7,-1.2,-2.7,-2.7c0,-1.5,1.2,-2.7,2.7,-2.7c1.4,0,2.6,1.2,2.6,2.7m-2.6,258.3l2.6,0c0,1.4,-1.2,2.6,-2.6,2.6c-1.5,0,-2.7,-1.2,-2.7,-2.6c0,-1.5,1.2,-2.7,2.7,-2.7c1.4,0,2.6,1.2,2.6,2.7M685.4,956l2.7,0c0,1.5,-1.2,2.7,-2.7,2.7c-1.4,0,-2.6,-1.2,-2.6,-2.7c0,-1.4,1.2,-2.6,2.6,-2.6c1.5,0,2.7,1.2,2.7,2.6m224.2,0l2.7,0c0,1.5,-1.2,2.7,-2.7,2.7c-1.4,0,-2.6,-1.2,-2.6,-2.7c0,-1.4,1.2,-2.6,2.6,-2.6c1.5,0,2.7,1.2,2.7,2.6" class="g5_3" />
<path d="M788.2,826.9l21.3,0m-21.3,258.3l21.3,0M685.4,945.4l0,21.3M912.3,945.4l0,21.3M798.9,821.6l0,10.6m0,247.7l0,10.6M680.1,956l10.6,0M907,956l10.6,0M798.9,826.9l2.6,0c0,1.5,-1.2,2.7,-2.6,2.7c-1.5,0,-2.7,-1.2,-2.7,-2.7c0,-1.5,1.2,-2.7,2.7,-2.7c1.4,0,2.6,1.2,2.6,2.7m-2.6,258.3l2.6,0c0,1.4,-1.2,2.6,-2.6,2.6c-1.5,0,-2.7,-1.2,-2.7,-2.6c0,-1.5,1.2,-2.7,2.7,-2.7c1.4,0,2.6,1.2,2.6,2.7M685.4,956l2.7,0c0,1.5,-1.2,2.7,-2.7,2.7c-1.4,0,-2.6,-1.2,-2.6,-2.7c0,-1.4,1.2,-2.6,2.6,-2.6c1.5,0,2.7,1.2,2.7,2.6m224.2,0l2.7,0c0,1.5,-1.2,2.7,-2.7,2.7c-1.4,0,-2.6,-1.2,-2.6,-2.7c0,-1.4,1.2,-2.6,2.6,-2.6c1.5,0,2.7,1.2,2.7,2.6" class="g6_3" />
</g>
<path d="M693.5,1077.5l211,0l0,-242l-211,0l0,242Z" class="g7_3" />
<image x="901" y="833" width="222" height="255" xlink:href="https://majemastoragelive.blob.core.windows.net/learn-english-test/ebook/Grade3/wildanimals/page1/img/21.png" />
<path d="M904,1077l211,0l0,-242l-211,0l0,242Z" class="g4_3" />
<path d="M904,1014l211,0l0,-179l-211,0l0,179Z" class="g4_3" />
<image x="900" y="831" width="219" height="185" xlink:href="https://majemastoragelive.blob.core.windows.net/learn-english-test/ebook/Grade3/wildanimals/page1/img/22.png" />
<g clip-path="url(#c9_3)">
<path d="M904.5,821.5l0,11m-14,2l11,0m214,-13l0,11m13,2l-11,0m-213,256l0,-11m-14,-2l11,0m214,13l0,-11m13,-2l-11,0" class="g5_3" />
<path d="M904.5,821.5l0,11m-14,2l11,0m214,-13l0,11m13,2l-11,0m-213,256l0,-11m-14,-2l11,0m214,13l0,-11m13,-2l-11,0" class="g6_3" />
<path d="M998.9,826.9l21.3,0m-21.3,258.3l21.3,0M896.1,945.4l0,21.3M1123,945.4l0,21.3M1009.6,821.6l0,10.6m0,247.7l0,10.6M890.8,956l10.6,0m216.3,0l10.6,0M1009.6,826.9l2.6,0c0,1.5,-1.2,2.7,-2.6,2.7c-1.5,0,-2.7,-1.2,-2.7,-2.7c0,-1.5,1.2,-2.7,2.7,-2.7c1.4,0,2.6,1.2,2.6,2.7m-2.6,258.3l2.6,0c0,1.4,-1.2,2.6,-2.6,2.6c-1.5,0,-2.7,-1.2,-2.7,-2.6c0,-1.5,1.2,-2.7,2.7,-2.7c1.4,0,2.6,1.2,2.6,2.7M896.1,956l2.7,0c0,1.5,-1.2,2.7,-2.7,2.7c-1.5,0,-2.6,-1.2,-2.6,-2.7c0,-1.4,1.1,-2.6,2.6,-2.6c1.5,0,2.7,1.2,2.7,2.6m224.2,0l2.7,0c0,1.5,-1.2,2.7,-2.7,2.7c-1.5,0,-2.6,-1.2,-2.6,-2.7c0,-1.4,1.1,-2.6,2.6,-2.6c1.5,0,2.7,1.2,2.7,2.6" class="g5_3" />
<path d="M998.9,826.9l21.3,0m-21.3,258.3l21.3,0M896.1,945.4l0,21.3M1123,945.4l0,21.3M1009.6,821.6l0,10.6m0,247.7l0,10.6M890.8,956l10.6,0m216.3,0l10.6,0M1009.6,826.9l2.6,0c0,1.5,-1.2,2.7,-2.6,2.7c-1.5,0,-2.7,-1.2,-2.7,-2.7c0,-1.5,1.2,-2.7,2.7,-2.7c1.4,0,2.6,1.2,2.6,2.7m-2.6,258.3l2.6,0c0,1.4,-1.2,2.6,-2.6,2.6c-1.5,0,-2.7,-1.2,-2.7,-2.6c0,-1.5,1.2,-2.7,2.7,-2.7c1.4,0,2.6,1.2,2.6,2.7M896.1,956l2.7,0c0,1.5,-1.2,2.7,-2.7,2.7c-1.5,0,-2.6,-1.2,-2.6,-2.7c0,-1.4,1.1,-2.6,2.6,-2.6c1.5,0,2.7,1.2,2.7,2.6m224.2,0l2.7,0c0,1.5,-1.2,2.7,-2.7,2.7c-1.5,0,-2.6,-1.2,-2.6,-2.7c0,-1.4,1.1,-2.6,2.6,-2.6c1.5,0,2.7,1.2,2.7,2.6" class="g6_3" />
</g>
<path d="M904.5,1077.5l211,0l0,-242l-211,0l0,242Z" class="g7_3" />
<path d="M0,1190l214,0L214,0L0,0L0,1190Z" class="g10_3" />
<g clip-path="url(#c0_3)">
<path d="M210.2,1137.1l1.5,1.6c0.3,-0.3,0.7,-0.6,0.8,-0.9l-1.5,-1.6l1.5,-1.7c-0.1,-0.3,-0.5,-0.6,-0.8,-0.8l-1.5,1.6l-1.4,-1.6c-0.3,0.2,-0.7,0.5,-0.8,0.8l1.5,1.7l-1.5,1.6c0.1,0.3,0.5,0.6,0.8,0.9Zm0,15.9l1.5,1.7c0.3,-0.3,0.7,-0.6,0.8,-0.9l-1.5,-1.6l1.5,-1.7c-0.1,-0.3,-0.5,-0.6,-0.8,-0.8l-1.5,1.6l-1.4,-1.6c-0.3,0.2,-0.7,0.5,-0.8,0.8l1.5,1.7l-1.5,1.6c0.1,0.3,0.5,0.6,0.8,0.9Zm0,48l1.5,1.6c0.3,-0.2,0.7,-0.6,0.8,-0.8l-1.5,-1.7l1.5,-1.6c-0.1,-0.4,-0.5,-0.6,-0.8,-0.9l-1.5,1.7l-1.4,-1.7c-0.3,0.3,-0.7,0.5,-0.8,0.9l1.5,1.6l-1.5,1.7c0.1,0.2,0.5,0.6,0.8,0.8Zm0,-32l1.5,1.7c0.3,-0.3,0.7,-0.6,0.8,-0.9l-1.5,-1.6l1.5,-1.7c-0.1,-0.3,-0.5,-0.6,-0.8,-0.9l-1.5,1.7l-1.4,-1.7c-0.3,0.3,-0.7,0.6,-0.8,0.9l1.5,1.7l-1.5,1.6c0.1,0.3,0.5,0.6,0.8,0.9Zm0,16l1.5,1.7c0.3,-0.3,0.7,-0.7,0.8,-0.9l-1.5,-1.7l1.5,-1.6c-0.1,-0.4,-0.5,-0.6,-0.8,-0.9l-1.5,1.7l-1.4,-1.7c-0.3,0.3,-0.7,0.5,-0.8,0.9l1.5,1.6l-1.5,1.7c0.1,0.2,0.5,0.6,0.8,0.9Zm0,-129.6l1.5,1.7c0.3,-0.3,0.7,-0.6,0.8,-0.9l-1.5,-1.7l1.5,-1.6c-0.1,-0.4,-0.5,-0.6,-0.8,-0.9l-1.5,1.7l-1.4,-1.7c-0.3,0.3,-0.7,0.5,-0.8,0.9l1.5,1.6l-1.5,1.7c0.1,0.3,0.5,0.6,0.8,0.9Zm0,16l1.5,1.6c0.3,-0.2,0.7,-0.6,0.8,-0.8l-1.5,-1.7l1.5,-1.6c-0.1,-0.4,-0.5,-0.6,-0.8,-0.9l-1.5,1.7l-1.4,-1.7c-0.3,0.3,-0.7,0.5,-0.8,0.9l1.5,1.6l-1.5,1.7c0.1,0.2,0.5,0.6,0.8,0.8Zm0,47.9l1.5,1.7c0.3,-0.3,0.7,-0.6,0.8,-0.9l-1.5,-1.6l1.5,-1.7c-0.1,-0.3,-0.5,-0.6,-0.8,-0.8l-1.5,1.6l-1.4,-1.6c-0.3,0.2,-0.7,0.5,-0.8,0.8l1.5,1.7l-1.5,1.6c0.1,0.3,0.5,0.6,0.8,0.9Zm0,-31.9l1.5,1.6c0.3,-0.2,0.7,-0.6,0.8,-0.8l-1.5,-1.7l1.5,-1.6c-0.1,-0.4,-0.5,-0.6,-0.8,-0.9l-1.5,1.6l-1.4,-1.6c-0.3,0.3,-0.7,0.5,-0.8,0.9l1.5,1.6l-1.5,1.7c0.1,0.2,0.5,0.6,0.8,0.8Zm0,16l1.5,1.6c0.3,-0.2,0.7,-0.6,0.8,-0.9l-1.5,-1.6l1.5,-1.7c-0.1,-0.3,-0.5,-0.6,-0.8,-0.8l-1.5,1.6l-1.4,-1.6c-0.3,0.2,-0.7,0.5,-0.8,0.8l1.5,1.7l-1.5,1.6c0.1,0.3,0.5,0.7,0.8,0.9Zm0,-129.6l1.5,1.6c0.3,-0.2,0.7,-0.6,0.8,-0.9L211,972.9l1.5,-1.7c-0.1,-0.3,-0.5,-0.6,-0.8,-0.8l-1.5,1.6l-1.4,-1.6c-0.3,0.2,-0.7,0.5,-0.8,0.8l1.5,1.7l-1.5,1.6c0.1,0.3,0.5,0.7,0.8,0.9Zm0,16l1.5,1.6c0.3,-0.3,0.7,-0.6,0.8,-0.9L211,988.9l1.5,-1.7c-0.1,-0.3,-0.5,-0.6,-0.8,-0.8l-1.5,1.6l-1.4,-1.6c-0.3,0.2,-0.7,0.5,-0.8,0.8l1.5,1.7l-1.5,1.6c0.1,0.3,0.5,0.6,0.8,0.9Zm0,47.9l1.5,1.6c0.3,-0.2,0.7,-0.6,0.8,-0.8l-1.5,-1.7l1.5,-1.6c-0.1,-0.4,-0.5,-0.6,-0.8,-0.9l-1.5,1.7l-1.4,-1.7c-0.3,0.3,-0.7,0.5,-0.8,0.9l1.5,1.6l-1.5,1.7c0.1,0.2,0.5,0.6,0.8,0.8Zm0,-32l1.5,1.7c0.3,-0.3,0.7,-0.6,0.8,-0.9l-1.5,-1.6l1.5,-1.7c-0.1,-0.3,-0.5,-0.6,-0.8,-0.9l-1.5,1.7l-1.4,-1.7c-0.3,0.3,-0.7,0.6,-0.8,0.9l1.5,1.7l-1.5,1.6c0.1,0.3,0.5,0.6,0.8,0.9Zm0,16l1.5,1.7c0.3,-0.3,0.7,-0.6,0.8,-0.9l-1.5,-1.7l1.5,-1.6c-0.1,-0.4,-0.5,-0.6,-0.8,-0.9l-1.5,1.7l-1.4,-1.7c-0.3,0.3,-0.7,0.5,-0.8,0.9l1.5,1.6l-1.5,1.7c0.1,0.3,0.5,0.6,0.8,0.9Zm0,-129.6l1.5,1.7c0.3,-0.3,0.7,-0.6,0.8,-0.9L211,891.3l1.5,-1.7c-0.1,-0.3,-0.5,-0.6,-0.8,-0.9l-1.5,1.7l-1.4,-1.7c-0.3,0.3,-0.7,0.6,-0.8,0.9l1.5,1.7l-1.5,1.6c0.1,0.3,0.5,0.6,0.8,0.9Zm0,16l1.5,1.7c0.3,-0.3,0.7,-0.7,0.8,-0.9L211,907.2l1.5,-1.6c-0.1,-0.4,-0.5,-0.6,-0.8,-0.9l-1.5,1.7l-1.4,-1.7c-0.3,0.3,-0.7,0.5,-0.8,0.9l1.5,1.6l-1.5,1.7c0.1,0.2,0.5,0.6,0.8,0.9Zm0,48l1.5,1.6c0.3,-0.3,0.7,-0.6,0.8,-0.9L211,955.2l1.5,-1.7c-0.1,-0.3,-0.5,-0.6,-0.8,-0.8l-1.5,1.6l-1.4,-1.6c-0.3,0.2,-0.7,0.5,-0.8,0.8l1.5,1.7l-1.5,1.6c0.1,0.3,0.5,0.6,0.8,0.9Zm0,-32l1.5,1.6c0.3,-0.2,0.7,-0.6,0.8,-0.8L211,923.2l1.5,-1.6c-0.1,-0.4,-0.5,-0.6,-0.8,-0.9l-1.5,1.7l-1.4,-1.7c-0.3,0.3,-0.7,0.5,-0.8,0.9l1.5,1.6l-1.5,1.7c0.1,0.2,0.5,0.6,0.8,0.8Zm0,16l1.5,1.6c0.3,-0.2,0.7,-0.6,0.8,-0.8L211,939.2l1.5,-1.6c-0.1,-0.4,-0.5,-0.7,-0.8,-0.9l-1.5,1.6l-1.4,-1.6c-0.3,0.2,-0.7,0.5,-0.8,0.9l1.5,1.6l-1.5,1.7c0.1,0.2,0.5,0.6,0.8,0.8Zm0,-129.6l1.5,1.6c0.3,-0.2,0.7,-0.6,0.8,-0.8L211,809.6l1.5,-1.6c-0.1,-0.4,-0.5,-0.7,-0.8,-0.9l-1.5,1.6l-1.4,-1.6c-0.3,0.2,-0.7,0.5,-0.8,0.9l1.5,1.6l-1.5,1.7c0.1,0.2,0.5,0.6,0.8,0.8Zm0,16l1.5,1.6c0.3,-0.3,0.7,-0.6,0.8,-0.9L211,825.6l1.5,-1.7c-0.1,-0.3,-0.5,-0.6,-0.8,-0.8l-1.5,1.6l-1.4,-1.6c-0.3,0.2,-0.7,0.5,-0.8,0.8l1.5,1.7l-1.5,1.6c0.1,0.3,0.5,0.6,0.8,0.9Zm0,47.9l1.5,1.7c0.3,-0.3,0.7,-0.7,0.8,-0.9L211,873.5l1.5,-1.6c-0.1,-0.4,-0.5,-0.6,-0.8,-0.9l-1.5,1.7L208.8,871c-0.3,0.3,-0.7,0.5,-0.8,0.9l1.5,1.6l-1.5,1.7c0.1,0.2,0.5,0.6,0.8,0.9Zm0,-32l1.5,1.7c0.3,-0.3,0.7,-0.6,0.8,-0.9L211,841.6l1.5,-1.7c-0.1,-0.3,-0.5,-0.6,-0.8,-0.8l-1.5,1.6l-1.4,-1.6c-0.3,0.2,-0.7,0.5,-0.8,0.8l1.5,1.7l-1.5,1.6c0.1,0.3,0.5,0.6,0.8,0.9Zm0,16l1.5,1.7c0.3,-0.3,0.7,-0.6,0.8,-0.9L211,857.6l1.5,-1.7c-0.1,-0.3,-0.5,-0.6,-0.8,-0.9l-1.5,1.7L208.8,855c-0.3,0.3,-0.7,0.6,-0.8,0.9l1.5,1.7l-1.5,1.6c0.1,0.3,0.5,0.6,0.8,0.9Zm0,-129.6l1.5,1.7c0.3,-0.3,0.7,-0.6,0.8,-0.9L211,728l1.5,-1.7c-0.1,-0.3,-0.5,-0.6,-0.8,-0.9l-1.5,1.7l-1.4,-1.7c-0.3,0.3,-0.7,0.6,-0.8,0.9l1.5,1.7l-1.5,1.6c0.1,0.3,0.5,0.6,0.8,0.9Zm0,16l1.5,1.7c0.3,-0.3,0.7,-0.6,0.8,-0.9L211,743.9l1.5,-1.6c-0.1,-0.4,-0.5,-0.6,-0.8,-0.9l-1.5,1.7l-1.4,-1.7c-0.3,0.3,-0.7,0.5,-0.8,0.9l1.5,1.6l-1.5,1.7c0.1,0.3,0.5,0.6,0.8,0.9Zm0,48l1.5,1.6c0.3,-0.3,0.7,-0.6,0.8,-0.9L211,791.9l1.5,-1.7c-0.1,-0.3,-0.5,-0.6,-0.8,-0.8l-1.5,1.6l-1.4,-1.6c-0.3,0.2,-0.7,0.5,-0.8,0.8l1.5,1.7l-1.5,1.6c0.1,0.3,0.5,0.6,0.8,0.9Zm0,-32l1.5,1.6c0.3,-0.2,0.7,-0.6,0.8,-0.8L211,759.9l1.5,-1.6c-0.1,-0.4,-0.5,-0.6,-0.8,-0.9l-1.5,1.7l-1.4,-1.7c-0.3,0.3,-0.7,0.5,-0.8,0.9l1.5,1.6l-1.5,1.7c0.1,0.2,0.5,0.6,0.8,0.8Zm0,16l1.5,1.6c0.3,-0.2,0.7,-0.6,0.8,-0.8L211,775.9l1.5,-1.6c-0.1,-0.4,-0.5,-0.6,-0.8,-0.9l-1.5,1.6l-1.4,-1.6c-0.3,0.3,-0.7,0.5,-0.8,0.9l1.5,1.6l-1.5,1.7c0.1,0.2,0.5,0.6,0.8,0.8Zm0,-129.6l1.5,1.6c0.3,-0.2,0.7,-0.6,0.8,-0.8L211,646.3l1.5,-1.6c-0.1,-0.4,-0.5,-0.6,-0.8,-0.9l-1.5,1.6l-1.4,-1.6c-0.3,0.3,-0.7,0.5,-0.8,0.9l1.5,1.6L208,648c0.1,0.2,0.5,0.6,0.8,0.8Zm0,16l1.5,1.6c0.3,-0.2,0.7,-0.6,0.8,-0.9L211,662.3l1.5,-1.7c-0.1,-0.3,-0.5,-0.6,-0.8,-0.8l-1.5,1.6l-1.4,-1.6c-0.3,0.2,-0.7,0.5,-0.8,0.8l1.5,1.7l-1.5,1.6c0.1,0.3,0.5,0.7,0.8,0.9Zm0,47.9l1.5,1.7c0.3,-0.3,0.7,-0.6,0.8,-0.9L211,710.2l1.5,-1.6c-0.1,-0.4,-0.5,-0.6,-0.8,-0.9l-1.5,1.7l-1.4,-1.7c-0.3,0.3,-0.7,0.5,-0.8,0.9l1.5,1.6l-1.5,1.7c0.1,0.3,0.5,0.6,0.8,0.9Zm0,-31.9l1.5,1.6c0.3,-0.3,0.7,-0.6,0.8,-0.9L211,678.3l1.5,-1.7c-0.1,-0.3,-0.5,-0.6,-0.8,-0.8l-1.5,1.6l-1.4,-1.6c-0.3,0.2,-0.7,0.5,-0.8,0.8l1.5,1.7l-1.5,1.6c0.1,0.3,0.5,0.6,0.8,0.9Zm0,15.9l1.5,1.7c0.3,-0.3,0.7,-0.6,0.8,-0.9L211,694.3l1.5,-1.7c-0.1,-0.3,-0.5,-0.6,-0.8,-0.9l-1.5,1.7l-1.4,-1.7c-0.3,0.3,-0.7,0.6,-0.8,0.9l1.5,1.7l-1.5,1.6c0.1,0.3,0.5,0.6,0.8,0.9Zm0,-129.6l1.5,1.7c0.3,-0.3,0.7,-0.6,0.8,-0.9L211,564.7l1.5,-1.7c-0.1,-0.3,-0.5,-0.6,-0.8,-0.8l-1.5,1.6l-1.4,-1.6c-0.3,0.2,-0.7,0.5,-0.8,0.8l1.5,1.7l-1.5,1.6c0.1,0.3,0.5,0.6,0.8,0.9Zm0,16l1.5,1.7c0.3,-0.3,0.7,-0.6,0.8,-0.9L211,580.7l1.5,-1.7c-0.1,-0.3,-0.5,-0.6,-0.8,-0.9l-1.5,1.7l-1.4,-1.7c-0.3,0.3,-0.7,0.6,-0.8,0.9l1.5,1.7l-1.5,1.6c0.1,0.3,0.5,0.6,0.8,0.9Zm0,48l1.5,1.6c0.3,-0.2,0.7,-0.6,0.8,-0.8L211,628.6l1.5,-1.7c-0.1,-0.3,-0.5,-0.6,-0.8,-0.8l-1.5,1.6l-1.4,-1.6c-0.3,0.2,-0.7,0.5,-0.8,0.8l1.5,1.7l-1.5,1.7c0.1,0.2,0.5,0.6,0.8,0.8Zm0,-32l1.5,1.7c0.3,-0.3,0.7,-0.7,0.8,-0.9L211,596.6l1.5,-1.6c-0.1,-0.4,-0.5,-0.6,-0.8,-0.9l-1.5,1.7l-1.4,-1.7c-0.3,0.3,-0.7,0.5,-0.8,0.9l1.5,1.6l-1.5,1.7c0.1,0.2,0.5,0.6,0.8,0.9Zm0,16l1.5,1.6c0.3,-0.2,0.7,-0.6,0.8,-0.8L211,612.6l1.5,-1.6c-0.1,-0.4,-0.5,-0.6,-0.8,-0.9l-1.5,1.7l-1.4,-1.7c-0.3,0.3,-0.7,0.5,-0.8,0.9l1.5,1.6l-1.5,1.7c0.1,0.2,0.5,0.6,0.8,0.8Zm0,-129.6l1.5,1.6c0.3,-0.2,0.7,-0.6,0.8,-0.8L211,483l1.5,-1.6c-0.1,-0.4,-0.5,-0.6,-0.8,-0.9l-1.5,1.7l-1.4,-1.7c-0.3,0.3,-0.7,0.5,-0.8,0.9l1.5,1.6l-1.5,1.7c0.1,0.2,0.5,0.6,0.8,0.8Zm0,16l1.5,1.6c0.3,-0.2,0.7,-0.6,0.8,-0.8L211,499l1.5,-1.6c-0.1,-0.4,-0.5,-0.6,-0.8,-0.9l-1.5,1.6l-1.4,-1.6c-0.3,0.3,-0.7,0.5,-0.8,0.9l1.5,1.6l-1.5,1.7c0.1,0.2,0.5,0.6,0.8,0.8Zm0,47.9l1.5,1.7c0.3,-0.3,0.7,-0.6,0.8,-0.9L211,547l1.5,-1.7c-0.1,-0.3,-0.5,-0.6,-0.8,-0.9l-1.5,1.7l-1.4,-1.7c-0.3,0.3,-0.7,0.6,-0.8,0.9l1.5,1.7l-1.5,1.6c0.1,0.3,0.5,0.6,0.8,0.9Zm0,-31.9l1.5,1.6c0.3,-0.3,0.7,-0.6,0.8,-0.9L211,515l1.5,-1.7c-0.1,-0.3,-0.5,-0.6,-0.8,-0.8l-1.5,1.6l-1.4,-1.6c-0.3,0.2,-0.7,0.5,-0.8,0.8l1.5,1.7l-1.5,1.6c0.1,0.3,0.5,0.6,0.8,0.9Zm0,15.9l1.5,1.7c0.3,-0.3,0.7,-0.6,0.8,-0.9L211,531l1.5,-1.7c-0.1,-0.3,-0.5,-0.6,-0.8,-0.8l-1.5,1.6l-1.4,-1.6c-0.3,0.2,-0.7,0.5,-0.8,0.8l1.5,1.7l-1.5,1.6c0.1,0.3,0.5,0.6,0.8,0.9Zm0,-129.5l1.5,1.6c0.3,-0.3,0.7,-0.6,0.8,-0.9L211,401.4l1.5,-1.7c-0.1,-0.3,-0.5,-0.6,-0.8,-0.8l-1.5,1.6l-1.4,-1.6c-0.3,0.2,-0.7,0.5,-0.8,0.8l1.5,1.7L208,403c0.1,0.3,0.5,0.6,0.8,0.9Zm0,15.9l1.5,1.7c0.3,-0.3,0.7,-0.6,0.8,-0.9L211,417.4l1.5,-1.7c-0.1,-0.3,-0.5,-0.6,-0.8,-0.9l-1.5,1.7l-1.4,-1.7c-0.3,0.3,-0.7,0.6,-0.8,0.9l1.5,1.7L208,419c0.1,0.3,0.5,0.6,0.8,0.9Zm0,48l1.5,1.6c0.3,-0.2,0.7,-0.6,0.8,-0.8L211,465.3l1.5,-1.6c-0.1,-0.4,-0.5,-0.6,-0.8,-0.9l-1.5,1.6l-1.4,-1.6c-0.3,0.3,-0.7,0.5,-0.8,0.9l1.5,1.6L208,467c0.1,0.2,0.5,0.6,0.8,0.8Zm0,-32l1.5,1.7c0.3,-0.3,0.7,-0.6,0.8,-0.9L211,433.3l1.5,-1.6c-0.1,-0.4,-0.5,-0.6,-0.8,-0.9l-1.5,1.7l-1.4,-1.7c-0.3,0.3,-0.7,0.5,-0.8,0.9l1.5,1.6L208,435c0.1,0.3,0.5,0.6,0.8,0.9Zm0,16l1.5,1.6c0.3,-0.2,0.7,-0.6,0.8,-0.8L211,449.3l1.5,-1.6c-0.1,-0.4,-0.5,-0.6,-0.8,-0.9l-1.5,1.7l-1.4,-1.7c-0.3,0.3,-0.7,0.5,-0.8,0.9l1.5,1.6L208,451c0.1,0.2,0.5,0.6,0.8,0.8Zm0,-129.6l1.5,1.7c0.3,-0.3,0.7,-0.7,0.8,-0.9L211,319.7l1.5,-1.6c-0.1,-0.4,-0.5,-0.6,-0.8,-0.9l-1.5,1.7l-1.4,-1.7c-0.3,0.3,-0.7,0.5,-0.8,0.9l1.5,1.6l-1.5,1.7c0.1,0.2,0.5,0.6,0.8,0.9Zm0,16l1.5,1.6c0.3,-0.2,0.7,-0.6,0.8,-0.8L211,335.7l1.5,-1.6c-0.1,-0.4,-0.5,-0.6,-0.8,-0.9l-1.5,1.6l-1.4,-1.6c-0.3,0.3,-0.7,0.5,-0.8,0.9l1.5,1.6l-1.5,1.7c0.1,0.2,0.5,0.6,0.8,0.8Zm0,47.9l1.5,1.7c0.3,-0.3,0.7,-0.6,0.8,-0.9L211,383.7l1.5,-1.7c-0.1,-0.3,-0.5,-0.6,-0.8,-0.9l-1.5,1.7l-1.4,-1.7c-0.3,0.3,-0.7,0.6,-0.8,0.9l1.5,1.7l-1.5,1.6c0.1,0.3,0.5,0.6,0.8,0.9Zm0,-31.9l1.5,1.6c0.3,-0.2,0.7,-0.6,0.8,-0.8L211,351.7l1.5,-1.7c-0.1,-0.3,-0.5,-0.6,-0.8,-0.8l-1.5,1.6l-1.4,-1.6c-0.3,0.2,-0.7,0.5,-0.8,0.8l1.5,1.7l-1.5,1.7c0.1,0.2,0.5,0.6,0.8,0.8Zm0,16l1.5,1.6c0.3,-0.3,0.7,-0.6,0.8,-0.9L211,367.7l1.5,-1.7c-0.1,-0.3,-0.5,-0.6,-0.8,-0.8l-1.5,1.6l-1.4,-1.6c-0.3,0.2,-0.7,0.5,-0.8,0.8l1.5,1.7l-1.5,1.6c0.1,0.3,0.5,0.6,0.8,0.9Zm0,-129.6l1.5,1.6c0.3,-0.3,0.7,-0.6,0.8,-0.9L211,238.1l1.5,-1.7c-0.1,-0.3,-0.5,-0.6,-0.8,-0.8l-1.5,1.6l-1.4,-1.6c-0.3,0.2,-0.7,0.5,-0.8,0.8l1.5,1.7l-1.5,1.6c0.1,0.3,0.5,0.6,0.8,0.9Zm0,15.9l1.5,1.7c0.3,-0.3,0.7,-0.6,0.8,-0.9L211,254.1l1.5,-1.7c-0.1,-0.3,-0.5,-0.6,-0.8,-0.8l-1.5,1.6l-1.4,-1.6c-0.3,0.2,-0.7,0.5,-0.8,0.8l1.5,1.7l-1.5,1.6c0.1,0.3,0.5,0.6,0.8,0.9Zm0,48l1.5,1.6c0.3,-0.2,0.7,-0.6,0.8,-0.8L211,302l1.5,-1.6c-0.1,-0.4,-0.5,-0.6,-0.8,-0.9l-1.5,1.6l-1.4,-1.6c-0.3,0.3,-0.7,0.5,-0.8,0.9l1.5,1.6l-1.5,1.7c0.1,0.2,0.5,0.6,0.8,0.8Zm0,-32l1.5,1.7c0.3,-0.3,0.7,-0.6,0.8,-0.9L211,270.1l1.5,-1.7c-0.1,-0.3,-0.5,-0.6,-0.8,-0.9l-1.5,1.7l-1.4,-1.7c-0.3,0.3,-0.7,0.6,-0.8,0.9l1.5,1.7l-1.5,1.6c0.1,0.3,0.5,0.6,0.8,0.9Zm0,16l1.5,1.7c0.3,-0.3,0.7,-0.7,0.8,-0.9L211,286l1.5,-1.6c-0.1,-0.4,-0.5,-0.6,-0.8,-0.9l-1.5,1.7l-1.4,-1.7c-0.3,0.3,-0.7,0.5,-0.8,0.9l1.5,1.6l-1.5,1.7c0.1,0.2,0.5,0.6,0.8,0.9Zm0,-129.6l1.5,1.7c0.3,-0.3,0.7,-0.6,0.8,-0.9L211,156.4l1.5,-1.6c-0.1,-0.4,-0.5,-0.6,-0.8,-0.9l-1.5,1.7l-1.4,-1.7c-0.3,0.3,-0.7,0.5,-0.8,0.9l1.5,1.6l-1.5,1.7c0.1,0.3,0.5,0.6,0.8,0.9Zm0,16l1.5,1.6c0.3,-0.2,0.7,-0.6,0.8,-0.8L211,172.4l1.5,-1.6c-0.1,-0.4,-0.5,-0.6,-0.8,-0.9l-1.5,1.7l-1.4,-1.7c-0.3,0.3,-0.7,0.5,-0.8,0.9l1.5,1.6l-1.5,1.7c0.1,0.2,0.5,0.6,0.8,0.8Zm0,47.9l1.5,1.7c0.3,-0.3,0.7,-0.6,0.8,-0.9L211,220.4l1.5,-1.7c-0.1,-0.3,-0.5,-0.6,-0.8,-0.8l-1.5,1.6l-1.4,-1.6c-0.3,0.2,-0.7,0.5,-0.8,0.8l1.5,1.7L208,222c0.1,0.3,0.5,0.6,0.8,0.9Zm0,-31.9l1.5,1.6c0.3,-0.2,0.7,-0.6,0.8,-0.8L211,188.4l1.5,-1.6c-0.1,-0.4,-0.5,-0.6,-0.8,-0.9l-1.5,1.6l-1.4,-1.6c-0.3,0.3,-0.7,0.5,-0.8,0.9l1.5,1.6l-1.5,1.7c0.1,0.2,0.5,0.6,0.8,0.8Zm0,16l1.5,1.6c0.3,-0.3,0.7,-0.6,0.8,-0.9L211,204.4l1.5,-1.7c-0.1,-0.3,-0.5,-0.6,-0.8,-0.8l-1.5,1.6l-1.4,-1.6c-0.3,0.2,-0.7,0.5,-0.8,0.8l1.5,1.7L208,206c0.1,0.3,0.5,0.6,0.8,0.9Zm0,-129.6l1.5,1.6c0.3,-0.2,0.7,-0.6,0.8,-0.8L211,74.8l1.5,-1.7c-0.1,-0.3,-0.5,-0.6,-0.8,-0.8l-1.5,1.6l-1.4,-1.6c-0.3,0.2,-0.7,0.5,-0.8,0.8l1.5,1.7L208,76.5c0.1,0.2,0.5,0.6,0.8,0.8Zm0,16l1.5,1.6c0.3,-0.3,0.7,-0.6,0.8,-0.9L211,90.8l1.5,-1.7c-0.1,-0.3,-0.5,-0.6,-0.8,-0.8l-1.5,1.6l-1.4,-1.6c-0.3,0.2,-0.7,0.5,-0.8,0.8l1.5,1.7L208,92.4c0.1,0.3,0.5,0.6,0.8,0.9Zm0,47.9l1.5,1.6c0.3,-0.2,0.7,-0.6,0.8,-0.8L211,138.7l1.5,-1.6c-0.1,-0.4,-0.5,-0.6,-0.8,-0.9l-1.5,1.7l-1.4,-1.7c-0.3,0.3,-0.7,0.5,-0.8,0.9l1.5,1.6l-1.5,1.7c0.1,0.2,0.5,0.6,0.8,0.8Zm0,-32l1.5,1.7c0.3,-0.3,0.7,-0.6,0.8,-0.9L211,106.8l1.5,-1.7c-0.1,-0.3,-0.5,-0.6,-0.8,-0.9l-1.5,1.7l-1.4,-1.7c-0.3,0.3,-0.7,0.6,-0.8,0.9l1.5,1.7l-1.5,1.6c0.1,0.3,0.5,0.6,0.8,0.9Zm0,16l1.5,1.7c0.3,-0.3,0.7,-0.6,0.8,-0.9L211,122.7l1.5,-1.6c-0.1,-0.4,-0.5,-0.6,-0.8,-0.9l-1.5,1.7l-1.4,-1.7c-0.3,0.3,-0.7,0.5,-0.8,0.9l1.5,1.6l-1.5,1.7c0.1,0.3,0.5,0.6,0.8,0.9Zm0,-126l1.5,1.6c0.3,-0.2,0.7,-0.6,0.8,-0.8L211,-3.3l1.5,-1.6c-0.1,-0.4,-0.5,-0.6,-0.8,-0.9l-1.5,1.7l-1.4,-1.7c-0.3,0.3,-0.7,0.5,-0.8,0.9l1.5,1.6L208,-1.6c0.1,0.2,0.5,0.6,0.8,0.8Zm0,15.9l1.5,1.6c0.3,-0.2,0.7,-0.6,0.8,-0.8L211,12.6L212.5,11c-0.1,-0.4,-0.5,-0.6,-0.8,-0.9l-1.5,1.6l-1.4,-1.6c-0.3,0.3,-0.7,0.5,-0.8,0.9l1.5,1.6L208,14.3c0.1,0.2,0.5,0.6,0.8,0.8Zm0,47.9l1.5,1.7c0.3,-0.3,0.7,-0.6,0.8,-0.9L211,60.6l1.5,-1.7C212.4,58.6,212,58.3,211.7,58l-1.5,1.7L208.8,58c-0.3,0.3,-0.7,0.6,-0.8,0.9l1.5,1.7L208,62.2c0.1,0.3,0.5,0.6,0.8,0.9Zm0,-31.9l1.5,1.6c0.3,-0.2,0.7,-0.6,0.8,-0.9L211,28.6l1.5,-1.7c-0.1,-0.3,-0.5,-0.6,-0.8,-0.8l-1.5,1.6l-1.4,-1.6c-0.3,0.2,-0.7,0.5,-0.8,0.8l1.5,1.7L208,30.2c0.1,0.3,0.5,0.7,0.8,0.9Zm0,15.9l1.5,1.7c0.3,-0.3,0.7,-0.6,0.8,-0.9L211,44.6l1.5,-1.7c-0.1,-0.3,-0.5,-0.6,-0.8,-0.8l-1.5,1.6l-1.4,-1.6c-0.3,0.2,-0.7,0.5,-0.8,0.8l1.5,1.7L208,46.2c0.1,0.3,0.5,0.6,0.8,0.9Z" class="g4_3" />
</g>
<path d="M62.8,960.1c0,0,-4,0,-4,4l0,20.6c0,0,0,4,4,4l93,0c0,0,4,0,4,-4l0,-20.6c0,0,0,-4,-4,-4Z" class="g11_3" />
<path d="M62.8,960.1c0,0,-4,0,-4,4l0,20.6c0,0,0,4,4,4l93,0c0,0,4,0,4,-4l0,-20.6c0,0,0,-4,-4,-4l-93,0Z" class="g12_3" />
<path d="M64.3,962.4l-0.6,-4.5m-0.9,5l-2,-4.2m1.1,4.9l-3.7,-2.7m3.2,3.8L56.8,964m4.5,2.6l-4.6,0m4.6,2.3l-4.6,0m4.6,2.3l-4.6,0m4.6,2.3l-4.6,0m4.6,2.3l-4.6,0m4.6,2.3l-4.6,0m4.6,2.4l-4.6,0m4.6,2.3l-4.6,0m4.7,1.4l-4.3,1.6m5,-0.3l-3.4,3m4.5,-2.3l-1.8,4.2m3.2,-4l0,4.6m2.3,-4.6l0,4.6m2.3,-4.6l0,4.6m2.3,-4.6l0,4.6m2.3,-4.6l0,4.6m2.3,-4.6l0,4.6m2.3,-4.6l0,4.6m2.3,-4.6l0,4.6M83,986.4l0,4.6m2.3,-4.6l0,4.6m2.3,-4.6l0,4.6m2.3,-4.6l0,4.6m2.3,-4.6l0,4.6m2.3,-4.6l0,4.6m2.4,-4.6l0,4.6m2.3,-4.6l0,4.6m2.3,-4.6l0,4.6m2.3,-4.6l0,4.6m2.3,-4.6l0,4.6m2.3,-4.6l0,4.6m2.3,-4.6l0,4.6m2.3,-4.6l0,4.6m2.3,-4.6l0,4.6m2.3,-4.6l0,4.6m2.3,-4.6l0,4.6m2.3,-4.6l0,4.6m2.3,-4.6l0,4.6m2.3,-4.6l0,4.6m2.3,-4.6l0,4.6m2.4,-4.6l0,4.6m2.3,-4.6l0,4.6m2.3,-4.6l0,4.6m2.3,-4.6l0,4.6m2.3,-4.6l0,4.6m2.3,-4.6l0,4.6m2.3,-4.6l0,4.6m2.3,-4.6l0,4.6m2.3,-4.6l0,4.6m2.3,-4.6l0,4.6m2.2,-4.6l0.2,4.6m1.2,-4.9l1.9,4.2M157,985.4l3.3,3.1m-2.8,-4.2l4.5,1.2m-4.3,-2.9l4.6,0m-4.6,-2.3l4.6,0M157.7,978l4.6,0m-4.6,-2.3l4.6,0m-4.6,-2.3l4.6,0m-4.6,-2.3l4.6,0m-4.6,-2.3l4.6,0m-4.6,-2.3l4.6,0m-4.7,-1.7l4.4,-1.2m-5.1,-0.1l3.8,-2.7m-4.5,2l1.7,-4.2m-3.2,3.8l0.2,-4.5m-2.4,4.5l0,-4.5m-2.3,4.5l0,-4.5m-2.3,4.5l0,-4.5m-2.3,4.5l0,-4.5m-2.3,4.5l0,-4.5m-2.3,4.5l0,-4.5m-2.3,4.5l0,-4.5m-2.3,4.5l0,-4.5m-2.3,4.5l0,-4.5m-2.3,4.5l0,-4.5m-2.4,4.5l0,-4.5m-2.3,4.5l0,-4.5m-2.3,4.5l0,-4.5m-2.3,4.5l0,-4.5m-2.3,4.5l0,-4.5m-2.3,4.5l0,-4.5m-2.3,4.5l0,-4.5m-2.3,4.5l0,-4.5m-2.3,4.5l0,-4.5m-2.3,4.5l0,-4.5m-2.3,4.5l0,-4.5m-2.3,4.5l0,-4.5m-2.3,4.5l0,-4.5m-2.3,4.5l0,-4.5m-2.3,4.5l0,-4.5m-2.3,4.5l0,-4.5m-2.4,4.5l0,-4.5m-2.3,4.5l0,-4.5m-2.3,4.5l0,-4.5m-2.3,4.5l0,-4.5m-2.3,4.5l0,-4.5M81,962.4l0,-4.5m-2.3,4.5l0,-4.5m-2.3,4.5l0,-4.5m-2.3,4.5l0,-4.5m-2.3,4.5l0,-4.5m-2.3,4.5l0,-4.5m-2.3,4.5l0,-4.5m-2.3,4.5l0,-4.5" class="g13_3" />
<use x="0" y="-15" xlink:href="#button"/>

<use x="0" y="-83" xlink:href="#button"/>
</svg>